<?xml version="1.0" encoding="UTF-8" standalone="no"?>
<svg width="2098.8px" height="1418.4px" viewBox="0 0 2098.8 1418.4"
 xmlns="http://www.w3.org/2000/svg" xmlns:xlink="http://www.w3.org/1999/xlink" version="1.2" baseProfile="tiny">
<title>156한말씀만하소서.musicxml (3)</title>
<desc>Generated by MuseScore 4.2.1</desc>
<polyline class="StaffLines" fill="none" stroke="#000000" stroke-width="2.73" stroke-linejoin="bevel" points="104.4,386.198 1994.4,386.198"/>
<polyline class="StaffLines" fill="none" stroke="#000000" stroke-width="2.73" stroke-linejoin="bevel" points="104.4,410.998 1994.4,410.998"/>
<polyline class="StaffLines" fill="none" stroke="#000000" stroke-width="2.73" stroke-linejoin="bevel" points="104.4,435.798 1994.4,435.798"/>
<polyline class="StaffLines" fill="none" stroke="#000000" stroke-width="2.73" stroke-linejoin="bevel" points="104.4,460.598 1994.4,460.598"/>
<polyline class="StaffLines" fill="none" stroke="#000000" stroke-width="2.73" stroke-linejoin="bevel" points="104.4,485.398 1994.4,485.398"/>
<path class="MeasureNumber" d="M123.191,328.318 L122.151,330.158 C120.551,332.918 120.231,333.158 118.191,333.198 L108.911,333.198 C109.871,331.918 111.631,330.438 114.831,328.198 C120.111,324.558 120.471,324.318 121.591,323.438 C124.791,320.958 126.111,318.598 126.111,315.438 C126.111,311.238 122.991,308.438 118.391,308.438 C113.271,308.438 108.831,312.198 108.831,316.558 C108.831,318.798 110.031,320.238 111.951,320.238 C113.391,320.238 114.511,319.158 114.511,317.678 C114.511,316.638 113.991,315.958 112.671,315.238 C111.711,314.758 111.551,314.558 111.551,314.078 C111.551,312.358 114.511,310.438 117.231,310.438 C120.031,310.438 121.911,312.318 121.911,315.118 C121.911,318.118 120.591,320.318 116.991,323.438 C106.351,332.678 104.751,334.358 104.391,336.598 L121.551,336.598 L124.631,328.878 L123.191,328.318 M142.065,308.438 C133.465,308.438 129.185,320.278 129.185,327.318 C129.185,333.118 132.065,337.198 136.145,337.198 C142.985,337.198 149.105,328.318 149.105,318.398 C149.105,312.438 146.265,308.438 142.065,308.438 M142.025,310.038 C144.105,310.038 145.225,311.878 145.225,315.318 C145.225,319.238 144.225,324.318 142.585,328.438 C140.665,333.438 138.745,335.598 136.345,335.598 C134.185,335.598 132.985,333.678 132.985,330.278 C132.985,325.078 134.825,318.118 137.385,313.478 C138.625,311.238 140.225,310.038 142.025,310.038"/>
<path class="SlurSegment" stroke="#000000" stroke-width="1.24" stroke-linecap="round" stroke-linejoin="round" fill-rule="evenodd" d="M1488.41,425.878 C1507.79,392.083 1558.26,381.791 1589.33,405.294 C1559.85,389.567 1509.38,399.859 1488.41,425.878"/>
<path class="TieSegment" stroke="#000000" stroke-width="1.24" stroke-linecap="round" stroke-linejoin="round" fill-rule="evenodd" d="M266.187,503.499 C290.34,521.606 362.799,521.606 386.952,503.499 C362.799,529.542 290.34,529.542 266.187,503.499"/>
<polyline class="BarLine" fill="none" stroke="#000000" stroke-width="4.46" stroke-linejoin="bevel" points="1413.02,384.834 1413.02,486.762"/>
<polyline class="BarLine" fill="none" stroke="#000000" stroke-width="4.46" stroke-linejoin="bevel" points="962.505,384.834 962.505,486.762"/>
<polyline class="BarLine" fill="none" stroke="#000000" stroke-width="4.46" stroke-linejoin="bevel" points="1969.35,384.834 1969.35,486.762"/>
<polyline class="BarLine" fill="none" stroke="#000000" stroke-width="13.64" stroke-linejoin="bevel" points="1987.58,384.834 1987.58,486.762"/>
<polyline class="BarLine" fill="none" stroke="#000000" stroke-width="4.46" stroke-linejoin="bevel" points="558.835,384.834 558.835,486.762"/>
<polyline class="BarLine" fill="none" stroke="#000000" stroke-width="4.46" stroke-linejoin="bevel" points="1744.06,384.834 1744.06,486.762"/>
<polyline class="Stem" fill="none" stroke="#000000" stroke-width="2.48" stroke-linejoin="bevel" points="1673.64,415.165 1673.64,497.699"/>
<polyline class="Stem" fill="none" stroke="#000000" stroke-width="2.48" stroke-linejoin="bevel" points="405.198,481.43 405.198,398.598"/>
<polyline class="Stem" fill="none" stroke="#000000" stroke-width="2.48" stroke-linejoin="bevel" points="1574.46,439.965 1574.46,510.198"/>
<polyline class="Stem" fill="none" stroke="#000000" stroke-width="2.48" stroke-linejoin="bevel" points="1478.49,456.63 1478.49,373.798"/>
<polyline class="Stem" fill="none" stroke="#000000" stroke-width="2.48" stroke-linejoin="bevel" points="504.375,456.63 504.375,373.997"/>
<polyline class="Stem" fill="none" stroke="#000000" stroke-width="2.48" stroke-linejoin="bevel" points="1358.56,444.23 1358.56,367.797"/>
<polyline class="Stem" fill="none" stroke="#000000" stroke-width="2.48" stroke-linejoin="bevel" points="1292.44,469.03 1292.44,404.91"/>
<polyline class="Stem" fill="none" stroke="#000000" stroke-width="2.48" stroke-linejoin="bevel" points="1779.77,427.565 1779.77,503.998"/>
<polyline class="Stem" fill="none" stroke="#000000" stroke-width="2.48" stroke-linejoin="bevel" points="624.299,456.63 624.299,373.798"/>
<polyline class="Stem" fill="none" stroke="#000000" stroke-width="2.48" stroke-linejoin="bevel" points="1226.32,493.83 1226.32,410.886"/>
<polyline class="Stem" fill="none" stroke="#000000" stroke-width="2.48" stroke-linejoin="bevel" points="1160.21,481.43 1160.21,398.797"/>
<polyline class="Stem" fill="none" stroke="#000000" stroke-width="2.48" stroke-linejoin="bevel" points="1064.34,427.565 1064.34,491.486"/>
<polyline class="Stem" fill="none" stroke="#000000" stroke-width="2.48" stroke-linejoin="bevel" points="998.217,415.165 998.217,485.51"/>
<polyline class="Stem" fill="none" stroke="#000000" stroke-width="2.48" stroke-linejoin="bevel" points="693.725,427.565 693.725,503.899"/>
<polyline class="Stem" fill="none" stroke="#000000" stroke-width="2.48" stroke-linejoin="bevel" points="279.473,481.43 279.473,398.598"/>
<polyline class="Stem" fill="none" stroke="#000000" stroke-width="2.48" stroke-linejoin="bevel" points="892.08,415.165 892.08,497.699"/>
<polyline class="Stem" fill="none" stroke="#000000" stroke-width="2.48" stroke-linejoin="bevel" points="825.962,439.965 825.962,503.886"/>
<polyline class="Stem" fill="none" stroke="#000000" stroke-width="2.48" stroke-linejoin="bevel" points="759.843,427.565 759.843,497.91"/>
<path class="Note" transform="matrix(0.992,0,0,0.992,1063.1,423.398)" d="M0,4.2 C0,8.5 3.1,13.3 11.2,13.3 C21.6,13.3 32.5,4.8 32.5,-4 C32.5,-9.9 27.5,-13.2 21.3,-13.2 C11.6,-13.2 0,-5 0,4.2"/>
<path class="Note" transform="matrix(0.992,0,0,0.992,758.603,423.398)" d="M0,4.2 C0,8.5 3.1,13.3 11.2,13.3 C21.6,13.3 32.5,4.8 32.5,-4 C32.5,-9.9 27.5,-13.2 21.3,-13.2 C11.6,-13.2 0,-5 0,4.2"/>
<path class="Note" transform="matrix(0.992,0,0,0.992,248.48,485.398)" d="M0,4.2 C0,8.5 3.1,13.3 11.2,13.3 C21.6,13.3 32.5,4.8 32.5,-4 C32.5,-9.9 27.5,-13.2 21.3,-13.2 C11.6,-13.2 0,-5 0,4.2"/>
<path class="Note" transform="matrix(0.992,0,0,0.992,1778.53,423.398)" d="M21.3,-13.2 C11.6,-13.2 0,-5.1 0,4.2 C0,8.5 3.1,13.3 11.2,13.3 C21.6,13.3 32.5,4.8 32.5,-4 C32.5,-9.9 27.5,-13.2 21.3,-13.2 M7.5,8.6 C4.2,8.6 3.5,5.9 3.5,5 C3.5,0.1 20.3,-8.5 25,-8.5 C27.4,-8.5 29,-7.1 29,-4.9 C29,0.1 12.1,8.6 7.5,8.6"/>
<path class="Note" transform="matrix(0.992,0,0,0.992,824.722,435.798)" d="M0,4.2 C0,8.5 3.1,13.3 11.2,13.3 C21.6,13.3 32.5,4.8 32.5,-4 C32.5,-9.9 27.5,-13.2 21.3,-13.2 C11.6,-13.2 0,-5 0,4.2"/>
<path class="Note" transform="matrix(0.992,0,0,0.992,1672.4,410.998)" d="M0,4.2 C0,8.5 3.1,13.3 11.2,13.3 C21.6,13.3 32.5,4.8 32.5,-4 C32.5,-9.9 27.5,-13.2 21.3,-13.2 C11.6,-13.2 0,-5 0,4.2"/>
<path class="Note" transform="matrix(0.992,0,0,0.992,1573.22,435.798)" d="M0,4.2 C0,8.5 3.1,13.3 11.2,13.3 C21.6,13.3 32.5,4.8 32.5,-4 C32.5,-9.9 27.5,-13.2 21.3,-13.2 C11.6,-13.2 0,-5 0,4.2"/>
<path class="Note" transform="matrix(0.992,0,0,0.992,374.205,485.398)" d="M0,4.2 C0,8.5 3.1,13.3 11.2,13.3 C21.6,13.3 32.5,4.8 32.5,-4 C32.5,-9.9 27.5,-13.2 21.3,-13.2 C11.6,-13.2 0,-5 0,4.2"/>
<path class="Note" transform="matrix(0.992,0,0,0.992,890.84,410.998)" d="M0,4.2 C0,8.5 3.1,13.3 11.2,13.3 C21.6,13.3 32.5,4.8 32.5,-4 C32.5,-9.9 27.5,-13.2 21.3,-13.2 C11.6,-13.2 0,-5 0,4.2"/>
<path class="Note" transform="matrix(0.992,0,0,0.992,1447.49,460.598)" d="M0,4.2 C0,8.5 3.1,13.3 11.2,13.3 C21.6,13.3 32.5,4.8 32.5,-4 C32.5,-9.9 27.5,-13.2 21.3,-13.2 C11.6,-13.2 0,-5 0,4.2"/>
<path class="Note" transform="matrix(0.992,0,0,0.992,473.383,460.598)" d="M0,4.2 C0,8.5 3.1,13.3 11.2,13.3 C21.6,13.3 32.5,4.8 32.5,-4 C32.5,-9.9 27.5,-13.2 21.3,-13.2 C11.6,-13.2 0,-5 0,4.2"/>
<path class="Note" transform="matrix(0.992,0,0,0.992,692.485,423.398)" d="M0,4.2 C0,8.5 3.1,13.3 11.2,13.3 C21.6,13.3 32.5,4.8 32.5,-4 C32.5,-9.9 27.5,-13.2 21.3,-13.2 C11.6,-13.2 0,-5 0,4.2"/>
<path class="Note" transform="matrix(0.992,0,0,0.992,1327.57,448.198)" d="M0,4.2 C0,8.5 3.1,13.3 11.2,13.3 C21.6,13.3 32.5,4.8 32.5,-4 C32.5,-9.9 27.5,-13.2 21.3,-13.2 C11.6,-13.2 0,-5 0,4.2"/>
<path class="Note" transform="matrix(0.992,0,0,0.992,996.977,410.998)" d="M0,4.2 C0,8.5 3.1,13.3 11.2,13.3 C21.6,13.3 32.5,4.8 32.5,-4 C32.5,-9.9 27.5,-13.2 21.3,-13.2 C11.6,-13.2 0,-5 0,4.2"/>
<path class="Note" transform="matrix(0.992,0,0,0.992,1261.45,472.998)" d="M0,4.2 C0,8.5 3.1,13.3 11.2,13.3 C21.6,13.3 32.5,4.8 32.5,-4 C32.5,-9.9 27.5,-13.2 21.3,-13.2 C11.6,-13.2 0,-5 0,4.2"/>
<path class="Note" transform="matrix(0.992,0,0,0.992,1195.33,497.798)" d="M0,4.2 C0,8.5 3.1,13.3 11.2,13.3 C21.6,13.3 32.5,4.8 32.5,-4 C32.5,-9.9 27.5,-13.2 21.3,-13.2 C11.6,-13.2 0,-5 0,4.2"/>
<path class="Note" transform="matrix(0.992,0,0,0.992,593.307,460.598)" d="M0,4.2 C0,8.5 3.1,13.3 11.2,13.3 C21.6,13.3 32.5,4.8 32.5,-4 C32.5,-9.9 27.5,-13.2 21.3,-13.2 C11.6,-13.2 0,-5 0,4.2"/>
<path class="Note" transform="matrix(0.992,0,0,0.992,1129.21,485.398)" d="M0,4.2 C0,8.5 3.1,13.3 11.2,13.3 C21.6,13.3 32.5,4.8 32.5,-4 C32.5,-9.9 27.5,-13.2 21.3,-13.2 C11.6,-13.2 0,-5 0,4.2"/>
<path class="Clef" transform="matrix(0.992,0,0,0.992,123,460.598)" d="M12.3,51.3 C12.3,57.9 17.3,66.6 30.8,66.6 C35.5,66.6 39.6,65.4 43.2,63.2 C48.6,59.4 50,52.8 50,46.5 C50,42.6 49.4,38.1 48.4,32.4 C48.1,30.4 47.5,27.4 46.9,23.5 C56.7,20.3 64,10.1 64,-0.2 C64,-15.3 53.3,-25.5 38.7,-25.5 C37.7,-31.5 36.7,-37.4 35.9,-43 C46.4,-54.1 53.7,-66.6 53.7,-82.5 C53.7,-91.6 50.9,-99 49.3,-102.6 C46.9,-107.7 44,-111.2 42.2,-111.2 C41.5,-111.2 38.4,-110 35.1,-106.1 C28.7,-98.5 26.9,-85.7 26.9,-77.3 C26.9,-71.9 27.4,-67 29.1,-55.8 C29,-55.7 23.8,-50.4 21.7,-48.7 C12.6,-40.3 0,-28.1 0,-8.1 C0,10.6 16.3,25.3 34.9,25.3 C37.8,25.3 40.5,25 42.8,24.6 C44.7,34.2 45.9,41.2 45.9,46.5 C45.9,56.9 40.5,62.4 30.4,62.4 C28,62.4 25.9,61.9 25.7,61.9 C25.6,61.8 25.4,61.7 25.4,61.6 C25.4,61.4 25.6,61.3 25.9,61.3 C30.6,60.5 35.3,56.5 35.3,50.1 C35.3,44.7 31.2,39 23.7,39 C16.7,39 12.3,44.7 12.3,51.3 M33.2,-82.2 C34.1,-86.2 38.7,-96.7 43.9,-96.7 C45.4,-96.7 47.8,-91.9 47.8,-84.9 C47.8,-74.5 40.1,-66.7 33.2,-59.9 C32.6,-63.9 32.1,-67.8 32.1,-72 C32.1,-75.7 32.4,-79.1 33.2,-82.2 M42,20.6 C40,21 38.1,21.2 36.2,21.2 C21.9,21.2 9.7,11.2 9.7,-3.9 C9.7,-16.1 18.3,-27 27.1,-34.6 C28.8,-36.1 30.4,-37.5 31.9,-39 C32.8,-33.6 33.5,-28.9 34.2,-24.8 C25.1,-22.1 18.9,-12.5 18.9,-3.1 C18.9,3.9 24.4,13.5 32.4,13.5 C33.2,13.5 34.1,13.1 34.1,12.2 C34.1,11.3 33.1,10.8 31.9,10 C28,7.6 25.8,5 25.8,0.1 C25.8,-6 30.4,-10.9 36.2,-12.3 L42,20.6 M56.2,2.1 C56.2,9.2 53.3,16.5 46.2,19.4 C44.1,7.4 41.4,-8.5 40.7,-12.9 C49.7,-12.9 56.2,-6.8 56.2,2.1"/>
<path class="Beam" fill-rule="evenodd" d="M758.603,491.573 L827.202,497.773 L827.202,510.224 L758.603,504.024 L758.603,491.573 "/>
<path class="Beam" fill-rule="evenodd" d="M996.977,479.173 L1065.58,485.373 L1065.58,497.824 L996.977,491.624 L996.977,479.173 "/>
<path class="Beam" fill-rule="evenodd" d="M1225.08,404.773 L1293.68,398.573 L1293.68,411.024 L1225.08,417.224 L1225.08,404.773 "/>
<path class="Hook" transform="matrix(0.992,0,0,0.992,1672.4,497.798)" d="M0,-0.1 C0,0.6 0.6,1.2 1.3,1.2 C1.8,1.2 2.4,0.8 2.5,0.4 C2.5,0.3 3.4,-3.2 3.5,-3.5 C3.6,-3.9 4.5,-7.7 8.1,-13.6 C12,-20.1 18,-24.8 23,-31.8 C28,-38.8 30.9,-45.4 30.9,-54.2 C30.9,-63.3 28.9,-70.9 23.5,-80.6 C23.2,-81.3 22.6,-81.7 22,-81.7 C21.8,-81.7 21.6,-81.7 21.5,-81.6 C21,-81.4 20.8,-81 20.8,-80.4 C20.8,-80.1 20.9,-79.7 21.1,-79.2 C25.1,-69.9 26.7,-64.6 26.7,-57.4 C26.7,-49.1 23.8,-44.8 22,-41.7 C15.5,-30.6 5,-25.2 0.8,-23.8 C0.1,-23.6 0,-23 0,-22.7 L0,-0.1 "/>
<path class="Hook" transform="matrix(0.992,0,0,0.992,890.84,497.798)" d="M0,-0.1 C0,0.6 0.6,1.2 1.3,1.2 C1.8,1.2 2.4,0.8 2.5,0.4 C2.5,0.3 3.4,-3.2 3.5,-3.5 C3.6,-3.9 4.5,-7.7 8.1,-13.6 C12,-20.1 18,-24.8 23,-31.8 C28,-38.8 30.9,-45.4 30.9,-54.2 C30.9,-63.3 28.9,-70.9 23.5,-80.6 C23.2,-81.3 22.6,-81.7 22,-81.7 C21.8,-81.7 21.6,-81.7 21.5,-81.6 C21,-81.4 20.8,-81 20.8,-80.4 C20.8,-80.1 20.9,-79.7 21.1,-79.2 C25.1,-69.9 26.7,-64.6 26.7,-57.4 C26.7,-49.1 23.8,-44.8 22,-41.7 C15.5,-30.6 5,-25.2 0.8,-23.8 C0.1,-23.6 0,-23 0,-22.7 L0,-0.1 "/>
<path class="Hook" transform="matrix(0.992,0,0,0.992,503.135,373.798)" d="M0,22.7 C0,23 0.1,23.6 0.8,23.8 C5.1,25.2 13.7,30.6 20.2,41.7 C22,44.8 24.9,49.1 24.9,57.4 C24.9,64.6 23.1,72 20.4,79.2 C20.2,79.8 20.1,80.3 20.1,80.7 C20.1,81.4 20.5,81.7 21.2,81.7 C21.8,81.7 22.3,81.3 22.7,80.6 C27.2,72.6 28.9,63.3 28.9,54.2 C28.4,41.3 21,31.8 21,31.8 C21.3,31.8 11.8,19.5 9.1,15.3 C5.4,9.6 3.7,3.9 3.5,3.5 C3.4,3.2 2.5,-0.4 2.5,-0.4 C2.4,-0.8 1.9,-1.2 1.3,-1.2 C0.6,-1.2 0,-0.6 0,0.1 L0,22.7 "/>
<path class="Hook" transform="matrix(0.992,0,0,0.992,692.485,503.998)" d="M0,-0.1 C0,0.6 0.6,1.2 1.3,1.2 C1.8,1.2 2.4,0.8 2.5,0.4 C2.5,0.3 3.4,-3.2 3.5,-3.5 C3.6,-3.9 4.5,-7.7 8.1,-13.6 C12,-20.1 18,-24.8 23,-31.8 C28,-38.8 30.9,-45.4 30.9,-54.2 C30.9,-63.3 28.9,-70.9 23.5,-80.6 C23.2,-81.3 22.6,-81.7 22,-81.7 C21.8,-81.7 21.6,-81.7 21.5,-81.6 C21,-81.4 20.8,-81 20.8,-80.4 C20.8,-80.1 20.9,-79.7 21.1,-79.2 C25.1,-69.9 26.7,-64.6 26.7,-57.4 C26.7,-49.1 23.8,-44.8 22,-41.7 C15.5,-30.6 5,-25.2 0.8,-23.8 C0.1,-23.6 0,-23 0,-22.7 L0,-0.1 "/>
<path class="Hook" transform="matrix(0.992,0,0,0.992,1357.32,367.598)" d="M0,22.7 C0,23 0.1,23.6 0.8,23.8 C5.1,25.2 13.7,30.6 20.2,41.7 C22,44.8 24.9,49.1 24.9,57.4 C24.9,64.6 23.1,72 20.4,79.2 C20.2,79.8 20.1,80.3 20.1,80.7 C20.1,81.4 20.5,81.7 21.2,81.7 C21.8,81.7 22.3,81.3 22.7,80.6 C27.2,72.6 28.9,63.3 28.9,54.2 C28.4,41.3 21,31.8 21,31.8 C21.3,31.8 11.8,19.5 9.1,15.3 C5.4,9.6 3.7,3.9 3.5,3.5 C3.4,3.2 2.5,-0.4 2.5,-0.4 C2.4,-0.8 1.9,-1.2 1.3,-1.2 C0.6,-1.2 0,-0.6 0,0.1 L0,22.7 "/>
<path class="Hook" transform="matrix(0.992,0,0,0.992,1158.97,398.598)" d="M0,22.7 C0,23 0.1,23.6 0.8,23.8 C5.1,25.2 13.7,30.6 20.2,41.7 C22,44.8 24.9,49.1 24.9,57.4 C24.9,64.6 23.1,72 20.4,79.2 C20.2,79.8 20.1,80.3 20.1,80.7 C20.1,81.4 20.5,81.7 21.2,81.7 C21.8,81.7 22.3,81.3 22.7,80.6 C27.2,72.6 28.9,63.3 28.9,54.2 C28.4,41.3 21,31.8 21,31.8 C21.3,31.8 11.8,19.5 9.1,15.3 C5.4,9.6 3.7,3.9 3.5,3.5 C3.4,3.2 2.5,-0.4 2.5,-0.4 C2.4,-0.8 1.9,-1.2 1.3,-1.2 C0.6,-1.2 0,-0.6 0,0.1 L0,22.7 "/>
<path class="Lyrics" d="M1073,687.663 L1073,691.813 L1085.45,691.813 L1085.45,687.663 L1073,687.663 "/>
<path class="Lyrics" d="M1073,627.679 L1073,631.829 L1085.45,631.829 L1085.45,627.679 L1073,627.679 "/>
<path class="Lyrics" d="M628.26,576.944 C628.26,571.994 622.71,568.894 613.36,568.894 C604.01,568.894 598.51,571.994 598.51,576.944 C598.51,581.894 604.01,584.994 613.36,584.994 C622.71,584.994 628.26,581.894 628.26,576.944 M627.86,568.994 L627.86,541.394 L624.06,541.394 L624.06,552.944 L618.61,552.944 L618.61,542.194 L614.91,542.194 L614.91,566.844 L618.61,566.844 L618.61,556.144 L624.06,556.144 L624.06,568.994 L627.86,568.994 M613.36,572.094 C620.06,572.094 624.21,573.994 624.21,576.944 C624.21,579.944 620.06,581.844 613.36,581.844 C606.71,581.844 602.51,579.944 602.51,576.944 C602.51,573.994 606.71,572.094 613.36,572.094 M613.11,562.244 C608.96,560.444 603.66,555.994 603.66,549.294 L603.66,543.944 L599.96,543.944 L599.96,549.394 C599.96,555.944 595.26,561.244 590.61,563.744 L592.96,566.644 C597.01,564.294 600.81,559.594 601.91,556.044 C603.41,559.444 607.16,563.294 611.06,565.144 L613.11,562.244 "/>
<path class="Lyrics" d="M1073,567.694 L1073,571.844 L1085.45,571.844 L1085.45,567.694 L1073,567.694 "/>
<path class="Lyrics" d="M1163.8,585.094 L1163.8,541.394 L1160.05,541.394 L1160.05,585.094 L1163.8,585.094 M1155.9,582.894 L1155.9,542.444 L1152.15,542.444 L1152.15,556.944 L1146.9,556.944 L1146.9,560.044 L1152.15,560.044 L1152.15,567.544 L1147.25,567.544 L1147.25,570.644 L1152.15,570.644 L1152.15,582.894 L1155.9,582.894 M1143.4,548.394 L1143.4,545.144 L1131.8,545.144 L1131.8,548.394 L1143.4,548.394 M1147.8,555.144 L1147.8,551.994 L1126.9,551.994 L1126.9,555.144 L1147.8,555.144 M1146.6,566.394 C1146.6,561.294 1142.95,557.894 1137.5,557.894 C1132.1,557.894 1128.45,561.244 1128.45,566.394 C1128.45,571.294 1132.1,574.894 1137.5,574.894 C1142.95,574.894 1146.6,571.594 1146.6,566.394 M1143,566.394 C1143,569.544 1140.7,571.744 1137.5,571.744 C1134.25,571.744 1131.95,569.644 1131.95,566.394 C1131.95,563.244 1134.25,561.044 1137.5,561.044 C1140.7,561.044 1143,563.194 1143,566.394"/>
<path class="Lyrics" d="M1136.87,605.179 C1130.52,605.179 1127.27,611.379 1127.27,620.129 C1127.27,628.929 1130.52,635.079 1136.87,635.079 C1142.87,635.079 1146.07,629.729 1146.47,621.829 L1151.17,621.829 L1151.17,642.979 L1154.87,642.979 L1154.87,602.229 L1151.17,602.229 L1151.17,618.679 L1146.47,618.679 C1146.17,610.729 1142.92,605.179 1136.87,605.179 M1142.72,620.129 C1142.72,627.229 1140.42,631.729 1136.87,631.729 C1133.37,631.729 1131.12,627.229 1131.12,620.129 C1131.12,613.079 1133.37,608.529 1136.87,608.529 C1140.42,608.529 1142.72,613.079 1142.72,620.129 M1163.42,645.079 L1163.42,601.379 L1159.67,601.379 L1159.67,645.079 L1163.42,645.079 "/>
<path class="Lyrics" d="M1158.9,680.313 L1158.9,693.863 L1162.7,693.863 L1162.7,661.363 L1158.9,661.363 L1158.9,677.163 L1151.35,677.163 L1151.35,680.313 L1158.9,680.313 M1163.65,703.613 L1163.65,700.463 L1138.3,700.463 L1138.3,692.163 L1134.5,692.163 L1134.5,703.613 L1163.65,703.613 M1145.85,666.263 L1145.85,663.063 L1133.3,663.063 L1133.3,666.263 L1145.85,666.263 M1152.15,672.763 L1152.15,669.663 L1127.05,669.663 L1127.05,672.763 L1152.15,672.763 M1149.8,682.313 C1149.8,677.663 1145.45,674.763 1139.65,674.763 C1133.9,674.763 1129.55,677.663 1129.55,682.313 C1129.55,686.913 1133.95,689.913 1139.65,689.913 C1145.45,689.913 1149.8,686.913 1149.8,682.313 M1146,682.313 C1146,685.063 1143.05,686.813 1139.65,686.813 C1136.3,686.813 1133.3,685.063 1133.3,682.313 C1133.3,679.563 1136.3,677.813 1139.65,677.813 C1143.05,677.813 1146,679.563 1146,682.313"/>
<path class="Lyrics" d="M722.613,674.263 L722.613,685.163 L713.763,685.163 L713.763,688.313 L722.613,688.313 L722.613,705.063 L726.413,705.063 L726.413,661.363 L722.613,661.363 L722.613,671.113 L713.763,671.113 L713.763,674.263 L722.613,674.263 M690.813,679.863 C690.813,689.163 694.713,695.313 701.613,695.313 C708.613,695.313 712.463,689.163 712.463,679.913 C712.463,670.613 708.613,664.413 701.613,664.413 C694.713,664.413 690.813,670.613 690.813,679.863 M708.713,679.913 C708.713,687.013 705.913,692.013 701.613,692.013 C697.413,692.013 694.563,687.013 694.563,679.913 C694.563,672.713 697.413,667.713 701.613,667.713 C705.913,667.713 708.713,672.713 708.713,679.913"/>
<path class="Lyrics" d="M616.742,611.529 C616.742,606.579 611.892,603.429 605.142,603.429 C598.392,603.429 593.442,606.579 593.442,611.479 C593.442,616.579 598.392,619.529 605.142,619.529 C611.892,619.529 616.742,616.529 616.742,611.529 M627.192,634.979 L627.192,601.379 L623.392,601.379 L623.392,627.229 L614.192,627.229 L614.192,630.229 L623.392,630.229 L623.392,634.979 L627.192,634.979 M628.092,644.029 L628.092,640.829 L600.642,640.829 L600.642,631.379 L596.842,631.379 L596.842,644.029 L628.092,644.029 M612.992,611.529 C612.992,614.479 609.842,616.429 605.142,616.429 C600.442,616.429 597.242,614.479 597.242,611.529 C597.242,608.529 600.442,606.579 605.142,606.579 C609.842,606.579 612.992,608.579 612.992,611.529 M607.342,633.229 L607.342,625.029 C611.942,624.729 616.792,624.429 619.542,624.029 L619.242,621.079 C614.992,621.529 610.242,621.979 605.392,622.179 C600.642,622.329 595.292,622.379 590.792,622.329 L591.392,625.579 C595.042,625.579 599.392,625.429 603.542,625.279 L603.542,633.229 L607.342,633.229 "/>
<path class="Lyrics" d="M1027.88,679.563 L1027.88,662.863 L1024.08,662.863 L1024.08,668.263 L1002.13,668.263 L1002.13,662.863 L998.333,662.863 L998.333,679.563 L1011.13,679.563 L1011.13,684.263 L993.383,684.263 L993.383,687.413 L1032.83,687.413 L1032.83,684.263 L1014.93,684.263 L1014.93,679.563 L1027.88,679.563 M1028.43,697.513 C1028.43,692.663 1022.88,690.063 1013.08,690.063 C1003.33,690.063 997.833,692.863 997.833,697.513 C997.833,702.263 1003.33,705.013 1013.08,705.013 C1022.88,705.013 1028.43,702.313 1028.43,697.513 M1013.08,693.113 C1020.18,693.113 1024.58,694.713 1024.58,697.513 C1024.58,700.413 1020.18,701.963 1013.08,701.963 C1006.03,701.963 1001.68,700.413 1001.68,697.513 C1001.68,694.713 1006.03,693.113 1013.08,693.113 M1024.08,676.413 L1002.13,676.413 L1002.13,671.413 L1024.08,671.413 L1024.08,676.413 "/>
<path class="Lyrics" d="M1231.82,556.044 L1231.82,552.894 L1225.17,552.894 L1225.17,541.394 L1221.37,541.394 L1221.37,566.644 L1225.17,566.644 L1225.17,556.044 L1231.82,556.044 M1225.17,584.494 L1225.17,568.894 L1197.72,568.894 L1197.72,584.494 L1225.17,584.494 M1221.37,581.344 L1201.52,581.344 L1201.52,572.044 L1221.37,572.044 L1221.37,581.344 M1193.27,544.744 L1193.27,547.944 L1209.12,547.944 C1208.07,555.844 1199.72,562.094 1191.12,563.894 L1192.87,567.044 C1204.02,563.844 1212.77,556.744 1213.42,544.744 L1193.27,544.744 "/>
<path class="Lyrics" d="M1232.11,615.279 L1232.11,612.079 L1225.46,612.079 L1225.46,601.379 L1221.66,601.379 L1221.66,623.829 L1225.46,623.829 L1225.46,615.279 L1232.11,615.279 M1227.06,644.779 L1227.06,641.679 L1201.76,641.679 L1201.76,636.629 L1225.46,636.629 L1225.46,626.179 L1197.66,626.179 L1197.66,629.279 L1221.66,629.279 L1221.66,633.779 L1197.96,633.779 L1197.96,644.779 L1227.06,644.779 M1216.66,619.779 C1212.06,618.279 1205.56,613.779 1205.56,606.779 L1205.56,602.829 L1201.71,602.829 L1201.71,606.929 C1201.71,613.929 1196.51,618.879 1190.81,621.129 L1192.96,624.179 C1198.21,621.679 1202.36,617.779 1203.76,613.079 C1205.86,617.779 1210.71,621.129 1214.56,622.779 L1216.66,619.779 "/>
<path class="Lyrics" d="M1230.79,676.163 L1230.79,672.963 L1224.14,672.963 L1224.14,661.363 L1220.34,661.363 L1220.34,686.813 L1224.14,686.813 L1224.14,676.163 L1230.79,676.163 M1224.64,704.213 L1224.64,701.113 L1200.59,701.113 L1200.59,692.613 L1224.24,692.613 L1224.24,689.463 L1196.74,689.463 L1196.74,704.213 L1224.64,704.213 M1212.59,684.013 L1212.59,663.863 L1208.79,663.863 L1208.79,670.563 L1195.99,670.563 L1195.99,663.863 L1192.14,663.863 L1192.14,684.013 L1212.59,684.013 M1208.79,680.863 L1195.99,680.863 L1195.99,673.713 L1208.79,673.713 L1208.79,680.863 "/>
<path class="Lyrics" d="M503.612,674.563 L503.612,688.513 L507.412,688.513 L507.412,661.363 L503.612,661.363 L503.612,671.413 L494.212,671.413 L494.212,674.563 L503.612,674.563 M507.862,696.763 C507.862,691.663 502.612,688.513 493.212,688.513 C483.862,688.513 478.612,691.663 478.612,696.763 C478.612,701.863 483.862,705.013 493.212,705.013 C502.612,705.013 507.862,701.863 507.862,696.763 M493.212,691.613 C500.012,691.613 504.012,693.513 504.012,696.763 C504.012,700.063 500.012,701.913 493.212,701.913 C486.512,701.913 482.462,700.063 482.462,696.763 C482.462,693.513 486.512,691.613 493.212,691.613 M496.562,682.163 C491.612,680.363 485.862,675.113 485.862,668.113 L485.862,663.863 L482.012,663.863 L482.012,668.213 C482.012,675.163 477.462,680.763 471.162,683.663 L473.512,686.613 C478.562,684.063 482.712,679.463 484.062,674.963 C485.762,679.313 490.112,683.113 494.312,685.113 L496.562,682.163 "/>
<path class="Lyrics" d="M1032.93,617.379 L1032.93,614.179 L1026.28,614.179 L1026.28,601.379 L1022.48,601.379 L1022.48,633.129 L1026.28,633.129 L1026.28,617.379 L1032.93,617.379 M1027.88,643.579 L1027.88,640.429 L1002.68,640.429 L1002.68,630.029 L998.88,630.029 L998.88,643.579 L1027.88,643.579 M1004.83,604.579 C998.28,604.579 993.28,609.079 993.28,615.629 C993.28,622.229 998.28,626.529 1004.88,626.529 C1011.43,626.529 1016.43,622.179 1016.43,615.579 C1016.43,609.029 1011.38,604.579 1004.83,604.579 M1004.83,607.829 C1009.48,607.829 1012.63,611.079 1012.63,615.629 C1012.63,620.079 1009.48,623.279 1004.88,623.279 C1000.48,623.279 997.08,620.079 997.08,615.579 C997.08,611.079 1000.43,607.829 1004.83,607.829"/>
<path class="Lyrics" d="M1271.35,567.694 L1271.35,571.844 L1283.8,571.844 L1283.8,567.694 L1271.35,567.694 "/>
<path class="Lyrics" d="M1271.35,627.679 L1271.35,631.829 L1283.8,631.829 L1283.8,627.679 L1271.35,627.679 "/>
<path class="Lyrics" d="M1271.35,687.663 L1271.35,691.813 L1283.8,691.813 L1283.8,687.663 L1271.35,687.663 "/>
<path class="Lyrics" d="M1032.83,567.044 L1032.83,563.844 L993.383,563.844 L993.383,567.044 L1032.83,567.044 M1028.38,583.844 L1028.38,580.644 L1002.38,580.644 L1002.38,571.094 L998.583,571.094 L998.583,583.844 L1028.38,583.844 M1028.33,551.244 C1028.33,545.744 1022.63,542.694 1013.13,542.694 C1003.63,542.694 997.933,545.744 997.933,551.244 C997.933,556.844 1003.58,559.894 1013.08,559.894 C1022.63,559.894 1028.33,556.844 1028.33,551.244 M1013.13,545.844 C1020.08,545.844 1024.58,547.644 1024.58,551.294 C1024.58,554.844 1020.03,556.694 1013.08,556.694 C1006.18,556.694 1001.73,554.844 1001.73,551.294 C1001.73,547.644 1006.23,545.844 1013.13,545.844"/>
<path class="Lyrics" d="M507.212,636.879 C507.212,631.679 501.862,628.529 492.312,628.529 C482.812,628.529 477.462,631.679 477.462,636.879 C477.462,641.929 482.812,645.179 492.312,645.179 C501.862,645.179 507.212,641.929 507.212,636.879 M495.412,621.279 L503.362,621.279 L503.362,628.429 L507.162,628.429 L507.162,601.379 L503.362,601.379 L503.362,607.179 L495.412,607.179 L495.412,610.429 L503.362,610.429 L503.362,618.029 L495.412,618.029 L495.412,621.279 M503.312,636.879 C503.312,640.079 499.262,641.929 492.312,641.929 C485.512,641.929 481.412,640.079 481.412,636.879 C481.412,633.629 485.512,631.729 492.312,631.729 C499.262,631.729 503.312,633.629 503.312,636.879 M483.062,604.029 C476.912,604.029 471.812,608.229 471.812,614.529 C471.812,620.879 476.962,624.879 483.062,624.879 C489.212,624.879 494.262,620.879 494.262,614.479 C494.262,608.129 489.212,604.029 483.062,604.029 M483.062,607.279 C487.562,607.279 490.462,610.179 490.462,614.529 C490.462,618.929 487.512,621.779 483.062,621.779 C478.762,621.779 475.612,618.929 475.612,614.479 C475.612,610.129 478.762,607.279 483.062,607.279"/>
<path class="Lyrics" d="M624.363,682.313 L624.363,663.063 L620.563,663.063 L620.563,669.513 L598.313,669.513 L598.313,663.063 L594.463,663.063 L594.463,682.313 L624.363,682.313 M611.263,705.113 L611.263,690.713 L629.163,690.713 L629.163,687.513 L589.713,687.513 L589.713,690.713 L607.463,690.713 L607.463,705.113 L611.263,705.113 M620.563,679.163 L598.313,679.163 L598.313,672.613 L620.563,672.613 L620.563,679.163 "/>
<path class="Lyrics" d="M1364.67,562.244 L1364.67,559.044 L1357.62,559.044 L1357.62,541.394 L1353.82,541.394 L1353.82,585.094 L1357.62,585.094 L1357.62,562.244 L1364.67,562.244 M1349.67,571.544 C1343.62,567.994 1338.12,560.844 1338.12,552.894 L1338.12,545.244 L1334.22,545.244 L1334.22,552.994 C1334.22,560.744 1329.07,568.594 1322.72,572.494 L1325.17,575.444 C1330.32,571.844 1334.57,566.294 1336.12,560.844 C1337.87,566.144 1342.77,571.344 1347.27,574.444 L1349.67,571.544 "/>
<path class="Lyrics" d="M1362.36,645.079 L1362.36,601.379 L1358.61,601.379 L1358.61,645.079 L1362.36,645.079 M1353.86,642.879 L1353.86,602.429 L1350.21,602.429 L1350.21,618.379 L1342.86,618.379 L1342.86,621.579 L1350.21,621.579 L1350.21,642.879 L1353.86,642.879 M1343.96,606.479 L1326.76,606.479 L1326.76,609.679 L1340.06,609.679 C1339.61,618.579 1334.21,627.779 1325.06,632.929 L1327.66,635.729 C1337.96,629.079 1343.66,619.479 1343.96,606.479"/>
<path class="Lyrics" d="M1363.77,682.163 L1363.77,678.963 L1356.62,678.963 L1356.62,661.363 L1352.82,661.363 L1352.82,705.063 L1356.62,705.063 L1356.62,682.163 L1363.77,682.163 M1323.62,680.063 C1323.62,689.363 1327.72,695.563 1334.82,695.563 C1341.92,695.563 1345.97,689.363 1345.97,680.113 C1345.97,670.863 1341.92,664.663 1334.82,664.663 C1327.72,664.663 1323.62,670.863 1323.62,680.063 M1342.27,680.113 C1342.27,687.263 1339.37,692.263 1334.82,692.263 C1330.27,692.263 1327.32,687.263 1327.32,680.113 C1327.32,672.913 1330.27,667.963 1334.82,667.963 C1339.37,667.963 1342.27,672.913 1342.27,680.113"/>
<path class="Lyrics" d="M508.374,585.094 L508.374,541.394 L504.624,541.394 L504.624,559.194 L499.074,559.194 L499.074,542.444 L495.374,542.444 L495.374,582.894 L499.074,582.894 L499.074,562.344 L504.624,562.344 L504.624,585.094 L508.374,585.094 M493.624,571.294 C488.874,568.144 484.224,561.794 484.224,553.294 L484.224,545.494 L480.474,545.494 L480.474,553.394 C480.474,561.944 475.574,569.594 470.624,572.744 L473.124,575.494 C477.474,572.344 481.324,566.544 482.324,561.544 C483.674,566.494 487.824,571.544 491.174,573.994 L493.624,571.294 "/>
<path class="Lyrics" d="M921.097,661.363 L921.097,705.063 L924.897,705.063 L924.897,661.363 L921.097,661.363 M914.197,675.163 C914.197,668.763 909.297,664.763 902.847,664.763 C896.497,664.763 891.447,669.013 891.447,675.163 C891.447,681.013 896.397,685.313 902.847,685.313 C909.147,685.313 914.197,681.363 914.197,675.163 M910.497,675.163 C910.497,679.263 906.997,682.113 902.847,682.113 C898.597,682.113 895.147,679.213 895.147,675.163 C895.147,671.063 898.647,668.013 902.847,668.013 C907.097,668.013 910.497,670.763 910.497,675.163 M918.547,693.963 L918.197,690.863 C914.997,691.263 909.347,691.613 903.247,691.813 C897.947,692.113 892.797,692.213 889.047,692.163 L889.747,695.513 C893.047,695.463 897.847,695.313 902.997,695.063 C908.547,694.813 914.797,694.413 918.547,693.963"/>
<path class="Lyrics" d="M923.697,644.429 L923.697,628.429 L895.047,628.429 L895.047,644.429 L923.697,644.429 M919.897,641.279 L898.847,641.279 L898.847,631.529 L919.897,631.529 L919.897,641.279 M919.897,601.379 L919.897,625.679 L923.697,625.679 L923.697,601.379 L919.897,601.379 M915.797,617.479 C910.197,618.629 900.397,619.629 894.047,619.379 L894.047,603.629 L890.247,603.629 L890.247,622.729 L892.747,622.729 C900.347,622.729 911.397,621.779 916.247,620.729 L915.797,617.479 "/>
<path class="Lyrics" d="M924.322,573.144 L924.322,541.394 L920.522,541.394 L920.522,573.144 L924.322,573.144 M915.022,563.194 C909.822,561.344 903.922,555.944 903.922,548.644 L903.922,543.894 L900.072,543.894 L900.072,548.744 C900.072,555.744 894.422,562.144 888.672,564.694 L890.972,567.694 C895.722,565.294 900.772,560.244 902.072,555.544 C903.872,560.144 908.372,564.294 912.872,566.244 L915.022,563.194 M925.272,583.744 L925.272,580.594 L899.922,580.594 L899.922,570.294 L896.122,570.294 L896.122,583.744 L925.272,583.744 "/>
<path class="Lyrics" d="M792.61,558.994 C785.91,558.244 776.96,553.794 776.76,547.644 L790.81,547.644 L790.81,544.494 L758.61,544.494 L758.61,547.644 L772.76,547.644 C772.56,553.744 764.11,558.344 756.96,559.094 L758.71,562.294 C766.16,561.044 772.96,556.544 774.71,552.444 C776.71,556.544 783.66,560.944 790.81,562.194 L792.61,558.994 M776.56,585.094 L776.56,569.444 L794.46,569.444 L794.46,566.244 L755.01,566.244 L755.01,569.444 L772.76,569.444 L772.76,585.094 L776.56,585.094 "/>
<path class="Lyrics" d="M1488.41,563.044 L1488.41,559.844 L1481.31,559.844 L1481.31,541.394 L1477.51,541.394 L1477.51,585.094 L1481.31,585.094 L1481.31,563.044 L1488.41,563.044 M1466.86,547.644 L1466.86,544.394 L1454.01,544.394 L1454.01,547.644 L1466.86,547.644 M1473.31,555.044 L1473.31,551.894 L1447.51,551.894 L1447.51,555.044 L1473.31,555.044 M1470.71,566.894 C1470.71,561.744 1466.61,557.844 1460.51,557.844 C1454.41,557.844 1450.31,561.794 1450.31,566.894 C1450.31,571.994 1454.41,575.894 1460.51,575.894 C1466.61,575.894 1470.71,571.944 1470.71,566.894 M1466.91,566.894 C1466.91,570.294 1464.26,572.744 1460.51,572.744 C1456.86,572.744 1454.11,570.294 1454.11,566.894 C1454.11,563.444 1456.86,561.044 1460.51,561.044 C1464.21,561.044 1466.91,563.444 1466.91,566.894"/>
<path class="Lyrics" d="M1488.41,623.029 L1488.41,619.829 L1481.31,619.829 L1481.31,601.379 L1477.51,601.379 L1477.51,645.079 L1481.31,645.079 L1481.31,623.029 L1488.41,623.029 M1466.86,607.629 L1466.86,604.379 L1454.01,604.379 L1454.01,607.629 L1466.86,607.629 M1473.31,615.029 L1473.31,611.879 L1447.51,611.879 L1447.51,615.029 L1473.31,615.029 M1470.71,626.879 C1470.71,621.729 1466.61,617.829 1460.51,617.829 C1454.41,617.829 1450.31,621.779 1450.31,626.879 C1450.31,631.979 1454.41,635.879 1460.51,635.879 C1466.61,635.879 1470.71,631.929 1470.71,626.879 M1466.91,626.879 C1466.91,630.279 1464.26,632.729 1460.51,632.729 C1456.86,632.729 1454.11,630.279 1454.11,626.879 C1454.11,623.429 1456.86,621.029 1460.51,621.029 C1464.21,621.029 1466.91,623.429 1466.91,626.879"/>
<path class="Lyrics" d="M1485.1,678.963 C1478.4,678.213 1469.45,673.763 1469.25,667.613 L1483.3,667.613 L1483.3,664.463 L1451.1,664.463 L1451.1,667.613 L1465.25,667.613 C1465.05,673.713 1456.6,678.313 1449.45,679.063 L1451.2,682.263 C1458.65,681.013 1465.45,676.513 1467.2,672.413 C1469.2,676.513 1476.15,680.913 1483.3,682.163 L1485.1,678.963 M1469.05,705.063 L1469.05,689.413 L1486.95,689.413 L1486.95,686.213 L1447.5,686.213 L1447.5,689.413 L1465.25,689.413 L1465.25,705.063 L1469.05,705.063 "/>
<path class="Lyrics" d="M725.66,576.794 C725.66,571.644 720.26,568.394 710.81,568.394 C701.26,568.394 695.91,571.644 695.91,576.794 C695.91,581.894 701.26,585.094 710.81,585.094 C720.26,585.094 725.66,581.894 725.66,576.794 M710.81,571.644 C717.71,571.644 721.76,573.494 721.76,576.794 C721.76,580.044 717.71,581.894 710.81,581.894 C703.91,581.894 699.86,580.044 699.86,576.794 C699.86,573.494 703.91,571.644 710.81,571.644 M713.66,551.594 L721.51,551.594 L721.51,557.444 L713.61,557.444 L713.61,560.594 L721.51,560.594 L721.51,568.594 L725.31,568.594 L725.31,541.394 L721.51,541.394 L721.51,548.444 L713.66,548.444 L713.66,551.594 M711.56,564.744 L711.56,544.744 L691.56,544.744 L691.56,564.744 L711.56,564.744 M707.71,561.644 L695.36,561.644 L695.36,547.894 L707.71,547.894 L707.71,561.644 "/>
<path class="Lyrics" d="M834.625,687.663 L834.625,691.813 L847.075,691.813 L847.075,687.663 L834.625,687.663 "/>
<path class="Lyrics" d="M834.625,627.679 L834.625,631.829 L847.075,631.829 L847.075,627.679 L834.625,627.679 "/>
<path class="Lyrics" d="M281.084,661.363 L277.334,661.363 L277.334,705.063 L281.084,705.063 L281.084,661.363 M272.884,689.013 C267.684,690.163 257.584,690.963 251.984,690.963 L251.984,665.913 L248.134,665.913 L248.134,694.313 L250.084,694.313 C256.784,694.313 268.184,693.463 273.234,692.313 L272.884,689.013 "/>
<path class="Lyrics" d="M834.625,567.694 L834.625,571.844 L847.075,571.844 L847.075,567.694 L834.625,567.694 "/>
<path class="Lyrics" d="M1701.59,541.394 L1701.59,585.094 L1705.39,585.094 L1705.39,541.394 L1701.59,541.394 M1697.59,570.044 C1692.29,570.994 1683.64,571.394 1676.69,571.394 L1675.64,571.394 L1675.64,560.944 L1692.24,560.944 L1692.24,545.444 L1671.64,545.444 L1671.64,548.594 L1688.39,548.594 L1688.39,557.794 L1671.84,557.794 L1671.84,574.644 L1676.29,574.644 C1685.89,574.644 1693.39,573.894 1697.94,573.194 L1697.59,570.044 "/>
<path class="Lyrics" d="M1706.7,622.979 C1699.5,621.579 1690.5,615.279 1690.5,607.779 L1690.5,604.629 L1686.55,604.629 L1686.55,607.779 C1686.55,615.279 1678.05,621.529 1670.4,622.979 L1672.4,626.029 C1680.05,623.929 1686.8,618.529 1688.45,613.529 C1690.35,618.429 1696.95,623.879 1704.6,626.029 L1706.7,622.979 M1708.25,639.529 L1708.25,636.329 L1690.35,636.329 L1690.35,625.129 L1686.55,625.129 L1686.55,636.329 L1668.8,636.329 L1668.8,639.529 L1708.25,639.529 "/>
<path class="Lyrics" d="M1706.7,682.963 C1699.5,681.563 1690.5,675.263 1690.5,667.763 L1690.5,664.613 L1686.55,664.613 L1686.55,667.763 C1686.55,675.263 1678.05,681.513 1670.4,682.963 L1672.4,686.013 C1680.05,683.913 1686.8,678.513 1688.45,673.513 C1690.35,678.413 1696.95,683.863 1704.6,686.013 L1706.7,682.963 M1708.25,699.513 L1708.25,696.313 L1690.35,696.313 L1690.35,685.113 L1686.55,685.113 L1686.55,696.313 L1668.8,696.313 L1668.8,699.513 L1708.25,699.513 "/>
<path class="Lyrics" d="M247.046,619.879 C247.046,629.179 251.046,635.329 258.096,635.329 C264.746,635.329 268.646,629.829 269.046,621.429 L278.396,621.429 L278.396,645.079 L282.196,645.079 L282.196,601.379 L278.396,601.379 L278.396,618.179 L269.046,618.179 C268.546,609.879 264.696,604.429 258.096,604.429 C251.046,604.429 247.046,610.629 247.046,619.879 M265.346,619.929 C265.346,627.029 262.396,632.029 258.096,632.029 C253.746,632.029 250.846,627.029 250.846,619.929 C250.846,612.729 253.746,607.729 258.096,607.729 C262.396,607.729 265.346,612.729 265.346,619.929"/>
<path class="Lyrics" d="M284.025,556.344 L284.025,553.144 L277.375,553.144 L277.375,541.394 L273.625,541.394 L273.625,568.594 L277.375,568.594 L277.375,556.344 L284.025,556.344 M277.875,577.144 C277.875,572.244 272.875,569.144 263.425,569.144 C253.925,569.144 248.975,572.144 248.975,577.144 C248.975,581.994 253.925,585.044 263.425,585.044 C272.875,585.044 277.875,581.944 277.875,577.144 M263.425,572.294 C270.025,572.294 273.975,574.044 273.975,577.144 C273.975,580.194 270.025,581.894 263.425,581.894 C256.775,581.894 252.875,580.094 252.875,577.144 C252.875,574.094 256.775,572.294 263.425,572.294 M269.525,561.894 C264.375,562.944 254.725,563.244 249.625,563.244 L249.075,563.244 L249.075,556.744 L265.125,556.744 L265.125,544.294 L245.175,544.294 L245.175,547.444 L261.325,547.444 L261.325,553.644 L245.275,553.644 L245.275,566.444 L249.375,566.444 C255.525,566.444 265.375,565.794 269.875,564.994 L269.525,561.894 "/>
<path class="Lyrics" d="M792.61,618.979 C785.91,618.229 776.96,613.779 776.76,607.629 L790.81,607.629 L790.81,604.479 L758.61,604.479 L758.61,607.629 L772.76,607.629 C772.56,613.729 764.11,618.329 756.96,619.079 L758.71,622.279 C766.16,621.029 772.96,616.529 774.71,612.429 C776.71,616.529 783.66,620.929 790.81,622.179 L792.61,618.979 M776.56,645.079 L776.56,629.429 L794.46,629.429 L794.46,626.229 L755.01,626.229 L755.01,629.429 L772.76,629.429 L772.76,645.079 L776.56,645.079 "/>
<path class="Lyrics" d="M726.154,645.079 L726.154,601.379 L722.354,601.379 L722.354,645.079 L726.154,645.079 M710.254,607.479 L710.254,604.279 L697.504,604.279 L697.504,607.479 L710.254,607.479 M717.004,615.029 L717.004,611.879 L691.054,611.879 L691.054,615.029 L717.004,615.029 M714.404,626.879 C714.404,621.729 710.304,617.829 704.204,617.829 C698.104,617.829 694.004,621.779 694.004,626.879 C694.004,631.979 698.104,635.879 704.204,635.879 C710.304,635.879 714.404,631.929 714.404,626.879 M710.604,626.879 C710.604,630.329 708.004,632.779 704.204,632.779 C700.454,632.779 697.754,630.329 697.754,626.879 C697.754,623.379 700.454,620.979 704.204,620.979 C707.904,620.979 710.604,623.379 710.604,626.879"/>
<path class="Lyrics" d="M779.701,688.813 C774.951,689.963 766.401,690.613 758.901,690.663 L758.901,665.713 L755.101,665.713 L755.101,694.013 L757.751,694.013 C764.401,694.013 774.901,693.263 780.251,692.013 L779.701,688.813 M787.201,661.363 L783.401,661.363 L783.401,705.063 L787.201,705.063 L787.201,681.963 L794.351,681.963 L794.351,678.713 L787.201,678.713 L787.201,661.363 "/>
<path class="Lyrics" d="M1807.11,541.394 L1803.31,541.394 L1803.31,585.094 L1807.11,585.094 L1807.11,561.944 L1814.21,561.944 L1814.21,558.744 L1807.11,558.744 L1807.11,541.394 M1778.96,571.144 L1778.96,549.144 L1795.86,549.144 L1795.86,545.944 L1775.11,545.944 L1775.11,574.394 L1779.41,574.394 C1787.01,574.394 1795.66,573.794 1800.36,572.894 L1799.96,569.744 C1795.76,570.644 1787.11,571.144 1781.46,571.144 L1778.96,571.144 "/>
<path class="Lyrics" d="M1812.77,645.079 L1812.77,601.379 L1808.97,601.379 L1808.97,616.979 L1798.77,616.979 L1798.77,620.179 L1808.97,620.179 L1808.97,645.079 L1812.77,645.079 M1803.07,631.729 C1797.07,628.229 1791.87,621.129 1791.87,613.129 L1791.87,605.179 L1787.92,605.179 L1787.92,613.279 C1787.92,621.029 1782.87,628.779 1776.52,632.779 L1779.02,635.629 C1784.07,631.979 1788.37,626.579 1789.92,621.129 C1791.67,626.379 1796.72,631.929 1800.72,634.629 L1803.07,631.729 "/>
<path class="Lyrics" d="M1812.77,705.063 L1812.77,661.363 L1808.97,661.363 L1808.97,676.963 L1798.77,676.963 L1798.77,680.163 L1808.97,680.163 L1808.97,705.063 L1812.77,705.063 M1803.07,691.713 C1797.07,688.213 1791.87,681.113 1791.87,673.113 L1791.87,665.163 L1787.92,665.163 L1787.92,673.263 C1787.92,681.013 1782.87,688.763 1776.52,692.763 L1779.02,695.613 C1784.07,691.963 1788.37,686.563 1789.92,681.113 C1791.67,686.363 1796.72,691.913 1800.72,694.613 L1803.07,691.713 "/>
<polyline class="LyricsLineSegment" fill="none" stroke="#000000" stroke-width="2.48" stroke-linejoin="bevel" points="1570.09,567.616 1589.93,567.616"/>
<polyline class="LyricsLineSegment" fill="none" stroke="#000000" stroke-width="2.48" stroke-linejoin="bevel" points="1568.67,627.6 1588.51,627.6"/>
<polyline class="LyricsLineSegment" fill="none" stroke="#000000" stroke-width="2.48" stroke-linejoin="bevel" points="1567.94,687.585 1587.78,687.585"/>
<path class="NoteDot" transform="matrix(0.992,0,0,0.992,1823.16,423.398)" d="M0,0 C0,2.8 2.2,5 5,5 C7.8,5 10,2.8 10,0 C10,-2.8 7.8,-5 5,-5 C2.2,-5 0,-2.8 0,0"/>
<path class="NoteDot" transform="matrix(0.992,0,0,0.992,293.113,472.998)" d="M0,0 C0,2.8 2.2,5 5,5 C7.8,5 10,2.8 10,0 C10,-2.8 7.8,-5 5,-5 C2.2,-5 0,-2.8 0,0"/>
<path class="NoteDot" transform="matrix(0.992,0,0,0.992,1492.13,448.198)" d="M0,0 C0,2.8 2.2,5 5,5 C7.8,5 10,2.8 10,0 C10,-2.8 7.8,-5 5,-5 C2.2,-5 0,-2.8 0,0"/>
</svg>
