<?xml version="1.0" encoding="UTF-8" standalone="no"?>
<svg width="2098.8px" height="1418.4px" viewBox="0 0 2098.8 1418.4"
 xmlns="http://www.w3.org/2000/svg" xmlns:xlink="http://www.w3.org/1999/xlink" version="1.2" baseProfile="tiny">
<title>156한말씀만하소서.musicxml (2)</title>
<desc>Generated by MuseScore 4.2.1</desc>
<polyline class="StaffLines" fill="none" stroke="#000000" stroke-width="2.73" stroke-linejoin="bevel" points="104.4,386.198 1994.4,386.198"/>
<polyline class="StaffLines" fill="none" stroke="#000000" stroke-width="2.73" stroke-linejoin="bevel" points="104.4,410.998 1994.4,410.998"/>
<polyline class="StaffLines" fill="none" stroke="#000000" stroke-width="2.73" stroke-linejoin="bevel" points="104.4,435.798 1994.4,435.798"/>
<polyline class="StaffLines" fill="none" stroke="#000000" stroke-width="2.73" stroke-linejoin="bevel" points="104.4,460.598 1994.4,460.598"/>
<polyline class="StaffLines" fill="none" stroke="#000000" stroke-width="2.73" stroke-linejoin="bevel" points="104.4,485.398 1994.4,485.398"/>
<polyline class="StaffLines" fill="none" stroke="#000000" stroke-width="2.73" stroke-linejoin="bevel" points="104.4,854.841 1994.4,854.841"/>
<polyline class="StaffLines" fill="none" stroke="#000000" stroke-width="2.73" stroke-linejoin="bevel" points="104.4,879.641 1994.4,879.641"/>
<polyline class="StaffLines" fill="none" stroke="#000000" stroke-width="2.73" stroke-linejoin="bevel" points="104.4,904.441 1994.4,904.441"/>
<polyline class="StaffLines" fill="none" stroke="#000000" stroke-width="2.73" stroke-linejoin="bevel" points="104.4,929.241 1994.4,929.241"/>
<polyline class="StaffLines" fill="none" stroke="#000000" stroke-width="2.73" stroke-linejoin="bevel" points="104.4,954.041 1994.4,954.041"/>
<path class="MeasureNumber" d="M120.76,308.278 L119.6,308.278 C117.4,309.918 113.16,311.318 110.28,311.318 L109.8,313.078 L112.56,313.078 C115,313.078 115.28,313.158 115.28,313.878 C115.28,314.238 115.28,314.238 114.88,315.678 L110.6,331.678 C110.08,333.678 110.04,333.798 109.68,334.158 C109.28,334.558 108.44,334.678 106.32,334.718 L104.6,334.718 L104.4,336.598 L119.2,336.598 L119.44,334.718 L117.28,334.718 C114.68,334.718 114.12,334.518 114.12,333.638 C114.12,333.358 114.28,332.438 114.48,331.678 L120.76,308.278 M138.674,308.438 C130.074,308.438 125.794,320.278 125.794,327.318 C125.794,333.118 128.674,337.198 132.754,337.198 C139.594,337.198 145.714,328.318 145.714,318.398 C145.714,312.438 142.874,308.438 138.674,308.438 M138.634,310.038 C140.714,310.038 141.834,311.878 141.834,315.318 C141.834,319.238 140.834,324.318 139.194,328.438 C137.274,333.438 135.354,335.598 132.954,335.598 C130.794,335.598 129.594,333.678 129.594,330.278 C129.594,325.078 131.434,318.118 133.994,313.478 C135.234,311.238 136.834,310.038 138.634,310.038"/>
<path class="MeasureNumber" d="M120.76,776.921 L119.6,776.921 C117.4,778.561 113.16,779.961 110.28,779.961 L109.8,781.721 L112.56,781.721 C115,781.721 115.28,781.801 115.28,782.521 C115.28,782.881 115.28,782.881 114.88,784.321 L110.6,800.321 C110.08,802.321 110.04,802.441 109.68,802.801 C109.28,803.201 108.44,803.321 106.32,803.361 L104.6,803.361 L104.4,805.241 L119.2,805.241 L119.44,803.361 L117.28,803.361 C114.68,803.361 114.12,803.161 114.12,802.281 C114.12,802.001 114.28,801.081 114.48,800.321 L120.76,776.921 M129.114,789.921 C127.874,790.681 127.514,791.161 127.514,791.961 C127.514,792.721 128.154,793.281 128.954,793.281 C129.994,793.281 130.594,792.521 130.714,791.041 C131.954,790.041 133.274,789.601 134.874,789.601 C137.834,789.601 139.474,791.441 139.474,794.761 C139.474,799.961 136.114,804.201 131.994,804.201 C129.634,804.201 127.714,803.081 127.714,801.761 C127.714,801.521 127.754,801.441 127.954,801.321 C129.234,800.721 130.274,800.281 130.274,798.601 C130.274,797.321 129.274,796.361 127.874,796.361 C126.114,796.361 124.794,797.841 124.794,799.761 C124.794,803.281 127.834,805.841 132.114,805.841 C138.594,805.841 143.834,800.681 143.834,794.281 C143.834,790.241 140.754,787.401 136.394,787.401 C134.674,787.401 133.274,787.761 131.354,788.721 L133.594,781.161 C135.714,781.601 137.394,781.801 138.834,781.801 C141.474,781.801 143.834,780.961 145.154,779.561 C145.834,778.761 146.234,778.081 146.234,777.561 C146.234,777.321 146.114,777.081 145.954,777.081 C145.834,777.081 145.754,777.121 145.514,777.241 C144.194,777.881 142.514,778.241 140.954,778.241 C138.554,778.241 135.714,777.841 132.754,777.081 L129.114,789.921 "/>
<path class="TieSegment" stroke="#000000" stroke-width="1.24" stroke-linecap="round" stroke-linejoin="round" fill-rule="evenodd" d="M656.807,947.341 C678.691,964.556 744.346,964.556 766.231,947.341 C744.346,972.492 678.691,972.492 656.807,947.341"/>
<path class="TieSegment" stroke="#000000" stroke-width="1.24" stroke-linecap="round" stroke-linejoin="round" fill-rule="evenodd" d="M1676.57,478.699 C1703.29,497.754 1783.45,497.754 1810.16,478.699 C1783.45,505.69 1703.29,505.69 1676.57,478.699"/>
<polyline class="BarLine" fill="none" stroke="#000000" stroke-width="4.46" stroke-linejoin="bevel" points="1992.17,853.477 1992.17,955.405"/>
<polyline class="BarLine" fill="none" stroke="#000000" stroke-width="4.46" stroke-linejoin="bevel" points="1220.18,384.834 1220.18,486.762"/>
<polyline class="BarLine" fill="none" stroke="#000000" stroke-width="4.46" stroke-linejoin="bevel" points="1624.39,384.834 1624.39,486.762"/>
<polyline class="BarLine" fill="none" stroke="#000000" stroke-width="4.46" stroke-linejoin="bevel" points="1726.7,853.477 1726.7,955.405"/>
<polyline class="BarLine" fill="none" stroke="#000000" stroke-width="4.46" stroke-linejoin="bevel" points="975.643,384.834 975.643,486.762"/>
<polyline class="BarLine" fill="none" stroke="#000000" stroke-width="4.46" stroke-linejoin="bevel" points="1992.17,384.834 1992.17,486.762"/>
<polyline class="BarLine" fill="none" stroke="#000000" stroke-width="4.46" stroke-linejoin="bevel" points="604.627,853.477 604.627,955.405"/>
<polyline class="BarLine" fill="none" stroke="#000000" stroke-width="4.46" stroke-linejoin="bevel" points="1306,853.477 1306,955.405"/>
<polyline class="BarLine" fill="none" stroke="#000000" stroke-width="4.46" stroke-linejoin="bevel" points="929.167,853.477 929.167,955.405"/>
<polyline class="BarLine" fill="none" stroke="#000000" stroke-width="4.46" stroke-linejoin="bevel" points="571.432,384.834 571.432,486.762"/>
<polyline class="Stem" fill="none" stroke="#000000" stroke-width="2.48" stroke-linejoin="bevel" points="1115.27,896.207 1115.27,966.564"/>
<polyline class="Stem" fill="none" stroke="#000000" stroke-width="2.48" stroke-linejoin="bevel" points="1055.11,896.207 1055.11,972.542"/>
<polyline class="Stem" fill="none" stroke="#000000" stroke-width="2.48" stroke-linejoin="bevel" points="994.631,925.273 994.631,842.441"/>
<polyline class="Stem" fill="none" stroke="#000000" stroke-width="2.48" stroke-linejoin="bevel" points="636.897,469.03 636.897,386.198"/>
<polyline class="Stem" fill="none" stroke="#000000" stroke-width="2.48" stroke-linejoin="bevel" points="1175.42,908.607 1175.42,972.518"/>
<polyline class="Stem" fill="none" stroke="#000000" stroke-width="2.48" stroke-linejoin="bevel" points="775.452,481.43 775.452,410.896"/>
<polyline class="Stem" fill="none" stroke="#000000" stroke-width="2.48" stroke-linejoin="bevel" points="874.708,925.273 874.708,842.639"/>
<polyline class="Stem" fill="none" stroke="#000000" stroke-width="2.48" stroke-linejoin="bevel" points="784.476,925.273 784.476,842.441"/>
<polyline class="Stem" fill="none" stroke="#000000" stroke-width="2.48" stroke-linejoin="bevel" points="670.092,925.273 670.092,842.441"/>
<polyline class="Stem" fill="none" stroke="#000000" stroke-width="2.48" stroke-linejoin="bevel" points="1235.57,883.807 1235.57,966.342"/>
<polyline class="Stem" fill="none" stroke="#000000" stroke-width="2.48" stroke-linejoin="bevel" points="1341.71,883.807 1341.71,954.164"/>
<polyline class="Stem" fill="none" stroke="#000000" stroke-width="2.48" stroke-linejoin="bevel" points="848.318,469.03 848.318,404.9"/>
<polyline class="Stem" fill="none" stroke="#000000" stroke-width="2.48" stroke-linejoin="bevel" points="550.168,912.873 550.168,836.439"/>
<polyline class="Stem" fill="none" stroke="#000000" stroke-width="2.48" stroke-linejoin="bevel" points="460.261,908.607 460.261,972.518"/>
<polyline class="Stem" fill="none" stroke="#000000" stroke-width="2.48" stroke-linejoin="bevel" points="400.107,896.207 400.107,966.564"/>
<polyline class="Stem" fill="none" stroke="#000000" stroke-width="2.48" stroke-linejoin="bevel" points="339.952,896.207 339.952,972.542"/>
<polyline class="Stem" fill="none" stroke="#000000" stroke-width="2.48" stroke-linejoin="bevel" points="249.72,896.207 249.72,972.641"/>
<polyline class="Stem" fill="none" stroke="#000000" stroke-width="2.48" stroke-linejoin="bevel" points="921.184,481.43 921.184,398.797"/>
<polyline class="Stem" fill="none" stroke="#000000" stroke-width="2.48" stroke-linejoin="bevel" points="461.637,481.43 461.637,398.598"/>
<polyline class="Stem" fill="none" stroke="#000000" stroke-width="2.48" stroke-linejoin="bevel" points="1401.87,896.207 1401.87,960.118"/>
<polyline class="Stem" fill="none" stroke="#000000" stroke-width="2.48" stroke-linejoin="bevel" points="1491.77,950.073 1491.77,867.439"/>
<polyline class="Stem" fill="none" stroke="#000000" stroke-width="2.48" stroke-linejoin="bevel" points="1551.93,962.473 1551.93,879.518"/>
<polyline class="Stem" fill="none" stroke="#000000" stroke-width="2.48" stroke-linejoin="bevel" points="1612.08,937.673 1612.08,873.564"/>
<polyline class="Stem" fill="none" stroke="#000000" stroke-width="2.48" stroke-linejoin="bevel" points="388.771,469.03 388.771,386.397"/>
<polyline class="Stem" fill="none" stroke="#000000" stroke-width="2.48" stroke-linejoin="bevel" points="1041.11,493.83 1041.11,410.998"/>
<polyline class="Stem" fill="none" stroke="#000000" stroke-width="2.48" stroke-linejoin="bevel" points="1937.71,456.63 1937.71,373.997"/>
<polyline class="Stem" fill="none" stroke="#000000" stroke-width="2.48" stroke-linejoin="bevel" points="1828.41,456.63 1828.41,373.798"/>
<polyline class="Stem" fill="none" stroke="#000000" stroke-width="2.48" stroke-linejoin="bevel" points="1689.85,456.63 1689.85,373.798"/>
<polyline class="Stem" fill="none" stroke="#000000" stroke-width="2.48" stroke-linejoin="bevel" points="1672.24,912.873 1672.24,836.439"/>
<polyline class="Stem" fill="none" stroke="#000000" stroke-width="2.48" stroke-linejoin="bevel" points="1792.16,925.273 1792.16,842.441"/>
<polyline class="Stem" fill="none" stroke="#000000" stroke-width="2.48" stroke-linejoin="bevel" points="1906.54,937.673 1906.54,854.841"/>
<polyline class="Stem" fill="none" stroke="#000000" stroke-width="2.48" stroke-linejoin="bevel" points="279.473,456.63 279.473,373.798"/>
<polyline class="Stem" fill="none" stroke="#000000" stroke-width="2.48" stroke-linejoin="bevel" points="1285.64,481.43 1285.64,398.598"/>
<polyline class="Stem" fill="none" stroke="#000000" stroke-width="2.48" stroke-linejoin="bevel" points="1569.93,469.03 1569.93,386.397"/>
<polyline class="Stem" fill="none" stroke="#000000" stroke-width="2.48" stroke-linejoin="bevel" points="1497.07,481.43 1497.07,398.797"/>
<polyline class="Stem" fill="none" stroke="#000000" stroke-width="2.48" stroke-linejoin="bevel" points="1424.2,469.03 1424.2,386.397"/>
<path class="Note" transform="matrix(0.992,0,0,0.992,398.867,892.041)" d="M0,4.2 C0,8.5 3.1,13.3 11.2,13.3 C21.6,13.3 32.5,4.8 32.5,-4 C32.5,-9.9 27.5,-13.2 21.3,-13.2 C11.6,-13.2 0,-5 0,4.2"/>
<path class="Note" transform="matrix(0.992,0,0,0.992,1797.42,460.598)" d="M0,4.2 C0,8.5 3.1,13.3 11.2,13.3 C21.6,13.3 32.5,4.8 32.5,-4 C32.5,-9.9 27.5,-13.2 21.3,-13.2 C11.6,-13.2 0,-5 0,4.2"/>
<path class="Note" transform="matrix(0.992,0,0,0.992,817.326,472.998)" d="M0,4.2 C0,8.5 3.1,13.3 11.2,13.3 C21.6,13.3 32.5,4.8 32.5,-4 C32.5,-9.9 27.5,-13.2 21.3,-13.2 C11.6,-13.2 0,-5 0,4.2"/>
<path class="Note" transform="matrix(0.992,0,0,0.992,519.176,916.841)" d="M0,4.2 C0,8.5 3.1,13.3 11.2,13.3 C21.6,13.3 32.5,4.8 32.5,-4 C32.5,-9.9 27.5,-13.2 21.3,-13.2 C11.6,-13.2 0,-5 0,4.2"/>
<path class="Note" transform="matrix(0.992,0,0,0.992,1393.21,472.998)" d="M0,4.2 C0,8.5 3.1,13.3 11.2,13.3 C21.6,13.3 32.5,4.8 32.5,-4 C32.5,-9.9 27.5,-13.2 21.3,-13.2 C11.6,-13.2 0,-5 0,4.2"/>
<path class="Note" transform="matrix(0.992,0,0,0.992,1875.55,941.641)" d="M0,4.2 C0,8.5 3.1,13.3 11.2,13.3 C21.6,13.3 32.5,4.8 32.5,-4 C32.5,-9.9 27.5,-13.2 21.3,-13.2 C11.6,-13.2 0,-5 0,4.2"/>
<path class="Note" transform="matrix(0.992,0,0,0.992,248.48,460.598)" d="M0,4.2 C0,8.5 3.1,13.3 11.2,13.3 C21.6,13.3 32.5,4.8 32.5,-4 C32.5,-9.9 27.5,-13.2 21.3,-13.2 C11.6,-13.2 0,-5 0,4.2"/>
<path class="Note" transform="matrix(0.992,0,0,0.992,1761.17,929.241)" d="M0,4.2 C0,8.5 3.1,13.3 11.2,13.3 C21.6,13.3 32.5,4.8 32.5,-4 C32.5,-9.9 27.5,-13.2 21.3,-13.2 C11.6,-13.2 0,-5 0,4.2"/>
<path class="Note" transform="matrix(0.992,0,0,0.992,639.099,929.241)" d="M0,4.2 C0,8.5 3.1,13.3 11.2,13.3 C21.6,13.3 32.5,4.8 32.5,-4 C32.5,-9.9 27.5,-13.2 21.3,-13.2 C11.6,-13.2 0,-5 0,4.2"/>
<path class="Note" transform="matrix(0.992,0,0,0.992,1641.24,916.841)" d="M0,4.2 C0,8.5 3.1,13.3 11.2,13.3 C21.6,13.3 32.5,4.8 32.5,-4 C32.5,-9.9 27.5,-13.2 21.3,-13.2 C11.6,-13.2 0,-5 0,4.2"/>
<path class="Note" transform="matrix(0.992,0,0,0.992,1466.07,485.398)" d="M0,4.2 C0,8.5 3.1,13.3 11.2,13.3 C21.6,13.3 32.5,4.8 32.5,-4 C32.5,-9.9 27.5,-13.2 21.3,-13.2 C11.6,-13.2 0,-5 0,4.2"/>
<path class="Note" transform="matrix(0.992,0,0,0.992,753.484,929.241)" d="M0,4.2 C0,8.5 3.1,13.3 11.2,13.3 C21.6,13.3 32.5,4.8 32.5,-4 C32.5,-9.9 27.5,-13.2 21.3,-13.2 C11.6,-13.2 0,-5 0,4.2"/>
<path class="Note" transform="matrix(0.992,0,0,0.992,338.712,892.041)" d="M0,4.2 C0,8.5 3.1,13.3 11.2,13.3 C21.6,13.3 32.5,4.8 32.5,-4 C32.5,-9.9 27.5,-13.2 21.3,-13.2 C11.6,-13.2 0,-5 0,4.2"/>
<path class="Note" transform="matrix(0.992,0,0,0.992,1581.09,941.641)" d="M0,4.2 C0,8.5 3.1,13.3 11.2,13.3 C21.6,13.3 32.5,4.8 32.5,-4 C32.5,-9.9 27.5,-13.2 21.3,-13.2 C11.6,-13.2 0,-5 0,4.2"/>
<path class="Note" transform="matrix(0.992,0,0,0.992,744.46,485.398)" d="M0,4.2 C0,8.5 3.1,13.3 11.2,13.3 C21.6,13.3 32.5,4.8 32.5,-4 C32.5,-9.9 27.5,-13.2 21.3,-13.2 C11.6,-13.2 0,-5 0,4.2"/>
<path class="Note" transform="matrix(0.992,0,0,0.992,1254.65,485.398)" d="M0,4.2 C0,8.5 3.1,13.3 11.2,13.3 C21.6,13.3 32.5,4.8 32.5,-4 C32.5,-9.9 27.5,-13.2 21.3,-13.2 C11.6,-13.2 0,-5 0,4.2"/>
<path class="Note" transform="matrix(0.992,0,0,0.992,1538.94,472.998)" d="M0,4.2 C0,8.5 3.1,13.3 11.2,13.3 C21.6,13.3 32.5,4.8 32.5,-4 C32.5,-9.9 27.5,-13.2 21.3,-13.2 C11.6,-13.2 0,-5 0,4.2"/>
<path class="Note" transform="matrix(0.992,0,0,0.992,357.779,472.998)" d="M0,4.2 C0,8.5 3.1,13.3 11.2,13.3 C21.6,13.3 32.5,4.8 32.5,-4 C32.5,-9.9 27.5,-13.2 21.3,-13.2 C11.6,-13.2 0,-5 0,4.2"/>
<path class="Note" transform="matrix(0.992,0,0,0.992,843.716,929.241)" d="M0,4.2 C0,8.5 3.1,13.3 11.2,13.3 C21.6,13.3 32.5,4.8 32.5,-4 C32.5,-9.9 27.5,-13.2 21.3,-13.2 C11.6,-13.2 0,-5 0,4.2"/>
<path class="Note" transform="matrix(0.992,0,0,0.992,1520.93,966.441)" d="M0,4.2 C0,8.5 3.1,13.3 11.2,13.3 C21.6,13.3 32.5,4.8 32.5,-4 C32.5,-9.9 27.5,-13.2 21.3,-13.2 C11.6,-13.2 0,-5 0,4.2"/>
<path class="Note" transform="matrix(0.992,0,0,0.992,1460.78,954.041)" d="M0,4.2 C0,8.5 3.1,13.3 11.2,13.3 C21.6,13.3 32.5,4.8 32.5,-4 C32.5,-9.9 27.5,-13.2 21.3,-13.2 C11.6,-13.2 0,-5 0,4.2"/>
<path class="Note" transform="matrix(0.992,0,0,0.992,963.639,929.241)" d="M0,4.2 C0,8.5 3.1,13.3 11.2,13.3 C21.6,13.3 32.5,4.8 32.5,-4 C32.5,-9.9 27.5,-13.2 21.3,-13.2 C11.6,-13.2 0,-5 0,4.2"/>
<path class="Note" transform="matrix(0.992,0,0,0.992,1400.63,892.041)" d="M0,4.2 C0,8.5 3.1,13.3 11.2,13.3 C21.6,13.3 32.5,4.8 32.5,-4 C32.5,-9.9 27.5,-13.2 21.3,-13.2 C11.6,-13.2 0,-5 0,4.2"/>
<path class="Note" transform="matrix(0.992,0,0,0.992,1658.86,460.598)" d="M0,4.2 C0,8.5 3.1,13.3 11.2,13.3 C21.6,13.3 32.5,4.8 32.5,-4 C32.5,-9.9 27.5,-13.2 21.3,-13.2 C11.6,-13.2 0,-5 0,4.2"/>
<path class="Note" transform="matrix(0.992,0,0,0.992,248.48,892.041)" d="M0,4.2 C0,8.5 3.1,13.3 11.2,13.3 C21.6,13.3 32.5,4.8 32.5,-4 C32.5,-9.9 27.5,-13.2 21.3,-13.2 C11.6,-13.2 0,-5 0,4.2"/>
<path class="Note" transform="matrix(0.992,0,0,0.992,1340.47,879.641)" d="M0,4.2 C0,8.5 3.1,13.3 11.2,13.3 C21.6,13.3 32.5,4.8 32.5,-4 C32.5,-9.9 27.5,-13.2 21.3,-13.2 C11.6,-13.2 0,-5 0,4.2"/>
<path class="Note" transform="matrix(0.992,0,0,0.992,430.645,485.398)" d="M0,4.2 C0,8.5 3.1,13.3 11.2,13.3 C21.6,13.3 32.5,4.8 32.5,-4 C32.5,-9.9 27.5,-13.2 21.3,-13.2 C11.6,-13.2 0,-5 0,4.2"/>
<path class="Note" transform="matrix(0.992,0,0,0.992,1234.33,879.641)" d="M0,4.2 C0,8.5 3.1,13.3 11.2,13.3 C21.6,13.3 32.5,4.8 32.5,-4 C32.5,-9.9 27.5,-13.2 21.3,-13.2 C11.6,-13.2 0,-5 0,4.2"/>
<path class="Note" transform="matrix(0.992,0,0,0.992,890.191,485.398)" d="M0,4.2 C0,8.5 3.1,13.3 11.2,13.3 C21.6,13.3 32.5,4.8 32.5,-4 C32.5,-9.9 27.5,-13.2 21.3,-13.2 C11.6,-13.2 0,-5 0,4.2"/>
<path class="Note" transform="matrix(0.992,0,0,0.992,459.021,904.441)" d="M0,4.2 C0,8.5 3.1,13.3 11.2,13.3 C21.6,13.3 32.5,4.8 32.5,-4 C32.5,-9.9 27.5,-13.2 21.3,-13.2 C11.6,-13.2 0,-5 0,4.2"/>
<path class="Note" transform="matrix(0.992,0,0,0.992,1053.87,892.041)" d="M0,4.2 C0,8.5 3.1,13.3 11.2,13.3 C21.6,13.3 32.5,4.8 32.5,-4 C32.5,-9.9 27.5,-13.2 21.3,-13.2 C11.6,-13.2 0,-5 0,4.2"/>
<path class="Note" transform="matrix(0.992,0,0,0.992,1010.11,497.798)" d="M21.3,-13.2 C11.6,-13.2 0,-5.1 0,4.2 C0,8.5 3.1,13.3 11.2,13.3 C21.6,13.3 32.5,4.8 32.5,-4 C32.5,-9.9 27.5,-13.2 21.3,-13.2 M7.5,8.6 C4.2,8.6 3.5,5.9 3.5,5 C3.5,0.1 20.3,-8.5 25,-8.5 C27.4,-8.5 29,-7.1 29,-4.9 C29,0.1 12.1,8.6 7.5,8.6"/>
<path class="Note" transform="matrix(0.992,0,0,0.992,1906.72,460.598)" d="M0,4.2 C0,8.5 3.1,13.3 11.2,13.3 C21.6,13.3 32.5,4.8 32.5,-4 C32.5,-9.9 27.5,-13.2 21.3,-13.2 C11.6,-13.2 0,-5 0,4.2"/>
<path class="Note" transform="matrix(0.992,0,0,0.992,1174.18,904.441)" d="M0,4.2 C0,8.5 3.1,13.3 11.2,13.3 C21.6,13.3 32.5,4.8 32.5,-4 C32.5,-9.9 27.5,-13.2 21.3,-13.2 C11.6,-13.2 0,-5 0,4.2"/>
<path class="Note" transform="matrix(0.992,0,0,0.992,605.904,472.998)" d="M0,4.2 C0,8.5 3.1,13.3 11.2,13.3 C21.6,13.3 32.5,4.8 32.5,-4 C32.5,-9.9 27.5,-13.2 21.3,-13.2 C11.6,-13.2 0,-5 0,4.2"/>
<path class="Note" transform="matrix(0.992,0,0,0.992,1114.03,892.041)" d="M0,4.2 C0,8.5 3.1,13.3 11.2,13.3 C21.6,13.3 32.5,4.8 32.5,-4 C32.5,-9.9 27.5,-13.2 21.3,-13.2 C11.6,-13.2 0,-5 0,4.2"/>
<path class="Clef" transform="matrix(0.992,0,0,0.992,123,929.241)" d="M12.3,51.3 C12.3,57.9 17.3,66.6 30.8,66.6 C35.5,66.6 39.6,65.4 43.2,63.2 C48.6,59.4 50,52.8 50,46.5 C50,42.6 49.4,38.1 48.4,32.4 C48.1,30.4 47.5,27.4 46.9,23.5 C56.7,20.3 64,10.1 64,-0.2 C64,-15.3 53.3,-25.5 38.7,-25.5 C37.7,-31.5 36.7,-37.4 35.9,-43 C46.4,-54.1 53.7,-66.6 53.7,-82.5 C53.7,-91.6 50.9,-99 49.3,-102.6 C46.9,-107.7 44,-111.2 42.2,-111.2 C41.5,-111.2 38.4,-110 35.1,-106.1 C28.7,-98.5 26.9,-85.7 26.9,-77.3 C26.9,-71.9 27.4,-67 29.1,-55.8 C29,-55.7 23.8,-50.4 21.7,-48.7 C12.6,-40.3 0,-28.1 0,-8.1 C0,10.6 16.3,25.3 34.9,25.3 C37.8,25.3 40.5,25 42.8,24.6 C44.7,34.2 45.9,41.2 45.9,46.5 C45.9,56.9 40.5,62.4 30.4,62.4 C28,62.4 25.9,61.9 25.7,61.9 C25.6,61.8 25.4,61.7 25.4,61.6 C25.4,61.4 25.6,61.3 25.9,61.3 C30.6,60.5 35.3,56.5 35.3,50.1 C35.3,44.7 31.2,39 23.7,39 C16.7,39 12.3,44.7 12.3,51.3 M33.2,-82.2 C34.1,-86.2 38.7,-96.7 43.9,-96.7 C45.4,-96.7 47.8,-91.9 47.8,-84.9 C47.8,-74.5 40.1,-66.7 33.2,-59.9 C32.6,-63.9 32.1,-67.8 32.1,-72 C32.1,-75.7 32.4,-79.1 33.2,-82.2 M42,20.6 C40,21 38.1,21.2 36.2,21.2 C21.9,21.2 9.7,11.2 9.7,-3.9 C9.7,-16.1 18.3,-27 27.1,-34.6 C28.8,-36.1 30.4,-37.5 31.9,-39 C32.8,-33.6 33.5,-28.9 34.2,-24.8 C25.1,-22.1 18.9,-12.5 18.9,-3.1 C18.9,3.9 24.4,13.5 32.4,13.5 C33.2,13.5 34.1,13.1 34.1,12.2 C34.1,11.3 33.1,10.8 31.9,10 C28,7.6 25.8,5 25.8,0.1 C25.8,-6 30.4,-10.9 36.2,-12.3 L42,20.6 M56.2,2.1 C56.2,9.2 53.3,16.5 46.2,19.4 C44.1,7.4 41.4,-8.5 40.7,-12.9 C49.7,-12.9 56.2,-6.8 56.2,2.1"/>
<path class="Clef" transform="matrix(0.992,0,0,0.992,123,460.598)" d="M12.3,51.3 C12.3,57.9 17.3,66.6 30.8,66.6 C35.5,66.6 39.6,65.4 43.2,63.2 C48.6,59.4 50,52.8 50,46.5 C50,42.6 49.4,38.1 48.4,32.4 C48.1,30.4 47.5,27.4 46.9,23.5 C56.7,20.3 64,10.1 64,-0.2 C64,-15.3 53.3,-25.5 38.7,-25.5 C37.7,-31.5 36.7,-37.4 35.9,-43 C46.4,-54.1 53.7,-66.6 53.7,-82.5 C53.7,-91.6 50.9,-99 49.3,-102.6 C46.9,-107.7 44,-111.2 42.2,-111.2 C41.5,-111.2 38.4,-110 35.1,-106.1 C28.7,-98.5 26.9,-85.7 26.9,-77.3 C26.9,-71.9 27.4,-67 29.1,-55.8 C29,-55.7 23.8,-50.4 21.7,-48.7 C12.6,-40.3 0,-28.1 0,-8.1 C0,10.6 16.3,25.3 34.9,25.3 C37.8,25.3 40.5,25 42.8,24.6 C44.7,34.2 45.9,41.2 45.9,46.5 C45.9,56.9 40.5,62.4 30.4,62.4 C28,62.4 25.9,61.9 25.7,61.9 C25.6,61.8 25.4,61.7 25.4,61.6 C25.4,61.4 25.6,61.3 25.9,61.3 C30.6,60.5 35.3,56.5 35.3,50.1 C35.3,44.7 31.2,39 23.7,39 C16.7,39 12.3,44.7 12.3,51.3 M33.2,-82.2 C34.1,-86.2 38.7,-96.7 43.9,-96.7 C45.4,-96.7 47.8,-91.9 47.8,-84.9 C47.8,-74.5 40.1,-66.7 33.2,-59.9 C32.6,-63.9 32.1,-67.8 32.1,-72 C32.1,-75.7 32.4,-79.1 33.2,-82.2 M42,20.6 C40,21 38.1,21.2 36.2,21.2 C21.9,21.2 9.7,11.2 9.7,-3.9 C9.7,-16.1 18.3,-27 27.1,-34.6 C28.8,-36.1 30.4,-37.5 31.9,-39 C32.8,-33.6 33.5,-28.9 34.2,-24.8 C25.1,-22.1 18.9,-12.5 18.9,-3.1 C18.9,3.9 24.4,13.5 32.4,13.5 C33.2,13.5 34.1,13.1 34.1,12.2 C34.1,11.3 33.1,10.8 31.9,10 C28,7.6 25.8,5 25.8,0.1 C25.8,-6 30.4,-10.9 36.2,-12.3 L42,20.6 M56.2,2.1 C56.2,9.2 53.3,16.5 46.2,19.4 C44.1,7.4 41.4,-8.5 40.7,-12.9 C49.7,-12.9 56.2,-6.8 56.2,2.1"/>
<path class="Beam" fill-rule="evenodd" d="M1114.03,960.211 L1176.66,966.411 L1176.66,978.871 L1114.03,972.671 L1114.03,960.211 "/>
<path class="Beam" fill-rule="evenodd" d="M1340.47,947.811 L1403.11,954.011 L1403.11,966.471 L1340.47,960.271 L1340.47,947.811 "/>
<path class="Beam" fill-rule="evenodd" d="M1550.69,873.411 L1613.32,867.211 L1613.32,879.671 L1550.69,885.871 L1550.69,873.411 "/>
<path class="Beam" fill-rule="evenodd" d="M774.212,404.777 L849.558,398.577 L849.558,411.019 L774.212,417.219 L774.212,404.777 "/>
<path class="Beam" fill-rule="evenodd" d="M398.867,960.211 L461.501,966.411 L461.501,978.871 L398.867,972.671 L398.867,960.211 "/>
<path class="Hook" transform="matrix(0.992,0,0,0.992,1936.47,373.798)" d="M0,22.7 C0,23 0.1,23.6 0.8,23.8 C5.1,25.2 13.7,30.6 20.2,41.7 C22,44.8 24.9,49.1 24.9,57.4 C24.9,64.6 23.1,72 20.4,79.2 C20.2,79.8 20.1,80.3 20.1,80.7 C20.1,81.4 20.5,81.7 21.2,81.7 C21.8,81.7 22.3,81.3 22.7,80.6 C27.2,72.6 28.9,63.3 28.9,54.2 C28.4,41.3 21,31.8 21,31.8 C21.3,31.8 11.8,19.5 9.1,15.3 C5.4,9.6 3.7,3.9 3.5,3.5 C3.4,3.2 2.5,-0.4 2.5,-0.4 C2.4,-0.8 1.9,-1.2 1.3,-1.2 C0.6,-1.2 0,-0.6 0,0.1 L0,22.7 "/>
<path class="Hook" transform="matrix(0.992,0,0,0.992,1053.87,972.641)" d="M0,-0.1 C0,0.6 0.6,1.2 1.3,1.2 C1.8,1.2 2.4,0.8 2.5,0.4 C2.5,0.3 3.4,-3.2 3.5,-3.5 C3.6,-3.9 4.5,-7.7 8.1,-13.6 C12,-20.1 18,-24.8 23,-31.8 C28,-38.8 30.9,-45.4 30.9,-54.2 C30.9,-63.3 28.9,-70.9 23.5,-80.6 C23.2,-81.3 22.6,-81.7 22,-81.7 C21.8,-81.7 21.6,-81.7 21.5,-81.6 C21,-81.4 20.8,-81 20.8,-80.4 C20.8,-80.1 20.9,-79.7 21.1,-79.2 C25.1,-69.9 26.7,-64.6 26.7,-57.4 C26.7,-49.1 23.8,-44.8 22,-41.7 C15.5,-30.6 5,-25.2 0.8,-23.8 C0.1,-23.6 0,-23 0,-22.7 L0,-0.1 "/>
<path class="Hook" transform="matrix(0.992,0,0,0.992,1234.33,966.441)" d="M0,-0.1 C0,0.6 0.6,1.2 1.3,1.2 C1.8,1.2 2.4,0.8 2.5,0.4 C2.5,0.3 3.4,-3.2 3.5,-3.5 C3.6,-3.9 4.5,-7.7 8.1,-13.6 C12,-20.1 18,-24.8 23,-31.8 C28,-38.8 30.9,-45.4 30.9,-54.2 C30.9,-63.3 28.9,-70.9 23.5,-80.6 C23.2,-81.3 22.6,-81.7 22,-81.7 C21.8,-81.7 21.6,-81.7 21.5,-81.6 C21,-81.4 20.8,-81 20.8,-80.4 C20.8,-80.1 20.9,-79.7 21.1,-79.2 C25.1,-69.9 26.7,-64.6 26.7,-57.4 C26.7,-49.1 23.8,-44.8 22,-41.7 C15.5,-30.6 5,-25.2 0.8,-23.8 C0.1,-23.6 0,-23 0,-22.7 L0,-0.1 "/>
<path class="Hook" transform="matrix(0.992,0,0,0.992,919.944,398.598)" d="M0,22.7 C0,23 0.1,23.6 0.8,23.8 C5.1,25.2 13.7,30.6 20.2,41.7 C22,44.8 24.9,49.1 24.9,57.4 C24.9,64.6 23.1,72 20.4,79.2 C20.2,79.8 20.1,80.3 20.1,80.7 C20.1,81.4 20.5,81.7 21.2,81.7 C21.8,81.7 22.3,81.3 22.7,80.6 C27.2,72.6 28.9,63.3 28.9,54.2 C28.4,41.3 21,31.8 21,31.8 C21.3,31.8 11.8,19.5 9.1,15.3 C5.4,9.6 3.7,3.9 3.5,3.5 C3.4,3.2 2.5,-0.4 2.5,-0.4 C2.4,-0.8 1.9,-1.2 1.3,-1.2 C0.6,-1.2 0,-0.6 0,0.1 L0,22.7 "/>
<path class="Hook" transform="matrix(0.992,0,0,0.992,1490.53,867.241)" d="M0,22.7 C0,23 0.1,23.6 0.8,23.8 C5.1,25.2 13.7,30.6 20.2,41.7 C22,44.8 24.9,49.1 24.9,57.4 C24.9,64.6 23.1,72 20.4,79.2 C20.2,79.8 20.1,80.3 20.1,80.7 C20.1,81.4 20.5,81.7 21.2,81.7 C21.8,81.7 22.3,81.3 22.7,80.6 C27.2,72.6 28.9,63.3 28.9,54.2 C28.4,41.3 21,31.8 21,31.8 C21.3,31.8 11.8,19.5 9.1,15.3 C5.4,9.6 3.7,3.9 3.5,3.5 C3.4,3.2 2.5,-0.4 2.5,-0.4 C2.4,-0.8 1.9,-1.2 1.3,-1.2 C0.6,-1.2 0,-0.6 0,0.1 L0,22.7 "/>
<path class="Hook" transform="matrix(0.992,0,0,0.992,1568.69,386.198)" d="M0,22.7 C0,23 0.1,23.6 0.8,23.8 C5.1,25.2 13.7,30.6 20.2,41.7 C22,44.8 24.9,49.1 24.9,57.4 C24.9,64.6 23.1,72 20.4,79.2 C20.2,79.8 20.1,80.3 20.1,80.7 C20.1,81.4 20.5,81.7 21.2,81.7 C21.8,81.7 22.3,81.3 22.7,80.6 C27.2,72.6 28.9,63.3 28.9,54.2 C28.4,41.3 21,31.8 21,31.8 C21.3,31.8 11.8,19.5 9.1,15.3 C5.4,9.6 3.7,3.9 3.5,3.5 C3.4,3.2 2.5,-0.4 2.5,-0.4 C2.4,-0.8 1.9,-1.2 1.3,-1.2 C0.6,-1.2 0,-0.6 0,0.1 L0,22.7 "/>
<path class="Hook" transform="matrix(0.992,0,0,0.992,338.712,972.641)" d="M0,-0.1 C0,0.6 0.6,1.2 1.3,1.2 C1.8,1.2 2.4,0.8 2.5,0.4 C2.5,0.3 3.4,-3.2 3.5,-3.5 C3.6,-3.9 4.5,-7.7 8.1,-13.6 C12,-20.1 18,-24.8 23,-31.8 C28,-38.8 30.9,-45.4 30.9,-54.2 C30.9,-63.3 28.9,-70.9 23.5,-80.6 C23.2,-81.3 22.6,-81.7 22,-81.7 C21.8,-81.7 21.6,-81.7 21.5,-81.6 C21,-81.4 20.8,-81 20.8,-80.4 C20.8,-80.1 20.9,-79.7 21.1,-79.2 C25.1,-69.9 26.7,-64.6 26.7,-57.4 C26.7,-49.1 23.8,-44.8 22,-41.7 C15.5,-30.6 5,-25.2 0.8,-23.8 C0.1,-23.6 0,-23 0,-22.7 L0,-0.1 "/>
<path class="Hook" transform="matrix(0.992,0,0,0.992,873.468,842.441)" d="M0,22.7 C0,23 0.1,23.6 0.8,23.8 C5.1,25.2 13.7,30.6 20.2,41.7 C22,44.8 24.9,49.1 24.9,57.4 C24.9,64.6 23.1,72 20.4,79.2 C20.2,79.8 20.1,80.3 20.1,80.7 C20.1,81.4 20.5,81.7 21.2,81.7 C21.8,81.7 22.3,81.3 22.7,80.6 C27.2,72.6 28.9,63.3 28.9,54.2 C28.4,41.3 21,31.8 21,31.8 C21.3,31.8 11.8,19.5 9.1,15.3 C5.4,9.6 3.7,3.9 3.5,3.5 C3.4,3.2 2.5,-0.4 2.5,-0.4 C2.4,-0.8 1.9,-1.2 1.3,-1.2 C0.6,-1.2 0,-0.6 0,0.1 L0,22.7 "/>
<path class="Hook" transform="matrix(0.992,0,0,0.992,1671,836.241)" d="M0,22.7 C0,23 0.1,23.6 0.8,23.8 C5.1,25.2 13.7,30.6 20.2,41.7 C22,44.8 24.9,49.1 24.9,57.4 C24.9,64.6 23.1,72 20.4,79.2 C20.2,79.8 20.1,80.3 20.1,80.7 C20.1,81.4 20.5,81.7 21.2,81.7 C21.8,81.7 22.3,81.3 22.7,80.6 C27.2,72.6 28.9,63.3 28.9,54.2 C28.4,41.3 21,31.8 21,31.8 C21.3,31.8 11.8,19.5 9.1,15.3 C5.4,9.6 3.7,3.9 3.5,3.5 C3.4,3.2 2.5,-0.4 2.5,-0.4 C2.4,-0.8 1.9,-1.2 1.3,-1.2 C0.6,-1.2 0,-0.6 0,0.1 L0,22.7 "/>
<path class="Hook" transform="matrix(0.992,0,0,0.992,387.531,386.198)" d="M0,22.7 C0,23 0.1,23.6 0.8,23.8 C5.1,25.2 13.7,30.6 20.2,41.7 C22,44.8 24.9,49.1 24.9,57.4 C24.9,64.6 23.1,72 20.4,79.2 C20.2,79.8 20.1,80.3 20.1,80.7 C20.1,81.4 20.5,81.7 21.2,81.7 C21.8,81.7 22.3,81.3 22.7,80.6 C27.2,72.6 28.9,63.3 28.9,54.2 C28.4,41.3 21,31.8 21,31.8 C21.3,31.8 11.8,19.5 9.1,15.3 C5.4,9.6 3.7,3.9 3.5,3.5 C3.4,3.2 2.5,-0.4 2.5,-0.4 C2.4,-0.8 1.9,-1.2 1.3,-1.2 C0.6,-1.2 0,-0.6 0,0.1 L0,22.7 "/>
<path class="Hook" transform="matrix(0.992,0,0,0.992,1495.83,398.598)" d="M0,22.7 C0,23 0.1,23.6 0.8,23.8 C5.1,25.2 13.7,30.6 20.2,41.7 C22,44.8 24.9,49.1 24.9,57.4 C24.9,64.6 23.1,72 20.4,79.2 C20.2,79.8 20.1,80.3 20.1,80.7 C20.1,81.4 20.5,81.7 21.2,81.7 C21.8,81.7 22.3,81.3 22.7,80.6 C27.2,72.6 28.9,63.3 28.9,54.2 C28.4,41.3 21,31.8 21,31.8 C21.3,31.8 11.8,19.5 9.1,15.3 C5.4,9.6 3.7,3.9 3.5,3.5 C3.4,3.2 2.5,-0.4 2.5,-0.4 C2.4,-0.8 1.9,-1.2 1.3,-1.2 C0.6,-1.2 0,-0.6 0,0.1 L0,22.7 "/>
<path class="Hook" transform="matrix(0.992,0,0,0.992,1422.96,386.198)" d="M0,22.7 C0,23 0.1,23.6 0.8,23.8 C5.1,25.2 13.7,30.6 20.2,41.7 C22,44.8 24.9,49.1 24.9,57.4 C24.9,64.6 23.1,72 20.4,79.2 C20.2,79.8 20.1,80.3 20.1,80.7 C20.1,81.4 20.5,81.7 21.2,81.7 C21.8,81.7 22.3,81.3 22.7,80.6 C27.2,72.6 28.9,63.3 28.9,54.2 C28.4,41.3 21,31.8 21,31.8 C21.3,31.8 11.8,19.5 9.1,15.3 C5.4,9.6 3.7,3.9 3.5,3.5 C3.4,3.2 2.5,-0.4 2.5,-0.4 C2.4,-0.8 1.9,-1.2 1.3,-1.2 C0.6,-1.2 0,-0.6 0,0.1 L0,22.7 "/>
<path class="Hook" transform="matrix(0.992,0,0,0.992,548.928,836.241)" d="M0,22.7 C0,23 0.1,23.6 0.8,23.8 C5.1,25.2 13.7,30.6 20.2,41.7 C22,44.8 24.9,49.1 24.9,57.4 C24.9,64.6 23.1,72 20.4,79.2 C20.2,79.8 20.1,80.3 20.1,80.7 C20.1,81.4 20.5,81.7 21.2,81.7 C21.8,81.7 22.3,81.3 22.7,80.6 C27.2,72.6 28.9,63.3 28.9,54.2 C28.4,41.3 21,31.8 21,31.8 C21.3,31.8 11.8,19.5 9.1,15.3 C5.4,9.6 3.7,3.9 3.5,3.5 C3.4,3.2 2.5,-0.4 2.5,-0.4 C2.4,-0.8 1.9,-1.2 1.3,-1.2 C0.6,-1.2 0,-0.6 0,0.1 L0,22.7 "/>
<path class="Lyrics" d="M435.97,1145.45 L435.97,1142.25 L428.92,1142.25 L428.92,1124.6 L425.12,1124.6 L425.12,1168.3 L428.92,1168.3 L428.92,1145.45 L435.97,1145.45 M420.97,1154.75 C414.92,1151.2 409.42,1144.05 409.42,1136.1 L409.42,1128.45 L405.52,1128.45 L405.52,1136.2 C405.52,1143.95 400.37,1151.8 394.02,1155.7 L396.47,1158.65 C401.62,1155.05 405.87,1149.5 407.42,1144.05 C409.17,1149.35 414.07,1154.55 418.57,1157.65 L420.97,1154.75 "/>
<path class="Lyrics" d="M827.229,562.278 L827.229,566.428 L839.679,566.428 L839.679,562.278 L827.229,562.278 "/>
<path class="Lyrics" d="M426.23,1098.07 L425.88,1095.02 C423.08,1095.42 417.98,1095.77 413.13,1095.97 L413.13,1086.82 L423.08,1086.82 L423.08,1083.67 L404.03,1083.67 L404.03,1072.17 L422.93,1072.17 L422.93,1069.02 L400.23,1069.02 L400.23,1086.82 L409.33,1086.82 L409.33,1096.12 C404.73,1096.27 400.33,1096.32 396.98,1096.32 L397.63,1099.67 C400.48,1099.67 407.08,1099.47 411.93,1099.22 C417.28,1098.92 422.78,1098.52 426.23,1098.07 M433.03,1108.32 L433.03,1064.62 L429.28,1064.62 L429.28,1108.32 L433.03,1108.32 "/>
<path class="Lyrics" d="M468.925,1030.94 L468.925,1035.09 L481.375,1035.09 L481.375,1030.94 L468.925,1030.94 "/>
<path class="Lyrics" d="M468.925,1090.92 L468.925,1095.07 L481.375,1095.07 L481.375,1090.92 L468.925,1090.92 "/>
<path class="Lyrics" d="M468.925,1150.9 L468.925,1155.05 L481.375,1155.05 L481.375,1150.9 L468.925,1150.9 "/>
<path class="Lyrics" d="M430.723,1019.29 C430.723,1012.09 424.473,1007.39 414.923,1007.39 C405.523,1007.39 399.223,1012.09 399.223,1019.29 C399.223,1025.99 404.673,1030.49 413.023,1031.09 L413.023,1039.39 L395.273,1039.39 L395.273,1042.59 L434.723,1042.59 L434.723,1039.39 L416.823,1039.39 L416.823,1031.09 C425.223,1030.54 430.723,1025.99 430.723,1019.29 M427.073,1019.34 C427.073,1024.59 422.273,1028.04 414.923,1028.04 C407.673,1028.04 402.923,1024.59 402.923,1019.34 C402.923,1014.09 407.673,1010.59 414.923,1010.59 C422.323,1010.59 427.073,1014.09 427.073,1019.34"/>
<path class="Lyrics" d="M1287.04,620.912 L1287.04,595.962 L1283.24,595.962 L1283.24,620.912 L1287.04,620.912 M1287.99,639.062 L1287.99,635.912 L1262.59,635.912 L1262.59,626.562 L1287.19,626.562 L1287.19,623.412 L1258.79,623.412 L1258.79,639.062 L1287.99,639.062 M1273.99,618.212 L1273.99,599.062 L1253.59,599.062 L1253.59,618.212 L1273.99,618.212 M1270.19,615.062 L1257.34,615.062 L1257.34,602.212 L1270.19,602.212 L1270.19,615.062 "/>
<path class="Lyrics" d="M827.229,622.262 L827.229,626.412 L839.679,626.412 L839.679,622.262 L827.229,622.262 "/>
<path class="Lyrics" d="M553.426,1048.34 L553.426,1004.64 L549.576,1004.64 L549.576,1048.34 L553.426,1048.34 M544.026,1034.94 C537.976,1031.34 532.676,1024.19 532.676,1016.19 L532.676,1008.44 L528.826,1008.44 L528.826,1016.34 C528.826,1024.09 523.576,1032.04 517.176,1036.04 L519.676,1038.89 C524.726,1035.29 529.226,1029.94 530.826,1024.49 C532.526,1029.74 537.676,1035.14 541.626,1037.84 L544.026,1034.94 "/>
<path class="Lyrics" d="M551.033,1079.27 C551.033,1072.07 544.783,1067.37 535.233,1067.37 C525.833,1067.37 519.533,1072.07 519.533,1079.27 C519.533,1085.97 524.983,1090.47 533.333,1091.07 L533.333,1099.37 L515.583,1099.37 L515.583,1102.57 L555.033,1102.57 L555.033,1099.37 L537.133,1099.37 L537.133,1091.07 C545.533,1090.52 551.033,1085.97 551.033,1079.27 M547.383,1079.32 C547.383,1084.57 542.583,1088.02 535.233,1088.02 C527.983,1088.02 523.233,1084.57 523.233,1079.32 C523.233,1074.07 527.983,1070.57 535.233,1070.57 C542.633,1070.57 547.383,1074.07 547.383,1079.32"/>
<path class="Lyrics" d="M554.72,1139.55 L554.72,1136.35 L548.07,1136.35 L548.07,1124.6 L544.32,1124.6 L544.32,1151.8 L548.07,1151.8 L548.07,1139.55 L554.72,1139.55 M548.57,1160.35 C548.57,1155.45 543.57,1152.35 534.12,1152.35 C524.62,1152.35 519.67,1155.35 519.67,1160.35 C519.67,1165.2 524.62,1168.25 534.12,1168.25 C543.57,1168.25 548.57,1165.15 548.57,1160.35 M534.12,1155.5 C540.72,1155.5 544.67,1157.25 544.67,1160.35 C544.67,1163.4 540.72,1165.1 534.12,1165.1 C527.47,1165.1 523.57,1163.3 523.57,1160.35 C523.57,1157.3 527.47,1155.5 534.12,1155.5 M540.22,1145.1 C535.07,1146.15 525.42,1146.45 520.32,1146.45 L519.77,1146.45 L519.77,1139.95 L535.82,1139.95 L535.82,1127.5 L515.87,1127.5 L515.87,1130.65 L532.02,1130.65 L532.02,1136.85 L515.97,1136.85 L515.97,1149.65 L520.07,1149.65 C526.22,1149.65 536.07,1149 540.57,1148.2 L540.22,1145.1 "/>
<path class="Lyrics" d="M778.207,699.647 L778.207,655.947 L774.407,655.947 L774.407,699.647 L778.207,699.647 M765.357,660.597 L744.557,660.597 L744.557,663.797 L761.307,663.797 C760.507,673.647 754.007,683.147 742.957,687.997 L745.157,690.997 C756.457,685.647 765.157,674.797 765.357,660.597"/>
<path class="Lyrics" d="M770.869,637.462 L770.869,597.012 L767.169,597.012 L767.169,607.962 L760.719,607.962 L760.719,611.162 L767.169,611.162 L767.169,619.162 L759.719,619.162 L759.719,622.312 L767.169,622.312 L767.169,637.462 L770.869,637.462 M779.169,639.662 L779.169,595.962 L775.419,595.962 L775.419,639.662 L779.169,639.662 M760.219,601.412 L743.669,601.412 L743.669,604.612 L756.419,604.612 C755.819,613.712 751.119,622.512 742.019,627.462 L744.519,630.312 C754.619,623.862 759.919,614.762 760.219,601.412"/>
<path class="Lyrics" d="M773.654,535.978 L773.654,579.678 L777.454,579.678 L777.454,535.978 L773.654,535.978 M769.654,564.628 C764.354,565.578 755.704,565.978 748.754,565.978 L747.704,565.978 L747.704,555.528 L764.304,555.528 L764.304,540.028 L743.704,540.028 L743.704,543.178 L760.454,543.178 L760.454,552.378 L743.904,552.378 L743.904,569.228 L748.354,569.228 C757.954,569.228 765.454,568.478 770.004,567.778 L769.654,564.628 "/>
<path class="Lyrics" d="M375.072,1142.6 L375.072,1139.4 L368.422,1139.4 L368.422,1124.6 L364.622,1124.6 L364.622,1156.85 L368.422,1156.85 L368.422,1142.6 L375.072,1142.6 M370.122,1166.9 L370.122,1163.7 L344.822,1163.7 L344.822,1155.7 L341.022,1155.7 L341.022,1166.9 L370.122,1166.9 M353.472,1129.5 L353.472,1126.15 L340.872,1126.15 L340.872,1129.5 L353.472,1129.5 M360.222,1135.95 L360.222,1132.8 L334.622,1132.8 L334.622,1135.95 L360.222,1135.95 M357.722,1145.95 C357.722,1141.25 353.322,1138.3 347.422,1138.3 C341.572,1138.3 337.172,1141.25 337.172,1145.95 C337.172,1150.55 341.622,1153.6 347.422,1153.6 C353.322,1153.6 357.722,1150.55 357.722,1145.95 M354.122,1145.95 C354.122,1148.8 350.972,1150.55 347.422,1150.55 C343.922,1150.55 340.772,1148.8 340.772,1145.95 C340.772,1143.05 343.922,1141.3 347.422,1141.3 C350.972,1141.3 354.122,1143.05 354.122,1145.95"/>
<path class="Lyrics" d="M1283.23,655.947 L1279.43,655.947 L1279.43,699.647 L1283.23,699.647 L1283.23,676.497 L1290.33,676.497 L1290.33,673.297 L1283.23,673.297 L1283.23,655.947 M1255.08,685.697 L1255.08,663.697 L1271.98,663.697 L1271.98,660.497 L1251.23,660.497 L1251.23,688.947 L1255.53,688.947 C1263.13,688.947 1271.78,688.347 1276.48,687.447 L1276.08,684.297 C1271.88,685.197 1263.23,685.697 1257.58,685.697 L1255.08,685.697 "/>
<path class="Lyrics" d="M637.665,1023.14 C637.665,1032.44 641.665,1038.59 648.715,1038.59 C655.365,1038.59 659.265,1033.09 659.665,1024.69 L669.015,1024.69 L669.015,1048.34 L672.815,1048.34 L672.815,1004.64 L669.015,1004.64 L669.015,1021.44 L659.665,1021.44 C659.165,1013.14 655.315,1007.69 648.715,1007.69 C641.665,1007.69 637.665,1013.89 637.665,1023.14 M655.965,1023.19 C655.965,1030.29 653.015,1035.29 648.715,1035.29 C644.365,1035.29 641.465,1030.29 641.465,1023.19 C641.465,1015.99 644.365,1010.99 648.715,1010.99 C653.015,1010.99 655.965,1015.99 655.965,1023.19"/>
<path class="Lyrics" d="M671.703,1064.62 L667.953,1064.62 L667.953,1108.32 L671.703,1108.32 L671.703,1064.62 M663.503,1092.27 C658.303,1093.42 648.203,1094.22 642.603,1094.22 L642.603,1069.17 L638.753,1069.17 L638.753,1097.57 L640.703,1097.57 C647.403,1097.57 658.803,1096.72 663.853,1095.57 L663.503,1092.27 "/>
<path class="Lyrics" d="M646.759,1128.4 C640.409,1128.4 637.159,1134.6 637.159,1143.35 C637.159,1152.15 640.409,1158.3 646.759,1158.3 C652.759,1158.3 655.959,1152.95 656.359,1145.05 L661.059,1145.05 L661.059,1166.2 L664.759,1166.2 L664.759,1125.45 L661.059,1125.45 L661.059,1141.9 L656.359,1141.9 C656.059,1133.95 652.809,1128.4 646.759,1128.4 M652.609,1143.35 C652.609,1150.45 650.309,1154.95 646.759,1154.95 C643.259,1154.95 641.009,1150.45 641.009,1143.35 C641.009,1136.3 643.259,1131.75 646.759,1131.75 C650.309,1131.75 652.609,1136.3 652.609,1143.35 M673.309,1168.3 L673.309,1124.6 L669.559,1124.6 L669.559,1168.3 L673.309,1168.3 "/>
<path class="Lyrics" d="M373.5,1108.32 L373.5,1064.62 L369.75,1064.62 L369.75,1108.32 L373.5,1108.32 M365,1106.12 L365,1065.67 L361.35,1065.67 L361.35,1081.62 L354,1081.62 L354,1084.82 L361.35,1084.82 L361.35,1106.12 L365,1106.12 M355.1,1069.72 L337.9,1069.72 L337.9,1072.92 L351.2,1072.92 C350.75,1081.82 345.35,1091.02 336.2,1096.17 L338.8,1098.97 C349.1,1092.32 354.8,1082.72 355.1,1069.72"/>
<path class="Lyrics" d="M373.5,1048.34 L373.5,1004.64 L369.75,1004.64 L369.75,1048.34 L373.5,1048.34 M365,1046.14 L365,1005.69 L361.35,1005.69 L361.35,1021.64 L354,1021.64 L354,1024.84 L361.35,1024.84 L361.35,1046.14 L365,1046.14 M355.1,1009.74 L337.9,1009.74 L337.9,1012.94 L351.2,1012.94 C350.75,1021.84 345.35,1031.04 336.2,1036.19 L338.8,1038.99 C349.1,1032.34 354.8,1022.74 355.1,1009.74"/>
<path class="Lyrics" d="M827.229,682.247 L827.229,686.397 L839.679,686.397 L839.679,682.247 L827.229,682.247 "/>
<path class="Lyrics" d="M284.337,1146.3 L284.337,1143.15 L277.887,1143.15 C278.837,1138.7 279.337,1132.85 279.337,1127.15 L249.687,1127.15 L249.687,1130.3 L275.437,1130.3 C275.437,1133.8 274.937,1139.75 274.137,1143.15 L244.887,1143.15 L244.887,1146.3 L284.337,1146.3 M249.187,1152.65 L249.187,1155.8 L275.537,1155.8 L275.537,1168.6 L279.387,1168.6 L279.387,1152.65 L249.187,1152.65 "/>
<path class="Lyrics" d="M283.962,1078.57 L283.962,1075.37 L277.312,1075.37 L277.312,1064.62 L273.512,1064.62 L273.512,1089.77 L277.312,1089.77 L277.312,1078.57 L283.962,1078.57 M277.912,1107.67 L277.912,1104.57 L253.512,1104.57 L253.512,1095.22 L277.462,1095.22 L277.462,1092.07 L249.662,1092.07 L249.662,1107.67 L277.912,1107.67 M249.062,1084.52 L249.062,1071.12 L265.312,1071.12 L265.312,1067.92 L245.262,1067.92 L245.262,1087.67 L248.812,1087.67 C256.362,1087.67 264.662,1087.02 269.512,1086.17 L269.112,1083.07 C264.912,1083.92 257.262,1084.52 251.212,1084.52 L249.062,1084.52 "/>
<path class="Lyrics" d="M877.544,1040.14 C877.544,1034.94 872.194,1031.79 862.644,1031.79 C853.144,1031.79 847.794,1034.94 847.794,1040.14 C847.794,1045.19 853.144,1048.44 862.644,1048.44 C872.194,1048.44 877.544,1045.19 877.544,1040.14 M865.744,1024.54 L873.694,1024.54 L873.694,1031.69 L877.494,1031.69 L877.494,1004.64 L873.694,1004.64 L873.694,1010.44 L865.744,1010.44 L865.744,1013.69 L873.694,1013.69 L873.694,1021.29 L865.744,1021.29 L865.744,1024.54 M873.644,1040.14 C873.644,1043.34 869.594,1045.19 862.644,1045.19 C855.844,1045.19 851.744,1043.34 851.744,1040.14 C851.744,1036.89 855.844,1034.99 862.644,1034.99 C869.594,1034.99 873.644,1036.89 873.644,1040.14 M853.394,1007.29 C847.244,1007.29 842.144,1011.49 842.144,1017.79 C842.144,1024.14 847.294,1028.14 853.394,1028.14 C859.544,1028.14 864.594,1024.14 864.594,1017.74 C864.594,1011.39 859.544,1007.29 853.394,1007.29 M853.394,1010.54 C857.894,1010.54 860.794,1013.44 860.794,1017.79 C860.794,1022.19 857.844,1025.04 853.394,1025.04 C849.094,1025.04 845.944,1022.19 845.944,1017.74 C845.944,1013.39 849.094,1010.54 853.394,1010.54"/>
<path class="Lyrics" d="M874.272,1066.77 L845.322,1066.77 L845.322,1069.87 L870.372,1069.87 C870.372,1073.37 869.922,1078.52 869.172,1081.87 L840.122,1081.87 L840.122,1085.02 L857.922,1085.02 L857.922,1092.47 L845.172,1092.47 L845.172,1107.72 L874.922,1107.72 L874.922,1104.57 L848.972,1104.57 L848.972,1095.67 L874.522,1095.67 L874.522,1092.47 L861.722,1092.47 L861.722,1085.02 L879.572,1085.02 L879.572,1081.87 L872.922,1081.87 C873.872,1077.62 874.272,1072.27 874.272,1066.77"/>
<path class="Lyrics" d="M874.622,1144.7 L874.622,1127.05 L844.972,1127.05 L844.972,1144.7 L874.622,1144.7 M870.822,1141.55 L848.822,1141.55 L848.822,1130.2 L870.822,1130.2 L870.822,1141.55 M861.672,1168.35 L861.672,1153.45 L879.572,1153.45 L879.572,1150.25 L840.122,1150.25 L840.122,1153.45 L857.872,1153.45 L857.872,1168.35 L861.672,1168.35 "/>
<path class="Lyrics" d="M606.811,685.347 L606.811,688.497 L632.911,688.497 L632.911,699.947 L636.711,699.947 L636.711,685.347 L623.861,685.347 L623.861,679.547 L641.761,679.547 L641.761,676.397 L602.311,676.397 L602.311,679.547 L620.061,679.547 L620.061,685.347 L606.811,685.347 M639.811,670.297 C633.661,669.747 625.361,666.197 624.211,660.847 L638.161,660.847 L638.161,657.697 L605.911,657.697 L605.911,660.847 L619.961,660.847 C618.811,666.147 611.261,669.697 604.361,670.347 L606.111,673.547 C613.811,672.397 620.311,668.497 622.011,664.447 C624.211,668.447 630.761,672.297 638.061,673.497 L639.811,670.297 "/>
<path class="Lyrics" d="M639.911,613.562 C633.211,612.812 624.261,608.362 624.061,602.212 L638.111,602.212 L638.111,599.062 L605.911,599.062 L605.911,602.212 L620.061,602.212 C619.861,608.312 611.411,612.912 604.261,613.662 L606.011,616.862 C613.461,615.612 620.261,611.112 622.011,607.012 C624.011,611.112 630.961,615.512 638.111,616.762 L639.911,613.562 M623.861,639.662 L623.861,624.012 L641.761,624.012 L641.761,620.812 L602.311,620.812 L602.311,624.012 L620.061,624.012 L620.061,639.662 L623.861,639.662 "/>
<path class="Lyrics" d="M633.267,569.428 L632.917,566.378 C630.117,566.778 625.017,567.128 620.167,567.328 L620.167,558.178 L630.117,558.178 L630.117,555.028 L611.067,555.028 L611.067,543.528 L629.967,543.528 L629.967,540.378 L607.267,540.378 L607.267,558.178 L616.367,558.178 L616.367,567.478 C611.767,567.628 607.367,567.678 604.017,567.678 L604.667,571.028 C607.517,571.028 614.117,570.828 618.967,570.578 C624.317,570.278 629.817,569.878 633.267,569.428 M640.067,579.678 L640.067,535.978 L636.317,535.978 L636.317,579.678 L640.067,579.678 "/>
<path class="Lyrics" d="M277.675,1004.64 L277.675,1048.34 L281.475,1048.34 L281.475,1004.64 L277.675,1004.64 M273.675,1033.29 C268.375,1034.24 259.725,1034.64 252.775,1034.64 L251.725,1034.64 L251.725,1024.19 L268.325,1024.19 L268.325,1008.69 L247.725,1008.69 L247.725,1011.84 L264.475,1011.84 L264.475,1021.04 L247.925,1021.04 L247.925,1037.89 L252.375,1037.89 C261.975,1037.89 269.475,1037.14 274.025,1036.44 L273.675,1033.29 "/>
<path class="Lyrics" d="M987.074,1014.79 C987.074,1009.84 982.224,1006.69 975.474,1006.69 C968.724,1006.69 963.774,1009.84 963.774,1014.74 C963.774,1019.84 968.724,1022.79 975.474,1022.79 C982.224,1022.79 987.074,1019.79 987.074,1014.79 M997.524,1038.24 L997.524,1004.64 L993.724,1004.64 L993.724,1030.49 L984.524,1030.49 L984.524,1033.49 L993.724,1033.49 L993.724,1038.24 L997.524,1038.24 M998.424,1047.29 L998.424,1044.09 L970.974,1044.09 L970.974,1034.64 L967.174,1034.64 L967.174,1047.29 L998.424,1047.29 M983.324,1014.79 C983.324,1017.74 980.174,1019.69 975.474,1019.69 C970.774,1019.69 967.574,1017.74 967.574,1014.79 C967.574,1011.79 970.774,1009.84 975.474,1009.84 C980.174,1009.84 983.324,1011.84 983.324,1014.79 M977.674,1036.49 L977.674,1028.29 C982.274,1027.99 987.124,1027.69 989.874,1027.29 L989.574,1024.34 C985.324,1024.79 980.574,1025.24 975.724,1025.44 C970.974,1025.59 965.624,1025.64 961.124,1025.59 L961.724,1028.84 C965.374,1028.84 969.724,1028.69 973.874,1028.54 L973.874,1036.49 L977.674,1036.49 "/>
<path class="Lyrics" d="M997.874,1107.27 L997.874,1104.07 L972.024,1104.07 L972.024,1093.47 L968.224,1093.47 L968.224,1107.27 L997.874,1107.27 M993.024,1080.62 L993.024,1096.37 L996.824,1096.37 L996.824,1064.62 L993.024,1064.62 L993.024,1077.42 L983.424,1077.42 L983.424,1080.62 L993.024,1080.62 M963.274,1067.92 L963.274,1071.12 L979.124,1071.12 C977.974,1078.77 970.924,1085.87 961.674,1088.32 L963.574,1091.52 C974.874,1087.77 982.624,1079.57 983.274,1067.92 L963.274,1067.92 "/>
<path class="Lyrics" d="M996.105,1156.5 L996.105,1124.6 L992.305,1124.6 L992.305,1156.5 L996.105,1156.5 M997.105,1166.85 L997.105,1163.65 L971.555,1163.65 L971.555,1153.6 L967.755,1153.6 L967.755,1166.85 L997.105,1166.85 M966.255,1145.7 L966.255,1131.7 L983.455,1131.7 L983.455,1128.55 L962.455,1128.55 L962.455,1148.95 L965.905,1148.95 C973.805,1148.95 982.455,1148.2 988.555,1147 L988.105,1143.9 C981.905,1145.15 973.655,1145.7 966.255,1145.7"/>
<path class="Lyrics" d="M923.564,579.678 L923.564,535.978 L919.764,535.978 L919.764,579.678 L923.564,579.678 M889.064,554.678 C889.064,563.978 893.164,570.178 900.314,570.178 C907.564,570.178 911.614,563.978 911.614,554.728 C911.614,545.478 907.564,539.278 900.314,539.278 C893.164,539.278 889.064,545.478 889.064,554.678 M908.014,554.728 C908.014,561.878 904.964,566.878 900.314,566.878 C895.714,566.878 892.664,561.878 892.664,554.728 C892.664,547.528 895.714,542.578 900.314,542.578 C904.964,542.578 908.014,547.528 908.014,554.728"/>
<path class="Lyrics" d="M1284.88,549.178 L1284.88,563.128 L1288.68,563.128 L1288.68,535.978 L1284.88,535.978 L1284.88,546.028 L1275.48,546.028 L1275.48,549.178 L1284.88,549.178 M1289.13,571.378 C1289.13,566.278 1283.88,563.128 1274.48,563.128 C1265.13,563.128 1259.88,566.278 1259.88,571.378 C1259.88,576.478 1265.13,579.628 1274.48,579.628 C1283.88,579.628 1289.13,576.478 1289.13,571.378 M1274.48,566.228 C1281.28,566.228 1285.28,568.128 1285.28,571.378 C1285.28,574.678 1281.28,576.528 1274.48,576.528 C1267.78,576.528 1263.73,574.678 1263.73,571.378 C1263.73,568.128 1267.78,566.228 1274.48,566.228 M1277.83,556.778 C1272.88,554.978 1267.13,549.728 1267.13,542.728 L1267.13,538.478 L1263.28,538.478 L1263.28,542.828 C1263.28,549.778 1258.73,555.378 1252.43,558.278 L1254.78,561.228 C1259.83,558.678 1263.98,554.078 1265.33,549.578 C1267.03,553.928 1271.38,557.728 1275.58,559.728 L1277.83,556.778 "/>
<path class="Lyrics" d="M924.104,620.812 L924.104,595.962 L920.304,595.962 L920.304,620.812 L924.104,620.812 M914.254,616.162 C909.304,614.412 903.404,609.012 903.404,602.012 L903.404,598.012 L899.554,598.012 L899.554,602.162 C899.554,609.112 894.604,614.662 888.504,617.462 L890.854,620.412 C896.354,617.412 900.254,613.362 901.604,608.862 C903.304,613.262 907.854,617.162 912.004,619.212 L914.254,616.162 M924.154,639.062 L924.154,623.462 L895.354,623.462 L895.354,639.062 L924.154,639.062 M920.354,635.912 L899.204,635.912 L899.204,626.612 L920.354,626.612 L920.354,635.912 "/>
<path class="Lyrics" d="M1090.23,1022.64 L1090.23,1019.44 L1083.58,1019.44 L1083.58,1004.64 L1079.78,1004.64 L1079.78,1036.89 L1083.58,1036.89 L1083.58,1022.64 L1090.23,1022.64 M1085.28,1046.94 L1085.28,1043.74 L1059.98,1043.74 L1059.98,1035.74 L1056.18,1035.74 L1056.18,1046.94 L1085.28,1046.94 M1068.63,1009.54 L1068.63,1006.19 L1056.03,1006.19 L1056.03,1009.54 L1068.63,1009.54 M1075.38,1015.99 L1075.38,1012.84 L1049.78,1012.84 L1049.78,1015.99 L1075.38,1015.99 M1072.88,1025.99 C1072.88,1021.29 1068.48,1018.34 1062.58,1018.34 C1056.73,1018.34 1052.33,1021.29 1052.33,1025.99 C1052.33,1030.59 1056.78,1033.64 1062.58,1033.64 C1068.48,1033.64 1072.88,1030.59 1072.88,1025.99 M1069.28,1025.99 C1069.28,1028.84 1066.13,1030.59 1062.58,1030.59 C1059.08,1030.59 1055.93,1028.84 1055.93,1025.99 C1055.93,1023.09 1059.08,1021.34 1062.58,1021.34 C1066.13,1021.34 1069.28,1023.09 1069.28,1025.99"/>
<path class="Lyrics" d="M1090.23,1082.62 L1090.23,1079.42 L1083.58,1079.42 L1083.58,1064.62 L1079.78,1064.62 L1079.78,1096.87 L1083.58,1096.87 L1083.58,1082.62 L1090.23,1082.62 M1085.28,1106.92 L1085.28,1103.72 L1059.98,1103.72 L1059.98,1095.72 L1056.18,1095.72 L1056.18,1106.92 L1085.28,1106.92 M1068.63,1069.52 L1068.63,1066.17 L1056.03,1066.17 L1056.03,1069.52 L1068.63,1069.52 M1075.38,1075.97 L1075.38,1072.82 L1049.78,1072.82 L1049.78,1075.97 L1075.38,1075.97 M1072.88,1085.97 C1072.88,1081.27 1068.48,1078.32 1062.58,1078.32 C1056.73,1078.32 1052.33,1081.27 1052.33,1085.97 C1052.33,1090.57 1056.78,1093.62 1062.58,1093.62 C1068.48,1093.62 1072.88,1090.57 1072.88,1085.97 M1069.28,1085.97 C1069.28,1088.82 1066.13,1090.57 1062.58,1090.57 C1059.08,1090.57 1055.93,1088.82 1055.93,1085.97 C1055.93,1083.07 1059.08,1081.32 1062.58,1081.32 C1066.13,1081.32 1069.28,1083.07 1069.28,1085.97"/>
<path class="Lyrics" d="M1087.24,1168.3 L1087.24,1124.6 L1083.44,1124.6 L1083.44,1168.3 L1087.24,1168.3 M1052.74,1143.3 C1052.74,1152.6 1056.84,1158.8 1063.99,1158.8 C1071.24,1158.8 1075.29,1152.6 1075.29,1143.35 C1075.29,1134.1 1071.24,1127.9 1063.99,1127.9 C1056.84,1127.9 1052.74,1134.1 1052.74,1143.3 M1071.69,1143.35 C1071.69,1150.5 1068.64,1155.5 1063.99,1155.5 C1059.39,1155.5 1056.34,1150.5 1056.34,1143.35 C1056.34,1136.15 1059.39,1131.2 1063.99,1131.2 C1068.64,1131.2 1071.69,1136.15 1071.69,1143.35"/>
<path class="Lyrics" d="M920.817,655.947 L917.067,655.947 L917.067,699.647 L920.817,699.647 L920.817,677.347 L927.467,677.347 L927.467,674.147 L920.817,674.147 L920.817,655.947 M899.167,660.747 L887.417,660.747 L887.417,663.947 L895.317,663.947 C895.217,671.147 891.667,681.547 885.167,687.397 L888.267,689.647 C895.567,681.897 899.167,671.747 899.167,660.747 M911.067,660.747 L901.167,660.747 L901.167,663.947 L907.317,663.947 C907.317,670.647 904.817,682.997 897.617,690.197 L900.817,692.347 C908.667,682.997 911.067,672.347 911.067,660.747"/>
<path class="Lyrics" d="M1931.98,686.397 C1925.98,683.147 1920.43,676.097 1920.43,667.947 L1920.43,663.497 L1930.63,663.497 L1930.63,660.347 L1906.28,660.347 L1906.28,663.497 L1916.48,663.497 L1916.48,667.997 C1916.48,676.247 1911.23,683.697 1904.83,687.447 L1907.18,690.247 C1912.23,686.997 1917.03,681.397 1918.48,675.947 C1919.98,681.097 1925.53,686.597 1929.63,689.247 L1931.98,686.397 M1937.03,655.947 L1937.03,699.647 L1940.83,699.647 L1940.83,655.947 L1937.03,655.947 "/>
<path class="Lyrics" d="M1941.76,639.662 L1941.76,595.962 L1938.01,595.962 L1938.01,614.112 L1933.16,614.112 L1933.16,597.012 L1929.46,597.012 L1929.46,637.412 L1933.16,637.412 L1933.16,617.312 L1938.01,617.312 L1938.01,639.662 L1941.76,639.662 M1925.61,601.212 L1917.16,601.212 L1917.16,604.412 L1921.81,604.412 L1921.81,605.462 C1921.81,612.612 1920.36,622.062 1914.06,629.662 L1917.26,631.762 C1924.31,622.362 1925.56,613.112 1925.61,601.212 M1915.51,601.212 L1905.91,601.212 L1905.91,604.412 L1911.71,604.412 C1911.71,610.262 1910.36,618.812 1903.91,626.012 C1904.86,626.712 1905.91,627.362 1906.91,628.062 C1913.31,620.512 1915.51,612.212 1915.51,601.212"/>
<path class="Lyrics" d="M1148.98,1040.19 C1148.98,1035.24 1143.43,1032.14 1134.08,1032.14 C1124.73,1032.14 1119.23,1035.24 1119.23,1040.19 C1119.23,1045.14 1124.73,1048.24 1134.08,1048.24 C1143.43,1048.24 1148.98,1045.14 1148.98,1040.19 M1148.58,1032.24 L1148.58,1004.64 L1144.78,1004.64 L1144.78,1016.19 L1139.33,1016.19 L1139.33,1005.44 L1135.63,1005.44 L1135.63,1030.09 L1139.33,1030.09 L1139.33,1019.39 L1144.78,1019.39 L1144.78,1032.24 L1148.58,1032.24 M1134.08,1035.34 C1140.78,1035.34 1144.93,1037.24 1144.93,1040.19 C1144.93,1043.19 1140.78,1045.09 1134.08,1045.09 C1127.43,1045.09 1123.23,1043.19 1123.23,1040.19 C1123.23,1037.24 1127.43,1035.34 1134.08,1035.34 M1133.83,1025.49 C1129.68,1023.69 1124.38,1019.24 1124.38,1012.54 L1124.38,1007.19 L1120.68,1007.19 L1120.68,1012.64 C1120.68,1019.19 1115.98,1024.49 1111.33,1026.99 L1113.68,1029.89 C1117.73,1027.54 1121.53,1022.84 1122.63,1019.29 C1124.13,1022.69 1127.88,1026.54 1131.78,1028.39 L1133.83,1025.49 "/>
<path class="Lyrics" d="M1147.51,1096.37 L1147.51,1064.62 L1143.71,1064.62 L1143.71,1096.37 L1147.51,1096.37 M1138.21,1086.42 C1133.01,1084.57 1127.11,1079.17 1127.11,1071.87 L1127.11,1067.12 L1123.26,1067.12 L1123.26,1071.97 C1123.26,1078.97 1117.61,1085.37 1111.86,1087.92 L1114.16,1090.92 C1118.91,1088.52 1123.96,1083.47 1125.26,1078.77 C1127.06,1083.37 1131.56,1087.52 1136.06,1089.47 L1138.21,1086.42 M1148.46,1106.97 L1148.46,1103.82 L1123.11,1103.82 L1123.11,1093.52 L1119.31,1093.52 L1119.31,1106.97 L1148.46,1106.97 "/>
<path class="Lyrics" d="M1130.9,1157.3 L1130.9,1129.1 L1110.45,1129.1 L1110.45,1157.3 L1130.9,1157.3 M1127.1,1154.15 L1114.25,1154.15 L1114.25,1132.25 L1127.1,1132.25 L1127.1,1154.15 M1149.85,1145.4 L1149.85,1142.2 L1142.7,1142.2 L1142.7,1124.6 L1138.9,1124.6 L1138.9,1168.3 L1142.7,1168.3 L1142.7,1145.4 L1149.85,1145.4 "/>
<path class="Lyrics" d="M460.774,668.847 L460.774,679.747 L451.924,679.747 L451.924,682.897 L460.774,682.897 L460.774,699.647 L464.574,699.647 L464.574,655.947 L460.774,655.947 L460.774,665.697 L451.924,665.697 L451.924,668.847 L460.774,668.847 M428.974,674.447 C428.974,683.747 432.874,689.897 439.774,689.897 C446.774,689.897 450.624,683.747 450.624,674.497 C450.624,665.197 446.774,658.997 439.774,658.997 C432.874,658.997 428.974,665.197 428.974,674.447 M446.874,674.497 C446.874,681.597 444.074,686.597 439.774,686.597 C435.574,686.597 432.724,681.597 432.724,674.497 C432.724,667.297 435.574,662.297 439.774,662.297 C444.074,662.297 446.874,667.297 446.874,674.497"/>
<path class="Lyrics" d="M1938.29,547.578 C1938.29,541.778 1932.44,537.828 1922.64,537.828 C1912.89,537.828 1906.99,541.778 1906.99,547.578 C1906.99,553.428 1912.89,557.378 1922.64,557.378 C1932.44,557.378 1938.29,553.378 1938.29,547.578 M1922.64,541.128 C1930.09,541.128 1934.59,543.578 1934.59,547.578 C1934.59,551.628 1930.09,554.078 1922.64,554.078 C1915.29,554.078 1910.79,551.628 1910.79,547.578 C1910.79,543.578 1915.29,541.128 1922.64,541.128 M1924.54,579.728 L1924.54,564.528 L1942.59,564.528 L1942.59,561.328 L1903.09,561.328 L1903.09,564.528 L1920.74,564.528 L1920.74,579.728 L1924.54,579.728 "/>
<path class="Lyrics" d="M1184.08,1030.94 L1184.08,1035.09 L1196.53,1035.09 L1196.53,1030.94 L1184.08,1030.94 "/>
<path class="Lyrics" d="M1184.08,1090.92 L1184.08,1095.07 L1196.53,1095.07 L1196.53,1090.92 L1184.08,1090.92 "/>
<path class="Lyrics" d="M1184.08,1150.9 L1184.08,1155.05 L1196.53,1155.05 L1196.53,1150.9 L1184.08,1150.9 "/>
<path class="Lyrics" d="M1907.41,1139.25 C1907.41,1132.05 1901.16,1127.35 1891.61,1127.35 C1882.21,1127.35 1875.91,1132.05 1875.91,1139.25 C1875.91,1145.95 1881.36,1150.45 1889.71,1151.05 L1889.71,1159.35 L1871.96,1159.35 L1871.96,1162.55 L1911.41,1162.55 L1911.41,1159.35 L1893.51,1159.35 L1893.51,1151.05 C1901.91,1150.5 1907.41,1145.95 1907.41,1139.25 M1903.76,1139.3 C1903.76,1144.55 1898.96,1148 1891.61,1148 C1884.36,1148 1879.61,1144.55 1879.61,1139.3 C1879.61,1134.05 1884.36,1130.55 1891.61,1130.55 C1899.01,1130.55 1903.76,1134.05 1903.76,1139.3"/>
<path class="Lyrics" d="M438.305,599.762 C431.955,599.762 428.705,605.962 428.705,614.712 C428.705,623.512 431.955,629.662 438.305,629.662 C444.305,629.662 447.505,624.312 447.905,616.412 L452.605,616.412 L452.605,637.562 L456.305,637.562 L456.305,596.812 L452.605,596.812 L452.605,613.262 L447.905,613.262 C447.605,605.312 444.355,599.762 438.305,599.762 M444.155,614.712 C444.155,621.812 441.855,626.312 438.305,626.312 C434.805,626.312 432.555,621.812 432.555,614.712 C432.555,607.662 434.805,603.112 438.305,603.112 C441.855,603.112 444.155,607.662 444.155,614.712 M464.855,639.662 L464.855,595.962 L461.105,595.962 L461.105,639.662 L464.855,639.662 "/>
<path class="Lyrics" d="M1692.34,687.697 L1692.34,655.947 L1688.54,655.947 L1688.54,687.697 L1692.34,687.697 M1683.04,677.747 C1677.84,675.897 1671.94,670.497 1671.94,663.197 L1671.94,658.447 L1668.09,658.447 L1668.09,663.297 C1668.09,670.297 1662.44,676.697 1656.69,679.247 L1658.99,682.247 C1663.74,679.847 1668.79,674.797 1670.09,670.097 C1671.89,674.697 1676.39,678.847 1680.89,680.797 L1683.04,677.747 M1693.29,698.297 L1693.29,695.147 L1667.94,695.147 L1667.94,684.847 L1664.14,684.847 L1664.14,698.297 L1693.29,698.297 "/>
<path class="Lyrics" d="M1267.51,1040.04 C1267.51,1034.89 1262.11,1031.64 1252.66,1031.64 C1243.11,1031.64 1237.76,1034.89 1237.76,1040.04 C1237.76,1045.14 1243.11,1048.34 1252.66,1048.34 C1262.11,1048.34 1267.51,1045.14 1267.51,1040.04 M1252.66,1034.89 C1259.56,1034.89 1263.61,1036.74 1263.61,1040.04 C1263.61,1043.29 1259.56,1045.14 1252.66,1045.14 C1245.76,1045.14 1241.71,1043.29 1241.71,1040.04 C1241.71,1036.74 1245.76,1034.89 1252.66,1034.89 M1255.51,1014.84 L1263.36,1014.84 L1263.36,1020.69 L1255.46,1020.69 L1255.46,1023.84 L1263.36,1023.84 L1263.36,1031.84 L1267.16,1031.84 L1267.16,1004.64 L1263.36,1004.64 L1263.36,1011.69 L1255.51,1011.69 L1255.51,1014.84 M1253.41,1027.99 L1253.41,1007.99 L1233.41,1007.99 L1233.41,1027.99 L1253.41,1027.99 M1249.56,1024.89 L1237.21,1024.89 L1237.21,1011.14 L1249.56,1011.14 L1249.56,1024.89 "/>
<path class="Lyrics" d="M1270.37,1079.27 L1270.37,1076.07 L1263.72,1076.07 L1263.72,1064.62 L1259.92,1064.62 L1259.92,1090.77 L1263.72,1090.77 L1263.72,1079.27 L1270.37,1079.27 M1264.07,1099.82 C1264.07,1094.87 1259.12,1091.42 1249.57,1091.42 C1240.07,1091.42 1235.17,1094.77 1235.17,1099.82 C1235.17,1104.82 1240.07,1108.22 1249.57,1108.22 C1259.12,1108.22 1264.07,1104.82 1264.07,1099.82 M1249.57,1094.57 C1256.17,1094.57 1260.17,1096.62 1260.17,1099.82 C1260.17,1103.07 1256.17,1105.07 1249.57,1105.07 C1242.97,1105.07 1239.07,1102.97 1239.07,1099.82 C1239.07,1096.67 1242.97,1094.57 1249.57,1094.57 M1241.92,1067.02 C1235.67,1067.02 1230.57,1071.22 1230.57,1077.57 C1230.57,1083.97 1235.67,1087.92 1241.92,1087.92 C1248.12,1087.92 1253.22,1083.97 1253.22,1077.52 C1253.22,1071.22 1248.12,1067.02 1241.92,1067.02 M1241.92,1070.12 C1246.52,1070.12 1249.57,1073.22 1249.57,1077.57 C1249.57,1081.87 1246.47,1084.82 1241.92,1084.82 C1237.52,1084.82 1234.27,1081.87 1234.27,1077.52 C1234.27,1073.22 1237.52,1070.12 1241.92,1070.12"/>
<path class="Lyrics" d="M1270.19,1148.9 L1270.19,1145.7 L1230.74,1145.7 L1230.74,1148.9 L1270.19,1148.9 M1265.39,1167.7 L1265.39,1153.45 L1235.59,1153.45 L1235.59,1167.7 L1265.39,1167.7 M1261.59,1164.55 L1239.39,1164.55 L1239.39,1156.55 L1261.59,1156.55 L1261.59,1164.55 M1265.74,1133.95 C1265.74,1129 1260.04,1125.75 1250.44,1125.75 C1240.89,1125.75 1235.24,1129 1235.24,1133.95 C1235.24,1138.9 1240.89,1142.15 1250.44,1142.15 C1260.04,1142.15 1265.74,1138.9 1265.74,1133.95 M1262.04,1133.95 C1262.04,1137.15 1257.44,1139.1 1250.44,1139.1 C1243.44,1139.1 1238.94,1137.15 1238.94,1133.95 C1238.94,1130.7 1243.44,1128.8 1250.44,1128.8 C1257.44,1128.8 1262.04,1130.7 1262.04,1133.95"/>
<path class="Lyrics" d="M447.236,540.978 L430.236,540.978 L430.236,544.178 L443.336,544.178 C443.236,546.628 442.886,548.978 442.236,551.278 L428.436,552.278 L429.286,555.728 L441.136,554.378 C438.836,559.728 434.686,564.428 428.136,567.978 L430.636,570.778 C441.886,563.878 447.236,554.378 447.236,540.978 M456.886,577.478 L456.886,537.028 L453.236,537.028 L453.236,552.978 L446.486,552.978 L446.486,556.128 L453.236,556.128 L453.236,577.478 L456.886,577.478 M465.386,579.678 L465.386,535.978 L461.636,535.978 L461.636,579.678 L465.386,579.678 "/>
<path class="Lyrics" d="M1909.8,1108.32 L1909.8,1064.62 L1905.95,1064.62 L1905.95,1108.32 L1909.8,1108.32 M1900.4,1094.92 C1894.35,1091.32 1889.05,1084.17 1889.05,1076.17 L1889.05,1068.42 L1885.2,1068.42 L1885.2,1076.32 C1885.2,1084.07 1879.95,1092.02 1873.55,1096.02 L1876.05,1098.87 C1881.1,1095.27 1885.6,1089.92 1887.2,1084.47 C1888.9,1089.72 1894.05,1095.12 1898,1097.82 L1900.4,1094.92 "/>
<path class="Lyrics" d="M1676.31,620.062 L1676.31,599.812 L1655.61,599.812 L1655.61,620.062 L1676.31,620.062 M1672.51,616.912 L1659.41,616.912 L1659.41,602.962 L1672.51,602.962 L1672.51,616.912 M1694.36,612.212 L1694.36,609.012 L1687.71,609.012 L1687.71,595.962 L1683.91,595.962 L1683.91,627.712 L1687.71,627.712 L1687.71,612.212 L1694.36,612.212 M1689.41,638.162 L1689.41,635.012 L1664.16,635.012 L1664.16,624.712 L1660.36,624.712 L1660.36,638.162 L1689.41,638.162 "/>
<path class="Lyrics" d="M1694.72,574.128 L1694.72,570.928 L1676.82,570.928 L1676.82,563.478 L1691.07,563.478 L1691.07,560.278 L1663.92,560.278 L1663.92,552.978 L1689.82,552.978 L1689.82,539.628 L1660.07,539.628 L1660.07,542.828 L1686.02,542.828 L1686.02,549.828 L1660.12,549.828 L1660.12,563.478 L1673.02,563.478 L1673.02,570.928 L1655.27,570.928 L1655.27,574.128 L1694.72,574.128 "/>
<path class="Lyrics" d="M1912.66,1025.49 L1912.66,1022.29 L1905.61,1022.29 L1905.61,1004.64 L1901.81,1004.64 L1901.81,1048.34 L1905.61,1048.34 L1905.61,1025.49 L1912.66,1025.49 M1897.66,1034.79 C1891.61,1031.24 1886.11,1024.09 1886.11,1016.14 L1886.11,1008.49 L1882.21,1008.49 L1882.21,1016.24 C1882.21,1023.99 1877.06,1031.84 1870.71,1035.74 L1873.16,1038.69 C1878.31,1035.09 1882.56,1029.54 1884.11,1024.09 C1885.86,1029.39 1890.76,1034.59 1895.26,1037.69 L1897.66,1034.79 "/>
<path class="Lyrics" d="M1374.48,1022.24 C1367.78,1021.49 1358.83,1017.04 1358.63,1010.89 L1372.68,1010.89 L1372.68,1007.74 L1340.48,1007.74 L1340.48,1010.89 L1354.63,1010.89 C1354.43,1016.99 1345.98,1021.59 1338.83,1022.34 L1340.58,1025.54 C1348.03,1024.29 1354.83,1019.79 1356.58,1015.69 C1358.58,1019.79 1365.53,1024.19 1372.68,1025.44 L1374.48,1022.24 M1358.43,1048.34 L1358.43,1032.69 L1376.33,1032.69 L1376.33,1029.49 L1336.88,1029.49 L1336.88,1032.69 L1354.63,1032.69 L1354.63,1048.34 L1358.43,1048.34 "/>
<path class="Lyrics" d="M1374.07,1108.32 L1374.07,1064.62 L1370.32,1064.62 L1370.32,1082.02 L1364.57,1082.02 L1364.57,1065.67 L1360.87,1065.67 L1360.87,1106.07 L1364.57,1106.07 L1364.57,1085.22 L1370.32,1085.22 L1370.32,1108.32 L1374.07,1108.32 M1357.92,1092.12 C1354.72,1092.97 1347.47,1093.57 1342.92,1093.47 L1342.92,1069.42 L1339.12,1069.42 L1339.12,1096.77 L1342.47,1096.77 C1348.02,1096.77 1354.72,1096.17 1358.37,1095.32 L1357.92,1092.12 "/>
<path class="Lyrics" d="M1376.96,1139.25 L1376.96,1136.1 L1370.31,1136.1 L1370.31,1124.6 L1366.51,1124.6 L1366.51,1149.85 L1370.31,1149.85 L1370.31,1139.25 L1376.96,1139.25 M1370.31,1167.7 L1370.31,1152.1 L1342.86,1152.1 L1342.86,1167.7 L1370.31,1167.7 M1366.51,1164.55 L1346.66,1164.55 L1346.66,1155.25 L1366.51,1155.25 L1366.51,1164.55 M1338.41,1127.95 L1338.41,1131.15 L1354.26,1131.15 C1353.21,1139.05 1344.86,1145.3 1336.26,1147.1 L1338.01,1150.25 C1349.16,1147.05 1357.91,1139.95 1358.56,1127.95 L1338.41,1127.95 "/>
<path class="Lyrics" d="M394.37,677.597 L394.37,674.397 L387.27,674.397 L387.27,655.947 L383.47,655.947 L383.47,699.647 L387.27,699.647 L387.27,677.597 L394.37,677.597 M372.82,662.197 L372.82,658.947 L359.97,658.947 L359.97,662.197 L372.82,662.197 M379.27,669.597 L379.27,666.447 L353.47,666.447 L353.47,669.597 L379.27,669.597 M376.67,681.447 C376.67,676.297 372.57,672.397 366.47,672.397 C360.37,672.397 356.27,676.347 356.27,681.447 C356.27,686.547 360.37,690.447 366.47,690.447 C372.57,690.447 376.67,686.497 376.67,681.447 M372.87,681.447 C372.87,684.847 370.22,687.297 366.47,687.297 C362.82,687.297 360.07,684.847 360.07,681.447 C360.07,677.997 362.82,675.597 366.47,675.597 C370.17,675.597 372.87,677.997 372.87,681.447"/>
<path class="Lyrics" d="M1038.69,535.978 L1034.89,535.978 L1034.89,579.678 L1038.69,579.678 L1038.69,556.528 L1045.79,556.528 L1045.79,553.328 L1038.69,553.328 L1038.69,535.978 M1010.54,565.728 L1010.54,543.728 L1027.44,543.728 L1027.44,540.528 L1006.69,540.528 L1006.69,568.978 L1010.99,568.978 C1018.59,568.978 1027.24,568.378 1031.94,567.478 L1031.54,564.328 C1027.34,565.228 1018.69,565.728 1013.04,565.728 L1010.54,565.728 "/>
<path class="Lyrics" d="M1410.53,1030.94 L1410.53,1035.09 L1422.98,1035.09 L1422.98,1030.94 L1410.53,1030.94 "/>
<path class="Lyrics" d="M1410.53,1090.92 L1410.53,1095.07 L1422.98,1095.07 L1422.98,1090.92 L1410.53,1090.92 "/>
<path class="Lyrics" d="M1410.53,1150.9 L1410.53,1155.05 L1422.98,1155.05 L1422.98,1150.9 L1410.53,1150.9 "/>
<path class="Lyrics" d="M1045.97,618.062 L1045.97,614.862 L1006.52,614.862 L1006.52,618.062 L1045.97,618.062 M1041.57,604.162 C1041.57,599.362 1035.77,596.562 1026.27,596.562 C1016.87,596.562 1011.07,599.362 1011.07,604.162 C1011.07,608.962 1016.87,611.712 1026.27,611.712 C1035.77,611.712 1041.57,608.962 1041.57,604.162 M1026.27,599.662 C1033.22,599.662 1037.72,601.412 1037.72,604.162 C1037.72,606.862 1033.22,608.562 1026.27,608.562 C1019.42,608.562 1014.97,606.862 1014.97,604.162 C1014.97,601.412 1019.42,599.662 1026.27,599.662 M1042.47,639.262 L1042.47,636.162 L1014.92,636.162 L1014.92,631.762 L1041.02,631.762 L1041.02,621.962 L1011.02,621.962 L1011.02,625.012 L1037.22,625.012 L1037.22,628.862 L1011.12,628.862 L1011.12,639.262 L1042.47,639.262 "/>
<path class="Lyrics" d="M378.886,616.112 C373.936,614.412 368.186,609.062 368.186,602.112 L368.186,598.062 L364.336,598.062 L364.336,602.262 C364.336,609.212 359.636,614.712 353.386,617.662 L355.486,620.612 C360.586,617.962 365.036,613.612 366.386,608.962 C368.136,613.362 372.436,617.112 376.636,619.162 L378.886,616.112 M388.386,631.262 C388.386,626.062 382.886,622.862 373.686,622.862 C364.536,622.862 359.086,626.062 359.086,631.262 C359.086,636.462 364.536,639.612 373.686,639.612 C382.886,639.612 388.386,636.462 388.386,631.262 M373.686,626.012 C380.336,626.012 384.486,627.912 384.486,631.262 C384.486,634.612 380.336,636.462 373.686,636.462 C367.086,636.462 362.986,634.612 362.986,631.262 C362.986,627.912 367.086,626.012 373.686,626.012 M394.436,611.012 L394.436,607.812 L387.786,607.812 L387.786,595.962 L383.986,595.962 L383.986,622.912 L387.786,622.912 L387.786,611.012 L394.436,611.012 "/>
<path class="Lyrics" d="M1035.38,686.397 C1029.38,683.147 1023.83,676.097 1023.83,667.947 L1023.83,663.497 L1034.03,663.497 L1034.03,660.347 L1009.68,660.347 L1009.68,663.497 L1019.88,663.497 L1019.88,667.997 C1019.88,676.247 1014.63,683.697 1008.23,687.447 L1010.58,690.247 C1015.63,686.997 1020.43,681.397 1021.88,675.947 C1023.38,681.097 1028.93,686.597 1033.03,689.247 L1035.38,686.397 M1040.43,655.947 L1040.43,699.647 L1044.23,699.647 L1044.23,655.947 L1040.43,655.947 "/>
<path class="Lyrics" d="M1496.64,1030.39 L1496.64,1027.19 L1457.19,1027.19 L1457.19,1030.39 L1496.64,1030.39 M1492.44,1047.39 L1492.44,1044.24 L1466.14,1044.24 L1466.14,1034.49 L1462.34,1034.49 L1462.34,1047.39 L1492.44,1047.39 M1492.24,1021.74 L1492.24,1018.59 L1466.29,1018.59 L1466.29,1006.49 L1462.49,1006.49 L1462.49,1021.74 L1492.24,1021.74 "/>
<path class="Lyrics" d="M1495.57,1108.32 L1495.57,1064.62 L1491.82,1064.62 L1491.82,1108.32 L1495.57,1108.32 M1487.07,1106.12 L1487.07,1065.67 L1483.42,1065.67 L1483.42,1081.62 L1476.07,1081.62 L1476.07,1084.82 L1483.42,1084.82 L1483.42,1106.12 L1487.07,1106.12 M1477.17,1069.72 L1459.97,1069.72 L1459.97,1072.92 L1473.27,1072.92 C1472.82,1081.82 1467.42,1091.02 1458.27,1096.17 L1460.87,1098.97 C1471.17,1092.32 1476.87,1082.72 1477.17,1069.72"/>
<path class="Lyrics" d="M1491.94,1160.65 C1491.94,1155.7 1486.49,1153.05 1476.89,1153.05 C1467.34,1153.05 1461.94,1155.9 1461.94,1160.65 C1461.94,1165.5 1467.34,1168.3 1476.89,1168.3 C1486.49,1168.3 1491.94,1165.55 1491.94,1160.65 M1491.89,1141.15 L1491.89,1138 L1465.84,1138 L1465.84,1129.85 L1491.69,1129.85 L1491.69,1126.7 L1461.99,1126.7 L1461.99,1141.15 L1474.99,1141.15 L1474.99,1146.7 L1457.19,1146.7 L1457.19,1149.85 L1496.64,1149.85 L1496.64,1146.7 L1478.79,1146.7 L1478.79,1141.15 L1491.89,1141.15 M1476.89,1156.15 C1483.84,1156.15 1488.04,1157.85 1488.04,1160.65 C1488.04,1163.55 1483.84,1165.15 1476.89,1165.15 C1470.04,1165.15 1465.84,1163.55 1465.84,1160.65 C1465.84,1157.85 1470.04,1156.15 1476.89,1156.15"/>
<path class="Lyrics" d="M389.261,579.428 L389.261,576.378 L363.661,576.378 L363.661,571.678 L387.661,571.678 L387.661,561.778 L359.811,561.778 L359.811,564.828 L383.861,564.828 L383.861,568.778 L359.861,568.778 L359.861,579.428 L389.261,579.428 M379.511,556.228 C374.461,555.178 369.011,551.428 368.411,546.628 L378.261,546.628 L378.261,543.528 L354.511,543.528 L354.511,546.628 L364.461,546.628 C363.961,551.628 358.911,555.928 353.511,557.478 L355.661,560.378 C360.711,558.528 365.061,555.028 366.511,551.078 C368.511,554.978 372.861,557.778 377.561,559.278 L379.511,556.228 M394.311,549.828 L394.311,546.628 L387.661,546.628 L387.661,535.978 L383.861,535.978 L383.861,559.478 L387.661,559.478 L387.661,549.828 L394.311,549.828 M372.311,539.728 L372.311,536.628 L360.461,536.628 L360.461,539.728 L372.311,539.728 "/>
<path class="Lyrics" d="M1572.95,673.547 C1566.25,672.797 1557.3,668.347 1557.1,662.197 L1571.15,662.197 L1571.15,659.047 L1538.95,659.047 L1538.95,662.197 L1553.1,662.197 C1552.9,668.297 1544.45,672.897 1537.3,673.647 L1539.05,676.847 C1546.5,675.597 1553.3,671.097 1555.05,666.997 C1557.05,671.097 1564,675.497 1571.15,676.747 L1572.95,673.547 M1556.9,699.647 L1556.9,683.997 L1574.8,683.997 L1574.8,680.797 L1535.35,680.797 L1535.35,683.997 L1553.1,683.997 L1553.1,699.647 L1556.9,699.647 "/>
<path class="Lyrics" d="M1574.8,634.112 L1574.8,630.912 L1556.9,630.912 L1556.9,623.462 L1571.15,623.462 L1571.15,620.262 L1544,620.262 L1544,612.962 L1569.9,612.962 L1569.9,599.612 L1540.15,599.612 L1540.15,602.812 L1566.1,602.812 L1566.1,609.812 L1540.2,609.812 L1540.2,623.462 L1553.1,623.462 L1553.1,630.912 L1535.35,630.912 L1535.35,634.112 L1574.8,634.112 "/>
<path class="Lyrics" d="M1554.42,1036.39 L1554.42,1004.64 L1550.62,1004.64 L1550.62,1036.39 L1554.42,1036.39 M1545.12,1026.44 C1539.92,1024.59 1534.02,1019.19 1534.02,1011.89 L1534.02,1007.14 L1530.17,1007.14 L1530.17,1011.99 C1530.17,1018.99 1524.52,1025.39 1518.77,1027.94 L1521.07,1030.94 C1525.82,1028.54 1530.87,1023.49 1532.17,1018.79 C1533.97,1023.39 1538.47,1027.54 1542.97,1029.49 L1545.12,1026.44 M1555.37,1046.99 L1555.37,1043.84 L1530.02,1043.84 L1530.02,1033.54 L1526.22,1033.54 L1526.22,1046.99 L1555.37,1046.99 "/>
<path class="Lyrics" d="M1554.54,1108.32 L1554.54,1064.62 L1550.79,1064.62 L1550.79,1082.02 L1545.04,1082.02 L1545.04,1065.67 L1541.34,1065.67 L1541.34,1106.07 L1545.04,1106.07 L1545.04,1085.22 L1550.79,1085.22 L1550.79,1108.32 L1554.54,1108.32 M1538.39,1092.12 C1535.19,1092.97 1527.94,1093.57 1523.39,1093.47 L1523.39,1069.42 L1519.59,1069.42 L1519.59,1096.77 L1522.94,1096.77 C1528.49,1096.77 1535.19,1096.17 1538.84,1095.32 L1538.39,1092.12 "/>
<path class="Lyrics" d="M1548.3,1158.05 L1547.95,1155 C1545.15,1155.4 1540.05,1155.75 1535.2,1155.95 L1535.2,1146.8 L1545.15,1146.8 L1545.15,1143.65 L1526.1,1143.65 L1526.1,1132.15 L1545,1132.15 L1545,1129 L1522.3,1129 L1522.3,1146.8 L1531.4,1146.8 L1531.4,1156.1 C1526.8,1156.25 1522.4,1156.3 1519.05,1156.3 L1519.7,1159.65 C1522.55,1159.65 1529.15,1159.45 1534,1159.2 C1539.35,1158.9 1544.85,1158.5 1548.3,1158.05 M1555.1,1168.3 L1555.1,1124.6 L1551.35,1124.6 L1551.35,1168.3 L1555.1,1168.3 "/>
<path class="Lyrics" d="M1573.65,579.428 L1573.65,576.428 L1548,576.428 L1548,572.478 L1572.2,572.478 L1572.2,563.078 L1544.05,563.078 L1544.05,566.078 L1568.4,566.078 L1568.4,569.528 L1544.2,569.528 L1544.2,579.428 L1573.65,579.428 M1561.2,549.028 L1568.35,549.028 L1568.35,553.528 L1561.2,553.528 L1561.2,556.528 L1568.35,556.528 L1568.35,560.578 L1572.15,560.578 L1572.15,535.978 L1568.35,535.978 L1568.35,545.978 L1561.2,545.978 L1561.2,549.028 M1560.75,545.528 L1560.75,542.428 L1536.5,542.428 L1536.5,545.528 L1560.75,545.528 M1558.95,553.828 C1558.95,549.628 1554.55,547.278 1548.85,547.278 C1543.1,547.278 1538.75,549.628 1538.75,553.828 C1538.75,558.178 1543.2,560.478 1548.85,560.478 C1554.7,560.478 1558.95,558.178 1558.95,553.828 M1555.2,553.828 C1555.2,556.228 1552.15,557.478 1548.85,557.478 C1545.5,557.478 1542.55,556.228 1542.55,553.828 C1542.55,551.428 1545.45,550.278 1548.85,550.278 C1552.15,550.278 1555.2,551.428 1555.2,553.828 M1542.75,539.678 L1555.3,539.678 L1555.3,536.528 L1542.75,536.528 L1542.75,539.678 "/>
<path class="Lyrics" d="M1502.28,676.747 L1502.28,673.547 L1495.13,673.547 L1495.13,655.947 L1491.33,655.947 L1491.33,699.647 L1495.13,699.647 L1495.13,676.747 L1502.28,676.747 M1462.13,674.647 C1462.13,683.947 1466.23,690.147 1473.33,690.147 C1480.43,690.147 1484.48,683.947 1484.48,674.697 C1484.48,665.447 1480.43,659.247 1473.33,659.247 C1466.23,659.247 1462.13,665.447 1462.13,674.647 M1480.78,674.697 C1480.78,681.847 1477.88,686.847 1473.33,686.847 C1468.78,686.847 1465.83,681.847 1465.83,674.697 C1465.83,667.497 1468.78,662.547 1473.33,662.547 C1477.88,662.547 1480.78,667.497 1480.78,674.697"/>
<path class="Lyrics" d="M1590.99,1030.94 L1590.99,1035.09 L1603.44,1035.09 L1603.44,1030.94 L1590.99,1030.94 "/>
<path class="Lyrics" d="M1590.99,1090.92 L1590.99,1095.07 L1603.44,1095.07 L1603.44,1090.92 L1590.99,1090.92 "/>
<path class="Lyrics" d="M1590.99,1150.9 L1590.99,1155.05 L1603.44,1155.05 L1603.44,1150.9 L1590.99,1150.9 "/>
<path class="Lyrics" d="M1501.93,633.662 L1501.93,630.462 L1462.48,630.462 L1462.48,633.662 L1501.93,633.662 M1498.08,610.812 C1498.08,604.162 1491.78,599.762 1482.13,599.762 C1472.63,599.762 1466.28,604.162 1466.28,610.812 C1466.28,617.512 1472.63,621.862 1482.13,621.862 C1491.73,621.862 1498.08,617.512 1498.08,610.812 M1494.28,610.862 C1494.28,615.512 1489.43,618.612 1482.13,618.612 C1474.88,618.612 1470.08,615.512 1470.08,610.862 C1470.08,606.112 1474.88,602.962 1482.13,602.962 C1489.48,602.962 1494.28,606.112 1494.28,610.862"/>
<path class="Lyrics" d="M1496.3,549.178 L1496.3,563.128 L1500.1,563.128 L1500.1,535.978 L1496.3,535.978 L1496.3,546.028 L1486.9,546.028 L1486.9,549.178 L1496.3,549.178 M1500.55,571.378 C1500.55,566.278 1495.3,563.128 1485.9,563.128 C1476.55,563.128 1471.3,566.278 1471.3,571.378 C1471.3,576.478 1476.55,579.628 1485.9,579.628 C1495.3,579.628 1500.55,576.478 1500.55,571.378 M1485.9,566.228 C1492.7,566.228 1496.7,568.128 1496.7,571.378 C1496.7,574.678 1492.7,576.528 1485.9,576.528 C1479.2,576.528 1475.15,574.678 1475.15,571.378 C1475.15,568.128 1479.2,566.228 1485.9,566.228 M1489.25,556.778 C1484.3,554.978 1478.55,549.728 1478.55,542.728 L1478.55,538.478 L1474.7,538.478 L1474.7,542.828 C1474.7,549.778 1470.15,555.378 1463.85,558.278 L1466.2,561.228 C1471.25,558.678 1475.4,554.078 1476.75,549.578 C1478.45,553.928 1482.8,557.728 1487,559.728 L1489.25,556.778 "/>
<path class="Lyrics" d="M1412.13,550.228 L1412.13,547.028 L1391.38,547.028 L1391.38,550.228 L1399.78,550.228 L1399.78,551.778 C1399.78,559.928 1395.53,565.378 1390.53,568.428 L1392.68,571.028 C1396.83,568.478 1400.73,563.778 1401.73,559.178 C1402.98,563.728 1407.08,567.878 1410.68,569.878 L1412.93,567.078 C1408.48,564.778 1403.68,559.878 1403.68,551.678 L1403.68,550.228 L1412.13,550.228 M1415.63,558.078 L1415.63,577.478 L1419.33,577.478 L1419.33,537.028 L1415.63,537.028 L1415.63,554.928 L1408.68,554.928 L1408.68,558.078 L1415.63,558.078 M1428.13,579.678 L1428.13,535.978 L1424.38,535.978 L1424.38,579.678 L1428.13,579.678 M1396.03,542.828 L1407.58,542.828 L1407.58,539.428 L1396.03,539.428 L1396.03,542.828 "/>
<path class="Lyrics" d="M1674.14,1048.34 L1674.14,1004.64 L1670.34,1004.64 L1670.34,1048.34 L1674.14,1048.34 M1661.24,1037.49 L1661.24,1008.34 L1657.44,1008.34 L1657.44,1019.54 L1644.34,1019.54 L1644.34,1008.34 L1640.59,1008.34 L1640.59,1037.49 L1661.24,1037.49 M1657.44,1034.29 L1644.34,1034.29 L1644.34,1022.69 L1657.44,1022.69 L1657.44,1034.29 "/>
<path class="Lyrics" d="M1661.82,1093.52 C1656.32,1094.47 1649.32,1094.72 1644.07,1094.72 L1644.07,1084.07 L1659.57,1084.07 L1659.57,1068.67 L1640.27,1068.67 L1640.27,1071.82 L1655.77,1071.82 L1655.77,1080.87 L1640.27,1080.87 L1640.27,1097.97 L1643.82,1097.97 C1651.17,1097.97 1657.67,1097.42 1662.27,1096.67 L1661.82,1093.52 M1662.47,1090.22 L1670.67,1090.22 L1670.67,1108.32 L1674.47,1108.32 L1674.47,1064.62 L1670.67,1064.62 L1670.67,1075.37 L1662.47,1075.37 L1662.47,1078.57 L1670.67,1078.57 L1670.67,1087.02 L1662.47,1087.02 L1662.47,1090.22 "/>
<path class="Lyrics" d="M1639.81,1143.1 C1639.81,1152.4 1643.81,1158.55 1650.86,1158.55 C1657.51,1158.55 1661.41,1153.05 1661.81,1144.65 L1671.16,1144.65 L1671.16,1168.3 L1674.96,1168.3 L1674.96,1124.6 L1671.16,1124.6 L1671.16,1141.4 L1661.81,1141.4 C1661.31,1133.1 1657.46,1127.65 1650.86,1127.65 C1643.81,1127.65 1639.81,1133.85 1639.81,1143.1 M1658.11,1143.15 C1658.11,1150.25 1655.16,1155.25 1650.86,1155.25 C1646.51,1155.25 1643.61,1150.25 1643.61,1143.15 C1643.61,1135.95 1646.51,1130.95 1650.86,1130.95 C1655.16,1130.95 1658.11,1135.95 1658.11,1143.15"/>
<path class="Lyrics" d="M272.346,667.497 C272.346,661.947 267.646,658.097 260.896,658.097 C254.096,658.097 249.396,661.947 249.396,667.497 C249.396,672.947 254.096,676.797 260.896,676.797 C267.596,676.797 272.346,672.947 272.346,667.497 M282.846,699.647 L282.846,655.947 L278.996,655.947 L278.996,699.647 L282.846,699.647 M268.646,667.497 C268.646,671.397 265.246,673.597 260.896,673.597 C256.496,673.597 253.046,671.397 253.046,667.497 C253.046,663.547 256.496,661.297 260.896,661.297 C265.246,661.297 268.646,663.547 268.646,667.497 M262.596,698.347 L262.596,683.147 C267.596,682.897 273.246,682.547 276.546,682.097 L276.396,679.147 C272.146,679.597 266.596,679.947 261.146,680.097 C256.296,680.297 251.546,680.247 246.346,680.247 L246.946,683.647 C250.796,683.597 254.696,683.547 258.796,683.347 L258.796,698.347 L262.596,698.347 "/>
<path class="Lyrics" d="M282.475,632.062 C282.475,627.412 277.425,624.512 267.925,624.512 C258.425,624.512 253.525,627.362 253.525,632.062 C253.525,636.712 258.425,639.562 267.925,639.562 C277.425,639.562 282.475,636.712 282.475,632.062 M267.925,627.612 C274.575,627.612 278.525,629.262 278.525,632.062 C278.525,634.912 274.575,636.462 267.925,636.462 C261.325,636.462 257.475,634.862 257.475,632.062 C257.475,629.312 261.325,627.612 267.925,627.612 M282.275,624.512 L282.275,595.962 L278.475,595.962 L278.475,607.362 L270.775,607.362 L270.775,610.462 L278.475,610.462 L278.475,615.462 L270.775,615.462 L270.775,618.612 L278.475,618.612 L278.475,624.512 L282.275,624.512 M265.325,600.062 L265.325,596.812 L252.825,596.812 L252.825,600.062 L265.325,600.062 M271.125,606.262 L271.125,603.212 L246.725,603.212 L246.725,606.262 L271.125,606.262 M269.325,615.762 C269.325,611.262 265.025,608.512 259.225,608.512 C253.525,608.512 249.225,611.262 249.225,615.762 C249.225,620.212 253.575,623.012 259.225,623.012 C265.025,623.012 269.325,620.162 269.325,615.762 M265.525,615.762 C265.525,618.462 262.675,619.962 259.225,619.962 C255.925,619.962 252.975,618.462 252.975,615.762 C252.975,613.062 255.875,611.562 259.225,611.562 C262.675,611.562 265.525,613.062 265.525,615.762"/>
<path class="Lyrics" d="M281.037,543.478 L281.037,540.428 L248.237,540.428 L248.237,543.478 L262.637,543.478 L262.637,544.378 C262.637,551.378 253.387,557.678 246.487,558.878 L248.287,562.078 C255.537,560.228 262.787,554.878 264.587,549.928 C266.687,554.728 273.887,560.178 280.887,562.178 L282.837,558.978 C276.287,557.678 266.637,551.278 266.637,544.378 L266.637,543.478 L281.037,543.478 M284.337,574.128 L284.337,570.928 L266.437,570.928 L266.437,560.028 L262.637,560.028 L262.637,570.928 L244.887,570.928 L244.887,574.128 L284.337,574.128 "/>
<path class="Lyrics" d="M1424.41,699.047 L1424.41,695.897 L1398.46,695.897 L1398.46,687.847 L1424.01,687.847 L1424.01,684.647 L1394.66,684.647 L1394.66,699.047 L1424.41,699.047 M1429.06,680.447 L1429.06,677.247 L1411.16,677.247 L1411.16,672.197 L1407.36,672.197 L1407.36,677.247 L1389.61,677.247 L1389.61,680.447 L1429.06,680.447 M1428.01,668.597 C1423.71,667.197 1420.26,663.547 1420.26,658.847 L1420.26,656.647 L1416.66,656.647 L1416.66,658.847 C1416.66,663.597 1413.81,667.347 1409.41,669.047 L1411.61,671.747 C1414.76,670.347 1417.66,667.297 1418.51,664.647 C1419.56,667.347 1423.21,670.347 1425.86,671.447 L1428.01,668.597 M1408.86,668.097 C1404.71,666.547 1402.61,663.347 1402.61,659.047 L1402.61,657.047 L1399.01,657.047 L1399.01,658.947 C1399.01,663.497 1395.66,667.847 1390.61,669.547 L1392.81,672.297 C1396.56,670.797 1399.66,667.397 1400.66,664.897 C1401.46,666.947 1404.11,669.747 1406.66,670.897 L1408.86,668.097 "/>
<path class="Lyrics" d="M1429.06,620.262 L1429.06,617.062 L1389.61,617.062 L1389.61,620.262 L1429.06,620.262 M1424.26,639.062 L1424.26,624.812 L1394.46,624.812 L1394.46,639.062 L1424.26,639.062 M1420.46,635.912 L1398.26,635.912 L1398.26,627.912 L1420.46,627.912 L1420.46,635.912 M1424.61,605.312 C1424.61,600.362 1418.91,597.112 1409.31,597.112 C1399.76,597.112 1394.11,600.362 1394.11,605.312 C1394.11,610.262 1399.76,613.512 1409.31,613.512 C1418.91,613.512 1424.61,610.262 1424.61,605.312 M1420.91,605.312 C1420.91,608.512 1416.31,610.462 1409.31,610.462 C1402.31,610.462 1397.81,608.512 1397.81,605.312 C1397.81,602.062 1402.31,600.162 1409.31,600.162 C1416.31,600.162 1420.91,602.062 1420.91,605.312"/>
<path class="Lyrics" d="M1797.53,1022.64 L1797.53,1019.44 L1790.88,1019.44 L1790.88,1004.64 L1787.08,1004.64 L1787.08,1036.89 L1790.88,1036.89 L1790.88,1022.64 L1797.53,1022.64 M1792.58,1046.94 L1792.58,1043.74 L1767.28,1043.74 L1767.28,1035.74 L1763.48,1035.74 L1763.48,1046.94 L1792.58,1046.94 M1775.93,1009.54 L1775.93,1006.19 L1763.33,1006.19 L1763.33,1009.54 L1775.93,1009.54 M1782.68,1015.99 L1782.68,1012.84 L1757.08,1012.84 L1757.08,1015.99 L1782.68,1015.99 M1780.18,1025.99 C1780.18,1021.29 1775.78,1018.34 1769.88,1018.34 C1764.03,1018.34 1759.63,1021.29 1759.63,1025.99 C1759.63,1030.59 1764.08,1033.64 1769.88,1033.64 C1775.78,1033.64 1780.18,1030.59 1780.18,1025.99 M1776.58,1025.99 C1776.58,1028.84 1773.43,1030.59 1769.88,1030.59 C1766.38,1030.59 1763.23,1028.84 1763.23,1025.99 C1763.23,1023.09 1766.38,1021.34 1769.88,1021.34 C1773.43,1021.34 1776.58,1023.09 1776.58,1025.99"/>
<path class="Lyrics" d="M1795.17,1082.22 C1788.47,1081.47 1779.52,1077.02 1779.32,1070.87 L1793.37,1070.87 L1793.37,1067.72 L1761.17,1067.72 L1761.17,1070.87 L1775.32,1070.87 C1775.12,1076.97 1766.67,1081.57 1759.52,1082.32 L1761.27,1085.52 C1768.72,1084.27 1775.52,1079.77 1777.27,1075.67 C1779.27,1079.77 1786.22,1084.17 1793.37,1085.42 L1795.17,1082.22 M1779.12,1108.32 L1779.12,1092.67 L1797.02,1092.67 L1797.02,1089.47 L1757.57,1089.47 L1757.57,1092.67 L1775.32,1092.67 L1775.32,1108.32 L1779.12,1108.32 "/>
<path class="Lyrics" d="M1794.07,1168.3 L1794.07,1124.6 L1790.27,1124.6 L1790.27,1168.3 L1794.07,1168.3 M1781.17,1157.45 L1781.17,1128.3 L1777.37,1128.3 L1777.37,1139.5 L1764.27,1139.5 L1764.27,1128.3 L1760.52,1128.3 L1760.52,1157.45 L1781.17,1157.45 M1777.37,1154.25 L1764.27,1154.25 L1764.27,1142.65 L1777.37,1142.65 L1777.37,1154.25 "/>
<path class="NoteDot" transform="matrix(0.992,0,0,0.992,1805.8,916.841)" d="M0,0 C0,2.8 2.2,5 5,5 C7.8,5 10,2.8 10,0 C10,-2.8 7.8,-5 5,-5 C2.2,-5 0,-2.8 0,0"/>
<path class="NoteDot" transform="matrix(0.992,0,0,0.992,1299.28,472.998)" d="M0,0 C0,2.8 2.2,5 5,5 C7.8,5 10,2.8 10,0 C10,-2.8 7.8,-5 5,-5 C2.2,-5 0,-2.8 0,0"/>
<path class="NoteDot" transform="matrix(0.992,0,0,0.992,1920.18,941.641)" d="M0,0 C0,2.8 2.2,5 5,5 C7.8,5 10,2.8 10,0 C10,-2.8 7.8,-5 5,-5 C2.2,-5 0,-2.8 0,0"/>
<path class="NoteDot" transform="matrix(0.992,0,0,0.992,1703.49,448.198)" d="M0,0 C0,2.8 2.2,5 5,5 C7.8,5 10,2.8 10,0 C10,-2.8 7.8,-5 5,-5 C2.2,-5 0,-2.8 0,0"/>
<path class="NoteDot" transform="matrix(0.992,0,0,0.992,475.277,472.998)" d="M0,0 C0,2.8 2.2,5 5,5 C7.8,5 10,2.8 10,0 C10,-2.8 7.8,-5 5,-5 C2.2,-5 0,-2.8 0,0"/>
<path class="NoteDot" transform="matrix(0.992,0,0,0.992,1054.75,497.798)" d="M0,0 C0,2.8 2.2,5 5,5 C7.8,5 10,2.8 10,0 C10,-2.8 7.8,-5 5,-5 C2.2,-5 0,-2.8 0,0"/>
<path class="NoteDot" transform="matrix(0.992,0,0,0.992,650.537,472.998)" d="M0,0 C0,2.8 2.2,5 5,5 C7.8,5 10,2.8 10,0 C10,-2.8 7.8,-5 5,-5 C2.2,-5 0,-2.8 0,0"/>
<path class="NoteDot" transform="matrix(0.992,0,0,0.992,683.732,916.841)" d="M0,0 C0,2.8 2.2,5 5,5 C7.8,5 10,2.8 10,0 C10,-2.8 7.8,-5 5,-5 C2.2,-5 0,-2.8 0,0"/>
</svg>
