<?xml version="1.0" encoding="UTF-8" standalone="no"?>
<svg width="2098.8px" height="1418.4px" viewBox="0 0 2098.8 1418.4"
 xmlns="http://www.w3.org/2000/svg" xmlns:xlink="http://www.w3.org/1999/xlink" version="1.2" baseProfile="tiny">
<title>218주여당신종이여기.musicxml (3)</title>
<desc>Generated by MuseScore 4.2.1</desc>
<polyline class="StaffLines" fill="none" stroke="#000000" stroke-width="2.73" stroke-linejoin="bevel" points="86.4,260 2012.4,260"/>
<polyline class="StaffLines" fill="none" stroke="#000000" stroke-width="2.73" stroke-linejoin="bevel" points="86.4,284.8 2012.4,284.8"/>
<polyline class="StaffLines" fill="none" stroke="#000000" stroke-width="2.73" stroke-linejoin="bevel" points="86.4,309.6 2012.4,309.6"/>
<polyline class="StaffLines" fill="none" stroke="#000000" stroke-width="2.73" stroke-linejoin="bevel" points="86.4,334.4 2012.4,334.4"/>
<polyline class="StaffLines" fill="none" stroke="#000000" stroke-width="2.73" stroke-linejoin="bevel" points="86.4,359.2 2012.4,359.2"/>
<polyline class="StaffLines" fill="none" stroke="#000000" stroke-width="2.73" stroke-linejoin="bevel" points="86.4,650.6 2012.4,650.6"/>
<polyline class="StaffLines" fill="none" stroke="#000000" stroke-width="2.73" stroke-linejoin="bevel" points="86.4,675.4 2012.4,675.4"/>
<polyline class="StaffLines" fill="none" stroke="#000000" stroke-width="2.73" stroke-linejoin="bevel" points="86.4,700.2 2012.4,700.2"/>
<polyline class="StaffLines" fill="none" stroke="#000000" stroke-width="2.73" stroke-linejoin="bevel" points="86.4,725 2012.4,725"/>
<polyline class="StaffLines" fill="none" stroke="#000000" stroke-width="2.73" stroke-linejoin="bevel" points="86.4,749.8 2012.4,749.8"/>
<polyline class="StaffLines" fill="none" stroke="#000000" stroke-width="2.73" stroke-linejoin="bevel" points="86.4,1041.2 2012.4,1041.2"/>
<polyline class="StaffLines" fill="none" stroke="#000000" stroke-width="2.73" stroke-linejoin="bevel" points="86.4,1066 2012.4,1066"/>
<polyline class="StaffLines" fill="none" stroke="#000000" stroke-width="2.73" stroke-linejoin="bevel" points="86.4,1090.8 2012.4,1090.8"/>
<polyline class="StaffLines" fill="none" stroke="#000000" stroke-width="2.73" stroke-linejoin="bevel" points="86.4,1115.6 2012.4,1115.6"/>
<polyline class="StaffLines" fill="none" stroke="#000000" stroke-width="2.73" stroke-linejoin="bevel" points="86.4,1140.4 2012.4,1140.4"/>
<path class="MeasureNumber" d="M105.191,202.12 L104.151,203.96 C102.551,206.72 102.231,206.96 100.191,207 L90.9106,207 C91.8706,205.72 93.6306,204.24 96.8306,202 C102.111,198.36 102.471,198.12 103.591,197.24 C106.791,194.76 108.111,192.4 108.111,189.24 C108.111,185.04 104.991,182.24 100.391,182.24 C95.2706,182.24 90.8306,186 90.8306,190.36 C90.8306,192.6 92.0306,194.04 93.9506,194.04 C95.3906,194.04 96.5106,192.96 96.5106,191.48 C96.5106,190.44 95.9906,189.76 94.6706,189.04 C93.7106,188.56 93.5506,188.36 93.5506,187.88 C93.5506,186.16 96.5106,184.24 99.2306,184.24 C102.031,184.24 103.911,186.12 103.911,188.92 C103.911,191.92 102.591,194.12 98.9906,197.24 C88.3506,206.48 86.7506,208.16 86.3906,210.4 L103.551,210.4 L106.631,202.68 L105.191,202.12 M127.425,202.12 L126.385,203.96 C124.785,206.72 124.465,206.96 122.425,207 L113.145,207 C114.105,205.72 115.865,204.24 119.065,202 C124.345,198.36 124.705,198.12 125.825,197.24 C129.025,194.76 130.345,192.4 130.345,189.24 C130.345,185.04 127.225,182.24 122.625,182.24 C117.505,182.24 113.065,186 113.065,190.36 C113.065,192.6 114.265,194.04 116.185,194.04 C117.625,194.04 118.745,192.96 118.745,191.48 C118.745,190.44 118.225,189.76 116.905,189.04 C115.945,188.56 115.785,188.36 115.785,187.88 C115.785,186.16 118.745,184.24 121.465,184.24 C124.265,184.24 126.145,186.12 126.145,188.92 C126.145,191.92 124.825,194.12 121.225,197.24 C110.585,206.48 108.985,208.16 108.625,210.4 L125.785,210.4 L128.865,202.68 L127.425,202.12 "/>
<path class="MeasureNumber" d="M100.078,977.04 C101.958,976.44 102.718,976.12 103.678,975.48 C105.558,974.24 106.718,972.04 106.718,969.8 C106.718,966 103.678,963.44 99.1981,963.44 C94.8381,963.44 91.1581,966.16 91.1581,969.44 C91.1581,971.08 92.1581,972.2 93.6781,972.2 C94.9981,972.2 95.9581,971.24 95.9581,969.92 C95.9581,969.24 95.7581,968.76 95.1181,968.12 C94.7181,967.76 94.5581,967.48 94.5581,967.2 C94.5581,966.24 96.5581,965.24 98.4381,965.24 C101.118,965.24 102.718,966.72 102.718,969.2 C102.718,972.76 100.198,976.12 97.5181,976.12 C97.3981,976.12 97.0381,976.08 96.5981,976.04 C95.4381,975.96 95.4381,975.96 95.1981,975.96 C94.3181,975.96 93.8381,976.36 93.8381,977.08 C93.8381,977.72 94.2781,978.12 94.9981,978.12 C95.1981,978.12 95.4781,978.08 95.7981,978.04 C96.3581,977.92 96.9581,977.88 97.3181,977.88 C99.1981,977.88 100.478,979.56 100.478,982.04 C100.478,986.36 98.3581,990.52 93.5181,990.52 C91.2781,990.52 89.3581,989.4 89.3581,988.12 C89.3581,987.68 89.5181,987.52 90.1581,987.24 C91.3181,986.72 91.7981,986 91.7981,984.92 C91.7981,983.52 90.6781,982.44 89.2381,982.44 C87.5181,982.44 86.3981,983.8 86.3981,985.88 C86.3981,989.76 89.3581,992.2 94.1581,992.2 C100.198,992.2 104.798,988.16 104.798,982.8 C104.798,979.68 102.878,977.92 100.078,977.04 M127.072,963.28 L125.912,963.28 C123.712,964.92 119.472,966.32 116.592,966.32 L116.112,968.08 L118.872,968.08 C121.313,968.08 121.593,968.16 121.593,968.88 C121.593,969.24 121.593,969.24 121.192,970.68 L116.912,986.68 C116.392,988.68 116.352,988.8 115.992,989.16 C115.592,989.56 114.752,989.68 112.632,989.72 L110.912,989.72 L110.712,991.6 L125.512,991.6 L125.752,989.72 L123.593,989.72 C120.992,989.72 120.432,989.52 120.432,988.64 C120.432,988.36 120.593,987.44 120.792,986.68 L127.072,963.28 "/>
<path class="MeasureNumber" d="M105.191,592.72 L104.151,594.56 C102.551,597.32 102.231,597.56 100.191,597.6 L90.9106,597.6 C91.8706,596.32 93.6306,594.84 96.8306,592.6 C102.111,588.96 102.471,588.72 103.591,587.84 C106.791,585.36 108.111,583 108.111,579.84 C108.111,575.64 104.991,572.84 100.391,572.84 C95.2706,572.84 90.8306,576.6 90.8306,580.96 C90.8306,583.2 92.0306,584.64 93.9506,584.64 C95.3906,584.64 96.5106,583.56 96.5106,582.08 C96.5106,581.04 95.9906,580.36 94.6706,579.64 C93.7106,579.16 93.5506,578.96 93.5506,578.48 C93.5506,576.76 96.5106,574.84 99.2306,574.84 C102.031,574.84 103.911,576.72 103.911,579.52 C103.911,582.52 102.591,584.72 98.9906,587.84 C88.3506,597.08 86.7506,598.76 86.3906,601 L103.551,601 L106.631,593.28 L105.191,592.72 M132.465,572.84 C130.345,573.08 127.745,573.24 125.505,573.24 C124.385,573.24 123.105,573.2 121.665,573.12 C120.345,573.04 119.025,572.96 117.665,572.88 L116.665,572.84 L112.785,581.28 L114.265,581.76 L115.225,580.16 C117.105,577.04 117.985,576.6 122.065,576.64 L128.825,576.64 L124.465,582.88 C119.345,590.08 119.345,590.08 117.385,593.28 C115.625,596.12 114.905,597.88 114.905,599.32 C114.905,600.72 115.785,601.6 117.185,601.6 C118.665,601.6 119.425,600.88 119.945,599 C121.945,591.48 123.145,588.88 128.705,579.88 L132.465,574.04 L132.465,572.84 "/>
<polyline class="BarLine" fill="none" stroke="#000000" stroke-width="4.46" stroke-linejoin="bevel" points="1663.95,258.636 1663.95,360.564"/>
<polyline class="BarLine" fill="none" stroke="#000000" stroke-width="4.46" stroke-linejoin="bevel" points="2010.17,649.236 2010.17,751.164"/>
<polyline class="BarLine" fill="none" stroke="#000000" stroke-width="4.46" stroke-linejoin="bevel" points="1289.25,258.636 1289.25,360.564"/>
<polyline class="BarLine" fill="none" stroke="#000000" stroke-width="4.46" stroke-linejoin="bevel" points="1552.9,649.236 1552.9,751.164"/>
<polyline class="BarLine" fill="none" stroke="#000000" stroke-width="4.46" stroke-linejoin="bevel" points="1987.35,1039.84 1987.35,1141.76"/>
<polyline class="BarLine" fill="none" stroke="#000000" stroke-width="13.64" stroke-linejoin="bevel" points="2005.58,1039.84 2005.58,1141.76"/>
<polyline class="BarLine" fill="none" stroke="#000000" stroke-width="4.46" stroke-linejoin="bevel" points="1165.07,649.236 1165.07,751.164"/>
<polyline class="BarLine" fill="none" stroke="#000000" stroke-width="4.46" stroke-linejoin="bevel" points="2010.17,258.636 2010.17,360.564"/>
<polyline class="BarLine" fill="none" stroke="#000000" stroke-width="4.46" stroke-linejoin="bevel" points="943.03,258.636 943.03,360.564"/>
<polyline class="BarLine" fill="none" stroke="#000000" stroke-width="4.46" stroke-linejoin="bevel" points="703.863,649.236 703.863,751.164"/>
<polyline class="BarLine" fill="none" stroke="#000000" stroke-width="4.46" stroke-linejoin="bevel" points="584.638,258.636 584.638,360.564"/>
<polyline class="BarLine" fill="none" stroke="#000000" stroke-width="4.46" stroke-linejoin="bevel" points="1252.24,1039.84 1252.24,1141.76"/>
<polyline class="Stem" fill="none" stroke="#000000" stroke-width="2.48" stroke-linejoin="bevel" points="799.588,1111.63 799.588,1028.8"/>
<polyline class="Stem" fill="none" stroke="#000000" stroke-width="2.48" stroke-linejoin="bevel" points="778.51,313.766 778.51,384"/>
<polyline class="Stem" fill="none" stroke="#000000" stroke-width="2.48" stroke-linejoin="bevel" points="1351.26,679.566 1351.26,762.2"/>
<polyline class="Stem" fill="none" stroke="#000000" stroke-width="2.48" stroke-linejoin="bevel" points="461.158,708.632 461.158,632.198"/>
<polyline class="Stem" fill="none" stroke="#000000" stroke-width="2.48" stroke-linejoin="bevel" points="860.274,301.366 860.274,377.8"/>
<polyline class="Stem" fill="none" stroke="#000000" stroke-width="2.48" stroke-linejoin="bevel" points="1451.59,691.966 1451.59,768.4"/>
<polyline class="Stem" fill="none" stroke="#000000" stroke-width="2.48" stroke-linejoin="bevel" points="502.225,704.366 502.225,774.6"/>
<polyline class="Stem" fill="none" stroke="#000000" stroke-width="2.48" stroke-linejoin="bevel" points="769.327,708.632 769.327,632"/>
<polyline class="Stem" fill="none" stroke="#000000" stroke-width="2.48" stroke-linejoin="bevel" points="724,313.766 724,390.101"/>
<polyline class="Stem" fill="none" stroke="#000000" stroke-width="2.48" stroke-linejoin="bevel" points="1008.49,318.032 1008.49,241.4"/>
<polyline class="Stem" fill="none" stroke="#000000" stroke-width="2.48" stroke-linejoin="bevel" points="333.981,721.032 333.981,638.2"/>
<polyline class="Stem" fill="none" stroke="#000000" stroke-width="2.48" stroke-linejoin="bevel" points="459.704,301.366 459.704,377.701"/>
<polyline class="Stem" fill="none" stroke="#000000" stroke-width="2.48" stroke-linejoin="bevel" points="333.981,1099.23 333.981,1022.6"/>
<polyline class="Stem" fill="none" stroke="#000000" stroke-width="2.48" stroke-linejoin="bevel" points="514.214,301.366 514.214,377.701"/>
<polyline class="Stem" fill="none" stroke="#000000" stroke-width="2.48" stroke-linejoin="bevel" points="1163.97,367.632 1163.97,284.998"/>
<polyline class="Stem" fill="none" stroke="#000000" stroke-width="2.48" stroke-linejoin="bevel" points="602.548,704.366 602.548,774.6"/>
<polyline class="Stem" fill="none" stroke="#000000" stroke-width="2.48" stroke-linejoin="bevel" points="986.694,708.632 986.694,632.198"/>
<polyline class="Stem" fill="none" stroke="#000000" stroke-width="2.48" stroke-linejoin="bevel" points="304.229,288.966 304.229,371.6"/>
<polyline class="Stem" fill="none" stroke="#000000" stroke-width="2.48" stroke-linejoin="bevel" points="1234.79,367.632 1234.79,284.998"/>
<polyline class="Stem" fill="none" stroke="#000000" stroke-width="2.48" stroke-linejoin="bevel" points="1955.71,367.632 1955.71,284.998"/>
<polyline class="Stem" fill="none" stroke="#000000" stroke-width="2.48" stroke-linejoin="bevel" points="1040.29,1099.23 1040.29,1022.6"/>
<polyline class="Stem" fill="none" stroke="#000000" stroke-width="2.48" stroke-linejoin="bevel" points="1094.64,691.966 1094.64,768.301"/>
<polyline class="Stem" fill="none" stroke="#000000" stroke-width="2.48" stroke-linejoin="bevel" points="1200.78,667.166 1200.78,749.8"/>
<polyline class="Stem" fill="none" stroke="#000000" stroke-width="2.48" stroke-linejoin="bevel" points="1354.71,355.232 1354.71,272.4"/>
<polyline class="Stem" fill="none" stroke="#000000" stroke-width="2.48" stroke-linejoin="bevel" points="1287.95,1094.97 1287.95,1165.2"/>
<polyline class="Stem" fill="none" stroke="#000000" stroke-width="2.48" stroke-linejoin="bevel" points="1027.76,704.366 1027.76,780.701"/>
<polyline class="Stem" fill="none" stroke="#000000" stroke-width="2.48" stroke-linejoin="bevel" points="1588.61,704.366 1588.61,774.6"/>
<polyline class="Stem" fill="none" stroke="#000000" stroke-width="2.48" stroke-linejoin="bevel" points="1939.74,704.366 1939.74,780.701"/>
<polyline class="Stem" fill="none" stroke="#000000" stroke-width="2.48" stroke-linejoin="bevel" points="1458.36,355.232 1458.36,272.598"/>
<polyline class="Stem" fill="none" stroke="#000000" stroke-width="2.48" stroke-linejoin="bevel" points="1884.89,367.632 1884.89,284.998"/>
<polyline class="Stem" fill="none" stroke="#000000" stroke-width="2.48" stroke-linejoin="bevel" points="1805.98,704.366 1805.98,780.701"/>
<polyline class="Stem" fill="none" stroke="#000000" stroke-width="2.48" stroke-linejoin="bevel" points="1529.18,342.832 1529.18,260"/>
<polyline class="Stem" fill="none" stroke="#000000" stroke-width="2.48" stroke-linejoin="bevel" points="1729.41,367.632 1729.41,284.8"/>
<polyline class="Stem" fill="none" stroke="#000000" stroke-width="2.48" stroke-linejoin="bevel" points="1872.86,704.366 1872.86,780.701"/>
<polyline class="Stem" fill="none" stroke="#000000" stroke-width="2.48" stroke-linejoin="bevel" points="1610.95,355.232 1610.95,272.4"/>
<polyline class="Stem" fill="none" stroke="#000000" stroke-width="2.48" stroke-linejoin="bevel" points="620.35,313.766 620.35,384"/>
<polyline class="Stem" fill="none" stroke="#000000" stroke-width="2.48" stroke-linejoin="bevel" points="639.117,1099.23 639.117,1022.8"/>
<path class="Note" transform="matrix(0.992,0,0,0.992,1804.74,700.2)" d="M0,4.2 C0,8.5 3.1,13.3 11.2,13.3 C21.6,13.3 32.5,4.8 32.5,-4 C32.5,-9.9 27.5,-13.2 21.3,-13.2 C11.6,-13.2 0,-5 0,4.2"/>
<path class="Note" transform="matrix(0.992,0,0,0.992,1579.95,359.2)" d="M0,4.2 C0,8.5 3.1,13.3 11.2,13.3 C21.6,13.3 32.5,4.8 32.5,-4 C32.5,-9.9 27.5,-13.2 21.3,-13.2 C11.6,-13.2 0,-5 0,4.2"/>
<path class="Note" transform="matrix(0.992,0,0,0.992,1498.19,346.8)" d="M0,4.2 C0,8.5 3.1,13.3 11.2,13.3 C21.6,13.3 32.5,4.8 32.5,-4 C32.5,-9.9 27.5,-13.2 21.3,-13.2 C11.6,-13.2 0,-5 0,4.2"/>
<path class="Note" transform="matrix(0.992,0,0,0.992,1698.42,371.6)" d="M21.3,-13.2 C11.6,-13.2 0,-5.1 0,4.2 C0,8.5 3.1,13.3 11.2,13.3 C21.6,13.3 32.5,4.8 32.5,-4 C32.5,-9.9 27.5,-13.2 21.3,-13.2 M7.5,8.6 C4.2,8.6 3.5,5.9 3.5,5 C3.5,0.1 20.3,-8.5 25,-8.5 C27.4,-8.5 29,-7.1 29,-4.9 C29,0.1 12.1,8.6 7.5,8.6"/>
<path class="Note" transform="matrix(0.992,0,0,0.992,1871.62,700.2)" d="M0,4.2 C0,8.5 3.1,13.3 11.2,13.3 C21.6,13.3 32.5,4.8 32.5,-4 C32.5,-9.9 27.5,-13.2 21.3,-13.2 C11.6,-13.2 0,-5 0,4.2"/>
<path class="Note" transform="matrix(0.992,0,0,0.992,1026.52,700.2)" d="M0,4.2 C0,8.5 3.1,13.3 11.2,13.3 C21.6,13.3 32.5,4.8 32.5,-4 C32.5,-9.9 27.5,-13.2 21.3,-13.2 C11.6,-13.2 0,-5 0,4.2"/>
<path class="Note" transform="matrix(0.992,0,0,0.992,1587.37,700.2)" d="M21.3,-13.2 C11.6,-13.2 0,-5.1 0,4.2 C0,8.5 3.1,13.3 11.2,13.3 C21.6,13.3 32.5,4.8 32.5,-4 C32.5,-9.9 27.5,-13.2 21.3,-13.2 M7.5,8.6 C4.2,8.6 3.5,5.9 3.5,5 C3.5,0.1 20.3,-8.5 25,-8.5 C27.4,-8.5 29,-7.1 29,-4.9 C29,0.1 12.1,8.6 7.5,8.6"/>
<path class="Note" transform="matrix(0.992,0,0,0.992,1427.37,359.2)" d="M0,4.2 C0,8.5 3.1,13.3 11.2,13.3 C21.6,13.3 32.5,4.8 32.5,-4 C32.5,-9.9 27.5,-13.2 21.3,-13.2 C11.6,-13.2 0,-5 0,4.2"/>
<path class="Note" transform="matrix(0.992,0,0,0.992,1853.9,371.6)" d="M0,4.2 C0,8.5 3.1,13.3 11.2,13.3 C21.6,13.3 32.5,4.8 32.5,-4 C32.5,-9.9 27.5,-13.2 21.3,-13.2 C11.6,-13.2 0,-5 0,4.2"/>
<path class="Note" transform="matrix(0.992,0,0,0.992,1938.5,700.2)" d="M0,4.2 C0,8.5 3.1,13.3 11.2,13.3 C21.6,13.3 32.5,4.8 32.5,-4 C32.5,-9.9 27.5,-13.2 21.3,-13.2 C11.6,-13.2 0,-5 0,4.2"/>
<path class="Note" transform="matrix(0.992,0,0,0.992,1323.72,359.2)" d="M0,4.2 C0,8.5 3.1,13.3 11.2,13.3 C21.6,13.3 32.5,4.8 32.5,-4 C32.5,-9.9 27.5,-13.2 21.3,-13.2 C11.6,-13.2 0,-5 0,4.2"/>
<path class="Note" transform="matrix(0.992,0,0,0.992,1203.8,371.6)" d="M0,4.2 C0,8.5 3.1,13.3 11.2,13.3 C21.6,13.3 32.5,4.8 32.5,-4 C32.5,-9.9 27.5,-13.2 21.3,-13.2 C11.6,-13.2 0,-5 0,4.2"/>
<path class="Note" transform="matrix(0.992,0,0,0.992,1924.72,371.6)" d="M0,4.2 C0,8.5 3.1,13.3 11.2,13.3 C21.6,13.3 32.5,4.8 32.5,-4 C32.5,-9.9 27.5,-13.2 21.3,-13.2 C11.6,-13.2 0,-5 0,4.2"/>
<path class="Note" transform="matrix(0.992,0,0,0.992,1093.4,687.8)" d="M0,4.2 C0,8.5 3.1,13.3 11.2,13.3 C21.6,13.3 32.5,4.8 32.5,-4 C32.5,-9.9 27.5,-13.2 21.3,-13.2 C11.6,-13.2 0,-5 0,4.2"/>
<path class="Note" transform="matrix(0.992,0,0,0.992,1132.98,371.6)" d="M0,4.2 C0,8.5 3.1,13.3 11.2,13.3 C21.6,13.3 32.5,4.8 32.5,-4 C32.5,-9.9 27.5,-13.2 21.3,-13.2 C11.6,-13.2 0,-5 0,4.2"/>
<path class="Note" transform="matrix(0.992,0,0,0.992,955.702,712.6)" d="M0,4.2 C0,8.5 3.1,13.3 11.2,13.3 C21.6,13.3 32.5,4.8 32.5,-4 C32.5,-9.9 27.5,-13.2 21.3,-13.2 C11.6,-13.2 0,-5 0,4.2"/>
<path class="Note" transform="matrix(0.992,0,0,0.992,302.989,1103.2)" d="M0,4.2 C0,8.5 3.1,13.3 11.2,13.3 C21.6,13.3 32.5,4.8 32.5,-4 C32.5,-9.9 27.5,-13.2 21.3,-13.2 C11.6,-13.2 0,-5 0,4.2"/>
<path class="Note" transform="matrix(0.992,0,0,0.992,302.989,284.8)" d="M21.3,-13.2 C11.6,-13.2 0,-5.1 0,4.2 C0,8.5 3.1,13.3 11.2,13.3 C21.6,13.3 32.5,4.8 32.5,-4 C32.5,-9.9 27.5,-13.2 21.3,-13.2 M7.5,8.6 C4.2,8.6 3.5,5.9 3.5,5 C3.5,0.1 20.3,-8.5 25,-8.5 C27.4,-8.5 29,-7.1 29,-4.9 C29,0.1 12.1,8.6 7.5,8.6"/>
<path class="Note" transform="matrix(0.992,0,0,0.992,1286.71,1090.8)" d="M21.3,-13.2 C11.6,-13.2 0,-5.1 0,4.2 C0,8.5 3.1,13.3 11.2,13.3 C21.6,13.3 32.5,4.8 32.5,-4 C32.5,-9.9 27.5,-13.2 21.3,-13.2 M7.5,8.6 C4.2,8.6 3.5,5.9 3.5,5 C3.5,0.1 20.3,-8.5 25,-8.5 C27.4,-8.5 29,-7.1 29,-4.9 C29,0.1 12.1,8.6 7.5,8.6"/>
<path class="Note" transform="matrix(0.992,0,0,0.992,977.502,322)" d="M21.3,-13.2 C11.6,-13.2 0,-5.1 0,4.2 C0,8.5 3.1,13.3 11.2,13.3 C21.6,13.3 32.5,4.8 32.5,-4 C32.5,-9.9 27.5,-13.2 21.3,-13.2 M7.5,8.6 C4.2,8.6 3.5,5.9 3.5,5 C3.5,0.1 20.3,-8.5 25,-8.5 C27.4,-8.5 29,-7.1 29,-4.9 C29,0.1 12.1,8.6 7.5,8.6"/>
<path class="Note" transform="matrix(0.992,0,0,0.992,302.989,725)" d="M0,4.2 C0,8.5 3.1,13.3 11.2,13.3 C21.6,13.3 32.5,4.8 32.5,-4 C32.5,-9.9 27.5,-13.2 21.3,-13.2 C11.6,-13.2 0,-5 0,4.2"/>
<path class="Note" transform="matrix(0.992,0,0,0.992,1450.35,687.8)" d="M0,4.2 C0,8.5 3.1,13.3 11.2,13.3 C21.6,13.3 32.5,4.8 32.5,-4 C32.5,-9.9 27.5,-13.2 21.3,-13.2 C11.6,-13.2 0,-5 0,4.2"/>
<path class="Note" transform="matrix(0.992,0,0,0.992,859.034,297.2)" d="M0,4.2 C0,8.5 3.1,13.3 11.2,13.3 C21.6,13.3 32.5,4.8 32.5,-4 C32.5,-9.9 27.5,-13.2 21.3,-13.2 C11.6,-13.2 0,-5 0,4.2"/>
<path class="Note" transform="matrix(0.992,0,0,0.992,1350.02,675.4)" d="M0,4.2 C0,8.5 3.1,13.3 11.2,13.3 C21.6,13.3 32.5,4.8 32.5,-4 C32.5,-9.9 27.5,-13.2 21.3,-13.2 C11.6,-13.2 0,-5 0,4.2"/>
<path class="Note" transform="matrix(0.992,0,0,0.992,608.125,1103.2)" d="M0,4.2 C0,8.5 3.1,13.3 11.2,13.3 C21.6,13.3 32.5,4.8 32.5,-4 C32.5,-9.9 27.5,-13.2 21.3,-13.2 C11.6,-13.2 0,-5 0,4.2"/>
<path class="Note" transform="matrix(0.992,0,0,0.992,430.166,712.6)" d="M0,4.2 C0,8.5 3.1,13.3 11.2,13.3 C21.6,13.3 32.5,4.8 32.5,-4 C32.5,-9.9 27.5,-13.2 21.3,-13.2 C11.6,-13.2 0,-5 0,4.2"/>
<path class="Note" transform="matrix(0.992,0,0,0.992,777.27,309.6)" d="M0,4.2 C0,8.5 3.1,13.3 11.2,13.3 C21.6,13.3 32.5,4.8 32.5,-4 C32.5,-9.9 27.5,-13.2 21.3,-13.2 C11.6,-13.2 0,-5 0,4.2"/>
<path class="Note" transform="matrix(0.992,0,0,0.992,722.76,309.6)" d="M0,4.2 C0,8.5 3.1,13.3 11.2,13.3 C21.6,13.3 32.5,4.8 32.5,-4 C32.5,-9.9 27.5,-13.2 21.3,-13.2 C11.6,-13.2 0,-5 0,4.2"/>
<path class="Note" transform="matrix(0.992,0,0,0.992,500.985,700.2)" d="M0,4.2 C0,8.5 3.1,13.3 11.2,13.3 C21.6,13.3 32.5,4.8 32.5,-4 C32.5,-9.9 27.5,-13.2 21.3,-13.2 C11.6,-13.2 0,-5 0,4.2"/>
<path class="Note" transform="matrix(0.992,0,0,0.992,1199.54,663)" d="M21.3,-13.2 C11.6,-13.2 0,-5.1 0,4.2 C0,8.5 3.1,13.3 11.2,13.3 C21.6,13.3 32.5,4.8 32.5,-4 C32.5,-9.9 27.5,-13.2 21.3,-13.2 M7.5,8.6 C4.2,8.6 3.5,5.9 3.5,5 C3.5,0.1 20.3,-8.5 25,-8.5 C27.4,-8.5 29,-7.1 29,-4.9 C29,0.1 12.1,8.6 7.5,8.6"/>
<path class="Note" transform="matrix(0.992,0,0,0.992,768.595,1115.6)" d="M0,4.2 C0,8.5 3.1,13.3 11.2,13.3 C21.6,13.3 32.5,4.8 32.5,-4 C32.5,-9.9 27.5,-13.2 21.3,-13.2 C11.6,-13.2 0,-5 0,4.2"/>
<path class="Note" transform="matrix(0.992,0,0,0.992,601.308,700.2)" d="M0,4.2 C0,8.5 3.1,13.3 11.2,13.3 C21.6,13.3 32.5,4.8 32.5,-4 C32.5,-9.9 27.5,-13.2 21.3,-13.2 C11.6,-13.2 0,-5 0,4.2"/>
<path class="Note" transform="matrix(0.992,0,0,0.992,1009.3,1103.2)" d="M0,4.2 C0,8.5 3.1,13.3 11.2,13.3 C21.6,13.3 32.5,4.8 32.5,-4 C32.5,-9.9 27.5,-13.2 21.3,-13.2 C11.6,-13.2 0,-5 0,4.2"/>
<path class="Note" transform="matrix(0.992,0,0,0.992,619.11,309.6)" d="M0,4.2 C0,8.5 3.1,13.3 11.2,13.3 C21.6,13.3 32.5,4.8 32.5,-4 C32.5,-9.9 27.5,-13.2 21.3,-13.2 C11.6,-13.2 0,-5 0,4.2"/>
<path class="Note" transform="matrix(0.992,0,0,0.992,512.974,297.2)" d="M0,4.2 C0,8.5 3.1,13.3 11.2,13.3 C21.6,13.3 32.5,4.8 32.5,-4 C32.5,-9.9 27.5,-13.2 21.3,-13.2 C11.6,-13.2 0,-5 0,4.2"/>
<path class="Note" transform="matrix(0.992,0,0,0.992,458.464,297.2)" d="M0,4.2 C0,8.5 3.1,13.3 11.2,13.3 C21.6,13.3 32.5,4.8 32.5,-4 C32.5,-9.9 27.5,-13.2 21.3,-13.2 C11.6,-13.2 0,-5 0,4.2"/>
<path class="Note" transform="matrix(0.992,0,0,0.992,738.335,712.6)" d="M21.3,-13.2 C11.6,-13.2 0,-5.1 0,4.2 C0,8.5 3.1,13.3 11.2,13.3 C21.6,13.3 32.5,4.8 32.5,-4 C32.5,-9.9 27.5,-13.2 21.3,-13.2 M7.5,8.6 C4.2,8.6 3.5,5.9 3.5,5 C3.5,0.1 20.3,-8.5 25,-8.5 C27.4,-8.5 29,-7.1 29,-4.9 C29,0.1 12.1,8.6 7.5,8.6"/>
<path class="Clef" transform="matrix(0.992,0,0,0.992,105,725)" d="M12.3,51.3 C12.3,57.9 17.3,66.6 30.8,66.6 C35.5,66.6 39.6,65.4 43.2,63.2 C48.6,59.4 50,52.8 50,46.5 C50,42.6 49.4,38.1 48.4,32.4 C48.1,30.4 47.5,27.4 46.9,23.5 C56.7,20.3 64,10.1 64,-0.2 C64,-15.3 53.3,-25.5 38.7,-25.5 C37.7,-31.5 36.7,-37.4 35.9,-43 C46.4,-54.1 53.7,-66.6 53.7,-82.5 C53.7,-91.6 50.9,-99 49.3,-102.6 C46.9,-107.7 44,-111.2 42.2,-111.2 C41.5,-111.2 38.4,-110 35.1,-106.1 C28.7,-98.5 26.9,-85.7 26.9,-77.3 C26.9,-71.9 27.4,-67 29.1,-55.8 C29,-55.7 23.8,-50.4 21.7,-48.7 C12.6,-40.3 0,-28.1 0,-8.1 C0,10.6 16.3,25.3 34.9,25.3 C37.8,25.3 40.5,25 42.8,24.6 C44.7,34.2 45.9,41.2 45.9,46.5 C45.9,56.9 40.5,62.4 30.4,62.4 C28,62.4 25.9,61.9 25.7,61.9 C25.6,61.8 25.4,61.7 25.4,61.6 C25.4,61.4 25.6,61.3 25.9,61.3 C30.6,60.5 35.3,56.5 35.3,50.1 C35.3,44.7 31.2,39 23.7,39 C16.7,39 12.3,44.7 12.3,51.3 M33.2,-82.2 C34.1,-86.2 38.7,-96.7 43.9,-96.7 C45.4,-96.7 47.8,-91.9 47.8,-84.9 C47.8,-74.5 40.1,-66.7 33.2,-59.9 C32.6,-63.9 32.1,-67.8 32.1,-72 C32.1,-75.7 32.4,-79.1 33.2,-82.2 M42,20.6 C40,21 38.1,21.2 36.2,21.2 C21.9,21.2 9.7,11.2 9.7,-3.9 C9.7,-16.1 18.3,-27 27.1,-34.6 C28.8,-36.1 30.4,-37.5 31.9,-39 C32.8,-33.6 33.5,-28.9 34.2,-24.8 C25.1,-22.1 18.9,-12.5 18.9,-3.1 C18.9,3.9 24.4,13.5 32.4,13.5 C33.2,13.5 34.1,13.1 34.1,12.2 C34.1,11.3 33.1,10.8 31.9,10 C28,7.6 25.8,5 25.8,0.1 C25.8,-6 30.4,-10.9 36.2,-12.3 L42,20.6 M56.2,2.1 C56.2,9.2 53.3,16.5 46.2,19.4 C44.1,7.4 41.4,-8.5 40.7,-12.9 C49.7,-12.9 56.2,-6.8 56.2,2.1"/>
<path class="Clef" transform="matrix(0.992,0,0,0.992,105,1115.6)" d="M12.3,51.3 C12.3,57.9 17.3,66.6 30.8,66.6 C35.5,66.6 39.6,65.4 43.2,63.2 C48.6,59.4 50,52.8 50,46.5 C50,42.6 49.4,38.1 48.4,32.4 C48.1,30.4 47.5,27.4 46.9,23.5 C56.7,20.3 64,10.1 64,-0.2 C64,-15.3 53.3,-25.5 38.7,-25.5 C37.7,-31.5 36.7,-37.4 35.9,-43 C46.4,-54.1 53.7,-66.6 53.7,-82.5 C53.7,-91.6 50.9,-99 49.3,-102.6 C46.9,-107.7 44,-111.2 42.2,-111.2 C41.5,-111.2 38.4,-110 35.1,-106.1 C28.7,-98.5 26.9,-85.7 26.9,-77.3 C26.9,-71.9 27.4,-67 29.1,-55.8 C29,-55.7 23.8,-50.4 21.7,-48.7 C12.6,-40.3 0,-28.1 0,-8.1 C0,10.6 16.3,25.3 34.9,25.3 C37.8,25.3 40.5,25 42.8,24.6 C44.7,34.2 45.9,41.2 45.9,46.5 C45.9,56.9 40.5,62.4 30.4,62.4 C28,62.4 25.9,61.9 25.7,61.9 C25.6,61.8 25.4,61.7 25.4,61.6 C25.4,61.4 25.6,61.3 25.9,61.3 C30.6,60.5 35.3,56.5 35.3,50.1 C35.3,44.7 31.2,39 23.7,39 C16.7,39 12.3,44.7 12.3,51.3 M33.2,-82.2 C34.1,-86.2 38.7,-96.7 43.9,-96.7 C45.4,-96.7 47.8,-91.9 47.8,-84.9 C47.8,-74.5 40.1,-66.7 33.2,-59.9 C32.6,-63.9 32.1,-67.8 32.1,-72 C32.1,-75.7 32.4,-79.1 33.2,-82.2 M42,20.6 C40,21 38.1,21.2 36.2,21.2 C21.9,21.2 9.7,11.2 9.7,-3.9 C9.7,-16.1 18.3,-27 27.1,-34.6 C28.8,-36.1 30.4,-37.5 31.9,-39 C32.8,-33.6 33.5,-28.9 34.2,-24.8 C25.1,-22.1 18.9,-12.5 18.9,-3.1 C18.9,3.9 24.4,13.5 32.4,13.5 C33.2,13.5 34.1,13.1 34.1,12.2 C34.1,11.3 33.1,10.8 31.9,10 C28,7.6 25.8,5 25.8,0.1 C25.8,-6 30.4,-10.9 36.2,-12.3 L42,20.6 M56.2,2.1 C56.2,9.2 53.3,16.5 46.2,19.4 C44.1,7.4 41.4,-8.5 40.7,-12.9 C49.7,-12.9 56.2,-6.8 56.2,2.1"/>
<path class="Clef" transform="matrix(0.992,0,0,0.992,105,334.4)" d="M12.3,51.3 C12.3,57.9 17.3,66.6 30.8,66.6 C35.5,66.6 39.6,65.4 43.2,63.2 C48.6,59.4 50,52.8 50,46.5 C50,42.6 49.4,38.1 48.4,32.4 C48.1,30.4 47.5,27.4 46.9,23.5 C56.7,20.3 64,10.1 64,-0.2 C64,-15.3 53.3,-25.5 38.7,-25.5 C37.7,-31.5 36.7,-37.4 35.9,-43 C46.4,-54.1 53.7,-66.6 53.7,-82.5 C53.7,-91.6 50.9,-99 49.3,-102.6 C46.9,-107.7 44,-111.2 42.2,-111.2 C41.5,-111.2 38.4,-110 35.1,-106.1 C28.7,-98.5 26.9,-85.7 26.9,-77.3 C26.9,-71.9 27.4,-67 29.1,-55.8 C29,-55.7 23.8,-50.4 21.7,-48.7 C12.6,-40.3 0,-28.1 0,-8.1 C0,10.6 16.3,25.3 34.9,25.3 C37.8,25.3 40.5,25 42.8,24.6 C44.7,34.2 45.9,41.2 45.9,46.5 C45.9,56.9 40.5,62.4 30.4,62.4 C28,62.4 25.9,61.9 25.7,61.9 C25.6,61.8 25.4,61.7 25.4,61.6 C25.4,61.4 25.6,61.3 25.9,61.3 C30.6,60.5 35.3,56.5 35.3,50.1 C35.3,44.7 31.2,39 23.7,39 C16.7,39 12.3,44.7 12.3,51.3 M33.2,-82.2 C34.1,-86.2 38.7,-96.7 43.9,-96.7 C45.4,-96.7 47.8,-91.9 47.8,-84.9 C47.8,-74.5 40.1,-66.7 33.2,-59.9 C32.6,-63.9 32.1,-67.8 32.1,-72 C32.1,-75.7 32.4,-79.1 33.2,-82.2 M42,20.6 C40,21 38.1,21.2 36.2,21.2 C21.9,21.2 9.7,11.2 9.7,-3.9 C9.7,-16.1 18.3,-27 27.1,-34.6 C28.8,-36.1 30.4,-37.5 31.9,-39 C32.8,-33.6 33.5,-28.9 34.2,-24.8 C25.1,-22.1 18.9,-12.5 18.9,-3.1 C18.9,3.9 24.4,13.5 32.4,13.5 C33.2,13.5 34.1,13.1 34.1,12.2 C34.1,11.3 33.1,10.8 31.9,10 C28,7.6 25.8,5 25.8,0.1 C25.8,-6 30.4,-10.9 36.2,-12.3 L42,20.6 M56.2,2.1 C56.2,9.2 53.3,16.5 46.2,19.4 C44.1,7.4 41.4,-8.5 40.7,-12.9 C49.7,-12.9 56.2,-6.8 56.2,2.1"/>
<path class="KeySig" transform="matrix(0.992,0,0,0.992,193.28,700.2)" d="M12,-15.5 C7,-15.5 4.1,-12.4 3.6,-11.8 L4,-43.9 C4,-44.7 3.4,-45.3 2.6,-45.3 L1.4,-45.3 C0.6,-45.3 0,-44.7 0,-43.9 L0.5,16.2 C0.5,17 1.1,17.6 1.9,17.6 C2.1,17.6 2.5,17.5 2.7,17.4 C11.3,13.1 20.3,4.9 20.3,-5.4 C20.3,-10.6 17.9,-15.5 12,-15.5 M3.3,12.7 L3.6,-6.8 C3.8,-7.7 5.3,-10.6 9.3,-10.6 C12.9,-10.6 13.2,-7.2 13.2,-5.1 C13.2,3.8 9.9,7.5 3.3,12.7"/>
<path class="KeySig" transform="matrix(0.992,0,0,0.992,220.855,663)" d="M12,-15.5 C7,-15.5 4.1,-12.4 3.6,-11.8 L4,-43.9 C4,-44.7 3.4,-45.3 2.6,-45.3 L1.4,-45.3 C0.6,-45.3 0,-44.7 0,-43.9 L0.5,16.2 C0.5,17 1.1,17.6 1.9,17.6 C2.1,17.6 2.5,17.5 2.7,17.4 C11.3,13.1 20.3,4.9 20.3,-5.4 C20.3,-10.6 17.9,-15.5 12,-15.5 M3.3,12.7 L3.6,-6.8 C3.8,-7.7 5.3,-10.6 9.3,-10.6 C12.9,-10.6 13.2,-7.2 13.2,-5.1 C13.2,3.8 9.9,7.5 3.3,12.7"/>
<path class="KeySig" transform="matrix(0.992,0,0,0.992,193.28,1090.8)" d="M12,-15.5 C7,-15.5 4.1,-12.4 3.6,-11.8 L4,-43.9 C4,-44.7 3.4,-45.3 2.6,-45.3 L1.4,-45.3 C0.6,-45.3 0,-44.7 0,-43.9 L0.5,16.2 C0.5,17 1.1,17.6 1.9,17.6 C2.1,17.6 2.5,17.5 2.7,17.4 C11.3,13.1 20.3,4.9 20.3,-5.4 C20.3,-10.6 17.9,-15.5 12,-15.5 M3.3,12.7 L3.6,-6.8 C3.8,-7.7 5.3,-10.6 9.3,-10.6 C12.9,-10.6 13.2,-7.2 13.2,-5.1 C13.2,3.8 9.9,7.5 3.3,12.7"/>
<path class="KeySig" transform="matrix(0.992,0,0,0.992,220.855,1053.6)" d="M12,-15.5 C7,-15.5 4.1,-12.4 3.6,-11.8 L4,-43.9 C4,-44.7 3.4,-45.3 2.6,-45.3 L1.4,-45.3 C0.6,-45.3 0,-44.7 0,-43.9 L0.5,16.2 C0.5,17 1.1,17.6 1.9,17.6 C2.1,17.6 2.5,17.5 2.7,17.4 C11.3,13.1 20.3,4.9 20.3,-5.4 C20.3,-10.6 17.9,-15.5 12,-15.5 M3.3,12.7 L3.6,-6.8 C3.8,-7.7 5.3,-10.6 9.3,-10.6 C12.9,-10.6 13.2,-7.2 13.2,-5.1 C13.2,3.8 9.9,7.5 3.3,12.7"/>
<path class="KeySig" transform="matrix(0.992,0,0,0.992,193.28,309.6)" d="M12,-15.5 C7,-15.5 4.1,-12.4 3.6,-11.8 L4,-43.9 C4,-44.7 3.4,-45.3 2.6,-45.3 L1.4,-45.3 C0.6,-45.3 0,-44.7 0,-43.9 L0.5,16.2 C0.5,17 1.1,17.6 1.9,17.6 C2.1,17.6 2.5,17.5 2.7,17.4 C11.3,13.1 20.3,4.9 20.3,-5.4 C20.3,-10.6 17.9,-15.5 12,-15.5 M3.3,12.7 L3.6,-6.8 C3.8,-7.7 5.3,-10.6 9.3,-10.6 C12.9,-10.6 13.2,-7.2 13.2,-5.1 C13.2,3.8 9.9,7.5 3.3,12.7"/>
<path class="KeySig" transform="matrix(0.992,0,0,0.992,220.855,272.4)" d="M12,-15.5 C7,-15.5 4.1,-12.4 3.6,-11.8 L4,-43.9 C4,-44.7 3.4,-45.3 2.6,-45.3 L1.4,-45.3 C0.6,-45.3 0,-44.7 0,-43.9 L0.5,16.2 C0.5,17 1.1,17.6 1.9,17.6 C2.1,17.6 2.5,17.5 2.7,17.4 C11.3,13.1 20.3,4.9 20.3,-5.4 C20.3,-10.6 17.9,-15.5 12,-15.5 M3.3,12.7 L3.6,-6.8 C3.8,-7.7 5.3,-10.6 9.3,-10.6 C12.9,-10.6 13.2,-7.2 13.2,-5.1 C13.2,3.8 9.9,7.5 3.3,12.7"/>
<path class="Rest" transform="matrix(0.992,0,0,0.992,888.82,700.2)" d="M26.7,-20.3 C26.6,-20.3 26.4,-20.4 26.3,-20.4 C25.7,-20.4 25.2,-20.1 25,-19.6 C22.7,-15 17.9,-8.8 12.5,-7.8 C13.6,-9.1 14.3,-10.7 14.3,-12.6 C14.3,-16.5 11.1,-19.7 7.2,-19.7 C3.2,-19.7 0,-16.5 0,-12.6 C0,-7.2 5.3,-4.7 10,-4.7 C15.3,-4.7 18.8,-7.2 22.2,-10.9 L10.8,24.7 L13.5,25.5 L27.5,-18.6 C27.6,-18.7 27.6,-18.9 27.6,-19.1 C27.6,-19.6 27.3,-20 26.7,-20.3"/>
<path class="Rest" transform="matrix(0.992,0,0,0.992,1744.41,1090.8)" d="M23,16.6 C22.9,16.5 22.7,16.3 22.4,15.9 L10.9,1.7 C10.8,1.6 10.7,1.3 10.7,1.1 C10.7,0.8 10.8,0.4 10.9,0.2 L21.1,-15.2 C21.2,-15.4 21.3,-15.7 21.3,-15.9 L21.3,-16.8 C21.3,-17.1 21.2,-17.4 21,-17.6 L4.8,-39.5 C4.8,-39.5 4.4,-40.1 3.8,-40.1 C3.5,-40.1 3.3,-40.1 3,-39.8 C2.6,-39.5 2.5,-39.1 2.5,-38.8 C2.5,-38.2 2.8,-37.7 2.8,-37.7 L10.4,-27.3 C10.6,-27 10.7,-26.6 10.7,-26.1 C10.7,-25.7 10.6,-25.2 10.4,-24.9 L0.3,-9.5 C0.2,-9.3 0.1,-8.9 0.1,-8.7 L0.1,-7.8 C0.1,-7.5 0.2,-7.2 0.4,-7 L11.6,6.9 C11.2,6.8 10.3,6.6 9.1,6.6 C4,6.6 0,10.8 0,15.9 C0,17.3 0.3,18.7 1.1,19.8 C3.2,23 10.7,32.5 10.7,32.5 C10.7,32.5 11.2,33.1 11.9,33.1 C12.1,33.1 12.3,33.1 12.5,32.9 C13,32.5 13.2,32.1 13.2,31.7 C13.2,31.3 13,31 12.9,30.8 C12.6,30.3 9.4,24.5 9.4,24.5 C9.4,24.5 8.7,23.1 8.7,21.3 C8.7,18.1 11.1,15.5 14.3,15.5 C15.6,15.5 16.7,15.9 17.5,16.4 L21.4,18.9 C21.4,18.9 21.8,19.1 22.2,19.1 C22.6,19.1 22.9,19 23.2,18.6 C23.4,18.3 23.5,18 23.5,17.7 C23.5,17.4 23.4,17.2 23.2,16.9 L23,16.6 "/>
<path class="Rest" transform="matrix(0.992,0,0,0.992,1737.86,700.2)" d="M26.7,-20.3 C26.6,-20.3 26.4,-20.4 26.3,-20.4 C25.7,-20.4 25.2,-20.1 25,-19.6 C22.7,-15 17.9,-8.8 12.5,-7.8 C13.6,-9.1 14.3,-10.7 14.3,-12.6 C14.3,-16.5 11.1,-19.7 7.2,-19.7 C3.2,-19.7 0,-16.5 0,-12.6 C0,-7.2 5.3,-4.7 10,-4.7 C15.3,-4.7 18.8,-7.2 22.2,-10.9 L10.8,24.7 L13.5,25.5 L27.5,-18.6 C27.6,-18.7 27.6,-18.9 27.6,-19.1 C27.6,-19.6 27.3,-20 26.7,-20.3"/>
<path class="Hook" transform="matrix(0.992,0,0,0.992,459.918,632)" d="M0,22.7 C0,23 0.1,23.6 0.8,23.8 C5.1,25.2 13.7,30.6 20.2,41.7 C22,44.8 24.9,49.1 24.9,57.4 C24.9,64.6 23.1,72 20.4,79.2 C20.2,79.8 20.1,80.3 20.1,80.7 C20.1,81.4 20.5,81.7 21.2,81.7 C21.8,81.7 22.3,81.3 22.7,80.6 C27.2,72.6 28.9,63.3 28.9,54.2 C28.4,41.3 21,31.8 21,31.8 C21.3,31.8 11.8,19.5 9.1,15.3 C5.4,9.6 3.7,3.9 3.5,3.5 C3.4,3.2 2.5,-0.4 2.5,-0.4 C2.4,-0.8 1.9,-1.2 1.3,-1.2 C0.6,-1.2 0,-0.6 0,0.1 L0,22.7 "/>
<path class="Hook" transform="matrix(0.992,0,0,0.992,1093.4,768.4)" d="M0,-0.1 C0,0.6 0.6,1.2 1.3,1.2 C1.8,1.2 2.4,0.8 2.5,0.4 C2.5,0.3 3.4,-3.2 3.5,-3.5 C3.6,-3.9 4.5,-7.7 8.1,-13.6 C12,-20.1 18,-24.8 23,-31.8 C28,-38.8 30.9,-45.4 30.9,-54.2 C30.9,-63.3 28.9,-70.9 23.5,-80.6 C23.2,-81.3 22.6,-81.7 22,-81.7 C21.8,-81.7 21.6,-81.7 21.5,-81.6 C21,-81.4 20.8,-81 20.8,-80.4 C20.8,-80.1 20.9,-79.7 21.1,-79.2 C25.1,-69.9 26.7,-64.6 26.7,-57.4 C26.7,-49.1 23.8,-44.8 22,-41.7 C15.5,-30.6 5,-25.2 0.8,-23.8 C0.1,-23.6 0,-23 0,-22.7 L0,-0.1 "/>
<path class="Hook" transform="matrix(0.992,0,0,0.992,1026.52,780.8)" d="M0,-0.1 C0,0.6 0.6,1.2 1.3,1.2 C1.8,1.2 2.4,0.8 2.5,0.4 C2.5,0.3 3.4,-3.2 3.5,-3.5 C3.6,-3.9 4.5,-7.7 8.1,-13.6 C12,-20.1 18,-24.8 23,-31.8 C28,-38.8 30.9,-45.4 30.9,-54.2 C30.9,-63.3 28.9,-70.9 23.5,-80.6 C23.2,-81.3 22.6,-81.7 22,-81.7 C21.8,-81.7 21.6,-81.7 21.5,-81.6 C21,-81.4 20.8,-81 20.8,-80.4 C20.8,-80.1 20.9,-79.7 21.1,-79.2 C25.1,-69.9 26.7,-64.6 26.7,-57.4 C26.7,-49.1 23.8,-44.8 22,-41.7 C15.5,-30.6 5,-25.2 0.8,-23.8 C0.1,-23.6 0,-23 0,-22.7 L0,-0.1 "/>
<path class="Hook" transform="matrix(0.992,0,0,0.992,458.464,377.8)" d="M0,-0.1 C0,0.6 0.6,1.2 1.3,1.2 C1.8,1.2 2.4,0.8 2.5,0.4 C2.5,0.3 3.4,-3.2 3.5,-3.5 C3.6,-3.9 4.5,-7.7 8.1,-13.6 C12,-20.1 18,-24.8 23,-31.8 C28,-38.8 30.9,-45.4 30.9,-54.2 C30.9,-63.3 28.9,-70.9 23.5,-80.6 C23.2,-81.3 22.6,-81.7 22,-81.7 C21.8,-81.7 21.6,-81.7 21.5,-81.6 C21,-81.4 20.8,-81 20.8,-80.4 C20.8,-80.1 20.9,-79.7 21.1,-79.2 C25.1,-69.9 26.7,-64.6 26.7,-57.4 C26.7,-49.1 23.8,-44.8 22,-41.7 C15.5,-30.6 5,-25.2 0.8,-23.8 C0.1,-23.6 0,-23 0,-22.7 L0,-0.1 "/>
<path class="Hook" transform="matrix(0.992,0,0,0.992,512.974,377.8)" d="M0,-0.1 C0,0.6 0.6,1.2 1.3,1.2 C1.8,1.2 2.4,0.8 2.5,0.4 C2.5,0.3 3.4,-3.2 3.5,-3.5 C3.6,-3.9 4.5,-7.7 8.1,-13.6 C12,-20.1 18,-24.8 23,-31.8 C28,-38.8 30.9,-45.4 30.9,-54.2 C30.9,-63.3 28.9,-70.9 23.5,-80.6 C23.2,-81.3 22.6,-81.7 22,-81.7 C21.8,-81.7 21.6,-81.7 21.5,-81.6 C21,-81.4 20.8,-81 20.8,-80.4 C20.8,-80.1 20.9,-79.7 21.1,-79.2 C25.1,-69.9 26.7,-64.6 26.7,-57.4 C26.7,-49.1 23.8,-44.8 22,-41.7 C15.5,-30.6 5,-25.2 0.8,-23.8 C0.1,-23.6 0,-23 0,-22.7 L0,-0.1 "/>
<path class="Hook" transform="matrix(0.992,0,0,0.992,985.454,632)" d="M0,22.7 C0,23 0.1,23.6 0.8,23.8 C5.1,25.2 13.7,30.6 20.2,41.7 C22,44.8 24.9,49.1 24.9,57.4 C24.9,64.6 23.1,72 20.4,79.2 C20.2,79.8 20.1,80.3 20.1,80.7 C20.1,81.4 20.5,81.7 21.2,81.7 C21.8,81.7 22.3,81.3 22.7,80.6 C27.2,72.6 28.9,63.3 28.9,54.2 C28.4,41.3 21,31.8 21,31.8 C21.3,31.8 11.8,19.5 9.1,15.3 C5.4,9.6 3.7,3.9 3.5,3.5 C3.4,3.2 2.5,-0.4 2.5,-0.4 C2.4,-0.8 1.9,-1.2 1.3,-1.2 C0.6,-1.2 0,-0.6 0,0.1 L0,22.7 "/>
<path class="Hook" transform="matrix(0.992,0,0,0.992,722.76,390.2)" d="M0,-0.1 C0,0.6 0.6,1.2 1.3,1.2 C1.8,1.2 2.4,0.8 2.5,0.4 C2.5,0.3 3.4,-3.2 3.5,-3.5 C3.6,-3.9 4.5,-7.7 8.1,-13.6 C12,-20.1 18,-24.8 23,-31.8 C28,-38.8 30.9,-45.4 30.9,-54.2 C30.9,-63.3 28.9,-70.9 23.5,-80.6 C23.2,-81.3 22.6,-81.7 22,-81.7 C21.8,-81.7 21.6,-81.7 21.5,-81.6 C21,-81.4 20.8,-81 20.8,-80.4 C20.8,-80.1 20.9,-79.7 21.1,-79.2 C25.1,-69.9 26.7,-64.6 26.7,-57.4 C26.7,-49.1 23.8,-44.8 22,-41.7 C15.5,-30.6 5,-25.2 0.8,-23.8 C0.1,-23.6 0,-23 0,-22.7 L0,-0.1 "/>
<path class="Hook" transform="matrix(0.992,0,0,0.992,637.877,1022.6)" d="M0,22.7 C0,23 0.1,23.6 0.8,23.8 C5.1,25.2 13.7,30.6 20.2,41.7 C22,44.8 24.9,49.1 24.9,57.4 C24.9,64.6 23.1,72 20.4,79.2 C20.2,79.8 20.1,80.3 20.1,80.7 C20.1,81.4 20.5,81.7 21.2,81.7 C21.8,81.7 22.3,81.3 22.7,80.6 C27.2,72.6 28.9,63.3 28.9,54.2 C28.4,41.3 21,31.8 21,31.8 C21.3,31.8 11.8,19.5 9.1,15.3 C5.4,9.6 3.7,3.9 3.5,3.5 C3.4,3.2 2.5,-0.4 2.5,-0.4 C2.4,-0.8 1.9,-1.2 1.3,-1.2 C0.6,-1.2 0,-0.6 0,0.1 L0,22.7 "/>
<path class="Hook" transform="matrix(0.992,0,0,0.992,1162.73,284.8)" d="M0,22.7 C0,23 0.1,23.6 0.8,23.8 C5.1,25.2 13.7,30.6 20.2,41.7 C22,44.8 24.9,49.1 24.9,57.4 C24.9,64.6 23.1,72 20.4,79.2 C20.2,79.8 20.1,80.3 20.1,80.7 C20.1,81.4 20.5,81.7 21.2,81.7 C21.8,81.7 22.3,81.3 22.7,80.6 C27.2,72.6 28.9,63.3 28.9,54.2 C28.4,41.3 21,31.8 21,31.8 C21.3,31.8 11.8,19.5 9.1,15.3 C5.4,9.6 3.7,3.9 3.5,3.5 C3.4,3.2 2.5,-0.4 2.5,-0.4 C2.4,-0.8 1.9,-1.2 1.3,-1.2 C0.6,-1.2 0,-0.6 0,0.1 L0,22.7 "/>
<path class="Hook" transform="matrix(0.992,0,0,0.992,1233.55,284.8)" d="M0,22.7 C0,23 0.1,23.6 0.8,23.8 C5.1,25.2 13.7,30.6 20.2,41.7 C22,44.8 24.9,49.1 24.9,57.4 C24.9,64.6 23.1,72 20.4,79.2 C20.2,79.8 20.1,80.3 20.1,80.7 C20.1,81.4 20.5,81.7 21.2,81.7 C21.8,81.7 22.3,81.3 22.7,80.6 C27.2,72.6 28.9,63.3 28.9,54.2 C28.4,41.3 21,31.8 21,31.8 C21.3,31.8 11.8,19.5 9.1,15.3 C5.4,9.6 3.7,3.9 3.5,3.5 C3.4,3.2 2.5,-0.4 2.5,-0.4 C2.4,-0.8 1.9,-1.2 1.3,-1.2 C0.6,-1.2 0,-0.6 0,0.1 L0,22.7 "/>
<path class="Hook" transform="matrix(0.992,0,0,0.992,1457.12,272.4)" d="M0,22.7 C0,23 0.1,23.6 0.8,23.8 C5.1,25.2 13.7,30.6 20.2,41.7 C22,44.8 24.9,49.1 24.9,57.4 C24.9,64.6 23.1,72 20.4,79.2 C20.2,79.8 20.1,80.3 20.1,80.7 C20.1,81.4 20.5,81.7 21.2,81.7 C21.8,81.7 22.3,81.3 22.7,80.6 C27.2,72.6 28.9,63.3 28.9,54.2 C28.4,41.3 21,31.8 21,31.8 C21.3,31.8 11.8,19.5 9.1,15.3 C5.4,9.6 3.7,3.9 3.5,3.5 C3.4,3.2 2.5,-0.4 2.5,-0.4 C2.4,-0.8 1.9,-1.2 1.3,-1.2 C0.6,-1.2 0,-0.6 0,0.1 L0,22.7 "/>
<path class="Hook" transform="matrix(0.992,0,0,0.992,1938.5,780.8)" d="M0,-0.1 C0,0.6 0.6,1.2 1.3,1.2 C1.8,1.2 2.4,0.8 2.5,0.4 C2.5,0.3 3.4,-3.2 3.5,-3.5 C3.6,-3.9 4.5,-7.7 8.1,-13.6 C12,-20.1 18,-24.8 23,-31.8 C28,-38.8 30.9,-45.4 30.9,-54.2 C30.9,-63.3 28.9,-70.9 23.5,-80.6 C23.2,-81.3 22.6,-81.7 22,-81.7 C21.8,-81.7 21.6,-81.7 21.5,-81.6 C21,-81.4 20.8,-81 20.8,-80.4 C20.8,-80.1 20.9,-79.7 21.1,-79.2 C25.1,-69.9 26.7,-64.6 26.7,-57.4 C26.7,-49.1 23.8,-44.8 22,-41.7 C15.5,-30.6 5,-25.2 0.8,-23.8 C0.1,-23.6 0,-23 0,-22.7 L0,-0.1 "/>
<path class="Hook" transform="matrix(0.992,0,0,0.992,1871.62,780.8)" d="M0,-0.1 C0,0.6 0.6,1.2 1.3,1.2 C1.8,1.2 2.4,0.8 2.5,0.4 C2.5,0.3 3.4,-3.2 3.5,-3.5 C3.6,-3.9 4.5,-7.7 8.1,-13.6 C12,-20.1 18,-24.8 23,-31.8 C28,-38.8 30.9,-45.4 30.9,-54.2 C30.9,-63.3 28.9,-70.9 23.5,-80.6 C23.2,-81.3 22.6,-81.7 22,-81.7 C21.8,-81.7 21.6,-81.7 21.5,-81.6 C21,-81.4 20.8,-81 20.8,-80.4 C20.8,-80.1 20.9,-79.7 21.1,-79.2 C25.1,-69.9 26.7,-64.6 26.7,-57.4 C26.7,-49.1 23.8,-44.8 22,-41.7 C15.5,-30.6 5,-25.2 0.8,-23.8 C0.1,-23.6 0,-23 0,-22.7 L0,-0.1 "/>
<path class="Hook" transform="matrix(0.992,0,0,0.992,1804.74,780.8)" d="M0,-0.1 C0,0.6 0.6,1.2 1.3,1.2 C1.8,1.2 2.4,0.8 2.5,0.4 C2.5,0.3 3.4,-3.2 3.5,-3.5 C3.6,-3.9 4.5,-7.7 8.1,-13.6 C12,-20.1 18,-24.8 23,-31.8 C28,-38.8 30.9,-45.4 30.9,-54.2 C30.9,-63.3 28.9,-70.9 23.5,-80.6 C23.2,-81.3 22.6,-81.7 22,-81.7 C21.8,-81.7 21.6,-81.7 21.5,-81.6 C21,-81.4 20.8,-81 20.8,-80.4 C20.8,-80.1 20.9,-79.7 21.1,-79.2 C25.1,-69.9 26.7,-64.6 26.7,-57.4 C26.7,-49.1 23.8,-44.8 22,-41.7 C15.5,-30.6 5,-25.2 0.8,-23.8 C0.1,-23.6 0,-23 0,-22.7 L0,-0.1 "/>
<path class="Hook" transform="matrix(0.992,0,0,0.992,1883.65,284.8)" d="M0,22.7 C0,23 0.1,23.6 0.8,23.8 C5.1,25.2 13.7,30.6 20.2,41.7 C22,44.8 24.9,49.1 24.9,57.4 C24.9,64.6 23.1,72 20.4,79.2 C20.2,79.8 20.1,80.3 20.1,80.7 C20.1,81.4 20.5,81.7 21.2,81.7 C21.8,81.7 22.3,81.3 22.7,80.6 C27.2,72.6 28.9,63.3 28.9,54.2 C28.4,41.3 21,31.8 21,31.8 C21.3,31.8 11.8,19.5 9.1,15.3 C5.4,9.6 3.7,3.9 3.5,3.5 C3.4,3.2 2.5,-0.4 2.5,-0.4 C2.4,-0.8 1.9,-1.2 1.3,-1.2 C0.6,-1.2 0,-0.6 0,0.1 L0,22.7 "/>
<path class="Hook" transform="matrix(0.992,0,0,0.992,1954.47,284.8)" d="M0,22.7 C0,23 0.1,23.6 0.8,23.8 C5.1,25.2 13.7,30.6 20.2,41.7 C22,44.8 24.9,49.1 24.9,57.4 C24.9,64.6 23.1,72 20.4,79.2 C20.2,79.8 20.1,80.3 20.1,80.7 C20.1,81.4 20.5,81.7 21.2,81.7 C21.8,81.7 22.3,81.3 22.7,80.6 C27.2,72.6 28.9,63.3 28.9,54.2 C28.4,41.3 21,31.8 21,31.8 C21.3,31.8 11.8,19.5 9.1,15.3 C5.4,9.6 3.7,3.9 3.5,3.5 C3.4,3.2 2.5,-0.4 2.5,-0.4 C2.4,-0.8 1.9,-1.2 1.3,-1.2 C0.6,-1.2 0,-0.6 0,0.1 L0,22.7 "/>
<path class="Lyrics" d="M1960.57,439.28 L1960.57,436.329 L1921.12,436.329 L1921.12,439.28 L1960.57,439.28 M1957.27,458.88 L1957.27,455.88 L1929.47,455.88 L1929.47,451.88 L1955.92,451.88 L1955.92,442.73 L1925.72,442.73 L1925.72,445.53 L1952.12,445.53 L1952.12,449.18 L1925.67,449.18 L1925.67,458.88 L1957.27,458.88 M1956.52,432.88 L1956.52,430.03 L1929.92,430.03 L1929.92,426.579 L1955.67,426.579 L1955.67,417.43 L1926.07,417.43 L1926.07,420.43 L1951.87,420.43 L1951.87,423.829 L1926.12,423.829 L1926.12,432.88 L1956.52,432.88 "/>
<path class="Lyrics" d="M1480.6,806.595 L1480.6,850.295 L1484.4,850.295 L1484.4,806.595 L1480.6,806.595 M1473.7,820.395 C1473.7,813.995 1468.8,809.995 1462.35,809.995 C1456,809.995 1450.95,814.245 1450.95,820.395 C1450.95,826.245 1455.9,830.545 1462.35,830.545 C1468.65,830.545 1473.7,826.595 1473.7,820.395 M1470,820.395 C1470,824.495 1466.5,827.345 1462.35,827.345 C1458.1,827.345 1454.65,824.445 1454.65,820.395 C1454.65,816.295 1458.15,813.245 1462.35,813.245 C1466.6,813.245 1470,815.995 1470,820.395 M1478.05,839.195 L1477.7,836.095 C1474.5,836.495 1468.85,836.845 1462.75,837.045 C1457.45,837.345 1452.3,837.445 1448.55,837.395 L1449.25,840.745 C1452.55,840.695 1457.35,840.545 1462.5,840.295 C1468.05,840.045 1474.3,839.645 1478.05,839.195"/>
<path class="Lyrics" d="M1874.99,443.43 C1870.24,444.579 1861.69,445.23 1854.19,445.28 L1854.19,420.329 L1850.39,420.329 L1850.39,448.63 L1853.04,448.63 C1859.69,448.63 1870.19,447.88 1875.54,446.63 L1874.99,443.43 M1882.49,415.98 L1878.69,415.98 L1878.69,459.68 L1882.49,459.68 L1882.49,436.579 L1889.64,436.579 L1889.64,433.329 L1882.49,433.329 L1882.49,415.98 "/>
<path class="Lyrics" d="M338.846,454.13 L338.846,450.93 L320.946,450.93 L320.946,443.48 L335.196,443.48 L335.196,440.28 L308.046,440.28 L308.046,432.98 L333.946,432.98 L333.946,419.63 L304.196,419.63 L304.196,422.829 L330.146,422.829 L330.146,429.829 L304.246,429.829 L304.246,443.48 L317.146,443.48 L317.146,450.93 L299.396,450.93 L299.396,454.13 L338.846,454.13 "/>
<path class="Lyrics" d="M1618.38,849.695 L1618.38,835.945 L1605.33,835.945 L1605.33,830.995 L1623.23,830.995 L1623.23,827.845 L1583.78,827.845 L1583.78,830.995 L1601.53,830.995 L1601.53,835.945 L1588.53,835.945 L1588.53,849.695 L1618.38,849.695 M1614.63,846.545 L1592.38,846.545 L1592.38,839.095 L1614.63,839.095 L1614.63,846.545 M1618.83,824.045 L1618.83,820.895 L1612.23,820.895 L1613.53,813.795 L1609.58,813.395 L1608.58,820.895 L1598.18,820.895 L1597.38,813.445 L1593.43,813.895 L1594.58,820.895 L1587.93,820.895 L1587.93,824.045 L1618.83,824.045 M1619.13,811.795 L1619.13,808.645 L1587.63,808.645 L1587.63,811.795 L1619.13,811.795 "/>
<path class="Lyrics" d="M1706.08,419.78 C1699.73,419.78 1696.48,425.98 1696.48,434.73 C1696.48,443.53 1699.73,449.68 1706.08,449.68 C1712.08,449.68 1715.28,444.329 1715.68,436.43 L1720.38,436.43 L1720.38,457.579 L1724.08,457.579 L1724.08,416.829 L1720.38,416.829 L1720.38,433.28 L1715.68,433.28 C1715.38,425.329 1712.13,419.78 1706.08,419.78 M1711.93,434.73 C1711.93,441.829 1709.63,446.329 1706.08,446.329 C1702.58,446.329 1700.33,441.829 1700.33,434.73 C1700.33,427.68 1702.58,423.13 1706.08,423.13 C1709.63,423.13 1711.93,427.68 1711.93,434.73 M1732.63,459.68 L1732.63,415.98 L1728.88,415.98 L1728.88,459.68 L1732.63,459.68 "/>
<path class="Lyrics" d="M338.443,821.395 L338.443,818.195 L331.793,818.195 L331.793,806.595 L327.993,806.595 L327.993,832.045 L331.793,832.045 L331.793,821.395 L338.443,821.395 M332.293,849.445 L332.293,846.345 L308.243,846.345 L308.243,837.845 L331.893,837.845 L331.893,834.695 L304.393,834.695 L304.393,849.445 L332.293,849.445 M320.243,829.245 L320.243,809.095 L316.443,809.095 L316.443,815.795 L303.643,815.795 L303.643,809.095 L299.793,809.095 L299.793,829.245 L320.243,829.245 M316.443,826.095 L303.643,826.095 L303.643,818.945 L316.443,818.945 L316.443,826.095 "/>
<path class="Lyrics" d="M1315.29,1189.99 L1311.49,1189.99 L1311.49,1233.69 L1315.29,1233.69 L1315.29,1210.54 L1322.39,1210.54 L1322.39,1207.34 L1315.29,1207.34 L1315.29,1189.99 M1287.14,1219.74 L1287.14,1197.74 L1304.04,1197.74 L1304.04,1194.54 L1283.29,1194.54 L1283.29,1222.99 L1287.59,1222.99 C1295.19,1222.99 1303.84,1222.39 1308.54,1221.49 L1308.14,1218.34 C1303.94,1219.24 1295.29,1219.74 1289.64,1219.74 L1287.14,1219.74 "/>
<path class="Lyrics" d="M1615.91,431.98 L1615.91,428.78 L1609.26,428.78 L1609.26,415.98 L1605.46,415.98 L1605.46,447.73 L1609.26,447.73 L1609.26,431.98 L1615.91,431.98 M1610.86,458.18 L1610.86,455.03 L1585.66,455.03 L1585.66,444.63 L1581.86,444.63 L1581.86,458.18 L1610.86,458.18 M1587.81,419.18 C1581.26,419.18 1576.26,423.68 1576.26,430.23 C1576.26,436.829 1581.26,441.13 1587.86,441.13 C1594.41,441.13 1599.41,436.78 1599.41,430.18 C1599.41,423.63 1594.36,419.18 1587.81,419.18 M1587.81,422.43 C1592.46,422.43 1595.61,425.68 1595.61,430.23 C1595.61,434.68 1592.46,437.88 1587.86,437.88 C1583.46,437.88 1580.06,434.68 1580.06,430.18 C1580.06,425.68 1583.41,422.43 1587.81,422.43"/>
<path class="Lyrics" d="M1838.57,842.095 C1838.57,836.895 1833.22,833.745 1823.67,833.745 C1814.17,833.745 1808.82,836.895 1808.82,842.095 C1808.82,847.145 1814.17,850.395 1823.67,850.395 C1833.22,850.395 1838.57,847.145 1838.57,842.095 M1826.77,826.495 L1834.72,826.495 L1834.72,833.645 L1838.52,833.645 L1838.52,806.595 L1834.72,806.595 L1834.72,812.395 L1826.77,812.395 L1826.77,815.645 L1834.72,815.645 L1834.72,823.245 L1826.77,823.245 L1826.77,826.495 M1834.67,842.095 C1834.67,845.295 1830.62,847.145 1823.67,847.145 C1816.87,847.145 1812.77,845.295 1812.77,842.095 C1812.77,838.845 1816.87,836.945 1823.67,836.945 C1830.62,836.945 1834.67,838.845 1834.67,842.095 M1814.42,809.245 C1808.27,809.245 1803.17,813.445 1803.17,819.745 C1803.17,826.095 1808.32,830.095 1814.42,830.095 C1820.57,830.095 1825.62,826.095 1825.62,819.695 C1825.62,813.345 1820.57,809.245 1814.42,809.245 M1814.42,812.495 C1818.92,812.495 1821.82,815.395 1821.82,819.745 C1821.82,824.145 1818.87,826.995 1814.42,826.995 C1810.12,826.995 1806.97,824.145 1806.97,819.695 C1806.97,815.345 1810.12,812.495 1814.42,812.495"/>
<path class="Lyrics" d="M1382.88,849.645 L1382.88,833.645 L1354.23,833.645 L1354.23,849.645 L1382.88,849.645 M1379.08,846.495 L1358.03,846.495 L1358.03,836.745 L1379.08,836.745 L1379.08,846.495 M1379.08,806.595 L1379.08,830.895 L1382.88,830.895 L1382.88,806.595 L1379.08,806.595 M1374.98,822.695 C1369.38,823.845 1359.58,824.845 1353.23,824.595 L1353.23,808.845 L1349.43,808.845 L1349.43,827.945 L1351.93,827.945 C1359.53,827.945 1370.58,826.995 1375.43,825.945 L1374.98,822.695 "/>
<path class="Lyrics" d="M1529.2,459.079 L1529.2,445.329 L1516.15,445.329 L1516.15,440.38 L1534.05,440.38 L1534.05,437.23 L1494.6,437.23 L1494.6,440.38 L1512.35,440.38 L1512.35,445.329 L1499.35,445.329 L1499.35,459.079 L1529.2,459.079 M1525.45,455.93 L1503.2,455.93 L1503.2,448.48 L1525.45,448.48 L1525.45,455.93 M1529.65,433.43 L1529.65,430.28 L1523.05,430.28 L1524.35,423.18 L1520.4,422.78 L1519.4,430.28 L1509,430.28 L1508.2,422.829 L1504.25,423.28 L1505.4,430.28 L1498.75,430.28 L1498.75,433.43 L1529.65,433.43 M1529.95,421.18 L1529.95,418.03 L1498.45,418.03 L1498.45,421.18 L1529.95,421.18 "/>
<path class="Lyrics" d="M1460.85,447.73 L1460.85,415.98 L1457.05,415.98 L1457.05,447.73 L1460.85,447.73 M1451.55,437.78 C1446.35,435.93 1440.45,430.53 1440.45,423.23 L1440.45,418.48 L1436.6,418.48 L1436.6,423.329 C1436.6,430.329 1430.95,436.73 1425.2,439.28 L1427.5,442.28 C1432.25,439.88 1437.3,434.829 1438.6,430.13 C1440.4,434.73 1444.9,438.88 1449.4,440.829 L1451.55,437.78 M1461.8,458.329 L1461.8,455.18 L1436.45,455.18 L1436.45,444.88 L1432.65,444.88 L1432.65,458.329 L1461.8,458.329 "/>
<path class="Lyrics" d="M1895.06,816.745 C1895.06,811.795 1890.21,808.645 1883.46,808.645 C1876.71,808.645 1871.76,811.795 1871.76,816.695 C1871.76,821.795 1876.71,824.745 1883.46,824.745 C1890.21,824.745 1895.06,821.745 1895.06,816.745 M1905.51,840.195 L1905.51,806.595 L1901.71,806.595 L1901.71,832.445 L1892.51,832.445 L1892.51,835.445 L1901.71,835.445 L1901.71,840.195 L1905.51,840.195 M1906.41,849.245 L1906.41,846.045 L1878.96,846.045 L1878.96,836.595 L1875.16,836.595 L1875.16,849.245 L1906.41,849.245 M1891.31,816.745 C1891.31,819.695 1888.16,821.645 1883.46,821.645 C1878.76,821.645 1875.56,819.695 1875.56,816.745 C1875.56,813.745 1878.76,811.795 1883.46,811.795 C1888.16,811.795 1891.31,813.795 1891.31,816.745 M1885.66,838.445 L1885.66,830.245 C1890.26,829.945 1895.11,829.645 1897.86,829.245 L1897.56,826.295 C1893.31,826.745 1888.56,827.195 1883.71,827.395 C1878.96,827.545 1873.61,827.595 1869.11,827.545 L1869.71,830.795 C1873.36,830.795 1877.71,830.645 1881.86,830.495 L1881.86,838.445 L1885.66,838.445 "/>
<path class="Lyrics" d="M1061.44,850.145 L1061.44,847.095 L1035.04,847.095 L1035.04,843.295 L1059.94,843.295 L1059.94,833.845 L1031.09,833.845 L1031.09,836.895 L1056.14,836.895 L1056.14,840.395 L1031.24,840.395 L1031.24,850.145 L1061.44,850.145 M1040.34,832.145 L1040.34,826.795 C1045.04,826.545 1050.74,826.145 1053.24,825.745 L1052.89,822.745 C1049.54,823.145 1043.79,823.495 1038.54,823.695 C1033.84,823.845 1028.94,823.945 1023.84,823.895 L1024.39,827.245 C1029.14,827.245 1032.69,827.145 1036.54,826.995 L1036.54,832.145 L1040.34,832.145 M1050.89,817.345 C1046.09,816.445 1040.24,813.395 1040.24,808.245 L1040.24,807.145 L1036.49,807.145 L1036.49,808.295 C1036.49,813.595 1031.09,817.495 1025.69,818.545 L1027.69,821.295 C1032.44,820.195 1036.94,816.745 1038.44,813.345 C1040.29,816.595 1044.94,819.345 1049.14,820.195 L1050.89,817.345 M1059.94,831.445 L1059.94,806.595 L1056.19,806.595 L1056.19,831.445 L1059.94,831.445 "/>
<path class="Lyrics" d="M466.369,827.395 L466.369,824.195 L459.219,824.195 L459.219,806.595 L455.419,806.595 L455.419,850.295 L459.219,850.295 L459.219,827.395 L466.369,827.395 M426.219,825.295 C426.219,834.595 430.319,840.795 437.419,840.795 C444.519,840.795 448.569,834.595 448.569,825.345 C448.569,816.095 444.519,809.895 437.419,809.895 C430.319,809.895 426.219,816.095 426.219,825.295 M444.869,825.345 C444.869,832.495 441.969,837.495 437.419,837.495 C432.869,837.495 429.919,832.495 429.919,825.345 C429.919,818.145 432.869,813.195 437.419,813.195 C441.969,813.195 444.869,818.145 444.869,825.345"/>
<path class="Lyrics" d="M1359.22,430.63 L1359.22,427.48 L1352.57,427.48 L1352.57,415.98 L1348.77,415.98 L1348.77,442.13 L1352.57,442.13 L1352.57,430.63 L1359.22,430.63 M1353.12,451.18 C1353.12,446.28 1348.07,442.829 1338.62,442.829 C1329.12,442.829 1324.17,446.18 1324.17,451.18 C1324.17,456.13 1329.12,459.48 1338.62,459.48 C1348.07,459.48 1353.12,456.079 1353.12,451.18 M1349.17,451.18 C1349.17,454.329 1345.22,456.329 1338.62,456.329 C1332.02,456.329 1328.12,454.28 1328.12,451.18 C1328.12,448.079 1332.02,446.03 1338.62,446.03 C1345.22,446.03 1349.17,448.03 1349.17,451.18 M1324.27,435.98 L1324.27,422.68 L1340.17,422.68 L1340.17,419.48 L1320.47,419.48 L1320.47,439.13 L1324.02,439.13 C1331.57,439.13 1339.67,438.48 1344.52,437.63 L1344.12,434.53 C1339.87,435.329 1332.47,435.98 1326.42,435.98 L1324.27,435.98 "/>
<path class="Lyrics" d="M1972.17,850.295 L1972.17,806.595 L1968.37,806.595 L1968.37,850.295 L1972.17,850.295 M1956.27,812.695 L1956.27,809.495 L1943.52,809.495 L1943.52,812.695 L1956.27,812.695 M1963.02,820.245 L1963.02,817.095 L1937.07,817.095 L1937.07,820.245 L1963.02,820.245 M1960.42,832.095 C1960.42,826.945 1956.32,823.045 1950.22,823.045 C1944.12,823.045 1940.02,826.995 1940.02,832.095 C1940.02,837.195 1944.12,841.095 1950.22,841.095 C1956.32,841.095 1960.42,837.145 1960.42,832.095 M1956.62,832.095 C1956.62,835.545 1954.02,837.995 1950.22,837.995 C1946.47,837.995 1943.77,835.545 1943.77,832.095 C1943.77,828.595 1946.47,826.195 1950.22,826.195 C1953.92,826.195 1956.62,828.595 1956.62,832.095"/>
<path class="Lyrics" d="M989.302,850.295 L989.302,806.595 L985.552,806.595 L985.552,823.995 L979.802,823.995 L979.802,807.645 L976.102,807.645 L976.102,848.045 L979.802,848.045 L979.802,827.195 L985.552,827.195 L985.552,850.295 L989.302,850.295 M973.152,834.095 C969.952,834.945 962.702,835.545 958.152,835.445 L958.152,811.395 L954.352,811.395 L954.352,838.745 L957.702,838.745 C963.252,838.745 969.952,838.145 973.602,837.295 L973.152,834.095 "/>
<path class="Lyrics" d="M1233.93,428.88 L1233.93,439.78 L1225.08,439.78 L1225.08,442.93 L1233.93,442.93 L1233.93,459.68 L1237.73,459.68 L1237.73,415.98 L1233.93,415.98 L1233.93,425.73 L1225.08,425.73 L1225.08,428.88 L1233.93,428.88 M1202.13,434.48 C1202.13,443.78 1206.03,449.93 1212.93,449.93 C1219.93,449.93 1223.78,443.78 1223.78,434.53 C1223.78,425.23 1219.93,419.03 1212.93,419.03 C1206.03,419.03 1202.13,425.23 1202.13,434.48 M1220.03,434.53 C1220.03,441.63 1217.23,446.63 1212.93,446.63 C1208.73,446.63 1205.88,441.63 1205.88,434.53 C1205.88,427.329 1208.73,422.329 1212.93,422.329 C1217.23,422.329 1220.03,427.329 1220.03,434.53"/>
<path class="Lyrics" d="M1233.55,824.195 C1226.85,823.445 1217.9,818.995 1217.7,812.845 L1231.75,812.845 L1231.75,809.695 L1199.55,809.695 L1199.55,812.845 L1213.7,812.845 C1213.5,818.945 1205.05,823.545 1197.9,824.295 L1199.65,827.495 C1207.1,826.245 1213.9,821.745 1215.65,817.645 C1217.65,821.745 1224.6,826.145 1231.75,827.395 L1233.55,824.195 M1217.5,850.295 L1217.5,834.645 L1235.4,834.645 L1235.4,831.445 L1195.95,831.445 L1195.95,834.645 L1213.7,834.645 L1213.7,850.295 L1217.5,850.295 "/>
<path class="Lyrics" d="M1166.98,433.579 C1160.28,432.829 1151.33,428.38 1151.13,422.23 L1165.18,422.23 L1165.18,419.079 L1132.98,419.079 L1132.98,422.23 L1147.13,422.23 C1146.93,428.329 1138.48,432.93 1131.33,433.68 L1133.08,436.88 C1140.53,435.63 1147.33,431.13 1149.08,427.03 C1151.08,431.13 1158.03,435.53 1165.18,436.78 L1166.98,433.579 M1150.93,459.68 L1150.93,444.03 L1168.83,444.03 L1168.83,440.829 L1129.38,440.829 L1129.38,444.03 L1147.13,444.03 L1147.13,459.68 L1150.93,459.68 "/>
<path class="Lyrics" d="M534.992,824.195 C528.292,823.445 519.342,818.995 519.142,812.845 L533.192,812.845 L533.192,809.695 L500.992,809.695 L500.992,812.845 L515.142,812.845 C514.942,818.945 506.492,823.545 499.342,824.295 L501.092,827.495 C508.542,826.245 515.342,821.745 517.092,817.645 C519.092,821.745 526.042,826.145 533.192,827.395 L534.992,824.195 M518.942,850.295 L518.942,834.645 L536.842,834.645 L536.842,831.445 L497.392,831.445 L497.392,834.645 L515.142,834.645 L515.142,850.295 L518.942,850.295 "/>
<path class="Lyrics" d="M1011.74,459.68 L1011.74,415.98 L1007.94,415.98 L1007.94,431.579 L997.743,431.579 L997.743,434.78 L1007.94,434.78 L1007.94,459.68 L1011.74,459.68 M1002.04,446.329 C996.043,442.829 990.843,435.73 990.843,427.73 L990.843,419.78 L986.893,419.78 L986.893,427.88 C986.893,435.63 981.843,443.38 975.493,447.38 L977.993,450.23 C983.043,446.579 987.343,441.18 988.893,435.73 C990.643,440.98 995.693,446.53 999.693,449.23 L1002.04,446.329 "/>
<path class="Lyrics" d="M479.562,443.43 C474.812,444.579 466.262,445.23 458.762,445.28 L458.762,420.329 L454.962,420.329 L454.962,448.63 L457.612,448.63 C464.262,448.63 474.762,447.88 480.112,446.63 L479.562,443.43 M487.062,415.98 L483.262,415.98 L483.262,459.68 L487.062,459.68 L487.062,436.579 L494.212,436.579 L494.212,433.329 L487.062,433.329 L487.062,415.98 "/>
<path class="Lyrics" d="M1129.26,830.245 L1129.26,827.095 L1110.21,827.095 L1110.21,818.695 L1106.36,818.695 L1106.36,827.095 L1089.81,827.095 L1089.81,830.245 L1129.26,830.245 M1125.91,847.095 C1118.51,846.445 1110.91,840.545 1110.91,835.545 L1110.91,833.695 L1107.01,833.695 L1107.01,835.545 C1107.01,840.595 1100.01,846.395 1092.01,847.045 C1092.61,848.095 1093.26,849.095 1093.91,850.145 C1100.01,849.095 1106.96,844.995 1108.86,840.645 C1111.01,844.795 1117.66,849.245 1124.06,850.245 C1124.66,849.245 1125.31,848.195 1125.91,847.095 M1124.06,808.745 L1094.56,808.745 L1094.56,811.845 L1120.16,811.845 L1120.11,815.595 C1120.06,817.595 1119.71,821.245 1119.06,823.595 L1122.76,824.145 C1123.51,821.395 1124.01,816.645 1124.06,812.995 L1124.06,808.745 "/>
<path class="Lyrics" d="M333.121,1233.04 L333.121,1217.94 L305.671,1217.94 L305.671,1233.04 L333.121,1233.04 M299.771,1196.49 L309.821,1196.49 C309.821,1197.59 309.771,1198.39 309.771,1198.84 C309.571,1204.64 304.021,1210.14 298.521,1212.24 L300.721,1215.19 C305.421,1213.19 310.521,1208.49 311.721,1204.39 C313.521,1208.34 317.971,1212.29 322.171,1213.99 L324.271,1210.94 C319.271,1209.29 314.071,1204.49 313.721,1198.89 C313.671,1198.39 313.671,1197.59 313.671,1196.49 L323.621,1196.49 L323.621,1193.29 L299.771,1193.29 L299.771,1196.49 M329.321,1229.89 L309.471,1229.89 L309.471,1221.04 L329.321,1221.04 L329.321,1229.89 M339.721,1204.39 L339.721,1201.19 L333.071,1201.19 L333.071,1189.99 L329.271,1189.99 L329.271,1215.64 L333.071,1215.64 L333.071,1204.39 L339.721,1204.39 "/>
<path class="Lyrics" d="M635.615,828.195 C628.415,826.795 619.415,820.495 619.415,812.995 L619.415,809.845 L615.465,809.845 L615.465,812.995 C615.465,820.495 606.965,826.745 599.315,828.195 L601.315,831.245 C608.965,829.145 615.715,823.745 617.365,818.745 C619.265,823.645 625.865,829.095 633.515,831.245 L635.615,828.195 M637.165,844.745 L637.165,841.545 L619.265,841.545 L619.265,830.345 L615.465,830.345 L615.465,841.545 L597.715,841.545 L597.715,844.745 L637.165,844.745 "/>
<path class="Lyrics" d="M893.34,437.579 C886.14,436.18 877.14,429.88 877.14,422.38 L877.14,419.23 L873.19,419.23 L873.19,422.38 C873.19,429.88 864.69,436.13 857.04,437.579 L859.04,440.63 C866.69,438.53 873.44,433.13 875.09,428.13 C876.99,433.03 883.59,438.48 891.24,440.63 L893.34,437.579 M894.89,454.13 L894.89,450.93 L876.99,450.93 L876.99,439.73 L873.19,439.73 L873.19,450.93 L855.44,450.93 L855.44,454.13 L894.89,454.13 "/>
<path class="Lyrics" d="M811.276,433.579 C804.576,432.829 795.626,428.38 795.426,422.23 L809.476,422.23 L809.476,419.079 L777.276,419.079 L777.276,422.23 L791.426,422.23 C791.226,428.329 782.776,432.93 775.626,433.68 L777.376,436.88 C784.826,435.63 791.626,431.13 793.376,427.03 C795.376,431.13 802.326,435.53 809.476,436.78 L811.276,433.579 M795.226,459.68 L795.226,444.03 L813.126,444.03 L813.126,440.829 L773.676,440.829 L773.676,444.03 L791.426,444.03 L791.426,459.68 L795.226,459.68 "/>
<path class="Lyrics" d="M639.232,1214.89 L639.232,1211.74 L613.282,1211.74 L613.282,1197.49 L638.832,1197.49 L638.832,1194.34 L609.482,1194.34 L609.482,1214.89 L639.232,1214.89 M643.982,1227.69 L643.982,1224.49 L604.532,1224.49 L604.532,1227.69 L643.982,1227.69 "/>
<path class="Lyrics" d="M721.326,434.48 C721.326,443.78 725.326,449.93 732.376,449.93 C739.026,449.93 742.926,444.43 743.326,436.03 L752.676,436.03 L752.676,459.68 L756.476,459.68 L756.476,415.98 L752.676,415.98 L752.676,432.78 L743.326,432.78 C742.826,424.48 738.976,419.03 732.376,419.03 C725.326,419.03 721.326,425.23 721.326,434.48 M739.626,434.53 C739.626,441.63 736.676,446.63 732.376,446.63 C728.026,446.63 725.126,441.63 725.126,434.53 C725.126,427.329 728.026,422.329 732.376,422.329 C736.676,422.329 739.626,427.329 739.626,434.53"/>
<path class="Lyrics" d="M772.576,850.295 L772.576,806.595 L768.776,806.595 L768.776,822.195 L758.576,822.195 L758.576,825.395 L768.776,825.395 L768.776,850.295 L772.576,850.295 M762.876,836.945 C756.876,833.445 751.676,826.345 751.676,818.345 L751.676,810.395 L747.726,810.395 L747.726,818.495 C747.726,826.245 742.676,833.995 736.326,837.995 L738.826,840.845 C743.876,837.195 748.176,831.795 749.726,826.345 C751.476,831.595 756.526,837.145 760.526,839.845 L762.876,836.945 "/>
<path class="Lyrics" d="M801.768,1233.09 L801.768,1216.34 L797.968,1216.34 L797.968,1221.54 L777.368,1221.54 L777.368,1216.39 L773.568,1216.39 L773.568,1233.09 L801.768,1233.09 M801.718,1214.34 L801.718,1189.99 L797.918,1189.99 L797.918,1196.29 L789.918,1196.29 L789.918,1199.44 L797.918,1199.44 L797.918,1204.64 L789.918,1204.64 L789.918,1207.79 L797.918,1207.79 L797.918,1214.34 L801.718,1214.34 M797.968,1229.94 L777.368,1229.94 L777.368,1224.64 L797.968,1224.64 L797.968,1229.94 M788.968,1208.99 C784.818,1209.74 780.318,1209.94 775.818,1209.94 L771.568,1209.94 L771.568,1203.89 L787.068,1203.89 L787.068,1192.19 L767.668,1192.19 L767.668,1195.34 L783.268,1195.34 L783.268,1200.79 L767.718,1200.79 L767.718,1213.04 L773.968,1213.04 C779.718,1213.04 785.268,1212.79 789.468,1212.09 L788.968,1208.99 "/>
<path class="Lyrics" d="M651.367,458.88 L651.367,455.73 L624.267,455.73 L624.267,450.68 L649.667,450.68 L649.667,439.88 L620.167,439.88 L620.167,442.88 L645.867,442.88 L645.867,447.88 L620.467,447.88 L620.467,458.88 L651.367,458.88 M650.017,417.98 L636.517,417.98 L636.517,421.13 L646.117,421.13 C646.117,424.88 645.717,428.63 644.717,432.18 L631.217,432.18 C632.267,428.18 633.067,423.28 633.067,417.98 L619.117,417.98 L619.117,421.13 L629.117,421.13 C629.117,424.78 628.317,429.13 627.367,432.18 L615.517,432.18 L615.517,435.329 L654.967,435.329 L654.967,432.18 L648.517,432.18 C649.467,428.03 650.017,423.23 650.017,417.98"/>
<path class="Lyrics" d="M548.831,439.28 L548.831,436.329 L509.381,436.329 L509.381,439.28 L548.831,439.28 M545.531,458.88 L545.531,455.88 L517.731,455.88 L517.731,451.88 L544.181,451.88 L544.181,442.73 L513.981,442.73 L513.981,445.53 L540.381,445.53 L540.381,449.18 L513.931,449.18 L513.931,458.88 L545.531,458.88 M544.781,432.88 L544.781,430.03 L518.181,430.03 L518.181,426.579 L543.931,426.579 L543.931,417.43 L514.331,417.43 L514.331,420.43 L540.131,420.43 L540.131,423.829 L514.381,423.829 L514.381,432.88 L544.781,432.88 "/>
<path class="Lyrics" d="M1041.9,1189.99 L1038.15,1189.99 L1038.15,1233.69 L1041.9,1233.69 L1041.9,1189.99 M1033.7,1217.64 C1028.5,1218.79 1018.4,1219.59 1012.8,1219.59 L1012.8,1194.54 L1008.95,1194.54 L1008.95,1222.94 L1010.9,1222.94 C1017.6,1222.94 1029,1222.09 1034.05,1220.94 L1033.7,1217.64 "/>
<path class="NoteDot" transform="matrix(0.992,0,0,0.992,663.742,297.2)" d="M0,0 C0,2.8 2.2,5 5,5 C7.8,5 10,2.8 10,0 C10,-2.8 7.8,-5 5,-5 C2.2,-5 0,-2.8 0,0"/>
<path class="NoteDot" transform="matrix(0.992,0,0,0.992,347.621,1103.2)" d="M0,0 C0,2.8 2.2,5 5,5 C7.8,5 10,2.8 10,0 C10,-2.8 7.8,-5 5,-5 C2.2,-5 0,-2.8 0,0"/>
<path class="NoteDot" transform="matrix(0.992,0,0,0.992,1022.13,322)" d="M0,0 C0,2.8 2.2,5 5,5 C7.8,5 10,2.8 10,0 C10,-2.8 7.8,-5 5,-5 C2.2,-5 0,-2.8 0,0"/>
<path class="NoteDot" transform="matrix(0.992,0,0,0.992,1368.35,346.8)" d="M0,0 C0,2.8 2.2,5 5,5 C7.8,5 10,2.8 10,0 C10,-2.8 7.8,-5 5,-5 C2.2,-5 0,-2.8 0,0"/>
<path class="NoteDot" transform="matrix(0.992,0,0,0.992,1331.34,1078.4)" d="M0,0 C0,2.8 2.2,5 5,5 C7.8,5 10,2.8 10,0 C10,-2.8 7.8,-5 5,-5 C2.2,-5 0,-2.8 0,0"/>
<path class="NoteDot" transform="matrix(0.992,0,0,0.992,1743.05,371.6)" d="M0,0 C0,2.8 2.2,5 5,5 C7.8,5 10,2.8 10,0 C10,-2.8 7.8,-5 5,-5 C2.2,-5 0,-2.8 0,0"/>
<path class="NoteDot" transform="matrix(0.992,0,0,0.992,347.621,712.6)" d="M0,0 C0,2.8 2.2,5 5,5 C7.8,5 10,2.8 10,0 C10,-2.8 7.8,-5 5,-5 C2.2,-5 0,-2.8 0,0"/>
<path class="NoteDot" transform="matrix(0.992,0,0,0.992,347.621,272.4)" d="M0,0 C0,2.8 2.2,5 5,5 C7.8,5 10,2.8 10,0 C10,-2.8 7.8,-5 5,-5 C2.2,-5 0,-2.8 0,0"/>
</svg>
