<?xml version="1.0" encoding="UTF-8" standalone="no"?>
<svg width="2098.8px" height="1418.4px" viewBox="0 0 2098.8 1418.4"
 xmlns="http://www.w3.org/2000/svg" xmlns:xlink="http://www.w3.org/1999/xlink" version="1.2" baseProfile="tiny">
<title>168 아버지 뜻대로.musicxml (2)</title>
<desc>Generated by MuseScore 4.2.1</desc>
<polyline class="StaffLines" fill="none" stroke="#000000" stroke-width="2.73" stroke-linejoin="bevel" points="104.4,278 1994.4,278"/>
<polyline class="StaffLines" fill="none" stroke="#000000" stroke-width="2.73" stroke-linejoin="bevel" points="104.4,302.8 1994.4,302.8"/>
<polyline class="StaffLines" fill="none" stroke="#000000" stroke-width="2.73" stroke-linejoin="bevel" points="104.4,327.6 1994.4,327.6"/>
<polyline class="StaffLines" fill="none" stroke="#000000" stroke-width="2.73" stroke-linejoin="bevel" points="104.4,352.4 1994.4,352.4"/>
<polyline class="StaffLines" fill="none" stroke="#000000" stroke-width="2.73" stroke-linejoin="bevel" points="104.4,377.2 1994.4,377.2"/>
<polyline class="StaffLines" fill="none" stroke="#000000" stroke-width="2.73" stroke-linejoin="bevel" points="104.4,659.6 1994.4,659.6"/>
<polyline class="StaffLines" fill="none" stroke="#000000" stroke-width="2.73" stroke-linejoin="bevel" points="104.4,684.4 1994.4,684.4"/>
<polyline class="StaffLines" fill="none" stroke="#000000" stroke-width="2.73" stroke-linejoin="bevel" points="104.4,709.2 1994.4,709.2"/>
<polyline class="StaffLines" fill="none" stroke="#000000" stroke-width="2.73" stroke-linejoin="bevel" points="104.4,734 1994.4,734"/>
<polyline class="StaffLines" fill="none" stroke="#000000" stroke-width="2.73" stroke-linejoin="bevel" points="104.4,758.8 1994.4,758.8"/>
<polyline class="StaffLines" fill="none" stroke="#000000" stroke-width="2.73" stroke-linejoin="bevel" points="104.4,1041.2 1994.4,1041.2"/>
<polyline class="StaffLines" fill="none" stroke="#000000" stroke-width="2.73" stroke-linejoin="bevel" points="104.4,1066 1994.4,1066"/>
<polyline class="StaffLines" fill="none" stroke="#000000" stroke-width="2.73" stroke-linejoin="bevel" points="104.4,1090.8 1994.4,1090.8"/>
<polyline class="StaffLines" fill="none" stroke="#000000" stroke-width="2.73" stroke-linejoin="bevel" points="104.4,1115.6 1994.4,1115.6"/>
<polyline class="StaffLines" fill="none" stroke="#000000" stroke-width="2.73" stroke-linejoin="bevel" points="104.4,1140.4 1994.4,1140.4"/>
<path class="MeasureNumber" d="M120.76,200.08 L119.6,200.08 C117.4,201.72 113.16,203.12 110.28,203.12 L109.8,204.88 L112.56,204.88 C115,204.88 115.28,204.96 115.28,205.68 C115.28,206.04 115.28,206.04 114.88,207.48 L110.6,223.48 C110.08,225.48 110.04,225.6 109.68,225.96 C109.28,226.36 108.44,226.48 106.32,226.52 L104.6,226.52 L104.4,228.4 L119.2,228.4 L119.44,226.52 L117.28,226.52 C114.68,226.52 114.12,226.32 114.12,225.44 C114.12,225.16 114.28,224.24 114.48,223.48 L120.76,200.08 M138.234,213.84 C140.114,213.24 140.874,212.92 141.834,212.28 C143.714,211.04 144.874,208.84 144.874,206.6 C144.874,202.8 141.834,200.24 137.354,200.24 C132.994,200.24 129.314,202.96 129.314,206.24 C129.314,207.88 130.314,209 131.834,209 C133.154,209 134.114,208.04 134.114,206.72 C134.114,206.04 133.914,205.56 133.274,204.92 C132.874,204.56 132.714,204.28 132.714,204 C132.714,203.04 134.714,202.04 136.594,202.04 C139.274,202.04 140.874,203.52 140.874,206 C140.874,209.56 138.354,212.92 135.674,212.92 C135.554,212.92 135.194,212.88 134.754,212.84 C133.594,212.76 133.594,212.76 133.354,212.76 C132.474,212.76 131.994,213.16 131.994,213.88 C131.994,214.52 132.434,214.92 133.154,214.92 C133.354,214.92 133.634,214.88 133.954,214.84 C134.514,214.72 135.114,214.68 135.474,214.68 C137.354,214.68 138.634,216.36 138.634,218.84 C138.634,223.16 136.514,227.32 131.674,227.32 C129.434,227.32 127.514,226.2 127.514,224.92 C127.514,224.48 127.674,224.32 128.314,224.04 C129.474,223.52 129.954,222.8 129.954,221.72 C129.954,220.32 128.834,219.24 127.394,219.24 C125.674,219.24 124.554,220.6 124.554,222.68 C124.554,226.56 127.514,229 132.314,229 C138.354,229 142.954,224.96 142.954,219.6 C142.954,216.48 141.034,214.72 138.234,213.84"/>
<path class="MeasureNumber" d="M120.76,581.68 L119.6,581.68 C117.4,583.32 113.16,584.72 110.28,584.72 L109.8,586.48 L112.56,586.48 C115,586.48 115.28,586.56 115.28,587.28 C115.28,587.64 115.28,587.64 114.88,589.08 L110.6,605.08 C110.08,607.08 110.04,607.2 109.68,607.56 C109.28,607.96 108.44,608.08 106.32,608.12 L104.6,608.12 L104.4,610 L119.2,610 L119.44,608.12 L117.28,608.12 C114.68,608.12 114.12,607.92 114.12,607.04 C114.12,606.76 114.28,605.84 114.48,605.08 L120.76,581.68 M147.074,581.84 C144.954,582.08 142.354,582.24 140.114,582.24 C138.994,582.24 137.714,582.2 136.274,582.12 C134.954,582.04 133.634,581.96 132.274,581.88 L131.274,581.84 L127.394,590.28 L128.874,590.76 L129.834,589.16 C131.714,586.04 132.594,585.6 136.674,585.64 L143.434,585.64 L139.074,591.88 C133.954,599.08 133.954,599.08 131.994,602.28 C130.234,605.12 129.514,606.88 129.514,608.32 C129.514,609.72 130.394,610.6 131.794,610.6 C133.274,610.6 134.034,609.88 134.554,608 C136.554,600.48 137.754,597.88 143.314,588.88 L147.074,583.04 L147.074,581.84 "/>
<path class="MeasureNumber" d="M123.191,983.32 L122.151,985.16 C120.551,987.92 120.231,988.16 118.191,988.2 L108.911,988.2 C109.871,986.92 111.631,985.44 114.831,983.2 C120.111,979.56 120.471,979.32 121.591,978.44 C124.791,975.96 126.111,973.6 126.111,970.44 C126.111,966.24 122.991,963.44 118.391,963.44 C113.271,963.44 108.831,967.2 108.831,971.56 C108.831,973.8 110.031,975.24 111.951,975.24 C113.391,975.24 114.511,974.16 114.511,972.68 C114.511,971.64 113.991,970.96 112.671,970.24 C111.711,969.76 111.551,969.56 111.551,969.08 C111.551,967.36 114.511,965.44 117.231,965.44 C120.031,965.44 121.911,967.32 121.911,970.12 C121.911,973.12 120.591,975.32 116.991,978.44 C106.351,987.68 104.751,989.36 104.391,991.6 L121.551,991.6 L124.631,983.88 L123.191,983.32 M146.385,963.28 L145.225,963.28 C143.025,964.92 138.785,966.32 135.905,966.32 L135.425,968.08 L138.185,968.08 C140.625,968.08 140.905,968.16 140.905,968.88 C140.905,969.24 140.905,969.24 140.505,970.68 L136.225,986.68 C135.705,988.68 135.665,988.8 135.305,989.16 C134.905,989.56 134.065,989.68 131.945,989.72 L130.225,989.72 L130.025,991.6 L144.825,991.6 L145.065,989.72 L142.905,989.72 C140.305,989.72 139.745,989.52 139.745,988.64 C139.745,988.36 139.905,987.44 140.105,986.68 L146.385,963.28 "/>
<path class="TieSegment" stroke="#000000" stroke-width="1.24" stroke-linecap="round" stroke-linejoin="round" fill-rule="evenodd" d="M636.853,1133.8 C665.094,1153.39 749.815,1153.39 778.055,1133.8 C749.815,1161.33 665.094,1161.33 636.853,1133.8"/>
<polyline class="BarLine" fill="none" stroke="#000000" stroke-width="4.46" stroke-linejoin="bevel" points="536.315,658.236 536.315,760.164"/>
<polyline class="BarLine" fill="none" stroke="#000000" stroke-width="4.46" stroke-linejoin="bevel" points="1992.17,1039.84 1992.17,1141.76"/>
<polyline class="BarLine" fill="none" stroke="#000000" stroke-width="4.46" stroke-linejoin="bevel" points="1992.17,276.636 1992.17,378.564"/>
<polyline class="BarLine" fill="none" stroke="#000000" stroke-width="4.46" stroke-linejoin="bevel" points="1007.2,658.236 1007.2,760.164"/>
<polyline class="BarLine" fill="none" stroke="#000000" stroke-width="4.46" stroke-linejoin="bevel" points="1493.22,658.236 1493.22,760.164"/>
<polyline class="BarLine" fill="none" stroke="#000000" stroke-width="4.46" stroke-linejoin="bevel" points="1469,276.636 1469,378.564"/>
<polyline class="BarLine" fill="none" stroke="#000000" stroke-width="4.46" stroke-linejoin="bevel" points="1992.17,658.236 1992.17,760.164"/>
<polyline class="BarLine" fill="none" stroke="#000000" stroke-width="4.46" stroke-linejoin="bevel" points="570.391,1039.84 570.391,1141.76"/>
<polyline class="BarLine" fill="none" stroke="#000000" stroke-width="4.46" stroke-linejoin="bevel" points="1040.93,276.636 1040.93,378.564"/>
<polyline class="BarLine" fill="none" stroke="#000000" stroke-width="4.46" stroke-linejoin="bevel" points="1031.85,1039.84 1031.85,1141.76"/>
<polyline class="BarLine" fill="none" stroke="#000000" stroke-width="4.46" stroke-linejoin="bevel" points="1463.79,1039.84 1463.79,1141.76"/>
<polyline class="BarLine" fill="none" stroke="#000000" stroke-width="4.46" stroke-linejoin="bevel" points="567.298,276.636 567.298,378.564"/>
<path class="Accidental" transform="matrix(0.992,0,0,0.992,585.65,352.4)" d="M23.3,-10.5 C23.9,-10.6 24.4,-11.3 24.4,-11.9 L24.4,-17.8 C24.4,-18.8 23.7,-19.2 22.8,-19.2 L19.5,-18.5 L19.5,-33.4 L16.7,-33.4 L16.7,-17.9 L7.8,-16.1 L7.8,-30.2 L5,-30.2 L5,-15.5 L1.1,-14.7 C0.5,-14.6 0,-13.9 0,-13.3 L0,-7.5 C0,-6.4 0.8,-6.1 1.7,-6.1 L5,-6.8 L5,9.7 L1.1,10.5 C0.5,10.6 0,11.3 0,11.9 L0,17.7 C0,18.8 0.8,19.1 1.7,19.1 L5,18.4 L5,33.3 L7.8,33.3 L7.8,17.8 L16.7,16 L16.7,30.1 L19.5,30.1 L19.5,15.4 L23.3,14.7 C23.9,14.6 24.4,13.9 24.4,13.3 L24.4,7.4 C24.4,6.4 23.7,6 22.8,6 L19.5,6.7 L19.5,-9.8 L23.3,-10.5 M7.8,-7.4 L16.7,-9.2 L16.7,7.3 L7.8,9.2 L7.8,-7.4 "/>
<path class="Accidental" transform="matrix(0.992,0,0,0.992,588.743,1115.6)" d="M23.3,-10.5 C23.9,-10.6 24.4,-11.3 24.4,-11.9 L24.4,-17.8 C24.4,-18.8 23.7,-19.2 22.8,-19.2 L19.5,-18.5 L19.5,-33.4 L16.7,-33.4 L16.7,-17.9 L7.8,-16.1 L7.8,-30.2 L5,-30.2 L5,-15.5 L1.1,-14.7 C0.5,-14.6 0,-13.9 0,-13.3 L0,-7.5 C0,-6.4 0.8,-6.1 1.7,-6.1 L5,-6.8 L5,9.7 L1.1,10.5 C0.5,10.6 0,11.3 0,11.9 L0,17.7 C0,18.8 0.8,19.1 1.7,19.1 L5,18.4 L5,33.3 L7.8,33.3 L7.8,17.8 L16.7,16 L16.7,30.1 L19.5,30.1 L19.5,15.4 L23.3,14.7 C23.9,14.6 24.4,13.9 24.4,13.3 L24.4,7.4 C24.4,6.4 23.7,6 22.8,6 L19.5,6.7 L19.5,-9.8 L23.3,-10.5 M7.8,-7.4 L16.7,-9.2 L16.7,7.3 L7.8,9.2 L7.8,-7.4 "/>
<polyline class="LedgerLine" fill="none" stroke="#000000" stroke-width="3.97" stroke-linejoin="bevel" points="456.467,783.6 505.067,783.6"/>
<polyline class="LedgerLine" fill="none" stroke="#000000" stroke-width="3.97" stroke-linejoin="bevel" points="400.352,783.6 448.952,783.6"/>
<polyline class="LedgerLine" fill="none" stroke="#000000" stroke-width="3.97" stroke-linejoin="bevel" points="1687.86,783.6 1736.46,783.6"/>
<polyline class="Stem" fill="none" stroke="#000000" stroke-width="2.48" stroke-linejoin="bevel" points="1000.26,323.632 1000.26,259.515"/>
<polyline class="Stem" fill="none" stroke="#000000" stroke-width="2.48" stroke-linejoin="bevel" points="796.3,1111.63 796.3,1041.31"/>
<polyline class="Stem" fill="none" stroke="#000000" stroke-width="2.48" stroke-linejoin="bevel" points="650.138,1111.63 650.138,1028.8"/>
<polyline class="Stem" fill="none" stroke="#000000" stroke-width="2.48" stroke-linejoin="bevel" points="526.626,348.432 526.626,278"/>
<polyline class="Stem" fill="none" stroke="#000000" stroke-width="2.48" stroke-linejoin="bevel" points="861.261,1136.43 861.261,1047.29"/>
<polyline class="Stem" fill="none" stroke="#000000" stroke-width="2.48" stroke-linejoin="bevel" points="1076.64,319.366 1076.64,395.8"/>
<polyline class="Stem" fill="none" stroke="#000000" stroke-width="2.48" stroke-linejoin="bevel" points="926.222,1111.63 926.222,1028.69"/>
<polyline class="Stem" fill="none" stroke="#000000" stroke-width="2.48" stroke-linejoin="bevel" points="1596.94,1082.57 1596.94,1146.6"/>
<polyline class="Stem" fill="none" stroke="#000000" stroke-width="2.48" stroke-linejoin="bevel" points="529.719,1111.63 529.719,1041.2"/>
<polyline class="Stem" fill="none" stroke="#000000" stroke-width="2.48" stroke-linejoin="bevel" points="464.758,1111.63 464.758,1041.2"/>
<polyline class="Stem" fill="none" stroke="#000000" stroke-width="2.48" stroke-linejoin="bevel" points="1198.64,331.766 1198.64,408.101"/>
<polyline class="Stem" fill="none" stroke="#000000" stroke-width="2.48" stroke-linejoin="bevel" points="279.473,1111.63 279.473,1028.8"/>
<polyline class="Stem" fill="none" stroke="#000000" stroke-width="2.48" stroke-linejoin="bevel" points="1661.9,1082.57 1661.9,1146.6"/>
<polyline class="Stem" fill="none" stroke="#000000" stroke-width="2.48" stroke-linejoin="bevel" points="1262.8,319.366 1262.8,395.8"/>
<polyline class="Stem" fill="none" stroke="#000000" stroke-width="2.48" stroke-linejoin="bevel" points="936.099,336.032 936.099,265.485"/>
<polyline class="Stem" fill="none" stroke="#000000" stroke-width="2.48" stroke-linejoin="bevel" points="1726.86,1082.57 1726.86,1152.91"/>
<polyline class="Stem" fill="none" stroke="#000000" stroke-width="2.48" stroke-linejoin="bevel" points="1951.5,730.032 1951.5,659.731"/>
<polyline class="Stem" fill="none" stroke="#000000" stroke-width="2.48" stroke-linejoin="bevel" points="1895.38,742.432 1895.38,665.669"/>
<polyline class="Stem" fill="none" stroke="#000000" stroke-width="2.48" stroke-linejoin="bevel" points="1414.55,336.032 1414.55,259.598"/>
<polyline class="Stem" fill="none" stroke="#000000" stroke-width="2.48" stroke-linejoin="bevel" points="1839.27,754.832 1839.27,684.269"/>
<polyline class="Stem" fill="none" stroke="#000000" stroke-width="2.48" stroke-linejoin="bevel" points="1783.15,742.432 1783.15,678.331"/>
<polyline class="Stem" fill="none" stroke="#000000" stroke-width="2.48" stroke-linejoin="bevel" points="462.468,348.432 462.468,278"/>
<polyline class="Stem" fill="none" stroke="#000000" stroke-width="2.48" stroke-linejoin="bevel" points="991.183,1086.83 991.183,1022.71"/>
<polyline class="Stem" fill="none" stroke="#000000" stroke-width="2.48" stroke-linejoin="bevel" points="1504.72,319.366 1504.72,395.8"/>
<polyline class="Stem" fill="none" stroke="#000000" stroke-width="2.48" stroke-linejoin="bevel" points="1499.5,1082.57 1499.5,1159"/>
<polyline class="Stem" fill="none" stroke="#000000" stroke-width="2.48" stroke-linejoin="bevel" points="1727.03,779.632 1727.03,709.069"/>
<polyline class="Stem" fill="none" stroke="#000000" stroke-width="2.48" stroke-linejoin="bevel" points="1600.95,319.366 1600.95,383.4"/>
<polyline class="Stem" fill="none" stroke="#000000" stroke-width="2.48" stroke-linejoin="bevel" points="1670.92,767.232 1670.92,703.131"/>
<polyline class="Stem" fill="none" stroke="#000000" stroke-width="2.48" stroke-linejoin="bevel" points="1614.8,754.832 1614.8,684.269"/>
<polyline class="Stem" fill="none" stroke="#000000" stroke-width="2.48" stroke-linejoin="bevel" points="1558.69,742.432 1558.69,678.331"/>
<polyline class="Stem" fill="none" stroke="#000000" stroke-width="2.48" stroke-linejoin="bevel" points="1665.11,319.366 1665.11,383.4"/>
<polyline class="Stem" fill="none" stroke="#000000" stroke-width="2.48" stroke-linejoin="bevel" points="839.862,373.232 839.862,290.4"/>
<polyline class="Stem" fill="none" stroke="#000000" stroke-width="2.48" stroke-linejoin="bevel" points="1791.82,1094.97 1791.82,1158.89"/>
<polyline class="Stem" fill="none" stroke="#000000" stroke-width="2.48" stroke-linejoin="bevel" points="1729.27,319.366 1729.27,389.715"/>
<polyline class="Stem" fill="none" stroke="#000000" stroke-width="2.48" stroke-linejoin="bevel" points="1438.77,754.832 1438.77,672.198"/>
<polyline class="Stem" fill="none" stroke="#000000" stroke-width="2.48" stroke-linejoin="bevel" points="1382.65,730.032 1382.65,647.398"/>
<polyline class="Stem" fill="none" stroke="#000000" stroke-width="2.48" stroke-linejoin="bevel" points="1298.48,717.632 1298.48,641"/>
<polyline class="Stem" fill="none" stroke="#000000" stroke-width="2.48" stroke-linejoin="bevel" points="1793.43,331.766 1793.43,395.685"/>
<polyline class="Stem" fill="none" stroke="#000000" stroke-width="2.48" stroke-linejoin="bevel" points="1227.66,754.832 1227.66,672.198"/>
<polyline class="Stem" fill="none" stroke="#000000" stroke-width="2.48" stroke-linejoin="bevel" points="1143.48,730.032 1143.48,647.2"/>
<polyline class="Stem" fill="none" stroke="#000000" stroke-width="2.48" stroke-linejoin="bevel" points="1887.34,336.032 1887.34,265.485"/>
<polyline class="Stem" fill="none" stroke="#000000" stroke-width="2.48" stroke-linejoin="bevel" points="1072.67,730.032 1072.67,647.398"/>
<polyline class="Stem" fill="none" stroke="#000000" stroke-width="2.48" stroke-linejoin="bevel" points="1067.57,1070.17 1067.57,1152.8"/>
<polyline class="Stem" fill="none" stroke="#000000" stroke-width="2.48" stroke-linejoin="bevel" points="1856.78,1082.57 1856.78,1146.49"/>
<polyline class="Stem" fill="none" stroke="#000000" stroke-width="2.48" stroke-linejoin="bevel" points="1951.5,323.632 1951.5,259.515"/>
<polyline class="Stem" fill="none" stroke="#000000" stroke-width="2.48" stroke-linejoin="bevel" points="966.529,717.632 966.529,647.069"/>
<polyline class="Stem" fill="none" stroke="#000000" stroke-width="2.48" stroke-linejoin="bevel" points="910.414,705.232 910.414,641.131"/>
<polyline class="Stem" fill="none" stroke="#000000" stroke-width="2.48" stroke-linejoin="bevel" points="1921.74,1070.17 1921.74,1140.51"/>
<polyline class="Stem" fill="none" stroke="#000000" stroke-width="2.48" stroke-linejoin="bevel" points="769.042,373.232 769.042,290.598"/>
<polyline class="Stem" fill="none" stroke="#000000" stroke-width="2.48" stroke-linejoin="bevel" points="279.473,348.432 279.473,265.6"/>
<polyline class="Stem" fill="none" stroke="#000000" stroke-width="2.48" stroke-linejoin="bevel" points="824.546,700.966 824.546,771.331"/>
<polyline class="Stem" fill="none" stroke="#000000" stroke-width="2.48" stroke-linejoin="bevel" points="768.431,713.366 768.431,777.269"/>
<polyline class="Stem" fill="none" stroke="#000000" stroke-width="2.48" stroke-linejoin="bevel" points="249.72,700.966 249.72,777.4"/>
<polyline class="Stem" fill="none" stroke="#000000" stroke-width="2.48" stroke-linejoin="bevel" points="742.068,717.632 742.068,653.4"/>
<polyline class="Stem" fill="none" stroke="#000000" stroke-width="2.48" stroke-linejoin="bevel" points="685.952,717.632 685.952,653.4"/>
<polyline class="Stem" fill="none" stroke="#000000" stroke-width="2.48" stroke-linejoin="bevel" points="601.78,717.632 601.78,641"/>
<polyline class="Stem" fill="none" stroke="#000000" stroke-width="2.48" stroke-linejoin="bevel" points="439.528,779.632 439.528,709.2"/>
<polyline class="Stem" fill="none" stroke="#000000" stroke-width="2.48" stroke-linejoin="bevel" points="1191.09,1082.57 1191.09,1158.9"/>
<polyline class="Stem" fill="none" stroke="#000000" stroke-width="2.48" stroke-linejoin="bevel" points="1256.05,1082.57 1256.05,1159"/>
<polyline class="Stem" fill="none" stroke="#000000" stroke-width="2.48" stroke-linejoin="bevel" points="1409.33,1099.23 1409.33,1022.8"/>
<polyline class="Stem" fill="none" stroke="#000000" stroke-width="2.48" stroke-linejoin="bevel" points="647.045,348.432 647.045,265.6"/>
<polyline class="Stem" fill="none" stroke="#000000" stroke-width="2.48" stroke-linejoin="bevel" points="495.643,779.632 495.643,709.2"/>
<path class="Note" transform="matrix(0.992,0,0,0.992,1112.49,734)" d="M0,4.2 C0,8.5 3.1,13.3 11.2,13.3 C21.6,13.3 32.5,4.8 32.5,-4 C32.5,-9.9 27.5,-13.2 21.3,-13.2 C11.6,-13.2 0,-5 0,4.2"/>
<path class="Note" transform="matrix(0.992,0,0,0.992,464.651,783.6)" d="M0,4.2 C0,8.5 3.1,13.3 11.2,13.3 C21.6,13.3 32.5,4.8 32.5,-4 C32.5,-9.9 27.5,-13.2 21.3,-13.2 C11.6,-13.2 0,-5 0,4.2"/>
<path class="Note" transform="matrix(0.992,0,0,0.992,1790.58,1090.8)" d="M0,4.2 C0,8.5 3.1,13.3 11.2,13.3 C21.6,13.3 32.5,4.8 32.5,-4 C32.5,-9.9 27.5,-13.2 21.3,-13.2 C11.6,-13.2 0,-5 0,4.2"/>
<path class="Note" transform="matrix(0.992,0,0,0.992,1725.62,1078.4)" d="M0,4.2 C0,8.5 3.1,13.3 11.2,13.3 C21.6,13.3 32.5,4.8 32.5,-4 C32.5,-9.9 27.5,-13.2 21.3,-13.2 C11.6,-13.2 0,-5 0,4.2"/>
<path class="Note" transform="matrix(0.992,0,0,0.992,408.536,783.6)" d="M0,4.2 C0,8.5 3.1,13.3 11.2,13.3 C21.6,13.3 32.5,4.8 32.5,-4 C32.5,-9.9 27.5,-13.2 21.3,-13.2 C11.6,-13.2 0,-5 0,4.2"/>
<path class="Note" transform="matrix(0.992,0,0,0.992,431.476,352.4)" d="M0,4.2 C0,8.5 3.1,13.3 11.2,13.3 C21.6,13.3 32.5,4.8 32.5,-4 C32.5,-9.9 27.5,-13.2 21.3,-13.2 C11.6,-13.2 0,-5 0,4.2"/>
<path class="Note" transform="matrix(0.992,0,0,0.992,570.787,721.6)" d="M0,4.2 C0,8.5 3.1,13.3 11.2,13.3 C21.6,13.3 32.5,4.8 32.5,-4 C32.5,-9.9 27.5,-13.2 21.3,-13.2 C11.6,-13.2 0,-5 0,4.2"/>
<path class="Note" transform="matrix(0.992,0,0,0.992,1660.66,1078.4)" d="M0,4.2 C0,8.5 3.1,13.3 11.2,13.3 C21.6,13.3 32.5,4.8 32.5,-4 C32.5,-9.9 27.5,-13.2 21.3,-13.2 C11.6,-13.2 0,-5 0,4.2"/>
<path class="Note" transform="matrix(0.992,0,0,0.992,1595.7,1078.4)" d="M0,4.2 C0,8.5 3.1,13.3 11.2,13.3 C21.6,13.3 32.5,4.8 32.5,-4 C32.5,-9.9 27.5,-13.2 21.3,-13.2 C11.6,-13.2 0,-5 0,4.2"/>
<path class="Note" transform="matrix(0.992,0,0,0.992,654.96,721.6)" d="M0,4.2 C0,8.5 3.1,13.3 11.2,13.3 C21.6,13.3 32.5,4.8 32.5,-4 C32.5,-9.9 27.5,-13.2 21.3,-13.2 C11.6,-13.2 0,-5 0,4.2"/>
<path class="Note" transform="matrix(0.992,0,0,0.992,1498.26,1078.4)" d="M0,4.2 C0,8.5 3.1,13.3 11.2,13.3 C21.6,13.3 32.5,4.8 32.5,-4 C32.5,-9.9 27.5,-13.2 21.3,-13.2 C11.6,-13.2 0,-5 0,4.2"/>
<path class="Note" transform="matrix(0.992,0,0,0.992,495.634,352.4)" d="M0,4.2 C0,8.5 3.1,13.3 11.2,13.3 C21.6,13.3 32.5,4.8 32.5,-4 C32.5,-9.9 27.5,-13.2 21.3,-13.2 C11.6,-13.2 0,-5 0,4.2"/>
<path class="Note" transform="matrix(0.992,0,0,0.992,248.48,696.8)" d="M21.3,-13.2 C11.6,-13.2 0,-5.1 0,4.2 C0,8.5 3.1,13.3 11.2,13.3 C21.6,13.3 32.5,4.8 32.5,-4 C32.5,-9.9 27.5,-13.2 21.3,-13.2 M7.5,8.6 C4.2,8.6 3.5,5.9 3.5,5 C3.5,0.1 20.3,-8.5 25,-8.5 C27.4,-8.5 29,-7.1 29,-4.9 C29,0.1 12.1,8.6 7.5,8.6"/>
<path class="Note" transform="matrix(0.992,0,0,0.992,711.076,721.6)" d="M0,4.2 C0,8.5 3.1,13.3 11.2,13.3 C21.6,13.3 32.5,4.8 32.5,-4 C32.5,-9.9 27.5,-13.2 21.3,-13.2 C11.6,-13.2 0,-5 0,4.2"/>
<path class="Note" transform="matrix(0.992,0,0,0.992,616.053,352.4)" d="M0,4.2 C0,8.5 3.1,13.3 11.2,13.3 C21.6,13.3 32.5,4.8 32.5,-4 C32.5,-9.9 27.5,-13.2 21.3,-13.2 C11.6,-13.2 0,-5 0,4.2"/>
<path class="Note" transform="matrix(0.992,0,0,0.992,1378.33,1103.2)" d="M0,4.2 C0,8.5 3.1,13.3 11.2,13.3 C21.6,13.3 32.5,4.8 32.5,-4 C32.5,-9.9 27.5,-13.2 21.3,-13.2 C11.6,-13.2 0,-5 0,4.2"/>
<path class="Note" transform="matrix(0.992,0,0,0.992,767.191,709.2)" d="M0,4.2 C0,8.5 3.1,13.3 11.2,13.3 C21.6,13.3 32.5,4.8 32.5,-4 C32.5,-9.9 27.5,-13.2 21.3,-13.2 C11.6,-13.2 0,-5 0,4.2"/>
<path class="Note" transform="matrix(0.992,0,0,0.992,248.48,352.4)" d="M21.3,-13.2 C11.6,-13.2 0,-5.1 0,4.2 C0,8.5 3.1,13.3 11.2,13.3 C21.6,13.3 32.5,4.8 32.5,-4 C32.5,-9.9 27.5,-13.2 21.3,-13.2 M7.5,8.6 C4.2,8.6 3.5,5.9 3.5,5 C3.5,0.1 20.3,-8.5 25,-8.5 C27.4,-8.5 29,-7.1 29,-4.9 C29,0.1 12.1,8.6 7.5,8.6"/>
<path class="Note" transform="matrix(0.992,0,0,0.992,1254.81,1078.4)" d="M0,4.2 C0,8.5 3.1,13.3 11.2,13.3 C21.6,13.3 32.5,4.8 32.5,-4 C32.5,-9.9 27.5,-13.2 21.3,-13.2 C11.6,-13.2 0,-5 0,4.2"/>
<path class="Note" transform="matrix(0.992,0,0,0.992,1189.85,1078.4)" d="M0,4.2 C0,8.5 3.1,13.3 11.2,13.3 C21.6,13.3 32.5,4.8 32.5,-4 C32.5,-9.9 27.5,-13.2 21.3,-13.2 C11.6,-13.2 0,-5 0,4.2"/>
<path class="Note" transform="matrix(0.992,0,0,0.992,823.306,696.8)" d="M0,4.2 C0,8.5 3.1,13.3 11.2,13.3 C21.6,13.3 32.5,4.8 32.5,-4 C32.5,-9.9 27.5,-13.2 21.3,-13.2 C11.6,-13.2 0,-5 0,4.2"/>
<path class="Note" transform="matrix(0.992,0,0,0.992,1920.5,1066)" d="M0,4.2 C0,8.5 3.1,13.3 11.2,13.3 C21.6,13.3 32.5,4.8 32.5,-4 C32.5,-9.9 27.5,-13.2 21.3,-13.2 C11.6,-13.2 0,-5 0,4.2"/>
<path class="Note" transform="matrix(0.992,0,0,0.992,1066.33,1066)" d="M0,4.2 C0,8.5 3.1,13.3 11.2,13.3 C21.6,13.3 32.5,4.8 32.5,-4 C32.5,-9.9 27.5,-13.2 21.3,-13.2 C11.6,-13.2 0,-5 0,4.2"/>
<path class="Note" transform="matrix(0.992,0,0,0.992,879.421,709.2)" d="M0,4.2 C0,8.5 3.1,13.3 11.2,13.3 C21.6,13.3 32.5,4.8 32.5,-4 C32.5,-9.9 27.5,-13.2 21.3,-13.2 C11.6,-13.2 0,-5 0,4.2"/>
<path class="Note" transform="matrix(0.992,0,0,0.992,738.05,377.2)" d="M0,4.2 C0,8.5 3.1,13.3 11.2,13.3 C21.6,13.3 32.5,4.8 32.5,-4 C32.5,-9.9 27.5,-13.2 21.3,-13.2 C11.6,-13.2 0,-5 0,4.2"/>
<path class="Note" transform="matrix(0.992,0,0,0.992,808.87,377.2)" d="M0,4.2 C0,8.5 3.1,13.3 11.2,13.3 C21.6,13.3 32.5,4.8 32.5,-4 C32.5,-9.9 27.5,-13.2 21.3,-13.2 C11.6,-13.2 0,-5 0,4.2"/>
<path class="Note" transform="matrix(0.992,0,0,0.992,1920.5,327.6)" d="M0,4.2 C0,8.5 3.1,13.3 11.2,13.3 C21.6,13.3 32.5,4.8 32.5,-4 C32.5,-9.9 27.5,-13.2 21.3,-13.2 C11.6,-13.2 0,-5 0,4.2"/>
<path class="Note" transform="matrix(0.992,0,0,0.992,935.537,721.6)" d="M0,4.2 C0,8.5 3.1,13.3 11.2,13.3 C21.6,13.3 32.5,4.8 32.5,-4 C32.5,-9.9 27.5,-13.2 21.3,-13.2 C11.6,-13.2 0,-5 0,4.2"/>
<path class="Note" transform="matrix(0.992,0,0,0.992,960.19,1090.8)" d="M0,4.2 C0,8.5 3.1,13.3 11.2,13.3 C21.6,13.3 32.5,4.8 32.5,-4 C32.5,-9.9 27.5,-13.2 21.3,-13.2 C11.6,-13.2 0,-5 0,4.2"/>
<path class="Note" transform="matrix(0.992,0,0,0.992,895.23,1115.6)" d="M0,4.2 C0,8.5 3.1,13.3 11.2,13.3 C21.6,13.3 32.5,4.8 32.5,-4 C32.5,-9.9 27.5,-13.2 21.3,-13.2 C11.6,-13.2 0,-5 0,4.2"/>
<path class="Note" transform="matrix(0.992,0,0,0.992,905.107,340)" d="M0,4.2 C0,8.5 3.1,13.3 11.2,13.3 C21.6,13.3 32.5,4.8 32.5,-4 C32.5,-9.9 27.5,-13.2 21.3,-13.2 C11.6,-13.2 0,-5 0,4.2"/>
<path class="Note" transform="matrix(0.992,0,0,0.992,830.269,1140.4)" d="M0,4.2 C0,8.5 3.1,13.3 11.2,13.3 C21.6,13.3 32.5,4.8 32.5,-4 C32.5,-9.9 27.5,-13.2 21.3,-13.2 C11.6,-13.2 0,-5 0,4.2"/>
<path class="Note" transform="matrix(0.992,0,0,0.992,1856.35,340)" d="M0,4.2 C0,8.5 3.1,13.3 11.2,13.3 C21.6,13.3 32.5,4.8 32.5,-4 C32.5,-9.9 27.5,-13.2 21.3,-13.2 C11.6,-13.2 0,-5 0,4.2"/>
<path class="Note" transform="matrix(0.992,0,0,0.992,1041.67,734)" d="M0,4.2 C0,8.5 3.1,13.3 11.2,13.3 C21.6,13.3 32.5,4.8 32.5,-4 C32.5,-9.9 27.5,-13.2 21.3,-13.2 C11.6,-13.2 0,-5 0,4.2"/>
<path class="Note" transform="matrix(0.992,0,0,0.992,765.308,1115.6)" d="M0,4.2 C0,8.5 3.1,13.3 11.2,13.3 C21.6,13.3 32.5,4.8 32.5,-4 C32.5,-9.9 27.5,-13.2 21.3,-13.2 C11.6,-13.2 0,-5 0,4.2"/>
<path class="Note" transform="matrix(0.992,0,0,0.992,969.265,327.6)" d="M0,4.2 C0,8.5 3.1,13.3 11.2,13.3 C21.6,13.3 32.5,4.8 32.5,-4 C32.5,-9.9 27.5,-13.2 21.3,-13.2 C11.6,-13.2 0,-5 0,4.2"/>
<path class="Note" transform="matrix(0.992,0,0,0.992,619.146,1115.6)" d="M21.3,-13.2 C11.6,-13.2 0,-5.1 0,4.2 C0,8.5 3.1,13.3 11.2,13.3 C21.6,13.3 32.5,4.8 32.5,-4 C32.5,-9.9 27.5,-13.2 21.3,-13.2 M7.5,8.6 C4.2,8.6 3.5,5.9 3.5,5 C3.5,0.1 20.3,-8.5 25,-8.5 C27.4,-8.5 29,-7.1 29,-4.9 C29,0.1 12.1,8.6 7.5,8.6"/>
<path class="Note" transform="matrix(0.992,0,0,0.992,1075.4,315.2)" d="M0,4.2 C0,8.5 3.1,13.3 11.2,13.3 C21.6,13.3 32.5,4.8 32.5,-4 C32.5,-9.9 27.5,-13.2 21.3,-13.2 C11.6,-13.2 0,-5 0,4.2"/>
<path class="Note" transform="matrix(0.992,0,0,0.992,498.726,1115.6)" d="M0,4.2 C0,8.5 3.1,13.3 11.2,13.3 C21.6,13.3 32.5,4.8 32.5,-4 C32.5,-9.9 27.5,-13.2 21.3,-13.2 C11.6,-13.2 0,-5 0,4.2"/>
<path class="Note" transform="matrix(0.992,0,0,0.992,1792.19,327.6)" d="M0,4.2 C0,8.5 3.1,13.3 11.2,13.3 C21.6,13.3 32.5,4.8 32.5,-4 C32.5,-9.9 27.5,-13.2 21.3,-13.2 C11.6,-13.2 0,-5 0,4.2"/>
<path class="Note" transform="matrix(0.992,0,0,0.992,1196.67,758.8)" d="M0,4.2 C0,8.5 3.1,13.3 11.2,13.3 C21.6,13.3 32.5,4.8 32.5,-4 C32.5,-9.9 27.5,-13.2 21.3,-13.2 C11.6,-13.2 0,-5 0,4.2"/>
<path class="Note" transform="matrix(0.992,0,0,0.992,433.766,1115.6)" d="M0,4.2 C0,8.5 3.1,13.3 11.2,13.3 C21.6,13.3 32.5,4.8 32.5,-4 C32.5,-9.9 27.5,-13.2 21.3,-13.2 C11.6,-13.2 0,-5 0,4.2"/>
<path class="Note" transform="matrix(0.992,0,0,0.992,248.48,1115.6)" d="M21.3,-13.2 C11.6,-13.2 0,-5.1 0,4.2 C0,8.5 3.1,13.3 11.2,13.3 C21.6,13.3 32.5,4.8 32.5,-4 C32.5,-9.9 27.5,-13.2 21.3,-13.2 M7.5,8.6 C4.2,8.6 3.5,5.9 3.5,5 C3.5,0.1 20.3,-8.5 25,-8.5 C27.4,-8.5 29,-7.1 29,-4.9 C29,0.1 12.1,8.6 7.5,8.6"/>
<path class="Note" transform="matrix(0.992,0,0,0.992,1267.48,721.6)" d="M0,4.2 C0,8.5 3.1,13.3 11.2,13.3 C21.6,13.3 32.5,4.8 32.5,-4 C32.5,-9.9 27.5,-13.2 21.3,-13.2 C11.6,-13.2 0,-5 0,4.2"/>
<path class="Note" transform="matrix(0.992,0,0,0.992,1197.4,327.6)" d="M0,4.2 C0,8.5 3.1,13.3 11.2,13.3 C21.6,13.3 32.5,4.8 32.5,-4 C32.5,-9.9 27.5,-13.2 21.3,-13.2 C11.6,-13.2 0,-5 0,4.2"/>
<path class="Note" transform="matrix(0.992,0,0,0.992,1261.56,315.2)" d="M0,4.2 C0,8.5 3.1,13.3 11.2,13.3 C21.6,13.3 32.5,4.8 32.5,-4 C32.5,-9.9 27.5,-13.2 21.3,-13.2 C11.6,-13.2 0,-5 0,4.2"/>
<path class="Note" transform="matrix(0.992,0,0,0.992,1920.5,734)" d="M0,4.2 C0,8.5 3.1,13.3 11.2,13.3 C21.6,13.3 32.5,4.8 32.5,-4 C32.5,-9.9 27.5,-13.2 21.3,-13.2 C11.6,-13.2 0,-5 0,4.2"/>
<path class="Note" transform="matrix(0.992,0,0,0.992,1351.66,734)" d="M0,4.2 C0,8.5 3.1,13.3 11.2,13.3 C21.6,13.3 32.5,4.8 32.5,-4 C32.5,-9.9 27.5,-13.2 21.3,-13.2 C11.6,-13.2 0,-5 0,4.2"/>
<path class="Note" transform="matrix(0.992,0,0,0.992,1855.54,1078.4)" d="M0,4.2 C0,8.5 3.1,13.3 11.2,13.3 C21.6,13.3 32.5,4.8 32.5,-4 C32.5,-9.9 27.5,-13.2 21.3,-13.2 C11.6,-13.2 0,-5 0,4.2"/>
<path class="Note" transform="matrix(0.992,0,0,0.992,1864.39,746.4)" d="M0,4.2 C0,8.5 3.1,13.3 11.2,13.3 C21.6,13.3 32.5,4.8 32.5,-4 C32.5,-9.9 27.5,-13.2 21.3,-13.2 C11.6,-13.2 0,-5 0,4.2"/>
<path class="Note" transform="matrix(0.992,0,0,0.992,1728.03,315.2)" d="M0,4.2 C0,8.5 3.1,13.3 11.2,13.3 C21.6,13.3 32.5,4.8 32.5,-4 C32.5,-9.9 27.5,-13.2 21.3,-13.2 C11.6,-13.2 0,-5 0,4.2"/>
<path class="Note" transform="matrix(0.992,0,0,0.992,1407.77,758.8)" d="M0,4.2 C0,8.5 3.1,13.3 11.2,13.3 C21.6,13.3 32.5,4.8 32.5,-4 C32.5,-9.9 27.5,-13.2 21.3,-13.2 C11.6,-13.2 0,-5 0,4.2"/>
<path class="Note" transform="matrix(0.992,0,0,0.992,1808.27,758.8)" d="M0,4.2 C0,8.5 3.1,13.3 11.2,13.3 C21.6,13.3 32.5,4.8 32.5,-4 C32.5,-9.9 27.5,-13.2 21.3,-13.2 C11.6,-13.2 0,-5 0,4.2"/>
<path class="Note" transform="matrix(0.992,0,0,0.992,1383.55,340)" d="M0,4.2 C0,8.5 3.1,13.3 11.2,13.3 C21.6,13.3 32.5,4.8 32.5,-4 C32.5,-9.9 27.5,-13.2 21.3,-13.2 C11.6,-13.2 0,-5 0,4.2"/>
<path class="Note" transform="matrix(0.992,0,0,0.992,1663.87,315.2)" d="M0,4.2 C0,8.5 3.1,13.3 11.2,13.3 C21.6,13.3 32.5,4.8 32.5,-4 C32.5,-9.9 27.5,-13.2 21.3,-13.2 C11.6,-13.2 0,-5 0,4.2"/>
<path class="Note" transform="matrix(0.992,0,0,0.992,1752.16,746.4)" d="M0,4.2 C0,8.5 3.1,13.3 11.2,13.3 C21.6,13.3 32.5,4.8 32.5,-4 C32.5,-9.9 27.5,-13.2 21.3,-13.2 C11.6,-13.2 0,-5 0,4.2"/>
<path class="Note" transform="matrix(0.992,0,0,0.992,1527.7,746.4)" d="M0,4.2 C0,8.5 3.1,13.3 11.2,13.3 C21.6,13.3 32.5,4.8 32.5,-4 C32.5,-9.9 27.5,-13.2 21.3,-13.2 C11.6,-13.2 0,-5 0,4.2"/>
<path class="Note" transform="matrix(0.992,0,0,0.992,1696.04,783.6)" d="M0,4.2 C0,8.5 3.1,13.3 11.2,13.3 C21.6,13.3 32.5,4.8 32.5,-4 C32.5,-9.9 27.5,-13.2 21.3,-13.2 C11.6,-13.2 0,-5 0,4.2"/>
<path class="Note" transform="matrix(0.992,0,0,0.992,1503.48,315.2)" d="M0,4.2 C0,8.5 3.1,13.3 11.2,13.3 C21.6,13.3 32.5,4.8 32.5,-4 C32.5,-9.9 27.5,-13.2 21.3,-13.2 C11.6,-13.2 0,-5 0,4.2"/>
<path class="Note" transform="matrix(0.992,0,0,0.992,1639.93,771.2)" d="M0,4.2 C0,8.5 3.1,13.3 11.2,13.3 C21.6,13.3 32.5,4.8 32.5,-4 C32.5,-9.9 27.5,-13.2 21.3,-13.2 C11.6,-13.2 0,-5 0,4.2"/>
<path class="Note" transform="matrix(0.992,0,0,0.992,1583.81,758.8)" d="M0,4.2 C0,8.5 3.1,13.3 11.2,13.3 C21.6,13.3 32.5,4.8 32.5,-4 C32.5,-9.9 27.5,-13.2 21.3,-13.2 C11.6,-13.2 0,-5 0,4.2"/>
<path class="Note" transform="matrix(0.992,0,0,0.992,1599.71,315.2)" d="M0,4.2 C0,8.5 3.1,13.3 11.2,13.3 C21.6,13.3 32.5,4.8 32.5,-4 C32.5,-9.9 27.5,-13.2 21.3,-13.2 C11.6,-13.2 0,-5 0,4.2"/>
<path class="Clef" transform="matrix(0.992,0,0,0.992,123,734)" d="M12.3,51.3 C12.3,57.9 17.3,66.6 30.8,66.6 C35.5,66.6 39.6,65.4 43.2,63.2 C48.6,59.4 50,52.8 50,46.5 C50,42.6 49.4,38.1 48.4,32.4 C48.1,30.4 47.5,27.4 46.9,23.5 C56.7,20.3 64,10.1 64,-0.2 C64,-15.3 53.3,-25.5 38.7,-25.5 C37.7,-31.5 36.7,-37.4 35.9,-43 C46.4,-54.1 53.7,-66.6 53.7,-82.5 C53.7,-91.6 50.9,-99 49.3,-102.6 C46.9,-107.7 44,-111.2 42.2,-111.2 C41.5,-111.2 38.4,-110 35.1,-106.1 C28.7,-98.5 26.9,-85.7 26.9,-77.3 C26.9,-71.9 27.4,-67 29.1,-55.8 C29,-55.7 23.8,-50.4 21.7,-48.7 C12.6,-40.3 0,-28.1 0,-8.1 C0,10.6 16.3,25.3 34.9,25.3 C37.8,25.3 40.5,25 42.8,24.6 C44.7,34.2 45.9,41.2 45.9,46.5 C45.9,56.9 40.5,62.4 30.4,62.4 C28,62.4 25.9,61.9 25.7,61.9 C25.6,61.8 25.4,61.7 25.4,61.6 C25.4,61.4 25.6,61.3 25.9,61.3 C30.6,60.5 35.3,56.5 35.3,50.1 C35.3,44.7 31.2,39 23.7,39 C16.7,39 12.3,44.7 12.3,51.3 M33.2,-82.2 C34.1,-86.2 38.7,-96.7 43.9,-96.7 C45.4,-96.7 47.8,-91.9 47.8,-84.9 C47.8,-74.5 40.1,-66.7 33.2,-59.9 C32.6,-63.9 32.1,-67.8 32.1,-72 C32.1,-75.7 32.4,-79.1 33.2,-82.2 M42,20.6 C40,21 38.1,21.2 36.2,21.2 C21.9,21.2 9.7,11.2 9.7,-3.9 C9.7,-16.1 18.3,-27 27.1,-34.6 C28.8,-36.1 30.4,-37.5 31.9,-39 C32.8,-33.6 33.5,-28.9 34.2,-24.8 C25.1,-22.1 18.9,-12.5 18.9,-3.1 C18.9,3.9 24.4,13.5 32.4,13.5 C33.2,13.5 34.1,13.1 34.1,12.2 C34.1,11.3 33.1,10.8 31.9,10 C28,7.6 25.8,5 25.8,0.1 C25.8,-6 30.4,-10.9 36.2,-12.3 L42,20.6 M56.2,2.1 C56.2,9.2 53.3,16.5 46.2,19.4 C44.1,7.4 41.4,-8.5 40.7,-12.9 C49.7,-12.9 56.2,-6.8 56.2,2.1"/>
<path class="Clef" transform="matrix(0.992,0,0,0.992,123,352.4)" d="M12.3,51.3 C12.3,57.9 17.3,66.6 30.8,66.6 C35.5,66.6 39.6,65.4 43.2,63.2 C48.6,59.4 50,52.8 50,46.5 C50,42.6 49.4,38.1 48.4,32.4 C48.1,30.4 47.5,27.4 46.9,23.5 C56.7,20.3 64,10.1 64,-0.2 C64,-15.3 53.3,-25.5 38.7,-25.5 C37.7,-31.5 36.7,-37.4 35.9,-43 C46.4,-54.1 53.7,-66.6 53.7,-82.5 C53.7,-91.6 50.9,-99 49.3,-102.6 C46.9,-107.7 44,-111.2 42.2,-111.2 C41.5,-111.2 38.4,-110 35.1,-106.1 C28.7,-98.5 26.9,-85.7 26.9,-77.3 C26.9,-71.9 27.4,-67 29.1,-55.8 C29,-55.7 23.8,-50.4 21.7,-48.7 C12.6,-40.3 0,-28.1 0,-8.1 C0,10.6 16.3,25.3 34.9,25.3 C37.8,25.3 40.5,25 42.8,24.6 C44.7,34.2 45.9,41.2 45.9,46.5 C45.9,56.9 40.5,62.4 30.4,62.4 C28,62.4 25.9,61.9 25.7,61.9 C25.6,61.8 25.4,61.7 25.4,61.6 C25.4,61.4 25.6,61.3 25.9,61.3 C30.6,60.5 35.3,56.5 35.3,50.1 C35.3,44.7 31.2,39 23.7,39 C16.7,39 12.3,44.7 12.3,51.3 M33.2,-82.2 C34.1,-86.2 38.7,-96.7 43.9,-96.7 C45.4,-96.7 47.8,-91.9 47.8,-84.9 C47.8,-74.5 40.1,-66.7 33.2,-59.9 C32.6,-63.9 32.1,-67.8 32.1,-72 C32.1,-75.7 32.4,-79.1 33.2,-82.2 M42,20.6 C40,21 38.1,21.2 36.2,21.2 C21.9,21.2 9.7,11.2 9.7,-3.9 C9.7,-16.1 18.3,-27 27.1,-34.6 C28.8,-36.1 30.4,-37.5 31.9,-39 C32.8,-33.6 33.5,-28.9 34.2,-24.8 C25.1,-22.1 18.9,-12.5 18.9,-3.1 C18.9,3.9 24.4,13.5 32.4,13.5 C33.2,13.5 34.1,13.1 34.1,12.2 C34.1,11.3 33.1,10.8 31.9,10 C28,7.6 25.8,5 25.8,0.1 C25.8,-6 30.4,-10.9 36.2,-12.3 L42,20.6 M56.2,2.1 C56.2,9.2 53.3,16.5 46.2,19.4 C44.1,7.4 41.4,-8.5 40.7,-12.9 C49.7,-12.9 56.2,-6.8 56.2,2.1"/>
<path class="Clef" transform="matrix(0.992,0,0,0.992,123,1115.6)" d="M12.3,51.3 C12.3,57.9 17.3,66.6 30.8,66.6 C35.5,66.6 39.6,65.4 43.2,63.2 C48.6,59.4 50,52.8 50,46.5 C50,42.6 49.4,38.1 48.4,32.4 C48.1,30.4 47.5,27.4 46.9,23.5 C56.7,20.3 64,10.1 64,-0.2 C64,-15.3 53.3,-25.5 38.7,-25.5 C37.7,-31.5 36.7,-37.4 35.9,-43 C46.4,-54.1 53.7,-66.6 53.7,-82.5 C53.7,-91.6 50.9,-99 49.3,-102.6 C46.9,-107.7 44,-111.2 42.2,-111.2 C41.5,-111.2 38.4,-110 35.1,-106.1 C28.7,-98.5 26.9,-85.7 26.9,-77.3 C26.9,-71.9 27.4,-67 29.1,-55.8 C29,-55.7 23.8,-50.4 21.7,-48.7 C12.6,-40.3 0,-28.1 0,-8.1 C0,10.6 16.3,25.3 34.9,25.3 C37.8,25.3 40.5,25 42.8,24.6 C44.7,34.2 45.9,41.2 45.9,46.5 C45.9,56.9 40.5,62.4 30.4,62.4 C28,62.4 25.9,61.9 25.7,61.9 C25.6,61.8 25.4,61.7 25.4,61.6 C25.4,61.4 25.6,61.3 25.9,61.3 C30.6,60.5 35.3,56.5 35.3,50.1 C35.3,44.7 31.2,39 23.7,39 C16.7,39 12.3,44.7 12.3,51.3 M33.2,-82.2 C34.1,-86.2 38.7,-96.7 43.9,-96.7 C45.4,-96.7 47.8,-91.9 47.8,-84.9 C47.8,-74.5 40.1,-66.7 33.2,-59.9 C32.6,-63.9 32.1,-67.8 32.1,-72 C32.1,-75.7 32.4,-79.1 33.2,-82.2 M42,20.6 C40,21 38.1,21.2 36.2,21.2 C21.9,21.2 9.7,11.2 9.7,-3.9 C9.7,-16.1 18.3,-27 27.1,-34.6 C28.8,-36.1 30.4,-37.5 31.9,-39 C32.8,-33.6 33.5,-28.9 34.2,-24.8 C25.1,-22.1 18.9,-12.5 18.9,-3.1 C18.9,3.9 24.4,13.5 32.4,13.5 C33.2,13.5 34.1,13.1 34.1,12.2 C34.1,11.3 33.1,10.8 31.9,10 C28,7.6 25.8,5 25.8,0.1 C25.8,-6 30.4,-10.9 36.2,-12.3 L42,20.6 M56.2,2.1 C56.2,9.2 53.3,16.5 46.2,19.4 C44.1,7.4 41.4,-8.5 40.7,-12.9 C49.7,-12.9 56.2,-6.8 56.2,2.1"/>
<path class="Beam" fill-rule="evenodd" d="M1894.14,659.565 L1952.74,653.365 L1952.74,665.835 L1894.14,672.035 L1894.14,659.565 "/>
<path class="Beam" fill-rule="evenodd" d="M1599.71,377.2 L1666.35,377.2 L1666.35,389.6 L1599.71,389.6 L1599.71,377.2 "/>
<path class="Beam" fill-rule="evenodd" d="M1669.68,696.765 L1728.27,702.965 L1728.27,715.435 L1669.68,709.235 L1669.68,696.765 "/>
<path class="Beam" fill-rule="evenodd" d="M1855.54,1140.37 L1922.98,1134.17 L1922.98,1146.63 L1855.54,1152.83 L1855.54,1140.37 "/>
<path class="Beam" fill-rule="evenodd" d="M1725.62,1146.57 L1793.06,1152.77 L1793.06,1165.23 L1725.62,1159.03 L1725.62,1146.57 "/>
<path class="Beam" fill-rule="evenodd" d="M438.288,703 L496.883,703 L496.883,715.4 L438.288,715.4 L438.288,703 "/>
<path class="Beam" fill-rule="evenodd" d="M1557.45,671.965 L1616.04,678.165 L1616.04,690.635 L1557.45,684.435 L1557.45,671.965 "/>
<path class="Beam" fill-rule="evenodd" d="M461.228,271.8 L527.866,271.8 L527.866,284.2 L461.228,284.2 L461.228,271.8 "/>
<path class="Beam" fill-rule="evenodd" d="M1595.7,1140.4 L1663.14,1140.4 L1663.14,1152.8 L1595.7,1152.8 L1595.7,1140.4 "/>
<path class="Beam" fill-rule="evenodd" d="M684.712,647.2 L743.308,647.2 L743.308,659.6 L684.712,659.6 L684.712,647.2 "/>
<path class="Beam" fill-rule="evenodd" d="M1781.91,671.965 L1840.51,678.165 L1840.51,690.635 L1781.91,684.435 L1781.91,671.965 "/>
<path class="Beam" fill-rule="evenodd" d="M767.191,771.165 L825.786,764.965 L825.786,777.435 L767.191,783.635 L767.191,771.165 "/>
<path class="Beam" fill-rule="evenodd" d="M909.174,634.765 L967.769,640.965 L967.769,653.435 L909.174,647.235 L909.174,634.765 "/>
<path class="Beam" fill-rule="evenodd" d="M924.982,1022.57 L992.423,1016.37 L992.423,1028.83 L924.982,1035.03 L924.982,1022.57 "/>
<path class="Beam" fill-rule="evenodd" d="M1886.1,259.373 L1952.74,253.173 L1952.74,265.627 L1886.1,271.827 L1886.1,259.373 "/>
<path class="Beam" fill-rule="evenodd" d="M934.859,259.373 L1001.5,253.173 L1001.5,265.627 L934.859,271.827 L934.859,259.373 "/>
<path class="Beam" fill-rule="evenodd" d="M795.06,1034.97 L862.501,1041.17 L862.501,1053.63 L795.06,1047.43 L795.06,1034.97 "/>
<path class="Beam" fill-rule="evenodd" d="M463.518,1035 L530.959,1035 L530.959,1047.4 L463.518,1047.4 L463.518,1035 "/>
<path class="Beam" fill-rule="evenodd" d="M1728.03,383.373 L1794.67,389.573 L1794.67,402.027 L1728.03,395.827 L1728.03,383.373 "/>
<path class="Hook" transform="matrix(0.992,0,0,0.992,1071.43,647.2)" d="M0,22.7 C0,23 0.1,23.6 0.8,23.8 C5.1,25.2 13.7,30.6 20.2,41.7 C22,44.8 24.9,49.1 24.9,57.4 C24.9,64.6 23.1,72 20.4,79.2 C20.2,79.8 20.1,80.3 20.1,80.7 C20.1,81.4 20.5,81.7 21.2,81.7 C21.8,81.7 22.3,81.3 22.7,80.6 C27.2,72.6 28.9,63.3 28.9,54.2 C28.4,41.3 21,31.8 21,31.8 C21.3,31.8 11.8,19.5 9.1,15.3 C5.4,9.6 3.7,3.9 3.5,3.5 C3.4,3.2 2.5,-0.4 2.5,-0.4 C2.4,-0.8 1.9,-1.2 1.3,-1.2 C0.6,-1.2 0,-0.6 0,0.1 L0,22.7 "/>
<path class="Hook" transform="matrix(0.992,0,0,0.992,1381.41,647.2)" d="M0,22.7 C0,23 0.1,23.6 0.8,23.8 C5.1,25.2 13.7,30.6 20.2,41.7 C22,44.8 24.9,49.1 24.9,57.4 C24.9,64.6 23.1,72 20.4,79.2 C20.2,79.8 20.1,80.3 20.1,80.7 C20.1,81.4 20.5,81.7 21.2,81.7 C21.8,81.7 22.3,81.3 22.7,80.6 C27.2,72.6 28.9,63.3 28.9,54.2 C28.4,41.3 21,31.8 21,31.8 C21.3,31.8 11.8,19.5 9.1,15.3 C5.4,9.6 3.7,3.9 3.5,3.5 C3.4,3.2 2.5,-0.4 2.5,-0.4 C2.4,-0.8 1.9,-1.2 1.3,-1.2 C0.6,-1.2 0,-0.6 0,0.1 L0,22.7 "/>
<path class="Hook" transform="matrix(0.992,0,0,0.992,1408.09,1022.6)" d="M0,22.7 C0,23 0.1,23.6 0.8,23.8 C5.1,25.2 13.7,30.6 20.2,41.7 C22,44.8 24.9,49.1 24.9,57.4 C24.9,64.6 23.1,72 20.4,79.2 C20.2,79.8 20.1,80.3 20.1,80.7 C20.1,81.4 20.5,81.7 21.2,81.7 C21.8,81.7 22.3,81.3 22.7,80.6 C27.2,72.6 28.9,63.3 28.9,54.2 C28.4,41.3 21,31.8 21,31.8 C21.3,31.8 11.8,19.5 9.1,15.3 C5.4,9.6 3.7,3.9 3.5,3.5 C3.4,3.2 2.5,-0.4 2.5,-0.4 C2.4,-0.8 1.9,-1.2 1.3,-1.2 C0.6,-1.2 0,-0.6 0,0.1 L0,22.7 "/>
<path class="Hook" transform="matrix(0.992,0,0,0.992,767.802,290.4)" d="M0,22.7 C0,23 0.1,23.6 0.8,23.8 C5.1,25.2 13.7,30.6 20.2,41.7 C22,44.8 24.9,49.1 24.9,57.4 C24.9,64.6 23.1,72 20.4,79.2 C20.2,79.8 20.1,80.3 20.1,80.7 C20.1,81.4 20.5,81.7 21.2,81.7 C21.8,81.7 22.3,81.3 22.7,80.6 C27.2,72.6 28.9,63.3 28.9,54.2 C28.4,41.3 21,31.8 21,31.8 C21.3,31.8 11.8,19.5 9.1,15.3 C5.4,9.6 3.7,3.9 3.5,3.5 C3.4,3.2 2.5,-0.4 2.5,-0.4 C2.4,-0.8 1.9,-1.2 1.3,-1.2 C0.6,-1.2 0,-0.6 0,0.1 L0,22.7 "/>
<path class="Hook" transform="matrix(0.992,0,0,0.992,1189.85,1159)" d="M0,-0.1 C0,0.6 0.6,1.2 1.3,1.2 C1.8,1.2 2.4,0.8 2.5,0.4 C2.5,0.3 3.4,-3.2 3.5,-3.5 C3.6,-3.9 4.5,-7.7 8.1,-13.6 C12,-20.1 18,-24.8 23,-31.8 C28,-38.8 30.9,-45.4 30.9,-54.2 C30.9,-63.3 28.9,-70.9 23.5,-80.6 C23.2,-81.3 22.6,-81.7 22,-81.7 C21.8,-81.7 21.6,-81.7 21.5,-81.6 C21,-81.4 20.8,-81 20.8,-80.4 C20.8,-80.1 20.9,-79.7 21.1,-79.2 C25.1,-69.9 26.7,-64.6 26.7,-57.4 C26.7,-49.1 23.8,-44.8 22,-41.7 C15.5,-30.6 5,-25.2 0.8,-23.8 C0.1,-23.6 0,-23 0,-22.7 L0,-0.1 "/>
<path class="Hook" transform="matrix(0.992,0,0,0.992,1413.31,259.4)" d="M0,22.7 C0,23 0.1,23.6 0.8,23.8 C5.1,25.2 13.7,30.6 20.2,41.7 C22,44.8 24.9,49.1 24.9,57.4 C24.9,64.6 23.1,72 20.4,79.2 C20.2,79.8 20.1,80.3 20.1,80.7 C20.1,81.4 20.5,81.7 21.2,81.7 C21.8,81.7 22.3,81.3 22.7,80.6 C27.2,72.6 28.9,63.3 28.9,54.2 C28.4,41.3 21,31.8 21,31.8 C21.3,31.8 11.8,19.5 9.1,15.3 C5.4,9.6 3.7,3.9 3.5,3.5 C3.4,3.2 2.5,-0.4 2.5,-0.4 C2.4,-0.8 1.9,-1.2 1.3,-1.2 C0.6,-1.2 0,-0.6 0,0.1 L0,22.7 "/>
<path class="Hook" transform="matrix(0.992,0,0,0.992,1197.4,408.2)" d="M0,-0.1 C0,0.6 0.6,1.2 1.3,1.2 C1.8,1.2 2.4,0.8 2.5,0.4 C2.5,0.3 3.4,-3.2 3.5,-3.5 C3.6,-3.9 4.5,-7.7 8.1,-13.6 C12,-20.1 18,-24.8 23,-31.8 C28,-38.8 30.9,-45.4 30.9,-54.2 C30.9,-63.3 28.9,-70.9 23.5,-80.6 C23.2,-81.3 22.6,-81.7 22,-81.7 C21.8,-81.7 21.6,-81.7 21.5,-81.6 C21,-81.4 20.8,-81 20.8,-80.4 C20.8,-80.1 20.9,-79.7 21.1,-79.2 C25.1,-69.9 26.7,-64.6 26.7,-57.4 C26.7,-49.1 23.8,-44.8 22,-41.7 C15.5,-30.6 5,-25.2 0.8,-23.8 C0.1,-23.6 0,-23 0,-22.7 L0,-0.1 "/>
<path class="Hook" transform="matrix(0.992,0,0,0.992,1437.53,672)" d="M0,22.7 C0,23 0.1,23.6 0.8,23.8 C5.1,25.2 13.7,30.6 20.2,41.7 C22,44.8 24.9,49.1 24.9,57.4 C24.9,64.6 23.1,72 20.4,79.2 C20.2,79.8 20.1,80.3 20.1,80.7 C20.1,81.4 20.5,81.7 21.2,81.7 C21.8,81.7 22.3,81.3 22.7,80.6 C27.2,72.6 28.9,63.3 28.9,54.2 C28.4,41.3 21,31.8 21,31.8 C21.3,31.8 11.8,19.5 9.1,15.3 C5.4,9.6 3.7,3.9 3.5,3.5 C3.4,3.2 2.5,-0.4 2.5,-0.4 C2.4,-0.8 1.9,-1.2 1.3,-1.2 C0.6,-1.2 0,-0.6 0,0.1 L0,22.7 "/>
<path class="Hook" transform="matrix(0.992,0,0,0.992,1226.42,672)" d="M0,22.7 C0,23 0.1,23.6 0.8,23.8 C5.1,25.2 13.7,30.6 20.2,41.7 C22,44.8 24.9,49.1 24.9,57.4 C24.9,64.6 23.1,72 20.4,79.2 C20.2,79.8 20.1,80.3 20.1,80.7 C20.1,81.4 20.5,81.7 21.2,81.7 C21.8,81.7 22.3,81.3 22.7,80.6 C27.2,72.6 28.9,63.3 28.9,54.2 C28.4,41.3 21,31.8 21,31.8 C21.3,31.8 11.8,19.5 9.1,15.3 C5.4,9.6 3.7,3.9 3.5,3.5 C3.4,3.2 2.5,-0.4 2.5,-0.4 C2.4,-0.8 1.9,-1.2 1.3,-1.2 C0.6,-1.2 0,-0.6 0,0.1 L0,22.7 "/>
<path class="Lyrics" d="M469.969,1210.81 L469.969,1207.61 L462.819,1207.61 L462.819,1190.01 L459.019,1190.01 L459.019,1233.71 L462.819,1233.71 L462.819,1210.81 L469.969,1210.81 M429.819,1208.71 C429.819,1218.01 433.919,1224.21 441.019,1224.21 C448.119,1224.21 452.169,1218.01 452.169,1208.76 C452.169,1199.51 448.119,1193.31 441.019,1193.31 C433.919,1193.31 429.819,1199.51 429.819,1208.71 M448.469,1208.76 C448.469,1215.91 445.569,1220.91 441.019,1220.91 C436.469,1220.91 433.519,1215.91 433.519,1208.76 C433.519,1201.56 436.469,1196.61 441.019,1196.61 C445.569,1196.61 448.469,1201.56 448.469,1208.76"/>
<path class="Lyrics" d="M1111.38,454.53 L1111.38,451.329 L1105.03,451.329 L1105.03,433.98 L1101.23,433.98 L1101.23,477.68 L1105.03,477.68 L1105.03,454.53 L1111.38,454.53 M1083.93,464.829 L1083.38,461.73 C1080.38,462.48 1077.98,462.73 1075.43,462.73 L1075.43,441.73 L1082.63,441.73 L1082.63,438.579 L1071.68,438.579 L1071.68,465.98 C1077.03,465.98 1080.28,465.63 1083.93,464.829 M1099.18,465.03 L1098.73,461.93 C1096.03,462.579 1092.33,462.829 1089.08,462.829 L1089.08,441.73 L1096.98,441.73 L1096.98,438.579 L1085.33,438.579 L1085.33,466.079 C1091.13,466.079 1095.53,465.88 1099.18,465.03"/>
<path class="Lyrics" d="M1295.8,477.68 L1295.8,433.98 L1292,433.98 L1292,449.579 L1281.8,449.579 L1281.8,452.78 L1292,452.78 L1292,477.68 L1295.8,477.68 M1286.1,464.329 C1280.1,460.829 1274.9,453.73 1274.9,445.73 L1274.9,437.78 L1270.95,437.78 L1270.95,445.88 C1270.95,453.63 1265.9,461.38 1259.55,465.38 L1262.05,468.23 C1267.1,464.579 1271.4,459.18 1272.95,453.73 C1274.7,458.98 1279.75,464.53 1283.75,467.23 L1286.1,464.329 "/>
<path class="Lyrics" d="M528.393,1209.36 L528.393,1233.71 L532.193,1233.71 L532.193,1190.01 L528.393,1190.01 L528.393,1206.11 L519.893,1206.11 L519.893,1209.36 L528.393,1209.36 M518.093,1222.56 L518.093,1193.66 L514.293,1193.66 L514.293,1204.81 L501.343,1204.81 L501.343,1193.66 L497.543,1193.66 L497.543,1222.56 L518.093,1222.56 M514.293,1219.36 L501.343,1219.36 L501.343,1207.96 L514.293,1207.96 L514.293,1219.36 "/>
<path class="Lyrics" d="M1949.7,1190.01 L1949.7,1233.71 L1953.5,1233.71 L1953.5,1190.01 L1949.7,1190.01 M1945.7,1218.66 C1940.4,1219.61 1931.75,1220.01 1924.8,1220.01 L1923.75,1220.01 L1923.75,1209.56 L1940.35,1209.56 L1940.35,1194.06 L1919.75,1194.06 L1919.75,1197.21 L1936.5,1197.21 L1936.5,1206.41 L1919.95,1206.41 L1919.95,1223.26 L1924.4,1223.26 C1934,1223.26 1941.5,1222.51 1946.05,1221.81 L1945.7,1218.66 "/>
<path class="Lyrics" d="M1111.06,840.279 C1111.06,849.58 1115.06,855.73 1122.11,855.73 C1128.76,855.73 1132.66,850.23 1133.06,841.83 L1142.41,841.83 L1142.41,865.48 L1146.21,865.48 L1146.21,821.779 L1142.41,821.779 L1142.41,838.58 L1133.06,838.58 C1132.56,830.279 1128.71,824.83 1122.11,824.83 C1115.06,824.83 1111.06,831.029 1111.06,840.279 M1129.36,840.33 C1129.36,847.43 1126.41,852.43 1122.11,852.43 C1117.76,852.43 1114.86,847.43 1114.86,840.33 C1114.86,833.13 1117.76,828.13 1122.11,828.13 C1126.41,828.13 1129.36,833.13 1129.36,840.33"/>
<path class="Lyrics" d="M1005.12,472.13 L1005.12,468.93 L987.222,468.93 L987.222,458.23 L1000.67,458.23 L1000.67,455.079 L974.272,455.079 L974.272,440.829 L1000.42,440.829 L1000.42,437.68 L970.422,437.68 L970.422,458.23 L983.422,458.23 L983.422,468.93 L965.672,468.93 L965.672,472.13 L1005.12,472.13 "/>
<path class="Lyrics" d="M442.542,839.38 C435.842,838.63 426.892,834.18 426.692,828.029 L440.742,828.029 L440.742,824.88 L408.542,824.88 L408.542,828.029 L422.692,828.029 C422.492,834.13 414.042,838.73 406.892,839.48 L408.642,842.68 C416.092,841.43 422.892,836.93 424.642,832.83 C426.642,836.93 433.592,841.33 440.742,842.58 L442.542,839.38 M426.492,865.48 L426.492,849.83 L444.392,849.83 L444.392,846.63 L404.942,846.63 L404.942,849.83 L422.692,849.83 L422.692,865.48 L426.492,865.48 "/>
<path class="Lyrics" d="M1828.04,472.13 L1828.04,468.93 L1810.14,468.93 L1810.14,458.23 L1823.59,458.23 L1823.59,455.079 L1797.19,455.079 L1797.19,440.829 L1823.34,440.829 L1823.34,437.68 L1793.34,437.68 L1793.34,458.23 L1806.34,458.23 L1806.34,468.93 L1788.59,468.93 L1788.59,472.13 L1828.04,472.13 "/>
<path class="Lyrics" d="M646.296,1220.46 C640.296,1217.21 634.746,1210.16 634.746,1202.01 L634.746,1197.56 L644.946,1197.56 L644.946,1194.41 L620.596,1194.41 L620.596,1197.56 L630.796,1197.56 L630.796,1202.06 C630.796,1210.31 625.546,1217.76 619.146,1221.51 L621.496,1224.31 C626.546,1221.06 631.346,1215.46 632.796,1210.01 C634.296,1215.16 639.846,1220.66 643.946,1223.31 L646.296,1220.46 M651.346,1190.01 L651.346,1233.71 L655.146,1233.71 L655.146,1190.01 L651.346,1190.01 "/>
<path class="Lyrics" d="M926.204,461.43 C921.454,462.579 912.904,463.23 905.404,463.28 L905.404,438.329 L901.604,438.329 L901.604,466.63 L904.254,466.63 C910.904,466.63 921.404,465.88 926.754,464.63 L926.204,461.43 M933.704,433.98 L929.904,433.98 L929.904,477.68 L933.704,477.68 L933.704,454.579 L940.854,454.579 L940.854,451.329 L933.704,451.329 L933.704,433.98 "/>
<path class="Lyrics" d="M1073.13,841.63 L1073.13,838.48 L1046.83,838.48 L1046.83,827.63 L1072.58,827.63 L1072.58,824.43 L1043.03,824.43 L1043.03,841.63 L1073.13,841.63 M1059.63,865.029 L1059.63,850.529 L1077.53,850.529 L1077.53,847.33 L1038.08,847.33 L1038.08,850.529 L1055.83,850.529 L1055.83,865.029 L1059.63,865.029 "/>
<path class="Lyrics" d="M1881.27,854.48 L1881.27,826.279 L1860.82,826.279 L1860.82,854.48 L1881.27,854.48 M1877.47,851.33 L1864.62,851.33 L1864.62,829.43 L1877.47,829.43 L1877.47,851.33 M1900.22,842.58 L1900.22,839.38 L1893.07,839.38 L1893.07,821.779 L1889.27,821.779 L1889.27,865.48 L1893.07,865.48 L1893.07,842.58 L1900.22,842.58 "/>
<path class="Lyrics" d="M1385.9,865.48 L1385.9,821.779 L1382.1,821.779 L1382.1,837.38 L1371.9,837.38 L1371.9,840.58 L1382.1,840.58 L1382.1,865.48 L1385.9,865.48 M1376.2,852.13 C1370.2,848.63 1365,841.529 1365,833.529 L1365,825.58 L1361.05,825.58 L1361.05,833.68 C1361.05,841.43 1356,849.18 1349.65,853.18 L1352.15,856.029 C1357.2,852.38 1361.5,846.98 1363.05,841.529 C1364.8,846.779 1369.85,852.33 1373.85,855.029 L1376.2,852.13 "/>
<path class="Lyrics" d="M1226.03,433.98 L1222.28,433.98 L1222.28,477.68 L1226.03,477.68 L1226.03,454.78 L1233.08,454.78 L1233.08,451.579 L1226.03,451.579 L1226.03,433.98 M1218.43,462.579 C1212.58,463.68 1204.83,464.13 1197.88,464.079 L1197.88,453.53 L1214.18,453.53 L1214.18,438.03 L1193.98,438.03 L1193.98,441.18 L1210.38,441.18 L1210.38,450.38 L1194.08,450.38 L1194.08,467.28 L1197.78,467.28 C1204.93,467.28 1214.03,466.63 1218.93,465.63 L1218.43,462.579 "/>
<path class="Lyrics" d="M866.125,1214.51 L866.125,1211.31 L826.675,1211.31 L826.675,1214.51 L866.125,1214.51 M862.575,1207.71 L862.575,1204.56 L851.075,1204.56 L851.075,1195.51 L862.025,1195.51 L862.025,1192.31 L847.275,1192.31 L847.275,1207.71 L862.575,1207.71 M845.525,1206.61 L845.125,1203.51 C842.375,1204.26 837.175,1204.56 834.225,1204.56 L834.225,1195.51 L844.375,1195.51 L844.375,1192.31 L830.425,1192.31 L830.425,1207.86 C835.475,1207.86 841.625,1207.46 845.525,1206.61 M863.275,1230.56 C855.825,1229.91 848.325,1224.26 848.325,1219.21 L848.325,1217.56 L844.425,1217.56 L844.425,1219.21 C844.425,1224.26 837.625,1229.76 829.625,1230.41 L831.375,1233.51 C838.375,1232.31 844.625,1228.01 846.325,1224.26 C848.475,1228.21 855.175,1232.61 861.475,1233.66 L863.275,1230.56 "/>
<path class="Lyrics" d="M1230.67,839.38 C1223.97,838.63 1215.02,834.18 1214.82,828.029 L1228.87,828.029 L1228.87,824.88 L1196.67,824.88 L1196.67,828.029 L1210.82,828.029 C1210.62,834.13 1202.17,838.73 1195.02,839.48 L1196.77,842.68 C1204.22,841.43 1211.02,836.93 1212.77,832.83 C1214.77,836.93 1221.72,841.33 1228.87,842.58 L1230.67,839.38 M1214.62,865.48 L1214.62,849.83 L1232.52,849.83 L1232.52,846.63 L1193.07,846.63 L1193.07,849.83 L1210.82,849.83 L1210.82,865.48 L1214.62,865.48 "/>
<path class="Lyrics" d="M1883.71,467.43 L1883.36,464.38 C1880.56,464.78 1875.46,465.13 1870.61,465.329 L1870.61,456.18 L1880.56,456.18 L1880.56,453.03 L1861.51,453.03 L1861.51,441.53 L1880.41,441.53 L1880.41,438.38 L1857.71,438.38 L1857.71,456.18 L1866.81,456.18 L1866.81,465.48 C1862.21,465.63 1857.81,465.68 1854.46,465.68 L1855.11,469.03 C1857.96,469.03 1864.56,468.829 1869.41,468.579 C1874.76,468.28 1880.26,467.88 1883.71,467.43 M1890.51,477.68 L1890.51,433.98 L1886.76,433.98 L1886.76,477.68 L1890.51,477.68 "/>
<path class="Lyrics" d="M284.337,1227.41 L284.337,1224.21 L263.737,1224.21 L263.737,1208.41 L259.937,1208.41 L259.937,1224.21 L244.887,1224.21 L244.887,1227.41 L284.337,1227.41 M279.037,1194.56 L248.937,1194.56 L248.937,1197.76 L275.087,1197.76 L275.087,1202.01 C275.087,1207.76 274.537,1214.36 273.537,1218.46 L277.287,1219.06 C278.587,1213.51 278.987,1206.71 279.037,1200.06 L279.037,1194.56 "/>
<path class="Lyrics" d="M929.096,1233.71 L929.096,1190.01 L925.346,1190.01 L925.346,1207.21 L919.496,1207.21 L919.496,1191.06 L915.796,1191.06 L915.796,1231.46 L919.496,1231.46 L919.496,1210.41 L925.346,1210.41 L925.346,1233.71 L929.096,1233.71 M897.396,1219.16 L897.396,1198.56 L910.546,1198.56 L910.546,1195.36 L893.596,1195.36 L893.596,1222.46 L896.496,1222.46 C902.196,1222.46 909.546,1221.96 913.696,1221.16 L913.346,1218.06 C909.646,1218.86 903.096,1219.16 898.696,1219.16 L897.396,1219.16 "/>
<path class="Lyrics" d="M844.414,448.93 L844.414,445.73 L837.764,445.73 L837.764,433.98 L834.014,433.98 L834.014,461.18 L837.764,461.18 L837.764,448.93 L844.414,448.93 M838.264,469.73 C838.264,464.829 833.264,461.73 823.814,461.73 C814.314,461.73 809.364,464.73 809.364,469.73 C809.364,474.579 814.314,477.63 823.814,477.63 C833.264,477.63 838.264,474.53 838.264,469.73 M823.814,464.88 C830.414,464.88 834.364,466.63 834.364,469.73 C834.364,472.78 830.414,474.48 823.814,474.48 C817.164,474.48 813.264,472.68 813.264,469.73 C813.264,466.68 817.164,464.88 823.814,464.88 M829.914,454.48 C824.764,455.53 815.114,455.829 810.014,455.829 L809.464,455.829 L809.464,449.329 L825.514,449.329 L825.514,436.88 L805.564,436.88 L805.564,440.03 L821.714,440.03 L821.714,446.23 L805.664,446.23 L805.664,459.03 L809.764,459.03 C815.914,459.03 825.764,458.38 830.264,457.579 L829.914,454.48 "/>
<path class="Lyrics" d="M965.734,842.48 L965.734,865.48 L969.534,865.48 L969.534,821.779 L965.734,821.779 L965.734,839.23 L955.834,839.23 L955.834,842.48 L965.734,842.48 M955.984,826.43 L935.384,826.43 L935.384,829.63 L951.884,829.63 C951.134,839.48 944.834,848.98 933.784,853.83 L935.984,856.83 C947.234,851.48 955.784,840.63 955.984,826.43"/>
<path class="Lyrics" d="M996.047,1228.16 L996.047,1224.96 L978.147,1224.96 L978.147,1217.51 L992.397,1217.51 L992.397,1214.31 L965.247,1214.31 L965.247,1207.01 L991.147,1207.01 L991.147,1193.66 L961.397,1193.66 L961.397,1196.86 L987.347,1196.86 L987.347,1203.86 L961.447,1203.86 L961.447,1217.51 L974.347,1217.51 L974.347,1224.96 L956.597,1224.96 L956.597,1228.16 L996.047,1228.16 "/>
<path class="Lyrics" d="M913.663,865.48 L913.663,821.779 L909.863,821.779 L909.863,837.38 L899.663,837.38 L899.663,840.58 L909.863,840.58 L909.863,865.48 L913.663,865.48 M903.963,852.13 C897.963,848.63 892.763,841.529 892.763,833.529 L892.763,825.58 L888.813,825.58 L888.813,833.68 C888.813,841.43 883.763,849.18 877.413,853.18 L879.913,856.029 C884.963,852.38 889.263,846.98 890.813,841.529 C892.563,846.779 897.613,852.33 901.613,855.029 L903.963,852.13 "/>
<path class="Lyrics" d="M775.154,454.829 L775.154,451.63 L768.104,451.63 L768.104,433.98 L764.304,433.98 L764.304,477.68 L768.104,477.68 L768.104,454.829 L775.154,454.829 M760.154,464.13 C754.104,460.579 748.604,453.43 748.604,445.48 L748.604,437.829 L744.704,437.829 L744.704,445.579 C744.704,453.329 739.554,461.18 733.204,465.079 L735.654,468.03 C740.804,464.43 745.054,458.88 746.604,453.43 C748.354,458.73 753.254,463.93 757.754,467.03 L760.154,464.13 "/>
<path class="Lyrics" d="M1844.13,859.93 L1844.13,856.73 L1826.23,856.73 L1826.23,849.279 L1840.48,849.279 L1840.48,846.08 L1813.33,846.08 L1813.33,838.779 L1839.23,838.779 L1839.23,825.43 L1809.48,825.43 L1809.48,828.63 L1835.43,828.63 L1835.43,835.63 L1809.53,835.63 L1809.53,849.279 L1822.43,849.279 L1822.43,856.73 L1804.68,856.73 L1804.68,859.93 L1844.13,859.93 "/>
<path class="Lyrics" d="M1949.7,433.98 L1949.7,477.68 L1953.5,477.68 L1953.5,433.98 L1949.7,433.98 M1945.7,462.63 C1940.4,463.579 1931.75,463.98 1924.8,463.98 L1923.75,463.98 L1923.75,453.53 L1940.35,453.53 L1940.35,438.03 L1919.75,438.03 L1919.75,441.18 L1936.5,441.18 L1936.5,450.38 L1919.95,450.38 L1919.95,467.23 L1924.4,467.23 C1934,467.23 1941.5,466.48 1946.05,465.78 L1945.7,462.63 "/>
<path class="Lyrics" d="M858.094,865.48 L858.094,821.779 L854.344,821.779 L854.344,865.48 L858.094,865.48 M849.594,863.279 L849.594,822.83 L845.944,822.83 L845.944,838.779 L838.594,838.779 L838.594,841.98 L845.944,841.98 L845.944,863.279 L849.594,863.279 M839.694,826.88 L822.494,826.88 L822.494,830.08 L835.794,830.08 C835.344,838.98 829.944,848.18 820.794,853.33 L823.394,856.13 C833.694,849.48 839.394,839.88 839.694,826.88"/>
<path class="Lyrics" d="M1102.92,1211.66 L1102.92,1208.46 L1095.82,1208.46 L1095.82,1190.01 L1092.02,1190.01 L1092.02,1233.71 L1095.82,1233.71 L1095.82,1211.66 L1102.92,1211.66 M1081.37,1196.26 L1081.37,1193.01 L1068.52,1193.01 L1068.52,1196.26 L1081.37,1196.26 M1087.82,1203.66 L1087.82,1200.51 L1062.02,1200.51 L1062.02,1203.66 L1087.82,1203.66 M1085.22,1215.51 C1085.22,1210.36 1081.12,1206.46 1075.02,1206.46 C1068.92,1206.46 1064.82,1210.41 1064.82,1215.51 C1064.82,1220.61 1068.92,1224.51 1075.02,1224.51 C1081.12,1224.51 1085.22,1220.56 1085.22,1215.51 M1081.42,1215.51 C1081.42,1218.91 1078.77,1221.36 1075.02,1221.36 C1071.37,1221.36 1068.62,1218.91 1068.62,1215.51 C1068.62,1212.06 1071.37,1209.66 1075.02,1209.66 C1078.72,1209.66 1081.42,1212.06 1081.42,1215.51"/>
<path class="Lyrics" d="M1954.75,865.48 L1954.75,821.779 L1950.9,821.779 L1950.9,865.48 L1954.75,865.48 M1945.35,852.08 C1939.3,848.48 1934,841.33 1934,833.33 L1934,825.58 L1930.15,825.58 L1930.15,833.48 C1930.15,841.23 1924.9,849.18 1918.5,853.18 L1921,856.029 C1926.05,852.43 1930.55,847.08 1932.15,841.63 C1933.85,846.88 1939,852.279 1942.95,854.98 L1945.35,852.08 "/>
<path class="Lyrics" d="M1765.13,454.829 L1765.13,451.63 L1758.08,451.63 L1758.08,433.98 L1754.28,433.98 L1754.28,477.68 L1758.08,477.68 L1758.08,454.829 L1765.13,454.829 M1750.13,464.13 C1744.08,460.579 1738.58,453.43 1738.58,445.48 L1738.58,437.829 L1734.68,437.829 L1734.68,445.579 C1734.68,453.329 1729.53,461.18 1723.18,465.079 L1725.63,468.03 C1730.78,464.43 1735.03,458.88 1736.58,453.43 C1738.33,458.73 1743.23,463.93 1747.73,467.03 L1750.13,464.13 "/>
<path class="Lyrics" d="M1443.63,859.029 L1443.63,855.83 L1404.18,855.83 L1404.18,859.029 L1443.63,859.029 M1437.98,826.68 L1408.28,826.68 L1408.28,829.83 L1434.08,829.83 C1434.08,836.98 1433.43,846.48 1432.23,852.029 L1436.03,852.529 C1437.38,845.83 1437.98,836.73 1437.98,826.68"/>
<path class="Lyrics" d="M1224.16,1211.61 C1216.96,1210.21 1207.96,1203.91 1207.96,1196.41 L1207.96,1193.26 L1204.01,1193.26 L1204.01,1196.41 C1204.01,1203.91 1195.51,1210.16 1187.86,1211.61 L1189.86,1214.66 C1197.51,1212.56 1204.26,1207.16 1205.91,1202.16 C1207.81,1207.06 1214.41,1212.51 1222.06,1214.66 L1224.16,1211.61 M1225.71,1228.16 L1225.71,1224.96 L1207.81,1224.96 L1207.81,1213.76 L1204.01,1213.76 L1204.01,1224.96 L1186.26,1224.96 L1186.26,1228.16 L1225.71,1228.16 "/>
<path class="Lyrics" d="M651.91,471.23 L651.91,468.03 L612.46,468.03 L612.46,471.23 L651.91,471.23 M646.26,438.88 L616.56,438.88 L616.56,442.03 L642.36,442.03 C642.36,449.18 641.71,458.68 640.51,464.23 L644.31,464.73 C645.66,458.03 646.26,448.93 646.26,438.88"/>
<path class="Lyrics" d="M800.791,865.48 L800.791,821.779 L797.041,821.779 L797.041,839.18 L791.291,839.18 L791.291,822.83 L787.591,822.83 L787.591,863.23 L791.291,863.23 L791.291,842.38 L797.041,842.38 L797.041,865.48 L800.791,865.48 M784.641,849.279 C781.441,850.13 774.191,850.73 769.641,850.63 L769.641,826.58 L765.841,826.58 L765.841,853.93 L769.191,853.93 C774.741,853.93 781.441,853.33 785.091,852.48 L784.641,849.279 "/>
<path class="Lyrics" d="M1693.8,477.079 L1693.8,462.28 L1666,462.28 L1666,477.079 L1693.8,477.079 M1660.8,445.68 L1670.55,445.68 C1670.25,451.03 1665.15,456.03 1659.55,457.68 L1661.65,460.579 C1666.65,458.829 1671.2,454.48 1672.65,450.579 C1674.7,454.53 1679.3,458.13 1683.15,459.329 L1685.1,456.38 C1680.15,455.13 1675.05,450.93 1674.6,445.68 L1684.25,445.68 L1684.25,442.579 L1660.8,442.579 L1660.8,445.68 M1690,473.93 L1669.8,473.93 L1669.8,465.43 L1690,465.43 L1690,473.93 M1700.45,448.93 L1700.45,445.73 L1693.8,445.73 L1693.8,433.98 L1690,433.98 L1690,459.98 L1693.8,459.98 L1693.8,448.93 L1700.45,448.93 M1666.5,438.53 L1678.7,438.53 L1678.7,435.279 L1666.5,435.279 L1666.5,438.53 "/>
<path class="Lyrics" d="M1289.05,1233.71 L1289.05,1190.01 L1285.25,1190.01 L1285.25,1205.61 L1275.05,1205.61 L1275.05,1208.81 L1285.25,1208.81 L1285.25,1233.71 L1289.05,1233.71 M1279.35,1220.36 C1273.35,1216.86 1268.15,1209.76 1268.15,1201.76 L1268.15,1193.81 L1264.2,1193.81 L1264.2,1201.91 C1264.2,1209.66 1259.15,1217.41 1252.8,1221.41 L1255.3,1224.26 C1260.35,1220.61 1264.65,1215.21 1266.2,1209.76 C1267.95,1215.01 1273,1220.56 1277,1223.26 L1279.35,1220.36 "/>
<path class="Lyrics" d="M1301.79,843.38 C1294.59,841.98 1285.59,835.68 1285.59,828.18 L1285.59,825.029 L1281.64,825.029 L1281.64,828.18 C1281.64,835.68 1273.14,841.93 1265.49,843.38 L1267.49,846.43 C1275.14,844.33 1281.89,838.93 1283.54,833.93 C1285.44,838.83 1292.04,844.279 1299.69,846.43 L1301.79,843.38 M1303.34,859.93 L1303.34,856.73 L1285.44,856.73 L1285.44,845.529 L1281.64,845.529 L1281.64,856.73 L1263.89,856.73 L1263.89,859.93 L1303.34,859.93 "/>
<path class="Lyrics" d="M1884.8,1190.01 L1881,1190.01 L1881,1233.71 L1884.8,1233.71 L1884.8,1211.46 L1891.95,1211.46 L1891.95,1208.21 L1884.8,1208.21 L1884.8,1190.01 M1873.45,1194.71 L1852.9,1194.71 L1852.9,1197.91 L1869.35,1197.91 C1868.55,1207.76 1862.3,1216.96 1851.4,1222.01 L1853.75,1225.01 C1865,1219.16 1873.2,1208.91 1873.45,1194.71"/>
<path class="Lyrics" d="M1786.02,865.48 L1786.02,821.779 L1782.27,821.779 L1782.27,838.98 L1776.42,838.98 L1776.42,822.83 L1772.72,822.83 L1772.72,863.23 L1776.42,863.23 L1776.42,842.18 L1782.27,842.18 L1782.27,865.48 L1786.02,865.48 M1754.32,850.93 L1754.32,830.33 L1767.47,830.33 L1767.47,827.13 L1750.52,827.13 L1750.52,854.23 L1753.42,854.23 C1759.12,854.23 1766.47,853.73 1770.62,852.93 L1770.27,849.83 C1766.57,850.63 1760.02,850.93 1755.62,850.93 L1754.32,850.93 "/>
<path class="Lyrics" d="M1413.83,1204.66 L1413.83,1201.51 L1407.18,1201.51 L1407.18,1190.01 L1403.38,1190.01 L1403.38,1216.16 L1407.18,1216.16 L1407.18,1204.66 L1413.83,1204.66 M1407.73,1225.21 C1407.73,1220.31 1402.68,1216.86 1393.23,1216.86 C1383.73,1216.86 1378.78,1220.21 1378.78,1225.21 C1378.78,1230.16 1383.73,1233.51 1393.23,1233.51 C1402.68,1233.51 1407.73,1230.11 1407.73,1225.21 M1403.78,1225.21 C1403.78,1228.36 1399.83,1230.36 1393.23,1230.36 C1386.63,1230.36 1382.73,1228.31 1382.73,1225.21 C1382.73,1222.11 1386.63,1220.06 1393.23,1220.06 C1399.83,1220.06 1403.78,1222.06 1403.78,1225.21 M1378.88,1210.01 L1378.88,1196.71 L1394.78,1196.71 L1394.78,1193.51 L1375.08,1193.51 L1375.08,1213.16 L1378.63,1213.16 C1386.18,1213.16 1394.28,1212.51 1399.13,1211.66 L1398.73,1208.56 C1394.48,1209.36 1387.08,1210.01 1381.03,1210.01 L1378.88,1210.01 "/>
<path class="Lyrics" d="M746.932,843.88 L746.932,840.68 L707.482,840.68 L707.482,843.88 L746.932,843.88 M742.532,829.98 C742.532,825.18 736.732,822.38 727.232,822.38 C717.832,822.38 712.032,825.18 712.032,829.98 C712.032,834.779 717.832,837.529 727.232,837.529 C736.732,837.529 742.532,834.779 742.532,829.98 M727.232,825.48 C734.182,825.48 738.682,827.23 738.682,829.98 C738.682,832.68 734.182,834.38 727.232,834.38 C720.382,834.38 715.932,832.68 715.932,829.98 C715.932,827.23 720.382,825.48 727.232,825.48 M743.432,865.08 L743.432,861.98 L715.882,861.98 L715.882,857.58 L741.982,857.58 L741.982,847.779 L711.982,847.779 L711.982,850.83 L738.182,850.83 L738.182,854.68 L712.082,854.68 L712.082,865.08 L743.432,865.08 "/>
<path class="Lyrics" d="M525.89,433.98 L525.89,477.68 L529.69,477.68 L529.69,433.98 L525.89,433.98 M518.99,447.78 C518.99,441.38 514.09,437.38 507.64,437.38 C501.29,437.38 496.24,441.63 496.24,447.78 C496.24,453.63 501.19,457.93 507.64,457.93 C513.94,457.93 518.99,453.98 518.99,447.78 M515.29,447.78 C515.29,451.88 511.79,454.73 507.64,454.73 C503.39,454.73 499.94,451.829 499.94,447.78 C499.94,443.68 503.44,440.63 507.64,440.63 C511.89,440.63 515.29,443.38 515.29,447.78 M523.34,466.579 L522.99,463.48 C519.79,463.88 514.14,464.23 508.04,464.43 C502.74,464.73 497.59,464.829 493.84,464.78 L494.54,468.13 C497.84,468.079 502.64,467.93 507.79,467.68 C513.34,467.43 519.59,467.03 523.34,466.579"/>
<path class="Lyrics" d="M651.695,829.23 L661.645,829.23 C661.645,830.98 661.645,831.68 661.595,832.23 C661.345,838.029 655.995,843.48 650.495,845.63 L652.695,848.58 C657.395,846.58 662.345,841.88 663.495,837.779 C665.295,841.73 669.845,845.88 674.045,847.58 L676.145,844.529 C671.145,842.88 665.845,837.88 665.545,832.279 C665.495,831.68 665.495,830.98 665.495,829.23 L675.545,829.23 L675.545,826.029 L651.695,826.029 L651.695,829.23 M684.995,821.779 L681.245,821.779 L681.245,853.529 L684.995,853.529 L684.995,838.279 L691.695,838.279 L691.695,835.08 L684.995,835.08 L684.995,821.779 M686.695,863.98 L686.695,860.83 L661.245,860.83 L661.245,850.529 L657.445,850.529 L657.445,863.98 L686.695,863.98 "/>
<path class="Lyrics" d="M1629.97,433.98 L1629.97,477.68 L1633.77,477.68 L1633.77,433.98 L1629.97,433.98 M1623.07,447.78 C1623.07,441.38 1618.17,437.38 1611.72,437.38 C1605.37,437.38 1600.32,441.63 1600.32,447.78 C1600.32,453.63 1605.27,457.93 1611.72,457.93 C1618.02,457.93 1623.07,453.98 1623.07,447.78 M1619.37,447.78 C1619.37,451.88 1615.87,454.73 1611.72,454.73 C1607.47,454.73 1604.02,451.829 1604.02,447.78 C1604.02,443.68 1607.52,440.63 1611.72,440.63 C1615.97,440.63 1619.37,443.38 1619.37,447.78 M1627.42,466.579 L1627.07,463.48 C1623.87,463.88 1618.22,464.23 1612.12,464.43 C1606.82,464.73 1601.67,464.829 1597.92,464.78 L1598.62,468.13 C1601.92,468.079 1606.72,467.93 1611.87,467.68 C1617.42,467.43 1623.67,467.03 1627.42,466.579"/>
<path class="Lyrics" d="M1531.74,1221.76 L1531.74,1190.01 L1527.94,1190.01 L1527.94,1221.76 L1531.74,1221.76 M1522.44,1211.81 C1517.24,1209.96 1511.34,1204.56 1511.34,1197.26 L1511.34,1192.51 L1507.49,1192.51 L1507.49,1197.36 C1507.49,1204.36 1501.84,1210.76 1496.09,1213.31 L1498.39,1216.31 C1503.14,1213.91 1508.19,1208.86 1509.49,1204.16 C1511.29,1208.76 1515.79,1212.91 1520.29,1214.86 L1522.44,1211.81 M1532.69,1232.36 L1532.69,1229.21 L1507.34,1229.21 L1507.34,1218.91 L1503.54,1218.91 L1503.54,1232.36 L1532.69,1232.36 "/>
<path class="Lyrics" d="M464.911,458.93 L464.911,433.98 L461.111,433.98 L461.111,458.93 L464.911,458.93 M464.961,477.079 L464.961,461.23 L436.661,461.23 L436.661,477.079 L464.961,477.079 M461.161,473.93 L440.461,473.93 L440.461,464.38 L461.161,464.38 L461.161,473.93 M441.611,436.43 C435.411,436.43 430.261,440.63 430.261,446.98 C430.261,453.329 435.411,457.329 441.611,457.329 C447.811,457.329 452.911,453.329 452.911,446.93 C452.911,440.63 447.811,436.43 441.611,436.43 M441.611,439.53 C446.211,439.53 449.261,442.63 449.261,446.98 C449.261,451.28 446.161,454.23 441.611,454.23 C437.211,454.23 433.961,451.28 433.961,446.93 C433.961,442.63 437.211,439.53 441.611,439.53"/>
<path class="Lyrics" d="M1604.91,849.23 C1600.16,850.38 1591.61,851.029 1584.11,851.08 L1584.11,826.13 L1580.31,826.13 L1580.31,854.43 L1582.96,854.43 C1589.61,854.43 1600.11,853.68 1605.46,852.43 L1604.91,849.23 M1612.41,821.779 L1608.61,821.779 L1608.61,865.48 L1612.41,865.48 L1612.41,842.38 L1619.56,842.38 L1619.56,839.13 L1612.41,839.13 L1612.41,821.779 "/>
<path class="Lyrics" d="M1418.66,477.68 L1418.66,433.98 L1414.91,433.98 L1414.91,477.68 L1418.66,477.68 M1410.01,475.48 L1410.01,435.029 L1406.31,435.029 L1406.31,449.73 L1398.56,449.73 L1398.56,452.93 L1406.31,452.93 L1406.31,475.48 L1410.01,475.48 M1403.66,463.88 C1398.91,460.73 1393.81,454.38 1393.81,445.88 L1393.81,438.03 L1390.06,438.03 L1390.06,445.98 C1390.06,454.53 1385.66,461.98 1380.71,465.13 L1383.06,467.98 C1387.41,464.829 1391.01,459.13 1391.96,454.13 C1393.36,459.079 1397.96,464.28 1401.31,466.68 L1403.66,463.88 "/>
<path class="Lyrics" d="M1631.73,1204.01 L1631.73,1200.81 L1625.08,1200.81 L1625.08,1190.01 L1621.28,1190.01 L1621.28,1214.06 L1625.08,1214.06 L1625.08,1204.01 L1631.73,1204.01 M1626.13,1219.71 L1626.13,1216.56 L1596.83,1216.56 L1596.83,1219.71 L1626.13,1219.71 M1626.63,1233.01 L1626.63,1229.86 L1619.88,1229.86 L1621.53,1221.91 L1617.83,1221.36 L1616.38,1229.86 L1606.68,1229.86 L1605.68,1221.31 L1601.88,1221.81 L1603.13,1229.86 L1596.33,1229.86 L1596.33,1233.01 L1626.63,1233.01 M1603.28,1191.96 C1597.03,1191.96 1591.93,1196.11 1591.93,1202.46 C1591.93,1208.86 1597.03,1212.86 1603.28,1212.86 C1609.48,1212.86 1614.58,1208.86 1614.58,1202.41 C1614.58,1196.11 1609.48,1191.96 1603.28,1191.96 M1603.28,1195.06 C1607.88,1195.06 1610.93,1198.16 1610.93,1202.46 C1610.93,1206.81 1607.83,1209.76 1603.28,1209.76 C1598.88,1209.76 1595.63,1206.81 1595.63,1202.41 C1595.63,1198.16 1598.88,1195.06 1603.28,1195.06"/>
<path class="Lyrics" d="M1731.9,846.279 L1731.9,843.08 L1692.45,843.08 L1692.45,846.279 L1731.9,846.279 M1728.35,839.48 L1728.35,836.33 L1716.85,836.33 L1716.85,827.279 L1727.8,827.279 L1727.8,824.08 L1713.05,824.08 L1713.05,839.48 L1728.35,839.48 M1711.3,838.38 L1710.9,835.279 C1708.15,836.029 1702.95,836.33 1700,836.33 L1700,827.279 L1710.15,827.279 L1710.15,824.08 L1696.2,824.08 L1696.2,839.63 C1701.25,839.63 1707.4,839.23 1711.3,838.38 M1729.05,862.33 C1721.6,861.68 1714.1,856.029 1714.1,850.98 L1714.1,849.33 L1710.2,849.33 L1710.2,850.98 C1710.2,856.029 1703.4,861.529 1695.4,862.18 L1697.15,865.279 C1704.15,864.08 1710.4,859.779 1712.1,856.029 C1714.25,859.98 1720.95,864.38 1727.25,865.43 L1729.05,862.33 "/>
<path class="Lyrics" d="M604.16,865.48 L604.16,821.779 L600.36,821.779 L600.36,865.48 L604.16,865.48 M569.66,840.48 C569.66,849.779 573.76,855.98 580.91,855.98 C588.16,855.98 592.21,849.779 592.21,840.529 C592.21,831.279 588.16,825.08 580.91,825.08 C573.76,825.08 569.66,831.279 569.66,840.48 M588.61,840.529 C588.61,847.68 585.56,852.68 580.91,852.68 C576.31,852.68 573.26,847.68 573.26,840.529 C573.26,833.33 576.31,828.38 580.91,828.38 C585.56,828.38 588.61,833.33 588.61,840.529"/>
<path class="Lyrics" d="M1668.32,1193.81 C1661.97,1193.81 1658.72,1200.01 1658.72,1208.76 C1658.72,1217.56 1661.97,1223.71 1668.32,1223.71 C1674.32,1223.71 1677.52,1218.36 1677.92,1210.46 L1682.62,1210.46 L1682.62,1231.61 L1686.32,1231.61 L1686.32,1190.86 L1682.62,1190.86 L1682.62,1207.31 L1677.92,1207.31 C1677.62,1199.36 1674.37,1193.81 1668.32,1193.81 M1674.17,1208.76 C1674.17,1215.86 1671.87,1220.36 1668.32,1220.36 C1664.82,1220.36 1662.57,1215.86 1662.57,1208.76 C1662.57,1201.71 1664.82,1197.16 1668.32,1197.16 C1671.87,1197.16 1674.17,1201.71 1674.17,1208.76 M1694.87,1233.71 L1694.87,1190.01 L1691.12,1190.01 L1691.12,1233.71 L1694.87,1233.71 "/>
<path class="Lyrics" d="M277.109,821.779 L273.359,821.779 L273.359,865.48 L277.109,865.48 L277.109,842.58 L284.159,842.58 L284.159,839.38 L277.109,839.38 L277.109,821.779 M269.509,850.38 C263.659,851.48 255.909,851.93 248.959,851.88 L248.959,841.33 L265.259,841.33 L265.259,825.83 L245.059,825.83 L245.059,828.98 L261.459,828.98 L261.459,838.18 L245.159,838.18 L245.159,855.08 L248.859,855.08 C256.009,855.08 265.109,854.43 270.009,853.43 L269.509,850.38 "/>
<path class="Lyrics" d="M1560.91,865.48 L1560.91,821.779 L1557.11,821.779 L1557.11,838.83 L1549.26,838.83 L1549.26,842.08 L1557.11,842.08 L1557.11,865.48 L1560.91,865.48 M1550.06,850.529 C1544.61,851.48 1536.26,851.88 1530.56,851.88 L1530.56,841.279 L1546.66,841.279 L1546.66,825.93 L1526.76,825.93 L1526.76,829.08 L1542.86,829.08 L1542.86,838.08 L1526.76,838.08 L1526.76,855.13 L1529.91,855.13 C1536.41,855.13 1545.96,854.48 1550.46,853.68 L1550.06,850.529 "/>
<path class="Lyrics" d="M1524.58,454.13 C1519.63,452.43 1513.88,447.079 1513.88,440.13 L1513.88,436.079 L1510.03,436.079 L1510.03,440.28 C1510.03,447.23 1505.33,452.73 1499.08,455.68 L1501.18,458.63 C1506.28,455.98 1510.73,451.63 1512.08,446.98 C1513.83,451.38 1518.13,455.13 1522.33,457.18 L1524.58,454.13 M1534.08,469.28 C1534.08,464.079 1528.58,460.88 1519.38,460.88 C1510.23,460.88 1504.78,464.079 1504.78,469.28 C1504.78,474.48 1510.23,477.63 1519.38,477.63 C1528.58,477.63 1534.08,474.48 1534.08,469.28 M1519.38,464.03 C1526.03,464.03 1530.18,465.93 1530.18,469.28 C1530.18,472.63 1526.03,474.48 1519.38,474.48 C1512.78,474.48 1508.68,472.63 1508.68,469.28 C1508.68,465.93 1512.78,464.03 1519.38,464.03 M1540.13,449.03 L1540.13,445.829 L1533.48,445.829 L1533.48,433.98 L1529.68,433.98 L1529.68,460.93 L1533.48,460.93 L1533.48,449.03 L1540.13,449.03 "/>
<path class="Lyrics" d="M1746.72,1217.46 C1741.97,1218.61 1733.42,1219.26 1725.92,1219.31 L1725.92,1194.36 L1722.12,1194.36 L1722.12,1222.66 L1724.77,1222.66 C1731.42,1222.66 1741.92,1221.91 1747.27,1220.66 L1746.72,1217.46 M1754.22,1190.01 L1750.42,1190.01 L1750.42,1233.71 L1754.22,1233.71 L1754.22,1210.61 L1761.37,1210.61 L1761.37,1207.36 L1754.22,1207.36 L1754.22,1190.01 "/>
<path class="Lyrics" d="M281.846,477.68 L281.846,433.98 L278.096,433.98 L278.096,477.68 L281.846,477.68 M269.346,451.78 L269.346,475.43 L273.096,475.43 L273.096,435.029 L269.346,435.029 L269.346,448.63 L259.096,448.63 L259.096,451.78 L269.346,451.78 M265.546,461.68 C262.896,462.28 255.896,463.13 251.146,463.13 L251.146,438.53 L247.346,438.53 L247.346,466.48 L249.746,466.48 C255.246,466.48 262.396,465.73 265.996,464.98 L265.546,461.68 "/>
<path class="Lyrics" d="M494.78,834.68 L494.78,845.58 L485.93,845.58 L485.93,848.73 L494.78,848.73 L494.78,865.48 L498.58,865.48 L498.58,821.779 L494.78,821.779 L494.78,831.529 L485.93,831.529 L485.93,834.68 L494.78,834.68 M462.98,840.279 C462.98,849.58 466.88,855.73 473.78,855.73 C480.78,855.73 484.63,849.58 484.63,840.33 C484.63,831.029 480.78,824.83 473.78,824.83 C466.88,824.83 462.98,831.029 462.98,840.279 M480.88,840.33 C480.88,847.43 478.08,852.43 473.78,852.43 C469.58,852.43 466.73,847.43 466.73,840.33 C466.73,833.13 469.58,828.13 473.78,828.13 C478.08,828.13 480.88,833.13 480.88,840.33"/>
<path class="Lyrics" d="M1826.79,1210.81 L1826.79,1207.61 L1819.64,1207.61 L1819.64,1190.01 L1815.84,1190.01 L1815.84,1233.71 L1819.64,1233.71 L1819.64,1210.81 L1826.79,1210.81 M1786.64,1208.71 C1786.64,1218.01 1790.74,1224.21 1797.84,1224.21 C1804.94,1224.21 1808.99,1218.01 1808.99,1208.76 C1808.99,1199.51 1804.94,1193.31 1797.84,1193.31 C1790.74,1193.31 1786.64,1199.51 1786.64,1208.71 M1805.29,1208.76 C1805.29,1215.91 1802.39,1220.91 1797.84,1220.91 C1793.29,1220.91 1790.34,1215.91 1790.34,1208.76 C1790.34,1201.56 1793.29,1196.61 1797.84,1196.61 C1802.39,1196.61 1805.29,1201.56 1805.29,1208.76"/>
<path class="Lyrics" d="M1660.29,852.38 C1654.89,848.88 1650.79,843.48 1650.79,834.88 L1650.79,830.08 L1659.19,830.08 L1659.19,826.93 L1638.34,826.93 L1638.34,830.08 L1647.04,830.08 L1647.04,834.98 C1647.04,843.48 1642.44,850.38 1637.29,853.68 L1639.84,856.33 C1644.09,853.33 1648.04,848.13 1648.94,843.279 C1650.19,847.88 1654.79,852.98 1657.89,855.18 L1660.29,852.38 M1666.19,863.279 L1666.19,822.83 L1662.44,822.83 L1662.44,837.83 L1655.44,837.83 L1655.44,840.98 L1662.44,840.98 L1662.44,863.279 L1666.19,863.279 M1674.84,865.48 L1674.84,821.779 L1671.09,821.779 L1671.09,865.48 L1674.84,865.48 "/>
<polyline class="LyricsLineSegment" fill="none" stroke="#000000" stroke-width="2.48" stroke-linejoin="bevel" points="730.986,1216.24 750.826,1216.24"/>
<path class="NoteDot" transform="matrix(0.992,0,0,0.992,293.113,340)" d="M0,0 C0,2.8 2.2,5 5,5 C7.8,5 10,2.8 10,0 C10,-2.8 7.8,-5 5,-5 C2.2,-5 0,-2.8 0,0"/>
<path class="NoteDot" transform="matrix(0.992,0,0,0.992,660.685,340)" d="M0,0 C0,2.8 2.2,5 5,5 C7.8,5 10,2.8 10,0 C10,-2.8 7.8,-5 5,-5 C2.2,-5 0,-2.8 0,0"/>
<path class="NoteDot" transform="matrix(0.992,0,0,0.992,1299.44,1078.4)" d="M0,0 C0,2.8 2.2,5 5,5 C7.8,5 10,2.8 10,0 C10,-2.8 7.8,-5 5,-5 C2.2,-5 0,-2.8 0,0"/>
<path class="NoteDot" transform="matrix(0.992,0,0,0.992,1110.96,1053.6)" d="M0,0 C0,2.8 2.2,5 5,5 C7.8,5 10,2.8 10,0 C10,-2.8 7.8,-5 5,-5 C2.2,-5 0,-2.8 0,0"/>
<path class="NoteDot" transform="matrix(0.992,0,0,0.992,1120.03,315.2)" d="M0,0 C0,2.8 2.2,5 5,5 C7.8,5 10,2.8 10,0 C10,-2.8 7.8,-5 5,-5 C2.2,-5 0,-2.8 0,0"/>
<path class="NoteDot" transform="matrix(0.992,0,0,0.992,293.113,1103.2)" d="M0,0 C0,2.8 2.2,5 5,5 C7.8,5 10,2.8 10,0 C10,-2.8 7.8,-5 5,-5 C2.2,-5 0,-2.8 0,0"/>
<path class="NoteDot" transform="matrix(0.992,0,0,0.992,1306.19,315.2)" d="M0,0 C0,2.8 2.2,5 5,5 C7.8,5 10,2.8 10,0 C10,-2.8 7.8,-5 5,-5 C2.2,-5 0,-2.8 0,0"/>
<path class="NoteDot" transform="matrix(0.992,0,0,0.992,293.113,696.8)" d="M0,0 C0,2.8 2.2,5 5,5 C7.8,5 10,2.8 10,0 C10,-2.8 7.8,-5 5,-5 C2.2,-5 0,-2.8 0,0"/>
</svg>
