<?xml version="1.0" encoding="UTF-8" standalone="no"?>
<svg width="2098.8px" height="1418.4px" viewBox="0 0 2098.8 1418.4"
 xmlns="http://www.w3.org/2000/svg" xmlns:xlink="http://www.w3.org/1999/xlink" version="1.2" baseProfile="tiny">
<title>168 아버지 뜻대로.musicxml (1)</title>
<desc>Generated by MuseScore 4.2.1</desc>
<polyline class="StaffLines" fill="none" stroke="#000000" stroke-width="2.73" stroke-linejoin="bevel" points="228.4,405.024 1994.4,405.024"/>
<polyline class="StaffLines" fill="none" stroke="#000000" stroke-width="2.73" stroke-linejoin="bevel" points="228.4,429.824 1994.4,429.824"/>
<polyline class="StaffLines" fill="none" stroke="#000000" stroke-width="2.73" stroke-linejoin="bevel" points="228.4,454.624 1994.4,454.624"/>
<polyline class="StaffLines" fill="none" stroke="#000000" stroke-width="2.73" stroke-linejoin="bevel" points="228.4,479.424 1994.4,479.424"/>
<polyline class="StaffLines" fill="none" stroke="#000000" stroke-width="2.73" stroke-linejoin="bevel" points="228.4,504.224 1994.4,504.224"/>
<polyline class="StaffLines" fill="none" stroke="#000000" stroke-width="2.73" stroke-linejoin="bevel" points="104.4,723.112 1994.4,723.112"/>
<polyline class="StaffLines" fill="none" stroke="#000000" stroke-width="2.73" stroke-linejoin="bevel" points="104.4,747.912 1994.4,747.912"/>
<polyline class="StaffLines" fill="none" stroke="#000000" stroke-width="2.73" stroke-linejoin="bevel" points="104.4,772.712 1994.4,772.712"/>
<polyline class="StaffLines" fill="none" stroke="#000000" stroke-width="2.73" stroke-linejoin="bevel" points="104.4,797.512 1994.4,797.512"/>
<polyline class="StaffLines" fill="none" stroke="#000000" stroke-width="2.73" stroke-linejoin="bevel" points="104.4,822.312 1994.4,822.312"/>
<polyline class="StaffLines" fill="none" stroke="#000000" stroke-width="2.73" stroke-linejoin="bevel" points="104.4,1041.2 1994.4,1041.2"/>
<polyline class="StaffLines" fill="none" stroke="#000000" stroke-width="2.73" stroke-linejoin="bevel" points="104.4,1066 1994.4,1066"/>
<polyline class="StaffLines" fill="none" stroke="#000000" stroke-width="2.73" stroke-linejoin="bevel" points="104.4,1090.8 1994.4,1090.8"/>
<polyline class="StaffLines" fill="none" stroke="#000000" stroke-width="2.73" stroke-linejoin="bevel" points="104.4,1115.6 1994.4,1115.6"/>
<polyline class="StaffLines" fill="none" stroke="#000000" stroke-width="2.73" stroke-linejoin="bevel" points="104.4,1140.4 1994.4,1140.4"/>
<path class="MeasureNumber" d="M108.724,658.192 C107.484,658.952 107.124,659.432 107.124,660.232 C107.124,660.992 107.764,661.552 108.564,661.552 C109.604,661.552 110.204,660.792 110.324,659.312 C111.564,658.312 112.884,657.872 114.484,657.872 C117.444,657.872 119.084,659.712 119.084,663.032 C119.084,668.232 115.724,672.472 111.604,672.472 C109.244,672.472 107.324,671.352 107.324,670.032 C107.324,669.792 107.364,669.712 107.564,669.592 C108.844,668.992 109.884,668.552 109.884,666.872 C109.884,665.592 108.884,664.632 107.484,664.632 C105.724,664.632 104.404,666.112 104.404,668.032 C104.404,671.552 107.444,674.112 111.724,674.112 C118.204,674.112 123.444,668.952 123.444,662.552 C123.444,658.512 120.364,655.672 116.004,655.672 C114.284,655.672 112.884,656.032 110.964,656.992 L113.204,649.432 C115.324,649.872 117.004,650.072 118.444,650.072 C121.084,650.072 123.444,649.232 124.764,647.832 C125.444,647.032 125.844,646.352 125.844,645.832 C125.844,645.592 125.724,645.352 125.564,645.352 C125.444,645.352 125.364,645.392 125.124,645.512 C123.804,646.152 122.124,646.512 120.564,646.512 C118.164,646.512 115.324,646.112 112.364,645.352 L108.724,658.192 "/>
<path class="MeasureNumber" d="M119.854,977.92 C118.854,982.56 116.174,990.52 110.454,990.52 C109.294,990.52 108.534,990.04 108.534,989.32 C108.534,989.04 108.614,988.92 108.934,988.44 C109.334,987.92 109.534,987.44 109.534,986.88 C109.534,985.56 108.494,984.56 107.134,984.56 C105.534,984.56 104.414,985.76 104.414,987.52 C104.414,990.24 106.974,992.2 110.534,992.2 C119.294,992.2 124.894,981 124.894,973.4 C124.894,967.16 121.894,963.44 116.934,963.44 C110.974,963.44 106.534,968.92 106.534,974.64 C106.534,978.44 109.454,981.32 113.334,981.32 C115.974,981.32 118.014,980.24 119.854,977.92 M116.894,965.12 C119.454,965.12 121.094,967.16 121.094,970.36 C121.094,975.32 118.374,978.96 114.694,978.96 C112.174,978.96 110.774,977.24 110.774,974.24 C110.774,970.64 112.494,965.12 116.894,965.12"/>
<path class="SlurSegment" stroke="#000000" stroke-width="1.24" stroke-linecap="round" stroke-linejoin="round" fill-rule="evenodd" d="M1140.03,828.016 C1162.14,848.985 1208.17,851.093 1232.09,832.232 C1207.8,859.02 1161.77,856.912 1140.03,828.016"/>
<polyline class="BarLine" fill="none" stroke="#000000" stroke-width="4.46" stroke-linejoin="bevel" points="1487.11,721.748 1487.11,823.676"/>
<polyline class="BarLine" fill="none" stroke="#000000" stroke-width="4.46" stroke-linejoin="bevel" points="611.668,721.748 611.668,823.676"/>
<polyline class="BarLine" fill="none" stroke="#000000" stroke-width="4.46" stroke-linejoin="bevel" points="1089.45,721.748 1089.45,823.676"/>
<polyline class="BarLine" fill="none" stroke="#000000" stroke-width="4.46" stroke-linejoin="bevel" points="1992.17,403.66 1992.17,505.588"/>
<polyline class="BarLine" fill="none" stroke="#000000" stroke-width="4.46" stroke-linejoin="bevel" points="522.796,403.66 522.796,505.588"/>
<polyline class="BarLine" fill="none" stroke="#000000" stroke-width="4.46" stroke-linejoin="bevel" points="1992.17,1039.84 1992.17,1141.76"/>
<polyline class="BarLine" fill="none" stroke="#000000" stroke-width="4.46" stroke-linejoin="bevel" points="1046.88,403.66 1046.88,505.588"/>
<polyline class="BarLine" fill="none" stroke="#000000" stroke-width="4.46" stroke-linejoin="bevel" points="1449.62,1039.84 1449.62,1141.76"/>
<polyline class="BarLine" fill="none" stroke="#000000" stroke-width="4.46" stroke-linejoin="bevel" points="578.789,1039.84 578.789,1141.76"/>
<polyline class="BarLine" fill="none" stroke="#000000" stroke-width="4.46" stroke-linejoin="bevel" points="1426.08,403.66 1426.08,505.588"/>
<polyline class="BarLine" fill="none" stroke="#000000" stroke-width="4.46" stroke-linejoin="bevel" points="1084.84,1039.84 1084.84,1141.76"/>
<polyline class="BarLine" fill="none" stroke="#000000" stroke-width="4.46" stroke-linejoin="bevel" points="1992.17,721.748 1992.17,823.676"/>
<polyline class="LedgerLine" fill="none" stroke="#000000" stroke-width="3.97" stroke-linejoin="bevel" points="1111.12,1165.2 1159.72,1165.2"/>
<polyline class="LedgerLine" fill="none" stroke="#000000" stroke-width="3.97" stroke-linejoin="bevel" points="1770,529.024 1818.6,529.024"/>
<polyline class="LedgerLine" fill="none" stroke="#000000" stroke-width="3.97" stroke-linejoin="bevel" points="1302.63,1165.2 1351.23,1165.2"/>
<polyline class="LedgerLine" fill="none" stroke="#000000" stroke-width="3.97" stroke-linejoin="bevel" points="1345.08,529.024 1393.68,529.024"/>
<polyline class="LedgerLine" fill="none" stroke="#000000" stroke-width="3.97" stroke-linejoin="bevel" points="1369.77,1165.2 1418.37,1165.2"/>
<polyline class="LedgerLine" fill="none" stroke="#000000" stroke-width="3.97" stroke-linejoin="bevel" points="1840.58,529.024 1889.18,529.024"/>
<polyline class="LedgerLine" fill="none" stroke="#000000" stroke-width="3.97" stroke-linejoin="bevel" points="1274.49,529.024 1323.09,529.024"/>
<polyline class="LedgerLine" fill="none" stroke="#000000" stroke-width="3.97" stroke-linejoin="bevel" points="1911.17,529.024 1959.77,529.024"/>
<polyline class="LedgerLine" fill="none" stroke="#000000" stroke-width="3.97" stroke-linejoin="bevel" points="406.503,529.024 455.103,529.024"/>
<polyline class="LedgerLine" fill="none" stroke="#000000" stroke-width="3.97" stroke-linejoin="bevel" points="406.503,553.824 455.103,553.824"/>
<polyline class="LedgerLine" fill="none" stroke="#000000" stroke-width="3.97" stroke-linejoin="bevel" points="1073.16,529.024 1121.77,529.024"/>
<polyline class="Stem" fill="none" stroke="#000000" stroke-width="2.48" stroke-linejoin="bevel" points="771.922,1136.43 771.922,1053.8"/>
<polyline class="Stem" fill="none" stroke="#000000" stroke-width="2.48" stroke-linejoin="bevel" points="644.253,1136.43 644.253,1053.6"/>
<polyline class="Stem" fill="none" stroke="#000000" stroke-width="2.48" stroke-linejoin="bevel" points="1112.34,525.056 1112.34,442.224"/>
<polyline class="Stem" fill="none" stroke="#000000" stroke-width="2.48" stroke-linejoin="bevel" points="1313.67,525.056 1313.67,454.624"/>
<polyline class="Stem" fill="none" stroke="#000000" stroke-width="2.48" stroke-linejoin="bevel" points="842.741,1124.03 842.741,1047.4"/>
<polyline class="Stem" fill="none" stroke="#000000" stroke-width="2.48" stroke-linejoin="bevel" points="909.882,1124.03 909.882,1047.4"/>
<polyline class="Stem" fill="none" stroke="#000000" stroke-width="2.48" stroke-linejoin="bevel" points="538.117,1124.03 538.117,1047.29"/>
<polyline class="Stem" fill="none" stroke="#000000" stroke-width="2.48" stroke-linejoin="bevel" points="470.976,1111.63 470.976,1041.31"/>
<polyline class="Stem" fill="none" stroke="#000000" stroke-width="2.48" stroke-linejoin="bevel" points="1384.25,525.056 1384.25,454.624"/>
<polyline class="Stem" fill="none" stroke="#000000" stroke-width="2.48" stroke-linejoin="bevel" points="1154.91,793.544 1154.91,710.712"/>
<polyline class="Stem" fill="none" stroke="#000000" stroke-width="2.48" stroke-linejoin="bevel" points="279.473,1148.83 279.473,1066"/>
<polyline class="Stem" fill="none" stroke="#000000" stroke-width="2.48" stroke-linejoin="bevel" points="1005.05,512.656 1005.05,435.919"/>
<polyline class="Stem" fill="none" stroke="#000000" stroke-width="2.48" stroke-linejoin="bevel" points="977.023,1136.43 977.023,1066.11"/>
<polyline class="Stem" fill="none" stroke="#000000" stroke-width="2.48" stroke-linejoin="bevel" points="1044.16,1148.83 1044.16,1072.09"/>
<polyline class="Stem" fill="none" stroke="#000000" stroke-width="2.48" stroke-linejoin="bevel" points="1491.54,487.856 1491.54,405.024"/>
<polyline class="Stem" fill="none" stroke="#000000" stroke-width="2.48" stroke-linejoin="bevel" points="934.467,500.256 934.467,429.93"/>
<polyline class="Stem" fill="none" stroke="#000000" stroke-width="2.48" stroke-linejoin="bevel" points="1150.3,1161.23 1150.3,1078.4"/>
<polyline class="Stem" fill="none" stroke="#000000" stroke-width="2.48" stroke-linejoin="bevel" points="1597.42,487.856 1597.42,423.73"/>
<polyline class="Stem" fill="none" stroke="#000000" stroke-width="2.48" stroke-linejoin="bevel" points="863.882,487.856 863.882,411.224"/>
<polyline class="Stem" fill="none" stroke="#000000" stroke-width="2.48" stroke-linejoin="bevel" points="1951.5,818.344 1951.5,748.033"/>
<polyline class="Stem" fill="none" stroke="#000000" stroke-width="2.48" stroke-linejoin="bevel" points="1890.12,830.744 1890.12,753.992"/>
<polyline class="Stem" fill="none" stroke="#000000" stroke-width="2.48" stroke-linejoin="bevel" points="1668,500.256 1668,429.719"/>
<polyline class="Stem" fill="none" stroke="#000000" stroke-width="2.48" stroke-linejoin="bevel" points="1828.75,818.344 1828.75,747.792"/>
<polyline class="Stem" fill="none" stroke="#000000" stroke-width="2.48" stroke-linejoin="bevel" points="1767.38,805.944 1767.38,741.833"/>
<polyline class="Stem" fill="none" stroke="#000000" stroke-width="2.48" stroke-linejoin="bevel" points="1738.59,512.656 1738.59,448.53"/>
<polyline class="Stem" fill="none" stroke="#000000" stroke-width="2.48" stroke-linejoin="bevel" points="1706,818.344 1706,747.912"/>
<polyline class="Stem" fill="none" stroke="#000000" stroke-width="2.48" stroke-linejoin="bevel" points="1644.63,818.344 1644.63,747.912"/>
<polyline class="Stem" fill="none" stroke="#000000" stroke-width="2.48" stroke-linejoin="bevel" points="1552.57,818.344 1552.57,735.512"/>
<polyline class="Stem" fill="none" stroke="#000000" stroke-width="2.48" stroke-linejoin="bevel" points="1809.17,525.056 1809.17,454.519"/>
<polyline class="Stem" fill="none" stroke="#000000" stroke-width="2.48" stroke-linejoin="bevel" points="1341.8,1161.23 1341.8,1090.8"/>
<polyline class="Stem" fill="none" stroke="#000000" stroke-width="2.48" stroke-linejoin="bevel" points="793.298,487.856 793.298,411.224"/>
<polyline class="Stem" fill="none" stroke="#000000" stroke-width="2.48" stroke-linejoin="bevel" points="1408.94,1161.23 1408.94,1090.8"/>
<polyline class="Stem" fill="none" stroke="#000000" stroke-width="2.48" stroke-linejoin="bevel" points="1879.76,537.456 1879.76,460.719"/>
<polyline class="Stem" fill="none" stroke="#000000" stroke-width="2.48" stroke-linejoin="bevel" points="722.478,500.256 722.478,417.623"/>
<polyline class="Stem" fill="none" stroke="#000000" stroke-width="2.48" stroke-linejoin="bevel" points="1446.43,805.944 1446.43,729.192"/>
<polyline class="Stem" fill="none" stroke="#000000" stroke-width="2.48" stroke-linejoin="bevel" points="1385.06,793.544 1385.06,723.233"/>
<polyline class="Stem" fill="none" stroke="#000000" stroke-width="2.48" stroke-linejoin="bevel" points="1246.97,805.944 1246.97,723.112"/>
<polyline class="Stem" fill="none" stroke="#000000" stroke-width="2.48" stroke-linejoin="bevel" points="1950.34,525.056 1950.34,454.73"/>
<polyline class="Stem" fill="none" stroke="#000000" stroke-width="2.48" stroke-linejoin="bevel" points="1515.08,1124.03 1515.08,1041.2"/>
<polyline class="Stem" fill="none" stroke="#000000" stroke-width="2.48" stroke-linejoin="bevel" points="1615.79,1124.03 1615.79,1059.91"/>
<polyline class="Stem" fill="none" stroke="#000000" stroke-width="2.48" stroke-linejoin="bevel" points="588.26,500.256 588.26,417.424"/>
<polyline class="Stem" fill="none" stroke="#000000" stroke-width="2.48" stroke-linejoin="bevel" points="1682.93,1136.43 1682.93,1065.89"/>
<polyline class="Stem" fill="none" stroke="#000000" stroke-width="2.48" stroke-linejoin="bevel" points="1750.07,1124.03 1750.07,1059.91"/>
<polyline class="Stem" fill="none" stroke="#000000" stroke-width="2.48" stroke-linejoin="bevel" points="445.679,562.256 445.679,454.624"/>
<polyline class="Stem" fill="none" stroke="#000000" stroke-width="2.48" stroke-linejoin="bevel" points="1817.21,1136.43 1817.21,1065.89"/>
<polyline class="Stem" fill="none" stroke="#000000" stroke-width="2.48" stroke-linejoin="bevel" points="1048.77,793.544 1048.77,716.912"/>
<polyline class="Stem" fill="none" stroke="#000000" stroke-width="2.48" stroke-linejoin="bevel" points="279.473,830.744 279.473,747.912"/>
<polyline class="Stem" fill="none" stroke="#000000" stroke-width="2.48" stroke-linejoin="bevel" points="987.4,781.144 987.4,716.912"/>
<polyline class="Stem" fill="none" stroke="#000000" stroke-width="2.48" stroke-linejoin="bevel" points="926.027,781.144 926.027,716.912"/>
<polyline class="Stem" fill="none" stroke="#000000" stroke-width="2.48" stroke-linejoin="bevel" points="417.563,830.744 417.563,747.912"/>
<polyline class="Stem" fill="none" stroke="#000000" stroke-width="2.48" stroke-linejoin="bevel" points="864.653,781.144 864.653,716.912"/>
<polyline class="Stem" fill="none" stroke="#000000" stroke-width="2.48" stroke-linejoin="bevel" points="793.834,793.544 793.834,710.911"/>
<polyline class="Stem" fill="none" stroke="#000000" stroke-width="2.48" stroke-linejoin="bevel" points="509.623,818.344 509.623,747.792"/>
<polyline class="Stem" fill="none" stroke="#000000" stroke-width="2.48" stroke-linejoin="bevel" points="677.132,793.544 677.132,710.712"/>
<polyline class="Stem" fill="none" stroke="#000000" stroke-width="2.48" stroke-linejoin="bevel" points="1884.36,1124.03 1884.36,1047.29"/>
<polyline class="Stem" fill="none" stroke="#000000" stroke-width="2.48" stroke-linejoin="bevel" points="1951.5,1111.63 1951.5,1041.31"/>
<polyline class="Stem" fill="none" stroke="#000000" stroke-width="2.48" stroke-linejoin="bevel" points="570.996,805.944 570.996,741.833"/>
<path class="Note" transform="matrix(0.992,0,0,0.992,540.004,809.912)" d="M0,4.2 C0,8.5 3.1,13.3 11.2,13.3 C21.6,13.3 32.5,4.8 32.5,-4 C32.5,-9.9 27.5,-13.2 21.3,-13.2 C11.6,-13.2 0,-5 0,4.2"/>
<path class="Note" transform="matrix(0.992,0,0,0.992,1920.5,1115.6)" d="M0,4.2 C0,8.5 3.1,13.3 11.2,13.3 C21.6,13.3 32.5,4.8 32.5,-4 C32.5,-9.9 27.5,-13.2 21.3,-13.2 C11.6,-13.2 0,-5 0,4.2"/>
<path class="Note" transform="matrix(0.992,0,0,0.992,1282.68,529.024)" d="M0,4.2 C0,8.5 3.1,13.3 11.2,13.3 C21.6,13.3 32.5,4.8 32.5,-4 C32.5,-9.9 27.5,-13.2 21.3,-13.2 C11.6,-13.2 0,-5 0,4.2"/>
<path class="Note" transform="matrix(0.992,0,0,0.992,1081.35,529.024)" d="M21.3,-13.2 C11.6,-13.2 0,-5.1 0,4.2 C0,8.5 3.1,13.3 11.2,13.3 C21.6,13.3 32.5,4.8 32.5,-4 C32.5,-9.9 27.5,-13.2 21.3,-13.2 M7.5,8.6 C4.2,8.6 3.5,5.9 3.5,5 C3.5,0.1 20.3,-8.5 25,-8.5 C27.4,-8.5 29,-7.1 29,-4.9 C29,0.1 12.1,8.6 7.5,8.6"/>
<path class="Note" transform="matrix(0.992,0,0,0.992,478.63,822.312)" d="M0,4.2 C0,8.5 3.1,13.3 11.2,13.3 C21.6,13.3 32.5,4.8 32.5,-4 C32.5,-9.9 27.5,-13.2 21.3,-13.2 C11.6,-13.2 0,-5 0,4.2"/>
<path class="Note" transform="matrix(0.992,0,0,0.992,646.14,797.512)" d="M0,4.2 C0,8.5 3.1,13.3 11.2,13.3 C21.6,13.3 32.5,4.8 32.5,-4 C32.5,-9.9 27.5,-13.2 21.3,-13.2 C11.6,-13.2 0,-5 0,4.2"/>
<path class="Note" transform="matrix(0.992,0,0,0.992,507.124,1128)" d="M0,4.2 C0,8.5 3.1,13.3 11.2,13.3 C21.6,13.3 32.5,4.8 32.5,-4 C32.5,-9.9 27.5,-13.2 21.3,-13.2 C11.6,-13.2 0,-5 0,4.2"/>
<path class="Note" transform="matrix(0.992,0,0,0.992,1853.36,1128)" d="M0,4.2 C0,8.5 3.1,13.3 11.2,13.3 C21.6,13.3 32.5,4.8 32.5,-4 C32.5,-9.9 27.5,-13.2 21.3,-13.2 C11.6,-13.2 0,-5 0,4.2"/>
<path class="Note" transform="matrix(0.992,0,0,0.992,740.929,1140.4)" d="M0,4.2 C0,8.5 3.1,13.3 11.2,13.3 C21.6,13.3 32.5,4.8 32.5,-4 C32.5,-9.9 27.5,-13.2 21.3,-13.2 C11.6,-13.2 0,-5 0,4.2"/>
<path class="Note" transform="matrix(0.992,0,0,0.992,439.984,1115.6)" d="M0,4.2 C0,8.5 3.1,13.3 11.2,13.3 C21.6,13.3 32.5,4.8 32.5,-4 C32.5,-9.9 27.5,-13.2 21.3,-13.2 C11.6,-13.2 0,-5 0,4.2"/>
<path class="Note" transform="matrix(0.992,0,0,0.992,762.842,797.512)" d="M0,4.2 C0,8.5 3.1,13.3 11.2,13.3 C21.6,13.3 32.5,4.8 32.5,-4 C32.5,-9.9 27.5,-13.2 21.3,-13.2 C11.6,-13.2 0,-5 0,4.2"/>
<path class="Note" transform="matrix(0.992,0,0,0.992,1786.22,1140.4)" d="M0,4.2 C0,8.5 3.1,13.3 11.2,13.3 C21.6,13.3 32.5,4.8 32.5,-4 C32.5,-9.9 27.5,-13.2 21.3,-13.2 C11.6,-13.2 0,-5 0,4.2"/>
<path class="Note" transform="matrix(0.992,0,0,0.992,386.57,834.712)" d="M0,4.2 C0,8.5 3.1,13.3 11.2,13.3 C21.6,13.3 32.5,4.8 32.5,-4 C32.5,-9.9 27.5,-13.2 21.3,-13.2 C11.6,-13.2 0,-5 0,4.2"/>
<path class="Note" transform="matrix(0.992,0,0,0.992,833.661,785.112)" d="M0,4.2 C0,8.5 3.1,13.3 11.2,13.3 C21.6,13.3 32.5,4.8 32.5,-4 C32.5,-9.9 27.5,-13.2 21.3,-13.2 C11.6,-13.2 0,-5 0,4.2"/>
<path class="Note" transform="matrix(0.992,0,0,0.992,811.749,1128)" d="M0,4.2 C0,8.5 3.1,13.3 11.2,13.3 C21.6,13.3 32.5,4.8 32.5,-4 C32.5,-9.9 27.5,-13.2 21.3,-13.2 C11.6,-13.2 0,-5 0,4.2"/>
<path class="Note" transform="matrix(0.992,0,0,0.992,974.06,516.624)" d="M0,4.2 C0,8.5 3.1,13.3 11.2,13.3 C21.6,13.3 32.5,4.8 32.5,-4 C32.5,-9.9 27.5,-13.2 21.3,-13.2 C11.6,-13.2 0,-5 0,4.2"/>
<path class="Note" transform="matrix(0.992,0,0,0.992,248.48,1152.8)" d="M21.3,-13.2 C11.6,-13.2 0,-5.1 0,4.2 C0,8.5 3.1,13.3 11.2,13.3 C21.6,13.3 32.5,4.8 32.5,-4 C32.5,-9.9 27.5,-13.2 21.3,-13.2 M7.5,8.6 C4.2,8.6 3.5,5.9 3.5,5 C3.5,0.1 20.3,-8.5 25,-8.5 C27.4,-8.5 29,-7.1 29,-4.9 C29,0.1 12.1,8.6 7.5,8.6"/>
<path class="Note" transform="matrix(0.992,0,0,0.992,895.035,785.112)" d="M0,4.2 C0,8.5 3.1,13.3 11.2,13.3 C21.6,13.3 32.5,4.8 32.5,-4 C32.5,-9.9 27.5,-13.2 21.3,-13.2 C11.6,-13.2 0,-5 0,4.2"/>
<path class="Note" transform="matrix(0.992,0,0,0.992,1719.08,1128)" d="M0,4.2 C0,8.5 3.1,13.3 11.2,13.3 C21.6,13.3 32.5,4.8 32.5,-4 C32.5,-9.9 27.5,-13.2 21.3,-13.2 C11.6,-13.2 0,-5 0,4.2"/>
<path class="Note" transform="matrix(0.992,0,0,0.992,248.48,834.712)" d="M21.3,-13.2 C11.6,-13.2 0,-5.1 0,4.2 C0,8.5 3.1,13.3 11.2,13.3 C21.6,13.3 32.5,4.8 32.5,-4 C32.5,-9.9 27.5,-13.2 21.3,-13.2 M7.5,8.6 C4.2,8.6 3.5,5.9 3.5,5 C3.5,0.1 20.3,-8.5 25,-8.5 C27.4,-8.5 29,-7.1 29,-4.9 C29,0.1 12.1,8.6 7.5,8.6"/>
<path class="Note" transform="matrix(0.992,0,0,0.992,956.408,785.112)" d="M0,4.2 C0,8.5 3.1,13.3 11.2,13.3 C21.6,13.3 32.5,4.8 32.5,-4 C32.5,-9.9 27.5,-13.2 21.3,-13.2 C11.6,-13.2 0,-5 0,4.2"/>
<path class="Note" transform="matrix(0.992,0,0,0.992,1353.26,529.024)" d="M0,4.2 C0,8.5 3.1,13.3 11.2,13.3 C21.6,13.3 32.5,4.8 32.5,-4 C32.5,-9.9 27.5,-13.2 21.3,-13.2 C11.6,-13.2 0,-5 0,4.2"/>
<path class="Note" transform="matrix(0.992,0,0,0.992,878.89,1128)" d="M0,4.2 C0,8.5 3.1,13.3 11.2,13.3 C21.6,13.3 32.5,4.8 32.5,-4 C32.5,-9.9 27.5,-13.2 21.3,-13.2 C11.6,-13.2 0,-5 0,4.2"/>
<path class="Note" transform="matrix(0.992,0,0,0.992,1017.78,797.512)" d="M0,4.2 C0,8.5 3.1,13.3 11.2,13.3 C21.6,13.3 32.5,4.8 32.5,-4 C32.5,-9.9 27.5,-13.2 21.3,-13.2 C11.6,-13.2 0,-5 0,4.2"/>
<path class="Note" transform="matrix(0.992,0,0,0.992,1651.94,1140.4)" d="M0,4.2 C0,8.5 3.1,13.3 11.2,13.3 C21.6,13.3 32.5,4.8 32.5,-4 C32.5,-9.9 27.5,-13.2 21.3,-13.2 C11.6,-13.2 0,-5 0,4.2"/>
<path class="Note" transform="matrix(0.992,0,0,0.992,1460.55,491.824)" d="M0,4.2 C0,8.5 3.1,13.3 11.2,13.3 C21.6,13.3 32.5,4.8 32.5,-4 C32.5,-9.9 27.5,-13.2 21.3,-13.2 C11.6,-13.2 0,-5 0,4.2"/>
<path class="Note" transform="matrix(0.992,0,0,0.992,946.031,1140.4)" d="M0,4.2 C0,8.5 3.1,13.3 11.2,13.3 C21.6,13.3 32.5,4.8 32.5,-4 C32.5,-9.9 27.5,-13.2 21.3,-13.2 C11.6,-13.2 0,-5 0,4.2"/>
<path class="Note" transform="matrix(0.992,0,0,0.992,1123.92,797.512)" d="M0,4.2 C0,8.5 3.1,13.3 11.2,13.3 C21.6,13.3 32.5,4.8 32.5,-4 C32.5,-9.9 27.5,-13.2 21.3,-13.2 C11.6,-13.2 0,-5 0,4.2"/>
<path class="Note" transform="matrix(0.992,0,0,0.992,1919.35,529.024)" d="M0,4.2 C0,8.5 3.1,13.3 11.2,13.3 C21.6,13.3 32.5,4.8 32.5,-4 C32.5,-9.9 27.5,-13.2 21.3,-13.2 C11.6,-13.2 0,-5 0,4.2"/>
<path class="Note" transform="matrix(0.992,0,0,0.992,1584.8,1128)" d="M0,4.2 C0,8.5 3.1,13.3 11.2,13.3 C21.6,13.3 32.5,4.8 32.5,-4 C32.5,-9.9 27.5,-13.2 21.3,-13.2 C11.6,-13.2 0,-5 0,4.2"/>
<path class="Note" transform="matrix(0.992,0,0,0.992,557.268,504.224)" d="M0,4.2 C0,8.5 3.1,13.3 11.2,13.3 C21.6,13.3 32.5,4.8 32.5,-4 C32.5,-9.9 27.5,-13.2 21.3,-13.2 C11.6,-13.2 0,-5 0,4.2"/>
<path class="Note" transform="matrix(0.992,0,0,0.992,1215.98,809.912)" d="M21.3,-13.2 C11.6,-13.2 0,-5.1 0,4.2 C0,8.5 3.1,13.3 11.2,13.3 C21.6,13.3 32.5,4.8 32.5,-4 C32.5,-9.9 27.5,-13.2 21.3,-13.2 M7.5,8.6 C4.2,8.6 3.5,5.9 3.5,5 C3.5,0.1 20.3,-8.5 25,-8.5 C27.4,-8.5 29,-7.1 29,-4.9 C29,0.1 12.1,8.6 7.5,8.6"/>
<path class="Note" transform="matrix(0.992,0,0,0.992,1566.43,491.824)" d="M0,4.2 C0,8.5 3.1,13.3 11.2,13.3 C21.6,13.3 32.5,4.8 32.5,-4 C32.5,-9.9 27.5,-13.2 21.3,-13.2 C11.6,-13.2 0,-5 0,4.2"/>
<path class="Note" transform="matrix(0.992,0,0,0.992,1354.07,797.512)" d="M0,4.2 C0,8.5 3.1,13.3 11.2,13.3 C21.6,13.3 32.5,4.8 32.5,-4 C32.5,-9.9 27.5,-13.2 21.3,-13.2 C11.6,-13.2 0,-5 0,4.2"/>
<path class="Note" transform="matrix(0.992,0,0,0.992,1920.5,822.312)" d="M0,4.2 C0,8.5 3.1,13.3 11.2,13.3 C21.6,13.3 32.5,4.8 32.5,-4 C32.5,-9.9 27.5,-13.2 21.3,-13.2 C11.6,-13.2 0,-5 0,4.2"/>
<path class="Note" transform="matrix(0.992,0,0,0.992,1484.09,1128)" d="M0,4.2 C0,8.5 3.1,13.3 11.2,13.3 C21.6,13.3 32.5,4.8 32.5,-4 C32.5,-9.9 27.5,-13.2 21.3,-13.2 C11.6,-13.2 0,-5 0,4.2"/>
<path class="Note" transform="matrix(0.992,0,0,0.992,1848.77,541.424)" d="M0,4.2 C0,8.5 3.1,13.3 11.2,13.3 C21.6,13.3 32.5,4.8 32.5,-4 C32.5,-9.9 27.5,-13.2 21.3,-13.2 C11.6,-13.2 0,-5 0,4.2"/>
<path class="Note" transform="matrix(0.992,0,0,0.992,1415.44,809.912)" d="M0,4.2 C0,8.5 3.1,13.3 11.2,13.3 C21.6,13.3 32.5,4.8 32.5,-4 C32.5,-9.9 27.5,-13.2 21.3,-13.2 C11.6,-13.2 0,-5 0,4.2"/>
<path class="Note" transform="matrix(0.992,0,0,0.992,1013.17,1152.8)" d="M0,4.2 C0,8.5 3.1,13.3 11.2,13.3 C21.6,13.3 32.5,4.8 32.5,-4 C32.5,-9.9 27.5,-13.2 21.3,-13.2 C11.6,-13.2 0,-5 0,4.2"/>
<path class="Note" transform="matrix(0.992,0,0,0.992,1377.95,1165.2)" d="M0,4.2 C0,8.5 3.1,13.3 11.2,13.3 C21.6,13.3 32.5,4.8 32.5,-4 C32.5,-9.9 27.5,-13.2 21.3,-13.2 C11.6,-13.2 0,-5 0,4.2"/>
<path class="Note" transform="matrix(0.992,0,0,0.992,1778.18,529.024)" d="M0,4.2 C0,8.5 3.1,13.3 11.2,13.3 C21.6,13.3 32.5,4.8 32.5,-4 C32.5,-9.9 27.5,-13.2 21.3,-13.2 C11.6,-13.2 0,-5 0,4.2"/>
<path class="Note" transform="matrix(0.992,0,0,0.992,691.486,504.224)" d="M0,4.2 C0,8.5 3.1,13.3 11.2,13.3 C21.6,13.3 32.5,4.8 32.5,-4 C32.5,-9.9 27.5,-13.2 21.3,-13.2 C11.6,-13.2 0,-5 0,4.2"/>
<path class="Note" transform="matrix(0.992,0,0,0.992,1521.58,822.312)" d="M0,4.2 C0,8.5 3.1,13.3 11.2,13.3 C21.6,13.3 32.5,4.8 32.5,-4 C32.5,-9.9 27.5,-13.2 21.3,-13.2 C11.6,-13.2 0,-5 0,4.2"/>
<path class="Note" transform="matrix(0.992,0,0,0.992,613.261,1140.4)" d="M0,4.2 C0,8.5 3.1,13.3 11.2,13.3 C21.6,13.3 32.5,4.8 32.5,-4 C32.5,-9.9 27.5,-13.2 21.3,-13.2 C11.6,-13.2 0,-5 0,4.2"/>
<path class="Note" transform="matrix(0.992,0,0,0.992,1859.13,834.712)" d="M0,4.2 C0,8.5 3.1,13.3 11.2,13.3 C21.6,13.3 32.5,4.8 32.5,-4 C32.5,-9.9 27.5,-13.2 21.3,-13.2 C11.6,-13.2 0,-5 0,4.2"/>
<path class="Note" transform="matrix(0.992,0,0,0.992,1613.64,822.312)" d="M0,4.2 C0,8.5 3.1,13.3 11.2,13.3 C21.6,13.3 32.5,4.8 32.5,-4 C32.5,-9.9 27.5,-13.2 21.3,-13.2 C11.6,-13.2 0,-5 0,4.2"/>
<path class="Note" transform="matrix(0.992,0,0,0.992,903.475,504.224)" d="M0,4.2 C0,8.5 3.1,13.3 11.2,13.3 C21.6,13.3 32.5,4.8 32.5,-4 C32.5,-9.9 27.5,-13.2 21.3,-13.2 C11.6,-13.2 0,-5 0,4.2"/>
<path class="Note" transform="matrix(0.992,0,0,0.992,1310.81,1165.2)" d="M0,4.2 C0,8.5 3.1,13.3 11.2,13.3 C21.6,13.3 32.5,4.8 32.5,-4 C32.5,-9.9 27.5,-13.2 21.3,-13.2 C11.6,-13.2 0,-5 0,4.2"/>
<path class="Note" transform="matrix(0.992,0,0,0.992,1707.6,516.624)" d="M0,4.2 C0,8.5 3.1,13.3 11.2,13.3 C21.6,13.3 32.5,4.8 32.5,-4 C32.5,-9.9 27.5,-13.2 21.3,-13.2 C11.6,-13.2 0,-5 0,4.2"/>
<path class="Note" transform="matrix(0.992,0,0,0.992,1675.01,822.312)" d="M0,4.2 C0,8.5 3.1,13.3 11.2,13.3 C21.6,13.3 32.5,4.8 32.5,-4 C32.5,-9.9 27.5,-13.2 21.3,-13.2 C11.6,-13.2 0,-5 0,4.2"/>
<path class="Note" transform="matrix(0.992,0,0,0.992,762.305,491.824)" d="M0,4.2 C0,8.5 3.1,13.3 11.2,13.3 C21.6,13.3 32.5,4.8 32.5,-4 C32.5,-9.9 27.5,-13.2 21.3,-13.2 C11.6,-13.2 0,-5 0,4.2"/>
<path class="Note" transform="matrix(0.992,0,0,0.992,832.89,491.824)" d="M0,4.2 C0,8.5 3.1,13.3 11.2,13.3 C21.6,13.3 32.5,4.8 32.5,-4 C32.5,-9.9 27.5,-13.2 21.3,-13.2 C11.6,-13.2 0,-5 0,4.2"/>
<path class="Note" transform="matrix(0.992,0,0,0.992,1736.38,809.912)" d="M0,4.2 C0,8.5 3.1,13.3 11.2,13.3 C21.6,13.3 32.5,4.8 32.5,-4 C32.5,-9.9 27.5,-13.2 21.3,-13.2 C11.6,-13.2 0,-5 0,4.2"/>
<path class="Note" transform="matrix(0.992,0,0,0.992,1797.76,822.312)" d="M0,4.2 C0,8.5 3.1,13.3 11.2,13.3 C21.6,13.3 32.5,4.8 32.5,-4 C32.5,-9.9 27.5,-13.2 21.3,-13.2 C11.6,-13.2 0,-5 0,4.2"/>
<path class="Note" transform="matrix(0.992,0,0,0.992,1119.31,1165.2)" d="M21.3,-13.2 C11.6,-13.2 0,-5.1 0,4.2 C0,8.5 3.1,13.3 11.2,13.3 C21.6,13.3 32.5,4.8 32.5,-4 C32.5,-9.9 27.5,-13.2 21.3,-13.2 M7.5,8.6 C4.2,8.6 3.5,5.9 3.5,5 C3.5,0.1 20.3,-8.5 25,-8.5 C27.4,-8.5 29,-7.1 29,-4.9 C29,0.1 12.1,8.6 7.5,8.6"/>
<path class="Note" transform="matrix(0.992,0,0,0.992,1637.01,504.224)" d="M0,4.2 C0,8.5 3.1,13.3 11.2,13.3 C21.6,13.3 32.5,4.8 32.5,-4 C32.5,-9.9 27.5,-13.2 21.3,-13.2 C11.6,-13.2 0,-5 0,4.2"/>
<path class="Note" transform="matrix(0.992,0,0,0.992,414.687,566.224)" d="M0,4.2 C0,8.5 3.1,13.3 11.2,13.3 C21.6,13.3 32.5,4.8 32.5,-4 C32.5,-9.9 27.5,-13.2 21.3,-13.2 C11.6,-13.2 0,-5 0,4.2"/>
<path class="Clef" transform="matrix(0.992,0,0,0.992,123,797.512)" d="M12.3,51.3 C12.3,57.9 17.3,66.6 30.8,66.6 C35.5,66.6 39.6,65.4 43.2,63.2 C48.6,59.4 50,52.8 50,46.5 C50,42.6 49.4,38.1 48.4,32.4 C48.1,30.4 47.5,27.4 46.9,23.5 C56.7,20.3 64,10.1 64,-0.2 C64,-15.3 53.3,-25.5 38.7,-25.5 C37.7,-31.5 36.7,-37.4 35.9,-43 C46.4,-54.1 53.7,-66.6 53.7,-82.5 C53.7,-91.6 50.9,-99 49.3,-102.6 C46.9,-107.7 44,-111.2 42.2,-111.2 C41.5,-111.2 38.4,-110 35.1,-106.1 C28.7,-98.5 26.9,-85.7 26.9,-77.3 C26.9,-71.9 27.4,-67 29.1,-55.8 C29,-55.7 23.8,-50.4 21.7,-48.7 C12.6,-40.3 0,-28.1 0,-8.1 C0,10.6 16.3,25.3 34.9,25.3 C37.8,25.3 40.5,25 42.8,24.6 C44.7,34.2 45.9,41.2 45.9,46.5 C45.9,56.9 40.5,62.4 30.4,62.4 C28,62.4 25.9,61.9 25.7,61.9 C25.6,61.8 25.4,61.7 25.4,61.6 C25.4,61.4 25.6,61.3 25.9,61.3 C30.6,60.5 35.3,56.5 35.3,50.1 C35.3,44.7 31.2,39 23.7,39 C16.7,39 12.3,44.7 12.3,51.3 M33.2,-82.2 C34.1,-86.2 38.7,-96.7 43.9,-96.7 C45.4,-96.7 47.8,-91.9 47.8,-84.9 C47.8,-74.5 40.1,-66.7 33.2,-59.9 C32.6,-63.9 32.1,-67.8 32.1,-72 C32.1,-75.7 32.4,-79.1 33.2,-82.2 M42,20.6 C40,21 38.1,21.2 36.2,21.2 C21.9,21.2 9.7,11.2 9.7,-3.9 C9.7,-16.1 18.3,-27 27.1,-34.6 C28.8,-36.1 30.4,-37.5 31.9,-39 C32.8,-33.6 33.5,-28.9 34.2,-24.8 C25.1,-22.1 18.9,-12.5 18.9,-3.1 C18.9,3.9 24.4,13.5 32.4,13.5 C33.2,13.5 34.1,13.1 34.1,12.2 C34.1,11.3 33.1,10.8 31.9,10 C28,7.6 25.8,5 25.8,0.1 C25.8,-6 30.4,-10.9 36.2,-12.3 L42,20.6 M56.2,2.1 C56.2,9.2 53.3,16.5 46.2,19.4 C44.1,7.4 41.4,-8.5 40.7,-12.9 C49.7,-12.9 56.2,-6.8 56.2,2.1"/>
<path class="Clef" transform="matrix(0.992,0,0,0.992,123,1115.6)" d="M12.3,51.3 C12.3,57.9 17.3,66.6 30.8,66.6 C35.5,66.6 39.6,65.4 43.2,63.2 C48.6,59.4 50,52.8 50,46.5 C50,42.6 49.4,38.1 48.4,32.4 C48.1,30.4 47.5,27.4 46.9,23.5 C56.7,20.3 64,10.1 64,-0.2 C64,-15.3 53.3,-25.5 38.7,-25.5 C37.7,-31.5 36.7,-37.4 35.9,-43 C46.4,-54.1 53.7,-66.6 53.7,-82.5 C53.7,-91.6 50.9,-99 49.3,-102.6 C46.9,-107.7 44,-111.2 42.2,-111.2 C41.5,-111.2 38.4,-110 35.1,-106.1 C28.7,-98.5 26.9,-85.7 26.9,-77.3 C26.9,-71.9 27.4,-67 29.1,-55.8 C29,-55.7 23.8,-50.4 21.7,-48.7 C12.6,-40.3 0,-28.1 0,-8.1 C0,10.6 16.3,25.3 34.9,25.3 C37.8,25.3 40.5,25 42.8,24.6 C44.7,34.2 45.9,41.2 45.9,46.5 C45.9,56.9 40.5,62.4 30.4,62.4 C28,62.4 25.9,61.9 25.7,61.9 C25.6,61.8 25.4,61.7 25.4,61.6 C25.4,61.4 25.6,61.3 25.9,61.3 C30.6,60.5 35.3,56.5 35.3,50.1 C35.3,44.7 31.2,39 23.7,39 C16.7,39 12.3,44.7 12.3,51.3 M33.2,-82.2 C34.1,-86.2 38.7,-96.7 43.9,-96.7 C45.4,-96.7 47.8,-91.9 47.8,-84.9 C47.8,-74.5 40.1,-66.7 33.2,-59.9 C32.6,-63.9 32.1,-67.8 32.1,-72 C32.1,-75.7 32.4,-79.1 33.2,-82.2 M42,20.6 C40,21 38.1,21.2 36.2,21.2 C21.9,21.2 9.7,11.2 9.7,-3.9 C9.7,-16.1 18.3,-27 27.1,-34.6 C28.8,-36.1 30.4,-37.5 31.9,-39 C32.8,-33.6 33.5,-28.9 34.2,-24.8 C25.1,-22.1 18.9,-12.5 18.9,-3.1 C18.9,3.9 24.4,13.5 32.4,13.5 C33.2,13.5 34.1,13.1 34.1,12.2 C34.1,11.3 33.1,10.8 31.9,10 C28,7.6 25.8,5 25.8,0.1 C25.8,-6 30.4,-10.9 36.2,-12.3 L42,20.6 M56.2,2.1 C56.2,9.2 53.3,16.5 46.2,19.4 C44.1,7.4 41.4,-8.5 40.7,-12.9 C49.7,-12.9 56.2,-6.8 56.2,2.1"/>
<path class="Clef" transform="matrix(0.992,0,0,0.992,247,479.424)" d="M12.3,51.3 C12.3,57.9 17.3,66.6 30.8,66.6 C35.5,66.6 39.6,65.4 43.2,63.2 C48.6,59.4 50,52.8 50,46.5 C50,42.6 49.4,38.1 48.4,32.4 C48.1,30.4 47.5,27.4 46.9,23.5 C56.7,20.3 64,10.1 64,-0.2 C64,-15.3 53.3,-25.5 38.7,-25.5 C37.7,-31.5 36.7,-37.4 35.9,-43 C46.4,-54.1 53.7,-66.6 53.7,-82.5 C53.7,-91.6 50.9,-99 49.3,-102.6 C46.9,-107.7 44,-111.2 42.2,-111.2 C41.5,-111.2 38.4,-110 35.1,-106.1 C28.7,-98.5 26.9,-85.7 26.9,-77.3 C26.9,-71.9 27.4,-67 29.1,-55.8 C29,-55.7 23.8,-50.4 21.7,-48.7 C12.6,-40.3 0,-28.1 0,-8.1 C0,10.6 16.3,25.3 34.9,25.3 C37.8,25.3 40.5,25 42.8,24.6 C44.7,34.2 45.9,41.2 45.9,46.5 C45.9,56.9 40.5,62.4 30.4,62.4 C28,62.4 25.9,61.9 25.7,61.9 C25.6,61.8 25.4,61.7 25.4,61.6 C25.4,61.4 25.6,61.3 25.9,61.3 C30.6,60.5 35.3,56.5 35.3,50.1 C35.3,44.7 31.2,39 23.7,39 C16.7,39 12.3,44.7 12.3,51.3 M33.2,-82.2 C34.1,-86.2 38.7,-96.7 43.9,-96.7 C45.4,-96.7 47.8,-91.9 47.8,-84.9 C47.8,-74.5 40.1,-66.7 33.2,-59.9 C32.6,-63.9 32.1,-67.8 32.1,-72 C32.1,-75.7 32.4,-79.1 33.2,-82.2 M42,20.6 C40,21 38.1,21.2 36.2,21.2 C21.9,21.2 9.7,11.2 9.7,-3.9 C9.7,-16.1 18.3,-27 27.1,-34.6 C28.8,-36.1 30.4,-37.5 31.9,-39 C32.8,-33.6 33.5,-28.9 34.2,-24.8 C25.1,-22.1 18.9,-12.5 18.9,-3.1 C18.9,3.9 24.4,13.5 32.4,13.5 C33.2,13.5 34.1,13.1 34.1,12.2 C34.1,11.3 33.1,10.8 31.9,10 C28,7.6 25.8,5 25.8,0.1 C25.8,-6 30.4,-10.9 36.2,-12.3 L42,20.6 M56.2,2.1 C56.2,9.2 53.3,16.5 46.2,19.4 C44.1,7.4 41.4,-8.5 40.7,-12.9 C49.7,-12.9 56.2,-6.8 56.2,2.1"/>
<path class="TimeSig" transform="matrix(0.992,0,0,0.992,335.28,454.624)" d="M32.5,-17.9 C30,-16.3 28.2,-13.4 28.2,-10.2 C28.2,-9.8 28.2,-9.4 28.3,-9 C28.8,-4.9 32.1,-1.7 36.2,-1.2 C36.5,-1.2 37,-1.2 37.3,-1.2 C42.3,-1.2 46.3,-5.2 46.3,-10.2 C46.3,-10.9 46.3,-11.6 46.1,-12.3 C45.2,-16.6 41.3,-25.8 24.3,-25.8 C2.5,-25.8 0,-7.7 0,-1.2 C0,10.7 1.5,25.6 26.5,25.6 C36.4,25.6 44.1,19.8 44.5,9.1 C44.5,8.6 44.2,8.3 43.7,8.3 L42.4,8.3 C42,8.3 41.6,8.7 41.6,9.1 C41.2,17.4 35.3,22.4 26.5,22.4 C17.8,22.4 13.6,17.7 13.6,8.9 L13.6,-10.2 C13.6,-15.8 15.8,-22.2 24.7,-22.2 C29.4,-22.2 31.5,-20.5 32.6,-18.8 C32.7,-18.6 32.7,-18.5 32.7,-18.3 C32.7,-18.2 32.7,-18 32.5,-17.9"/>
<path class="Beam" fill-rule="evenodd" d="M1766.14,735.483 L1829.99,741.683 L1829.99,754.141 L1766.14,747.941 L1766.14,735.483 "/>
<path class="Beam" fill-rule="evenodd" d="M792.058,405.024 L865.122,405.024 L865.122,417.424 L792.058,417.424 L792.058,405.024 "/>
<path class="Beam" fill-rule="evenodd" d="M1643.39,741.712 L1707.24,741.712 L1707.24,754.112 L1643.39,754.112 L1643.39,741.712 "/>
<path class="Beam" fill-rule="evenodd" d="M1737.35,442.202 L1810.41,448.402 L1810.41,460.847 L1737.35,454.647 L1737.35,442.202 "/>
<path class="Beam" fill-rule="evenodd" d="M1888.88,747.883 L1952.74,741.683 L1952.74,754.141 L1888.88,760.341 L1888.88,747.883 "/>
<path class="Beam" fill-rule="evenodd" d="M1596.18,417.402 L1669.24,423.602 L1669.24,436.047 L1596.18,429.847 L1596.18,417.402 "/>
<path class="Beam" fill-rule="evenodd" d="M1383.82,716.883 L1447.67,723.083 L1447.67,735.541 L1383.82,729.341 L1383.82,716.883 "/>
<path class="Beam" fill-rule="evenodd" d="M933.227,423.602 L1006.29,429.802 L1006.29,442.247 L933.227,436.047 L933.227,423.602 "/>
<path class="Beam" fill-rule="evenodd" d="M1878.52,454.602 L1951.58,448.402 L1951.58,460.847 L1878.52,467.047 L1878.52,454.602 "/>
<path class="Beam" fill-rule="evenodd" d="M975.783,1059.78 L1045.4,1065.98 L1045.4,1078.42 L975.783,1072.22 L975.783,1059.78 "/>
<path class="Beam" fill-rule="evenodd" d="M1614.55,1053.58 L1684.17,1059.78 L1684.17,1072.22 L1614.55,1066.02 L1614.55,1053.58 "/>
<path class="Beam" fill-rule="evenodd" d="M1748.83,1053.58 L1818.45,1059.78 L1818.45,1072.22 L1748.83,1066.02 L1748.83,1053.58 "/>
<path class="Beam" fill-rule="evenodd" d="M841.501,1041.2 L911.122,1041.2 L911.122,1053.6 L841.501,1053.6 L841.501,1041.2 "/>
<path class="Beam" fill-rule="evenodd" d="M863.413,710.712 L1050.01,710.712 L1050.01,723.112 L863.413,723.112 L863.413,710.712 "/>
<path class="Beam" fill-rule="evenodd" d="M469.736,1034.98 L539.357,1041.18 L539.357,1053.62 L469.736,1047.42 L469.736,1034.98 "/>
<path class="Beam" fill-rule="evenodd" d="M1312.43,448.424 L1385.49,448.424 L1385.49,460.824 L1312.43,460.824 L1312.43,448.424 "/>
<path class="Beam" fill-rule="evenodd" d="M1883.12,1041.18 L1952.74,1034.98 L1952.74,1047.42 L1883.12,1053.62 L1883.12,1041.18 "/>
<path class="Beam" fill-rule="evenodd" d="M508.383,741.683 L572.236,735.483 L572.236,747.941 L508.383,754.141 L508.383,741.683 "/>
<path class="Beam" fill-rule="evenodd" d="M1340.56,1084.6 L1410.18,1084.6 L1410.18,1097 L1340.56,1097 L1340.56,1084.6 "/>
<path class="Hook" transform="matrix(0.992,0,0,0.992,721.238,417.424)" d="M0,22.7 C0,23 0.1,23.6 0.8,23.8 C5.1,25.2 13.7,30.6 20.2,41.7 C22,44.8 24.9,49.1 24.9,57.4 C24.9,64.6 23.1,72 20.4,79.2 C20.2,79.8 20.1,80.3 20.1,80.7 C20.1,81.4 20.5,81.7 21.2,81.7 C21.8,81.7 22.3,81.3 22.7,80.6 C27.2,72.6 28.9,63.3 28.9,54.2 C28.4,41.3 21,31.8 21,31.8 C21.3,31.8 11.8,19.5 9.1,15.3 C5.4,9.6 3.7,3.9 3.5,3.5 C3.4,3.2 2.5,-0.4 2.5,-0.4 C2.4,-0.8 1.9,-1.2 1.3,-1.2 C0.6,-1.2 0,-0.6 0,0.1 L0,22.7 "/>
<path class="Hook" transform="matrix(0.992,0,0,0.992,792.594,710.712)" d="M0,22.7 C0,23 0.1,23.6 0.8,23.8 C5.1,25.2 13.7,30.6 20.2,41.7 C22,44.8 24.9,49.1 24.9,57.4 C24.9,64.6 23.1,72 20.4,79.2 C20.2,79.8 20.1,80.3 20.1,80.7 C20.1,81.4 20.5,81.7 21.2,81.7 C21.8,81.7 22.3,81.3 22.7,80.6 C27.2,72.6 28.9,63.3 28.9,54.2 C28.4,41.3 21,31.8 21,31.8 C21.3,31.8 11.8,19.5 9.1,15.3 C5.4,9.6 3.7,3.9 3.5,3.5 C3.4,3.2 2.5,-0.4 2.5,-0.4 C2.4,-0.8 1.9,-1.2 1.3,-1.2 C0.6,-1.2 0,-0.6 0,0.1 L0,22.7 "/>
<path class="Hook" transform="matrix(0.992,0,0,0.992,770.682,1053.6)" d="M0,22.7 C0,23 0.1,23.6 0.8,23.8 C5.1,25.2 13.7,30.6 20.2,41.7 C22,44.8 24.9,49.1 24.9,57.4 C24.9,64.6 23.1,72 20.4,79.2 C20.2,79.8 20.1,80.3 20.1,80.7 C20.1,81.4 20.5,81.7 21.2,81.7 C21.8,81.7 22.3,81.3 22.7,80.6 C27.2,72.6 28.9,63.3 28.9,54.2 C28.4,41.3 21,31.8 21,31.8 C21.3,31.8 11.8,19.5 9.1,15.3 C5.4,9.6 3.7,3.9 3.5,3.5 C3.4,3.2 2.5,-0.4 2.5,-0.4 C2.4,-0.8 1.9,-1.2 1.3,-1.2 C0.6,-1.2 0,-0.6 0,0.1 L0,22.7 "/>
<path class="Lyrics" d="M281.846,1247.1 L281.846,1203.4 L278.096,1203.4 L278.096,1247.1 L281.846,1247.1 M269.346,1221.2 L269.346,1244.85 L273.096,1244.85 L273.096,1204.45 L269.346,1204.45 L269.346,1218.05 L259.096,1218.05 L259.096,1221.2 L269.346,1221.2 M265.546,1231.1 C262.896,1231.7 255.896,1232.55 251.146,1232.55 L251.146,1207.95 L247.346,1207.95 L247.346,1235.9 L249.746,1235.9 C255.246,1235.9 262.396,1235.15 265.996,1234.4 L265.546,1231.1 "/>
<path class="Lyrics" d="M1346.31,1218.05 L1346.31,1214.9 L1339.66,1214.9 L1339.66,1203.4 L1335.86,1203.4 L1335.86,1229.55 L1339.66,1229.55 L1339.66,1218.05 L1346.31,1218.05 M1340.21,1238.6 C1340.21,1233.7 1335.16,1230.25 1325.71,1230.25 C1316.21,1230.25 1311.26,1233.6 1311.26,1238.6 C1311.26,1243.55 1316.21,1246.9 1325.71,1246.9 C1335.16,1246.9 1340.21,1243.5 1340.21,1238.6 M1336.26,1238.6 C1336.26,1241.75 1332.31,1243.75 1325.71,1243.75 C1319.11,1243.75 1315.21,1241.7 1315.21,1238.6 C1315.21,1235.5 1319.11,1233.45 1325.71,1233.45 C1332.31,1233.45 1336.26,1235.45 1336.26,1238.6 M1311.36,1223.4 L1311.36,1210.1 L1327.26,1210.1 L1327.26,1206.9 L1307.56,1206.9 L1307.56,1226.55 L1311.11,1226.55 C1318.66,1226.55 1326.76,1225.9 1331.61,1225.05 L1331.21,1221.95 C1326.96,1222.75 1319.56,1223.4 1313.51,1223.4 L1311.36,1223.4 "/>
<path class="Lyrics" d="M642.517,1203.4 L638.717,1203.4 L638.717,1247.1 L642.517,1247.1 L642.517,1224.85 L649.667,1224.85 L649.667,1221.6 L642.517,1221.6 L642.517,1203.4 M631.167,1208.1 L610.617,1208.1 L610.617,1211.3 L627.067,1211.3 C626.267,1221.15 620.017,1230.35 609.117,1235.4 L611.467,1238.4 C622.717,1232.55 630.917,1222.3 631.167,1208.1"/>
<path class="Lyrics" d="M1109.98,604.42 L1106.23,604.42 L1106.23,648.12 L1109.98,648.12 L1109.98,625.22 L1117.03,625.22 L1117.03,622.02 L1109.98,622.02 L1109.98,604.42 M1102.38,633.02 C1096.53,634.12 1088.78,634.57 1081.83,634.52 L1081.83,623.97 L1098.13,623.97 L1098.13,608.47 L1077.93,608.47 L1077.93,611.62 L1094.33,611.62 L1094.33,620.82 L1078.03,620.82 L1078.03,637.72 L1081.73,637.72 C1088.88,637.72 1097.98,637.07 1102.88,636.07 L1102.38,633.02 "/>
<path class="Lyrics" d="M529.244,1234 C523.244,1230.6 517.894,1223.75 517.894,1215.6 L517.894,1211.2 L527.994,1211.2 L527.994,1208 L503.844,1208 L503.844,1211.2 L513.944,1211.2 L513.944,1215.7 C513.944,1223.55 508.894,1231.25 502.444,1235.05 L504.944,1237.9 C510.194,1234.25 514.444,1228.85 515.944,1223.55 C517.494,1228.75 522.844,1234.25 526.944,1236.85 L529.244,1234 M544.044,1224.35 L544.044,1221.15 L536.944,1221.15 L536.944,1203.4 L533.144,1203.4 L533.144,1247.1 L536.944,1247.1 L536.944,1224.35 L544.044,1224.35 "/>
<path class="Lyrics" d="M473.809,1226.85 L473.809,1203.4 L470.009,1203.4 L470.009,1226.85 L473.809,1226.85 M464.009,1223.1 C459.059,1221.35 453.259,1216.05 453.259,1209.05 L453.259,1205.25 L449.409,1205.25 L449.409,1209.2 C449.409,1216.15 444.459,1221.55 438.359,1224.35 L440.709,1227.35 C446.009,1224.35 450.209,1220.35 451.459,1215.9 C453.059,1220.2 457.609,1224.1 461.759,1226.05 L464.009,1223.1 M473.859,1246.5 L473.859,1229.1 L470.059,1229.1 L470.059,1234.65 L449.509,1234.65 L449.509,1229.25 L445.709,1229.25 L445.709,1246.5 L473.859,1246.5 M470.059,1243.4 L449.509,1243.4 L449.509,1237.75 L470.059,1237.75 L470.059,1243.4 "/>
<path class="Lyrics" d="M764.796,1214.95 C764.796,1209.4 760.096,1205.55 753.346,1205.55 C746.546,1205.55 741.846,1209.4 741.846,1214.95 C741.846,1220.4 746.546,1224.25 753.346,1224.25 C760.046,1224.25 764.796,1220.4 764.796,1214.95 M775.296,1247.1 L775.296,1203.4 L771.446,1203.4 L771.446,1247.1 L775.296,1247.1 M761.096,1214.95 C761.096,1218.85 757.696,1221.05 753.346,1221.05 C748.946,1221.05 745.496,1218.85 745.496,1214.95 C745.496,1211 748.946,1208.75 753.346,1208.75 C757.696,1208.75 761.096,1211 761.096,1214.95 M755.046,1245.8 L755.046,1230.6 C760.046,1230.35 765.696,1230 768.996,1229.55 L768.846,1226.6 C764.596,1227.05 759.046,1227.4 753.596,1227.55 C748.746,1227.75 743.996,1227.7 738.796,1227.7 L739.396,1231.1 C743.246,1231.05 747.146,1231 751.246,1230.8 L751.246,1245.8 L755.046,1245.8 "/>
<path class="Lyrics" d="M1010.04,624.97 L1010.04,621.77 L1003.69,621.77 L1003.69,604.42 L999.892,604.42 L999.892,648.12 L1003.69,648.12 L1003.69,624.97 L1010.04,624.97 M982.592,635.27 L982.042,632.17 C979.042,632.92 976.642,633.17 974.092,633.17 L974.092,612.17 L981.292,612.17 L981.292,609.02 L970.342,609.02 L970.342,636.42 C975.692,636.42 978.942,636.07 982.592,635.27 M997.842,635.47 L997.392,632.37 C994.692,633.02 990.992,633.27 987.742,633.27 L987.742,612.17 L995.642,612.17 L995.642,609.02 L983.992,609.02 L983.992,636.52 C989.792,636.52 994.192,636.32 997.842,635.47"/>
<path class="Lyrics" d="M1313.38,607.67 L1283.73,607.67 L1283.73,610.82 L1309.43,610.82 C1309.43,615.12 1309.18,622.32 1307.98,627.02 L1279.08,627.02 L1279.08,630.22 L1296.88,630.22 L1296.88,648.12 L1300.68,648.12 L1300.68,630.22 L1318.53,630.22 L1318.53,627.02 L1311.78,627.02 C1313.23,620.27 1313.38,613.62 1313.38,607.67"/>
<path class="Lyrics" d="M571.46,891.942 L571.46,888.892 L545.46,888.892 L545.46,884.392 L570.61,884.392 L570.61,874.142 L541.56,874.142 L541.56,877.192 L566.81,877.192 L566.81,881.442 L541.66,881.442 L541.66,891.942 L571.46,891.942 M540.91,903.592 L540.91,906.742 L566.86,906.742 L566.86,916.892 L570.66,916.892 L570.66,903.592 L557.96,903.592 L557.96,899.242 L575.86,899.242 L575.86,896.042 L536.41,896.042 L536.41,899.242 L554.16,899.242 L554.16,903.592 L540.91,903.592 "/>
<path class="Lyrics" d="M819.409,1207.2 C813.059,1207.2 809.809,1213.4 809.809,1222.15 C809.809,1230.95 813.059,1237.1 819.409,1237.1 C825.409,1237.1 828.609,1231.75 829.009,1223.85 L833.709,1223.85 L833.709,1245 L837.409,1245 L837.409,1204.25 L833.709,1204.25 L833.709,1220.7 L829.009,1220.7 C828.709,1212.75 825.459,1207.2 819.409,1207.2 M825.259,1222.15 C825.259,1229.25 822.959,1233.75 819.409,1233.75 C815.909,1233.75 813.659,1229.25 813.659,1222.15 C813.659,1215.1 815.909,1210.55 819.409,1210.55 C822.959,1210.55 825.259,1215.1 825.259,1222.15 M845.959,1247.1 L845.959,1203.4 L842.209,1203.4 L842.209,1247.1 L845.959,1247.1 "/>
<path class="Lyrics" d="M508.828,893.592 L508.828,916.592 L512.628,916.592 L512.628,872.892 L508.828,872.892 L508.828,890.342 L498.928,890.342 L498.928,893.592 L508.828,893.592 M499.078,877.542 L478.478,877.542 L478.478,880.742 L494.978,880.742 C494.228,890.592 487.928,900.092 476.878,904.942 L479.078,907.942 C490.328,902.592 498.878,891.742 499.078,877.542"/>
<path class="Lyrics" d="M1376.7,614.57 C1376.7,609.62 1371.85,606.47 1365.1,606.47 C1358.35,606.47 1353.4,609.62 1353.4,614.52 C1353.4,619.62 1358.35,622.57 1365.1,622.57 C1371.85,622.57 1376.7,619.57 1376.7,614.57 M1387.15,638.02 L1387.15,604.42 L1383.35,604.42 L1383.35,630.27 L1374.15,630.27 L1374.15,633.27 L1383.35,633.27 L1383.35,638.02 L1387.15,638.02 M1388.05,647.07 L1388.05,643.87 L1360.6,643.87 L1360.6,634.42 L1356.8,634.42 L1356.8,647.07 L1388.05,647.07 M1372.95,614.57 C1372.95,617.52 1369.8,619.47 1365.1,619.47 C1360.4,619.47 1357.2,617.52 1357.2,614.57 C1357.2,611.57 1360.4,609.62 1365.1,609.62 C1369.8,609.62 1372.95,611.62 1372.95,614.57 M1367.3,636.27 L1367.3,628.07 C1371.9,627.77 1376.75,627.47 1379.5,627.07 L1379.2,624.12 C1374.95,624.57 1370.2,625.02 1365.35,625.22 C1360.6,625.37 1355.25,625.42 1350.75,625.37 L1351.35,628.62 C1355,628.62 1359.35,628.47 1363.5,628.32 L1363.5,636.27 L1367.3,636.27 "/>
<path class="Lyrics" d="M913.131,1247.1 L913.131,1203.4 L909.331,1203.4 L909.331,1219 L899.131,1219 L899.131,1222.2 L909.331,1222.2 L909.331,1247.1 L913.131,1247.1 M903.431,1233.75 C897.431,1230.25 892.231,1223.15 892.231,1215.15 L892.231,1207.2 L888.281,1207.2 L888.281,1215.3 C888.281,1223.05 883.231,1230.8 876.881,1234.8 L879.381,1237.65 C884.431,1234 888.731,1228.6 890.281,1223.15 C892.031,1228.4 897.081,1233.95 901.081,1236.65 L903.431,1233.75 "/>
<path class="Lyrics" d="M939.332,628.92 L939.332,625.72 L899.882,625.72 L899.882,628.92 L939.332,628.92 M935.782,622.12 L935.782,618.97 L924.282,618.97 L924.282,609.92 L935.232,609.92 L935.232,606.72 L920.482,606.72 L920.482,622.12 L935.782,622.12 M918.732,621.02 L918.332,617.92 C915.582,618.67 910.382,618.97 907.432,618.97 L907.432,609.92 L917.582,609.92 L917.582,606.72 L903.632,606.72 L903.632,622.27 C908.682,622.27 914.832,621.87 918.732,621.02 M936.482,644.97 C929.032,644.32 921.532,638.67 921.532,633.62 L921.532,631.97 L917.632,631.97 L917.632,633.62 C917.632,638.67 910.832,644.17 902.832,644.82 L904.582,647.92 C911.582,646.72 917.832,642.42 919.532,638.67 C921.682,642.62 928.382,647.02 934.682,648.07 L936.482,644.97 "/>
<path class="Lyrics" d="M1886.74,1247.1 L1886.74,1203.4 L1882.94,1203.4 L1882.94,1247.1 L1886.74,1247.1 M1852.24,1222.1 C1852.24,1231.4 1856.34,1237.6 1863.49,1237.6 C1870.74,1237.6 1874.79,1231.4 1874.79,1222.15 C1874.79,1212.9 1870.74,1206.7 1863.49,1206.7 C1856.34,1206.7 1852.24,1212.9 1852.24,1222.1 M1871.19,1222.15 C1871.19,1229.3 1868.14,1234.3 1863.49,1234.3 C1858.89,1234.3 1855.84,1229.3 1855.84,1222.15 C1855.84,1214.95 1858.89,1210 1863.49,1210 C1868.14,1210 1871.19,1214.95 1871.19,1222.15"/>
<path class="Lyrics" d="M1490.81,604.42 L1490.81,648.12 L1494.61,648.12 L1494.61,604.42 L1490.81,604.42 M1483.91,618.22 C1483.91,611.82 1479.01,607.82 1472.56,607.82 C1466.21,607.82 1461.16,612.07 1461.16,618.22 C1461.16,624.07 1466.11,628.37 1472.56,628.37 C1478.86,628.37 1483.91,624.42 1483.91,618.22 M1480.21,618.22 C1480.21,622.32 1476.71,625.17 1472.56,625.17 C1468.31,625.17 1464.86,622.27 1464.86,618.22 C1464.86,614.12 1468.36,611.07 1472.56,611.07 C1476.81,611.07 1480.21,613.82 1480.21,618.22 M1488.26,637.02 L1487.91,633.92 C1484.71,634.32 1479.06,634.67 1472.96,634.87 C1467.66,635.17 1462.51,635.27 1458.76,635.22 L1459.46,638.57 C1462.76,638.52 1467.56,638.37 1472.71,638.12 C1478.26,637.87 1484.51,637.47 1488.26,637.02"/>
<path class="Lyrics" d="M981.887,1229.15 L981.887,1226.15 L942.437,1226.15 L942.437,1229.15 L981.887,1229.15 M978.537,1246.55 L978.537,1243.6 L951.037,1243.6 L951.037,1240.55 L976.937,1240.55 L976.937,1231.95 L947.187,1231.95 L947.187,1234.9 L973.087,1234.9 L973.087,1237.75 L947.187,1237.75 L947.187,1246.55 L978.537,1246.55 M969.837,1206.45 L969.837,1203.4 L954.787,1203.4 L954.787,1206.45 L969.837,1206.45 M979.687,1211.4 L979.687,1208.4 L944.737,1208.4 L944.737,1211.4 L979.687,1211.4 M975.637,1218.2 C975.637,1214.75 971.187,1212.85 962.187,1212.85 C953.187,1212.85 948.737,1214.75 948.737,1218.2 C948.737,1221.75 953.187,1223.6 962.187,1223.6 C971.187,1223.6 975.637,1221.75 975.637,1218.2 M971.687,1218.2 C971.687,1219.7 968.437,1220.7 962.187,1220.7 C955.937,1220.7 952.687,1219.7 952.687,1218.2 C952.687,1216.7 955.937,1215.7 962.187,1215.7 C968.437,1215.7 971.687,1216.7 971.687,1218.2"/>
<path class="Lyrics" d="M1942.06,894.292 C1937.16,892.492 1931.41,887.042 1931.41,880.042 L1931.41,875.042 L1927.56,875.042 L1927.56,880.192 C1927.56,887.142 1922.71,892.742 1916.56,895.492 C1917.31,896.492 1918.11,897.492 1918.91,898.492 C1924.41,895.392 1928.26,891.442 1929.56,886.842 C1931.36,891.342 1935.66,895.242 1939.81,897.242 L1942.06,894.292 M1941.01,881.592 L1948.86,881.592 L1948.86,887.292 L1941.01,887.292 L1941.01,890.492 L1948.86,890.492 L1948.86,897.942 L1952.66,897.942 L1952.66,872.892 L1948.86,872.892 L1948.86,878.392 L1941.01,878.392 L1941.01,881.592 M1954.31,916.692 L1954.36,916.692 C1955.11,915.792 1955.96,914.942 1956.71,913.992 C1952.56,912.442 1948.16,907.642 1948.16,902.242 L1948.16,899.692 L1944.41,899.692 L1944.41,902.442 C1944.41,907.692 1940.36,912.442 1935.66,914.692 L1938.06,917.292 C1941.56,915.542 1945.21,911.542 1946.31,908.292 C1947.41,911.442 1951.36,915.242 1954.31,916.692 M1935.76,913.292 L1938.36,910.642 C1935.01,909.392 1931.91,906.342 1931.91,901.742 L1931.91,899.692 L1928.11,899.692 L1928.11,902.042 C1928.11,907.342 1923.71,912.092 1919.26,914.092 C1920.06,914.992 1920.76,915.892 1921.56,916.792 C1925.31,914.992 1929.16,910.742 1930.21,907.492 C1931.21,909.892 1933.56,912.092 1935.76,913.292"/>
<path class="Lyrics" d="M1895.72,894.542 L1895.72,891.342 L1888.62,891.342 L1888.62,872.892 L1884.82,872.892 L1884.82,916.592 L1888.62,916.592 L1888.62,894.542 L1895.72,894.542 M1874.17,879.142 L1874.17,875.892 L1861.32,875.892 L1861.32,879.142 L1874.17,879.142 M1880.62,886.542 L1880.62,883.392 L1854.82,883.392 L1854.82,886.542 L1880.62,886.542 M1878.02,898.392 C1878.02,893.242 1873.92,889.342 1867.82,889.342 C1861.72,889.342 1857.62,893.292 1857.62,898.392 C1857.62,903.492 1861.72,907.392 1867.82,907.392 C1873.92,907.392 1878.02,903.442 1878.02,898.392 M1874.22,898.392 C1874.22,901.792 1871.57,904.242 1867.82,904.242 C1864.17,904.242 1861.42,901.792 1861.42,898.392 C1861.42,894.942 1864.17,892.542 1867.82,892.542 C1871.52,892.542 1874.22,894.942 1874.22,898.392"/>
<path class="Lyrics" d="M1042.37,1203.4 L1042.37,1247.1 L1046.17,1247.1 L1046.17,1203.4 L1042.37,1203.4 M1038.37,1232.05 C1033.07,1233 1024.42,1233.4 1017.47,1233.4 L1016.42,1233.4 L1016.42,1222.95 L1033.02,1222.95 L1033.02,1207.45 L1012.42,1207.45 L1012.42,1210.6 L1029.17,1210.6 L1029.17,1219.8 L1012.62,1219.8 L1012.62,1236.65 L1017.07,1236.65 C1026.67,1236.65 1034.17,1235.9 1038.72,1235.2 L1038.37,1232.05 "/>
<path class="Lyrics" d="M1563.16,611.87 L1573.11,611.87 C1573.11,613.62 1573.11,614.32 1573.06,614.87 C1572.81,620.67 1567.46,626.12 1561.96,628.27 L1564.16,631.22 C1568.86,629.22 1573.81,624.52 1574.96,620.42 C1576.76,624.37 1581.31,628.52 1585.51,630.22 L1587.61,627.17 C1582.61,625.52 1577.31,620.52 1577.01,614.92 C1576.96,614.32 1576.96,613.62 1576.96,611.87 L1587.01,611.87 L1587.01,608.67 L1563.16,608.67 L1563.16,611.87 M1596.46,604.42 L1592.71,604.42 L1592.71,636.17 L1596.46,636.17 L1596.46,620.92 L1603.16,620.92 L1603.16,617.72 L1596.46,617.72 L1596.46,604.42 M1598.16,646.62 L1598.16,643.47 L1572.71,643.47 L1572.71,633.17 L1568.91,633.17 L1568.91,646.62 L1598.16,646.62 "/>
<path class="Lyrics" d="M858.156,634.87 C852.156,631.62 846.606,624.57 846.606,616.42 L846.606,611.97 L856.806,611.97 L856.806,608.82 L832.456,608.82 L832.456,611.97 L842.656,611.97 L842.656,616.47 C842.656,624.72 837.406,632.17 831.006,635.92 L833.356,638.72 C838.406,635.47 843.206,629.87 844.656,624.42 C846.156,629.57 851.706,635.07 855.806,637.72 L858.156,634.87 M863.206,604.42 L863.206,648.12 L867.006,648.12 L867.006,604.42 L863.206,604.42 "/>
<path class="Lyrics" d="M1821.19,883.042 C1821.19,878.092 1816.34,874.942 1809.59,874.942 C1802.84,874.942 1797.89,878.092 1797.89,882.992 C1797.89,888.092 1802.84,891.042 1809.59,891.042 C1816.34,891.042 1821.19,888.042 1821.19,883.042 M1831.64,906.492 L1831.64,872.892 L1827.84,872.892 L1827.84,898.742 L1818.64,898.742 L1818.64,901.742 L1827.84,901.742 L1827.84,906.492 L1831.64,906.492 M1832.54,915.542 L1832.54,912.342 L1805.09,912.342 L1805.09,902.892 L1801.29,902.892 L1801.29,915.542 L1832.54,915.542 M1817.44,883.042 C1817.44,885.992 1814.29,887.942 1809.59,887.942 C1804.89,887.942 1801.69,885.992 1801.69,883.042 C1801.69,880.042 1804.89,878.092 1809.59,878.092 C1814.29,878.092 1817.44,880.092 1817.44,883.042 M1811.79,904.742 L1811.79,896.542 C1816.39,896.242 1821.24,895.942 1823.99,895.542 L1823.69,892.592 C1819.44,893.042 1814.69,893.492 1809.84,893.692 C1805.09,893.842 1799.74,893.892 1795.24,893.842 L1795.84,897.092 C1799.49,897.092 1803.84,896.942 1807.99,896.792 L1807.99,904.742 L1811.79,904.742 "/>
<path class="Lyrics" d="M791.971,623.77 L791.971,648.12 L795.771,648.12 L795.771,604.42 L791.971,604.42 L791.971,620.52 L783.471,620.52 L783.471,623.77 L791.971,623.77 M781.671,636.97 L781.671,608.07 L777.871,608.07 L777.871,619.22 L764.921,619.22 L764.921,608.07 L761.121,608.07 L761.121,636.97 L781.671,636.97 M777.871,633.77 L764.921,633.77 L764.921,622.37 L777.871,622.37 L777.871,633.77 "/>
<path class="Lyrics" d="M1767.09,876.142 L1737.44,876.142 L1737.44,879.292 L1763.14,879.292 C1763.14,883.592 1762.89,890.792 1761.69,895.492 L1732.79,895.492 L1732.79,898.692 L1750.59,898.692 L1750.59,916.592 L1754.39,916.592 L1754.39,898.692 L1772.24,898.692 L1772.24,895.492 L1765.49,895.492 C1766.94,888.742 1767.09,882.092 1767.09,876.142"/>
<path class="Lyrics" d="M682.5,890.892 L682.5,887.692 L675.85,887.692 L675.85,872.892 L672.05,872.892 L672.05,905.142 L675.85,905.142 L675.85,890.892 L682.5,890.892 M677.55,915.192 L677.55,911.992 L652.25,911.992 L652.25,903.992 L648.45,903.992 L648.45,915.192 L677.55,915.192 M660.9,877.792 L660.9,874.442 L648.3,874.442 L648.3,877.792 L660.9,877.792 M667.65,884.242 L667.65,881.092 L642.05,881.092 L642.05,884.242 L667.65,884.242 M665.15,894.242 C665.15,889.542 660.75,886.592 654.85,886.592 C649,886.592 644.6,889.542 644.6,894.242 C644.6,898.842 649.05,901.892 654.85,901.892 C660.75,901.892 665.15,898.842 665.15,894.242 M661.55,894.242 C661.55,897.092 658.4,898.842 654.85,898.842 C651.35,898.842 648.2,897.092 648.2,894.242 C648.2,891.342 651.35,889.592 654.85,889.592 C658.4,889.592 661.55,891.342 661.55,894.242"/>
<path class="Lyrics" d="M1152.79,1235.15 L1152.79,1203.4 L1148.99,1203.4 L1148.99,1235.15 L1152.79,1235.15 M1143.49,1225.2 C1138.29,1223.35 1132.39,1217.95 1132.39,1210.65 L1132.39,1205.9 L1128.54,1205.9 L1128.54,1210.75 C1128.54,1217.75 1122.89,1224.15 1117.14,1226.7 L1119.44,1229.7 C1124.19,1227.3 1129.24,1222.25 1130.54,1217.55 C1132.34,1222.15 1136.84,1226.3 1141.34,1228.25 L1143.49,1225.2 M1153.74,1245.75 L1153.74,1242.6 L1128.39,1242.6 L1128.39,1232.3 L1124.59,1232.3 L1124.59,1245.75 L1153.74,1245.75 "/>
<path class="Lyrics" d="M1672.87,626.52 L1672.87,623.32 L1633.42,623.32 L1633.42,626.52 L1672.87,626.52 M1668.47,612.62 C1668.47,607.82 1662.67,605.02 1653.17,605.02 C1643.77,605.02 1637.97,607.82 1637.97,612.62 C1637.97,617.42 1643.77,620.17 1653.17,620.17 C1662.67,620.17 1668.47,617.42 1668.47,612.62 M1653.17,608.12 C1660.12,608.12 1664.62,609.87 1664.62,612.62 C1664.62,615.32 1660.12,617.02 1653.17,617.02 C1646.32,617.02 1641.87,615.32 1641.87,612.62 C1641.87,609.87 1646.32,608.12 1653.17,608.12 M1669.37,647.72 L1669.37,644.62 L1641.82,644.62 L1641.82,640.22 L1667.92,640.22 L1667.92,630.42 L1637.92,630.42 L1637.92,633.47 L1664.12,633.47 L1664.12,637.32 L1638.02,637.32 L1638.02,647.72 L1669.37,647.72 "/>
<path class="Lyrics" d="M1710.87,896.192 L1710.87,893.242 L1671.42,893.242 L1671.42,896.192 L1710.87,896.192 M1707.57,915.792 L1707.57,912.792 L1679.77,912.792 L1679.77,908.792 L1706.22,908.792 L1706.22,899.642 L1676.02,899.642 L1676.02,902.442 L1702.42,902.442 L1702.42,906.092 L1675.97,906.092 L1675.97,915.792 L1707.57,915.792 M1706.82,889.792 L1706.82,886.942 L1680.22,886.942 L1680.22,883.492 L1705.97,883.492 L1705.97,874.342 L1676.37,874.342 L1676.37,877.342 L1702.17,877.342 L1702.17,880.742 L1676.42,880.742 L1676.42,889.792 L1706.82,889.792 "/>
<path class="Lyrics" d="M1634.73,900.342 C1629.98,901.492 1621.43,902.142 1613.93,902.192 L1613.93,877.242 L1610.13,877.242 L1610.13,905.542 L1612.78,905.542 C1619.43,905.542 1629.93,904.792 1635.28,903.542 L1634.73,900.342 M1642.23,872.892 L1638.43,872.892 L1638.43,916.592 L1642.23,916.592 L1642.23,893.492 L1649.38,893.492 L1649.38,890.242 L1642.23,890.242 L1642.23,872.892 "/>
<path class="Lyrics" d="M1557.43,898.542 L1557.43,895.342 L1517.98,895.342 L1517.98,898.542 L1557.43,898.542 M1552.98,915.342 L1552.98,912.142 L1526.98,912.142 L1526.98,902.592 L1523.18,902.592 L1523.18,915.342 L1552.98,915.342 M1552.93,882.742 C1552.93,877.242 1547.23,874.192 1537.73,874.192 C1528.23,874.192 1522.53,877.242 1522.53,882.742 C1522.53,888.342 1528.18,891.392 1537.68,891.392 C1547.23,891.392 1552.93,888.342 1552.93,882.742 M1537.73,877.342 C1544.68,877.342 1549.18,879.142 1549.18,882.792 C1549.18,886.342 1544.63,888.192 1537.68,888.192 C1530.78,888.192 1526.33,886.342 1526.33,882.792 C1526.33,879.142 1530.83,877.342 1537.73,877.342"/>
<path class="Lyrics" d="M1942.15,1220.1 L1942.15,1217.05 L1924.3,1217.05 L1924.3,1213.4 L1941.65,1213.4 L1941.65,1204.45 L1920.5,1204.45 L1920.5,1207.45 L1937.85,1207.45 L1937.85,1210.65 L1920.5,1210.65 L1920.5,1220.1 L1942.15,1220.1 M1952.9,1231.85 L1952.9,1203.4 L1949.1,1203.4 L1949.1,1227.25 L1939.25,1227.25 L1939.25,1230.1 L1949.1,1230.1 L1949.1,1231.85 L1952.9,1231.85 M1932.5,1231.4 L1932.5,1225.9 C1937.35,1225.6 1942.7,1225.1 1945.5,1224.8 L1945.25,1221.85 C1941,1222.3 1936.25,1222.6 1930.85,1222.8 C1926.1,1223 1921.65,1223.15 1916.45,1223.15 L1917.05,1226.35 C1920.9,1226.3 1924.65,1226.25 1928.7,1226.05 L1928.7,1231.4 L1932.5,1231.4 M1954.6,1247.55 L1956.8,1244.8 C1952.65,1243.45 1948.4,1239.8 1948.4,1234.55 L1948.4,1232.95 L1944.6,1232.95 L1944.6,1234.55 C1944.6,1239.85 1940.65,1243.45 1936.05,1245.5 L1938.1,1248.1 C1941.6,1246.45 1945.2,1243.35 1946.5,1240.25 C1947.8,1243.15 1951.4,1246.25 1954.6,1247.55 M1935.9,1244.2 L1938.05,1241.55 C1935.2,1240.8 1931.95,1238.45 1931.95,1233.9 L1931.95,1233 L1928.3,1233 L1928.3,1234.25 C1928.3,1239.35 1924.25,1242.95 1919.75,1244.85 L1921.75,1247.55 C1925.6,1245.7 1928.85,1242.9 1930.35,1239.65 C1931.6,1241.8 1933.85,1243.4 1935.9,1244.2"/>
<path class="Lyrics" d="M727.689,625.22 L727.689,622.02 L720.539,622.02 L720.539,604.42 L716.739,604.42 L716.739,648.12 L720.539,648.12 L720.539,625.22 L727.689,625.22 M687.539,623.12 C687.539,632.42 691.639,638.62 698.739,638.62 C705.839,638.62 709.889,632.42 709.889,623.17 C709.889,613.92 705.839,607.72 698.739,607.72 C691.639,607.72 687.539,613.92 687.539,623.12 M706.189,623.17 C706.189,630.32 703.289,635.32 698.739,635.32 C694.189,635.32 691.239,630.32 691.239,623.17 C691.239,615.97 694.189,611.02 698.739,611.02 C703.289,611.02 706.189,615.97 706.189,623.17"/>
<path class="Lyrics" d="M1738.65,618.42 L1738.65,615.27 L1713.3,615.27 L1713.3,605.17 L1709.5,605.17 L1709.5,618.42 L1721.8,618.42 L1721.8,624.47 L1704,624.47 L1704,627.67 L1743.45,627.67 L1743.45,624.47 L1725.6,624.47 L1725.6,618.42 L1738.65,618.42 M1739.35,647.42 L1739.35,644.27 L1731.9,644.27 L1733.3,637.57 L1729.6,636.87 L1728.3,644.27 L1718.8,644.27 L1718.1,636.77 L1714.25,637.37 L1715.15,644.27 L1708,644.27 L1708,647.42 L1739.35,647.42 M1738.95,635.22 L1738.95,632.07 L1708.4,632.07 L1708.4,635.22 L1738.95,635.22 "/>
<path class="Lyrics" d="M1811.55,648.12 L1811.55,604.42 L1807.75,604.42 L1807.75,648.12 L1811.55,648.12 M1777.05,623.12 C1777.05,632.42 1781.15,638.62 1788.3,638.62 C1795.55,638.62 1799.6,632.42 1799.6,623.17 C1799.6,613.92 1795.55,607.72 1788.3,607.72 C1781.15,607.72 1777.05,613.92 1777.05,623.12 M1796,623.17 C1796,630.32 1792.95,635.32 1788.3,635.32 C1783.7,635.32 1780.65,630.32 1780.65,623.17 C1780.65,615.97 1783.7,611.02 1788.3,611.02 C1792.95,611.02 1796,615.97 1796,623.17"/>
<path class="Lyrics" d="M1411.43,1235.15 L1411.43,1203.4 L1407.63,1203.4 L1407.63,1235.15 L1411.43,1235.15 M1402.13,1225.2 C1396.93,1223.35 1391.03,1217.95 1391.03,1210.65 L1391.03,1205.9 L1387.18,1205.9 L1387.18,1210.75 C1387.18,1217.75 1381.53,1224.15 1375.78,1226.7 L1378.08,1229.7 C1382.83,1227.3 1387.88,1222.25 1389.18,1217.55 C1390.98,1222.15 1395.48,1226.3 1399.98,1228.25 L1402.13,1225.2 M1412.38,1245.75 L1412.38,1242.6 L1387.03,1242.6 L1387.03,1232.3 L1383.23,1232.3 L1383.23,1245.75 L1412.38,1245.75 "/>
<path class="Lyrics" d="M1427.88,914.342 L1427.33,911.242 C1424.78,911.992 1420.98,912.442 1418.43,912.442 L1418.43,899.942 L1414.68,899.942 L1414.68,915.692 C1419.58,915.742 1424.88,914.992 1427.88,914.342 M1443.13,899.392 L1443.13,896.392 L1432.58,896.392 L1432.58,899.392 L1443.13,899.392 M1448.68,904.492 L1448.68,901.542 L1426.93,901.542 L1426.93,904.492 L1448.68,904.492 M1446.23,911.542 C1446.23,907.792 1442.33,905.842 1437.73,905.842 C1433.13,905.842 1429.28,907.792 1429.28,911.542 C1429.28,915.242 1433.13,917.192 1437.73,917.192 C1442.33,917.192 1446.23,915.242 1446.23,911.542 M1442.58,911.542 C1442.58,913.192 1440.48,914.392 1437.73,914.392 C1435.03,914.392 1432.88,913.192 1432.88,911.542 C1432.88,909.892 1435.03,908.692 1437.73,908.692 C1440.48,908.692 1442.58,909.892 1442.58,911.542 M1432.68,894.142 L1432.68,876.042 L1412.23,876.042 L1412.23,894.142 L1432.68,894.142 M1428.88,890.992 L1416.03,890.992 L1416.03,879.192 L1428.88,879.192 L1428.88,890.992 M1450.93,885.992 L1450.93,882.792 L1444.28,882.792 L1444.28,872.892 L1440.48,872.892 L1440.48,894.192 L1444.28,894.192 L1444.28,885.992 L1450.93,885.992 "/>
<path class="Lyrics" d="M593.125,630.07 L593.125,626.87 L553.675,626.87 L553.675,630.07 L593.125,630.07 M588.675,646.87 L588.675,643.67 L562.675,643.67 L562.675,634.12 L558.875,634.12 L558.875,646.87 L588.675,646.87 M588.625,614.27 C588.625,608.77 582.925,605.72 573.425,605.72 C563.925,605.72 558.225,608.77 558.225,614.27 C558.225,619.87 563.875,622.92 573.375,622.92 C582.925,622.92 588.625,619.87 588.625,614.27 M573.425,608.87 C580.375,608.87 584.875,610.67 584.875,614.32 C584.875,617.87 580.325,619.72 573.375,619.72 C566.475,619.72 562.025,617.87 562.025,614.32 C562.025,610.67 566.525,608.87 573.425,608.87"/>
<path class="Lyrics" d="M419.936,916.592 L419.936,872.892 L416.186,872.892 L416.186,916.592 L419.936,916.592 M407.436,890.692 L407.436,914.342 L411.186,914.342 L411.186,873.942 L407.436,873.942 L407.436,887.542 L397.186,887.542 L397.186,890.692 L407.436,890.692 M403.636,900.592 C400.986,901.192 393.986,902.042 389.236,902.042 L389.236,877.442 L385.436,877.442 L385.436,905.392 L387.836,905.392 C393.336,905.392 400.486,904.642 404.086,903.892 L403.636,900.592 "/>
<path class="Lyrics" d="M1354.83,880.742 L1364.78,880.742 C1364.73,887.242 1359.23,892.692 1353.63,894.592 L1355.63,897.592 C1360.83,895.192 1365.38,890.942 1366.78,886.692 C1368.53,890.592 1373.53,894.542 1377.78,896.192 L1379.78,893.292 C1375.18,891.842 1368.68,887.192 1368.63,880.742 L1378.93,880.742 L1378.93,877.542 L1354.83,877.542 L1354.83,880.742 M1388.03,916.592 L1388.03,872.892 L1384.28,872.892 L1384.28,916.592 L1388.03,916.592 M1381.33,906.642 L1380.98,903.542 C1378.18,903.942 1373.38,904.242 1368.58,904.542 L1368.58,895.142 L1364.78,895.142 L1364.78,904.792 C1360.13,904.942 1355.73,905.092 1352.38,905.092 L1353.03,908.442 C1356.73,908.392 1361.63,908.192 1366.48,907.942 C1371.83,907.542 1377.88,907.092 1381.33,906.642"/>
<path class="Lyrics" d="M1514.32,1216.6 L1514.32,1230.55 L1518.12,1230.55 L1518.12,1203.4 L1514.32,1203.4 L1514.32,1213.45 L1504.92,1213.45 L1504.92,1216.6 L1514.32,1216.6 M1518.57,1238.8 C1518.57,1233.7 1513.32,1230.55 1503.92,1230.55 C1494.57,1230.55 1489.32,1233.7 1489.32,1238.8 C1489.32,1243.9 1494.57,1247.05 1503.92,1247.05 C1513.32,1247.05 1518.57,1243.9 1518.57,1238.8 M1503.92,1233.65 C1510.72,1233.65 1514.72,1235.55 1514.72,1238.8 C1514.72,1242.1 1510.72,1243.95 1503.92,1243.95 C1497.22,1243.95 1493.17,1242.1 1493.17,1238.8 C1493.17,1235.55 1497.22,1233.65 1503.92,1233.65 M1507.27,1224.2 C1502.32,1222.4 1496.57,1217.15 1496.57,1210.15 L1496.57,1205.9 L1492.72,1205.9 L1492.72,1210.25 C1492.72,1217.2 1488.17,1222.8 1481.87,1225.7 L1484.22,1228.65 C1489.27,1226.1 1493.42,1221.5 1494.77,1217 C1496.47,1221.35 1500.82,1225.15 1505.02,1227.15 L1507.27,1224.2 "/>
<path class="Lyrics" d="M1880.22,613.07 C1880.22,608.27 1874.42,605.52 1864.92,605.52 C1855.52,605.52 1849.72,608.27 1849.72,613.07 C1849.72,617.52 1854.67,620.22 1862.92,620.62 L1862.92,623.87 L1845.17,623.87 L1845.17,627.02 L1884.62,627.02 L1884.62,623.87 L1866.72,623.87 L1866.72,620.62 C1875.12,620.27 1880.22,617.57 1880.22,613.07 M1881.12,647.72 L1881.12,644.62 L1853.57,644.62 L1853.57,640.22 L1879.67,640.22 L1879.67,630.67 L1849.67,630.67 L1849.67,633.72 L1875.87,633.72 L1875.87,637.32 L1849.77,637.32 L1849.77,647.72 L1881.12,647.72 M1864.92,608.62 C1871.87,608.62 1876.37,610.37 1876.37,613.07 C1876.37,615.82 1871.87,617.52 1864.92,617.52 C1858.07,617.52 1853.62,615.82 1853.62,613.07 C1853.62,610.37 1858.07,608.62 1864.92,608.62"/>
<path class="Lyrics" d="M1163.38,911.042 L1163.38,907.842 L1145.48,907.842 L1145.48,900.392 L1159.73,900.392 L1159.73,897.192 L1132.58,897.192 L1132.58,889.892 L1158.48,889.892 L1158.48,876.542 L1128.73,876.542 L1128.73,879.742 L1154.68,879.742 L1154.68,886.742 L1128.78,886.742 L1128.78,900.392 L1141.68,900.392 L1141.68,907.842 L1123.93,907.842 L1123.93,911.042 L1163.38,911.042 "/>
<path class="Lyrics" d="M1950.6,630.77 L1950.6,604.42 L1946.8,604.42 L1946.8,610.77 L1938.85,610.77 L1938.85,613.87 L1946.8,613.87 L1946.8,619.62 L1938.85,619.62 L1938.85,622.72 L1946.8,622.72 L1946.8,630.77 L1950.6,630.77 M1952.05,648.07 L1954.4,645.42 C1950.25,643.87 1945.9,639.47 1945.9,634.07 L1945.9,632.22 L1942.1,632.22 L1942.1,634.22 C1942.1,639.52 1938.3,643.82 1933.55,646.12 L1935.8,648.67 C1939.3,646.92 1942.95,643.37 1944,640.17 C1945.2,643.07 1949.05,646.72 1952,648.07 L1952.05,648.07 M1935.85,642.07 C1932.45,640.77 1929.6,638.17 1929.6,633.57 L1929.6,632.27 L1925.85,632.27 L1925.85,633.92 C1925.85,639.22 1921.5,643.52 1917,645.47 L1919.25,648.17 C1923,646.37 1926.85,642.62 1927.9,639.37 C1928.9,641.57 1931.3,643.57 1933.4,644.77 L1935.85,642.07 M1938.05,624.62 C1933.85,625.37 1928.75,625.57 1924.25,625.57 L1920.45,625.52 L1920.45,619.12 L1936.2,619.12 L1936.2,607.32 L1916.55,607.32 L1916.55,610.47 L1932.4,610.47 L1932.4,616.02 L1916.6,616.02 L1916.6,628.72 L1922.4,628.72 C1928.15,628.72 1934.3,628.42 1938.45,627.72 L1938.05,624.62 "/>
<path class="Lyrics" d="M1619.52,1246.85 L1619.52,1243.85 L1593.87,1243.85 L1593.87,1239.9 L1618.07,1239.9 L1618.07,1230.5 L1589.92,1230.5 L1589.92,1233.5 L1614.27,1233.5 L1614.27,1236.95 L1590.07,1236.95 L1590.07,1246.85 L1619.52,1246.85 M1607.07,1216.45 L1614.22,1216.45 L1614.22,1220.95 L1607.07,1220.95 L1607.07,1223.95 L1614.22,1223.95 L1614.22,1228 L1618.02,1228 L1618.02,1203.4 L1614.22,1203.4 L1614.22,1213.4 L1607.07,1213.4 L1607.07,1216.45 M1606.62,1212.95 L1606.62,1209.85 L1582.37,1209.85 L1582.37,1212.95 L1606.62,1212.95 M1604.82,1221.25 C1604.82,1217.05 1600.42,1214.7 1594.72,1214.7 C1588.97,1214.7 1584.62,1217.05 1584.62,1221.25 C1584.62,1225.6 1589.07,1227.9 1594.72,1227.9 C1600.57,1227.9 1604.82,1225.6 1604.82,1221.25 M1601.07,1221.25 C1601.07,1223.65 1598.02,1224.9 1594.72,1224.9 C1591.37,1224.9 1588.42,1223.65 1588.42,1221.25 C1588.42,1218.85 1591.32,1217.7 1594.72,1217.7 C1598.02,1217.7 1601.07,1218.85 1601.07,1221.25 M1588.62,1207.1 L1601.17,1207.1 L1601.17,1203.95 L1588.62,1203.95 L1588.62,1207.1 "/>
<path class="Lyrics" d="M448.122,629.37 L448.122,604.42 L444.322,604.42 L444.322,629.37 L448.122,629.37 M448.172,647.52 L448.172,631.67 L419.872,631.67 L419.872,647.52 L448.172,647.52 M444.372,644.37 L423.672,644.37 L423.672,634.82 L444.372,634.82 L444.372,644.37 M424.822,606.87 C418.622,606.87 413.472,611.07 413.472,617.42 C413.472,623.77 418.622,627.77 424.822,627.77 C431.022,627.77 436.122,623.77 436.122,617.37 C436.122,611.07 431.022,606.87 424.822,606.87 M424.822,609.97 C429.422,609.97 432.472,613.07 432.472,617.42 C432.472,621.72 429.372,624.67 424.822,624.67 C420.422,624.67 417.172,621.72 417.172,617.37 C417.172,613.07 420.422,609.97 424.822,609.97"/>
<path class="Lyrics" d="M1037.39,888.192 C1037.39,884.392 1032.94,882.642 1027.29,882.642 C1021.69,882.642 1017.34,884.392 1017.34,888.242 C1017.34,891.592 1020.79,893.342 1025.59,893.642 L1025.59,895.992 C1021.14,896.142 1016.54,896.142 1013.39,896.142 L1013.99,899.292 C1017.09,899.292 1022.79,899.092 1027.69,898.792 C1032.89,898.542 1038.49,897.942 1041.69,897.592 L1041.34,894.792 C1038.74,895.192 1033.99,895.542 1029.39,895.792 L1029.39,893.642 C1033.99,893.242 1037.39,891.492 1037.39,888.192 M1049.44,916.442 L1049.44,913.542 L1023.29,913.542 L1023.29,910.042 L1047.84,910.042 L1047.84,901.342 L1019.34,901.342 L1019.34,904.192 L1043.99,904.192 L1043.99,907.342 L1019.49,907.342 L1019.49,916.442 L1049.44,916.442 M1054.44,889.042 L1054.44,885.892 L1047.84,885.892 L1047.84,872.892 L1043.99,872.892 L1043.99,898.992 L1047.84,898.992 L1047.84,889.042 L1054.44,889.042 M1040.14,881.292 L1040.14,878.342 L1014.59,878.342 L1014.59,881.292 L1040.14,881.292 M1033.79,888.192 C1033.79,889.942 1030.84,890.892 1027.29,890.892 C1023.79,890.892 1020.89,889.992 1020.89,888.192 C1020.89,886.392 1023.69,885.492 1027.29,885.492 C1030.84,885.492 1033.79,886.392 1033.79,888.192 M1033.39,876.192 L1033.39,873.092 L1021.34,873.092 L1021.34,876.192 L1033.39,876.192 "/>
<path class="Lyrics" d="M1687.8,1241.55 L1687.8,1238.35 L1669.9,1238.35 L1669.9,1230.9 L1684.15,1230.9 L1684.15,1227.7 L1657,1227.7 L1657,1220.4 L1682.9,1220.4 L1682.9,1207.05 L1653.15,1207.05 L1653.15,1210.25 L1679.1,1210.25 L1679.1,1217.25 L1653.2,1217.25 L1653.2,1230.9 L1666.1,1230.9 L1666.1,1238.35 L1648.35,1238.35 L1648.35,1241.55 L1687.8,1241.55 "/>
<path class="Lyrics" d="M987.465,893.842 L987.465,874.592 L983.665,874.592 L983.665,881.042 L961.415,881.042 L961.415,874.592 L957.565,874.592 L957.565,893.842 L987.465,893.842 M974.365,916.642 L974.365,902.242 L992.265,902.242 L992.265,899.042 L952.815,899.042 L952.815,902.242 L970.565,902.242 L970.565,916.642 L974.365,916.642 M983.665,890.692 L961.415,890.692 L961.415,884.142 L983.665,884.142 L983.665,890.692 "/>
<path class="Lyrics" d="M925.291,872.892 L925.291,916.592 L929.091,916.592 L929.091,872.892 L925.291,872.892 M918.391,886.692 C918.391,880.292 913.491,876.292 907.041,876.292 C900.691,876.292 895.641,880.542 895.641,886.692 C895.641,892.542 900.591,896.842 907.041,896.842 C913.341,896.842 918.391,892.892 918.391,886.692 M914.691,886.692 C914.691,890.792 911.191,893.642 907.041,893.642 C902.791,893.642 899.341,890.742 899.341,886.692 C899.341,882.592 902.841,879.542 907.041,879.542 C911.291,879.542 914.691,882.292 914.691,886.692 M922.741,905.492 L922.391,902.392 C919.191,902.792 913.541,903.142 907.441,903.342 C902.141,903.642 896.991,903.742 893.241,903.692 L893.941,907.042 C897.241,906.992 902.041,906.842 907.191,906.592 C912.741,906.342 918.991,905.942 922.741,905.492"/>
<path class="Lyrics" d="M277.056,872.892 L273.256,872.892 L273.256,916.592 L277.056,916.592 L277.056,893.442 L284.156,893.442 L284.156,890.242 L277.056,890.242 L277.056,872.892 M248.906,902.642 L248.906,880.642 L265.806,880.642 L265.806,877.442 L245.056,877.442 L245.056,905.892 L249.356,905.892 C256.956,905.892 265.606,905.292 270.306,904.392 L269.906,901.242 C265.706,902.142 257.056,902.642 251.406,902.642 L248.906,902.642 "/>
<path class="Lyrics" d="M1715.82,1210.85 L1725.77,1210.85 C1725.77,1212.6 1725.77,1213.3 1725.72,1213.85 C1725.47,1219.65 1720.12,1225.1 1714.62,1227.25 L1716.82,1230.2 C1721.52,1228.2 1726.47,1223.5 1727.62,1219.4 C1729.42,1223.35 1733.97,1227.5 1738.17,1229.2 L1740.27,1226.15 C1735.27,1224.5 1729.97,1219.5 1729.67,1213.9 C1729.62,1213.3 1729.62,1212.6 1729.62,1210.85 L1739.67,1210.85 L1739.67,1207.65 L1715.82,1207.65 L1715.82,1210.85 M1749.12,1203.4 L1745.37,1203.4 L1745.37,1235.15 L1749.12,1235.15 L1749.12,1219.9 L1755.82,1219.9 L1755.82,1216.7 L1749.12,1216.7 L1749.12,1203.4 M1750.82,1245.6 L1750.82,1242.45 L1725.37,1242.45 L1725.37,1232.15 L1721.57,1232.15 L1721.57,1245.6 L1750.82,1245.6 "/>
<path class="Lyrics" d="M866.518,915.942 L866.518,899.942 L837.868,899.942 L837.868,915.942 L866.518,915.942 M862.718,912.792 L841.668,912.792 L841.668,903.042 L862.718,903.042 L862.718,912.792 M862.718,872.892 L862.718,897.192 L866.518,897.192 L866.518,872.892 L862.718,872.892 M858.618,888.992 C853.018,890.142 843.218,891.142 836.868,890.892 L836.868,875.142 L833.068,875.142 L833.068,894.242 L835.568,894.242 C843.168,894.242 854.218,893.292 859.068,892.242 L858.618,888.992 "/>
<path class="Lyrics" d="M796.848,890.492 C790.148,889.742 781.198,885.292 780.998,879.142 L795.048,879.142 L795.048,875.992 L762.848,875.992 L762.848,879.142 L776.998,879.142 C776.798,885.242 768.348,889.842 761.198,890.592 L762.948,893.792 C770.398,892.542 777.198,888.042 778.948,883.942 C780.948,888.042 787.898,892.442 795.048,893.692 L796.848,890.492 M780.798,916.592 L780.798,900.942 L798.698,900.942 L798.698,897.742 L759.248,897.742 L759.248,900.942 L776.998,900.942 L776.998,916.592 L780.798,916.592 "/>
<path class="Lyrics" d="M1822.08,1225.5 L1822.08,1222.3 L1782.63,1222.3 L1782.63,1225.5 L1822.08,1225.5 M1817.68,1211.6 C1817.68,1206.8 1811.88,1204 1802.38,1204 C1792.98,1204 1787.18,1206.8 1787.18,1211.6 C1787.18,1216.4 1792.98,1219.15 1802.38,1219.15 C1811.88,1219.15 1817.68,1216.4 1817.68,1211.6 M1802.38,1207.1 C1809.33,1207.1 1813.83,1208.85 1813.83,1211.6 C1813.83,1214.3 1809.33,1216 1802.38,1216 C1795.53,1216 1791.08,1214.3 1791.08,1211.6 C1791.08,1208.85 1795.53,1207.1 1802.38,1207.1 M1818.58,1246.7 L1818.58,1243.6 L1791.03,1243.6 L1791.03,1239.2 L1817.13,1239.2 L1817.13,1229.4 L1787.13,1229.4 L1787.13,1232.45 L1813.33,1232.45 L1813.33,1236.3 L1787.23,1236.3 L1787.23,1246.7 L1818.58,1246.7 "/>
<polyline class="LyricsLineSegment" fill="none" stroke="#000000" stroke-width="2.48" stroke-linejoin="bevel" points="1247.94,899.114 1267.78,899.114"/>
<path class="NoteDot" transform="matrix(0.992,0,0,0.992,601.9,491.824)" d="M0,0 C0,2.8 2.2,5 5,5 C7.8,5 10,2.8 10,0 C10,-2.8 7.8,-5 5,-5 C2.2,-5 0,-2.8 0,0"/>
<path class="NoteDot" transform="matrix(0.992,0,0,0.992,1163.94,1152.8)" d="M0,0 C0,2.8 2.2,5 5,5 C7.8,5 10,2.8 10,0 C10,-2.8 7.8,-5 5,-5 C2.2,-5 0,-2.8 0,0"/>
<path class="NoteDot" transform="matrix(0.992,0,0,0.992,690.772,785.112)" d="M0,0 C0,2.8 2.2,5 5,5 C7.8,5 10,2.8 10,0 C10,-2.8 7.8,-5 5,-5 C2.2,-5 0,-2.8 0,0"/>
<path class="NoteDot" transform="matrix(0.992,0,0,0.992,293.113,1152.8)" d="M0,0 C0,2.8 2.2,5 5,5 C7.8,5 10,2.8 10,0 C10,-2.8 7.8,-5 5,-5 C2.2,-5 0,-2.8 0,0"/>
<path class="NoteDot" transform="matrix(0.992,0,0,0.992,1125.98,516.624)" d="M0,0 C0,2.8 2.2,5 5,5 C7.8,5 10,2.8 10,0 C10,-2.8 7.8,-5 5,-5 C2.2,-5 0,-2.8 0,0"/>
<path class="NoteDot" transform="matrix(0.992,0,0,0.992,657.893,1128)" d="M0,0 C0,2.8 2.2,5 5,5 C7.8,5 10,2.8 10,0 C10,-2.8 7.8,-5 5,-5 C2.2,-5 0,-2.8 0,0"/>
</svg>
