<?xml version="1.0" encoding="UTF-8" standalone="no"?>
<svg width="2098.8px" height="1418.4px" viewBox="0 0 2098.8 1418.4"
 xmlns="http://www.w3.org/2000/svg" xmlns:xlink="http://www.w3.org/1999/xlink" version="1.2" baseProfile="tiny">
<title>168 아버지 뜻대로.musicxml (3)</title>
<desc>Generated by MuseScore 4.2.1</desc>
<polyline class="StaffLines" fill="none" stroke="#000000" stroke-width="2.73" stroke-linejoin="bevel" points="104.4,278 1994.4,278"/>
<polyline class="StaffLines" fill="none" stroke="#000000" stroke-width="2.73" stroke-linejoin="bevel" points="104.4,302.8 1994.4,302.8"/>
<polyline class="StaffLines" fill="none" stroke="#000000" stroke-width="2.73" stroke-linejoin="bevel" points="104.4,327.6 1994.4,327.6"/>
<polyline class="StaffLines" fill="none" stroke="#000000" stroke-width="2.73" stroke-linejoin="bevel" points="104.4,352.4 1994.4,352.4"/>
<polyline class="StaffLines" fill="none" stroke="#000000" stroke-width="2.73" stroke-linejoin="bevel" points="104.4,377.2 1994.4,377.2"/>
<polyline class="StaffLines" fill="none" stroke="#000000" stroke-width="2.73" stroke-linejoin="bevel" points="104.4,897.736 1994.4,897.736"/>
<polyline class="StaffLines" fill="none" stroke="#000000" stroke-width="2.73" stroke-linejoin="bevel" points="104.4,922.536 1994.4,922.536"/>
<polyline class="StaffLines" fill="none" stroke="#000000" stroke-width="2.73" stroke-linejoin="bevel" points="104.4,947.336 1994.4,947.336"/>
<polyline class="StaffLines" fill="none" stroke="#000000" stroke-width="2.73" stroke-linejoin="bevel" points="104.4,972.136 1994.4,972.136"/>
<polyline class="StaffLines" fill="none" stroke="#000000" stroke-width="2.73" stroke-linejoin="bevel" points="104.4,996.936 1994.4,996.936"/>
<path class="MeasureNumber" d="M123.191,220.12 L122.151,221.96 C120.551,224.72 120.231,224.96 118.191,225 L108.911,225 C109.871,223.72 111.631,222.24 114.831,220 C120.111,216.36 120.471,216.12 121.591,215.24 C124.791,212.76 126.111,210.4 126.111,207.24 C126.111,203.04 122.991,200.24 118.391,200.24 C113.271,200.24 108.831,204 108.831,208.36 C108.831,210.6 110.031,212.04 111.951,212.04 C113.391,212.04 114.511,210.96 114.511,209.48 C114.511,208.44 113.991,207.76 112.671,207.04 C111.711,206.56 111.551,206.36 111.551,205.88 C111.551,204.16 114.511,202.24 117.231,202.24 C120.031,202.24 121.911,204.12 121.911,206.92 C121.911,209.92 120.591,212.12 116.991,215.24 C106.351,224.48 104.751,226.16 104.391,228.4 L121.551,228.4 L124.631,220.68 L123.191,220.12 M132.505,213.08 C131.265,213.84 130.905,214.32 130.905,215.12 C130.905,215.88 131.545,216.44 132.345,216.44 C133.385,216.44 133.985,215.68 134.105,214.2 C135.345,213.2 136.665,212.76 138.265,212.76 C141.225,212.76 142.865,214.6 142.865,217.92 C142.865,223.12 139.505,227.36 135.385,227.36 C133.025,227.36 131.105,226.24 131.105,224.92 C131.105,224.68 131.145,224.6 131.345,224.48 C132.625,223.88 133.665,223.44 133.665,221.76 C133.665,220.48 132.665,219.52 131.265,219.52 C129.505,219.52 128.185,221 128.185,222.92 C128.185,226.44 131.225,229 135.505,229 C141.985,229 147.225,223.84 147.225,217.44 C147.225,213.4 144.145,210.56 139.785,210.56 C138.065,210.56 136.665,210.92 134.745,211.88 L136.985,204.32 C139.105,204.76 140.785,204.96 142.225,204.96 C144.865,204.96 147.225,204.12 148.545,202.72 C149.225,201.92 149.625,201.24 149.625,200.72 C149.625,200.48 149.505,200.24 149.345,200.24 C149.225,200.24 149.145,200.28 148.905,200.4 C147.585,201.04 145.905,201.4 144.345,201.4 C141.945,201.4 139.105,201 136.145,200.24 L132.505,213.08 "/>
<path class="MeasureNumber" d="M123.191,839.856 L122.151,841.696 C120.551,844.456 120.231,844.696 118.191,844.736 L108.911,844.736 C109.871,843.456 111.631,841.976 114.831,839.736 C120.111,836.096 120.471,835.856 121.591,834.976 C124.791,832.496 126.111,830.136 126.111,826.976 C126.111,822.776 122.991,819.976 118.391,819.976 C113.271,819.976 108.831,823.736 108.831,828.096 C108.831,830.336 110.031,831.776 111.951,831.776 C113.391,831.776 114.511,830.696 114.511,829.216 C114.511,828.176 113.991,827.496 112.671,826.776 C111.711,826.296 111.551,826.096 111.551,825.616 C111.551,823.896 114.511,821.976 117.231,821.976 C120.031,821.976 121.911,823.856 121.911,826.656 C121.911,829.656 120.591,831.856 116.991,834.976 C106.351,844.216 104.751,845.896 104.391,848.136 L121.551,848.136 L124.631,840.416 L123.191,839.856 M143.745,834.456 C142.745,839.096 140.065,847.056 134.345,847.056 C133.185,847.056 132.425,846.576 132.425,845.856 C132.425,845.576 132.505,845.456 132.825,844.976 C133.225,844.456 133.425,843.976 133.425,843.416 C133.425,842.096 132.385,841.096 131.025,841.096 C129.425,841.096 128.305,842.296 128.305,844.056 C128.305,846.776 130.865,848.736 134.425,848.736 C143.185,848.736 148.785,837.536 148.785,829.936 C148.785,823.696 145.785,819.976 140.825,819.976 C134.865,819.976 130.425,825.456 130.425,831.176 C130.425,834.976 133.345,837.856 137.225,837.856 C139.865,837.856 141.905,836.776 143.745,834.456 M140.785,821.656 C143.345,821.656 144.985,823.696 144.985,826.896 C144.985,831.856 142.265,835.496 138.585,835.496 C136.065,835.496 134.665,833.776 134.665,830.776 C134.665,827.176 136.385,821.656 140.785,821.656"/>
<path class="SlurSegment" stroke="#000000" stroke-width="1.24" stroke-linecap="round" stroke-linejoin="round" fill-rule="evenodd" d="M736.841,268.08 C752.748,244.25 784.563,244.25 800.47,268.08 C784.563,252.186 752.748,252.186 736.841,268.08"/>
<polyline class="BarLine" fill="none" stroke="#000000" stroke-width="4.46" stroke-linejoin="bevel" points="1969.35,896.372 1969.35,998.3"/>
<polyline class="BarLine" fill="none" stroke="#000000" stroke-width="13.64" stroke-linejoin="bevel" points="1987.58,896.372 1987.58,998.3"/>
<polyline class="BarLine" fill="none" stroke="#000000" stroke-width="4.46" stroke-linejoin="bevel" points="1470.58,896.372 1470.58,998.3"/>
<polyline class="BarLine" fill="none" stroke="#000000" stroke-width="4.46" stroke-linejoin="bevel" points="712.781,896.372 712.781,998.3"/>
<polyline class="BarLine" fill="none" stroke="#000000" stroke-width="4.46" stroke-linejoin="bevel" points="726.421,896.372 726.421,998.3"/>
<polyline class="BarLine" fill="none" stroke="#000000" stroke-width="4.46" stroke-linejoin="bevel" points="1992.17,276.636 1992.17,378.564"/>
<polyline class="BarLine" fill="none" stroke="#000000" stroke-width="4.46" stroke-linejoin="bevel" points="1472.44,276.636 1472.44,378.564"/>
<polyline class="BarLine" fill="none" stroke="#000000" stroke-width="4.46" stroke-linejoin="bevel" points="1046.91,276.636 1046.91,378.564"/>
<polyline class="BarLine" fill="none" stroke="#000000" stroke-width="4.46" stroke-linejoin="bevel" points="565.261,276.636 565.261,378.564"/>
<polyline class="Stem" fill="none" stroke="#000000" stroke-width="2.48" stroke-linejoin="bevel" points="1203.61,319.366 1203.61,395.701"/>
<polyline class="Stem" fill="none" stroke="#000000" stroke-width="2.48" stroke-linejoin="bevel" points="494.837,282.166 494.837,352.516"/>
<polyline class="Stem" fill="none" stroke="#000000" stroke-width="2.48" stroke-linejoin="bevel" points="1730.86,319.366 1730.86,389.716"/>
<polyline class="Stem" fill="none" stroke="#000000" stroke-width="2.48" stroke-linejoin="bevel" points="1667.23,319.366 1667.23,383.4"/>
<polyline class="Stem" fill="none" stroke="#000000" stroke-width="2.48" stroke-linejoin="bevel" points="600.973,294.566 600.973,377.2"/>
<polyline class="Stem" fill="none" stroke="#000000" stroke-width="2.48" stroke-linejoin="bevel" points="249.72,306.966 249.72,389.6"/>
<polyline class="Stem" fill="none" stroke="#000000" stroke-width="2.48" stroke-linejoin="bevel" points="1506.29,939.102 1506.29,1015.54"/>
<polyline class="Stem" fill="none" stroke="#000000" stroke-width="2.48" stroke-linejoin="bevel" points="1603.6,319.366 1603.6,383.4"/>
<polyline class="Stem" fill="none" stroke="#000000" stroke-width="2.48" stroke-linejoin="bevel" points="721.965,294.566 721.965,377.101"/>
<polyline class="Stem" fill="none" stroke="#000000" stroke-width="2.48" stroke-linejoin="bevel" points="1508.15,319.366 1508.15,395.8"/>
<polyline class="Stem" fill="none" stroke="#000000" stroke-width="2.48" stroke-linejoin="bevel" points="785.594,294.566 785.594,371.04"/>
<polyline class="Stem" fill="none" stroke="#000000" stroke-width="2.48" stroke-linejoin="bevel" points="249.72,939.102 249.72,1015.54"/>
<polyline class="Stem" fill="none" stroke="#000000" stroke-width="2.48" stroke-linejoin="bevel" points="1858.11,319.366 1858.11,383.284"/>
<polyline class="Stem" fill="none" stroke="#000000" stroke-width="2.48" stroke-linejoin="bevel" points="849.223,294.566 849.223,373.08"/>
<polyline class="Stem" fill="none" stroke="#000000" stroke-width="2.48" stroke-linejoin="bevel" points="1417.98,336.032 1417.98,259.598"/>
<polyline class="Stem" fill="none" stroke="#000000" stroke-width="2.48" stroke-linejoin="bevel" points="1794.49,331.766 1794.49,395.684"/>
<polyline class="Stem" fill="none" stroke="#000000" stroke-width="2.48" stroke-linejoin="bevel" points="912.852,294.566 912.852,375.12"/>
<polyline class="Stem" fill="none" stroke="#000000" stroke-width="2.48" stroke-linejoin="bevel" points="1267.24,319.366 1267.24,395.8"/>
<polyline class="Stem" fill="none" stroke="#000000" stroke-width="2.48" stroke-linejoin="bevel" points="976.482,306.966 976.482,377.16"/>
<polyline class="Stem" fill="none" stroke="#000000" stroke-width="2.48" stroke-linejoin="bevel" points="1921.74,306.966 1921.74,377.316"/>
<polyline class="Stem" fill="none" stroke="#000000" stroke-width="2.48" stroke-linejoin="bevel" points="1226.59,939.102 1226.59,1015.54"/>
<polyline class="Stem" fill="none" stroke="#000000" stroke-width="2.48" stroke-linejoin="bevel" points="431.208,294.566 431.208,358.484"/>
<polyline class="Stem" fill="none" stroke="#000000" stroke-width="2.48" stroke-linejoin="bevel" points="1082.62,306.966 1082.62,389.6"/>
<polyline class="Stem" fill="none" stroke="#000000" stroke-width="2.48" stroke-linejoin="bevel" points="764.516,939.102 764.516,1015.54"/>
<path class="Note" transform="matrix(0.992,0,0,0.992,763.276,934.936)" d="M21.3,-13.2 C11.6,-13.2 0,-5.1 0,4.2 C0,8.5 3.1,13.3 11.2,13.3 C21.6,13.3 32.5,4.8 32.5,-4 C32.5,-9.9 27.5,-13.2 21.3,-13.2 M7.5,8.6 C4.2,8.6 3.5,5.9 3.5,5 C3.5,0.1 20.3,-8.5 25,-8.5 C27.4,-8.5 29,-7.1 29,-4.9 C29,0.1 12.1,8.6 7.5,8.6"/>
<path class="Note" transform="matrix(0.992,0,0,0.992,1081.38,302.8)" d="M0,4.2 C0,8.5 3.1,13.3 11.2,13.3 C21.6,13.3 32.5,4.8 32.5,-4 C32.5,-9.9 27.5,-13.2 21.3,-13.2 C11.6,-13.2 0,-5 0,4.2"/>
<path class="Note" transform="matrix(0.992,0,0,0.992,975.242,302.8)" d="M0,4.2 C0,8.5 3.1,13.3 11.2,13.3 C21.6,13.3 32.5,4.8 32.5,-4 C32.5,-9.9 27.5,-13.2 21.3,-13.2 C11.6,-13.2 0,-5 0,4.2"/>
<path class="Note" transform="matrix(0.992,0,0,0.992,1793.25,327.6)" d="M0,4.2 C0,8.5 3.1,13.3 11.2,13.3 C21.6,13.3 32.5,4.8 32.5,-4 C32.5,-9.9 27.5,-13.2 21.3,-13.2 C11.6,-13.2 0,-5 0,4.2"/>
<path class="Note" transform="matrix(0.992,0,0,0.992,1202.37,315.2)" d="M0,4.2 C0,8.5 3.1,13.3 11.2,13.3 C21.6,13.3 32.5,4.8 32.5,-4 C32.5,-9.9 27.5,-13.2 21.3,-13.2 C11.6,-13.2 0,-5 0,4.2"/>
<path class="Note" transform="matrix(0.992,0,0,0.992,1225.35,934.936)" d="M0,4.2 C0,8.5 3.1,13.3 11.2,13.3 C21.6,13.3 32.5,4.8 32.5,-4 C32.5,-9.9 27.5,-13.2 21.3,-13.2 C11.6,-13.2 0,-5 0,4.2"/>
<path class="Note" transform="matrix(0.992,0,0,0.992,911.612,290.4)" d="M0,4.2 C0,8.5 3.1,13.3 11.2,13.3 C21.6,13.3 32.5,4.8 32.5,-4 C32.5,-9.9 27.5,-13.2 21.3,-13.2 C11.6,-13.2 0,-5 0,4.2"/>
<path class="Note" transform="matrix(0.992,0,0,0.992,1266,315.2)" d="M0,4.2 C0,8.5 3.1,13.3 11.2,13.3 C21.6,13.3 32.5,4.8 32.5,-4 C32.5,-9.9 27.5,-13.2 21.3,-13.2 C11.6,-13.2 0,-5 0,4.2"/>
<path class="Note" transform="matrix(0.992,0,0,0.992,248.48,934.936)" d="M21.3,-13.2 C11.6,-13.2 0,-5.1 0,4.2 C0,8.5 3.1,13.3 11.2,13.3 C21.6,13.3 32.5,4.8 32.5,-4 C32.5,-9.9 27.5,-13.2 21.3,-13.2 M7.5,8.6 C4.2,8.6 3.5,5.9 3.5,5 C3.5,0.1 20.3,-8.5 25,-8.5 C27.4,-8.5 29,-7.1 29,-4.9 C29,0.1 12.1,8.6 7.5,8.6"/>
<path class="Note" transform="matrix(0.992,0,0,0.992,847.983,290.4)" d="M0,4.2 C0,8.5 3.1,13.3 11.2,13.3 C21.6,13.3 32.5,4.8 32.5,-4 C32.5,-9.9 27.5,-13.2 21.3,-13.2 C11.6,-13.2 0,-5 0,4.2"/>
<path class="Note" transform="matrix(0.992,0,0,0.992,1386.99,340)" d="M0,4.2 C0,8.5 3.1,13.3 11.2,13.3 C21.6,13.3 32.5,4.8 32.5,-4 C32.5,-9.9 27.5,-13.2 21.3,-13.2 C11.6,-13.2 0,-5 0,4.2"/>
<path class="Note" transform="matrix(0.992,0,0,0.992,784.354,290.4)" d="M0,4.2 C0,8.5 3.1,13.3 11.2,13.3 C21.6,13.3 32.5,4.8 32.5,-4 C32.5,-9.9 27.5,-13.2 21.3,-13.2 C11.6,-13.2 0,-5 0,4.2"/>
<path class="Note" transform="matrix(0.992,0,0,0.992,1920.5,302.8)" d="M0,4.2 C0,8.5 3.1,13.3 11.2,13.3 C21.6,13.3 32.5,4.8 32.5,-4 C32.5,-9.9 27.5,-13.2 21.3,-13.2 C11.6,-13.2 0,-5 0,4.2"/>
<path class="Note" transform="matrix(0.992,0,0,0.992,720.725,290.4)" d="M0,4.2 C0,8.5 3.1,13.3 11.2,13.3 C21.6,13.3 32.5,4.8 32.5,-4 C32.5,-9.9 27.5,-13.2 21.3,-13.2 C11.6,-13.2 0,-5 0,4.2"/>
<path class="Note" transform="matrix(0.992,0,0,0.992,1506.91,315.2)" d="M0,4.2 C0,8.5 3.1,13.3 11.2,13.3 C21.6,13.3 32.5,4.8 32.5,-4 C32.5,-9.9 27.5,-13.2 21.3,-13.2 C11.6,-13.2 0,-5 0,4.2"/>
<path class="Note" transform="matrix(0.992,0,0,0.992,1856.87,315.2)" d="M0,4.2 C0,8.5 3.1,13.3 11.2,13.3 C21.6,13.3 32.5,4.8 32.5,-4 C32.5,-9.9 27.5,-13.2 21.3,-13.2 C11.6,-13.2 0,-5 0,4.2"/>
<path class="Note" transform="matrix(0.992,0,0,0.992,1602.36,315.2)" d="M0,4.2 C0,8.5 3.1,13.3 11.2,13.3 C21.6,13.3 32.5,4.8 32.5,-4 C32.5,-9.9 27.5,-13.2 21.3,-13.2 C11.6,-13.2 0,-5 0,4.2"/>
<path class="Note" transform="matrix(0.992,0,0,0.992,1505.05,934.936)" d="M21.3,-13.2 C11.6,-13.2 0,-5.1 0,4.2 C0,8.5 3.1,13.3 11.2,13.3 C21.6,13.3 32.5,4.8 32.5,-4 C32.5,-9.9 27.5,-13.2 21.3,-13.2 M7.5,8.6 C4.2,8.6 3.5,5.9 3.5,5 C3.5,0.1 20.3,-8.5 25,-8.5 C27.4,-8.5 29,-7.1 29,-4.9 C29,0.1 12.1,8.6 7.5,8.6"/>
<path class="Note" transform="matrix(0.992,0,0,0.992,599.733,290.4)" d="M0,4.2 C0,8.5 3.1,13.3 11.2,13.3 C21.6,13.3 32.5,4.8 32.5,-4 C32.5,-9.9 27.5,-13.2 21.3,-13.2 C11.6,-13.2 0,-5 0,4.2"/>
<path class="Note" transform="matrix(0.992,0,0,0.992,429.968,290.4)" d="M0,4.2 C0,8.5 3.1,13.3 11.2,13.3 C21.6,13.3 32.5,4.8 32.5,-4 C32.5,-9.9 27.5,-13.2 21.3,-13.2 C11.6,-13.2 0,-5 0,4.2"/>
<path class="Note" transform="matrix(0.992,0,0,0.992,1665.99,315.2)" d="M0,4.2 C0,8.5 3.1,13.3 11.2,13.3 C21.6,13.3 32.5,4.8 32.5,-4 C32.5,-9.9 27.5,-13.2 21.3,-13.2 C11.6,-13.2 0,-5 0,4.2"/>
<path class="Note" transform="matrix(0.992,0,0,0.992,248.48,302.8)" d="M21.3,-13.2 C11.6,-13.2 0,-5.1 0,4.2 C0,8.5 3.1,13.3 11.2,13.3 C21.6,13.3 32.5,4.8 32.5,-4 C32.5,-9.9 27.5,-13.2 21.3,-13.2 M7.5,8.6 C4.2,8.6 3.5,5.9 3.5,5 C3.5,0.1 20.3,-8.5 25,-8.5 C27.4,-8.5 29,-7.1 29,-4.9 C29,0.1 12.1,8.6 7.5,8.6"/>
<path class="Note" transform="matrix(0.992,0,0,0.992,493.597,278)" d="M0,4.2 C0,8.5 3.1,13.3 11.2,13.3 C21.6,13.3 32.5,4.8 32.5,-4 C32.5,-9.9 27.5,-13.2 21.3,-13.2 C11.6,-13.2 0,-5 0,4.2"/>
<path class="Note" transform="matrix(0.992,0,0,0.992,1729.62,315.2)" d="M0,4.2 C0,8.5 3.1,13.3 11.2,13.3 C21.6,13.3 32.5,4.8 32.5,-4 C32.5,-9.9 27.5,-13.2 21.3,-13.2 C11.6,-13.2 0,-5 0,4.2"/>
<path class="Clef" transform="matrix(0.992,0,0,0.992,123,352.4)" d="M12.3,51.3 C12.3,57.9 17.3,66.6 30.8,66.6 C35.5,66.6 39.6,65.4 43.2,63.2 C48.6,59.4 50,52.8 50,46.5 C50,42.6 49.4,38.1 48.4,32.4 C48.1,30.4 47.5,27.4 46.9,23.5 C56.7,20.3 64,10.1 64,-0.2 C64,-15.3 53.3,-25.5 38.7,-25.5 C37.7,-31.5 36.7,-37.4 35.9,-43 C46.4,-54.1 53.7,-66.6 53.7,-82.5 C53.7,-91.6 50.9,-99 49.3,-102.6 C46.9,-107.7 44,-111.2 42.2,-111.2 C41.5,-111.2 38.4,-110 35.1,-106.1 C28.7,-98.5 26.9,-85.7 26.9,-77.3 C26.9,-71.9 27.4,-67 29.1,-55.8 C29,-55.7 23.8,-50.4 21.7,-48.7 C12.6,-40.3 0,-28.1 0,-8.1 C0,10.6 16.3,25.3 34.9,25.3 C37.8,25.3 40.5,25 42.8,24.6 C44.7,34.2 45.9,41.2 45.9,46.5 C45.9,56.9 40.5,62.4 30.4,62.4 C28,62.4 25.9,61.9 25.7,61.9 C25.6,61.8 25.4,61.7 25.4,61.6 C25.4,61.4 25.6,61.3 25.9,61.3 C30.6,60.5 35.3,56.5 35.3,50.1 C35.3,44.7 31.2,39 23.7,39 C16.7,39 12.3,44.7 12.3,51.3 M33.2,-82.2 C34.1,-86.2 38.7,-96.7 43.9,-96.7 C45.4,-96.7 47.8,-91.9 47.8,-84.9 C47.8,-74.5 40.1,-66.7 33.2,-59.9 C32.6,-63.9 32.1,-67.8 32.1,-72 C32.1,-75.7 32.4,-79.1 33.2,-82.2 M42,20.6 C40,21 38.1,21.2 36.2,21.2 C21.9,21.2 9.7,11.2 9.7,-3.9 C9.7,-16.1 18.3,-27 27.1,-34.6 C28.8,-36.1 30.4,-37.5 31.9,-39 C32.8,-33.6 33.5,-28.9 34.2,-24.8 C25.1,-22.1 18.9,-12.5 18.9,-3.1 C18.9,3.9 24.4,13.5 32.4,13.5 C33.2,13.5 34.1,13.1 34.1,12.2 C34.1,11.3 33.1,10.8 31.9,10 C28,7.6 25.8,5 25.8,0.1 C25.8,-6 30.4,-10.9 36.2,-12.3 L42,20.6 M56.2,2.1 C56.2,9.2 53.3,16.5 46.2,19.4 C44.1,7.4 41.4,-8.5 40.7,-12.9 C49.7,-12.9 56.2,-6.8 56.2,2.1"/>
<path class="Clef" transform="matrix(0.992,0,0,0.992,123,972.136)" d="M12.3,51.3 C12.3,57.9 17.3,66.6 30.8,66.6 C35.5,66.6 39.6,65.4 43.2,63.2 C48.6,59.4 50,52.8 50,46.5 C50,42.6 49.4,38.1 48.4,32.4 C48.1,30.4 47.5,27.4 46.9,23.5 C56.7,20.3 64,10.1 64,-0.2 C64,-15.3 53.3,-25.5 38.7,-25.5 C37.7,-31.5 36.7,-37.4 35.9,-43 C46.4,-54.1 53.7,-66.6 53.7,-82.5 C53.7,-91.6 50.9,-99 49.3,-102.6 C46.9,-107.7 44,-111.2 42.2,-111.2 C41.5,-111.2 38.4,-110 35.1,-106.1 C28.7,-98.5 26.9,-85.7 26.9,-77.3 C26.9,-71.9 27.4,-67 29.1,-55.8 C29,-55.7 23.8,-50.4 21.7,-48.7 C12.6,-40.3 0,-28.1 0,-8.1 C0,10.6 16.3,25.3 34.9,25.3 C37.8,25.3 40.5,25 42.8,24.6 C44.7,34.2 45.9,41.2 45.9,46.5 C45.9,56.9 40.5,62.4 30.4,62.4 C28,62.4 25.9,61.9 25.7,61.9 C25.6,61.8 25.4,61.7 25.4,61.6 C25.4,61.4 25.6,61.3 25.9,61.3 C30.6,60.5 35.3,56.5 35.3,50.1 C35.3,44.7 31.2,39 23.7,39 C16.7,39 12.3,44.7 12.3,51.3 M33.2,-82.2 C34.1,-86.2 38.7,-96.7 43.9,-96.7 C45.4,-96.7 47.8,-91.9 47.8,-84.9 C47.8,-74.5 40.1,-66.7 33.2,-59.9 C32.6,-63.9 32.1,-67.8 32.1,-72 C32.1,-75.7 32.4,-79.1 33.2,-82.2 M42,20.6 C40,21 38.1,21.2 36.2,21.2 C21.9,21.2 9.7,11.2 9.7,-3.9 C9.7,-16.1 18.3,-27 27.1,-34.6 C28.8,-36.1 30.4,-37.5 31.9,-39 C32.8,-33.6 33.5,-28.9 34.2,-24.8 C25.1,-22.1 18.9,-12.5 18.9,-3.1 C18.9,3.9 24.4,13.5 32.4,13.5 C33.2,13.5 34.1,13.1 34.1,12.2 C34.1,11.3 33.1,10.8 31.9,10 C28,7.6 25.8,5 25.8,0.1 C25.8,-6 30.4,-10.9 36.2,-12.3 L42,20.6 M56.2,2.1 C56.2,9.2 53.3,16.5 46.2,19.4 C44.1,7.4 41.4,-8.5 40.7,-12.9 C49.7,-12.9 56.2,-6.8 56.2,2.1"/>
<path class="Beam" fill-rule="evenodd" d="M1729.62,383.373 L1795.73,389.573 L1795.73,402.027 L1729.62,395.827 L1729.62,383.373 "/>
<path class="Beam" fill-rule="evenodd" d="M429.968,352.373 L496.077,346.173 L496.077,358.627 L429.968,364.827 L429.968,352.373 "/>
<path class="Beam" fill-rule="evenodd" d="M1602.36,377.2 L1668.47,377.2 L1668.47,389.6 L1602.36,389.6 L1602.36,377.2 "/>
<path class="Beam" fill-rule="evenodd" d="M784.354,364.797 L977.722,370.997 L977.722,383.403 L784.354,377.203 L784.354,364.797 "/>
<path class="Beam" fill-rule="evenodd" d="M1856.87,377.173 L1922.98,370.973 L1922.98,383.427 L1856.87,389.627 L1856.87,377.173 "/>
<path class="Hook" transform="matrix(0.992,0,0,0.992,1416.74,259.4)" d="M0,22.7 C0,23 0.1,23.6 0.8,23.8 C5.1,25.2 13.7,30.6 20.2,41.7 C22,44.8 24.9,49.1 24.9,57.4 C24.9,64.6 23.1,72 20.4,79.2 C20.2,79.8 20.1,80.3 20.1,80.7 C20.1,81.4 20.5,81.7 21.2,81.7 C21.8,81.7 22.3,81.3 22.7,80.6 C27.2,72.6 28.9,63.3 28.9,54.2 C28.4,41.3 21,31.8 21,31.8 C21.3,31.8 11.8,19.5 9.1,15.3 C5.4,9.6 3.7,3.9 3.5,3.5 C3.4,3.2 2.5,-0.4 2.5,-0.4 C2.4,-0.8 1.9,-1.2 1.3,-1.2 C0.6,-1.2 0,-0.6 0,0.1 L0,22.7 "/>
<path class="Hook" transform="matrix(0.992,0,0,0.992,1202.37,395.8)" d="M0,-0.1 C0,0.6 0.6,1.2 1.3,1.2 C1.8,1.2 2.4,0.8 2.5,0.4 C2.5,0.3 3.4,-3.2 3.5,-3.5 C3.6,-3.9 4.5,-7.7 8.1,-13.6 C12,-20.1 18,-24.8 23,-31.8 C28,-38.8 30.9,-45.4 30.9,-54.2 C30.9,-63.3 28.9,-70.9 23.5,-80.6 C23.2,-81.3 22.6,-81.7 22,-81.7 C21.8,-81.7 21.6,-81.7 21.5,-81.6 C21,-81.4 20.8,-81 20.8,-80.4 C20.8,-80.1 20.9,-79.7 21.1,-79.2 C25.1,-69.9 26.7,-64.6 26.7,-57.4 C26.7,-49.1 23.8,-44.8 22,-41.7 C15.5,-30.6 5,-25.2 0.8,-23.8 C0.1,-23.6 0,-23 0,-22.7 L0,-0.1 "/>
<path class="Hook" transform="matrix(0.992,0,0,0.992,720.725,377.2)" d="M0,-0.1 C0,0.6 0.6,1.2 1.3,1.2 C1.8,1.2 2.4,0.8 2.5,0.4 C2.5,0.3 3.4,-3.2 3.5,-3.5 C3.6,-3.9 4.5,-7.7 8.1,-13.6 C12,-20.1 18,-24.8 23,-31.8 C28,-38.8 30.9,-45.4 30.9,-54.2 C30.9,-63.3 28.9,-70.9 23.5,-80.6 C23.2,-81.3 22.6,-81.7 22,-81.7 C21.8,-81.7 21.6,-81.7 21.5,-81.6 C21,-81.4 20.8,-81 20.8,-80.4 C20.8,-80.1 20.9,-79.7 21.1,-79.2 C25.1,-69.9 26.7,-64.6 26.7,-57.4 C26.7,-49.1 23.8,-44.8 22,-41.7 C15.5,-30.6 5,-25.2 0.8,-23.8 C0.1,-23.6 0,-23 0,-22.7 L0,-0.1 "/>
<path class="Lyrics" d="M1888.93,451.948 L1888.93,448.748 L1862.03,448.748 L1862.03,441.398 L1887.78,441.398 L1887.78,428.198 L1858.08,428.198 L1858.08,431.398 L1883.98,431.398 L1883.98,438.248 L1858.23,438.248 L1858.23,451.948 L1888.93,451.948 M1892.73,462.498 L1892.73,459.298 L1853.28,459.298 L1853.28,462.498 L1892.73,462.498 "/>
<path class="Lyrics" d="M1803.15,451.048 L1803.15,455.198 L1815.6,455.198 L1815.6,451.048 L1803.15,451.048 "/>
<path class="Lyrics" d="M1765.6,445.298 L1765.6,442.098 L1759.25,442.098 L1759.25,424.748 L1755.45,424.748 L1755.45,468.448 L1759.25,468.448 L1759.25,445.298 L1765.6,445.298 M1738.15,455.598 L1737.6,452.498 C1734.6,453.248 1732.2,453.498 1729.65,453.498 L1729.65,432.498 L1736.85,432.498 L1736.85,429.348 L1725.9,429.348 L1725.9,456.748 C1731.25,456.748 1734.5,456.398 1738.15,455.598 M1753.4,455.798 L1752.95,452.698 C1750.25,453.348 1746.55,453.598 1743.3,453.598 L1743.3,432.498 L1751.2,432.498 L1751.2,429.348 L1739.55,429.348 L1739.55,456.848 C1745.35,456.848 1749.75,456.648 1753.4,455.798"/>
<path class="Lyrics" d="M1949.7,424.748 L1949.7,468.448 L1953.5,468.448 L1953.5,424.748 L1949.7,424.748 M1945.7,453.398 C1940.4,454.348 1931.75,454.748 1924.8,454.748 L1923.75,454.748 L1923.75,444.298 L1940.35,444.298 L1940.35,428.798 L1919.75,428.798 L1919.75,431.948 L1936.5,431.948 L1936.5,441.148 L1919.95,441.148 L1919.95,457.998 L1924.4,457.998 C1934,457.998 1941.5,457.248 1946.05,456.548 L1945.7,453.398 "/>
<path class="Lyrics" d="M1699.66,468.448 L1699.66,424.748 L1695.86,424.748 L1695.86,468.448 L1699.66,468.448 M1683.76,430.848 L1683.76,427.648 L1671.01,427.648 L1671.01,430.848 L1683.76,430.848 M1690.51,438.398 L1690.51,435.248 L1664.56,435.248 L1664.56,438.398 L1690.51,438.398 M1687.91,450.248 C1687.91,445.098 1683.81,441.198 1677.71,441.198 C1671.61,441.198 1667.51,445.148 1667.51,450.248 C1667.51,455.348 1671.61,459.248 1677.71,459.248 C1683.81,459.248 1687.91,455.298 1687.91,450.248 M1684.11,450.248 C1684.11,453.698 1681.51,456.148 1677.71,456.148 C1673.96,456.148 1671.26,453.698 1671.26,450.248 C1671.26,446.748 1673.96,444.348 1677.71,444.348 C1681.41,444.348 1684.11,446.748 1684.11,450.248"/>
<path class="Lyrics" d="M1625.79,434.898 C1625.79,429.948 1620.94,426.798 1614.19,426.798 C1607.44,426.798 1602.49,429.948 1602.49,434.848 C1602.49,439.948 1607.44,442.898 1614.19,442.898 C1620.94,442.898 1625.79,439.898 1625.79,434.898 M1636.24,458.348 L1636.24,424.748 L1632.44,424.748 L1632.44,450.598 L1623.24,450.598 L1623.24,453.598 L1632.44,453.598 L1632.44,458.348 L1636.24,458.348 M1637.14,467.398 L1637.14,464.198 L1609.69,464.198 L1609.69,454.748 L1605.89,454.748 L1605.89,467.398 L1637.14,467.398 M1622.04,434.898 C1622.04,437.848 1618.89,439.798 1614.19,439.798 C1609.49,439.798 1606.29,437.848 1606.29,434.898 C1606.29,431.898 1609.49,429.948 1614.19,429.948 C1618.89,429.948 1622.04,431.948 1622.04,434.898 M1616.39,456.598 L1616.39,448.398 C1620.99,448.098 1625.84,447.798 1628.59,447.398 L1628.29,444.448 C1624.04,444.898 1619.29,445.348 1614.44,445.548 C1609.69,445.698 1604.34,445.748 1599.84,445.698 L1600.44,448.948 C1604.09,448.948 1608.44,448.798 1612.59,448.648 L1612.59,456.598 L1616.39,456.598 "/>
<path class="Lyrics" d="M466.327,442.748 L466.327,439.548 L459.677,439.548 L459.677,424.748 L455.877,424.748 L455.877,456.998 L459.677,456.998 L459.677,442.748 L466.327,442.748 M461.377,467.048 L461.377,463.848 L436.077,463.848 L436.077,455.848 L432.277,455.848 L432.277,467.048 L461.377,467.048 M444.727,429.648 L444.727,426.298 L432.127,426.298 L432.127,429.648 L444.727,429.648 M451.477,436.098 L451.477,432.948 L425.877,432.948 L425.877,436.098 L451.477,436.098 M448.977,446.098 C448.977,441.398 444.577,438.448 438.677,438.448 C432.827,438.448 428.427,441.398 428.427,446.098 C428.427,450.698 432.877,453.748 438.677,453.748 C444.577,453.748 448.977,450.698 448.977,446.098 M445.377,446.098 C445.377,448.948 442.227,450.698 438.677,450.698 C435.177,450.698 432.027,448.948 432.027,446.098 C432.027,443.198 435.177,441.448 438.677,441.448 C442.227,441.448 445.377,443.198 445.377,446.098"/>
<path class="Lyrics" d="M1540.74,460.248 C1540.74,455.048 1535.39,451.898 1525.84,451.898 C1516.34,451.898 1510.99,455.048 1510.99,460.248 C1510.99,465.298 1516.34,468.548 1525.84,468.548 C1535.39,468.548 1540.74,465.298 1540.74,460.248 M1528.94,444.648 L1536.89,444.648 L1536.89,451.798 L1540.69,451.798 L1540.69,424.748 L1536.89,424.748 L1536.89,430.548 L1528.94,430.548 L1528.94,433.798 L1536.89,433.798 L1536.89,441.398 L1528.94,441.398 L1528.94,444.648 M1536.84,460.248 C1536.84,463.448 1532.79,465.298 1525.84,465.298 C1519.04,465.298 1514.94,463.448 1514.94,460.248 C1514.94,456.998 1519.04,455.098 1525.84,455.098 C1532.79,455.098 1536.84,456.998 1536.84,460.248 M1516.59,427.398 C1510.44,427.398 1505.34,431.598 1505.34,437.898 C1505.34,444.248 1510.49,448.248 1516.59,448.248 C1522.74,448.248 1527.79,444.248 1527.79,437.848 C1527.79,431.498 1522.74,427.398 1516.59,427.398 M1516.59,430.648 C1521.09,430.648 1523.99,433.548 1523.99,437.898 C1523.99,442.298 1521.04,445.148 1516.59,445.148 C1512.29,445.148 1509.14,442.298 1509.14,437.848 C1509.14,433.498 1512.29,430.648 1516.59,430.648"/>
<path class="Lyrics" d="M277.109,424.748 L273.359,424.748 L273.359,468.448 L277.109,468.448 L277.109,445.548 L284.159,445.548 L284.159,442.348 L277.109,442.348 L277.109,424.748 M269.509,453.348 C263.659,454.448 255.909,454.898 248.959,454.848 L248.959,444.298 L265.259,444.298 L265.259,428.798 L245.059,428.798 L245.059,431.948 L261.459,431.948 L261.459,441.148 L245.159,441.148 L245.159,458.048 L248.859,458.048 C256.009,458.048 265.109,457.398 270.009,456.398 L269.509,453.348 "/>
<path class="Lyrics" d="M1420.59,468.448 L1420.59,424.748 L1416.84,424.748 L1416.84,442.148 L1411.09,442.148 L1411.09,425.798 L1407.39,425.798 L1407.39,466.198 L1411.09,466.198 L1411.09,445.348 L1416.84,445.348 L1416.84,468.448 L1420.59,468.448 M1404.44,452.248 C1401.24,453.098 1393.99,453.698 1389.44,453.598 L1389.44,429.548 L1385.64,429.548 L1385.64,456.898 L1388.99,456.898 C1394.54,456.898 1401.24,456.298 1404.89,455.448 L1404.44,452.248 "/>
<path class="Lyrics" d="M1296.13,437.648 L1296.13,448.548 L1287.28,448.548 L1287.28,451.698 L1296.13,451.698 L1296.13,468.448 L1299.93,468.448 L1299.93,424.748 L1296.13,424.748 L1296.13,434.498 L1287.28,434.498 L1287.28,437.648 L1296.13,437.648 M1264.33,443.248 C1264.33,452.548 1268.23,458.698 1275.13,458.698 C1282.13,458.698 1285.98,452.548 1285.98,443.298 C1285.98,433.998 1282.13,427.798 1275.13,427.798 C1268.23,427.798 1264.33,433.998 1264.33,443.248 M1282.23,443.298 C1282.23,450.398 1279.43,455.398 1275.13,455.398 C1270.93,455.398 1268.08,450.398 1268.08,443.298 C1268.08,436.098 1270.93,431.098 1275.13,431.098 C1279.43,431.098 1282.23,436.098 1282.23,443.298"/>
<path class="Lyrics" d="M277.109,1040.34 L273.359,1040.34 L273.359,1084.04 L277.109,1084.04 L277.109,1061.14 L284.159,1061.14 L284.159,1057.94 L277.109,1057.94 L277.109,1040.34 M269.509,1068.94 C263.659,1070.04 255.909,1070.49 248.959,1070.44 L248.959,1059.89 L265.259,1059.89 L265.259,1044.39 L245.059,1044.39 L245.059,1047.54 L261.459,1047.54 L261.459,1056.74 L245.159,1056.74 L245.159,1073.64 L248.859,1073.64 C256.009,1073.64 265.109,1072.99 270.009,1071.99 L269.509,1068.94 "/>
<path class="Lyrics" d="M1236.38,442.348 C1229.68,441.598 1220.73,437.148 1220.53,430.998 L1234.58,430.998 L1234.58,427.848 L1202.38,427.848 L1202.38,430.998 L1216.53,430.998 C1216.33,437.098 1207.88,441.698 1200.73,442.448 L1202.48,445.648 C1209.93,444.398 1216.73,439.898 1218.48,435.798 C1220.48,439.898 1227.43,444.298 1234.58,445.548 L1236.38,442.348 M1220.33,468.448 L1220.33,452.798 L1238.23,452.798 L1238.23,449.598 L1198.78,449.598 L1198.78,452.798 L1216.53,452.798 L1216.53,468.448 L1220.33,468.448 "/>
<path class="Lyrics" d="M1114.98,468.448 L1114.98,424.748 L1111.23,424.748 L1111.23,442.148 L1105.48,442.148 L1105.48,425.798 L1101.78,425.798 L1101.78,466.198 L1105.48,466.198 L1105.48,445.348 L1111.23,445.348 L1111.23,468.448 L1114.98,468.448 M1098.83,452.248 C1095.63,453.098 1088.38,453.698 1083.83,453.598 L1083.83,429.548 L1080.03,429.548 L1080.03,456.898 L1083.38,456.898 C1088.93,456.898 1095.63,456.298 1099.28,455.448 L1098.83,452.248 "/>
<path class="Lyrics" d="M529.082,437.648 L529.082,434.448 L522.432,434.448 L522.432,424.748 L518.632,424.748 L518.632,447.098 L522.432,447.098 L522.432,437.648 L529.082,437.648 M524.032,468.148 L524.032,464.998 L498.382,464.998 L498.382,459.998 L522.432,459.998 L522.432,449.498 L494.582,449.498 L494.582,452.648 L518.632,452.648 L518.632,457.048 L494.582,457.048 L494.582,468.148 L524.032,468.148 M511.132,445.348 L511.132,427.498 L490.382,427.498 L490.382,445.348 L511.132,445.348 M507.332,442.198 L494.182,442.198 L494.182,430.648 L507.332,430.648 L507.332,442.198 "/>
<path class="Lyrics" d="M791.905,1040.34 L788.155,1040.34 L788.155,1084.04 L791.905,1084.04 L791.905,1061.14 L798.955,1061.14 L798.955,1057.94 L791.905,1057.94 L791.905,1040.34 M784.305,1068.94 C778.455,1070.04 770.705,1070.49 763.755,1070.44 L763.755,1059.89 L780.055,1059.89 L780.055,1044.39 L759.855,1044.39 L759.855,1047.54 L776.255,1047.54 L776.255,1056.74 L759.955,1056.74 L759.955,1073.64 L763.655,1073.64 C770.805,1073.64 779.905,1072.99 784.805,1071.99 L784.305,1068.94 "/>
<path class="Lyrics" d="M1009.48,468.448 L1009.48,424.748 L1005.68,424.748 L1005.68,440.348 L995.483,440.348 L995.483,443.548 L1005.68,443.548 L1005.68,468.448 L1009.48,468.448 M999.783,455.098 C993.783,451.598 988.583,444.498 988.583,436.498 L988.583,428.548 L984.633,428.548 L984.633,436.648 C984.633,444.398 979.583,452.148 973.233,456.148 L975.733,458.998 C980.783,455.348 985.083,449.948 986.633,444.498 C988.383,449.748 993.433,455.298 997.433,457.998 L999.783,455.098 "/>
<path class="Lyrics" d="M945.919,446.348 C938.719,444.948 929.719,438.648 929.719,431.148 L929.719,427.998 L925.769,427.998 L925.769,431.148 C925.769,438.648 917.269,444.898 909.619,446.348 L911.619,449.398 C919.269,447.298 926.019,441.898 927.669,436.898 C929.569,441.798 936.169,447.248 943.819,449.398 L945.919,446.348 M947.469,462.898 L947.469,459.698 L929.569,459.698 L929.569,448.498 L925.769,448.498 L925.769,459.698 L908.019,459.698 L908.019,462.898 L947.469,462.898 "/>
<path class="Lyrics" d="M1261.55,1061.14 L1261.55,1057.94 L1254.4,1057.94 L1254.4,1040.34 L1250.6,1040.34 L1250.6,1084.04 L1254.4,1084.04 L1254.4,1061.14 L1261.55,1061.14 M1221.4,1059.04 C1221.4,1068.34 1225.5,1074.54 1232.6,1074.54 C1239.7,1074.54 1243.75,1068.34 1243.75,1059.09 C1243.75,1049.84 1239.7,1043.64 1232.6,1043.64 C1225.5,1043.64 1221.4,1049.84 1221.4,1059.04 M1240.05,1059.09 C1240.05,1066.24 1237.15,1071.24 1232.6,1071.24 C1228.05,1071.24 1225.1,1066.24 1225.1,1059.09 C1225.1,1051.89 1228.05,1046.94 1232.6,1046.94 C1237.15,1046.94 1240.05,1051.89 1240.05,1059.09"/>
<path class="Lyrics" d="M884.574,446.398 L884.574,443.198 L877.474,443.198 L877.474,424.748 L873.674,424.748 L873.674,468.448 L877.474,468.448 L877.474,446.398 L884.574,446.398 M863.024,430.998 L863.024,427.748 L850.174,427.748 L850.174,430.998 L863.024,430.998 M869.474,438.398 L869.474,435.248 L843.674,435.248 L843.674,438.398 L869.474,438.398 M866.874,450.248 C866.874,445.098 862.774,441.198 856.674,441.198 C850.574,441.198 846.474,445.148 846.474,450.248 C846.474,455.348 850.574,459.248 856.674,459.248 C862.774,459.248 866.874,455.298 866.874,450.248 M863.074,450.248 C863.074,453.648 860.424,456.098 856.674,456.098 C853.024,456.098 850.274,453.648 850.274,450.248 C850.274,446.798 853.024,444.398 856.674,444.398 C860.374,444.398 863.074,446.798 863.074,450.248"/>
<path class="Lyrics" d="M741.434,448.848 L741.434,428.598 L720.734,428.598 L720.734,448.848 L741.434,448.848 M737.634,445.698 L724.534,445.698 L724.534,431.748 L737.634,431.748 L737.634,445.698 M759.484,440.998 L759.484,437.798 L752.834,437.798 L752.834,424.748 L749.034,424.748 L749.034,456.498 L752.834,456.498 L752.834,440.998 L759.484,440.998 M754.534,466.948 L754.534,463.798 L729.284,463.798 L729.284,453.498 L725.484,453.498 L725.484,466.948 L754.534,466.948 "/>
<path class="Lyrics" d="M635.59,448.748 L635.59,445.548 L596.14,445.548 L596.14,448.748 L635.59,448.748 M630.49,467.848 L630.49,453.148 L601.19,453.148 L601.19,467.848 L630.49,467.848 M626.69,464.698 L604.99,464.698 L604.99,456.298 L626.69,456.298 L626.69,464.698 M615.59,437.198 C612.14,436.048 609.24,433.048 609.24,428.648 L609.24,426.098 L605.59,426.098 L605.59,428.498 C605.59,433.148 602.19,437.548 597.24,439.398 L599.49,442.098 C603.29,440.448 606.39,437.198 607.44,434.398 C608.44,436.598 611.04,438.798 613.39,439.948 L615.59,437.198 M634.54,438.648 C630.34,437.148 626.79,433.398 626.79,428.548 L626.79,425.848 L623.14,425.848 L623.14,428.698 C623.14,433.648 619.59,437.748 615.14,439.498 L617.34,442.148 C620.89,440.598 624.09,437.148 625.04,434.448 C626.04,437.248 629.29,440.148 632.34,441.348 L634.54,438.648 "/>
<path class="Lyrics" d="M1520.74,1064.04 L1520.74,1055.79 L1526.34,1055.79 L1526.34,1071.74 L1530.04,1071.74 L1530.04,1041.24 L1526.34,1041.24 L1526.34,1052.64 L1520.74,1052.64 L1520.74,1044.14 L1503.29,1044.14 L1503.29,1064.04 L1520.74,1064.04 M1517.04,1060.94 L1506.99,1060.94 L1506.99,1047.24 L1517.04,1047.24 L1517.04,1060.94 M1539.44,1082.64 L1539.44,1079.44 L1513.39,1079.44 L1513.39,1069.09 L1509.59,1069.09 L1509.59,1082.64 L1539.44,1082.64 M1538.29,1072.94 L1538.29,1040.34 L1534.49,1040.34 L1534.49,1072.94 L1538.29,1072.94 "/>
<path class="Lyrics" d="M1549.64,1074.99 C1547.89,1074.99 1546.49,1076.39 1546.49,1078.09 C1546.49,1079.84 1547.89,1081.24 1549.59,1081.24 C1551.34,1081.24 1552.74,1079.84 1552.74,1078.09 C1552.74,1076.39 1551.34,1074.99 1549.64,1074.99"/>
<path class="VoltaSegment" d="M279.203,832.632 L277.278,832.632 C273.813,835.217 269.908,836.317 263.363,836.427 L263.363,839.507 L265.673,839.507 C270.568,839.507 270.623,839.617 270.568,844.127 L270.568,863.652 C270.568,867.062 270.568,867.227 270.183,867.777 C269.688,868.382 268.588,868.602 265.618,868.602 L263.858,868.602 L263.858,871.572 L285.803,871.572 L285.803,868.602 L284.043,868.602 C281.128,868.602 280.083,868.382 279.588,867.777 C279.203,867.227 279.203,867.007 279.203,863.652 L279.203,832.632 "/>
<polyline class="VoltaSegment" fill="none" stroke="#000000" stroke-width="2.73" stroke-linejoin="miter" stroke-miterlimit="2" points="248.48,871.572 248.48,817.012 712.781,817.012 712.781,871.572"/>
<polyline class="LyricsLineSegment" fill="none" stroke="#000000" stroke-width="2.48" stroke-linejoin="bevel" points="791.644,450.97 811.484,450.97"/>
<path class="NoteDot" transform="matrix(0.992,0,0,0.992,1549.68,934.936)" d="M0,0 C0,2.8 2.2,5 5,5 C7.8,5 10,2.8 10,0 C10,-2.8 7.8,-5 5,-5 C2.2,-5 0,-2.8 0,0"/>
<path class="NoteDot" transform="matrix(0.992,0,0,0.992,644.365,290.4)" d="M0,0 C0,2.8 2.2,5 5,5 C7.8,5 10,2.8 10,0 C10,-2.8 7.8,-5 5,-5 C2.2,-5 0,-2.8 0,0"/>
<path class="NoteDot" transform="matrix(0.992,0,0,0.992,807.909,934.936)" d="M0,0 C0,2.8 2.2,5 5,5 C7.8,5 10,2.8 10,0 C10,-2.8 7.8,-5 5,-5 C2.2,-5 0,-2.8 0,0"/>
<path class="NoteDot" transform="matrix(0.992,0,0,0.992,1126.01,290.4)" d="M0,0 C0,2.8 2.2,5 5,5 C7.8,5 10,2.8 10,0 C10,-2.8 7.8,-5 5,-5 C2.2,-5 0,-2.8 0,0"/>
<path class="NoteDot" transform="matrix(0.992,0,0,0.992,1310.63,315.2)" d="M0,0 C0,2.8 2.2,5 5,5 C7.8,5 10,2.8 10,0 C10,-2.8 7.8,-5 5,-5 C2.2,-5 0,-2.8 0,0"/>
<path class="NoteDot" transform="matrix(0.992,0,0,0.992,293.113,934.936)" d="M0,0 C0,2.8 2.2,5 5,5 C7.8,5 10,2.8 10,0 C10,-2.8 7.8,-5 5,-5 C2.2,-5 0,-2.8 0,0"/>
<path class="NoteDot" transform="matrix(0.992,0,0,0.992,293.113,290.4)" d="M0,0 C0,2.8 2.2,5 5,5 C7.8,5 10,2.8 10,0 C10,-2.8 7.8,-5 5,-5 C2.2,-5 0,-2.8 0,0"/>
</svg>
