<?xml version="1.0" encoding="UTF-8" standalone="no"?>
<svg width="2098.8px" height="1418.4px" viewBox="0 0 2098.8 1418.4"
 xmlns="http://www.w3.org/2000/svg" xmlns:xlink="http://www.w3.org/1999/xlink" version="1.2" baseProfile="tiny">
<title>259 태양의 찬가.musicxml (4)</title>
<desc>Generated by MuseScore 4.2.1</desc>
<polyline class="StaffLines" fill="none" stroke="#000000" stroke-width="2.73" stroke-linejoin="bevel" points="104.4,278 1994.4,278"/>
<polyline class="StaffLines" fill="none" stroke="#000000" stroke-width="2.73" stroke-linejoin="bevel" points="104.4,302.8 1994.4,302.8"/>
<polyline class="StaffLines" fill="none" stroke="#000000" stroke-width="2.73" stroke-linejoin="bevel" points="104.4,327.6 1994.4,327.6"/>
<polyline class="StaffLines" fill="none" stroke="#000000" stroke-width="2.73" stroke-linejoin="bevel" points="104.4,352.4 1994.4,352.4"/>
<polyline class="StaffLines" fill="none" stroke="#000000" stroke-width="2.73" stroke-linejoin="bevel" points="104.4,377.2 1994.4,377.2"/>
<polyline class="StaffLines" fill="none" stroke="#000000" stroke-width="2.73" stroke-linejoin="bevel" points="104.4,659.6 1994.4,659.6"/>
<polyline class="StaffLines" fill="none" stroke="#000000" stroke-width="2.73" stroke-linejoin="bevel" points="104.4,684.4 1994.4,684.4"/>
<polyline class="StaffLines" fill="none" stroke="#000000" stroke-width="2.73" stroke-linejoin="bevel" points="104.4,709.2 1994.4,709.2"/>
<polyline class="StaffLines" fill="none" stroke="#000000" stroke-width="2.73" stroke-linejoin="bevel" points="104.4,734 1994.4,734"/>
<polyline class="StaffLines" fill="none" stroke="#000000" stroke-width="2.73" stroke-linejoin="bevel" points="104.4,758.8 1994.4,758.8"/>
<polyline class="StaffLines" fill="none" stroke="#000000" stroke-width="2.73" stroke-linejoin="bevel" points="104.4,1041.2 1994.4,1041.2"/>
<polyline class="StaffLines" fill="none" stroke="#000000" stroke-width="2.73" stroke-linejoin="bevel" points="104.4,1066 1994.4,1066"/>
<polyline class="StaffLines" fill="none" stroke="#000000" stroke-width="2.73" stroke-linejoin="bevel" points="104.4,1090.8 1994.4,1090.8"/>
<polyline class="StaffLines" fill="none" stroke="#000000" stroke-width="2.73" stroke-linejoin="bevel" points="104.4,1115.6 1994.4,1115.6"/>
<polyline class="StaffLines" fill="none" stroke="#000000" stroke-width="2.73" stroke-linejoin="bevel" points="104.4,1140.4 1994.4,1140.4"/>
<path class="MeasureNumber" d="M125.192,200.08 L123.032,200.08 L104.392,219.36 L104.392,221.04 L115.672,221.04 L115.032,223.48 C114.232,226.52 114.232,226.52 110.752,226.52 L110.032,226.52 L109.792,228.4 L122.232,228.4 L122.432,226.52 L121.712,226.52 C119.072,226.52 118.512,226.32 118.512,225.44 C118.512,225.12 118.592,224.72 118.912,223.48 L119.592,221.04 L124.152,221.04 L124.752,218.88 L120.152,218.88 L125.192,200.08 M116.272,218.88 L107.312,218.88 L119.672,206.16 L116.272,218.88 M140.987,200.24 C132.387,200.24 128.107,212.08 128.107,219.12 C128.107,224.92 130.987,229 135.067,229 C141.907,229 148.027,220.12 148.027,210.2 C148.027,204.24 145.187,200.24 140.987,200.24 M140.947,201.84 C143.027,201.84 144.147,203.68 144.147,207.12 C144.147,211.04 143.147,216.12 141.507,220.24 C139.587,225.24 137.667,227.4 135.267,227.4 C133.107,227.4 131.907,225.48 131.907,222.08 C131.907,216.88 133.747,209.92 136.307,205.28 C137.547,203.04 139.147,201.84 140.947,201.84"/>
<path class="MeasureNumber" d="M125.192,581.68 L123.032,581.68 L104.392,600.96 L104.392,602.64 L115.672,602.64 L115.032,605.08 C114.232,608.12 114.232,608.12 110.752,608.12 L110.032,608.12 L109.792,610 L122.232,610 L122.432,608.12 L121.712,608.12 C119.072,608.12 118.512,607.92 118.512,607.04 C118.512,606.72 118.592,606.32 118.912,605.08 L119.592,602.64 L124.152,602.64 L124.752,600.48 L120.152,600.48 L125.192,581.68 M116.272,600.48 L107.312,600.48 L119.672,587.76 L116.272,600.48 M131.427,594.68 C130.187,595.44 129.827,595.92 129.827,596.72 C129.827,597.48 130.467,598.04 131.267,598.04 C132.307,598.04 132.907,597.28 133.027,595.8 C134.267,594.8 135.587,594.36 137.187,594.36 C140.147,594.36 141.787,596.2 141.787,599.52 C141.787,604.72 138.427,608.96 134.307,608.96 C131.947,608.96 130.027,607.84 130.027,606.52 C130.027,606.28 130.067,606.2 130.267,606.08 C131.547,605.48 132.587,605.04 132.587,603.36 C132.587,602.08 131.587,601.12 130.187,601.12 C128.427,601.12 127.107,602.6 127.107,604.52 C127.107,608.04 130.147,610.6 134.427,610.6 C140.907,610.6 146.147,605.44 146.147,599.04 C146.147,595 143.067,592.16 138.707,592.16 C136.987,592.16 135.587,592.52 133.667,593.48 L135.907,585.92 C138.027,586.36 139.707,586.56 141.147,586.56 C143.787,586.56 146.147,585.72 147.467,584.32 C148.147,583.52 148.547,582.84 148.547,582.32 C148.547,582.08 148.427,581.84 148.267,581.84 C148.147,581.84 148.067,581.88 147.827,582 C146.507,582.64 144.827,583 143.267,583 C140.867,583 138.027,582.6 135.067,581.84 L131.427,594.68 "/>
<path class="MeasureNumber" d="M108.724,976.28 C107.484,977.04 107.124,977.52 107.124,978.32 C107.124,979.08 107.764,979.64 108.564,979.64 C109.604,979.64 110.204,978.88 110.324,977.4 C111.564,976.4 112.884,975.96 114.484,975.96 C117.444,975.96 119.084,977.8 119.084,981.12 C119.084,986.32 115.724,990.56 111.604,990.56 C109.244,990.56 107.324,989.44 107.324,988.12 C107.324,987.88 107.364,987.8 107.564,987.68 C108.844,987.08 109.884,986.64 109.884,984.96 C109.884,983.68 108.884,982.72 107.484,982.72 C105.724,982.72 104.404,984.2 104.404,986.12 C104.404,989.64 107.444,992.2 111.724,992.2 C118.204,992.2 123.444,987.04 123.444,980.64 C123.444,976.6 120.364,973.76 116.004,973.76 C114.284,973.76 112.884,974.12 110.964,975.08 L113.204,967.52 C115.324,967.96 117.004,968.16 118.444,968.16 C121.084,968.16 123.444,967.32 124.764,965.92 C125.444,965.12 125.844,964.44 125.844,963.92 C125.844,963.68 125.724,963.44 125.564,963.44 C125.444,963.44 125.364,963.48 125.124,963.6 C123.804,964.24 122.124,964.6 120.564,964.6 C118.164,964.6 115.324,964.2 112.364,963.44 L108.724,976.28 M140.518,963.44 C131.918,963.44 127.638,975.28 127.638,982.32 C127.638,988.12 130.518,992.2 134.598,992.2 C141.438,992.2 147.558,983.32 147.558,973.4 C147.558,967.44 144.718,963.44 140.518,963.44 M140.478,965.04 C142.558,965.04 143.678,966.88 143.678,970.32 C143.678,974.24 142.678,979.32 141.038,983.44 C139.118,988.44 137.198,990.6 134.798,990.6 C132.638,990.6 131.438,988.68 131.438,985.28 C131.438,980.08 133.278,973.12 135.838,968.48 C137.078,966.24 138.678,965.04 140.478,965.04"/>
<path class="SlurSegment" stroke="#000000" stroke-width="1.24" stroke-linecap="round" stroke-linejoin="round" fill-rule="evenodd" d="M511.153,387.12 C535.641,412.069 589.636,418.269 619.142,399.52 C588.73,426.153 534.736,419.953 511.153,387.12"/>
<path class="SlurSegment" stroke="#000000" stroke-width="1.24" stroke-linecap="round" stroke-linejoin="round" fill-rule="evenodd" d="M1611.21,781.12 C1627.96,792.206 1654.93,786.006 1665.15,768.72 C1656.71,793.741 1629.73,799.941 1611.21,781.12"/>
<polyline class="BarLine" fill="none" stroke="#000000" stroke-width="4.46" stroke-linejoin="bevel" points="1307.21,276.636 1307.21,378.564"/>
<polyline class="BarLine" fill="none" stroke="#000000" stroke-width="4.46" stroke-linejoin="bevel" points="1185.6,1039.84 1185.6,1141.76"/>
<polyline class="BarLine" fill="none" stroke="#000000" stroke-width="4.46" stroke-linejoin="bevel" points="733.51,1039.84 733.51,1141.76"/>
<polyline class="BarLine" fill="none" stroke="#000000" stroke-width="4.46" stroke-linejoin="bevel" points="1637.7,1039.84 1637.7,1141.76"/>
<polyline class="BarLine" fill="none" stroke="#000000" stroke-width="4.46" stroke-linejoin="bevel" points="1992.17,658.236 1992.17,760.164"/>
<polyline class="BarLine" fill="none" stroke="#000000" stroke-width="4.46" stroke-linejoin="bevel" points="1720.7,658.236 1720.7,760.164"/>
<polyline class="BarLine" fill="none" stroke="#000000" stroke-width="4.46" stroke-linejoin="bevel" points="688.477,276.636 688.477,378.564"/>
<polyline class="BarLine" fill="none" stroke="#000000" stroke-width="4.46" stroke-linejoin="bevel" points="922.008,658.236 922.008,760.164"/>
<polyline class="BarLine" fill="none" stroke="#000000" stroke-width="4.46" stroke-linejoin="bevel" points="561.659,658.236 561.659,760.164"/>
<polyline class="BarLine" fill="none" stroke="#000000" stroke-width="4.46" stroke-linejoin="bevel" points="1969.35,1039.84 1969.35,1141.76"/>
<polyline class="BarLine" fill="none" stroke="#000000" stroke-width="13.64" stroke-linejoin="bevel" points="1987.58,1039.84 1987.58,1141.76"/>
<polyline class="BarLine" fill="none" stroke="#000000" stroke-width="4.46" stroke-linejoin="bevel" points="972.352,276.636 972.352,378.564"/>
<polyline class="BarLine" fill="none" stroke="#000000" stroke-width="4.46" stroke-linejoin="bevel" points="1317.89,658.236 1317.89,760.164"/>
<polyline class="BarLine" fill="none" stroke="#000000" stroke-width="4.46" stroke-linejoin="bevel" points="1992.17,276.636 1992.17,378.564"/>
<polyline class="BarLine" fill="none" stroke="#000000" stroke-width="4.46" stroke-linejoin="bevel" points="1599.48,276.636 1599.48,378.564"/>
<polyline class="Stem" fill="none" stroke="#000000" stroke-width="2.48" stroke-linejoin="bevel" points="1090.04,742.432 1090.04,659.798"/>
<polyline class="Stem" fill="none" stroke="#000000" stroke-width="2.48" stroke-linejoin="bevel" points="526.029,360.832 526.029,278"/>
<polyline class="Stem" fill="none" stroke="#000000" stroke-width="2.48" stroke-linejoin="bevel" points="1221.03,331.766 1221.03,402"/>
<polyline class="Stem" fill="none" stroke="#000000" stroke-width="2.48" stroke-linejoin="bevel" points="457.309,1124.03 457.309,1041.2"/>
<polyline class="Stem" fill="none" stroke="#000000" stroke-width="2.48" stroke-linejoin="bevel" points="1372.67,336.032 1372.67,259.4"/>
<polyline class="Stem" fill="none" stroke="#000000" stroke-width="2.48" stroke-linejoin="bevel" points="558.962,1111.63 558.962,1028.8"/>
<polyline class="Stem" fill="none" stroke="#000000" stroke-width="2.48" stroke-linejoin="bevel" points="1786.16,742.432 1786.16,659.6"/>
<polyline class="Stem" fill="none" stroke="#000000" stroke-width="2.48" stroke-linejoin="bevel" points="1500.45,360.832 1500.45,278"/>
<polyline class="Stem" fill="none" stroke="#000000" stroke-width="2.48" stroke-linejoin="bevel" points="1680.03,742.432 1680.03,678.336"/>
<polyline class="Stem" fill="none" stroke="#000000" stroke-width="2.48" stroke-linejoin="bevel" points="660.616,1099.23 660.616,1022.6"/>
<polyline class="Stem" fill="none" stroke="#000000" stroke-width="2.48" stroke-linejoin="bevel" points="1626.09,754.832 1626.09,684.264"/>
<polyline class="Stem" fill="none" stroke="#000000" stroke-width="2.48" stroke-linejoin="bevel" points="1135.84,319.366 1135.84,395.8"/>
<polyline class="Stem" fill="none" stroke="#000000" stroke-width="2.48" stroke-linejoin="bevel" points="1664.94,360.832 1664.94,278"/>
<polyline class="Stem" fill="none" stroke="#000000" stroke-width="2.48" stroke-linejoin="bevel" points="1545.18,754.832 1545.18,672"/>
<polyline class="Stem" fill="none" stroke="#000000" stroke-width="2.48" stroke-linejoin="bevel" points="1703.16,1148.83 1703.16,1066"/>
<polyline class="Stem" fill="none" stroke="#000000" stroke-width="2.48" stroke-linejoin="bevel" points="440.842,348.432 440.842,265.6"/>
<polyline class="Stem" fill="none" stroke="#000000" stroke-width="2.48" stroke-linejoin="bevel" points="1464.26,767.232 1464.26,684.4"/>
<polyline class="Stem" fill="none" stroke="#000000" stroke-width="2.48" stroke-linejoin="bevel" points="1772.93,348.432 1772.93,265.798"/>
<polyline class="Stem" fill="none" stroke="#000000" stroke-width="2.48" stroke-linejoin="bevel" points="798.974,1124.03 798.974,1041.2"/>
<polyline class="Stem" fill="none" stroke="#000000" stroke-width="2.48" stroke-linejoin="bevel" points="355.655,360.832 355.655,278"/>
<polyline class="Stem" fill="none" stroke="#000000" stroke-width="2.48" stroke-linejoin="bevel" points="1829.72,360.832 1829.72,278"/>
<polyline class="Stem" fill="none" stroke="#000000" stroke-width="2.48" stroke-linejoin="bevel" points="1383.35,754.832 1383.35,672"/>
<polyline class="Stem" fill="none" stroke="#000000" stroke-width="2.48" stroke-linejoin="bevel" points="634.018,373.232 634.018,290.598"/>
<polyline class="Stem" fill="none" stroke="#000000" stroke-width="2.48" stroke-linejoin="bevel" points="1583.24,1148.83 1583.24,1066.2"/>
<polyline class="Stem" fill="none" stroke="#000000" stroke-width="2.48" stroke-linejoin="bevel" points="1263.43,742.432 1263.43,659.798"/>
<polyline class="Stem" fill="none" stroke="#000000" stroke-width="2.48" stroke-linejoin="bevel" points="1937.71,373.232 1937.71,290.598"/>
<polyline class="Stem" fill="none" stroke="#000000" stroke-width="2.48" stroke-linejoin="bevel" points="900.628,1124.03 900.628,1041.2"/>
<polyline class="Stem" fill="none" stroke="#000000" stroke-width="2.48" stroke-linejoin="bevel" points="1160.86,730.032 1160.86,647.2"/>
<polyline class="Stem" fill="none" stroke="#000000" stroke-width="2.48" stroke-linejoin="bevel" points="1002.28,1111.63 1002.28,1028.8"/>
<polyline class="Stem" fill="none" stroke="#000000" stroke-width="2.48" stroke-linejoin="bevel" points="987.472,742.432 987.472,659.6"/>
<polyline class="Stem" fill="none" stroke="#000000" stroke-width="2.48" stroke-linejoin="bevel" points="1454.38,1136.43 1454.38,1053.6"/>
<polyline class="Stem" fill="none" stroke="#000000" stroke-width="2.48" stroke-linejoin="bevel" points="1008.06,306.966 1008.06,389.6"/>
<polyline class="Stem" fill="none" stroke="#000000" stroke-width="2.48" stroke-linejoin="bevel" points="753.941,336.032 753.941,259.4"/>
<polyline class="Stem" fill="none" stroke="#000000" stroke-width="2.48" stroke-linejoin="bevel" points="1131.15,1124.03 1131.15,1041.4"/>
<polyline class="Stem" fill="none" stroke="#000000" stroke-width="2.48" stroke-linejoin="bevel" points="869.857,717.632 869.857,641"/>
<polyline class="Stem" fill="none" stroke="#000000" stroke-width="2.48" stroke-linejoin="bevel" points="355.655,767.232 355.655,684.4"/>
<polyline class="Stem" fill="none" stroke="#000000" stroke-width="2.48" stroke-linejoin="bevel" points="788.946,730.032 788.946,647.2"/>
<polyline class="Stem" fill="none" stroke="#000000" stroke-width="2.48" stroke-linejoin="bevel" points="708.035,742.432 708.035,659.6"/>
<polyline class="Stem" fill="none" stroke="#000000" stroke-width="2.48" stroke-linejoin="bevel" points="1352.72,1148.83 1352.72,1066"/>
<polyline class="Stem" fill="none" stroke="#000000" stroke-width="2.48" stroke-linejoin="bevel" points="1251.07,1136.43 1251.07,1053.6"/>
<path class="Note" transform="matrix(0.992,0,0,0.992,1220.08,1140.4)" d="M0,4.2 C0,8.5 3.1,13.3 11.2,13.3 C21.6,13.3 32.5,4.8 32.5,-4 C32.5,-9.9 27.5,-13.2 21.3,-13.2 C11.6,-13.2 0,-5 0,4.2"/>
<path class="Note" transform="matrix(0.992,0,0,0.992,603.026,377.2)" d="M0,4.2 C0,8.5 3.1,13.3 11.2,13.3 C21.6,13.3 32.5,4.8 32.5,-4 C32.5,-9.9 27.5,-13.2 21.3,-13.2 C11.6,-13.2 0,-5 0,4.2"/>
<path class="Note" transform="matrix(0.992,0,0,0.992,1595.09,758.8)" d="M0,4.2 C0,8.5 3.1,13.3 11.2,13.3 C21.6,13.3 32.5,4.8 32.5,-4 C32.5,-9.9 27.5,-13.2 21.3,-13.2 C11.6,-13.2 0,-5 0,4.2"/>
<path class="Note" transform="matrix(0.992,0,0,0.992,1321.73,1152.8)" d="M0,4.2 C0,8.5 3.1,13.3 11.2,13.3 C21.6,13.3 32.5,4.8 32.5,-4 C32.5,-9.9 27.5,-13.2 21.3,-13.2 C11.6,-13.2 0,-5 0,4.2"/>
<path class="Note" transform="matrix(0.992,0,0,0.992,677.042,746.4)" d="M0,4.2 C0,8.5 3.1,13.3 11.2,13.3 C21.6,13.3 32.5,4.8 32.5,-4 C32.5,-9.9 27.5,-13.2 21.3,-13.2 C11.6,-13.2 0,-5 0,4.2"/>
<path class="Note" transform="matrix(0.992,0,0,0.992,324.663,364.8)" d="M0,4.2 C0,8.5 3.1,13.3 11.2,13.3 C21.6,13.3 32.5,4.8 32.5,-4 C32.5,-9.9 27.5,-13.2 21.3,-13.2 C11.6,-13.2 0,-5 0,4.2"/>
<path class="Note" transform="matrix(0.992,0,0,0.992,324.663,771.2)" d="M21.3,-13.2 C11.6,-13.2 0,-5.1 0,4.2 C0,8.5 3.1,13.3 11.2,13.3 C21.6,13.3 32.5,4.8 32.5,-4 C32.5,-9.9 27.5,-13.2 21.3,-13.2 M7.5,8.6 C4.2,8.6 3.5,5.9 3.5,5 C3.5,0.1 20.3,-8.5 25,-8.5 C27.4,-8.5 29,-7.1 29,-4.9 C29,0.1 12.1,8.6 7.5,8.6"/>
<path class="Note" transform="matrix(0.992,0,0,0.992,757.954,734)" d="M0,4.2 C0,8.5 3.1,13.3 11.2,13.3 C21.6,13.3 32.5,4.8 32.5,-4 C32.5,-9.9 27.5,-13.2 21.3,-13.2 C11.6,-13.2 0,-5 0,4.2"/>
<path class="Note" transform="matrix(0.992,0,0,0.992,1100.15,1128)" d="M0,4.2 C0,8.5 3.1,13.3 11.2,13.3 C21.6,13.3 32.5,4.8 32.5,-4 C32.5,-9.9 27.5,-13.2 21.3,-13.2 C11.6,-13.2 0,-5 0,4.2"/>
<path class="Note" transform="matrix(0.992,0,0,0.992,1433.27,771.2)" d="M0,4.2 C0,8.5 3.1,13.3 11.2,13.3 C21.6,13.3 32.5,4.8 32.5,-4 C32.5,-9.9 27.5,-13.2 21.3,-13.2 C11.6,-13.2 0,-5 0,4.2"/>
<path class="Note" transform="matrix(0.992,0,0,0.992,838.865,721.6)" d="M0,4.2 C0,8.5 3.1,13.3 11.2,13.3 C21.6,13.3 32.5,4.8 32.5,-4 C32.5,-9.9 27.5,-13.2 21.3,-13.2 C11.6,-13.2 0,-5 0,4.2"/>
<path class="Note" transform="matrix(0.992,0,0,0.992,1134.6,315.2)" d="M0,4.2 C0,8.5 3.1,13.3 11.2,13.3 C21.6,13.3 32.5,4.8 32.5,-4 C32.5,-9.9 27.5,-13.2 21.3,-13.2 C11.6,-13.2 0,-5 0,4.2"/>
<path class="Note" transform="matrix(0.992,0,0,0.992,722.949,340)" d="M21.3,-13.2 C11.6,-13.2 0,-5.1 0,4.2 C0,8.5 3.1,13.3 11.2,13.3 C21.6,13.3 32.5,4.8 32.5,-4 C32.5,-9.9 27.5,-13.2 21.3,-13.2 M7.5,8.6 C4.2,8.6 3.5,5.9 3.5,5 C3.5,0.1 20.3,-8.5 25,-8.5 C27.4,-8.5 29,-7.1 29,-4.9 C29,0.1 12.1,8.6 7.5,8.6"/>
<path class="Note" transform="matrix(0.992,0,0,0.992,495.037,364.8)" d="M0,4.2 C0,8.5 3.1,13.3 11.2,13.3 C21.6,13.3 32.5,4.8 32.5,-4 C32.5,-9.9 27.5,-13.2 21.3,-13.2 C11.6,-13.2 0,-5 0,4.2"/>
<path class="Note" transform="matrix(0.992,0,0,0.992,1006.82,302.8)" d="M21.3,-13.2 C11.6,-13.2 0,-5.1 0,4.2 C0,8.5 3.1,13.3 11.2,13.3 C21.6,13.3 32.5,4.8 32.5,-4 C32.5,-9.9 27.5,-13.2 21.3,-13.2 M7.5,8.6 C4.2,8.6 3.5,5.9 3.5,5 C3.5,0.1 20.3,-8.5 25,-8.5 C27.4,-8.5 29,-7.1 29,-4.9 C29,0.1 12.1,8.6 7.5,8.6"/>
<path class="Note" transform="matrix(0.992,0,0,0.992,956.48,746.4)" d="M0,4.2 C0,8.5 3.1,13.3 11.2,13.3 C21.6,13.3 32.5,4.8 32.5,-4 C32.5,-9.9 27.5,-13.2 21.3,-13.2 C11.6,-13.2 0,-5 0,4.2"/>
<path class="Note" transform="matrix(0.992,0,0,0.992,629.624,1103.2)" d="M0,4.2 C0,8.5 3.1,13.3 11.2,13.3 C21.6,13.3 32.5,4.8 32.5,-4 C32.5,-9.9 27.5,-13.2 21.3,-13.2 C11.6,-13.2 0,-5 0,4.2"/>
<path class="Note" transform="matrix(0.992,0,0,0.992,971.289,1115.6)" d="M0,4.2 C0,8.5 3.1,13.3 11.2,13.3 C21.6,13.3 32.5,4.8 32.5,-4 C32.5,-9.9 27.5,-13.2 21.3,-13.2 C11.6,-13.2 0,-5 0,4.2"/>
<path class="Note" transform="matrix(0.992,0,0,0.992,426.316,1128)" d="M0,4.2 C0,8.5 3.1,13.3 11.2,13.3 C21.6,13.3 32.5,4.8 32.5,-4 C32.5,-9.9 27.5,-13.2 21.3,-13.2 C11.6,-13.2 0,-5 0,4.2"/>
<path class="Note" transform="matrix(0.992,0,0,0.992,1219.79,327.6)" d="M0,4.2 C0,8.5 3.1,13.3 11.2,13.3 C21.6,13.3 32.5,4.8 32.5,-4 C32.5,-9.9 27.5,-13.2 21.3,-13.2 C11.6,-13.2 0,-5 0,4.2"/>
<path class="Note" transform="matrix(0.992,0,0,0.992,1059.05,746.4)" d="M0,4.2 C0,8.5 3.1,13.3 11.2,13.3 C21.6,13.3 32.5,4.8 32.5,-4 C32.5,-9.9 27.5,-13.2 21.3,-13.2 C11.6,-13.2 0,-5 0,4.2"/>
<path class="Note" transform="matrix(0.992,0,0,0.992,1423.38,1140.4)" d="M0,4.2 C0,8.5 3.1,13.3 11.2,13.3 C21.6,13.3 32.5,4.8 32.5,-4 C32.5,-9.9 27.5,-13.2 21.3,-13.2 C11.6,-13.2 0,-5 0,4.2"/>
<path class="Note" transform="matrix(0.992,0,0,0.992,1341.68,340)" d="M21.3,-13.2 C11.6,-13.2 0,-5.1 0,4.2 C0,8.5 3.1,13.3 11.2,13.3 C21.6,13.3 32.5,4.8 32.5,-4 C32.5,-9.9 27.5,-13.2 21.3,-13.2 M7.5,8.6 C4.2,8.6 3.5,5.9 3.5,5 C3.5,0.1 20.3,-8.5 25,-8.5 C27.4,-8.5 29,-7.1 29,-4.9 C29,0.1 12.1,8.6 7.5,8.6"/>
<path class="Note" transform="matrix(0.992,0,0,0.992,1129.87,734)" d="M0,4.2 C0,8.5 3.1,13.3 11.2,13.3 C21.6,13.3 32.5,4.8 32.5,-4 C32.5,-9.9 27.5,-13.2 21.3,-13.2 C11.6,-13.2 0,-5 0,4.2"/>
<path class="Note" transform="matrix(0.992,0,0,0.992,869.635,1128)" d="M0,4.2 C0,8.5 3.1,13.3 11.2,13.3 C21.6,13.3 32.5,4.8 32.5,-4 C32.5,-9.9 27.5,-13.2 21.3,-13.2 C11.6,-13.2 0,-5 0,4.2"/>
<path class="Note" transform="matrix(0.992,0,0,0.992,1906.72,377.2)" d="M0,4.2 C0,8.5 3.1,13.3 11.2,13.3 C21.6,13.3 32.5,4.8 32.5,-4 C32.5,-9.9 27.5,-13.2 21.3,-13.2 C11.6,-13.2 0,-5 0,4.2"/>
<path class="Note" transform="matrix(0.992,0,0,0.992,1755.17,746.4)" d="M21.3,-13.2 C11.6,-13.2 0,-5.1 0,4.2 C0,8.5 3.1,13.3 11.2,13.3 C21.6,13.3 32.5,4.8 32.5,-4 C32.5,-9.9 27.5,-13.2 21.3,-13.2 M7.5,8.6 C4.2,8.6 3.5,5.9 3.5,5 C3.5,0.1 20.3,-8.5 25,-8.5 C27.4,-8.5 29,-7.1 29,-4.9 C29,0.1 12.1,8.6 7.5,8.6"/>
<path class="Note" transform="matrix(0.992,0,0,0.992,527.97,1115.6)" d="M0,4.2 C0,8.5 3.1,13.3 11.2,13.3 C21.6,13.3 32.5,4.8 32.5,-4 C32.5,-9.9 27.5,-13.2 21.3,-13.2 C11.6,-13.2 0,-5 0,4.2"/>
<path class="Note" transform="matrix(0.992,0,0,0.992,1232.44,746.4)" d="M0,4.2 C0,8.5 3.1,13.3 11.2,13.3 C21.6,13.3 32.5,4.8 32.5,-4 C32.5,-9.9 27.5,-13.2 21.3,-13.2 C11.6,-13.2 0,-5 0,4.2"/>
<path class="Note" transform="matrix(0.992,0,0,0.992,767.982,1128)" d="M0,4.2 C0,8.5 3.1,13.3 11.2,13.3 C21.6,13.3 32.5,4.8 32.5,-4 C32.5,-9.9 27.5,-13.2 21.3,-13.2 C11.6,-13.2 0,-5 0,4.2"/>
<path class="Note" transform="matrix(0.992,0,0,0.992,1649.04,746.4)" d="M0,4.2 C0,8.5 3.1,13.3 11.2,13.3 C21.6,13.3 32.5,4.8 32.5,-4 C32.5,-9.9 27.5,-13.2 21.3,-13.2 C11.6,-13.2 0,-5 0,4.2"/>
<path class="Note" transform="matrix(0.992,0,0,0.992,1552.25,1152.8)" d="M0,4.2 C0,8.5 3.1,13.3 11.2,13.3 C21.6,13.3 32.5,4.8 32.5,-4 C32.5,-9.9 27.5,-13.2 21.3,-13.2 C11.6,-13.2 0,-5 0,4.2"/>
<path class="Note" transform="matrix(0.992,0,0,0.992,1798.73,364.8)" d="M0,4.2 C0,8.5 3.1,13.3 11.2,13.3 C21.6,13.3 32.5,4.8 32.5,-4 C32.5,-9.9 27.5,-13.2 21.3,-13.2 C11.6,-13.2 0,-5 0,4.2"/>
<path class="Note" transform="matrix(0.992,0,0,0.992,1352.36,758.8)" d="M0,4.2 C0,8.5 3.1,13.3 11.2,13.3 C21.6,13.3 32.5,4.8 32.5,-4 C32.5,-9.9 27.5,-13.2 21.3,-13.2 C11.6,-13.2 0,-5 0,4.2"/>
<path class="Note" transform="matrix(0.992,0,0,0.992,1741.94,352.4)" d="M0,4.2 C0,8.5 3.1,13.3 11.2,13.3 C21.6,13.3 32.5,4.8 32.5,-4 C32.5,-9.9 27.5,-13.2 21.3,-13.2 C11.6,-13.2 0,-5 0,4.2"/>
<path class="Note" transform="matrix(0.992,0,0,0.992,1469.46,364.8)" d="M21.3,-13.2 C11.6,-13.2 0,-5.1 0,4.2 C0,8.5 3.1,13.3 11.2,13.3 C21.6,13.3 32.5,4.8 32.5,-4 C32.5,-9.9 27.5,-13.2 21.3,-13.2 M7.5,8.6 C4.2,8.6 3.5,5.9 3.5,5 C3.5,0.1 20.3,-8.5 25,-8.5 C27.4,-8.5 29,-7.1 29,-4.9 C29,0.1 12.1,8.6 7.5,8.6"/>
<path class="Note" transform="matrix(0.992,0,0,0.992,1672.17,1152.8)" d="M21.3,-13.2 C11.6,-13.2 0,-5.1 0,4.2 C0,8.5 3.1,13.3 11.2,13.3 C21.6,13.3 32.5,4.8 32.5,-4 C32.5,-9.9 27.5,-13.2 21.3,-13.2 M7.5,8.6 C4.2,8.6 3.5,5.9 3.5,5 C3.5,0.1 20.3,-8.5 25,-8.5 C27.4,-8.5 29,-7.1 29,-4.9 C29,0.1 12.1,8.6 7.5,8.6"/>
<path class="Note" transform="matrix(0.992,0,0,0.992,409.85,352.4)" d="M0,4.2 C0,8.5 3.1,13.3 11.2,13.3 C21.6,13.3 32.5,4.8 32.5,-4 C32.5,-9.9 27.5,-13.2 21.3,-13.2 C11.6,-13.2 0,-5 0,4.2"/>
<path class="Note" transform="matrix(0.992,0,0,0.992,1633.95,364.8)" d="M0,4.2 C0,8.5 3.1,13.3 11.2,13.3 C21.6,13.3 32.5,4.8 32.5,-4 C32.5,-9.9 27.5,-13.2 21.3,-13.2 C11.6,-13.2 0,-5 0,4.2"/>
<path class="Note" transform="matrix(0.992,0,0,0.992,1514.18,758.8)" d="M0,4.2 C0,8.5 3.1,13.3 11.2,13.3 C21.6,13.3 32.5,4.8 32.5,-4 C32.5,-9.9 27.5,-13.2 21.3,-13.2 C11.6,-13.2 0,-5 0,4.2"/>
<path class="Clef" transform="matrix(0.992,0,0,0.992,123,352.4)" d="M12.3,51.3 C12.3,57.9 17.3,66.6 30.8,66.6 C35.5,66.6 39.6,65.4 43.2,63.2 C48.6,59.4 50,52.8 50,46.5 C50,42.6 49.4,38.1 48.4,32.4 C48.1,30.4 47.5,27.4 46.9,23.5 C56.7,20.3 64,10.1 64,-0.2 C64,-15.3 53.3,-25.5 38.7,-25.5 C37.7,-31.5 36.7,-37.4 35.9,-43 C46.4,-54.1 53.7,-66.6 53.7,-82.5 C53.7,-91.6 50.9,-99 49.3,-102.6 C46.9,-107.7 44,-111.2 42.2,-111.2 C41.5,-111.2 38.4,-110 35.1,-106.1 C28.7,-98.5 26.9,-85.7 26.9,-77.3 C26.9,-71.9 27.4,-67 29.1,-55.8 C29,-55.7 23.8,-50.4 21.7,-48.7 C12.6,-40.3 0,-28.1 0,-8.1 C0,10.6 16.3,25.3 34.9,25.3 C37.8,25.3 40.5,25 42.8,24.6 C44.7,34.2 45.9,41.2 45.9,46.5 C45.9,56.9 40.5,62.4 30.4,62.4 C28,62.4 25.9,61.9 25.7,61.9 C25.6,61.8 25.4,61.7 25.4,61.6 C25.4,61.4 25.6,61.3 25.9,61.3 C30.6,60.5 35.3,56.5 35.3,50.1 C35.3,44.7 31.2,39 23.7,39 C16.7,39 12.3,44.7 12.3,51.3 M33.2,-82.2 C34.1,-86.2 38.7,-96.7 43.9,-96.7 C45.4,-96.7 47.8,-91.9 47.8,-84.9 C47.8,-74.5 40.1,-66.7 33.2,-59.9 C32.6,-63.9 32.1,-67.8 32.1,-72 C32.1,-75.7 32.4,-79.1 33.2,-82.2 M42,20.6 C40,21 38.1,21.2 36.2,21.2 C21.9,21.2 9.7,11.2 9.7,-3.9 C9.7,-16.1 18.3,-27 27.1,-34.6 C28.8,-36.1 30.4,-37.5 31.9,-39 C32.8,-33.6 33.5,-28.9 34.2,-24.8 C25.1,-22.1 18.9,-12.5 18.9,-3.1 C18.9,3.9 24.4,13.5 32.4,13.5 C33.2,13.5 34.1,13.1 34.1,12.2 C34.1,11.3 33.1,10.8 31.9,10 C28,7.6 25.8,5 25.8,0.1 C25.8,-6 30.4,-10.9 36.2,-12.3 L42,20.6 M56.2,2.1 C56.2,9.2 53.3,16.5 46.2,19.4 C44.1,7.4 41.4,-8.5 40.7,-12.9 C49.7,-12.9 56.2,-6.8 56.2,2.1"/>
<path class="Clef" transform="matrix(0.992,0,0,0.992,123,734)" d="M12.3,51.3 C12.3,57.9 17.3,66.6 30.8,66.6 C35.5,66.6 39.6,65.4 43.2,63.2 C48.6,59.4 50,52.8 50,46.5 C50,42.6 49.4,38.1 48.4,32.4 C48.1,30.4 47.5,27.4 46.9,23.5 C56.7,20.3 64,10.1 64,-0.2 C64,-15.3 53.3,-25.5 38.7,-25.5 C37.7,-31.5 36.7,-37.4 35.9,-43 C46.4,-54.1 53.7,-66.6 53.7,-82.5 C53.7,-91.6 50.9,-99 49.3,-102.6 C46.9,-107.7 44,-111.2 42.2,-111.2 C41.5,-111.2 38.4,-110 35.1,-106.1 C28.7,-98.5 26.9,-85.7 26.9,-77.3 C26.9,-71.9 27.4,-67 29.1,-55.8 C29,-55.7 23.8,-50.4 21.7,-48.7 C12.6,-40.3 0,-28.1 0,-8.1 C0,10.6 16.3,25.3 34.9,25.3 C37.8,25.3 40.5,25 42.8,24.6 C44.7,34.2 45.9,41.2 45.9,46.5 C45.9,56.9 40.5,62.4 30.4,62.4 C28,62.4 25.9,61.9 25.7,61.9 C25.6,61.8 25.4,61.7 25.4,61.6 C25.4,61.4 25.6,61.3 25.9,61.3 C30.6,60.5 35.3,56.5 35.3,50.1 C35.3,44.7 31.2,39 23.7,39 C16.7,39 12.3,44.7 12.3,51.3 M33.2,-82.2 C34.1,-86.2 38.7,-96.7 43.9,-96.7 C45.4,-96.7 47.8,-91.9 47.8,-84.9 C47.8,-74.5 40.1,-66.7 33.2,-59.9 C32.6,-63.9 32.1,-67.8 32.1,-72 C32.1,-75.7 32.4,-79.1 33.2,-82.2 M42,20.6 C40,21 38.1,21.2 36.2,21.2 C21.9,21.2 9.7,11.2 9.7,-3.9 C9.7,-16.1 18.3,-27 27.1,-34.6 C28.8,-36.1 30.4,-37.5 31.9,-39 C32.8,-33.6 33.5,-28.9 34.2,-24.8 C25.1,-22.1 18.9,-12.5 18.9,-3.1 C18.9,3.9 24.4,13.5 32.4,13.5 C33.2,13.5 34.1,13.1 34.1,12.2 C34.1,11.3 33.1,10.8 31.9,10 C28,7.6 25.8,5 25.8,0.1 C25.8,-6 30.4,-10.9 36.2,-12.3 L42,20.6 M56.2,2.1 C56.2,9.2 53.3,16.5 46.2,19.4 C44.1,7.4 41.4,-8.5 40.7,-12.9 C49.7,-12.9 56.2,-6.8 56.2,2.1"/>
<path class="Clef" transform="matrix(0.992,0,0,0.992,123,1115.6)" d="M12.3,51.3 C12.3,57.9 17.3,66.6 30.8,66.6 C35.5,66.6 39.6,65.4 43.2,63.2 C48.6,59.4 50,52.8 50,46.5 C50,42.6 49.4,38.1 48.4,32.4 C48.1,30.4 47.5,27.4 46.9,23.5 C56.7,20.3 64,10.1 64,-0.2 C64,-15.3 53.3,-25.5 38.7,-25.5 C37.7,-31.5 36.7,-37.4 35.9,-43 C46.4,-54.1 53.7,-66.6 53.7,-82.5 C53.7,-91.6 50.9,-99 49.3,-102.6 C46.9,-107.7 44,-111.2 42.2,-111.2 C41.5,-111.2 38.4,-110 35.1,-106.1 C28.7,-98.5 26.9,-85.7 26.9,-77.3 C26.9,-71.9 27.4,-67 29.1,-55.8 C29,-55.7 23.8,-50.4 21.7,-48.7 C12.6,-40.3 0,-28.1 0,-8.1 C0,10.6 16.3,25.3 34.9,25.3 C37.8,25.3 40.5,25 42.8,24.6 C44.7,34.2 45.9,41.2 45.9,46.5 C45.9,56.9 40.5,62.4 30.4,62.4 C28,62.4 25.9,61.9 25.7,61.9 C25.6,61.8 25.4,61.7 25.4,61.6 C25.4,61.4 25.6,61.3 25.9,61.3 C30.6,60.5 35.3,56.5 35.3,50.1 C35.3,44.7 31.2,39 23.7,39 C16.7,39 12.3,44.7 12.3,51.3 M33.2,-82.2 C34.1,-86.2 38.7,-96.7 43.9,-96.7 C45.4,-96.7 47.8,-91.9 47.8,-84.9 C47.8,-74.5 40.1,-66.7 33.2,-59.9 C32.6,-63.9 32.1,-67.8 32.1,-72 C32.1,-75.7 32.4,-79.1 33.2,-82.2 M42,20.6 C40,21 38.1,21.2 36.2,21.2 C21.9,21.2 9.7,11.2 9.7,-3.9 C9.7,-16.1 18.3,-27 27.1,-34.6 C28.8,-36.1 30.4,-37.5 31.9,-39 C32.8,-33.6 33.5,-28.9 34.2,-24.8 C25.1,-22.1 18.9,-12.5 18.9,-3.1 C18.9,3.9 24.4,13.5 32.4,13.5 C33.2,13.5 34.1,13.1 34.1,12.2 C34.1,11.3 33.1,10.8 31.9,10 C28,7.6 25.8,5 25.8,0.1 C25.8,-6 30.4,-10.9 36.2,-12.3 L42,20.6 M56.2,2.1 C56.2,9.2 53.3,16.5 46.2,19.4 C44.1,7.4 41.4,-8.5 40.7,-12.9 C49.7,-12.9 56.2,-6.8 56.2,2.1"/>
<path class="KeySig" transform="matrix(0.992,0,0,0.992,211.28,1041.2)" d="M23.3,-10.5 C23.9,-10.6 24.4,-11.3 24.4,-11.9 L24.4,-17.8 C24.4,-18.8 23.7,-19.2 22.8,-19.2 L19.5,-18.5 L19.5,-33.4 L16.7,-33.4 L16.7,-17.9 L7.8,-16.1 L7.8,-30.2 L5,-30.2 L5,-15.5 L1.1,-14.7 C0.5,-14.6 0,-13.9 0,-13.3 L0,-7.5 C0,-6.4 0.8,-6.1 1.7,-6.1 L5,-6.8 L5,9.7 L1.1,10.5 C0.5,10.6 0,11.3 0,11.9 L0,17.7 C0,18.8 0.8,19.1 1.7,19.1 L5,18.4 L5,33.3 L7.8,33.3 L7.8,17.8 L16.7,16 L16.7,30.1 L19.5,30.1 L19.5,15.4 L23.3,14.7 C23.9,14.6 24.4,13.9 24.4,13.3 L24.4,7.4 C24.4,6.4 23.7,6 22.8,6 L19.5,6.7 L19.5,-9.8 L23.3,-10.5 M7.8,-7.4 L16.7,-9.2 L16.7,7.3 L7.8,9.2 L7.8,-7.4 "/>
<path class="KeySig" transform="matrix(0.992,0,0,0.992,238.452,1078.4)" d="M23.3,-10.5 C23.9,-10.6 24.4,-11.3 24.4,-11.9 L24.4,-17.8 C24.4,-18.8 23.7,-19.2 22.8,-19.2 L19.5,-18.5 L19.5,-33.4 L16.7,-33.4 L16.7,-17.9 L7.8,-16.1 L7.8,-30.2 L5,-30.2 L5,-15.5 L1.1,-14.7 C0.5,-14.6 0,-13.9 0,-13.3 L0,-7.5 C0,-6.4 0.8,-6.1 1.7,-6.1 L5,-6.8 L5,9.7 L1.1,10.5 C0.5,10.6 0,11.3 0,11.9 L0,17.7 C0,18.8 0.8,19.1 1.7,19.1 L5,18.4 L5,33.3 L7.8,33.3 L7.8,17.8 L16.7,16 L16.7,30.1 L19.5,30.1 L19.5,15.4 L23.3,14.7 C23.9,14.6 24.4,13.9 24.4,13.3 L24.4,7.4 C24.4,6.4 23.7,6 22.8,6 L19.5,6.7 L19.5,-9.8 L23.3,-10.5 M7.8,-7.4 L16.7,-9.2 L16.7,7.3 L7.8,9.2 L7.8,-7.4 "/>
<path class="KeySig" transform="matrix(0.992,0,0,0.992,211.28,278)" d="M23.3,-10.5 C23.9,-10.6 24.4,-11.3 24.4,-11.9 L24.4,-17.8 C24.4,-18.8 23.7,-19.2 22.8,-19.2 L19.5,-18.5 L19.5,-33.4 L16.7,-33.4 L16.7,-17.9 L7.8,-16.1 L7.8,-30.2 L5,-30.2 L5,-15.5 L1.1,-14.7 C0.5,-14.6 0,-13.9 0,-13.3 L0,-7.5 C0,-6.4 0.8,-6.1 1.7,-6.1 L5,-6.8 L5,9.7 L1.1,10.5 C0.5,10.6 0,11.3 0,11.9 L0,17.7 C0,18.8 0.8,19.1 1.7,19.1 L5,18.4 L5,33.3 L7.8,33.3 L7.8,17.8 L16.7,16 L16.7,30.1 L19.5,30.1 L19.5,15.4 L23.3,14.7 C23.9,14.6 24.4,13.9 24.4,13.3 L24.4,7.4 C24.4,6.4 23.7,6 22.8,6 L19.5,6.7 L19.5,-9.8 L23.3,-10.5 M7.8,-7.4 L16.7,-9.2 L16.7,7.3 L7.8,9.2 L7.8,-7.4 "/>
<path class="KeySig" transform="matrix(0.992,0,0,0.992,238.452,315.2)" d="M23.3,-10.5 C23.9,-10.6 24.4,-11.3 24.4,-11.9 L24.4,-17.8 C24.4,-18.8 23.7,-19.2 22.8,-19.2 L19.5,-18.5 L19.5,-33.4 L16.7,-33.4 L16.7,-17.9 L7.8,-16.1 L7.8,-30.2 L5,-30.2 L5,-15.5 L1.1,-14.7 C0.5,-14.6 0,-13.9 0,-13.3 L0,-7.5 C0,-6.4 0.8,-6.1 1.7,-6.1 L5,-6.8 L5,9.7 L1.1,10.5 C0.5,10.6 0,11.3 0,11.9 L0,17.7 C0,18.8 0.8,19.1 1.7,19.1 L5,18.4 L5,33.3 L7.8,33.3 L7.8,17.8 L16.7,16 L16.7,30.1 L19.5,30.1 L19.5,15.4 L23.3,14.7 C23.9,14.6 24.4,13.9 24.4,13.3 L24.4,7.4 C24.4,6.4 23.7,6 22.8,6 L19.5,6.7 L19.5,-9.8 L23.3,-10.5 M7.8,-7.4 L16.7,-9.2 L16.7,7.3 L7.8,9.2 L7.8,-7.4 "/>
<path class="KeySig" transform="matrix(0.992,0,0,0.992,211.28,659.6)" d="M23.3,-10.5 C23.9,-10.6 24.4,-11.3 24.4,-11.9 L24.4,-17.8 C24.4,-18.8 23.7,-19.2 22.8,-19.2 L19.5,-18.5 L19.5,-33.4 L16.7,-33.4 L16.7,-17.9 L7.8,-16.1 L7.8,-30.2 L5,-30.2 L5,-15.5 L1.1,-14.7 C0.5,-14.6 0,-13.9 0,-13.3 L0,-7.5 C0,-6.4 0.8,-6.1 1.7,-6.1 L5,-6.8 L5,9.7 L1.1,10.5 C0.5,10.6 0,11.3 0,11.9 L0,17.7 C0,18.8 0.8,19.1 1.7,19.1 L5,18.4 L5,33.3 L7.8,33.3 L7.8,17.8 L16.7,16 L16.7,30.1 L19.5,30.1 L19.5,15.4 L23.3,14.7 C23.9,14.6 24.4,13.9 24.4,13.3 L24.4,7.4 C24.4,6.4 23.7,6 22.8,6 L19.5,6.7 L19.5,-9.8 L23.3,-10.5 M7.8,-7.4 L16.7,-9.2 L16.7,7.3 L7.8,9.2 L7.8,-7.4 "/>
<path class="KeySig" transform="matrix(0.992,0,0,0.992,238.452,696.8)" d="M23.3,-10.5 C23.9,-10.6 24.4,-11.3 24.4,-11.9 L24.4,-17.8 C24.4,-18.8 23.7,-19.2 22.8,-19.2 L19.5,-18.5 L19.5,-33.4 L16.7,-33.4 L16.7,-17.9 L7.8,-16.1 L7.8,-30.2 L5,-30.2 L5,-15.5 L1.1,-14.7 C0.5,-14.6 0,-13.9 0,-13.3 L0,-7.5 C0,-6.4 0.8,-6.1 1.7,-6.1 L5,-6.8 L5,9.7 L1.1,10.5 C0.5,10.6 0,11.3 0,11.9 L0,17.7 C0,18.8 0.8,19.1 1.7,19.1 L5,18.4 L5,33.3 L7.8,33.3 L7.8,17.8 L16.7,16 L16.7,30.1 L19.5,30.1 L19.5,15.4 L23.3,14.7 C23.9,14.6 24.4,13.9 24.4,13.3 L24.4,7.4 C24.4,6.4 23.7,6 22.8,6 L19.5,6.7 L19.5,-9.8 L23.3,-10.5 M7.8,-7.4 L16.7,-9.2 L16.7,7.3 L7.8,9.2 L7.8,-7.4 "/>
<path class="Rest" transform="matrix(0.992,0,0,0.992,1865.47,1090.8)" d="M23,16.6 C22.9,16.5 22.7,16.3 22.4,15.9 L10.9,1.7 C10.8,1.6 10.7,1.3 10.7,1.1 C10.7,0.8 10.8,0.4 10.9,0.2 L21.1,-15.2 C21.2,-15.4 21.3,-15.7 21.3,-15.9 L21.3,-16.8 C21.3,-17.1 21.2,-17.4 21,-17.6 L4.8,-39.5 C4.8,-39.5 4.4,-40.1 3.8,-40.1 C3.5,-40.1 3.3,-40.1 3,-39.8 C2.6,-39.5 2.5,-39.1 2.5,-38.8 C2.5,-38.2 2.8,-37.7 2.8,-37.7 L10.4,-27.3 C10.6,-27 10.7,-26.6 10.7,-26.1 C10.7,-25.7 10.6,-25.2 10.4,-24.9 L0.3,-9.5 C0.2,-9.3 0.1,-8.9 0.1,-8.7 L0.1,-7.8 C0.1,-7.5 0.2,-7.2 0.4,-7 L11.6,6.9 C11.2,6.8 10.3,6.6 9.1,6.6 C4,6.6 0,10.8 0,15.9 C0,17.3 0.3,18.7 1.1,19.8 C3.2,23 10.7,32.5 10.7,32.5 C10.7,32.5 11.2,33.1 11.9,33.1 C12.1,33.1 12.3,33.1 12.5,32.9 C13,32.5 13.2,32.1 13.2,31.7 C13.2,31.3 13,31 12.9,30.8 C12.6,30.3 9.4,24.5 9.4,24.5 C9.4,24.5 8.7,23.1 8.7,21.3 C8.7,18.1 11.1,15.5 14.3,15.5 C15.6,15.5 16.7,15.9 17.5,16.4 L21.4,18.9 C21.4,18.9 21.8,19.1 22.2,19.1 C22.6,19.1 22.9,19 23.2,18.6 C23.4,18.3 23.5,18 23.5,17.7 C23.5,17.4 23.4,17.2 23.2,16.9 L23,16.6 "/>
<path class="Rest" transform="matrix(0.992,0,0,0.992,1909.02,709.2)" d="M23,16.6 C22.9,16.5 22.7,16.3 22.4,15.9 L10.9,1.7 C10.8,1.6 10.7,1.3 10.7,1.1 C10.7,0.8 10.8,0.4 10.9,0.2 L21.1,-15.2 C21.2,-15.4 21.3,-15.7 21.3,-15.9 L21.3,-16.8 C21.3,-17.1 21.2,-17.4 21,-17.6 L4.8,-39.5 C4.8,-39.5 4.4,-40.1 3.8,-40.1 C3.5,-40.1 3.3,-40.1 3,-39.8 C2.6,-39.5 2.5,-39.1 2.5,-38.8 C2.5,-38.2 2.8,-37.7 2.8,-37.7 L10.4,-27.3 C10.6,-27 10.7,-26.6 10.7,-26.1 C10.7,-25.7 10.6,-25.2 10.4,-24.9 L0.3,-9.5 C0.2,-9.3 0.1,-8.9 0.1,-8.7 L0.1,-7.8 C0.1,-7.5 0.2,-7.2 0.4,-7 L11.6,6.9 C11.2,6.8 10.3,6.6 9.1,6.6 C4,6.6 0,10.8 0,15.9 C0,17.3 0.3,18.7 1.1,19.8 C3.2,23 10.7,32.5 10.7,32.5 C10.7,32.5 11.2,33.1 11.9,33.1 C12.1,33.1 12.3,33.1 12.5,32.9 C13,32.5 13.2,32.1 13.2,31.7 C13.2,31.3 13,31 12.9,30.8 C12.6,30.3 9.4,24.5 9.4,24.5 C9.4,24.5 8.7,23.1 8.7,21.3 C8.7,18.1 11.1,15.5 14.3,15.5 C15.6,15.5 16.7,15.9 17.5,16.4 L21.4,18.9 C21.4,18.9 21.8,19.1 22.2,19.1 C22.6,19.1 22.9,19 23.2,18.6 C23.4,18.3 23.5,18 23.5,17.7 C23.5,17.4 23.4,17.2 23.2,16.9 L23,16.6 "/>
<path class="Rest" transform="matrix(0.992,0,0,0.992,884.933,327.6)" d="M23,16.6 C22.9,16.5 22.7,16.3 22.4,15.9 L10.9,1.7 C10.8,1.6 10.7,1.3 10.7,1.1 C10.7,0.8 10.8,0.4 10.9,0.2 L21.1,-15.2 C21.2,-15.4 21.3,-15.7 21.3,-15.9 L21.3,-16.8 C21.3,-17.1 21.2,-17.4 21,-17.6 L4.8,-39.5 C4.8,-39.5 4.4,-40.1 3.8,-40.1 C3.5,-40.1 3.3,-40.1 3,-39.8 C2.6,-39.5 2.5,-39.1 2.5,-38.8 C2.5,-38.2 2.8,-37.7 2.8,-37.7 L10.4,-27.3 C10.6,-27 10.7,-26.6 10.7,-26.1 C10.7,-25.7 10.6,-25.2 10.4,-24.9 L0.3,-9.5 C0.2,-9.3 0.1,-8.9 0.1,-8.7 L0.1,-7.8 C0.1,-7.5 0.2,-7.2 0.4,-7 L11.6,6.9 C11.2,6.8 10.3,6.6 9.1,6.6 C4,6.6 0,10.8 0,15.9 C0,17.3 0.3,18.7 1.1,19.8 C3.2,23 10.7,32.5 10.7,32.5 C10.7,32.5 11.2,33.1 11.9,33.1 C12.1,33.1 12.3,33.1 12.5,32.9 C13,32.5 13.2,32.1 13.2,31.7 C13.2,31.3 13,31 12.9,30.8 C12.6,30.3 9.4,24.5 9.4,24.5 C9.4,24.5 8.7,23.1 8.7,21.3 C8.7,18.1 11.1,15.5 14.3,15.5 C15.6,15.5 16.7,15.9 17.5,16.4 L21.4,18.9 C21.4,18.9 21.8,19.1 22.2,19.1 C22.6,19.1 22.9,19 23.2,18.6 C23.4,18.3 23.5,18 23.5,17.7 C23.5,17.4 23.4,17.2 23.2,16.9 L23,16.6 "/>
<path class="Rest" transform="matrix(0.992,0,0,0.992,324.663,1090.8)" d="M23,16.6 C22.9,16.5 22.7,16.3 22.4,15.9 L10.9,1.7 C10.8,1.6 10.7,1.3 10.7,1.1 C10.7,0.8 10.8,0.4 10.9,0.2 L21.1,-15.2 C21.2,-15.4 21.3,-15.7 21.3,-15.9 L21.3,-16.8 C21.3,-17.1 21.2,-17.4 21,-17.6 L4.8,-39.5 C4.8,-39.5 4.4,-40.1 3.8,-40.1 C3.5,-40.1 3.3,-40.1 3,-39.8 C2.6,-39.5 2.5,-39.1 2.5,-38.8 C2.5,-38.2 2.8,-37.7 2.8,-37.7 L10.4,-27.3 C10.6,-27 10.7,-26.6 10.7,-26.1 C10.7,-25.7 10.6,-25.2 10.4,-24.9 L0.3,-9.5 C0.2,-9.3 0.1,-8.9 0.1,-8.7 L0.1,-7.8 C0.1,-7.5 0.2,-7.2 0.4,-7 L11.6,6.9 C11.2,6.8 10.3,6.6 9.1,6.6 C4,6.6 0,10.8 0,15.9 C0,17.3 0.3,18.7 1.1,19.8 C3.2,23 10.7,32.5 10.7,32.5 C10.7,32.5 11.2,33.1 11.9,33.1 C12.1,33.1 12.3,33.1 12.5,32.9 C13,32.5 13.2,32.1 13.2,31.7 C13.2,31.3 13,31 12.9,30.8 C12.6,30.3 9.4,24.5 9.4,24.5 C9.4,24.5 8.7,23.1 8.7,21.3 C8.7,18.1 11.1,15.5 14.3,15.5 C15.6,15.5 16.7,15.9 17.5,16.4 L21.4,18.9 C21.4,18.9 21.8,19.1 22.2,19.1 C22.6,19.1 22.9,19 23.2,18.6 C23.4,18.3 23.5,18 23.5,17.7 C23.5,17.4 23.4,17.2 23.2,16.9 L23,16.6 "/>
<path class="Rest" transform="matrix(0.992,0,0,0.992,596.131,709.2)" d="M23,16.6 C22.9,16.5 22.7,16.3 22.4,15.9 L10.9,1.7 C10.8,1.6 10.7,1.3 10.7,1.1 C10.7,0.8 10.8,0.4 10.9,0.2 L21.1,-15.2 C21.2,-15.4 21.3,-15.7 21.3,-15.9 L21.3,-16.8 C21.3,-17.1 21.2,-17.4 21,-17.6 L4.8,-39.5 C4.8,-39.5 4.4,-40.1 3.8,-40.1 C3.5,-40.1 3.3,-40.1 3,-39.8 C2.6,-39.5 2.5,-39.1 2.5,-38.8 C2.5,-38.2 2.8,-37.7 2.8,-37.7 L10.4,-27.3 C10.6,-27 10.7,-26.6 10.7,-26.1 C10.7,-25.7 10.6,-25.2 10.4,-24.9 L0.3,-9.5 C0.2,-9.3 0.1,-8.9 0.1,-8.7 L0.1,-7.8 C0.1,-7.5 0.2,-7.2 0.4,-7 L11.6,6.9 C11.2,6.8 10.3,6.6 9.1,6.6 C4,6.6 0,10.8 0,15.9 C0,17.3 0.3,18.7 1.1,19.8 C3.2,23 10.7,32.5 10.7,32.5 C10.7,32.5 11.2,33.1 11.9,33.1 C12.1,33.1 12.3,33.1 12.5,32.9 C13,32.5 13.2,32.1 13.2,31.7 C13.2,31.3 13,31 12.9,30.8 C12.6,30.3 9.4,24.5 9.4,24.5 C9.4,24.5 8.7,23.1 8.7,21.3 C8.7,18.1 11.1,15.5 14.3,15.5 C15.6,15.5 16.7,15.9 17.5,16.4 L21.4,18.9 C21.4,18.9 21.8,19.1 22.2,19.1 C22.6,19.1 22.9,19 23.2,18.6 C23.4,18.3 23.5,18 23.5,17.7 C23.5,17.4 23.4,17.2 23.2,16.9 L23,16.6 "/>
<path class="Rest" transform="matrix(0.992,0,0,0.992,478.516,709.2)" d="M23,16.6 C22.9,16.5 22.7,16.3 22.4,15.9 L10.9,1.7 C10.8,1.6 10.7,1.3 10.7,1.1 C10.7,0.8 10.8,0.4 10.9,0.2 L21.1,-15.2 C21.2,-15.4 21.3,-15.7 21.3,-15.9 L21.3,-16.8 C21.3,-17.1 21.2,-17.4 21,-17.6 L4.8,-39.5 C4.8,-39.5 4.4,-40.1 3.8,-40.1 C3.5,-40.1 3.3,-40.1 3,-39.8 C2.6,-39.5 2.5,-39.1 2.5,-38.8 C2.5,-38.2 2.8,-37.7 2.8,-37.7 L10.4,-27.3 C10.6,-27 10.7,-26.6 10.7,-26.1 C10.7,-25.7 10.6,-25.2 10.4,-24.9 L0.3,-9.5 C0.2,-9.3 0.1,-8.9 0.1,-8.7 L0.1,-7.8 C0.1,-7.5 0.2,-7.2 0.4,-7 L11.6,6.9 C11.2,6.8 10.3,6.6 9.1,6.6 C4,6.6 0,10.8 0,15.9 C0,17.3 0.3,18.7 1.1,19.8 C3.2,23 10.7,32.5 10.7,32.5 C10.7,32.5 11.2,33.1 11.9,33.1 C12.1,33.1 12.3,33.1 12.5,32.9 C13,32.5 13.2,32.1 13.2,31.7 C13.2,31.3 13,31 12.9,30.8 C12.6,30.3 9.4,24.5 9.4,24.5 C9.4,24.5 8.7,23.1 8.7,21.3 C8.7,18.1 11.1,15.5 14.3,15.5 C15.6,15.5 16.7,15.9 17.5,16.4 L21.4,18.9 C21.4,18.9 21.8,19.1 22.2,19.1 C22.6,19.1 22.9,19 23.2,18.6 C23.4,18.3 23.5,18 23.5,17.7 C23.5,17.4 23.4,17.2 23.2,16.9 L23,16.6 "/>
<path class="Beam" fill-rule="evenodd" d="M1624.85,678.163 L1681.27,671.963 L1681.27,684.437 L1624.85,690.637 L1624.85,678.163 "/>
<path class="Hook" transform="matrix(0.992,0,0,0.992,1771.69,265.6)" d="M0,22.7 C0,23 0.1,23.6 0.8,23.8 C5.1,25.2 13.7,30.6 20.2,41.7 C22,44.8 24.9,49.1 24.9,57.4 C24.9,64.6 23.1,72 20.4,79.2 C20.2,79.8 20.1,80.3 20.1,80.7 C20.1,81.4 20.5,81.7 21.2,81.7 C21.8,81.7 22.3,81.3 22.7,80.6 C27.2,72.6 28.9,63.3 28.9,54.2 C28.4,41.3 21,31.8 21,31.8 C21.3,31.8 11.8,19.5 9.1,15.3 C5.4,9.6 3.7,3.9 3.5,3.5 C3.4,3.2 2.5,-0.4 2.5,-0.4 C2.4,-0.8 1.9,-1.2 1.3,-1.2 C0.6,-1.2 0,-0.6 0,0.1 L0,22.7 "/>
<path class="Hook" transform="matrix(0.992,0,0,0.992,632.778,290.4)" d="M0,22.7 C0,23 0.1,23.6 0.8,23.8 C5.1,25.2 13.7,30.6 20.2,41.7 C22,44.8 24.9,49.1 24.9,57.4 C24.9,64.6 23.1,72 20.4,79.2 C20.2,79.8 20.1,80.3 20.1,80.7 C20.1,81.4 20.5,81.7 21.2,81.7 C21.8,81.7 22.3,81.3 22.7,80.6 C27.2,72.6 28.9,63.3 28.9,54.2 C28.4,41.3 21,31.8 21,31.8 C21.3,31.8 11.8,19.5 9.1,15.3 C5.4,9.6 3.7,3.9 3.5,3.5 C3.4,3.2 2.5,-0.4 2.5,-0.4 C2.4,-0.8 1.9,-1.2 1.3,-1.2 C0.6,-1.2 0,-0.6 0,0.1 L0,22.7 "/>
<path class="Hook" transform="matrix(0.992,0,0,0.992,1936.47,290.4)" d="M0,22.7 C0,23 0.1,23.6 0.8,23.8 C5.1,25.2 13.7,30.6 20.2,41.7 C22,44.8 24.9,49.1 24.9,57.4 C24.9,64.6 23.1,72 20.4,79.2 C20.2,79.8 20.1,80.3 20.1,80.7 C20.1,81.4 20.5,81.7 21.2,81.7 C21.8,81.7 22.3,81.3 22.7,80.6 C27.2,72.6 28.9,63.3 28.9,54.2 C28.4,41.3 21,31.8 21,31.8 C21.3,31.8 11.8,19.5 9.1,15.3 C5.4,9.6 3.7,3.9 3.5,3.5 C3.4,3.2 2.5,-0.4 2.5,-0.4 C2.4,-0.8 1.9,-1.2 1.3,-1.2 C0.6,-1.2 0,-0.6 0,0.1 L0,22.7 "/>
<path class="Hook" transform="matrix(0.992,0,0,0.992,1262.19,659.6)" d="M0,22.7 C0,23 0.1,23.6 0.8,23.8 C5.1,25.2 13.7,30.6 20.2,41.7 C22,44.8 24.9,49.1 24.9,57.4 C24.9,64.6 23.1,72 20.4,79.2 C20.2,79.8 20.1,80.3 20.1,80.7 C20.1,81.4 20.5,81.7 21.2,81.7 C21.8,81.7 22.3,81.3 22.7,80.6 C27.2,72.6 28.9,63.3 28.9,54.2 C28.4,41.3 21,31.8 21,31.8 C21.3,31.8 11.8,19.5 9.1,15.3 C5.4,9.6 3.7,3.9 3.5,3.5 C3.4,3.2 2.5,-0.4 2.5,-0.4 C2.4,-0.8 1.9,-1.2 1.3,-1.2 C0.6,-1.2 0,-0.6 0,0.1 L0,22.7 "/>
<path class="Hook" transform="matrix(0.992,0,0,0.992,1582,1066)" d="M0,22.7 C0,23 0.1,23.6 0.8,23.8 C5.1,25.2 13.7,30.6 20.2,41.7 C22,44.8 24.9,49.1 24.9,57.4 C24.9,64.6 23.1,72 20.4,79.2 C20.2,79.8 20.1,80.3 20.1,80.7 C20.1,81.4 20.5,81.7 21.2,81.7 C21.8,81.7 22.3,81.3 22.7,80.6 C27.2,72.6 28.9,63.3 28.9,54.2 C28.4,41.3 21,31.8 21,31.8 C21.3,31.8 11.8,19.5 9.1,15.3 C5.4,9.6 3.7,3.9 3.5,3.5 C3.4,3.2 2.5,-0.4 2.5,-0.4 C2.4,-0.8 1.9,-1.2 1.3,-1.2 C0.6,-1.2 0,-0.6 0,0.1 L0,22.7 "/>
<path class="Hook" transform="matrix(0.992,0,0,0.992,1088.8,659.6)" d="M0,22.7 C0,23 0.1,23.6 0.8,23.8 C5.1,25.2 13.7,30.6 20.2,41.7 C22,44.8 24.9,49.1 24.9,57.4 C24.9,64.6 23.1,72 20.4,79.2 C20.2,79.8 20.1,80.3 20.1,80.7 C20.1,81.4 20.5,81.7 21.2,81.7 C21.8,81.7 22.3,81.3 22.7,80.6 C27.2,72.6 28.9,63.3 28.9,54.2 C28.4,41.3 21,31.8 21,31.8 C21.3,31.8 11.8,19.5 9.1,15.3 C5.4,9.6 3.7,3.9 3.5,3.5 C3.4,3.2 2.5,-0.4 2.5,-0.4 C2.4,-0.8 1.9,-1.2 1.3,-1.2 C0.6,-1.2 0,-0.6 0,0.1 L0,22.7 "/>
<path class="Hook" transform="matrix(0.992,0,0,0.992,1129.91,1041.2)" d="M0,22.7 C0,23 0.1,23.6 0.8,23.8 C5.1,25.2 13.7,30.6 20.2,41.7 C22,44.8 24.9,49.1 24.9,57.4 C24.9,64.6 23.1,72 20.4,79.2 C20.2,79.8 20.1,80.3 20.1,80.7 C20.1,81.4 20.5,81.7 21.2,81.7 C21.8,81.7 22.3,81.3 22.7,80.6 C27.2,72.6 28.9,63.3 28.9,54.2 C28.4,41.3 21,31.8 21,31.8 C21.3,31.8 11.8,19.5 9.1,15.3 C5.4,9.6 3.7,3.9 3.5,3.5 C3.4,3.2 2.5,-0.4 2.5,-0.4 C2.4,-0.8 1.9,-1.2 1.3,-1.2 C0.6,-1.2 0,-0.6 0,0.1 L0,22.7 "/>
<path class="Lyrics" d="M445.347,448.761 L445.347,445.561 L438.697,445.561 L438.697,433.961 L434.947,433.961 L434.947,460.511 L438.697,460.511 L438.697,448.761 L445.347,448.761 M438.697,477.011 L438.697,462.761 L410.697,462.761 L410.697,477.011 L438.697,477.011 M434.897,473.861 L414.497,473.861 L414.497,465.911 L434.897,465.911 L434.897,473.861 M430.497,454.311 C425.397,455.361 416.147,455.661 411.047,455.661 L410.497,455.661 L410.497,448.811 L426.297,448.811 L426.297,436.711 L406.597,436.711 L406.597,439.861 L422.447,439.861 L422.447,445.711 L406.697,445.711 L406.697,458.861 L410.797,458.861 C416.947,458.861 426.397,458.211 430.947,457.411 L430.497,454.311 "/>
<path class="Lyrics" d="M360.41,454.561 L360.41,451.311 L353.31,451.311 L353.31,433.961 L349.51,433.961 L349.51,477.661 L353.31,477.661 L353.31,454.561 L360.41,454.561 M341.71,466.811 L341.71,437.661 L337.86,437.661 L337.86,448.761 L324.96,448.761 L324.96,437.661 L321.16,437.661 L321.16,466.811 L341.71,466.811 M337.86,463.611 L324.96,463.611 L324.96,451.911 L337.86,451.911 L337.86,463.611 "/>
<path class="Lyrics" d="M1791.03,855.899 L1791.03,852.699 L1773.13,852.699 L1773.13,845.249 L1787.38,845.249 L1787.38,842.049 L1760.23,842.049 L1760.23,834.749 L1786.13,834.749 L1786.13,821.399 L1756.38,821.399 L1756.38,824.599 L1782.33,824.599 L1782.33,831.599 L1756.43,831.599 L1756.43,845.249 L1769.33,845.249 L1769.33,852.699 L1751.58,852.699 L1751.58,855.899 L1791.03,855.899 "/>
<path class="Lyrics" d="M463.42,1211.83 L463.42,1208.63 L456.37,1208.63 L456.37,1190.98 L452.57,1190.98 L452.57,1234.68 L456.37,1234.68 L456.37,1211.83 L463.42,1211.83 M448.42,1221.13 C442.37,1217.58 436.87,1210.43 436.87,1202.48 L436.87,1194.83 L432.97,1194.83 L432.97,1202.58 C432.97,1210.33 427.82,1218.18 421.47,1222.08 L423.92,1225.03 C429.07,1221.43 433.32,1215.88 434.87,1210.43 C436.62,1215.73 441.52,1220.93 446.02,1224.03 L448.42,1221.13 "/>
<path class="Lyrics" d="M1163.86,433.961 L1160.06,433.961 L1160.06,477.661 L1163.86,477.661 L1163.86,455.411 L1171.01,455.411 L1171.01,452.161 L1163.86,452.161 L1163.86,433.961 M1152.51,438.661 L1131.96,438.661 L1131.96,441.861 L1148.41,441.861 C1147.61,451.711 1141.36,460.911 1130.46,465.961 L1132.81,468.961 C1144.06,463.111 1152.26,452.861 1152.51,438.661"/>
<path class="Lyrics" d="M536.793,455.461 L536.793,452.211 L529.693,452.211 L529.693,433.961 L525.893,433.961 L525.893,477.661 L529.693,477.661 L529.693,455.461 L536.793,455.461 M523.393,466.611 L523.093,463.461 C519.193,464.061 513.693,464.461 508.443,464.711 L508.443,451.011 L504.593,451.011 L504.593,464.811 C501.343,464.911 497.443,464.861 495.043,464.861 L495.593,468.211 C499.243,468.211 504.093,468.061 508.493,467.861 C512.743,467.611 519.193,467.161 523.393,466.611 M520.093,438.561 L497.243,438.561 L497.243,441.761 L516.243,441.761 C516.443,446.661 515.843,453.861 514.893,458.111 L518.543,458.611 C519.493,454.361 520.193,445.261 520.093,438.561"/>
<path class="Lyrics" d="M563.514,1205.93 L563.514,1202.73 L556.864,1202.73 L556.864,1190.98 L553.114,1190.98 L553.114,1218.18 L556.864,1218.18 L556.864,1205.93 L563.514,1205.93 M557.364,1226.73 C557.364,1221.83 552.364,1218.73 542.914,1218.73 C533.414,1218.73 528.464,1221.73 528.464,1226.73 C528.464,1231.58 533.414,1234.63 542.914,1234.63 C552.364,1234.63 557.364,1231.53 557.364,1226.73 M542.914,1221.88 C549.514,1221.88 553.464,1223.63 553.464,1226.73 C553.464,1229.78 549.514,1231.48 542.914,1231.48 C536.264,1231.48 532.364,1229.68 532.364,1226.73 C532.364,1223.68 536.264,1221.88 542.914,1221.88 M549.014,1211.48 C543.864,1212.53 534.214,1212.83 529.114,1212.83 L528.564,1212.83 L528.564,1206.33 L544.614,1206.33 L544.614,1193.88 L524.664,1193.88 L524.664,1197.03 L540.814,1197.03 L540.814,1203.23 L524.764,1203.23 L524.764,1216.03 L528.864,1216.03 C535.014,1216.03 544.864,1215.38 549.364,1214.58 L549.014,1211.48 "/>
<path class="Lyrics" d="M1627.82,861.449 L1627.82,817.749 L1624.02,817.749 L1624.02,861.449 L1627.82,861.449 M1615.27,850.199 L1615.27,822.249 L1594.62,822.249 L1594.62,850.199 L1615.27,850.199 M1611.47,847.049 L1598.47,847.049 L1598.47,825.399 L1611.47,825.399 L1611.47,847.049 "/>
<path class="Lyrics" d="M1511.11,830.399 L1520.91,830.399 L1520.91,830.699 C1520.91,836.249 1515.71,841.549 1509.86,843.299 L1511.96,846.199 C1516.96,844.449 1521.51,840.099 1522.96,836.199 C1525.01,840.149 1529.61,843.749 1533.46,844.949 L1535.41,841.949 C1530.26,840.699 1524.91,836.099 1524.91,830.599 L1524.91,830.399 L1534.56,830.399 L1534.56,827.299 L1511.11,827.299 L1511.11,830.399 M1550.76,834.599 L1550.76,831.399 L1544.11,831.399 L1544.11,817.749 L1540.31,817.749 L1540.31,849.499 L1544.11,849.499 L1544.11,834.599 L1550.76,834.599 M1545.81,860.049 L1545.81,856.849 L1520.56,856.849 L1520.56,847.399 L1516.76,847.399 L1516.76,860.049 L1545.81,860.049 M1516.81,823.049 L1529.01,823.049 L1529.01,819.799 L1516.81,819.799 L1516.81,823.049 "/>
<path class="Lyrics" d="M659.881,1190.98 L659.881,1234.68 L663.681,1234.68 L663.681,1190.98 L659.881,1190.98 M652.981,1204.78 C652.981,1198.38 648.081,1194.38 641.631,1194.38 C635.281,1194.38 630.231,1198.63 630.231,1204.78 C630.231,1210.63 635.181,1214.93 641.631,1214.93 C647.931,1214.93 652.981,1210.98 652.981,1204.78 M649.281,1204.78 C649.281,1208.88 645.781,1211.73 641.631,1211.73 C637.381,1211.73 633.931,1208.83 633.931,1204.78 C633.931,1200.68 637.431,1197.63 641.631,1197.63 C645.881,1197.63 649.281,1200.38 649.281,1204.78 M657.331,1223.58 L656.981,1220.48 C653.781,1220.88 648.131,1221.23 642.031,1221.43 C636.731,1221.73 631.581,1221.83 627.831,1221.78 L628.531,1225.13 C631.831,1225.08 636.631,1224.93 641.781,1224.68 C647.331,1224.43 653.581,1224.03 657.331,1223.58"/>
<path class="Lyrics" d="M1466,861.449 L1466,817.749 L1462.2,817.749 L1462.2,861.449 L1466,861.449 M1453.45,850.199 L1453.45,822.249 L1432.8,822.249 L1432.8,850.199 L1453.45,850.199 M1449.65,847.049 L1436.65,847.049 L1436.65,825.399 L1449.65,825.399 L1449.65,847.049 "/>
<path class="Lyrics" d="M1245.06,464.411 C1239.06,461.161 1233.51,454.111 1233.51,445.961 L1233.51,441.511 L1243.71,441.511 L1243.71,438.361 L1219.36,438.361 L1219.36,441.511 L1229.56,441.511 L1229.56,446.011 C1229.56,454.261 1224.31,461.711 1217.91,465.461 L1220.26,468.261 C1225.31,465.011 1230.11,459.411 1231.56,453.961 C1233.06,459.111 1238.61,464.611 1242.71,467.261 L1245.06,464.411 M1250.11,433.961 L1250.11,477.661 L1253.91,477.661 L1253.91,433.961 L1250.11,433.961 "/>
<path class="Lyrics" d="M1349.29,830.399 L1359.09,830.399 L1359.09,830.699 C1359.09,836.249 1353.89,841.549 1348.04,843.299 L1350.14,846.199 C1355.14,844.449 1359.69,840.099 1361.14,836.199 C1363.19,840.149 1367.79,843.749 1371.64,844.949 L1373.59,841.949 C1368.44,840.699 1363.09,836.099 1363.09,830.599 L1363.09,830.399 L1372.74,830.399 L1372.74,827.299 L1349.29,827.299 L1349.29,830.399 M1388.94,834.599 L1388.94,831.399 L1382.29,831.399 L1382.29,817.749 L1378.49,817.749 L1378.49,849.499 L1382.29,849.499 L1382.29,834.599 L1388.94,834.599 M1383.99,860.049 L1383.99,856.849 L1358.74,856.849 L1358.74,847.399 L1354.94,847.399 L1354.94,860.049 L1383.99,860.049 M1354.99,823.049 L1367.19,823.049 L1367.19,819.799 L1354.99,819.799 L1354.99,823.049 "/>
<path class="Lyrics" d="M1266.44,835.349 C1259.74,834.599 1250.79,830.149 1250.59,823.999 L1264.64,823.999 L1264.64,820.849 L1232.44,820.849 L1232.44,823.999 L1246.59,823.999 C1246.39,830.099 1237.94,834.699 1230.79,835.449 L1232.54,838.649 C1239.99,837.399 1246.79,832.899 1248.54,828.799 C1250.54,832.899 1257.49,837.299 1264.64,838.549 L1266.44,835.349 M1250.39,861.449 L1250.39,845.799 L1268.29,845.799 L1268.29,842.599 L1228.84,842.599 L1228.84,845.799 L1246.59,845.799 L1246.59,861.449 L1250.39,861.449 "/>
<path class="Lyrics" d="M801.582,1234.68 L801.582,1190.98 L797.832,1190.98 L797.832,1208.38 L792.082,1208.38 L792.082,1192.03 L788.382,1192.03 L788.382,1232.43 L792.082,1232.43 L792.082,1211.58 L797.832,1211.58 L797.832,1234.68 L801.582,1234.68 M785.432,1218.48 C782.232,1219.33 774.982,1219.93 770.432,1219.83 L770.432,1195.78 L766.632,1195.78 L766.632,1223.13 L769.982,1223.13 C775.532,1223.13 782.232,1222.53 785.882,1221.68 L785.432,1218.48 "/>
<path class="Lyrics" d="M1159.13,817.749 L1155.33,817.749 L1155.33,861.449 L1159.13,861.449 L1159.13,839.199 L1166.28,839.199 L1166.28,835.949 L1159.13,835.949 L1159.13,817.749 M1147.78,822.449 L1127.23,822.449 L1127.23,825.649 L1143.68,825.649 C1142.88,835.499 1136.63,844.699 1125.73,849.749 L1128.08,852.749 C1139.33,846.899 1147.53,836.649 1147.78,822.449"/>
<path class="Lyrics" d="M1376.64,469.511 C1376.64,464.561 1371.09,461.461 1361.74,461.461 C1352.39,461.461 1346.89,464.561 1346.89,469.511 C1346.89,474.461 1352.39,477.561 1361.74,477.561 C1371.09,477.561 1376.64,474.461 1376.64,469.511 M1376.24,461.561 L1376.24,433.961 L1372.44,433.961 L1372.44,445.511 L1366.99,445.511 L1366.99,434.761 L1363.29,434.761 L1363.29,459.411 L1366.99,459.411 L1366.99,448.711 L1372.44,448.711 L1372.44,461.561 L1376.24,461.561 M1361.74,464.661 C1368.44,464.661 1372.59,466.561 1372.59,469.511 C1372.59,472.511 1368.44,474.411 1361.74,474.411 C1355.09,474.411 1350.89,472.511 1350.89,469.511 C1350.89,466.561 1355.09,464.661 1361.74,464.661 M1361.49,454.811 C1357.34,453.011 1352.04,448.561 1352.04,441.861 L1352.04,436.511 L1348.34,436.511 L1348.34,441.961 C1348.34,448.511 1343.64,453.811 1338.99,456.311 L1341.34,459.211 C1345.39,456.861 1349.19,452.161 1350.29,448.611 C1351.79,452.011 1355.54,455.861 1359.44,457.711 L1361.49,454.811 "/>
<path class="Lyrics" d="M903.642,1208.58 C896.942,1207.83 887.992,1203.38 887.792,1197.23 L901.842,1197.23 L901.842,1194.08 L869.642,1194.08 L869.642,1197.23 L883.792,1197.23 C883.592,1203.33 875.142,1207.93 867.992,1208.68 L869.742,1211.88 C877.192,1210.63 883.992,1206.13 885.742,1202.03 C887.742,1206.13 894.692,1210.53 901.842,1211.78 L903.642,1208.58 M887.592,1234.68 L887.592,1219.03 L905.492,1219.03 L905.492,1215.83 L866.042,1215.83 L866.042,1219.03 L883.792,1219.03 L883.792,1234.68 L887.592,1234.68 "/>
<path class="Lyrics" d="M1091.95,861.449 L1091.95,817.749 L1088.15,817.749 L1088.15,861.449 L1091.95,861.449 M1079.05,850.599 L1079.05,821.449 L1075.25,821.449 L1075.25,832.649 L1062.15,832.649 L1062.15,821.449 L1058.4,821.449 L1058.4,850.599 L1079.05,850.599 M1075.25,847.399 L1062.15,847.399 L1062.15,835.799 L1075.25,835.799 L1075.25,847.399 "/>
<path class="Lyrics" d="M989.962,849.499 L989.962,817.749 L986.162,817.749 L986.162,849.499 L989.962,849.499 M980.662,839.549 C975.462,837.699 969.562,832.299 969.562,824.999 L969.562,820.249 L965.712,820.249 L965.712,825.099 C965.712,832.099 960.062,838.499 954.312,841.049 L956.612,844.049 C961.362,841.649 966.412,836.599 967.712,831.899 C969.512,836.499 974.012,840.649 978.512,842.599 L980.662,839.549 M990.912,860.099 L990.912,856.949 L965.562,856.949 L965.562,846.649 L961.762,846.649 L961.762,860.099 L990.912,860.099 "/>
<path class="Lyrics" d="M1700.75,1190.98 L1696.95,1190.98 L1696.95,1234.68 L1700.75,1234.68 L1700.75,1211.53 L1707.85,1211.53 L1707.85,1208.33 L1700.75,1208.33 L1700.75,1190.98 M1672.6,1220.73 L1672.6,1198.73 L1689.5,1198.73 L1689.5,1195.53 L1668.75,1195.53 L1668.75,1223.98 L1673.05,1223.98 C1680.65,1223.98 1689.3,1223.38 1694,1222.48 L1693.6,1219.33 C1689.4,1220.23 1680.75,1220.73 1675.1,1220.73 L1672.6,1220.73 "/>
<path class="Lyrics" d="M1004.15,1234.03 L1004.15,1218.03 L975.496,1218.03 L975.496,1234.03 L1004.15,1234.03 M1000.35,1230.88 L979.296,1230.88 L979.296,1221.13 L1000.35,1221.13 L1000.35,1230.88 M1000.35,1190.98 L1000.35,1215.28 L1004.15,1215.28 L1004.15,1190.98 L1000.35,1190.98 M996.246,1207.08 C990.646,1208.23 980.846,1209.23 974.496,1208.98 L974.496,1193.23 L970.696,1193.23 L970.696,1212.33 L973.196,1212.33 C980.796,1212.33 991.846,1211.38 996.696,1210.33 L996.246,1207.08 "/>
<path class="Lyrics" d="M1502.64,469.361 C1502.64,464.211 1497.24,460.961 1487.79,460.961 C1478.24,460.961 1472.89,464.211 1472.89,469.361 C1472.89,474.461 1478.24,477.661 1487.79,477.661 C1497.24,477.661 1502.64,474.461 1502.64,469.361 M1487.79,464.211 C1494.69,464.211 1498.74,466.061 1498.74,469.361 C1498.74,472.611 1494.69,474.461 1487.79,474.461 C1480.89,474.461 1476.84,472.611 1476.84,469.361 C1476.84,466.061 1480.89,464.211 1487.79,464.211 M1490.64,444.161 L1498.49,444.161 L1498.49,450.011 L1490.59,450.011 L1490.59,453.161 L1498.49,453.161 L1498.49,461.161 L1502.29,461.161 L1502.29,433.961 L1498.49,433.961 L1498.49,441.011 L1490.64,441.011 L1490.64,444.161 M1488.54,457.311 L1488.54,437.311 L1468.54,437.311 L1468.54,457.311 L1488.54,457.311 M1484.69,454.211 L1472.34,454.211 L1472.34,440.461 L1484.69,440.461 L1484.69,454.211 "/>
<path class="Lyrics" d="M870.072,860.099 L870.072,856.899 L843.972,856.899 L843.972,848.049 L840.172,848.049 L840.172,860.099 L870.072,860.099 M874.722,844.149 L874.722,840.999 L835.272,840.999 L835.272,844.149 L874.722,844.149 M870.072,835.199 L870.072,832.049 L843.922,832.049 L843.922,823.249 L869.772,823.249 L869.772,820.049 L840.122,820.049 L840.122,835.199 L870.072,835.199 "/>
<path class="Lyrics" d="M793.81,855.899 L793.81,852.699 L775.91,852.699 L775.91,842.249 L788.96,842.249 L788.96,821.649 L759.11,821.649 L759.11,842.249 L772.11,842.249 L772.11,852.699 L754.36,852.699 L754.36,855.899 L793.81,855.899 M785.16,839.099 L762.91,839.099 L762.91,824.799 L785.16,824.799 L785.16,839.099 "/>
<path class="Lyrics" d="M1136.01,1213.08 L1136.01,1209.88 L1096.56,1209.88 L1096.56,1213.08 L1136.01,1213.08 M1131.61,1199.18 C1131.61,1194.38 1125.81,1191.58 1116.31,1191.58 C1106.91,1191.58 1101.11,1194.38 1101.11,1199.18 C1101.11,1203.98 1106.91,1206.73 1116.31,1206.73 C1125.81,1206.73 1131.61,1203.98 1131.61,1199.18 M1116.31,1194.68 C1123.26,1194.68 1127.76,1196.43 1127.76,1199.18 C1127.76,1201.88 1123.26,1203.58 1116.31,1203.58 C1109.46,1203.58 1105.01,1201.88 1105.01,1199.18 C1105.01,1196.43 1109.46,1194.68 1116.31,1194.68 M1132.51,1234.28 L1132.51,1231.18 L1104.96,1231.18 L1104.96,1226.78 L1131.06,1226.78 L1131.06,1216.98 L1101.06,1216.98 L1101.06,1220.03 L1127.26,1220.03 L1127.26,1223.88 L1101.16,1223.88 L1101.16,1234.28 L1132.51,1234.28 "/>
<path class="Lyrics" d="M1633.46,440.561 L1643.41,440.561 C1643.41,441.411 1643.41,442.611 1643.36,443.161 C1643.16,449.361 1637.61,454.911 1632.11,457.011 L1634.16,460.061 C1638.86,458.011 1644.11,452.761 1645.31,448.661 C1647.11,452.611 1651.66,456.961 1655.86,458.661 L1657.96,455.611 C1652.96,453.961 1647.66,449.111 1647.31,443.161 C1647.26,442.611 1647.26,441.461 1647.26,440.561 L1657.01,440.561 L1657.01,437.361 L1633.46,437.361 L1633.46,440.561 M1638.91,462.311 L1638.91,465.461 L1664.21,465.461 L1664.21,477.661 L1668.06,477.661 L1668.06,462.311 L1638.91,462.311 M1668.01,460.011 L1668.01,433.961 L1664.21,433.961 L1664.21,445.611 L1655.46,445.611 L1655.46,448.761 L1664.21,448.761 L1664.21,460.011 L1668.01,460.011 "/>
<path class="Lyrics" d="M710.415,861.449 L710.415,817.749 L706.615,817.749 L706.615,861.449 L710.415,861.449 M675.915,836.449 C675.915,845.749 680.015,851.949 687.165,851.949 C694.415,851.949 698.465,845.749 698.465,836.499 C698.465,827.249 694.415,821.049 687.165,821.049 C680.015,821.049 675.915,827.249 675.915,836.449 M694.865,836.499 C694.865,843.649 691.815,848.649 687.165,848.649 C682.565,848.649 679.515,843.649 679.515,836.499 C679.515,829.299 682.565,824.349 687.165,824.349 C691.815,824.349 694.865,829.299 694.865,836.499"/>
<path class="Lyrics" d="M1776.19,477.661 L1776.19,433.961 L1772.34,433.961 L1772.34,477.661 L1776.19,477.661 M1766.79,464.261 C1760.74,460.661 1755.44,453.511 1755.44,445.511 L1755.44,437.761 L1751.59,437.761 L1751.59,445.661 C1751.59,453.411 1746.34,461.361 1739.94,465.361 L1742.44,468.211 C1747.49,464.611 1751.99,459.261 1753.59,453.811 C1755.29,459.061 1760.44,464.461 1764.39,467.161 L1766.79,464.261 "/>
<path class="Lyrics" d="M755.556,476.911 L755.556,473.761 L727.906,473.761 L727.906,470.111 L753.906,470.111 L753.906,460.561 L740.906,460.561 L740.906,456.461 L758.806,456.461 L758.806,453.311 L719.356,453.311 L719.356,456.461 L737.106,456.461 L737.106,460.561 L723.956,460.561 L723.956,463.661 L750.106,463.661 L750.106,467.161 L724.106,467.161 L724.106,476.911 L755.556,476.911 M753.856,450.161 L753.856,435.111 L750.056,435.111 L750.056,439.661 L728.156,439.661 L728.156,435.111 L724.356,435.111 L724.356,450.161 L753.856,450.161 M750.056,447.061 L728.156,447.061 L728.156,442.711 L750.056,442.711 L750.056,447.061 "/>
<path class="Lyrics" d="M1251.53,1215.08 L1251.53,1211.93 L1224.98,1211.93 L1224.98,1194.73 L1221.18,1194.73 L1221.18,1215.08 L1234.23,1215.08 L1234.23,1225.68 L1216.48,1225.68 L1216.48,1228.88 L1255.93,1228.88 L1255.93,1225.68 L1238.03,1225.68 L1238.03,1215.08 L1251.53,1215.08 "/>
<path class="Lyrics" d="M358.404,861.199 L358.404,858.199 L332.304,858.199 L332.304,852.949 L356.754,852.949 L356.754,842.399 L328.354,842.399 L328.354,845.399 L352.954,845.399 L352.954,850.199 L328.504,850.199 L328.504,861.199 L358.404,861.199 M343.404,820.149 L323.454,820.149 L323.454,823.349 L339.054,823.349 C337.604,830.499 331.204,836.299 321.604,838.699 L323.504,841.799 C334.404,838.649 342.504,831.649 343.404,820.149 M343.854,827.199 L352.954,827.199 L352.954,832.249 L343.304,832.249 L343.304,835.299 L352.954,835.299 L352.954,839.999 L356.754,839.999 L356.754,817.749 L352.954,817.749 L352.954,824.199 L343.854,824.199 L343.854,827.199 "/>
<path class="Lyrics" d="M364.504,844.049 L364.504,848.199 L376.954,848.199 L376.954,844.049 L364.504,844.049 "/>
<path class="Lyrics" d="M1583.95,1211.88 L1583.95,1208.78 L1557.4,1208.78 L1557.4,1203.68 L1583.1,1203.68 L1583.1,1192.88 L1553.6,1192.88 L1553.6,1195.98 L1579.25,1195.98 L1579.25,1200.78 L1553.6,1200.78 L1553.6,1211.88 L1583.95,1211.88 M1588.1,1219.13 L1588.1,1215.98 L1548.65,1215.98 L1548.65,1219.13 L1588.1,1219.13 M1583.65,1233.38 L1583.65,1230.23 L1557.35,1230.23 L1557.35,1222.03 L1553.55,1222.03 L1553.55,1233.38 L1583.65,1233.38 "/>
<path class="Lyrics" d="M1355.69,1234.68 L1355.69,1190.98 L1351.94,1190.98 L1351.94,1208.43 L1346.24,1208.43 L1346.24,1192.03 L1342.49,1192.03 L1342.49,1232.43 L1346.24,1232.43 L1346.24,1211.63 L1351.94,1211.63 L1351.94,1234.68 L1355.69,1234.68 M1339.89,1219.53 C1335.04,1220.53 1327.89,1220.93 1323.94,1220.93 L1323.94,1210.83 L1336.99,1210.83 L1336.99,1195.63 L1320.04,1195.63 L1320.04,1198.78 L1333.19,1198.78 L1333.19,1207.68 L1320.14,1207.68 L1320.14,1224.13 L1322.99,1224.13 C1328.44,1224.13 1335.64,1223.53 1340.29,1222.68 L1339.89,1219.53 "/>
<path class="Lyrics" d="M1939.42,477.011 L1939.42,473.811 L1911.57,473.811 L1911.57,469.811 L1937.77,469.811 L1937.77,460.311 L1924.67,460.311 L1924.67,456.061 L1942.57,456.061 L1942.57,453.011 L1903.12,453.011 L1903.12,456.061 L1920.87,456.061 L1920.87,460.311 L1907.62,460.311 L1907.62,463.361 L1933.97,463.361 L1933.97,466.961 L1907.77,466.961 L1907.77,477.011 L1939.42,477.011 M1937.57,449.061 L1937.57,435.661 L1908.17,435.661 L1908.17,449.061 L1937.57,449.061 M1933.72,445.911 L1911.97,445.911 L1911.97,438.761 L1933.72,438.761 L1933.72,445.911 "/>
<path class="Lyrics" d="M1043.23,448.711 L1043.23,445.511 L1036.58,445.511 L1036.58,433.961 L1032.78,433.961 L1032.78,459.561 L1036.58,459.561 L1036.58,448.711 L1043.23,448.711 M1039.68,474.861 C1032.73,474.211 1026.03,469.111 1025.23,464.911 L1037.28,464.911 L1037.28,461.811 L1008.53,461.811 L1008.53,464.911 L1021.03,464.911 C1020.28,469.311 1013.98,474.161 1006.53,474.861 L1008.48,477.811 C1015.53,476.811 1021.48,472.311 1023.08,468.661 C1024.68,472.261 1031.58,476.911 1037.78,477.861 L1039.68,474.861 M1004.58,437.311 L1004.58,440.511 L1020.23,440.511 C1019.08,448.011 1011.28,454.511 1002.68,456.311 L1004.63,459.461 C1015.78,456.261 1023.78,448.761 1024.48,437.311 L1004.58,437.311 "/>
<path class="Lyrics" d="M1834.58,459.711 L1834.58,456.511 L1795.13,456.511 L1795.13,459.711 L1834.58,459.711 M1830.38,476.711 L1830.38,473.561 L1804.08,473.561 L1804.08,463.811 L1800.28,463.811 L1800.28,476.711 L1830.38,476.711 M1830.18,451.061 L1830.18,447.911 L1804.23,447.911 L1804.23,435.811 L1800.43,435.811 L1800.43,451.061 L1830.18,451.061 "/>
<path class="Lyrics" d="M1454.44,1211.93 L1454.44,1192.68 L1450.64,1192.68 L1450.64,1199.13 L1428.39,1199.13 L1428.39,1192.68 L1424.54,1192.68 L1424.54,1211.93 L1454.44,1211.93 M1441.34,1234.73 L1441.34,1220.33 L1459.24,1220.33 L1459.24,1217.13 L1419.79,1217.13 L1419.79,1220.33 L1437.54,1220.33 L1437.54,1234.73 L1441.34,1234.73 M1450.64,1208.78 L1428.39,1208.78 L1428.39,1202.23 L1450.64,1202.23 L1450.64,1208.78 "/>
<polyline class="LyricsLineSegment" fill="none" stroke="#000000" stroke-width="2.48" stroke-linejoin="bevel" points="618.147,460.183 637.987,460.183"/>
<path class="NoteDot" transform="matrix(0.992,0,0,0.992,1468.02,1128)" d="M0,0 C0,2.8 2.2,5 5,5 C7.8,5 10,2.8 10,0 C10,-2.8 7.8,-5 5,-5 C2.2,-5 0,-2.8 0,0"/>
<path class="NoteDot" transform="matrix(0.992,0,0,0.992,1843.36,364.8)" d="M0,0 C0,2.8 2.2,5 5,5 C7.8,5 10,2.8 10,0 C10,-2.8 7.8,-5 5,-5 C2.2,-5 0,-2.8 0,0"/>
<path class="NoteDot" transform="matrix(0.992,0,0,0.992,369.295,771.2)" d="M0,0 C0,2.8 2.2,5 5,5 C7.8,5 10,2.8 10,0 C10,-2.8 7.8,-5 5,-5 C2.2,-5 0,-2.8 0,0"/>
<path class="NoteDot" transform="matrix(0.992,0,0,0.992,767.581,340)" d="M0,0 C0,2.8 2.2,5 5,5 C7.8,5 10,2.8 10,0 C10,-2.8 7.8,-5 5,-5 C2.2,-5 0,-2.8 0,0"/>
<path class="NoteDot" transform="matrix(0.992,0,0,0.992,539.669,364.8)" d="M0,0 C0,2.8 2.2,5 5,5 C7.8,5 10,2.8 10,0 C10,-2.8 7.8,-5 5,-5 C2.2,-5 0,-2.8 0,0"/>
<path class="NoteDot" transform="matrix(0.992,0,0,0.992,1678.58,364.8)" d="M0,0 C0,2.8 2.2,5 5,5 C7.8,5 10,2.8 10,0 C10,-2.8 7.8,-5 5,-5 C2.2,-5 0,-2.8 0,0"/>
<path class="NoteDot" transform="matrix(0.992,0,0,0.992,1001.11,746.4)" d="M0,0 C0,2.8 2.2,5 5,5 C7.8,5 10,2.8 10,0 C10,-2.8 7.8,-5 5,-5 C2.2,-5 0,-2.8 0,0"/>
<path class="NoteDot" transform="matrix(0.992,0,0,0.992,1716.8,1152.8)" d="M0,0 C0,2.8 2.2,5 5,5 C7.8,5 10,2.8 10,0 C10,-2.8 7.8,-5 5,-5 C2.2,-5 0,-2.8 0,0"/>
<path class="NoteDot" transform="matrix(0.992,0,0,0.992,1015.92,1103.2)" d="M0,0 C0,2.8 2.2,5 5,5 C7.8,5 10,2.8 10,0 C10,-2.8 7.8,-5 5,-5 C2.2,-5 0,-2.8 0,0"/>
<path class="NoteDot" transform="matrix(0.992,0,0,0.992,1174.5,721.6)" d="M0,0 C0,2.8 2.2,5 5,5 C7.8,5 10,2.8 10,0 C10,-2.8 7.8,-5 5,-5 C2.2,-5 0,-2.8 0,0"/>
<path class="NoteDot" transform="matrix(0.992,0,0,0.992,1799.8,746.4)" d="M0,0 C0,2.8 2.2,5 5,5 C7.8,5 10,2.8 10,0 C10,-2.8 7.8,-5 5,-5 C2.2,-5 0,-2.8 0,0"/>
</svg>
