<?xml version="1.0" encoding="UTF-8" standalone="no"?>
<svg width="2098.8px" height="1418.4px" viewBox="0 0 2098.8 1418.4"
 xmlns="http://www.w3.org/2000/svg" xmlns:xlink="http://www.w3.org/1999/xlink" version="1.2" baseProfile="tiny">
<title>259 태양의 찬가.musicxml (1)</title>
<desc>Generated by MuseScore 4.2.1</desc>
<polyline class="StaffLines" fill="none" stroke="#000000" stroke-width="2.73" stroke-linejoin="bevel" points="228.4,510.39 1994.4,510.39"/>
<polyline class="StaffLines" fill="none" stroke="#000000" stroke-width="2.73" stroke-linejoin="bevel" points="228.4,535.19 1994.4,535.19"/>
<polyline class="StaffLines" fill="none" stroke="#000000" stroke-width="2.73" stroke-linejoin="bevel" points="228.4,559.99 1994.4,559.99"/>
<polyline class="StaffLines" fill="none" stroke="#000000" stroke-width="2.73" stroke-linejoin="bevel" points="228.4,584.79 1994.4,584.79"/>
<polyline class="StaffLines" fill="none" stroke="#000000" stroke-width="2.73" stroke-linejoin="bevel" points="228.4,609.59 1994.4,609.59"/>
<polyline class="StaffLines" fill="none" stroke="#000000" stroke-width="2.73" stroke-linejoin="bevel" points="104.4,1041.2 1994.4,1041.2"/>
<polyline class="StaffLines" fill="none" stroke="#000000" stroke-width="2.73" stroke-linejoin="bevel" points="104.4,1066 1994.4,1066"/>
<polyline class="StaffLines" fill="none" stroke="#000000" stroke-width="2.73" stroke-linejoin="bevel" points="104.4,1090.8 1994.4,1090.8"/>
<polyline class="StaffLines" fill="none" stroke="#000000" stroke-width="2.73" stroke-linejoin="bevel" points="104.4,1115.6 1994.4,1115.6"/>
<polyline class="StaffLines" fill="none" stroke="#000000" stroke-width="2.73" stroke-linejoin="bevel" points="104.4,1140.4 1994.4,1140.4"/>
<path class="MeasureNumber" d="M109.282,978.2 C109.962,974.68 110.762,972.48 112.282,969.8 C114.082,966.64 116.242,965.04 118.642,965.04 C119.882,965.04 120.642,965.52 120.642,966.28 C120.642,966.56 120.563,966.72 120.282,967.24 C119.922,967.92 119.762,968.4 119.762,969 C119.762,970.28 120.722,971.16 122.082,971.16 C123.722,971.16 124.842,969.96 124.842,968.16 C124.842,965.44 122.282,963.44 118.722,963.44 C109.802,963.44 104.402,975.08 104.402,982.76 C104.402,988.64 107.322,992.2 112.202,992.2 C118.202,992.2 122.642,987.24 122.642,981.36 C122.642,977.28 119.882,974.44 115.882,974.44 C113.082,974.44 110.922,975.64 109.282,978.2 M114.602,976.76 C117.082,976.76 118.442,978.48 118.442,981.6 C118.442,986.68 115.762,990.56 112.202,990.56 C109.642,990.56 108.122,988.68 108.122,985.48 C108.122,980.48 110.882,976.76 114.602,976.76"/>
<polyline class="BarLine" fill="none" stroke="#000000" stroke-width="4.46" stroke-linejoin="bevel" points="630.642,1039.84 630.642,1141.76"/>
<polyline class="BarLine" fill="none" stroke="#000000" stroke-width="4.46" stroke-linejoin="bevel" points="965.395,1039.84 965.395,1141.76"/>
<polyline class="BarLine" fill="none" stroke="#000000" stroke-width="4.46" stroke-linejoin="bevel" points="1992.17,1039.84 1992.17,1141.76"/>
<polyline class="BarLine" fill="none" stroke="#000000" stroke-width="4.46" stroke-linejoin="bevel" points="673.071,509.026 673.071,610.954"/>
<polyline class="BarLine" fill="none" stroke="#000000" stroke-width="4.46" stroke-linejoin="bevel" points="1992.17,509.026 1992.17,610.954"/>
<polyline class="BarLine" fill="none" stroke="#000000" stroke-width="4.46" stroke-linejoin="bevel" points="1710.88,509.026 1710.88,610.954"/>
<polyline class="BarLine" fill="none" stroke="#000000" stroke-width="4.46" stroke-linejoin="bevel" points="1363.21,1039.84 1363.21,1141.76"/>
<polyline class="BarLine" fill="none" stroke="#000000" stroke-width="4.46" stroke-linejoin="bevel" points="1338.33,509.026 1338.33,610.954"/>
<polyline class="BarLine" fill="none" stroke="#000000" stroke-width="4.46" stroke-linejoin="bevel" points="1005.16,509.026 1005.16,610.954"/>
<polyline class="BarLine" fill="none" stroke="#000000" stroke-width="4.46" stroke-linejoin="bevel" points="1651.72,1039.84 1651.72,1141.76"/>
<polyline class="Stem" fill="none" stroke="#000000" stroke-width="2.48" stroke-linejoin="bevel" points="776.369,1094.97 776.369,1171.3"/>
<polyline class="Stem" fill="none" stroke="#000000" stroke-width="2.48" stroke-linejoin="bevel" points="1070.62,568.422 1070.62,491.79"/>
<polyline class="Stem" fill="none" stroke="#000000" stroke-width="2.48" stroke-linejoin="bevel" points="863.978,1124.03 863.978,1041.2"/>
<polyline class="Stem" fill="none" stroke="#000000" stroke-width="2.48" stroke-linejoin="bevel" points="1173.97,568.422 1173.97,491.989"/>
<polyline class="Stem" fill="none" stroke="#000000" stroke-width="2.48" stroke-linejoin="bevel" points="696.106,1099.23 696.106,1022.6"/>
<polyline class="Stem" fill="none" stroke="#000000" stroke-width="2.48" stroke-linejoin="bevel" points="1428.67,1136.43 1428.67,1053.6"/>
<polyline class="Stem" fill="none" stroke="#000000" stroke-width="2.48" stroke-linejoin="bevel" points="1244.79,568.422 1244.79,491.79"/>
<polyline class="Stem" fill="none" stroke="#000000" stroke-width="2.48" stroke-linejoin="bevel" points="325.903,1070.17 325.903,1152.8"/>
<polyline class="Stem" fill="none" stroke="#000000" stroke-width="2.48" stroke-linejoin="bevel" points="1717.18,1148.83 1717.18,1066"/>
<polyline class="Stem" fill="none" stroke="#000000" stroke-width="2.48" stroke-linejoin="bevel" points="542.865,1094.97 542.865,1165.2"/>
<polyline class="Stem" fill="none" stroke="#000000" stroke-width="2.48" stroke-linejoin="bevel" points="952.387,580.822 952.387,497.99"/>
<polyline class="Stem" fill="none" stroke="#000000" stroke-width="2.48" stroke-linejoin="bevel" points="1374.04,564.157 1374.04,634.39"/>
<polyline class="Stem" fill="none" stroke="#000000" stroke-width="2.48" stroke-linejoin="bevel" points="456.08,1082.57 456.08,1159"/>
<polyline class="Stem" fill="none" stroke="#000000" stroke-width="2.48" stroke-linejoin="bevel" points="1934.14,1111.63 1934.14,1028.8"/>
<polyline class="Stem" fill="none" stroke="#000000" stroke-width="2.48" stroke-linejoin="bevel" points="1485.32,568.422 1485.32,491.79"/>
<polyline class="Stem" fill="none" stroke="#000000" stroke-width="2.48" stroke-linejoin="bevel" points="1030.86,1124.03 1030.86,1041.2"/>
<polyline class="Stem" fill="none" stroke="#000000" stroke-width="2.48" stroke-linejoin="bevel" points="748.563,618.022 748.563,535.19"/>
<polyline class="Stem" fill="none" stroke="#000000" stroke-width="2.48" stroke-linejoin="bevel" points="1566.85,580.822 1566.85,497.99"/>
<polyline class="Stem" fill="none" stroke="#000000" stroke-width="2.48" stroke-linejoin="bevel" points="1847.36,1124.03 1847.36,1041.2"/>
<polyline class="Stem" fill="none" stroke="#000000" stroke-width="2.48" stroke-linejoin="bevel" points="1308.75,1136.43 1308.75,1053.8"/>
<polyline class="Stem" fill="none" stroke="#000000" stroke-width="2.48" stroke-linejoin="bevel" points="1898.63,568.422 1898.63,491.79"/>
<polyline class="Stem" fill="none" stroke="#000000" stroke-width="2.48" stroke-linejoin="bevel" points="1198.73,1124.03 1198.73,1041.2"/>
<polyline class="Stem" fill="none" stroke="#000000" stroke-width="2.48" stroke-linejoin="bevel" points="1640.45,564.157 1640.45,640.491"/>
<polyline class="Stem" fill="none" stroke="#000000" stroke-width="2.48" stroke-linejoin="bevel" points="1140.87,1111.63 1140.87,1029"/>
<polyline class="Stem" fill="none" stroke="#000000" stroke-width="2.48" stroke-linejoin="bevel" points="1776.34,568.422 1776.34,491.79"/>
<polyline class="Stem" fill="none" stroke="#000000" stroke-width="2.48" stroke-linejoin="bevel" points="870.857,593.222 870.857,510.39"/>
<path class="Note" transform="matrix(0.992,0,0,0.992,839.865,597.19)" d="M0,4.2 C0,8.5 3.1,13.3 11.2,13.3 C21.6,13.3 32.5,4.8 32.5,-4 C32.5,-9.9 27.5,-13.2 21.3,-13.2 C11.6,-13.2 0,-5 0,4.2"/>
<path class="Note" transform="matrix(0.992,0,0,0.992,1109.88,1115.6)" d="M0,4.2 C0,8.5 3.1,13.3 11.2,13.3 C21.6,13.3 32.5,4.8 32.5,-4 C32.5,-9.9 27.5,-13.2 21.3,-13.2 C11.6,-13.2 0,-5 0,4.2"/>
<path class="Note" transform="matrix(0.992,0,0,0.992,1745.35,572.39)" d="M21.3,-13.2 C11.6,-13.2 0,-5.1 0,4.2 C0,8.5 3.1,13.3 11.2,13.3 C21.6,13.3 32.5,4.8 32.5,-4 C32.5,-9.9 27.5,-13.2 21.3,-13.2 M7.5,8.6 C4.2,8.6 3.5,5.9 3.5,5 C3.5,0.1 20.3,-8.5 25,-8.5 C27.4,-8.5 29,-7.1 29,-4.9 C29,0.1 12.1,8.6 7.5,8.6"/>
<path class="Note" transform="matrix(0.992,0,0,0.992,1639.21,559.99)" d="M0,4.2 C0,8.5 3.1,13.3 11.2,13.3 C21.6,13.3 32.5,4.8 32.5,-4 C32.5,-9.9 27.5,-13.2 21.3,-13.2 C11.6,-13.2 0,-5 0,4.2"/>
<path class="Note" transform="matrix(0.992,0,0,0.992,1167.74,1128)" d="M0,4.2 C0,8.5 3.1,13.3 11.2,13.3 C21.6,13.3 32.5,4.8 32.5,-4 C32.5,-9.9 27.5,-13.2 21.3,-13.2 C11.6,-13.2 0,-5 0,4.2"/>
<path class="Note" transform="matrix(0.992,0,0,0.992,1867.64,572.39)" d="M21.3,-13.2 C11.6,-13.2 0,-5.1 0,4.2 C0,8.5 3.1,13.3 11.2,13.3 C21.6,13.3 32.5,4.8 32.5,-4 C32.5,-9.9 27.5,-13.2 21.3,-13.2 M7.5,8.6 C4.2,8.6 3.5,5.9 3.5,5 C3.5,0.1 20.3,-8.5 25,-8.5 C27.4,-8.5 29,-7.1 29,-4.9 C29,0.1 12.1,8.6 7.5,8.6"/>
<path class="Note" transform="matrix(0.992,0,0,0.992,999.867,1128)" d="M0,4.2 C0,8.5 3.1,13.3 11.2,13.3 C21.6,13.3 32.5,4.8 32.5,-4 C32.5,-9.9 27.5,-13.2 21.3,-13.2 C11.6,-13.2 0,-5 0,4.2"/>
<path class="Note" transform="matrix(0.992,0,0,0.992,1535.86,584.79)" d="M0,4.2 C0,8.5 3.1,13.3 11.2,13.3 C21.6,13.3 32.5,4.8 32.5,-4 C32.5,-9.9 27.5,-13.2 21.3,-13.2 C11.6,-13.2 0,-5 0,4.2"/>
<path class="Note" transform="matrix(0.992,0,0,0.992,717.57,621.99)" d="M21.3,-13.2 C11.6,-13.2 0,-5.1 0,4.2 C0,8.5 3.1,13.3 11.2,13.3 C21.6,13.3 32.5,4.8 32.5,-4 C32.5,-9.9 27.5,-13.2 21.3,-13.2 M7.5,8.6 C4.2,8.6 3.5,5.9 3.5,5 C3.5,0.1 20.3,-8.5 25,-8.5 C27.4,-8.5 29,-7.1 29,-4.9 C29,0.1 12.1,8.6 7.5,8.6"/>
<path class="Note" transform="matrix(0.992,0,0,0.992,1039.63,572.39)" d="M0,4.2 C0,8.5 3.1,13.3 11.2,13.3 C21.6,13.3 32.5,4.8 32.5,-4 C32.5,-9.9 27.5,-13.2 21.3,-13.2 C11.6,-13.2 0,-5 0,4.2"/>
<path class="Note" transform="matrix(0.992,0,0,0.992,1454.33,572.39)" d="M0,4.2 C0,8.5 3.1,13.3 11.2,13.3 C21.6,13.3 32.5,4.8 32.5,-4 C32.5,-9.9 27.5,-13.2 21.3,-13.2 C11.6,-13.2 0,-5 0,4.2"/>
<path class="Note" transform="matrix(0.992,0,0,0.992,1816.37,1128)" d="M0,4.2 C0,8.5 3.1,13.3 11.2,13.3 C21.6,13.3 32.5,4.8 32.5,-4 C32.5,-9.9 27.5,-13.2 21.3,-13.2 C11.6,-13.2 0,-5 0,4.2"/>
<path class="Note" transform="matrix(0.992,0,0,0.992,324.663,1066)" d="M21.3,-13.2 C11.6,-13.2 0,-5.1 0,4.2 C0,8.5 3.1,13.3 11.2,13.3 C21.6,13.3 32.5,4.8 32.5,-4 C32.5,-9.9 27.5,-13.2 21.3,-13.2 M7.5,8.6 C4.2,8.6 3.5,5.9 3.5,5 C3.5,0.1 20.3,-8.5 25,-8.5 C27.4,-8.5 29,-7.1 29,-4.9 C29,0.1 12.1,8.6 7.5,8.6"/>
<path class="Note" transform="matrix(0.992,0,0,0.992,1686.19,1152.8)" d="M21.3,-13.2 C11.6,-13.2 0,-5.1 0,4.2 C0,8.5 3.1,13.3 11.2,13.3 C21.6,13.3 32.5,4.8 32.5,-4 C32.5,-9.9 27.5,-13.2 21.3,-13.2 M7.5,8.6 C4.2,8.6 3.5,5.9 3.5,5 C3.5,0.1 20.3,-8.5 25,-8.5 C27.4,-8.5 29,-7.1 29,-4.9 C29,0.1 12.1,8.6 7.5,8.6"/>
<path class="Note" transform="matrix(0.992,0,0,0.992,1372.8,559.99)" d="M0,4.2 C0,8.5 3.1,13.3 11.2,13.3 C21.6,13.3 32.5,4.8 32.5,-4 C32.5,-9.9 27.5,-13.2 21.3,-13.2 C11.6,-13.2 0,-5 0,4.2"/>
<path class="Note" transform="matrix(0.992,0,0,0.992,454.84,1078.4)" d="M0,4.2 C0,8.5 3.1,13.3 11.2,13.3 C21.6,13.3 32.5,4.8 32.5,-4 C32.5,-9.9 27.5,-13.2 21.3,-13.2 C11.6,-13.2 0,-5 0,4.2"/>
<path class="Note" transform="matrix(0.992,0,0,0.992,1903.15,1115.6)" d="M0,4.2 C0,8.5 3.1,13.3 11.2,13.3 C21.6,13.3 32.5,4.8 32.5,-4 C32.5,-9.9 27.5,-13.2 21.3,-13.2 C11.6,-13.2 0,-5 0,4.2"/>
<path class="Note" transform="matrix(0.992,0,0,0.992,921.394,584.79)" d="M0,4.2 C0,8.5 3.1,13.3 11.2,13.3 C21.6,13.3 32.5,4.8 32.5,-4 C32.5,-9.9 27.5,-13.2 21.3,-13.2 C11.6,-13.2 0,-5 0,4.2"/>
<path class="Note" transform="matrix(0.992,0,0,0.992,541.625,1090.8)" d="M0,4.2 C0,8.5 3.1,13.3 11.2,13.3 C21.6,13.3 32.5,4.8 32.5,-4 C32.5,-9.9 27.5,-13.2 21.3,-13.2 C11.6,-13.2 0,-5 0,4.2"/>
<path class="Note" transform="matrix(0.992,0,0,0.992,832.986,1128)" d="M21.3,-13.2 C11.6,-13.2 0,-5.1 0,4.2 C0,8.5 3.1,13.3 11.2,13.3 C21.6,13.3 32.5,4.8 32.5,-4 C32.5,-9.9 27.5,-13.2 21.3,-13.2 M7.5,8.6 C4.2,8.6 3.5,5.9 3.5,5 C3.5,0.1 20.3,-8.5 25,-8.5 C27.4,-8.5 29,-7.1 29,-4.9 C29,0.1 12.1,8.6 7.5,8.6"/>
<path class="Note" transform="matrix(0.992,0,0,0.992,1213.8,572.39)" d="M21.3,-13.2 C11.6,-13.2 0,-5.1 0,4.2 C0,8.5 3.1,13.3 11.2,13.3 C21.6,13.3 32.5,4.8 32.5,-4 C32.5,-9.9 27.5,-13.2 21.3,-13.2 M7.5,8.6 C4.2,8.6 3.5,5.9 3.5,5 C3.5,0.1 20.3,-8.5 25,-8.5 C27.4,-8.5 29,-7.1 29,-4.9 C29,0.1 12.1,8.6 7.5,8.6"/>
<path class="Note" transform="matrix(0.992,0,0,0.992,1142.98,572.39)" d="M0,4.2 C0,8.5 3.1,13.3 11.2,13.3 C21.6,13.3 32.5,4.8 32.5,-4 C32.5,-9.9 27.5,-13.2 21.3,-13.2 C11.6,-13.2 0,-5 0,4.2"/>
<path class="Note" transform="matrix(0.992,0,0,0.992,665.114,1103.2)" d="M0,4.2 C0,8.5 3.1,13.3 11.2,13.3 C21.6,13.3 32.5,4.8 32.5,-4 C32.5,-9.9 27.5,-13.2 21.3,-13.2 C11.6,-13.2 0,-5 0,4.2"/>
<path class="Note" transform="matrix(0.992,0,0,0.992,1397.68,1140.4)" d="M21.3,-13.2 C11.6,-13.2 0,-5.1 0,4.2 C0,8.5 3.1,13.3 11.2,13.3 C21.6,13.3 32.5,4.8 32.5,-4 C32.5,-9.9 27.5,-13.2 21.3,-13.2 M7.5,8.6 C4.2,8.6 3.5,5.9 3.5,5 C3.5,0.1 20.3,-8.5 25,-8.5 C27.4,-8.5 29,-7.1 29,-4.9 C29,0.1 12.1,8.6 7.5,8.6"/>
<path class="Note" transform="matrix(0.992,0,0,0.992,775.129,1090.8)" d="M0,4.2 C0,8.5 3.1,13.3 11.2,13.3 C21.6,13.3 32.5,4.8 32.5,-4 C32.5,-9.9 27.5,-13.2 21.3,-13.2 C11.6,-13.2 0,-5 0,4.2"/>
<path class="Note" transform="matrix(0.992,0,0,0.992,1277.75,1140.4)" d="M0,4.2 C0,8.5 3.1,13.3 11.2,13.3 C21.6,13.3 32.5,4.8 32.5,-4 C32.5,-9.9 27.5,-13.2 21.3,-13.2 C11.6,-13.2 0,-5 0,4.2"/>
<path class="Clef" transform="matrix(0.992,0,0,0.992,123,1115.6)" d="M12.3,51.3 C12.3,57.9 17.3,66.6 30.8,66.6 C35.5,66.6 39.6,65.4 43.2,63.2 C48.6,59.4 50,52.8 50,46.5 C50,42.6 49.4,38.1 48.4,32.4 C48.1,30.4 47.5,27.4 46.9,23.5 C56.7,20.3 64,10.1 64,-0.2 C64,-15.3 53.3,-25.5 38.7,-25.5 C37.7,-31.5 36.7,-37.4 35.9,-43 C46.4,-54.1 53.7,-66.6 53.7,-82.5 C53.7,-91.6 50.9,-99 49.3,-102.6 C46.9,-107.7 44,-111.2 42.2,-111.2 C41.5,-111.2 38.4,-110 35.1,-106.1 C28.7,-98.5 26.9,-85.7 26.9,-77.3 C26.9,-71.9 27.4,-67 29.1,-55.8 C29,-55.7 23.8,-50.4 21.7,-48.7 C12.6,-40.3 0,-28.1 0,-8.1 C0,10.6 16.3,25.3 34.9,25.3 C37.8,25.3 40.5,25 42.8,24.6 C44.7,34.2 45.9,41.2 45.9,46.5 C45.9,56.9 40.5,62.4 30.4,62.4 C28,62.4 25.9,61.9 25.7,61.9 C25.6,61.8 25.4,61.7 25.4,61.6 C25.4,61.4 25.6,61.3 25.9,61.3 C30.6,60.5 35.3,56.5 35.3,50.1 C35.3,44.7 31.2,39 23.7,39 C16.7,39 12.3,44.7 12.3,51.3 M33.2,-82.2 C34.1,-86.2 38.7,-96.7 43.9,-96.7 C45.4,-96.7 47.8,-91.9 47.8,-84.9 C47.8,-74.5 40.1,-66.7 33.2,-59.9 C32.6,-63.9 32.1,-67.8 32.1,-72 C32.1,-75.7 32.4,-79.1 33.2,-82.2 M42,20.6 C40,21 38.1,21.2 36.2,21.2 C21.9,21.2 9.7,11.2 9.7,-3.9 C9.7,-16.1 18.3,-27 27.1,-34.6 C28.8,-36.1 30.4,-37.5 31.9,-39 C32.8,-33.6 33.5,-28.9 34.2,-24.8 C25.1,-22.1 18.9,-12.5 18.9,-3.1 C18.9,3.9 24.4,13.5 32.4,13.5 C33.2,13.5 34.1,13.1 34.1,12.2 C34.1,11.3 33.1,10.8 31.9,10 C28,7.6 25.8,5 25.8,0.1 C25.8,-6 30.4,-10.9 36.2,-12.3 L42,20.6 M56.2,2.1 C56.2,9.2 53.3,16.5 46.2,19.4 C44.1,7.4 41.4,-8.5 40.7,-12.9 C49.7,-12.9 56.2,-6.8 56.2,2.1"/>
<path class="Clef" transform="matrix(0.992,0,0,0.992,247,584.79)" d="M12.3,51.3 C12.3,57.9 17.3,66.6 30.8,66.6 C35.5,66.6 39.6,65.4 43.2,63.2 C48.6,59.4 50,52.8 50,46.5 C50,42.6 49.4,38.1 48.4,32.4 C48.1,30.4 47.5,27.4 46.9,23.5 C56.7,20.3 64,10.1 64,-0.2 C64,-15.3 53.3,-25.5 38.7,-25.5 C37.7,-31.5 36.7,-37.4 35.9,-43 C46.4,-54.1 53.7,-66.6 53.7,-82.5 C53.7,-91.6 50.9,-99 49.3,-102.6 C46.9,-107.7 44,-111.2 42.2,-111.2 C41.5,-111.2 38.4,-110 35.1,-106.1 C28.7,-98.5 26.9,-85.7 26.9,-77.3 C26.9,-71.9 27.4,-67 29.1,-55.8 C29,-55.7 23.8,-50.4 21.7,-48.7 C12.6,-40.3 0,-28.1 0,-8.1 C0,10.6 16.3,25.3 34.9,25.3 C37.8,25.3 40.5,25 42.8,24.6 C44.7,34.2 45.9,41.2 45.9,46.5 C45.9,56.9 40.5,62.4 30.4,62.4 C28,62.4 25.9,61.9 25.7,61.9 C25.6,61.8 25.4,61.7 25.4,61.6 C25.4,61.4 25.6,61.3 25.9,61.3 C30.6,60.5 35.3,56.5 35.3,50.1 C35.3,44.7 31.2,39 23.7,39 C16.7,39 12.3,44.7 12.3,51.3 M33.2,-82.2 C34.1,-86.2 38.7,-96.7 43.9,-96.7 C45.4,-96.7 47.8,-91.9 47.8,-84.9 C47.8,-74.5 40.1,-66.7 33.2,-59.9 C32.6,-63.9 32.1,-67.8 32.1,-72 C32.1,-75.7 32.4,-79.1 33.2,-82.2 M42,20.6 C40,21 38.1,21.2 36.2,21.2 C21.9,21.2 9.7,11.2 9.7,-3.9 C9.7,-16.1 18.3,-27 27.1,-34.6 C28.8,-36.1 30.4,-37.5 31.9,-39 C32.8,-33.6 33.5,-28.9 34.2,-24.8 C25.1,-22.1 18.9,-12.5 18.9,-3.1 C18.9,3.9 24.4,13.5 32.4,13.5 C33.2,13.5 34.1,13.1 34.1,12.2 C34.1,11.3 33.1,10.8 31.9,10 C28,7.6 25.8,5 25.8,0.1 C25.8,-6 30.4,-10.9 36.2,-12.3 L42,20.6 M56.2,2.1 C56.2,9.2 53.3,16.5 46.2,19.4 C44.1,7.4 41.4,-8.5 40.7,-12.9 C49.7,-12.9 56.2,-6.8 56.2,2.1"/>
<path class="KeySig" transform="matrix(0.992,0,0,0.992,211.28,1041.2)" d="M23.3,-10.5 C23.9,-10.6 24.4,-11.3 24.4,-11.9 L24.4,-17.8 C24.4,-18.8 23.7,-19.2 22.8,-19.2 L19.5,-18.5 L19.5,-33.4 L16.7,-33.4 L16.7,-17.9 L7.8,-16.1 L7.8,-30.2 L5,-30.2 L5,-15.5 L1.1,-14.7 C0.5,-14.6 0,-13.9 0,-13.3 L0,-7.5 C0,-6.4 0.8,-6.1 1.7,-6.1 L5,-6.8 L5,9.7 L1.1,10.5 C0.5,10.6 0,11.3 0,11.9 L0,17.7 C0,18.8 0.8,19.1 1.7,19.1 L5,18.4 L5,33.3 L7.8,33.3 L7.8,17.8 L16.7,16 L16.7,30.1 L19.5,30.1 L19.5,15.4 L23.3,14.7 C23.9,14.6 24.4,13.9 24.4,13.3 L24.4,7.4 C24.4,6.4 23.7,6 22.8,6 L19.5,6.7 L19.5,-9.8 L23.3,-10.5 M7.8,-7.4 L16.7,-9.2 L16.7,7.3 L7.8,9.2 L7.8,-7.4 "/>
<path class="KeySig" transform="matrix(0.992,0,0,0.992,238.452,1078.4)" d="M23.3,-10.5 C23.9,-10.6 24.4,-11.3 24.4,-11.9 L24.4,-17.8 C24.4,-18.8 23.7,-19.2 22.8,-19.2 L19.5,-18.5 L19.5,-33.4 L16.7,-33.4 L16.7,-17.9 L7.8,-16.1 L7.8,-30.2 L5,-30.2 L5,-15.5 L1.1,-14.7 C0.5,-14.6 0,-13.9 0,-13.3 L0,-7.5 C0,-6.4 0.8,-6.1 1.7,-6.1 L5,-6.8 L5,9.7 L1.1,10.5 C0.5,10.6 0,11.3 0,11.9 L0,17.7 C0,18.8 0.8,19.1 1.7,19.1 L5,18.4 L5,33.3 L7.8,33.3 L7.8,17.8 L16.7,16 L16.7,30.1 L19.5,30.1 L19.5,15.4 L23.3,14.7 C23.9,14.6 24.4,13.9 24.4,13.3 L24.4,7.4 C24.4,6.4 23.7,6 22.8,6 L19.5,6.7 L19.5,-9.8 L23.3,-10.5 M7.8,-7.4 L16.7,-9.2 L16.7,7.3 L7.8,9.2 L7.8,-7.4 "/>
<path class="KeySig" transform="matrix(0.992,0,0,0.992,335.28,510.39)" d="M23.3,-10.5 C23.9,-10.6 24.4,-11.3 24.4,-11.9 L24.4,-17.8 C24.4,-18.8 23.7,-19.2 22.8,-19.2 L19.5,-18.5 L19.5,-33.4 L16.7,-33.4 L16.7,-17.9 L7.8,-16.1 L7.8,-30.2 L5,-30.2 L5,-15.5 L1.1,-14.7 C0.5,-14.6 0,-13.9 0,-13.3 L0,-7.5 C0,-6.4 0.8,-6.1 1.7,-6.1 L5,-6.8 L5,9.7 L1.1,10.5 C0.5,10.6 0,11.3 0,11.9 L0,17.7 C0,18.8 0.8,19.1 1.7,19.1 L5,18.4 L5,33.3 L7.8,33.3 L7.8,17.8 L16.7,16 L16.7,30.1 L19.5,30.1 L19.5,15.4 L23.3,14.7 C23.9,14.6 24.4,13.9 24.4,13.3 L24.4,7.4 C24.4,6.4 23.7,6 22.8,6 L19.5,6.7 L19.5,-9.8 L23.3,-10.5 M7.8,-7.4 L16.7,-9.2 L16.7,7.3 L7.8,9.2 L7.8,-7.4 "/>
<path class="KeySig" transform="matrix(0.992,0,0,0.992,362.452,547.59)" d="M23.3,-10.5 C23.9,-10.6 24.4,-11.3 24.4,-11.9 L24.4,-17.8 C24.4,-18.8 23.7,-19.2 22.8,-19.2 L19.5,-18.5 L19.5,-33.4 L16.7,-33.4 L16.7,-17.9 L7.8,-16.1 L7.8,-30.2 L5,-30.2 L5,-15.5 L1.1,-14.7 C0.5,-14.6 0,-13.9 0,-13.3 L0,-7.5 C0,-6.4 0.8,-6.1 1.7,-6.1 L5,-6.8 L5,9.7 L1.1,10.5 C0.5,10.6 0,11.3 0,11.9 L0,17.7 C0,18.8 0.8,19.1 1.7,19.1 L5,18.4 L5,33.3 L7.8,33.3 L7.8,17.8 L16.7,16 L16.7,30.1 L19.5,30.1 L19.5,15.4 L23.3,14.7 C23.9,14.6 24.4,13.9 24.4,13.3 L24.4,7.4 C24.4,6.4 23.7,6 22.8,6 L19.5,6.7 L19.5,-9.8 L23.3,-10.5 M7.8,-7.4 L16.7,-9.2 L16.7,7.3 L7.8,9.2 L7.8,-7.4 "/>
<path class="TimeSig" transform="matrix(0.992,0,0,0.992,410.075,535.19)" d="M20.8,12.7 L20.8,20.1 L12.5,20.1 C11.8,20.1 11.1,20.7 11.1,21.5 L11.1,23.4 C11.1,24.2 11.8,24.8 12.5,24.8 L42.8,24.8 C43.6,24.8 44.2,24.2 44.2,23.4 L44.2,21.5 C44.2,20.7 43.6,20.1 42.8,20.1 L33.9,20.1 L33.9,12.7 L42.8,12.7 C43.6,12.7 44.2,12 44.2,11.2 L44.2,9.3 C44.2,8.6 43.6,7.9 42.8,7.9 L33.9,7.9 L33.9,-8 C33.9,-8.6 33.6,-9.1 33.1,-9.3 L31.9,-9.9 C31.7,-10 31.4,-10.1 31.2,-10.1 C30.9,-10 30.5,-9.9 30.3,-9.7 L21.2,-1.4 C20.9,-1.1 20.8,-0.7 20.8,-0.3 L20.8,7.9 L9.3,7.9 C9.3,7.9 20.4,-4.1 32.2,-19.9 C32.6,-20.4 32.7,-20.9 32.7,-21.3 C32.7,-21.8 32.5,-22.2 32.4,-22.3 L30.2,-24.5 C30,-24.7 29.6,-24.9 29.2,-24.9 C28.6,-24.9 15.1,-24.9 14.4,-24.9 C13.6,-24.9 13.1,-24.3 13,-23.7 C13,-23.7 12.5,-16.3 9.9,-8.2 C7.3,-0.1 4.3,4.9 1.7,8.6 C1.7,8.6 1.4,9.1 1.4,9.7 C1.4,9.9 1.4,10.1 1.5,10.3 C1.9,11 2.5,12.1 2.5,12.1 C2.5,12.1 2.7,12.7 3.6,12.7 L20.8,12.7 "/>
<path class="TimeSig" transform="matrix(0.992,0,0,0.992,410.075,584.79)" d="M20.8,12.7 L20.8,20.1 L12.5,20.1 C11.8,20.1 11.1,20.7 11.1,21.5 L11.1,23.4 C11.1,24.2 11.8,24.8 12.5,24.8 L42.8,24.8 C43.6,24.8 44.2,24.2 44.2,23.4 L44.2,21.5 C44.2,20.7 43.6,20.1 42.8,20.1 L33.9,20.1 L33.9,12.7 L42.8,12.7 C43.6,12.7 44.2,12 44.2,11.2 L44.2,9.3 C44.2,8.6 43.6,7.9 42.8,7.9 L33.9,7.9 L33.9,-8 C33.9,-8.6 33.6,-9.1 33.1,-9.3 L31.9,-9.9 C31.7,-10 31.4,-10.1 31.2,-10.1 C30.9,-10 30.5,-9.9 30.3,-9.7 L21.2,-1.4 C20.9,-1.1 20.8,-0.7 20.8,-0.3 L20.8,7.9 L9.3,7.9 C9.3,7.9 20.4,-4.1 32.2,-19.9 C32.6,-20.4 32.7,-20.9 32.7,-21.3 C32.7,-21.8 32.5,-22.2 32.4,-22.3 L30.2,-24.5 C30,-24.7 29.6,-24.9 29.2,-24.9 C28.6,-24.9 15.1,-24.9 14.4,-24.9 C13.6,-24.9 13.1,-24.3 13,-23.7 C13,-23.7 12.5,-16.3 9.9,-8.2 C7.3,-0.1 4.3,4.9 1.7,8.6 C1.7,8.6 1.4,9.1 1.4,9.7 C1.4,9.9 1.4,10.1 1.5,10.3 C1.9,11 2.5,12.1 2.5,12.1 C2.5,12.1 2.7,12.7 3.6,12.7 L20.8,12.7 "/>
<path class="Rest" transform="matrix(0.992,0,0,0.992,546.262,535.19)" d="M1.4,-0.5 C0.6,-0.5 0,0.1 0,0.9 L0,11.7 C0,12.5 0.6,13.1 1.4,13.1 L31.1,13.1 C31.9,13.1 32.5,12.5 32.5,11.7 L32.5,0.9 C32.5,0.1 31.9,-0.5 31.1,-0.5 L1.4,-0.5 "/>
<path class="Rest" transform="matrix(0.992,0,0,0.992,1562.7,1090.8)" d="M23,16.6 C22.9,16.5 22.7,16.3 22.4,15.9 L10.9,1.7 C10.8,1.6 10.7,1.3 10.7,1.1 C10.7,0.8 10.8,0.4 10.9,0.2 L21.1,-15.2 C21.2,-15.4 21.3,-15.7 21.3,-15.9 L21.3,-16.8 C21.3,-17.1 21.2,-17.4 21,-17.6 L4.8,-39.5 C4.8,-39.5 4.4,-40.1 3.8,-40.1 C3.5,-40.1 3.3,-40.1 3,-39.8 C2.6,-39.5 2.5,-39.1 2.5,-38.8 C2.5,-38.2 2.8,-37.7 2.8,-37.7 L10.4,-27.3 C10.6,-27 10.7,-26.6 10.7,-26.1 C10.7,-25.7 10.6,-25.2 10.4,-24.9 L0.3,-9.5 C0.2,-9.3 0.1,-8.9 0.1,-8.7 L0.1,-7.8 C0.1,-7.5 0.2,-7.2 0.4,-7 L11.6,6.9 C11.2,6.8 10.3,6.6 9.1,6.6 C4,6.6 0,10.8 0,15.9 C0,17.3 0.3,18.7 1.1,19.8 C3.2,23 10.7,32.5 10.7,32.5 C10.7,32.5 11.2,33.1 11.9,33.1 C12.1,33.1 12.3,33.1 12.5,32.9 C13,32.5 13.2,32.1 13.2,31.7 C13.2,31.3 13,31 12.9,30.8 C12.6,30.3 9.4,24.5 9.4,24.5 C9.4,24.5 8.7,23.1 8.7,21.3 C8.7,18.1 11.1,15.5 14.3,15.5 C15.6,15.5 16.7,15.9 17.5,16.4 L21.4,18.9 C21.4,18.9 21.8,19.1 22.2,19.1 C22.6,19.1 22.9,19 23.2,18.6 C23.4,18.3 23.5,18 23.5,17.7 C23.5,17.4 23.4,17.2 23.2,16.9 L23,16.6 "/>
<path class="Hook" transform="matrix(0.992,0,0,0.992,1172.73,491.79)" d="M0,22.7 C0,23 0.1,23.6 0.8,23.8 C5.1,25.2 13.7,30.6 20.2,41.7 C22,44.8 24.9,49.1 24.9,57.4 C24.9,64.6 23.1,72 20.4,79.2 C20.2,79.8 20.1,80.3 20.1,80.7 C20.1,81.4 20.5,81.7 21.2,81.7 C21.8,81.7 22.3,81.3 22.7,80.6 C27.2,72.6 28.9,63.3 28.9,54.2 C28.4,41.3 21,31.8 21,31.8 C21.3,31.8 11.8,19.5 9.1,15.3 C5.4,9.6 3.7,3.9 3.5,3.5 C3.4,3.2 2.5,-0.4 2.5,-0.4 C2.4,-0.8 1.9,-1.2 1.3,-1.2 C0.6,-1.2 0,-0.6 0,0.1 L0,22.7 "/>
<path class="Hook" transform="matrix(0.992,0,0,0.992,1307.51,1053.6)" d="M0,22.7 C0,23 0.1,23.6 0.8,23.8 C5.1,25.2 13.7,30.6 20.2,41.7 C22,44.8 24.9,49.1 24.9,57.4 C24.9,64.6 23.1,72 20.4,79.2 C20.2,79.8 20.1,80.3 20.1,80.7 C20.1,81.4 20.5,81.7 21.2,81.7 C21.8,81.7 22.3,81.3 22.7,80.6 C27.2,72.6 28.9,63.3 28.9,54.2 C28.4,41.3 21,31.8 21,31.8 C21.3,31.8 11.8,19.5 9.1,15.3 C5.4,9.6 3.7,3.9 3.5,3.5 C3.4,3.2 2.5,-0.4 2.5,-0.4 C2.4,-0.8 1.9,-1.2 1.3,-1.2 C0.6,-1.2 0,-0.6 0,0.1 L0,22.7 "/>
<path class="Hook" transform="matrix(0.992,0,0,0.992,1639.21,640.59)" d="M0,-0.1 C0,0.6 0.6,1.2 1.3,1.2 C1.8,1.2 2.4,0.8 2.5,0.4 C2.5,0.3 3.4,-3.2 3.5,-3.5 C3.6,-3.9 4.5,-7.7 8.1,-13.6 C12,-20.1 18,-24.8 23,-31.8 C28,-38.8 30.9,-45.4 30.9,-54.2 C30.9,-63.3 28.9,-70.9 23.5,-80.6 C23.2,-81.3 22.6,-81.7 22,-81.7 C21.8,-81.7 21.6,-81.7 21.5,-81.6 C21,-81.4 20.8,-81 20.8,-80.4 C20.8,-80.1 20.9,-79.7 21.1,-79.2 C25.1,-69.9 26.7,-64.6 26.7,-57.4 C26.7,-49.1 23.8,-44.8 22,-41.7 C15.5,-30.6 5,-25.2 0.8,-23.8 C0.1,-23.6 0,-23 0,-22.7 L0,-0.1 "/>
<path class="Hook" transform="matrix(0.992,0,0,0.992,775.129,1171.4)" d="M0,-0.1 C0,0.6 0.6,1.2 1.3,1.2 C1.8,1.2 2.4,0.8 2.5,0.4 C2.5,0.3 3.4,-3.2 3.5,-3.5 C3.6,-3.9 4.5,-7.7 8.1,-13.6 C12,-20.1 18,-24.8 23,-31.8 C28,-38.8 30.9,-45.4 30.9,-54.2 C30.9,-63.3 28.9,-70.9 23.5,-80.6 C23.2,-81.3 22.6,-81.7 22,-81.7 C21.8,-81.7 21.6,-81.7 21.5,-81.6 C21,-81.4 20.8,-81 20.8,-80.4 C20.8,-80.1 20.9,-79.7 21.1,-79.2 C25.1,-69.9 26.7,-64.6 26.7,-57.4 C26.7,-49.1 23.8,-44.8 22,-41.7 C15.5,-30.6 5,-25.2 0.8,-23.8 C0.1,-23.6 0,-23 0,-22.7 L0,-0.1 "/>
<path class="Hook" transform="matrix(0.992,0,0,0.992,1139.63,1028.8)" d="M0,22.7 C0,23 0.1,23.6 0.8,23.8 C5.1,25.2 13.7,30.6 20.2,41.7 C22,44.8 24.9,49.1 24.9,57.4 C24.9,64.6 23.1,72 20.4,79.2 C20.2,79.8 20.1,80.3 20.1,80.7 C20.1,81.4 20.5,81.7 21.2,81.7 C21.8,81.7 22.3,81.3 22.7,80.6 C27.2,72.6 28.9,63.3 28.9,54.2 C28.4,41.3 21,31.8 21,31.8 C21.3,31.8 11.8,19.5 9.1,15.3 C5.4,9.6 3.7,3.9 3.5,3.5 C3.4,3.2 2.5,-0.4 2.5,-0.4 C2.4,-0.8 1.9,-1.2 1.3,-1.2 C0.6,-1.2 0,-0.6 0,0.1 L0,22.7 "/>
<path class="Lyrics" d="M1935.88,1240.3 L1935.88,1196.6 L1932.08,1196.6 L1932.08,1240.3 L1935.88,1240.3 M1923.33,1229.05 L1923.33,1201.1 L1902.68,1201.1 L1902.68,1229.05 L1923.33,1229.05 M1919.53,1225.9 L1906.53,1225.9 L1906.53,1204.25 L1919.53,1204.25 L1919.53,1225.9 "/>
<path class="Lyrics" d="M1034.12,1232 C1034.12,1226.85 1028.82,1223.65 1019.42,1223.65 C1010.07,1223.65 1004.82,1226.85 1004.82,1232 C1004.82,1237.1 1010.07,1240.3 1019.42,1240.3 C1028.82,1240.3 1034.12,1237.1 1034.12,1232 M999.221,1203.45 L1009.17,1203.45 C1009.17,1204.25 1009.17,1205.3 1009.12,1205.8 C1008.92,1212 1003.37,1217.55 997.871,1219.65 L999.921,1222.7 C1004.62,1220.65 1009.87,1215.4 1011.07,1211.3 C1012.87,1215.25 1017.57,1219.35 1022.12,1221.15 L1024.37,1218.1 C1019.02,1216.5 1013.42,1211.75 1013.07,1205.8 C1013.02,1205.3 1013.02,1204.3 1013.02,1203.45 L1022.87,1203.45 L1022.87,1200.25 L999.221,1200.25 L999.221,1203.45 M1019.42,1226.85 C1026.27,1226.85 1030.22,1228.7 1030.22,1232 C1030.22,1235.25 1026.27,1237.1 1019.42,1237.1 C1012.72,1237.1 1008.67,1235.25 1008.67,1232 C1008.67,1228.7 1012.72,1226.85 1019.42,1226.85 M1029.97,1211.15 L1029.97,1223.75 L1033.77,1223.75 L1033.77,1196.6 L1029.97,1196.6 L1029.97,1207.95 L1021.17,1207.95 L1021.17,1211.15 L1029.97,1211.15 "/>
<path class="Lyrics" d="M1875.3,670.17 C1868.95,670.17 1865.7,676.37 1865.7,685.12 C1865.7,693.92 1868.95,700.07 1875.3,700.07 C1881.3,700.07 1884.5,694.72 1884.9,686.82 L1889.6,686.82 L1889.6,707.97 L1893.3,707.97 L1893.3,667.22 L1889.6,667.22 L1889.6,683.67 L1884.9,683.67 C1884.6,675.72 1881.35,670.17 1875.3,670.17 M1881.15,685.12 C1881.15,692.22 1878.85,696.72 1875.3,696.72 C1871.8,696.72 1869.55,692.22 1869.55,685.12 C1869.55,678.07 1871.8,673.52 1875.3,673.52 C1878.85,673.52 1881.15,678.07 1881.15,685.12 M1901.85,710.07 L1901.85,666.37 L1898.1,666.37 L1898.1,710.07 L1901.85,710.07 "/>
<path class="Lyrics" d="M1780.83,680.57 L1780.83,677.37 L1774.18,677.37 L1774.18,666.37 L1770.38,666.37 L1770.38,691.27 L1774.18,691.27 L1774.18,680.57 L1780.83,680.57 M1774.18,709.47 L1774.18,693.57 L1746.73,693.57 L1746.73,709.47 L1774.18,709.47 M1770.38,706.32 L1750.53,706.32 L1750.53,696.72 L1770.38,696.72 L1770.38,706.32 M1762.98,688.72 L1762.98,669.62 L1742.13,669.62 L1742.13,688.72 L1762.98,688.72 M1759.18,685.57 L1745.93,685.57 L1745.93,672.77 L1759.18,672.77 L1759.18,685.57 "/>
<path class="Lyrics" d="M1672.81,710.07 L1672.81,666.37 L1669.06,666.37 L1669.06,683.77 L1663.31,683.77 L1663.31,667.42 L1659.61,667.42 L1659.61,707.82 L1663.31,707.82 L1663.31,686.97 L1669.06,686.97 L1669.06,710.07 L1672.81,710.07 M1656.66,693.87 C1653.46,694.72 1646.21,695.32 1641.66,695.22 L1641.66,671.17 L1637.86,671.17 L1637.86,698.52 L1641.21,698.52 C1646.76,698.52 1653.46,697.92 1657.11,697.07 L1656.66,693.87 "/>
<path class="Lyrics" d="M1144.42,1240.05 L1144.42,1237.05 L1118.32,1237.05 L1118.32,1231.8 L1142.77,1231.8 L1142.77,1221.25 L1114.37,1221.25 L1114.37,1224.25 L1138.97,1224.25 L1138.97,1229.05 L1114.52,1229.05 L1114.52,1240.05 L1144.42,1240.05 M1129.42,1199 L1109.47,1199 L1109.47,1202.2 L1125.07,1202.2 C1123.62,1209.35 1117.22,1215.15 1107.62,1217.55 L1109.52,1220.65 C1120.42,1217.5 1128.52,1210.5 1129.42,1199 M1129.87,1206.05 L1138.97,1206.05 L1138.97,1211.1 L1129.32,1211.1 L1129.32,1214.15 L1138.97,1214.15 L1138.97,1218.85 L1142.77,1218.85 L1142.77,1196.6 L1138.97,1196.6 L1138.97,1203.05 L1129.87,1203.05 L1129.87,1206.05 "/>
<path class="Lyrics" d="M361.023,1214.6 L361.023,1211.4 L354.373,1211.4 L354.373,1196.6 L350.573,1196.6 L350.573,1228.85 L354.373,1228.85 L354.373,1214.6 L361.023,1214.6 M356.073,1238.9 L356.073,1235.7 L330.773,1235.7 L330.773,1227.7 L326.973,1227.7 L326.973,1238.9 L356.073,1238.9 M339.423,1201.5 L339.423,1198.15 L326.823,1198.15 L326.823,1201.5 L339.423,1201.5 M346.173,1207.95 L346.173,1204.8 L320.573,1204.8 L320.573,1207.95 L346.173,1207.95 M343.673,1217.95 C343.673,1213.25 339.273,1210.3 333.373,1210.3 C327.523,1210.3 323.123,1213.25 323.123,1217.95 C323.123,1222.55 327.573,1225.6 333.373,1225.6 C339.273,1225.6 343.673,1222.55 343.673,1217.95 M340.073,1217.95 C340.073,1220.8 336.923,1222.55 333.373,1222.55 C329.873,1222.55 326.723,1220.8 326.723,1217.95 C326.723,1215.05 329.873,1213.3 333.373,1213.3 C336.923,1213.3 340.073,1215.05 340.073,1217.95"/>
<path class="Lyrics" d="M1572.22,684.37 L1572.22,681.17 L1565.57,681.17 L1565.57,666.37 L1561.77,666.37 L1561.77,698.62 L1565.57,698.62 L1565.57,684.37 L1572.22,684.37 M1567.27,708.67 L1567.27,705.47 L1541.97,705.47 L1541.97,697.47 L1538.17,697.47 L1538.17,708.67 L1567.27,708.67 M1550.62,671.27 L1550.62,667.92 L1538.02,667.92 L1538.02,671.27 L1550.62,671.27 M1557.37,677.72 L1557.37,674.57 L1531.77,674.57 L1531.77,677.72 L1557.37,677.72 M1554.87,687.72 C1554.87,683.02 1550.47,680.07 1544.57,680.07 C1538.72,680.07 1534.32,683.02 1534.32,687.72 C1534.32,692.32 1538.77,695.37 1544.57,695.37 C1550.47,695.37 1554.87,692.32 1554.87,687.72 M1551.27,687.72 C1551.27,690.57 1548.12,692.32 1544.57,692.32 C1541.07,692.32 1537.92,690.57 1537.92,687.72 C1537.92,684.82 1541.07,683.07 1544.57,683.07 C1548.12,683.07 1551.27,684.82 1551.27,687.72"/>
<path class="Lyrics" d="M699.855,1239.7 L699.855,1224.35 L670.905,1224.35 L670.905,1239.7 L699.855,1239.7 M699.855,1221.95 L699.855,1196.6 L696.055,1196.6 L696.055,1207.9 L690.555,1207.9 L690.555,1197.4 L686.855,1197.4 L686.855,1221.75 L690.555,1221.75 L690.555,1211.05 L696.055,1211.05 L696.055,1221.95 L699.855,1221.95 M696.005,1236.55 L674.705,1236.55 L674.705,1227.45 L696.005,1227.45 L696.005,1236.55 M685.105,1217.4 C680.955,1215.6 675.655,1211.15 675.655,1204.45 L675.655,1199.1 L671.955,1199.1 L671.955,1204.55 C671.955,1211.1 667.255,1216.4 662.605,1218.9 L664.955,1221.8 C669.005,1219.45 672.805,1214.75 673.905,1211.2 C675.405,1214.6 679.155,1218.45 683.055,1220.3 L685.105,1217.4 "/>
<path class="Lyrics" d="M1204.1,1214.6 L1204.1,1211.4 L1197.45,1211.4 L1197.45,1196.6 L1193.65,1196.6 L1193.65,1228.85 L1197.45,1228.85 L1197.45,1214.6 L1204.1,1214.6 M1199.15,1238.9 L1199.15,1235.7 L1173.85,1235.7 L1173.85,1227.7 L1170.05,1227.7 L1170.05,1238.9 L1199.15,1238.9 M1182.5,1201.5 L1182.5,1198.15 L1169.9,1198.15 L1169.9,1201.5 L1182.5,1201.5 M1189.25,1207.95 L1189.25,1204.8 L1163.65,1204.8 L1163.65,1207.95 L1189.25,1207.95 M1186.75,1217.95 C1186.75,1213.25 1182.35,1210.3 1176.45,1210.3 C1170.6,1210.3 1166.2,1213.25 1166.2,1217.95 C1166.2,1222.55 1170.65,1225.6 1176.45,1225.6 C1182.35,1225.6 1186.75,1222.55 1186.75,1217.95 M1183.15,1217.95 C1183.15,1220.8 1180,1222.55 1176.45,1222.55 C1172.95,1222.55 1169.8,1220.8 1169.8,1217.95 C1169.8,1215.05 1172.95,1213.3 1176.45,1213.3 C1180,1213.3 1183.15,1215.05 1183.15,1217.95"/>
<path class="Lyrics" d="M486.494,1220.1 L486.494,1196.6 L482.694,1196.6 L482.694,1207 L475.344,1207 L475.344,1210.15 L482.694,1210.15 L482.694,1220.1 L486.494,1220.1 M490.794,1237.45 C486.094,1235.2 483.094,1230.7 483.094,1225.95 L483.094,1222.25 L479.394,1222.25 L479.394,1225.95 C479.394,1230.6 476.844,1235.4 471.894,1237.65 L473.994,1240.45 C477.444,1238.6 480.394,1235 481.194,1232.1 C482.144,1235.05 485.344,1238.4 488.544,1240.25 L490.794,1237.45 M470.844,1239.7 L470.844,1222.75 L467.244,1222.75 L467.244,1228.2 L459.544,1228.2 L459.544,1222.75 L455.944,1222.75 L455.944,1239.7 L470.844,1239.7 M467.244,1236.7 L459.544,1236.7 L459.544,1231.1 L467.244,1231.1 L467.244,1236.7 M462.394,1198.75 C456.244,1198.75 451.144,1202.85 451.144,1209 C451.144,1215.2 456.294,1219.1 462.394,1219.1 C468.544,1219.1 473.594,1215.2 473.594,1208.95 C473.594,1202.75 468.544,1198.75 462.394,1198.75 M462.394,1202.05 C466.894,1202.05 469.794,1204.9 469.794,1209 C469.794,1213.15 466.844,1215.95 462.394,1215.95 C458.094,1215.95 454.944,1213.15 454.944,1208.95 C454.944,1204.85 458.094,1202.05 462.394,1202.05"/>
<path class="Lyrics" d="M810.986,1221.25 L810.986,1218.05 L793.136,1218.05 L793.136,1211.35 L789.336,1211.35 L789.336,1218.05 L771.536,1218.05 L771.536,1221.25 L810.986,1221.25 M809.086,1210.7 C802.536,1210.05 793.286,1204.95 793.286,1198.75 L793.286,1197.2 L789.336,1197.2 L789.336,1198.75 C789.336,1204.9 780.936,1209.95 773.586,1210.75 L775.386,1214 C782.886,1212.65 789.486,1207.9 791.236,1203.7 C793.336,1207.9 800.086,1212.6 807.336,1213.95 L809.086,1210.7 M808.236,1237.2 C800.786,1236.55 793.186,1231.15 793.186,1225.9 L793.186,1224.35 L789.286,1224.35 L789.286,1225.9 C789.286,1231.2 782.336,1236.45 774.336,1237.1 L776.186,1240.2 C783.236,1239 789.486,1234.7 791.186,1230.9 C793.336,1234.9 800.036,1239.25 806.336,1240.25 L808.236,1237.2 "/>
<path class="Lyrics" d="M1483.16,666.37 L1479.36,666.37 L1479.36,698.12 L1483.16,698.12 L1483.16,682.27 L1489.86,682.27 L1489.86,679.02 L1483.16,679.02 L1483.16,666.37 M1484.41,708.67 L1484.41,705.52 L1459.36,705.52 L1459.36,695.17 L1455.56,695.17 L1455.56,708.67 L1484.41,708.67 M1474.96,685.37 C1469.91,686.52 1460.61,687.27 1454.86,687.22 L1454.86,669.32 L1451.06,669.32 L1451.06,690.42 L1454.91,690.42 C1461.86,690.42 1470.36,689.62 1475.41,688.52 L1474.96,685.37 "/>
<path class="Lyrics" d="M1314.86,1217.45 L1314.86,1214.25 L1307.81,1214.25 L1307.81,1196.6 L1304.01,1196.6 L1304.01,1240.3 L1307.81,1240.3 L1307.81,1217.45 L1314.86,1217.45 M1299.86,1226.75 C1293.81,1223.2 1288.31,1216.05 1288.31,1208.1 L1288.31,1200.45 L1284.41,1200.45 L1284.41,1208.2 C1284.41,1215.95 1279.26,1223.8 1272.91,1227.7 L1275.36,1230.65 C1280.51,1227.05 1284.76,1221.5 1286.31,1216.05 C1288.06,1221.35 1292.96,1226.55 1297.46,1229.65 L1299.86,1226.75 "/>
<path class="Lyrics" d="M1402.06,666.37 L1398.26,666.37 L1398.26,710.07 L1402.06,710.07 L1402.06,687.82 L1409.21,687.82 L1409.21,684.57 L1402.06,684.57 L1402.06,666.37 M1390.71,671.07 L1370.16,671.07 L1370.16,674.27 L1386.61,674.27 C1385.81,684.12 1379.56,693.32 1368.66,698.37 L1371.01,701.37 C1382.26,695.52 1390.46,685.27 1390.71,671.07"/>
<path class="Lyrics" d="M1242.43,666.37 L1238.68,666.37 L1238.68,710.07 L1242.43,710.07 L1242.43,687.17 L1249.48,687.17 L1249.48,683.97 L1242.43,683.97 L1242.43,666.37 M1234.83,694.97 C1228.98,696.07 1221.23,696.52 1214.28,696.47 L1214.28,685.92 L1230.58,685.92 L1230.58,670.42 L1210.38,670.42 L1210.38,673.57 L1226.78,673.57 L1226.78,682.77 L1210.48,682.77 L1210.48,699.67 L1214.18,699.67 C1221.33,699.67 1230.43,699.02 1235.33,698.02 L1234.83,694.97 "/>
<path class="Lyrics" d="M1167.03,677.57 C1167.03,671.97 1162.33,668.17 1155.58,668.17 C1148.78,668.17 1144.08,671.97 1144.08,677.57 C1144.08,683.02 1148.78,686.82 1155.58,686.82 C1162.28,686.82 1167.03,683.02 1167.03,677.57 M1177.28,710.07 L1177.28,666.37 L1173.53,666.37 L1173.53,696.47 L1163.53,696.47 L1163.53,699.62 L1173.53,699.62 L1173.53,710.07 L1177.28,710.07 M1163.33,677.57 C1163.33,681.42 1159.93,683.62 1155.58,683.62 C1151.18,683.62 1147.73,681.42 1147.73,677.57 C1147.73,673.57 1151.18,671.37 1155.58,671.37 C1159.93,671.37 1163.33,673.57 1163.33,677.57 M1157.23,708.77 L1157.23,693.12 C1162.08,692.87 1167.38,692.47 1170.68,692.02 L1170.38,689.02 C1166.13,689.52 1161.13,689.82 1155.68,690.02 C1150.88,690.22 1146.13,690.27 1140.93,690.27 L1141.48,693.57 C1145.43,693.52 1149.33,693.52 1153.43,693.32 L1153.43,708.77 L1157.23,708.77 "/>
<path class="Lyrics" d="M868.843,1222.35 L868.843,1219.15 L829.393,1219.15 L829.393,1222.35 L868.843,1222.35 M864.643,1239.35 L864.643,1236.2 L838.343,1236.2 L838.343,1226.45 L834.543,1226.45 L834.543,1239.35 L864.643,1239.35 M864.443,1213.7 L864.443,1210.55 L838.493,1210.55 L838.493,1198.45 L834.693,1198.45 L834.693,1213.7 L864.443,1213.7 "/>
<path class="Lyrics" d="M1852.85,1211.25 L1852.85,1208.1 L1846.2,1208.1 L1846.2,1196.6 L1842.4,1196.6 L1842.4,1221.85 L1846.2,1221.85 L1846.2,1211.25 L1852.85,1211.25 M1846.2,1239.7 L1846.2,1224.1 L1818.75,1224.1 L1818.75,1239.7 L1846.2,1239.7 M1842.4,1236.55 L1822.55,1236.55 L1822.55,1227.25 L1842.4,1227.25 L1842.4,1236.55 M1814.3,1199.95 L1814.3,1203.15 L1830.15,1203.15 C1829.1,1211.05 1820.75,1217.3 1812.15,1219.1 L1813.9,1222.25 C1825.05,1219.05 1833.8,1211.95 1834.45,1199.95 L1814.3,1199.95 "/>
<path class="Lyrics" d="M1433.22,1211.55 L1433.22,1208.35 L1426.57,1208.35 L1426.57,1196.6 L1422.82,1196.6 L1422.82,1223.8 L1426.57,1223.8 L1426.57,1211.55 L1433.22,1211.55 M1427.07,1232.35 C1427.07,1227.45 1422.07,1224.35 1412.62,1224.35 C1403.12,1224.35 1398.17,1227.35 1398.17,1232.35 C1398.17,1237.2 1403.12,1240.25 1412.62,1240.25 C1422.07,1240.25 1427.07,1237.15 1427.07,1232.35 M1412.62,1227.5 C1419.22,1227.5 1423.17,1229.25 1423.17,1232.35 C1423.17,1235.4 1419.22,1237.1 1412.62,1237.1 C1405.97,1237.1 1402.07,1235.3 1402.07,1232.35 C1402.07,1229.3 1405.97,1227.5 1412.62,1227.5 M1418.72,1217.1 C1413.57,1218.15 1403.92,1218.45 1398.82,1218.45 L1398.27,1218.45 L1398.27,1211.95 L1414.32,1211.95 L1414.32,1199.5 L1394.37,1199.5 L1394.37,1202.65 L1410.52,1202.65 L1410.52,1208.85 L1394.47,1208.85 L1394.47,1221.65 L1398.57,1221.65 C1404.72,1221.65 1414.57,1221 1419.07,1220.2 L1418.72,1217.1 "/>
<path class="Lyrics" d="M574.998,1240.3 L574.998,1196.6 L571.198,1196.6 L571.198,1240.3 L574.998,1240.3 M540.498,1215.3 C540.498,1224.6 544.598,1230.8 551.748,1230.8 C558.998,1230.8 563.048,1224.6 563.048,1215.35 C563.048,1206.1 558.998,1199.9 551.748,1199.9 C544.598,1199.9 540.498,1206.1 540.498,1215.3 M559.448,1215.35 C559.448,1222.5 556.398,1227.5 551.748,1227.5 C547.148,1227.5 544.098,1222.5 544.098,1215.35 C544.098,1208.15 547.148,1203.2 551.748,1203.2 C556.398,1203.2 559.448,1208.15 559.448,1215.35"/>
<path class="Lyrics" d="M1075.48,704.52 L1075.48,701.32 L1057.58,701.32 L1057.58,693.87 L1071.83,693.87 L1071.83,690.67 L1044.68,690.67 L1044.68,683.37 L1070.58,683.37 L1070.58,670.02 L1040.83,670.02 L1040.83,673.22 L1066.78,673.22 L1066.78,680.22 L1040.88,680.22 L1040.88,693.87 L1053.78,693.87 L1053.78,701.32 L1036.03,701.32 L1036.03,704.52 L1075.48,704.52 "/>
<path class="Lyrics" d="M691.983,671.37 C690.283,673.42 685.683,674.97 681.083,675.07 L681.083,677.22 L685.483,677.22 C688.383,677.27 688.683,677.57 688.583,680.37 L688.583,700.42 C688.583,702.97 688.583,703.07 688.283,703.52 C687.883,704.02 686.933,704.22 684.133,704.22 L680.883,704.22 L680.883,706.57 L700.683,706.57 L700.683,704.22 L697.933,704.22 C695.133,704.22 694.183,704.02 693.783,703.52 C693.433,703.07 693.433,703.02 693.433,700.42 L693.433,679.77 C693.433,676.97 693.533,674.62 693.783,671.37 L691.983,671.37 M710.53,701.02 C708.78,701.02 707.38,702.42 707.38,704.12 C707.38,705.87 708.78,707.27 710.48,707.27 C712.23,707.27 713.63,705.87 713.63,704.12 C713.63,702.42 712.23,701.02 710.53,701.02"/>
<path class="Lyrics" d="M754.92,681.02 C754.92,673.82 748.67,669.12 739.12,669.12 C729.72,669.12 723.42,673.82 723.42,681.02 C723.42,687.72 728.87,692.22 737.22,692.82 L737.22,701.12 L719.47,701.12 L719.47,704.32 L758.92,704.32 L758.92,701.12 L741.02,701.12 L741.02,692.82 C749.42,692.27 754.92,687.72 754.92,681.02 M751.27,681.07 C751.27,686.32 746.47,689.77 739.12,689.77 C731.87,689.77 727.12,686.32 727.12,681.07 C727.12,675.82 731.87,672.32 739.12,672.32 C746.52,672.32 751.27,675.82 751.27,681.07"/>
<path class="Lyrics" d="M954.12,710.07 L954.12,666.37 L950.32,666.37 L950.32,710.07 L954.12,710.07 M941.57,698.82 L941.57,670.87 L920.92,670.87 L920.92,698.82 L941.57,698.82 M937.77,695.67 L924.77,695.67 L924.77,674.02 L937.77,674.02 L937.77,695.67 "/>
<path class="Lyrics" d="M876.35,681.02 L876.35,677.87 L869.7,677.87 L869.7,666.37 L865.9,666.37 L865.9,691.62 L869.7,691.62 L869.7,681.02 L876.35,681.02 M869.7,709.47 L869.7,693.87 L842.25,693.87 L842.25,709.47 L869.7,709.47 M865.9,706.32 L846.05,706.32 L846.05,697.02 L865.9,697.02 L865.9,706.32 M837.8,669.72 L837.8,672.92 L853.65,672.92 C852.6,680.82 844.25,687.07 835.65,688.87 L837.4,692.02 C848.55,688.82 857.3,681.72 857.95,669.72 L837.8,669.72 "/>
<path class="Lyrics" d="M1718.05,1211.25 C1718.05,1204.05 1711.8,1199.35 1702.25,1199.35 C1692.85,1199.35 1686.55,1204.05 1686.55,1211.25 C1686.55,1217.95 1692,1222.45 1700.35,1223.05 L1700.35,1231.35 L1682.6,1231.35 L1682.6,1234.55 L1722.05,1234.55 L1722.05,1231.35 L1704.15,1231.35 L1704.15,1223.05 C1712.55,1222.5 1718.05,1217.95 1718.05,1211.25 M1714.4,1211.3 C1714.4,1216.55 1709.6,1220 1702.25,1220 C1695,1220 1690.25,1216.55 1690.25,1211.3 C1690.25,1206.05 1695,1202.55 1702.25,1202.55 C1709.65,1202.55 1714.4,1206.05 1714.4,1211.3"/>
<path class="NoteDot" transform="matrix(0.992,0,0,0.992,1084.26,572.39)" d="M0,0 C0,2.8 2.2,5 5,5 C7.8,5 10,2.8 10,0 C10,-2.8 7.8,-5 5,-5 C2.2,-5 0,-2.8 0,0"/>
<path class="NoteDot" transform="matrix(0.992,0,0,0.992,709.746,1103.2)" d="M0,0 C0,2.8 2.2,5 5,5 C7.8,5 10,2.8 10,0 C10,-2.8 7.8,-5 5,-5 C2.2,-5 0,-2.8 0,0"/>
<path class="NoteDot" transform="matrix(0.992,0,0,0.992,1442.31,1128)" d="M0,0 C0,2.8 2.2,5 5,5 C7.8,5 10,2.8 10,0 C10,-2.8 7.8,-5 5,-5 C2.2,-5 0,-2.8 0,0"/>
<path class="NoteDot" transform="matrix(0.992,0,0,0.992,1044.5,1128)" d="M0,0 C0,2.8 2.2,5 5,5 C7.8,5 10,2.8 10,0 C10,-2.8 7.8,-5 5,-5 C2.2,-5 0,-2.8 0,0"/>
<path class="NoteDot" transform="matrix(0.992,0,0,0.992,1212.37,1128)" d="M0,0 C0,2.8 2.2,5 5,5 C7.8,5 10,2.8 10,0 C10,-2.8 7.8,-5 5,-5 C2.2,-5 0,-2.8 0,0"/>
<path class="NoteDot" transform="matrix(0.992,0,0,0.992,1580.49,572.39)" d="M0,0 C0,2.8 2.2,5 5,5 C7.8,5 10,2.8 10,0 C10,-2.8 7.8,-5 5,-5 C2.2,-5 0,-2.8 0,0"/>
</svg>
