<?xml version="1.0" encoding="UTF-8" standalone="no"?>
<svg width="2098.8px" height="1418.4px" viewBox="0 0 2098.8 1418.4"
 xmlns="http://www.w3.org/2000/svg" xmlns:xlink="http://www.w3.org/1999/xlink" version="1.2" baseProfile="tiny">
<title>259 태양의 찬가.musicxml (3)</title>
<desc>Generated by MuseScore 4.2.1</desc>
<polyline class="StaffLines" fill="none" stroke="#000000" stroke-width="2.73" stroke-linejoin="bevel" points="104.4,278 1994.4,278"/>
<polyline class="StaffLines" fill="none" stroke="#000000" stroke-width="2.73" stroke-linejoin="bevel" points="104.4,302.8 1994.4,302.8"/>
<polyline class="StaffLines" fill="none" stroke="#000000" stroke-width="2.73" stroke-linejoin="bevel" points="104.4,327.6 1994.4,327.6"/>
<polyline class="StaffLines" fill="none" stroke="#000000" stroke-width="2.73" stroke-linejoin="bevel" points="104.4,352.4 1994.4,352.4"/>
<polyline class="StaffLines" fill="none" stroke="#000000" stroke-width="2.73" stroke-linejoin="bevel" points="104.4,377.2 1994.4,377.2"/>
<polyline class="StaffLines" fill="none" stroke="#000000" stroke-width="2.73" stroke-linejoin="bevel" points="104.4,659.6 1994.4,659.6"/>
<polyline class="StaffLines" fill="none" stroke="#000000" stroke-width="2.73" stroke-linejoin="bevel" points="104.4,684.4 1994.4,684.4"/>
<polyline class="StaffLines" fill="none" stroke="#000000" stroke-width="2.73" stroke-linejoin="bevel" points="104.4,709.2 1994.4,709.2"/>
<polyline class="StaffLines" fill="none" stroke="#000000" stroke-width="2.73" stroke-linejoin="bevel" points="104.4,734 1994.4,734"/>
<polyline class="StaffLines" fill="none" stroke="#000000" stroke-width="2.73" stroke-linejoin="bevel" points="104.4,758.8 1994.4,758.8"/>
<polyline class="StaffLines" fill="none" stroke="#000000" stroke-width="2.73" stroke-linejoin="bevel" points="104.4,1041.2 1994.4,1041.2"/>
<polyline class="StaffLines" fill="none" stroke="#000000" stroke-width="2.73" stroke-linejoin="bevel" points="104.4,1066 1994.4,1066"/>
<polyline class="StaffLines" fill="none" stroke="#000000" stroke-width="2.73" stroke-linejoin="bevel" points="104.4,1090.8 1994.4,1090.8"/>
<polyline class="StaffLines" fill="none" stroke="#000000" stroke-width="2.73" stroke-linejoin="bevel" points="104.4,1115.6 1994.4,1115.6"/>
<polyline class="StaffLines" fill="none" stroke="#000000" stroke-width="2.73" stroke-linejoin="bevel" points="104.4,1140.4 1994.4,1140.4"/>
<path class="MeasureNumber" d="M118.078,595.44 C119.958,594.84 120.718,594.52 121.678,593.88 C123.558,592.64 124.718,590.44 124.718,588.2 C124.718,584.4 121.678,581.84 117.198,581.84 C112.838,581.84 109.158,584.56 109.158,587.84 C109.158,589.48 110.158,590.6 111.678,590.6 C112.998,590.6 113.958,589.64 113.958,588.32 C113.958,587.64 113.758,587.16 113.118,586.52 C112.718,586.16 112.558,585.88 112.558,585.6 C112.558,584.64 114.558,583.64 116.438,583.64 C119.118,583.64 120.718,585.12 120.718,587.6 C120.718,591.16 118.198,594.52 115.518,594.52 C115.398,594.52 115.038,594.48 114.598,594.44 C113.438,594.36 113.438,594.36 113.198,594.36 C112.318,594.36 111.838,594.76 111.838,595.48 C111.838,596.12 112.278,596.52 112.998,596.52 C113.198,596.52 113.478,596.48 113.798,596.44 C114.358,596.32 114.958,596.28 115.318,596.28 C117.198,596.28 118.478,597.96 118.478,600.44 C118.478,604.76 116.358,608.92 111.518,608.92 C109.278,608.92 107.358,607.8 107.358,606.52 C107.358,606.08 107.518,605.92 108.158,605.64 C109.318,605.12 109.798,604.4 109.798,603.32 C109.798,601.92 108.678,600.84 107.238,600.84 C105.518,600.84 104.398,602.2 104.398,604.28 C104.398,608.16 107.358,610.6 112.158,610.6 C118.198,610.6 122.798,606.56 122.798,601.2 C122.798,598.08 120.878,596.32 118.078,595.44 M140.752,581.84 C132.153,581.84 127.872,593.68 127.872,600.72 C127.872,606.52 130.752,610.6 134.832,610.6 C141.672,610.6 147.792,601.72 147.792,591.8 C147.792,585.84 144.952,581.84 140.752,581.84 M140.712,583.44 C142.792,583.44 143.912,585.28 143.912,588.72 C143.912,592.64 142.912,597.72 141.272,601.84 C139.352,606.84 137.433,609 135.032,609 C132.873,609 131.672,607.08 131.672,603.68 C131.672,598.48 133.512,591.52 136.072,586.88 C137.313,584.64 138.912,583.44 140.712,583.44"/>
<path class="MeasureNumber" d="M123.191,220.12 L122.151,221.96 C120.551,224.72 120.231,224.96 118.191,225 L108.911,225 C109.871,223.72 111.631,222.24 114.831,220 C120.111,216.36 120.471,216.12 121.591,215.24 C124.791,212.76 126.111,210.4 126.111,207.24 C126.111,203.04 122.991,200.24 118.391,200.24 C113.271,200.24 108.831,204 108.831,208.36 C108.831,210.6 110.031,212.04 111.951,212.04 C113.391,212.04 114.511,210.96 114.511,209.48 C114.511,208.44 113.991,207.76 112.671,207.04 C111.711,206.56 111.551,206.36 111.551,205.88 C111.551,204.16 114.511,202.24 117.231,202.24 C120.031,202.24 121.911,204.12 121.911,206.92 C121.911,209.92 120.591,212.12 116.991,215.24 C106.351,224.48 104.751,226.16 104.391,228.4 L121.551,228.4 L124.631,220.68 L123.191,220.12 M132.505,213.08 C131.265,213.84 130.905,214.32 130.905,215.12 C130.905,215.88 131.545,216.44 132.345,216.44 C133.385,216.44 133.985,215.68 134.105,214.2 C135.345,213.2 136.665,212.76 138.265,212.76 C141.225,212.76 142.865,214.6 142.865,217.92 C142.865,223.12 139.505,227.36 135.385,227.36 C133.025,227.36 131.105,226.24 131.105,224.92 C131.105,224.68 131.145,224.6 131.345,224.48 C132.625,223.88 133.665,223.44 133.665,221.76 C133.665,220.48 132.665,219.52 131.265,219.52 C129.505,219.52 128.185,221 128.185,222.92 C128.185,226.44 131.225,229 135.505,229 C141.985,229 147.225,223.84 147.225,217.44 C147.225,213.4 144.145,210.56 139.785,210.56 C138.065,210.56 136.665,210.92 134.745,211.88 L136.985,204.32 C139.105,204.76 140.785,204.96 142.225,204.96 C144.865,204.96 147.225,204.12 148.545,202.72 C149.225,201.92 149.625,201.24 149.625,200.72 C149.625,200.48 149.505,200.24 149.345,200.24 C149.225,200.24 149.145,200.28 148.905,200.4 C147.585,201.04 145.905,201.4 144.345,201.4 C141.945,201.4 139.105,201 136.145,200.24 L132.505,213.08 "/>
<path class="MeasureNumber" d="M118.078,977.04 C119.958,976.44 120.718,976.12 121.678,975.48 C123.558,974.24 124.718,972.04 124.718,969.8 C124.718,966 121.678,963.44 117.198,963.44 C112.838,963.44 109.158,966.16 109.158,969.44 C109.158,971.08 110.158,972.2 111.678,972.2 C112.998,972.2 113.958,971.24 113.958,969.92 C113.958,969.24 113.758,968.76 113.118,968.12 C112.718,967.76 112.558,967.48 112.558,967.2 C112.558,966.24 114.558,965.24 116.438,965.24 C119.118,965.24 120.718,966.72 120.718,969.2 C120.718,972.76 118.198,976.12 115.518,976.12 C115.398,976.12 115.038,976.08 114.598,976.04 C113.438,975.96 113.438,975.96 113.198,975.96 C112.318,975.96 111.838,976.36 111.838,977.08 C111.838,977.72 112.278,978.12 112.998,978.12 C113.198,978.12 113.478,978.08 113.798,978.04 C114.358,977.92 114.958,977.88 115.318,977.88 C117.198,977.88 118.478,979.56 118.478,982.04 C118.478,986.36 116.358,990.52 111.518,990.52 C109.278,990.52 107.358,989.4 107.358,988.12 C107.358,987.68 107.518,987.52 108.158,987.24 C109.318,986.72 109.798,986 109.798,984.92 C109.798,983.52 108.678,982.44 107.238,982.44 C105.518,982.44 104.398,983.8 104.398,985.88 C104.398,989.76 107.358,992.2 112.158,992.2 C118.198,992.2 122.798,988.16 122.798,982.8 C122.798,979.68 120.878,977.92 118.078,977.04 M131.192,976.28 C129.952,977.04 129.593,977.52 129.593,978.32 C129.593,979.08 130.232,979.64 131.032,979.64 C132.072,979.64 132.672,978.88 132.792,977.4 C134.032,976.4 135.352,975.96 136.952,975.96 C139.912,975.96 141.553,977.8 141.553,981.12 C141.553,986.32 138.192,990.56 134.072,990.56 C131.712,990.56 129.792,989.44 129.792,988.12 C129.792,987.88 129.832,987.8 130.032,987.68 C131.313,987.08 132.352,986.64 132.352,984.96 C132.352,983.68 131.352,982.72 129.952,982.72 C128.192,982.72 126.872,984.2 126.872,986.12 C126.872,989.64 129.912,992.2 134.192,992.2 C140.672,992.2 145.912,987.04 145.912,980.64 C145.912,976.6 142.832,973.76 138.472,973.76 C136.752,973.76 135.352,974.12 133.433,975.08 L135.672,967.52 C137.792,967.96 139.472,968.16 140.912,968.16 C143.553,968.16 145.912,967.32 147.232,965.92 C147.912,965.12 148.313,964.44 148.313,963.92 C148.313,963.68 148.192,963.44 148.032,963.44 C147.912,963.44 147.832,963.48 147.592,963.6 C146.272,964.24 144.592,964.6 143.032,964.6 C140.632,964.6 137.792,964.2 134.832,963.44 L131.192,976.28 "/>
<polyline class="BarLine" fill="none" stroke="#000000" stroke-width="4.46" stroke-linejoin="bevel" points="1299.85,276.636 1299.85,378.564"/>
<polyline class="BarLine" fill="none" stroke="#000000" stroke-width="4.46" stroke-linejoin="bevel" points="1992.17,658.236 1992.17,760.164"/>
<polyline class="BarLine" fill="none" stroke="#000000" stroke-width="4.46" stroke-linejoin="bevel" points="1992.17,1039.84 1992.17,1141.76"/>
<polyline class="BarLine" fill="none" stroke="#000000" stroke-width="4.46" stroke-linejoin="bevel" points="1651.72,658.236 1651.72,760.164"/>
<polyline class="BarLine" fill="none" stroke="#000000" stroke-width="4.46" stroke-linejoin="bevel" points="644.006,1039.84 644.006,1141.76"/>
<polyline class="BarLine" fill="none" stroke="#000000" stroke-width="4.46" stroke-linejoin="bevel" points="580.622,276.636 580.622,378.564"/>
<polyline class="BarLine" fill="none" stroke="#000000" stroke-width="4.46" stroke-linejoin="bevel" points="594.262,276.636 594.262,378.564"/>
<polyline class="BarLine" fill="none" stroke="#000000" stroke-width="4.46" stroke-linejoin="bevel" points="1363.21,658.236 1363.21,760.164"/>
<polyline class="BarLine" fill="none" stroke="#000000" stroke-width="4.46" stroke-linejoin="bevel" points="965.395,658.236 965.395,760.164"/>
<polyline class="BarLine" fill="none" stroke="#000000" stroke-width="4.46" stroke-linejoin="bevel" points="630.642,658.236 630.642,760.164"/>
<polyline class="BarLine" fill="none" stroke="#000000" stroke-width="4.46" stroke-linejoin="bevel" points="950.307,276.636 950.307,378.564"/>
<polyline class="BarLine" fill="none" stroke="#000000" stroke-width="4.46" stroke-linejoin="bevel" points="1036.66,1039.84 1036.66,1141.76"/>
<polyline class="BarLine" fill="none" stroke="#000000" stroke-width="4.46" stroke-linejoin="bevel" points="1688.5,1039.84 1688.5,1141.76"/>
<polyline class="BarLine" fill="none" stroke="#000000" stroke-width="4.46" stroke-linejoin="bevel" points="1992.17,276.636 1992.17,378.564"/>
<polyline class="BarLine" fill="none" stroke="#000000" stroke-width="4.46" stroke-linejoin="bevel" points="1340.33,1039.84 1340.33,1141.76"/>
<polyline class="BarLine" fill="none" stroke="#000000" stroke-width="4.46" stroke-linejoin="bevel" points="1693.12,276.636 1693.12,378.564"/>
<polyline class="Stem" fill="none" stroke="#000000" stroke-width="2.48" stroke-linejoin="bevel" points="1598.52,1094.97 1598.52,1165.2"/>
<polyline class="Stem" fill="none" stroke="#000000" stroke-width="2.48" stroke-linejoin="bevel" points="863.978,742.432 863.978,659.6"/>
<polyline class="Stem" fill="none" stroke="#000000" stroke-width="2.48" stroke-linejoin="bevel" points="1335.57,331.766 1335.57,402"/>
<polyline class="Stem" fill="none" stroke="#000000" stroke-width="2.48" stroke-linejoin="bevel" points="468.463,1099.23 468.463,1022.8"/>
<polyline class="Stem" fill="none" stroke="#000000" stroke-width="2.48" stroke-linejoin="bevel" points="355.655,1099.23 355.655,1022.6"/>
<polyline class="Stem" fill="none" stroke="#000000" stroke-width="2.48" stroke-linejoin="bevel" points="1509.53,1082.57 1509.53,1159"/>
<polyline class="Stem" fill="none" stroke="#000000" stroke-width="2.48" stroke-linejoin="bevel" points="355.655,385.632 355.655,302.8"/>
<polyline class="Stem" fill="none" stroke="#000000" stroke-width="2.48" stroke-linejoin="bevel" points="1476.17,336.032 1476.17,259.598"/>
<polyline class="Stem" fill="none" stroke="#000000" stroke-width="2.48" stroke-linejoin="bevel" points="1934.14,730.032 1934.14,647.2"/>
<polyline class="Stem" fill="none" stroke="#000000" stroke-width="2.48" stroke-linejoin="bevel" points="539.283,1099.23 539.283,1022.6"/>
<polyline class="Stem" fill="none" stroke="#000000" stroke-width="2.48" stroke-linejoin="bevel" points="1546.99,348.432 1546.99,265.6"/>
<polyline class="Stem" fill="none" stroke="#000000" stroke-width="2.48" stroke-linejoin="bevel" points="1847.36,742.432 1847.36,659.6"/>
<polyline class="Stem" fill="none" stroke="#000000" stroke-width="2.48" stroke-linejoin="bevel" points="1376.05,1070.17 1376.05,1152.8"/>
<polyline class="Stem" fill="none" stroke="#000000" stroke-width="2.48" stroke-linejoin="bevel" points="1604.69,331.766 1604.69,402"/>
<polyline class="Stem" fill="none" stroke="#000000" stroke-width="2.48" stroke-linejoin="bevel" points="1717.18,767.232 1717.18,684.4"/>
<polyline class="Stem" fill="none" stroke="#000000" stroke-width="2.48" stroke-linejoin="bevel" points="1197.44,336.032 1197.44,259.4"/>
<polyline class="Stem" fill="none" stroke="#000000" stroke-width="2.48" stroke-linejoin="bevel" points="673.004,385.632 673.004,302.8"/>
<polyline class="Stem" fill="none" stroke="#000000" stroke-width="2.48" stroke-linejoin="bevel" points="1428.67,754.832 1428.67,672"/>
<polyline class="Stem" fill="none" stroke="#000000" stroke-width="2.48" stroke-linejoin="bevel" points="1758.59,336.032 1758.59,259.4"/>
<polyline class="Stem" fill="none" stroke="#000000" stroke-width="2.48" stroke-linejoin="bevel" points="1887.45,1124.03 1887.45,1041.2"/>
<polyline class="Stem" fill="none" stroke="#000000" stroke-width="2.48" stroke-linejoin="bevel" points="1126.62,336.032 1126.62,259.598"/>
<polyline class="Stem" fill="none" stroke="#000000" stroke-width="2.48" stroke-linejoin="bevel" points="1889.76,336.032 1889.76,259.4"/>
<polyline class="Stem" fill="none" stroke="#000000" stroke-width="2.48" stroke-linejoin="bevel" points="679.718,1094.97 679.718,1165.2"/>
<polyline class="Stem" fill="none" stroke="#000000" stroke-width="2.48" stroke-linejoin="bevel" points="1308.75,754.832 1308.75,672.198"/>
<polyline class="Stem" fill="none" stroke="#000000" stroke-width="2.48" stroke-linejoin="bevel" points="798.458,1099.23 798.458,1022.6"/>
<polyline class="Stem" fill="none" stroke="#000000" stroke-width="2.48" stroke-linejoin="bevel" points="1198.73,742.432 1198.73,659.6"/>
<polyline class="Stem" fill="none" stroke="#000000" stroke-width="2.48" stroke-linejoin="bevel" points="1015.77,336.032 1015.77,259.4"/>
<polyline class="Stem" fill="none" stroke="#000000" stroke-width="2.48" stroke-linejoin="bevel" points="1140.87,730.032 1140.87,647.398"/>
<polyline class="Stem" fill="none" stroke="#000000" stroke-width="2.48" stroke-linejoin="bevel" points="887.447,1111.63 887.447,1028.8"/>
<polyline class="Stem" fill="none" stroke="#000000" stroke-width="2.48" stroke-linejoin="bevel" points="325.903,688.566 325.903,771.2"/>
<polyline class="Stem" fill="none" stroke="#000000" stroke-width="2.48" stroke-linejoin="bevel" points="1030.86,742.432 1030.86,659.6"/>
<polyline class="Stem" fill="none" stroke="#000000" stroke-width="2.48" stroke-linejoin="bevel" points="1235.61,1099.23 1235.61,1022.6"/>
<polyline class="Stem" fill="none" stroke="#000000" stroke-width="2.48" stroke-linejoin="bevel" points="456.08,700.966 456.08,777.4"/>
<polyline class="Stem" fill="none" stroke="#000000" stroke-width="2.48" stroke-linejoin="bevel" points="804.174,360.832 804.174,278"/>
<polyline class="Stem" fill="none" stroke="#000000" stroke-width="2.48" stroke-linejoin="bevel" points="946.683,1094.97 946.683,1165.2"/>
<polyline class="Stem" fill="none" stroke="#000000" stroke-width="2.48" stroke-linejoin="bevel" points="542.865,713.366 542.865,783.6"/>
<polyline class="Stem" fill="none" stroke="#000000" stroke-width="2.48" stroke-linejoin="bevel" points="806.121,717.632 806.121,641.198"/>
<polyline class="Stem" fill="none" stroke="#000000" stroke-width="2.48" stroke-linejoin="bevel" points="1102.13,1099.23 1102.13,1022.6"/>
<polyline class="Stem" fill="none" stroke="#000000" stroke-width="2.48" stroke-linejoin="bevel" points="1753.96,1099.23 1753.96,1022.6"/>
<polyline class="Stem" fill="none" stroke="#000000" stroke-width="2.48" stroke-linejoin="bevel" points="891.62,348.432 891.62,265.6"/>
<polyline class="Stem" fill="none" stroke="#000000" stroke-width="2.48" stroke-linejoin="bevel" points="696.106,717.632 696.106,641"/>
<path class="Note" transform="matrix(0.992,0,0,0.992,665.114,721.6)" d="M0,4.2 C0,8.5 3.1,13.3 11.2,13.3 C21.6,13.3 32.5,4.8 32.5,-4 C32.5,-9.9 27.5,-13.2 21.3,-13.2 C11.6,-13.2 0,-5 0,4.2"/>
<path class="Note" transform="matrix(0.992,0,0,0.992,860.628,352.4)" d="M0,4.2 C0,8.5 3.1,13.3 11.2,13.3 C21.6,13.3 32.5,4.8 32.5,-4 C32.5,-9.9 27.5,-13.2 21.3,-13.2 C11.6,-13.2 0,-5 0,4.2"/>
<path class="Note" transform="matrix(0.992,0,0,0.992,1722.97,1103.2)" d="M21.3,-13.2 C11.6,-13.2 0,-5.1 0,4.2 C0,8.5 3.1,13.3 11.2,13.3 C21.6,13.3 32.5,4.8 32.5,-4 C32.5,-9.9 27.5,-13.2 21.3,-13.2 M7.5,8.6 C4.2,8.6 3.5,5.9 3.5,5 C3.5,0.1 20.3,-8.5 25,-8.5 C27.4,-8.5 29,-7.1 29,-4.9 C29,0.1 12.1,8.6 7.5,8.6"/>
<path class="Note" transform="matrix(0.992,0,0,0.992,1334.33,327.6)" d="M0,4.2 C0,8.5 3.1,13.3 11.2,13.3 C21.6,13.3 32.5,4.8 32.5,-4 C32.5,-9.9 27.5,-13.2 21.3,-13.2 C11.6,-13.2 0,-5 0,4.2"/>
<path class="Note" transform="matrix(0.992,0,0,0.992,541.625,709.2)" d="M0,4.2 C0,8.5 3.1,13.3 11.2,13.3 C21.6,13.3 32.5,4.8 32.5,-4 C32.5,-9.9 27.5,-13.2 21.3,-13.2 C11.6,-13.2 0,-5 0,4.2"/>
<path class="Note" transform="matrix(0.992,0,0,0.992,775.129,721.6)" d="M0,4.2 C0,8.5 3.1,13.3 11.2,13.3 C21.6,13.3 32.5,4.8 32.5,-4 C32.5,-9.9 27.5,-13.2 21.3,-13.2 C11.6,-13.2 0,-5 0,4.2"/>
<path class="Note" transform="matrix(0.992,0,0,0.992,945.443,1090.8)" d="M0,4.2 C0,8.5 3.1,13.3 11.2,13.3 C21.6,13.3 32.5,4.8 32.5,-4 C32.5,-9.9 27.5,-13.2 21.3,-13.2 C11.6,-13.2 0,-5 0,4.2"/>
<path class="Note" transform="matrix(0.992,0,0,0.992,1166.45,340)" d="M21.3,-13.2 C11.6,-13.2 0,-5.1 0,4.2 C0,8.5 3.1,13.3 11.2,13.3 C21.6,13.3 32.5,4.8 32.5,-4 C32.5,-9.9 27.5,-13.2 21.3,-13.2 M7.5,8.6 C4.2,8.6 3.5,5.9 3.5,5 C3.5,0.1 20.3,-8.5 25,-8.5 C27.4,-8.5 29,-7.1 29,-4.9 C29,0.1 12.1,8.6 7.5,8.6"/>
<path class="Note" transform="matrix(0.992,0,0,0.992,832.986,746.4)" d="M21.3,-13.2 C11.6,-13.2 0,-5.1 0,4.2 C0,8.5 3.1,13.3 11.2,13.3 C21.6,13.3 32.5,4.8 32.5,-4 C32.5,-9.9 27.5,-13.2 21.3,-13.2 M7.5,8.6 C4.2,8.6 3.5,5.9 3.5,5 C3.5,0.1 20.3,-8.5 25,-8.5 C27.4,-8.5 29,-7.1 29,-4.9 C29,0.1 12.1,8.6 7.5,8.6"/>
<path class="Note" transform="matrix(0.992,0,0,0.992,1071.14,1103.2)" d="M21.3,-13.2 C11.6,-13.2 0,-5.1 0,4.2 C0,8.5 3.1,13.3 11.2,13.3 C21.6,13.3 32.5,4.8 32.5,-4 C32.5,-9.9 27.5,-13.2 21.3,-13.2 M7.5,8.6 C4.2,8.6 3.5,5.9 3.5,5 C3.5,0.1 20.3,-8.5 25,-8.5 C27.4,-8.5 29,-7.1 29,-4.9 C29,0.1 12.1,8.6 7.5,8.6"/>
<path class="Note" transform="matrix(0.992,0,0,0.992,773.181,364.8)" d="M0,4.2 C0,8.5 3.1,13.3 11.2,13.3 C21.6,13.3 32.5,4.8 32.5,-4 C32.5,-9.9 27.5,-13.2 21.3,-13.2 C11.6,-13.2 0,-5 0,4.2"/>
<path class="Note" transform="matrix(0.992,0,0,0.992,454.84,696.8)" d="M0,4.2 C0,8.5 3.1,13.3 11.2,13.3 C21.6,13.3 32.5,4.8 32.5,-4 C32.5,-9.9 27.5,-13.2 21.3,-13.2 C11.6,-13.2 0,-5 0,4.2"/>
<path class="Note" transform="matrix(0.992,0,0,0.992,324.663,684.4)" d="M21.3,-13.2 C11.6,-13.2 0,-5.1 0,4.2 C0,8.5 3.1,13.3 11.2,13.3 C21.6,13.3 32.5,4.8 32.5,-4 C32.5,-9.9 27.5,-13.2 21.3,-13.2 M7.5,8.6 C4.2,8.6 3.5,5.9 3.5,5 C3.5,0.1 20.3,-8.5 25,-8.5 C27.4,-8.5 29,-7.1 29,-4.9 C29,0.1 12.1,8.6 7.5,8.6"/>
<path class="Note" transform="matrix(0.992,0,0,0.992,999.867,746.4)" d="M0,4.2 C0,8.5 3.1,13.3 11.2,13.3 C21.6,13.3 32.5,4.8 32.5,-4 C32.5,-9.9 27.5,-13.2 21.3,-13.2 C11.6,-13.2 0,-5 0,4.2"/>
<path class="Note" transform="matrix(0.992,0,0,0.992,856.455,1115.6)" d="M0,4.2 C0,8.5 3.1,13.3 11.2,13.3 C21.6,13.3 32.5,4.8 32.5,-4 C32.5,-9.9 27.5,-13.2 21.3,-13.2 C11.6,-13.2 0,-5 0,4.2"/>
<path class="Note" transform="matrix(0.992,0,0,0.992,324.663,1103.2)" d="M0,4.2 C0,8.5 3.1,13.3 11.2,13.3 C21.6,13.3 32.5,4.8 32.5,-4 C32.5,-9.9 27.5,-13.2 21.3,-13.2 C11.6,-13.2 0,-5 0,4.2"/>
<path class="Note" transform="matrix(0.992,0,0,0.992,1508.29,1078.4)" d="M0,4.2 C0,8.5 3.1,13.3 11.2,13.3 C21.6,13.3 32.5,4.8 32.5,-4 C32.5,-9.9 27.5,-13.2 21.3,-13.2 C11.6,-13.2 0,-5 0,4.2"/>
<path class="Note" transform="matrix(0.992,0,0,0.992,437.471,1103.2)" d="M0,4.2 C0,8.5 3.1,13.3 11.2,13.3 C21.6,13.3 32.5,4.8 32.5,-4 C32.5,-9.9 27.5,-13.2 21.3,-13.2 C11.6,-13.2 0,-5 0,4.2"/>
<path class="Note" transform="matrix(0.992,0,0,0.992,1109.88,734)" d="M0,4.2 C0,8.5 3.1,13.3 11.2,13.3 C21.6,13.3 32.5,4.8 32.5,-4 C32.5,-9.9 27.5,-13.2 21.3,-13.2 C11.6,-13.2 0,-5 0,4.2"/>
<path class="Note" transform="matrix(0.992,0,0,0.992,767.466,1103.2)" d="M0,4.2 C0,8.5 3.1,13.3 11.2,13.3 C21.6,13.3 32.5,4.8 32.5,-4 C32.5,-9.9 27.5,-13.2 21.3,-13.2 C11.6,-13.2 0,-5 0,4.2"/>
<path class="Note" transform="matrix(0.992,0,0,0.992,984.779,340)" d="M0,4.2 C0,8.5 3.1,13.3 11.2,13.3 C21.6,13.3 32.5,4.8 32.5,-4 C32.5,-9.9 27.5,-13.2 21.3,-13.2 C11.6,-13.2 0,-5 0,4.2"/>
<path class="Note" transform="matrix(0.992,0,0,0.992,1167.74,746.4)" d="M0,4.2 C0,8.5 3.1,13.3 11.2,13.3 C21.6,13.3 32.5,4.8 32.5,-4 C32.5,-9.9 27.5,-13.2 21.3,-13.2 C11.6,-13.2 0,-5 0,4.2"/>
<path class="Note" transform="matrix(0.992,0,0,0.992,1903.15,734)" d="M0,4.2 C0,8.5 3.1,13.3 11.2,13.3 C21.6,13.3 32.5,4.8 32.5,-4 C32.5,-9.9 27.5,-13.2 21.3,-13.2 C11.6,-13.2 0,-5 0,4.2"/>
<path class="Note" transform="matrix(0.992,0,0,0.992,678.478,1090.8)" d="M0,4.2 C0,8.5 3.1,13.3 11.2,13.3 C21.6,13.3 32.5,4.8 32.5,-4 C32.5,-9.9 27.5,-13.2 21.3,-13.2 C11.6,-13.2 0,-5 0,4.2"/>
<path class="Note" transform="matrix(0.992,0,0,0.992,1445.18,340)" d="M0,4.2 C0,8.5 3.1,13.3 11.2,13.3 C21.6,13.3 32.5,4.8 32.5,-4 C32.5,-9.9 27.5,-13.2 21.3,-13.2 C11.6,-13.2 0,-5 0,4.2"/>
<path class="Note" transform="matrix(0.992,0,0,0.992,1204.62,1103.2)" d="M21.3,-13.2 C11.6,-13.2 0,-5.1 0,4.2 C0,8.5 3.1,13.3 11.2,13.3 C21.6,13.3 32.5,4.8 32.5,-4 C32.5,-9.9 27.5,-13.2 21.3,-13.2 M7.5,8.6 C4.2,8.6 3.5,5.9 3.5,5 C3.5,0.1 20.3,-8.5 25,-8.5 C27.4,-8.5 29,-7.1 29,-4.9 C29,0.1 12.1,8.6 7.5,8.6"/>
<path class="Note" transform="matrix(0.992,0,0,0.992,1277.75,758.8)" d="M0,4.2 C0,8.5 3.1,13.3 11.2,13.3 C21.6,13.3 32.5,4.8 32.5,-4 C32.5,-9.9 27.5,-13.2 21.3,-13.2 C11.6,-13.2 0,-5 0,4.2"/>
<path class="Note" transform="matrix(0.992,0,0,0.992,1858.77,340)" d="M21.3,-13.2 C11.6,-13.2 0,-5.1 0,4.2 C0,8.5 3.1,13.3 11.2,13.3 C21.6,13.3 32.5,4.8 32.5,-4 C32.5,-9.9 27.5,-13.2 21.3,-13.2 M7.5,8.6 C4.2,8.6 3.5,5.9 3.5,5 C3.5,0.1 20.3,-8.5 25,-8.5 C27.4,-8.5 29,-7.1 29,-4.9 C29,0.1 12.1,8.6 7.5,8.6"/>
<path class="Note" transform="matrix(0.992,0,0,0.992,1727.6,340)" d="M21.3,-13.2 C11.6,-13.2 0,-5.1 0,4.2 C0,8.5 3.1,13.3 11.2,13.3 C21.6,13.3 32.5,4.8 32.5,-4 C32.5,-9.9 27.5,-13.2 21.3,-13.2 M7.5,8.6 C4.2,8.6 3.5,5.9 3.5,5 C3.5,0.1 20.3,-8.5 25,-8.5 C27.4,-8.5 29,-7.1 29,-4.9 C29,0.1 12.1,8.6 7.5,8.6"/>
<path class="Note" transform="matrix(0.992,0,0,0.992,642.011,389.6)" d="M21.3,-13.2 C11.6,-13.2 0,-5.1 0,4.2 C0,8.5 3.1,13.3 11.2,13.3 C21.6,13.3 32.5,4.8 32.5,-4 C32.5,-9.9 27.5,-13.2 21.3,-13.2 M7.5,8.6 C4.2,8.6 3.5,5.9 3.5,5 C3.5,0.1 20.3,-8.5 25,-8.5 C27.4,-8.5 29,-7.1 29,-4.9 C29,0.1 12.1,8.6 7.5,8.6"/>
<path class="Note" transform="matrix(0.992,0,0,0.992,1095.63,340)" d="M0,4.2 C0,8.5 3.1,13.3 11.2,13.3 C21.6,13.3 32.5,4.8 32.5,-4 C32.5,-9.9 27.5,-13.2 21.3,-13.2 C11.6,-13.2 0,-5 0,4.2"/>
<path class="Note" transform="matrix(0.992,0,0,0.992,1397.68,758.8)" d="M21.3,-13.2 C11.6,-13.2 0,-5.1 0,4.2 C0,8.5 3.1,13.3 11.2,13.3 C21.6,13.3 32.5,4.8 32.5,-4 C32.5,-9.9 27.5,-13.2 21.3,-13.2 M7.5,8.6 C4.2,8.6 3.5,5.9 3.5,5 C3.5,0.1 20.3,-8.5 25,-8.5 C27.4,-8.5 29,-7.1 29,-4.9 C29,0.1 12.1,8.6 7.5,8.6"/>
<path class="Note" transform="matrix(0.992,0,0,0.992,1597.28,1090.8)" d="M0,4.2 C0,8.5 3.1,13.3 11.2,13.3 C21.6,13.3 32.5,4.8 32.5,-4 C32.5,-9.9 27.5,-13.2 21.3,-13.2 C11.6,-13.2 0,-5 0,4.2"/>
<path class="Note" transform="matrix(0.992,0,0,0.992,1374.81,1066)" d="M21.3,-13.2 C11.6,-13.2 0,-5.1 0,4.2 C0,8.5 3.1,13.3 11.2,13.3 C21.6,13.3 32.5,4.8 32.5,-4 C32.5,-9.9 27.5,-13.2 21.3,-13.2 M7.5,8.6 C4.2,8.6 3.5,5.9 3.5,5 C3.5,0.1 20.3,-8.5 25,-8.5 C27.4,-8.5 29,-7.1 29,-4.9 C29,0.1 12.1,8.6 7.5,8.6"/>
<path class="Note" transform="matrix(0.992,0,0,0.992,1816.37,746.4)" d="M0,4.2 C0,8.5 3.1,13.3 11.2,13.3 C21.6,13.3 32.5,4.8 32.5,-4 C32.5,-9.9 27.5,-13.2 21.3,-13.2 C11.6,-13.2 0,-5 0,4.2"/>
<path class="Note" transform="matrix(0.992,0,0,0.992,1856.45,1128)" d="M21.3,-13.2 C11.6,-13.2 0,-5.1 0,4.2 C0,8.5 3.1,13.3 11.2,13.3 C21.6,13.3 32.5,4.8 32.5,-4 C32.5,-9.9 27.5,-13.2 21.3,-13.2 M7.5,8.6 C4.2,8.6 3.5,5.9 3.5,5 C3.5,0.1 20.3,-8.5 25,-8.5 C27.4,-8.5 29,-7.1 29,-4.9 C29,0.1 12.1,8.6 7.5,8.6"/>
<path class="Note" transform="matrix(0.992,0,0,0.992,324.663,389.6)" d="M21.3,-13.2 C11.6,-13.2 0,-5.1 0,4.2 C0,8.5 3.1,13.3 11.2,13.3 C21.6,13.3 32.5,4.8 32.5,-4 C32.5,-9.9 27.5,-13.2 21.3,-13.2 M7.5,8.6 C4.2,8.6 3.5,5.9 3.5,5 C3.5,0.1 20.3,-8.5 25,-8.5 C27.4,-8.5 29,-7.1 29,-4.9 C29,0.1 12.1,8.6 7.5,8.6"/>
<path class="Note" transform="matrix(0.992,0,0,0.992,1603.45,327.6)" d="M0,4.2 C0,8.5 3.1,13.3 11.2,13.3 C21.6,13.3 32.5,4.8 32.5,-4 C32.5,-9.9 27.5,-13.2 21.3,-13.2 C11.6,-13.2 0,-5 0,4.2"/>
<path class="Note" transform="matrix(0.992,0,0,0.992,1686.19,771.2)" d="M21.3,-13.2 C11.6,-13.2 0,-5.1 0,4.2 C0,8.5 3.1,13.3 11.2,13.3 C21.6,13.3 32.5,4.8 32.5,-4 C32.5,-9.9 27.5,-13.2 21.3,-13.2 M7.5,8.6 C4.2,8.6 3.5,5.9 3.5,5 C3.5,0.1 20.3,-8.5 25,-8.5 C27.4,-8.5 29,-7.1 29,-4.9 C29,0.1 12.1,8.6 7.5,8.6"/>
<path class="Note" transform="matrix(0.992,0,0,0.992,508.291,1103.2)" d="M21.3,-13.2 C11.6,-13.2 0,-5.1 0,4.2 C0,8.5 3.1,13.3 11.2,13.3 C21.6,13.3 32.5,4.8 32.5,-4 C32.5,-9.9 27.5,-13.2 21.3,-13.2 M7.5,8.6 C4.2,8.6 3.5,5.9 3.5,5 C3.5,0.1 20.3,-8.5 25,-8.5 C27.4,-8.5 29,-7.1 29,-4.9 C29,0.1 12.1,8.6 7.5,8.6"/>
<path class="Note" transform="matrix(0.992,0,0,0.992,1516,352.4)" d="M0,4.2 C0,8.5 3.1,13.3 11.2,13.3 C21.6,13.3 32.5,4.8 32.5,-4 C32.5,-9.9 27.5,-13.2 21.3,-13.2 C11.6,-13.2 0,-5 0,4.2"/>
<path class="Clef" transform="matrix(0.992,0,0,0.992,123,734)" d="M12.3,51.3 C12.3,57.9 17.3,66.6 30.8,66.6 C35.5,66.6 39.6,65.4 43.2,63.2 C48.6,59.4 50,52.8 50,46.5 C50,42.6 49.4,38.1 48.4,32.4 C48.1,30.4 47.5,27.4 46.9,23.5 C56.7,20.3 64,10.1 64,-0.2 C64,-15.3 53.3,-25.5 38.7,-25.5 C37.7,-31.5 36.7,-37.4 35.9,-43 C46.4,-54.1 53.7,-66.6 53.7,-82.5 C53.7,-91.6 50.9,-99 49.3,-102.6 C46.9,-107.7 44,-111.2 42.2,-111.2 C41.5,-111.2 38.4,-110 35.1,-106.1 C28.7,-98.5 26.9,-85.7 26.9,-77.3 C26.9,-71.9 27.4,-67 29.1,-55.8 C29,-55.7 23.8,-50.4 21.7,-48.7 C12.6,-40.3 0,-28.1 0,-8.1 C0,10.6 16.3,25.3 34.9,25.3 C37.8,25.3 40.5,25 42.8,24.6 C44.7,34.2 45.9,41.2 45.9,46.5 C45.9,56.9 40.5,62.4 30.4,62.4 C28,62.4 25.9,61.9 25.7,61.9 C25.6,61.8 25.4,61.7 25.4,61.6 C25.4,61.4 25.6,61.3 25.9,61.3 C30.6,60.5 35.3,56.5 35.3,50.1 C35.3,44.7 31.2,39 23.7,39 C16.7,39 12.3,44.7 12.3,51.3 M33.2,-82.2 C34.1,-86.2 38.7,-96.7 43.9,-96.7 C45.4,-96.7 47.8,-91.9 47.8,-84.9 C47.8,-74.5 40.1,-66.7 33.2,-59.9 C32.6,-63.9 32.1,-67.8 32.1,-72 C32.1,-75.7 32.4,-79.1 33.2,-82.2 M42,20.6 C40,21 38.1,21.2 36.2,21.2 C21.9,21.2 9.7,11.2 9.7,-3.9 C9.7,-16.1 18.3,-27 27.1,-34.6 C28.8,-36.1 30.4,-37.5 31.9,-39 C32.8,-33.6 33.5,-28.9 34.2,-24.8 C25.1,-22.1 18.9,-12.5 18.9,-3.1 C18.9,3.9 24.4,13.5 32.4,13.5 C33.2,13.5 34.1,13.1 34.1,12.2 C34.1,11.3 33.1,10.8 31.9,10 C28,7.6 25.8,5 25.8,0.1 C25.8,-6 30.4,-10.9 36.2,-12.3 L42,20.6 M56.2,2.1 C56.2,9.2 53.3,16.5 46.2,19.4 C44.1,7.4 41.4,-8.5 40.7,-12.9 C49.7,-12.9 56.2,-6.8 56.2,2.1"/>
<path class="Clef" transform="matrix(0.992,0,0,0.992,123,352.4)" d="M12.3,51.3 C12.3,57.9 17.3,66.6 30.8,66.6 C35.5,66.6 39.6,65.4 43.2,63.2 C48.6,59.4 50,52.8 50,46.5 C50,42.6 49.4,38.1 48.4,32.4 C48.1,30.4 47.5,27.4 46.9,23.5 C56.7,20.3 64,10.1 64,-0.2 C64,-15.3 53.3,-25.5 38.7,-25.5 C37.7,-31.5 36.7,-37.4 35.9,-43 C46.4,-54.1 53.7,-66.6 53.7,-82.5 C53.7,-91.6 50.9,-99 49.3,-102.6 C46.9,-107.7 44,-111.2 42.2,-111.2 C41.5,-111.2 38.4,-110 35.1,-106.1 C28.7,-98.5 26.9,-85.7 26.9,-77.3 C26.9,-71.9 27.4,-67 29.1,-55.8 C29,-55.7 23.8,-50.4 21.7,-48.7 C12.6,-40.3 0,-28.1 0,-8.1 C0,10.6 16.3,25.3 34.9,25.3 C37.8,25.3 40.5,25 42.8,24.6 C44.7,34.2 45.9,41.2 45.9,46.5 C45.9,56.9 40.5,62.4 30.4,62.4 C28,62.4 25.9,61.9 25.7,61.9 C25.6,61.8 25.4,61.7 25.4,61.6 C25.4,61.4 25.6,61.3 25.9,61.3 C30.6,60.5 35.3,56.5 35.3,50.1 C35.3,44.7 31.2,39 23.7,39 C16.7,39 12.3,44.7 12.3,51.3 M33.2,-82.2 C34.1,-86.2 38.7,-96.7 43.9,-96.7 C45.4,-96.7 47.8,-91.9 47.8,-84.9 C47.8,-74.5 40.1,-66.7 33.2,-59.9 C32.6,-63.9 32.1,-67.8 32.1,-72 C32.1,-75.7 32.4,-79.1 33.2,-82.2 M42,20.6 C40,21 38.1,21.2 36.2,21.2 C21.9,21.2 9.7,11.2 9.7,-3.9 C9.7,-16.1 18.3,-27 27.1,-34.6 C28.8,-36.1 30.4,-37.5 31.9,-39 C32.8,-33.6 33.5,-28.9 34.2,-24.8 C25.1,-22.1 18.9,-12.5 18.9,-3.1 C18.9,3.9 24.4,13.5 32.4,13.5 C33.2,13.5 34.1,13.1 34.1,12.2 C34.1,11.3 33.1,10.8 31.9,10 C28,7.6 25.8,5 25.8,0.1 C25.8,-6 30.4,-10.9 36.2,-12.3 L42,20.6 M56.2,2.1 C56.2,9.2 53.3,16.5 46.2,19.4 C44.1,7.4 41.4,-8.5 40.7,-12.9 C49.7,-12.9 56.2,-6.8 56.2,2.1"/>
<path class="Clef" transform="matrix(0.992,0,0,0.992,123,1115.6)" d="M12.3,51.3 C12.3,57.9 17.3,66.6 30.8,66.6 C35.5,66.6 39.6,65.4 43.2,63.2 C48.6,59.4 50,52.8 50,46.5 C50,42.6 49.4,38.1 48.4,32.4 C48.1,30.4 47.5,27.4 46.9,23.5 C56.7,20.3 64,10.1 64,-0.2 C64,-15.3 53.3,-25.5 38.7,-25.5 C37.7,-31.5 36.7,-37.4 35.9,-43 C46.4,-54.1 53.7,-66.6 53.7,-82.5 C53.7,-91.6 50.9,-99 49.3,-102.6 C46.9,-107.7 44,-111.2 42.2,-111.2 C41.5,-111.2 38.4,-110 35.1,-106.1 C28.7,-98.5 26.9,-85.7 26.9,-77.3 C26.9,-71.9 27.4,-67 29.1,-55.8 C29,-55.7 23.8,-50.4 21.7,-48.7 C12.6,-40.3 0,-28.1 0,-8.1 C0,10.6 16.3,25.3 34.9,25.3 C37.8,25.3 40.5,25 42.8,24.6 C44.7,34.2 45.9,41.2 45.9,46.5 C45.9,56.9 40.5,62.4 30.4,62.4 C28,62.4 25.9,61.9 25.7,61.9 C25.6,61.8 25.4,61.7 25.4,61.6 C25.4,61.4 25.6,61.3 25.9,61.3 C30.6,60.5 35.3,56.5 35.3,50.1 C35.3,44.7 31.2,39 23.7,39 C16.7,39 12.3,44.7 12.3,51.3 M33.2,-82.2 C34.1,-86.2 38.7,-96.7 43.9,-96.7 C45.4,-96.7 47.8,-91.9 47.8,-84.9 C47.8,-74.5 40.1,-66.7 33.2,-59.9 C32.6,-63.9 32.1,-67.8 32.1,-72 C32.1,-75.7 32.4,-79.1 33.2,-82.2 M42,20.6 C40,21 38.1,21.2 36.2,21.2 C21.9,21.2 9.7,11.2 9.7,-3.9 C9.7,-16.1 18.3,-27 27.1,-34.6 C28.8,-36.1 30.4,-37.5 31.9,-39 C32.8,-33.6 33.5,-28.9 34.2,-24.8 C25.1,-22.1 18.9,-12.5 18.9,-3.1 C18.9,3.9 24.4,13.5 32.4,13.5 C33.2,13.5 34.1,13.1 34.1,12.2 C34.1,11.3 33.1,10.8 31.9,10 C28,7.6 25.8,5 25.8,0.1 C25.8,-6 30.4,-10.9 36.2,-12.3 L42,20.6 M56.2,2.1 C56.2,9.2 53.3,16.5 46.2,19.4 C44.1,7.4 41.4,-8.5 40.7,-12.9 C49.7,-12.9 56.2,-6.8 56.2,2.1"/>
<path class="KeySig" transform="matrix(0.992,0,0,0.992,211.28,278)" d="M23.3,-10.5 C23.9,-10.6 24.4,-11.3 24.4,-11.9 L24.4,-17.8 C24.4,-18.8 23.7,-19.2 22.8,-19.2 L19.5,-18.5 L19.5,-33.4 L16.7,-33.4 L16.7,-17.9 L7.8,-16.1 L7.8,-30.2 L5,-30.2 L5,-15.5 L1.1,-14.7 C0.5,-14.6 0,-13.9 0,-13.3 L0,-7.5 C0,-6.4 0.8,-6.1 1.7,-6.1 L5,-6.8 L5,9.7 L1.1,10.5 C0.5,10.6 0,11.3 0,11.9 L0,17.7 C0,18.8 0.8,19.1 1.7,19.1 L5,18.4 L5,33.3 L7.8,33.3 L7.8,17.8 L16.7,16 L16.7,30.1 L19.5,30.1 L19.5,15.4 L23.3,14.7 C23.9,14.6 24.4,13.9 24.4,13.3 L24.4,7.4 C24.4,6.4 23.7,6 22.8,6 L19.5,6.7 L19.5,-9.8 L23.3,-10.5 M7.8,-7.4 L16.7,-9.2 L16.7,7.3 L7.8,9.2 L7.8,-7.4 "/>
<path class="KeySig" transform="matrix(0.992,0,0,0.992,238.452,315.2)" d="M23.3,-10.5 C23.9,-10.6 24.4,-11.3 24.4,-11.9 L24.4,-17.8 C24.4,-18.8 23.7,-19.2 22.8,-19.2 L19.5,-18.5 L19.5,-33.4 L16.7,-33.4 L16.7,-17.9 L7.8,-16.1 L7.8,-30.2 L5,-30.2 L5,-15.5 L1.1,-14.7 C0.5,-14.6 0,-13.9 0,-13.3 L0,-7.5 C0,-6.4 0.8,-6.1 1.7,-6.1 L5,-6.8 L5,9.7 L1.1,10.5 C0.5,10.6 0,11.3 0,11.9 L0,17.7 C0,18.8 0.8,19.1 1.7,19.1 L5,18.4 L5,33.3 L7.8,33.3 L7.8,17.8 L16.7,16 L16.7,30.1 L19.5,30.1 L19.5,15.4 L23.3,14.7 C23.9,14.6 24.4,13.9 24.4,13.3 L24.4,7.4 C24.4,6.4 23.7,6 22.8,6 L19.5,6.7 L19.5,-9.8 L23.3,-10.5 M7.8,-7.4 L16.7,-9.2 L16.7,7.3 L7.8,9.2 L7.8,-7.4 "/>
<path class="KeySig" transform="matrix(0.992,0,0,0.992,211.28,1041.2)" d="M23.3,-10.5 C23.9,-10.6 24.4,-11.3 24.4,-11.9 L24.4,-17.8 C24.4,-18.8 23.7,-19.2 22.8,-19.2 L19.5,-18.5 L19.5,-33.4 L16.7,-33.4 L16.7,-17.9 L7.8,-16.1 L7.8,-30.2 L5,-30.2 L5,-15.5 L1.1,-14.7 C0.5,-14.6 0,-13.9 0,-13.3 L0,-7.5 C0,-6.4 0.8,-6.1 1.7,-6.1 L5,-6.8 L5,9.7 L1.1,10.5 C0.5,10.6 0,11.3 0,11.9 L0,17.7 C0,18.8 0.8,19.1 1.7,19.1 L5,18.4 L5,33.3 L7.8,33.3 L7.8,17.8 L16.7,16 L16.7,30.1 L19.5,30.1 L19.5,15.4 L23.3,14.7 C23.9,14.6 24.4,13.9 24.4,13.3 L24.4,7.4 C24.4,6.4 23.7,6 22.8,6 L19.5,6.7 L19.5,-9.8 L23.3,-10.5 M7.8,-7.4 L16.7,-9.2 L16.7,7.3 L7.8,9.2 L7.8,-7.4 "/>
<path class="KeySig" transform="matrix(0.992,0,0,0.992,238.452,1078.4)" d="M23.3,-10.5 C23.9,-10.6 24.4,-11.3 24.4,-11.9 L24.4,-17.8 C24.4,-18.8 23.7,-19.2 22.8,-19.2 L19.5,-18.5 L19.5,-33.4 L16.7,-33.4 L16.7,-17.9 L7.8,-16.1 L7.8,-30.2 L5,-30.2 L5,-15.5 L1.1,-14.7 C0.5,-14.6 0,-13.9 0,-13.3 L0,-7.5 C0,-6.4 0.8,-6.1 1.7,-6.1 L5,-6.8 L5,9.7 L1.1,10.5 C0.5,10.6 0,11.3 0,11.9 L0,17.7 C0,18.8 0.8,19.1 1.7,19.1 L5,18.4 L5,33.3 L7.8,33.3 L7.8,17.8 L16.7,16 L16.7,30.1 L19.5,30.1 L19.5,15.4 L23.3,14.7 C23.9,14.6 24.4,13.9 24.4,13.3 L24.4,7.4 C24.4,6.4 23.7,6 22.8,6 L19.5,6.7 L19.5,-9.8 L23.3,-10.5 M7.8,-7.4 L16.7,-9.2 L16.7,7.3 L7.8,9.2 L7.8,-7.4 "/>
<path class="KeySig" transform="matrix(0.992,0,0,0.992,211.28,659.6)" d="M23.3,-10.5 C23.9,-10.6 24.4,-11.3 24.4,-11.9 L24.4,-17.8 C24.4,-18.8 23.7,-19.2 22.8,-19.2 L19.5,-18.5 L19.5,-33.4 L16.7,-33.4 L16.7,-17.9 L7.8,-16.1 L7.8,-30.2 L5,-30.2 L5,-15.5 L1.1,-14.7 C0.5,-14.6 0,-13.9 0,-13.3 L0,-7.5 C0,-6.4 0.8,-6.1 1.7,-6.1 L5,-6.8 L5,9.7 L1.1,10.5 C0.5,10.6 0,11.3 0,11.9 L0,17.7 C0,18.8 0.8,19.1 1.7,19.1 L5,18.4 L5,33.3 L7.8,33.3 L7.8,17.8 L16.7,16 L16.7,30.1 L19.5,30.1 L19.5,15.4 L23.3,14.7 C23.9,14.6 24.4,13.9 24.4,13.3 L24.4,7.4 C24.4,6.4 23.7,6 22.8,6 L19.5,6.7 L19.5,-9.8 L23.3,-10.5 M7.8,-7.4 L16.7,-9.2 L16.7,7.3 L7.8,9.2 L7.8,-7.4 "/>
<path class="KeySig" transform="matrix(0.992,0,0,0.992,238.452,696.8)" d="M23.3,-10.5 C23.9,-10.6 24.4,-11.3 24.4,-11.9 L24.4,-17.8 C24.4,-18.8 23.7,-19.2 22.8,-19.2 L19.5,-18.5 L19.5,-33.4 L16.7,-33.4 L16.7,-17.9 L7.8,-16.1 L7.8,-30.2 L5,-30.2 L5,-15.5 L1.1,-14.7 C0.5,-14.6 0,-13.9 0,-13.3 L0,-7.5 C0,-6.4 0.8,-6.1 1.7,-6.1 L5,-6.8 L5,9.7 L1.1,10.5 C0.5,10.6 0,11.3 0,11.9 L0,17.7 C0,18.8 0.8,19.1 1.7,19.1 L5,18.4 L5,33.3 L7.8,33.3 L7.8,17.8 L16.7,16 L16.7,30.1 L19.5,30.1 L19.5,15.4 L23.3,14.7 C23.9,14.6 24.4,13.9 24.4,13.3 L24.4,7.4 C24.4,6.4 23.7,6 22.8,6 L19.5,6.7 L19.5,-9.8 L23.3,-10.5 M7.8,-7.4 L16.7,-9.2 L16.7,7.3 L7.8,9.2 L7.8,-7.4 "/>
<path class="Rest" transform="matrix(0.992,0,0,0.992,1562.7,709.2)" d="M23,16.6 C22.9,16.5 22.7,16.3 22.4,15.9 L10.9,1.7 C10.8,1.6 10.7,1.3 10.7,1.1 C10.7,0.8 10.8,0.4 10.9,0.2 L21.1,-15.2 C21.2,-15.4 21.3,-15.7 21.3,-15.9 L21.3,-16.8 C21.3,-17.1 21.2,-17.4 21,-17.6 L4.8,-39.5 C4.8,-39.5 4.4,-40.1 3.8,-40.1 C3.5,-40.1 3.3,-40.1 3,-39.8 C2.6,-39.5 2.5,-39.1 2.5,-38.8 C2.5,-38.2 2.8,-37.7 2.8,-37.7 L10.4,-27.3 C10.6,-27 10.7,-26.6 10.7,-26.1 C10.7,-25.7 10.6,-25.2 10.4,-24.9 L0.3,-9.5 C0.2,-9.3 0.1,-8.9 0.1,-8.7 L0.1,-7.8 C0.1,-7.5 0.2,-7.2 0.4,-7 L11.6,6.9 C11.2,6.8 10.3,6.6 9.1,6.6 C4,6.6 0,10.8 0,15.9 C0,17.3 0.3,18.7 1.1,19.8 C3.2,23 10.7,32.5 10.7,32.5 C10.7,32.5 11.2,33.1 11.9,33.1 C12.1,33.1 12.3,33.1 12.5,32.9 C13,32.5 13.2,32.1 13.2,31.7 C13.2,31.3 13,31 12.9,30.8 C12.6,30.3 9.4,24.5 9.4,24.5 C9.4,24.5 8.7,23.1 8.7,21.3 C8.7,18.1 11.1,15.5 14.3,15.5 C15.6,15.5 16.7,15.9 17.5,16.4 L21.4,18.9 C21.4,18.9 21.8,19.1 22.2,19.1 C22.6,19.1 22.9,19 23.2,18.6 C23.4,18.3 23.5,18 23.5,17.7 C23.5,17.4 23.4,17.2 23.2,16.9 L23,16.6 "/>
<path class="Rest" transform="matrix(0.992,0,0,0.992,490.943,327.6)" d="M23,16.6 C22.9,16.5 22.7,16.3 22.4,15.9 L10.9,1.7 C10.8,1.6 10.7,1.3 10.7,1.1 C10.7,0.8 10.8,0.4 10.9,0.2 L21.1,-15.2 C21.2,-15.4 21.3,-15.7 21.3,-15.9 L21.3,-16.8 C21.3,-17.1 21.2,-17.4 21,-17.6 L4.8,-39.5 C4.8,-39.5 4.4,-40.1 3.8,-40.1 C3.5,-40.1 3.3,-40.1 3,-39.8 C2.6,-39.5 2.5,-39.1 2.5,-38.8 C2.5,-38.2 2.8,-37.7 2.8,-37.7 L10.4,-27.3 C10.6,-27 10.7,-26.6 10.7,-26.1 C10.7,-25.7 10.6,-25.2 10.4,-24.9 L0.3,-9.5 C0.2,-9.3 0.1,-8.9 0.1,-8.7 L0.1,-7.8 C0.1,-7.5 0.2,-7.2 0.4,-7 L11.6,6.9 C11.2,6.8 10.3,6.6 9.1,6.6 C4,6.6 0,10.8 0,15.9 C0,17.3 0.3,18.7 1.1,19.8 C3.2,23 10.7,32.5 10.7,32.5 C10.7,32.5 11.2,33.1 11.9,33.1 C12.1,33.1 12.3,33.1 12.5,32.9 C13,32.5 13.2,32.1 13.2,31.7 C13.2,31.3 13,31 12.9,30.8 C12.6,30.3 9.4,24.5 9.4,24.5 C9.4,24.5 8.7,23.1 8.7,21.3 C8.7,18.1 11.1,15.5 14.3,15.5 C15.6,15.5 16.7,15.9 17.5,16.4 L21.4,18.9 C21.4,18.9 21.8,19.1 22.2,19.1 C22.6,19.1 22.9,19 23.2,18.6 C23.4,18.3 23.5,18 23.5,17.7 C23.5,17.4 23.4,17.2 23.2,16.9 L23,16.6 "/>
<path class="Hook" transform="matrix(0.992,0,0,0.992,1307.51,672)" d="M0,22.7 C0,23 0.1,23.6 0.8,23.8 C5.1,25.2 13.7,30.6 20.2,41.7 C22,44.8 24.9,49.1 24.9,57.4 C24.9,64.6 23.1,72 20.4,79.2 C20.2,79.8 20.1,80.3 20.1,80.7 C20.1,81.4 20.5,81.7 21.2,81.7 C21.8,81.7 22.3,81.3 22.7,80.6 C27.2,72.6 28.9,63.3 28.9,54.2 C28.4,41.3 21,31.8 21,31.8 C21.3,31.8 11.8,19.5 9.1,15.3 C5.4,9.6 3.7,3.9 3.5,3.5 C3.4,3.2 2.5,-0.4 2.5,-0.4 C2.4,-0.8 1.9,-1.2 1.3,-1.2 C0.6,-1.2 0,-0.6 0,0.1 L0,22.7 "/>
<path class="Hook" transform="matrix(0.992,0,0,0.992,1125.38,259.4)" d="M0,22.7 C0,23 0.1,23.6 0.8,23.8 C5.1,25.2 13.7,30.6 20.2,41.7 C22,44.8 24.9,49.1 24.9,57.4 C24.9,64.6 23.1,72 20.4,79.2 C20.2,79.8 20.1,80.3 20.1,80.7 C20.1,81.4 20.5,81.7 21.2,81.7 C21.8,81.7 22.3,81.3 22.7,80.6 C27.2,72.6 28.9,63.3 28.9,54.2 C28.4,41.3 21,31.8 21,31.8 C21.3,31.8 11.8,19.5 9.1,15.3 C5.4,9.6 3.7,3.9 3.5,3.5 C3.4,3.2 2.5,-0.4 2.5,-0.4 C2.4,-0.8 1.9,-1.2 1.3,-1.2 C0.6,-1.2 0,-0.6 0,0.1 L0,22.7 "/>
<path class="Hook" transform="matrix(0.992,0,0,0.992,1474.93,259.4)" d="M0,22.7 C0,23 0.1,23.6 0.8,23.8 C5.1,25.2 13.7,30.6 20.2,41.7 C22,44.8 24.9,49.1 24.9,57.4 C24.9,64.6 23.1,72 20.4,79.2 C20.2,79.8 20.1,80.3 20.1,80.7 C20.1,81.4 20.5,81.7 21.2,81.7 C21.8,81.7 22.3,81.3 22.7,80.6 C27.2,72.6 28.9,63.3 28.9,54.2 C28.4,41.3 21,31.8 21,31.8 C21.3,31.8 11.8,19.5 9.1,15.3 C5.4,9.6 3.7,3.9 3.5,3.5 C3.4,3.2 2.5,-0.4 2.5,-0.4 C2.4,-0.8 1.9,-1.2 1.3,-1.2 C0.6,-1.2 0,-0.6 0,0.1 L0,22.7 "/>
<path class="Hook" transform="matrix(0.992,0,0,0.992,1139.63,647.2)" d="M0,22.7 C0,23 0.1,23.6 0.8,23.8 C5.1,25.2 13.7,30.6 20.2,41.7 C22,44.8 24.9,49.1 24.9,57.4 C24.9,64.6 23.1,72 20.4,79.2 C20.2,79.8 20.1,80.3 20.1,80.7 C20.1,81.4 20.5,81.7 21.2,81.7 C21.8,81.7 22.3,81.3 22.7,80.6 C27.2,72.6 28.9,63.3 28.9,54.2 C28.4,41.3 21,31.8 21,31.8 C21.3,31.8 11.8,19.5 9.1,15.3 C5.4,9.6 3.7,3.9 3.5,3.5 C3.4,3.2 2.5,-0.4 2.5,-0.4 C2.4,-0.8 1.9,-1.2 1.3,-1.2 C0.6,-1.2 0,-0.6 0,0.1 L0,22.7 "/>
<path class="Hook" transform="matrix(0.992,0,0,0.992,804.881,641)" d="M0,22.7 C0,23 0.1,23.6 0.8,23.8 C5.1,25.2 13.7,30.6 20.2,41.7 C22,44.8 24.9,49.1 24.9,57.4 C24.9,64.6 23.1,72 20.4,79.2 C20.2,79.8 20.1,80.3 20.1,80.7 C20.1,81.4 20.5,81.7 21.2,81.7 C21.8,81.7 22.3,81.3 22.7,80.6 C27.2,72.6 28.9,63.3 28.9,54.2 C28.4,41.3 21,31.8 21,31.8 C21.3,31.8 11.8,19.5 9.1,15.3 C5.4,9.6 3.7,3.9 3.5,3.5 C3.4,3.2 2.5,-0.4 2.5,-0.4 C2.4,-0.8 1.9,-1.2 1.3,-1.2 C0.6,-1.2 0,-0.6 0,0.1 L0,22.7 "/>
<path class="Hook" transform="matrix(0.992,0,0,0.992,467.223,1022.6)" d="M0,22.7 C0,23 0.1,23.6 0.8,23.8 C5.1,25.2 13.7,30.6 20.2,41.7 C22,44.8 24.9,49.1 24.9,57.4 C24.9,64.6 23.1,72 20.4,79.2 C20.2,79.8 20.1,80.3 20.1,80.7 C20.1,81.4 20.5,81.7 21.2,81.7 C21.8,81.7 22.3,81.3 22.7,80.6 C27.2,72.6 28.9,63.3 28.9,54.2 C28.4,41.3 21,31.8 21,31.8 C21.3,31.8 11.8,19.5 9.1,15.3 C5.4,9.6 3.7,3.9 3.5,3.5 C3.4,3.2 2.5,-0.4 2.5,-0.4 C2.4,-0.8 1.9,-1.2 1.3,-1.2 C0.6,-1.2 0,-0.6 0,0.1 L0,22.7 "/>
<path class="Lyrics" d="M353.238,1190 L349.438,1190 L349.438,1233.7 L353.238,1233.7 L353.238,1210.55 L360.338,1210.55 L360.338,1207.35 L353.238,1207.35 L353.238,1190 M325.088,1219.75 L325.088,1197.75 L341.988,1197.75 L341.988,1194.55 L321.238,1194.55 L321.238,1223 L325.538,1223 C333.138,1223 341.788,1222.4 346.488,1221.5 L346.088,1218.35 C341.888,1219.25 333.238,1219.75 327.588,1219.75 L325.088,1219.75 "/>
<path class="Lyrics" d="M1106.76,1204.85 L1106.76,1201.65 L1100.81,1201.65 L1100.81,1190 L1097.06,1190 L1097.06,1216.3 L1100.81,1216.3 L1100.81,1204.85 L1106.76,1204.85 M1101.06,1225.2 C1101.06,1220.3 1096.11,1216.85 1086.61,1216.85 C1077.11,1216.85 1072.16,1220.2 1072.16,1225.2 C1072.16,1230.2 1077.11,1233.55 1086.61,1233.55 C1096.11,1233.55 1101.06,1230.15 1101.06,1225.2 M1086.61,1220.05 C1093.21,1220.05 1097.16,1222 1097.16,1225.2 C1097.16,1228.4 1093.16,1230.35 1086.61,1230.35 C1079.96,1230.35 1076.06,1228.35 1076.06,1225.2 C1076.06,1222.1 1079.96,1220.05 1086.61,1220.05 M1080.06,1211.4 L1079.56,1208.35 C1076.56,1209.1 1074.06,1209.35 1071.51,1209.4 L1071.51,1196.85 L1078.71,1196.85 L1078.71,1193.7 L1067.76,1193.7 L1067.76,1212.65 C1073.16,1212.65 1076.71,1212.15 1080.06,1211.4 M1094.96,1211.5 L1094.46,1208.45 C1091.91,1209.05 1088.46,1209.4 1085.21,1209.4 L1085.21,1196.85 L1092.76,1196.85 L1092.76,1193.7 L1081.41,1193.7 L1081.41,1212.65 C1086.86,1212.65 1091.51,1212.25 1094.96,1211.5"/>
<path class="Lyrics" d="M1934.56,827.553 L1934.56,824.553 L1908.61,824.553 L1908.61,820.053 L1933.71,820.053 L1933.71,809.953 L1904.61,809.953 L1904.61,812.953 L1929.91,812.953 L1929.91,817.203 L1904.81,817.203 L1904.81,827.553 L1934.56,827.553 M1939.01,834.503 L1939.01,831.403 L1899.56,831.403 L1899.56,834.503 L1939.01,834.503 M1933.96,851.503 L1933.96,838.453 L1904.61,838.453 L1904.61,851.503 L1933.96,851.503 M1930.16,848.503 L1908.41,848.503 L1908.41,841.453 L1930.16,841.453 L1930.16,848.503 "/>
<path class="Lyrics" d="M461.525,1201.2 C461.525,1195.6 456.825,1191.8 450.075,1191.8 C443.275,1191.8 438.575,1195.6 438.575,1201.2 C438.575,1206.65 443.275,1210.45 450.075,1210.45 C456.775,1210.45 461.525,1206.65 461.525,1201.2 M471.775,1233.7 L471.775,1190 L468.025,1190 L468.025,1220.1 L458.025,1220.1 L458.025,1223.25 L468.025,1223.25 L468.025,1233.7 L471.775,1233.7 M457.825,1201.2 C457.825,1205.05 454.425,1207.25 450.075,1207.25 C445.675,1207.25 442.225,1205.05 442.225,1201.2 C442.225,1197.2 445.675,1195 450.075,1195 C454.425,1195 457.825,1197.2 457.825,1201.2 M451.725,1232.4 L451.725,1216.75 C456.575,1216.5 461.875,1216.1 465.175,1215.65 L464.875,1212.65 C460.625,1213.15 455.625,1213.45 450.175,1213.65 C445.375,1213.85 440.625,1213.9 435.425,1213.9 L435.975,1217.2 C439.925,1217.15 443.825,1217.15 447.925,1216.95 L447.925,1232.4 L451.725,1232.4 "/>
<path class="Lyrics" d="M1852.57,829.203 L1852.57,826.003 L1845.42,826.003 L1845.42,808.403 L1841.62,808.403 L1841.62,852.103 L1845.42,852.103 L1845.42,829.203 L1852.57,829.203 M1812.42,827.103 C1812.42,836.403 1816.52,842.603 1823.62,842.603 C1830.72,842.603 1834.77,836.403 1834.77,827.153 C1834.77,817.903 1830.72,811.703 1823.62,811.703 C1816.52,811.703 1812.42,817.903 1812.42,827.103 M1831.07,827.153 C1831.07,834.303 1828.17,839.303 1823.62,839.303 C1819.07,839.303 1816.12,834.303 1816.12,827.153 C1816.12,819.953 1819.07,815.003 1823.62,815.003 C1828.17,815.003 1831.07,819.953 1831.07,827.153"/>
<path class="Lyrics" d="M1718.05,823.053 C1718.05,815.853 1711.8,811.153 1702.25,811.153 C1692.85,811.153 1686.55,815.853 1686.55,823.053 C1686.55,829.753 1692,834.253 1700.35,834.853 L1700.35,843.153 L1682.6,843.153 L1682.6,846.353 L1722.05,846.353 L1722.05,843.153 L1704.15,843.153 L1704.15,834.853 C1712.55,834.303 1718.05,829.753 1718.05,823.053 M1714.4,823.103 C1714.4,828.353 1709.6,831.803 1702.25,831.803 C1695,831.803 1690.25,828.353 1690.25,823.103 C1690.25,817.853 1695,814.353 1702.25,814.353 C1709.65,814.353 1714.4,817.853 1714.4,823.103"/>
<path class="Lyrics" d="M536.919,1190 L533.169,1190 L533.169,1233.7 L536.919,1233.7 L536.919,1210.8 L543.969,1210.8 L543.969,1207.6 L536.919,1207.6 L536.919,1190 M529.319,1218.6 C523.469,1219.7 515.719,1220.15 508.769,1220.1 L508.769,1209.55 L525.069,1209.55 L525.069,1194.05 L504.869,1194.05 L504.869,1197.2 L521.269,1197.2 L521.269,1206.4 L504.969,1206.4 L504.969,1223.3 L508.669,1223.3 C515.819,1223.3 524.919,1222.65 529.819,1221.65 L529.319,1218.6 "/>
<path class="Lyrics" d="M1433.53,834.053 L1433.53,830.853 L1394.08,830.853 L1394.08,834.053 L1433.53,834.053 M1429.08,850.853 L1429.08,847.653 L1403.08,847.653 L1403.08,838.103 L1399.28,838.103 L1399.28,850.853 L1429.08,850.853 M1429.03,818.253 C1429.03,812.753 1423.33,809.703 1413.83,809.703 C1404.33,809.703 1398.63,812.753 1398.63,818.253 C1398.63,823.853 1404.28,826.903 1413.78,826.903 C1423.33,826.903 1429.03,823.853 1429.03,818.253 M1413.83,812.853 C1420.78,812.853 1425.28,814.653 1425.28,818.303 C1425.28,821.853 1420.73,823.703 1413.78,823.703 C1406.88,823.703 1402.43,821.853 1402.43,818.303 C1402.43,814.653 1406.93,812.853 1413.83,812.853"/>
<path class="Lyrics" d="M1892.31,1211.8 L1892.31,1208.75 L1852.86,1208.75 L1852.86,1211.8 L1892.31,1211.8 M1888.56,1232.95 L1888.56,1229.95 L1861.31,1229.95 L1861.31,1225.4 L1887.21,1225.4 L1887.21,1215.55 L1857.46,1215.55 L1857.46,1218.55 L1883.41,1218.55 L1883.41,1222.6 L1857.51,1222.6 L1857.51,1232.95 L1888.56,1232.95 M1887.86,1205.1 L1887.86,1202.05 L1861.51,1202.05 L1861.51,1195.05 L1887.36,1195.05 L1887.36,1191.95 L1857.66,1191.95 L1857.66,1205.1 L1887.86,1205.1 "/>
<path class="Lyrics" d="M1313.36,821.303 L1313.36,818.103 L1306.71,818.103 L1306.71,808.403 L1302.91,808.403 L1302.91,830.703 L1306.71,830.703 L1306.71,821.303 L1313.36,821.303 M1308.36,851.653 L1308.36,848.503 L1282.76,848.503 L1282.76,843.453 L1306.71,843.453 L1306.71,833.003 L1278.81,833.003 L1278.81,836.103 L1302.91,836.103 L1302.91,840.553 L1278.96,840.553 L1278.96,851.653 L1308.36,851.653 M1278.21,826.003 L1278.21,814.453 L1294.66,814.453 L1294.66,811.253 L1274.41,811.253 L1274.41,829.153 L1277.96,829.153 C1285.51,829.153 1294.01,828.553 1298.86,827.753 L1298.46,824.653 C1294.26,825.503 1286.46,826.003 1280.36,826.003 L1278.21,826.003 "/>
<path class="Lyrics" d="M1200.69,840.303 L1200.69,808.403 L1196.89,808.403 L1196.89,840.303 L1200.69,840.303 M1201.79,850.653 L1201.79,847.503 L1175.99,847.503 L1175.99,837.153 L1172.19,837.153 L1172.19,850.653 L1201.79,850.653 M1177.69,811.303 C1171.09,811.303 1165.94,815.753 1165.94,822.253 C1165.94,828.753 1171.09,833.053 1177.74,833.053 C1184.39,833.053 1189.49,828.703 1189.49,822.203 C1189.49,815.703 1184.34,811.303 1177.69,811.303 M1177.69,814.603 C1182.54,814.603 1185.89,817.753 1185.89,822.253 C1185.89,826.603 1182.54,829.703 1177.74,829.703 C1173.14,829.703 1169.59,826.603 1169.59,822.203 C1169.59,817.753 1173.09,814.603 1177.69,814.603"/>
<path class="Lyrics" d="M677.044,1208.5 C677.044,1217.8 681.044,1223.95 688.094,1223.95 C694.744,1223.95 698.644,1218.45 699.044,1210.05 L708.394,1210.05 L708.394,1233.7 L712.194,1233.7 L712.194,1190 L708.394,1190 L708.394,1206.8 L699.044,1206.8 C698.544,1198.5 694.694,1193.05 688.094,1193.05 C681.044,1193.05 677.044,1199.25 677.044,1208.5 M695.344,1208.55 C695.344,1215.65 692.394,1220.65 688.094,1220.65 C683.744,1220.65 680.844,1215.65 680.844,1208.55 C680.844,1201.35 683.744,1196.35 688.094,1196.35 C692.394,1196.35 695.344,1201.35 695.344,1208.55"/>
<path class="Lyrics" d="M360.519,449.286 L360.519,446.086 L321.069,446.086 L321.069,449.286 L360.519,449.286 M356.119,435.386 C356.119,430.586 350.319,427.786 340.819,427.786 C331.419,427.786 325.619,430.586 325.619,435.386 C325.619,440.186 331.419,442.936 340.819,442.936 C350.319,442.936 356.119,440.186 356.119,435.386 M340.819,430.886 C347.769,430.886 352.269,432.636 352.269,435.386 C352.269,438.086 347.769,439.786 340.819,439.786 C333.969,439.786 329.519,438.086 329.519,435.386 C329.519,432.636 333.969,430.886 340.819,430.886 M357.019,470.486 L357.019,467.386 L329.469,467.386 L329.469,462.986 L355.569,462.986 L355.569,453.186 L325.569,453.186 L325.569,456.236 L351.769,456.236 L351.769,460.086 L325.669,460.086 L325.669,470.486 L357.019,470.486 "/>
<path class="Lyrics" d="M1142.74,851.453 L1142.74,835.453 L1114.09,835.453 L1114.09,851.453 L1142.74,851.453 M1138.94,848.303 L1117.89,848.303 L1117.89,838.553 L1138.94,838.553 L1138.94,848.303 M1138.94,808.403 L1138.94,832.703 L1142.74,832.703 L1142.74,808.403 L1138.94,808.403 M1134.84,824.503 C1129.24,825.653 1119.44,826.653 1113.09,826.403 L1113.09,810.653 L1109.29,810.653 L1109.29,829.753 L1111.79,829.753 C1119.39,829.753 1130.44,828.803 1135.29,827.753 L1134.84,824.503 "/>
<path class="Lyrics" d="M796.835,1209.5 L796.835,1233.7 L800.635,1233.7 L800.635,1190 L796.835,1190 L796.835,1206.3 L788.735,1206.3 L788.735,1209.5 L796.835,1209.5 M786.735,1222.4 L786.735,1194.5 L766.535,1194.5 L766.535,1222.4 L786.735,1222.4 M782.935,1219.25 L770.385,1219.25 L770.385,1197.65 L782.935,1197.65 L782.935,1219.25 "/>
<path class="Lyrics" d="M1017.82,852.153 L1017.82,836.553 L1035.72,836.553 L1035.72,833.353 L996.274,833.353 L996.274,836.553 L1014.02,836.553 L1014.02,852.153 L1017.82,852.153 M1031.12,827.103 L1031.12,823.903 L1005.02,823.903 L1005.02,810.753 L1001.22,810.753 L1001.22,827.103 L1031.12,827.103 "/>
<path class="Lyrics" d="M625.574,456.586 L623.374,456.586 L622.874,459.136 C622.224,462.386 621.824,462.686 618.724,462.686 L607.524,462.686 C610.974,459.086 612.124,458.036 615.324,455.536 C619.874,452.036 621.824,450.286 622.974,448.786 C624.574,446.586 625.374,444.386 625.374,441.936 C625.374,436.236 620.674,432.186 614.124,432.186 C607.774,432.186 602.924,436.236 602.924,441.586 C602.924,444.736 604.524,446.886 606.874,446.886 C608.724,446.886 609.974,445.636 609.974,443.836 C609.974,442.586 609.274,441.436 608.224,440.986 C606.374,440.236 606.274,440.136 606.274,439.486 C606.274,438.736 606.774,437.586 607.474,436.736 C608.724,435.186 610.774,434.336 613.124,434.336 C617.274,434.336 619.724,436.886 619.724,441.086 C619.724,444.786 617.974,448.136 613.824,452.536 C610.124,456.436 607.824,458.886 606.974,459.836 C605.174,461.936 604.274,463.086 602.074,465.986 L602.074,467.386 L624.624,467.386 L625.574,456.586 M634.971,461.836 C633.221,461.836 631.821,463.236 631.821,464.936 C631.821,466.686 633.221,468.086 634.921,468.086 C636.671,468.086 638.071,466.686 638.071,464.936 C638.071,463.236 636.671,461.836 634.971,461.836"/>
<path class="Lyrics" d="M679.361,441.836 C679.361,434.636 673.111,429.936 663.561,429.936 C654.161,429.936 647.861,434.636 647.861,441.836 C647.861,448.536 653.311,453.036 661.661,453.636 L661.661,461.936 L643.911,461.936 L643.911,465.136 L683.361,465.136 L683.361,461.936 L665.461,461.936 L665.461,453.636 C673.861,453.086 679.361,448.536 679.361,441.836 M675.711,441.886 C675.711,447.136 670.911,450.586 663.561,450.586 C656.311,450.586 651.561,447.136 651.561,441.886 C651.561,436.636 656.311,433.136 663.561,433.136 C670.961,433.136 675.711,436.636 675.711,441.886"/>
<path class="Lyrics" d="M889.058,1190 L885.308,1190 L885.308,1233.7 L889.058,1233.7 L889.058,1190 M880.858,1217.65 C875.658,1218.8 865.558,1219.6 859.958,1219.6 L859.958,1194.55 L856.108,1194.55 L856.108,1222.95 L858.058,1222.95 C864.758,1222.95 876.158,1222.1 881.208,1220.95 L880.858,1217.65 "/>
<path class="Lyrics" d="M869.983,829.903 L869.983,826.653 L862.883,826.653 L862.883,808.403 L859.083,808.403 L859.083,852.103 L862.883,852.103 L862.883,829.903 L869.983,829.903 M856.583,841.053 L856.283,837.903 C852.383,838.503 846.883,838.903 841.633,839.153 L841.633,825.453 L837.783,825.453 L837.783,839.253 C834.533,839.353 830.633,839.303 828.233,839.303 L828.783,842.653 C832.433,842.653 837.283,842.503 841.683,842.303 C845.933,842.053 852.383,841.603 856.583,841.053 M853.283,813.003 L830.433,813.003 L830.433,816.203 L849.433,816.203 C849.633,821.103 849.033,828.303 848.083,832.553 L851.733,833.053 C852.683,828.803 853.383,819.703 853.283,813.003"/>
<path class="Lyrics" d="M811.161,824.603 L804.511,824.603 L804.511,818.353 L811.161,818.353 L811.161,815.153 L804.511,815.153 L804.511,808.403 L800.711,808.403 L800.711,834.753 L804.511,834.753 L804.511,827.753 L811.161,827.753 L811.161,824.603 M804.861,843.603 C804.861,838.653 799.911,835.203 790.361,835.203 C780.861,835.203 775.961,838.553 775.961,843.603 C775.961,848.603 780.861,852.003 790.361,852.003 C799.911,852.003 804.861,848.603 804.861,843.603 M790.361,838.353 C796.961,838.353 800.961,840.403 800.961,843.603 C800.961,846.853 796.961,848.853 790.361,848.853 C783.761,848.853 779.861,846.753 779.861,843.603 C779.861,840.453 783.761,838.353 790.361,838.353 M782.711,810.803 C776.461,810.803 771.361,815.003 771.361,821.353 C771.361,827.753 776.461,831.703 782.711,831.703 C788.911,831.703 794.011,827.753 794.011,821.303 C794.011,815.003 788.911,810.803 782.711,810.803 M782.711,813.903 C787.311,813.903 790.361,817.003 790.361,821.353 C790.361,825.653 787.261,828.603 782.711,828.603 C778.311,828.603 775.061,825.653 775.061,821.303 C775.061,817.003 778.311,813.903 782.711,813.903"/>
<path class="Lyrics" d="M978.925,1221.75 L978.925,1190 L975.125,1190 L975.125,1221.75 L978.925,1221.75 M969.625,1211.8 C964.425,1209.95 958.525,1204.55 958.525,1197.25 L958.525,1192.5 L954.675,1192.5 L954.675,1197.35 C954.675,1204.35 949.025,1210.75 943.275,1213.3 L945.575,1216.3 C950.325,1213.9 955.375,1208.85 956.675,1204.15 C958.475,1208.75 962.975,1212.9 967.475,1214.85 L969.625,1211.8 M979.875,1232.35 L979.875,1229.2 L954.525,1229.2 L954.525,1218.9 L950.725,1218.9 L950.725,1232.35 L979.875,1232.35 "/>
<path class="Lyrics" d="M698.84,852.103 L698.84,808.403 L695.09,808.403 L695.09,826.003 L689.29,826.003 L689.29,809.453 L685.59,809.453 L685.59,849.853 L689.29,849.853 L689.29,829.153 L695.09,829.153 L695.09,852.103 L698.84,852.103 M667.49,837.953 L667.49,828.203 L680.24,828.203 L680.24,825.153 L667.49,825.153 L667.49,816.503 L680.79,816.503 L680.79,813.353 L663.64,813.353 L663.64,841.153 L666.04,841.153 C673.84,841.153 679.09,840.753 683.24,839.853 L682.74,836.753 C679.34,837.553 673.99,837.953 669.09,837.953 L667.49,837.953 "/>
<path class="Lyrics" d="M1755.43,1231.45 C1749.63,1230.9 1742.28,1227.15 1741.18,1223.15 L1754.08,1223.15 L1754.08,1220 L1724.18,1220 L1724.18,1223.15 L1736.93,1223.15 C1735.88,1227.15 1729.03,1230.85 1722.43,1231.4 L1724.33,1234.35 C1730.88,1233.5 1737.13,1229.8 1739.03,1226.15 C1741.28,1229.7 1747.13,1233.25 1753.43,1234.4 L1755.43,1231.45 M1758.83,1210.95 L1758.83,1207.8 L1741.43,1207.8 L1741.43,1200.35 L1737.63,1200.35 L1737.63,1207.8 L1719.38,1207.8 L1719.38,1210.95 L1758.83,1210.95 M1754.08,1191.1 L1739.88,1191.1 L1739.88,1194.25 L1750.18,1194.25 C1750.18,1197.35 1749.98,1201.15 1749.13,1204.05 L1752.78,1204.65 C1753.68,1201.55 1754.08,1196.3 1754.08,1191.1 M1736.23,1191.1 L1722.88,1191.1 L1722.88,1194.25 L1732.33,1194.25 C1732.33,1197.1 1731.38,1201.7 1730.38,1203.95 L1734.13,1204.65 C1735.18,1201.85 1736.23,1195.8 1736.23,1191.1 M1745.98,1217.35 L1745.98,1214.2 L1732.33,1214.2 L1732.33,1217.35 L1745.98,1217.35 "/>
<path class="Lyrics" d="M574.576,840.303 L574.576,808.403 L570.776,808.403 L570.776,840.303 L574.576,840.303 M575.676,850.653 L575.676,847.503 L549.876,847.503 L549.876,837.153 L546.076,837.153 L546.076,850.653 L575.676,850.653 M551.576,811.303 C544.976,811.303 539.826,815.753 539.826,822.253 C539.826,828.753 544.976,833.053 551.626,833.053 C558.276,833.053 563.376,828.703 563.376,822.203 C563.376,815.703 558.226,811.303 551.576,811.303 M551.576,814.603 C556.426,814.603 559.776,817.753 559.776,822.253 C559.776,826.603 556.426,829.703 551.626,829.703 C547.026,829.703 543.476,826.603 543.476,822.203 C543.476,817.753 546.976,814.603 551.576,814.603"/>
<path class="Lyrics" d="M487.697,851.453 L487.697,835.453 L459.047,835.453 L459.047,851.453 L487.697,851.453 M483.897,848.303 L462.847,848.303 L462.847,838.553 L483.897,838.553 L483.897,848.303 M483.897,808.403 L483.897,832.703 L487.697,832.703 L487.697,808.403 L483.897,808.403 M479.797,824.503 C474.197,825.653 464.397,826.653 458.047,826.403 L458.047,810.653 L454.247,810.653 L454.247,829.753 L456.747,829.753 C464.347,829.753 475.397,828.803 480.247,827.753 L479.797,824.503 "/>
<path class="Lyrics" d="M809.385,447.986 L809.385,444.786 L802.235,444.786 L802.235,427.186 L798.435,427.186 L798.435,470.886 L802.235,470.886 L802.235,447.986 L809.385,447.986 M769.235,445.886 C769.235,455.186 773.335,461.386 780.435,461.386 C787.535,461.386 791.585,455.186 791.585,445.936 C791.585,436.686 787.535,430.486 780.435,430.486 C773.335,430.486 769.235,436.686 769.235,445.886 M787.885,445.936 C787.885,453.086 784.985,458.086 780.435,458.086 C775.885,458.086 772.935,453.086 772.935,445.936 C772.935,438.736 775.885,433.786 780.435,433.786 C784.985,433.786 787.885,438.736 787.885,445.936"/>
<path class="Lyrics" d="M358.657,844.503 C358.657,839.853 353.607,836.953 344.107,836.953 C334.607,836.953 329.707,839.803 329.707,844.503 C329.707,849.153 334.607,852.003 344.107,852.003 C353.607,852.003 358.657,849.153 358.657,844.503 M344.107,840.053 C350.757,840.053 354.707,841.703 354.707,844.503 C354.707,847.353 350.757,848.903 344.107,848.903 C337.507,848.903 333.657,847.303 333.657,844.503 C333.657,841.753 337.507,840.053 344.107,840.053 M358.457,836.953 L358.457,808.403 L354.657,808.403 L354.657,819.803 L346.957,819.803 L346.957,822.903 L354.657,822.903 L354.657,827.903 L346.957,827.903 L346.957,831.053 L354.657,831.053 L354.657,836.953 L358.457,836.953 M341.507,812.503 L341.507,809.253 L329.007,809.253 L329.007,812.503 L341.507,812.503 M347.307,818.703 L347.307,815.653 L322.907,815.653 L322.907,818.703 L347.307,818.703 M345.507,828.203 C345.507,823.703 341.207,820.953 335.407,820.953 C329.707,820.953 325.407,823.703 325.407,828.203 C325.407,832.653 329.757,835.453 335.407,835.453 C341.207,835.453 345.507,832.603 345.507,828.203 M341.707,828.203 C341.707,830.903 338.857,832.403 335.407,832.403 C332.107,832.403 329.157,830.903 329.157,828.203 C329.157,825.503 332.057,824.003 335.407,824.003 C338.857,824.003 341.707,825.503 341.707,828.203"/>
<path class="Lyrics" d="M1894.62,448.986 L1894.62,445.936 L1855.17,445.936 L1855.17,448.986 L1894.62,448.986 M1890.87,470.136 L1890.87,467.136 L1863.62,467.136 L1863.62,462.586 L1889.52,462.586 L1889.52,452.736 L1859.77,452.736 L1859.77,455.736 L1885.72,455.736 L1885.72,459.786 L1859.82,459.786 L1859.82,470.136 L1890.87,470.136 M1890.17,442.286 L1890.17,439.236 L1863.82,439.236 L1863.82,432.236 L1889.67,432.236 L1889.67,429.136 L1859.97,429.136 L1859.97,442.286 L1890.17,442.286 "/>
<path class="Lyrics" d="M1241.62,1211.5 L1241.62,1208.25 L1234.52,1208.25 L1234.52,1190 L1230.72,1190 L1230.72,1233.7 L1234.52,1233.7 L1234.52,1211.5 L1241.62,1211.5 M1228.22,1222.65 L1227.92,1219.5 C1224.02,1220.1 1218.52,1220.5 1213.27,1220.75 L1213.27,1207.05 L1209.42,1207.05 L1209.42,1220.85 C1206.17,1220.95 1202.27,1220.9 1199.87,1220.9 L1200.42,1224.25 C1204.07,1224.25 1208.92,1224.1 1213.32,1223.9 C1217.57,1223.65 1224.02,1223.2 1228.22,1222.65 M1224.92,1194.6 L1202.07,1194.6 L1202.07,1197.8 L1221.07,1197.8 C1221.27,1202.7 1220.67,1209.9 1219.72,1214.15 L1223.37,1214.65 C1224.32,1210.4 1225.02,1201.3 1224.92,1194.6"/>
<path class="Lyrics" d="M1761.52,470.586 L1761.52,467.486 L1735.32,467.486 L1735.32,462.686 L1759.92,462.686 L1759.92,452.436 L1731.47,452.436 L1731.47,455.536 L1756.12,455.536 L1756.12,459.736 L1731.52,459.736 L1731.52,470.586 L1761.52,470.586 M1759.92,427.186 L1756.12,427.186 L1756.12,433.236 L1748.02,433.236 L1748.02,436.386 L1756.12,436.386 L1756.12,441.536 L1748.02,441.536 L1748.02,444.686 L1756.12,444.686 L1756.12,450.186 L1759.92,450.186 L1759.92,427.186 M1745.82,449.036 L1745.82,429.186 L1742.02,429.186 L1742.02,435.836 L1729.77,435.836 L1729.77,429.186 L1725.92,429.186 L1725.92,449.036 L1745.82,449.036 M1742.02,445.886 L1729.77,445.886 L1729.77,438.986 L1742.02,438.986 L1742.02,445.886 "/>
<path class="Lyrics" d="M1633.7,427.186 L1633.7,470.886 L1637.5,470.886 L1637.5,427.186 L1633.7,427.186 M1626.8,440.986 C1626.8,434.586 1621.9,430.586 1615.45,430.586 C1609.1,430.586 1604.05,434.836 1604.05,440.986 C1604.05,446.836 1609,451.136 1615.45,451.136 C1621.75,451.136 1626.8,447.186 1626.8,440.986 M1623.1,440.986 C1623.1,445.086 1619.6,447.936 1615.45,447.936 C1611.2,447.936 1607.75,445.036 1607.75,440.986 C1607.75,436.886 1611.25,433.836 1615.45,433.836 C1619.7,433.836 1623.1,436.586 1623.1,440.986 M1631.15,459.786 L1630.8,456.686 C1627.6,457.086 1621.95,457.436 1615.85,457.636 C1610.55,457.936 1605.4,458.036 1601.65,457.986 L1602.35,461.336 C1605.65,461.286 1610.45,461.136 1615.6,460.886 C1621.15,460.636 1627.4,460.236 1631.15,459.786"/>
<path class="Lyrics" d="M1551.86,448.536 L1551.86,445.386 L1512.41,445.386 L1512.41,448.536 L1551.86,448.536 M1548.46,470.336 L1548.46,467.236 L1521.01,467.236 L1521.01,462.586 L1546.76,462.586 L1546.76,452.386 L1517.16,452.386 L1517.16,455.436 L1542.96,455.436 L1542.96,459.686 L1517.16,459.686 L1517.16,470.336 L1548.46,470.336 M1547.26,441.536 L1547.26,438.386 L1521.41,438.386 L1521.41,428.236 L1517.61,428.236 L1517.61,441.536 L1547.26,441.536 "/>
<path class="Lyrics" d="M1481.77,448.836 L1481.77,445.636 L1474.67,445.636 L1474.67,427.186 L1470.87,427.186 L1470.87,470.886 L1474.67,470.886 L1474.67,448.836 L1481.77,448.836 M1460.22,433.436 L1460.22,430.186 L1447.37,430.186 L1447.37,433.436 L1460.22,433.436 M1466.67,440.836 L1466.67,437.686 L1440.87,437.686 L1440.87,440.836 L1466.67,440.836 M1464.07,452.686 C1464.07,447.536 1459.97,443.636 1453.87,443.636 C1447.77,443.636 1443.67,447.586 1443.67,452.686 C1443.67,457.786 1447.77,461.686 1453.87,461.686 C1459.97,461.686 1464.07,457.736 1464.07,452.686 M1460.27,452.686 C1460.27,456.086 1457.62,458.536 1453.87,458.536 C1450.22,458.536 1447.47,456.086 1447.47,452.686 C1447.47,449.236 1450.22,446.836 1453.87,446.836 C1457.57,446.836 1460.27,449.236 1460.27,452.686"/>
<path class="Lyrics" d="M1411.8,1211.5 L1411.8,1208.25 L1404.7,1208.25 L1404.7,1190 L1400.9,1190 L1400.9,1233.7 L1404.7,1233.7 L1404.7,1211.5 L1411.8,1211.5 M1398.4,1222.65 L1398.1,1219.5 C1394.2,1220.1 1388.7,1220.5 1383.45,1220.75 L1383.45,1207.05 L1379.6,1207.05 L1379.6,1220.85 C1376.35,1220.95 1372.45,1220.9 1370.05,1220.9 L1370.6,1224.25 C1374.25,1224.25 1379.1,1224.1 1383.5,1223.9 C1387.75,1223.65 1394.2,1223.2 1398.4,1222.65 M1395.1,1194.6 L1372.25,1194.6 L1372.25,1197.8 L1391.25,1197.8 C1391.45,1202.7 1390.85,1209.9 1389.9,1214.15 L1393.55,1214.65 C1394.5,1210.4 1395.2,1201.3 1395.1,1194.6"/>
<path class="Lyrics" d="M1359.57,458.386 C1353.52,455.086 1347.97,448.136 1347.97,439.986 L1347.97,434.986 L1358.02,434.986 L1358.02,431.786 L1333.77,431.786 L1333.77,434.986 L1344.02,434.986 L1344.02,440.086 C1344.02,447.986 1338.72,455.586 1332.27,459.386 L1334.82,462.236 C1340.02,458.636 1344.57,453.236 1346.02,447.936 C1347.72,453.136 1353.07,458.686 1357.22,461.386 L1359.57,458.386 M1364.82,446.186 L1364.82,470.886 L1368.62,470.886 L1368.62,427.186 L1364.82,427.186 L1364.82,442.936 L1355.67,442.936 L1355.67,446.186 L1364.82,446.186 "/>
<path class="Lyrics" d="M892.035,446.336 L892.035,443.336 L866.085,443.336 L866.085,438.836 L891.185,438.836 L891.185,428.736 L862.085,428.736 L862.085,431.736 L887.385,431.736 L887.385,435.986 L862.285,435.986 L862.285,446.336 L892.035,446.336 M896.485,453.286 L896.485,450.186 L857.035,450.186 L857.035,453.286 L896.485,453.286 M891.435,470.286 L891.435,457.236 L862.085,457.236 L862.085,470.286 L891.435,470.286 M887.635,467.286 L865.885,467.286 L865.885,460.236 L887.635,460.236 L887.635,467.286 "/>
<path class="Lyrics" d="M1540.9,1212.1 L1540.9,1190 L1537.1,1190 L1537.1,1212.1 L1540.9,1212.1 M1542.5,1233.1 L1542.5,1230 L1516.4,1230 L1516.4,1225 L1540.9,1225 L1540.9,1214.4 L1512.45,1214.4 L1512.45,1217.5 L1537.1,1217.5 L1537.1,1222.05 L1512.6,1222.05 L1512.6,1233.1 L1542.5,1233.1 M1517.75,1191.35 C1511.45,1191.35 1506.35,1195.35 1506.35,1201.25 C1506.35,1207.2 1511.5,1211 1517.75,1211 C1524,1211 1529.05,1207.15 1529.05,1201.25 C1529.05,1195.3 1524,1191.35 1517.75,1191.35 M1517.75,1194.65 C1522.3,1194.65 1525.35,1197.35 1525.35,1201.25 C1525.35,1205.1 1522.3,1207.7 1517.75,1207.7 C1513.4,1207.7 1510.05,1205.1 1510.05,1201.2 C1510.05,1197.3 1513.45,1194.65 1517.75,1194.65"/>
<path class="Lyrics" d="M1195.08,427.186 L1191.33,427.186 L1191.33,470.886 L1195.08,470.886 L1195.08,447.986 L1202.13,447.986 L1202.13,444.786 L1195.08,444.786 L1195.08,427.186 M1187.48,455.786 C1181.63,456.886 1173.88,457.336 1166.93,457.286 L1166.93,446.736 L1183.23,446.736 L1183.23,431.236 L1163.03,431.236 L1163.03,434.386 L1179.43,434.386 L1179.43,443.586 L1163.13,443.586 L1163.13,460.486 L1166.83,460.486 C1173.98,460.486 1183.08,459.836 1187.98,458.836 L1187.48,455.786 "/>
<path class="Lyrics" d="M1104.84,430.036 C1098.09,430.036 1092.99,434.236 1092.99,440.586 C1092.99,446.386 1097.19,450.236 1102.99,450.886 L1102.99,458.186 C1098.54,458.386 1094.29,458.386 1091.04,458.386 L1091.74,461.736 C1095.39,461.736 1099.69,461.586 1104.49,461.336 C1109.79,460.986 1115.79,460.536 1119.24,460.036 L1118.94,456.986 C1116.14,457.386 1111.69,457.686 1106.79,457.986 L1106.79,450.886 C1112.54,450.136 1116.74,446.286 1116.74,440.536 C1116.74,434.186 1111.59,430.036 1104.84,430.036 M1104.84,433.286 C1109.79,433.286 1112.99,436.136 1112.99,440.636 C1112.99,444.986 1109.74,447.786 1104.84,447.786 C1100.14,447.786 1096.69,444.986 1096.69,440.586 C1096.69,436.136 1100.09,433.286 1104.84,433.286 M1132.49,448.686 L1132.49,445.486 L1125.49,445.486 L1125.49,427.186 L1121.64,427.186 L1121.64,470.886 L1125.49,470.886 L1125.49,448.686 L1132.49,448.686 "/>
<path class="Lyrics" d="M1634.27,1211.5 L1634.27,1208.25 L1627.17,1208.25 L1627.17,1190 L1623.37,1190 L1623.37,1233.7 L1627.17,1233.7 L1627.17,1211.5 L1634.27,1211.5 M1620.87,1222.65 L1620.57,1219.5 C1616.67,1220.1 1611.17,1220.5 1605.92,1220.75 L1605.92,1207.05 L1602.07,1207.05 L1602.07,1220.85 C1598.82,1220.95 1594.92,1220.9 1592.52,1220.9 L1593.07,1224.25 C1596.72,1224.25 1601.57,1224.1 1605.97,1223.9 C1610.22,1223.65 1616.67,1223.2 1620.87,1222.65 M1617.57,1194.6 L1594.72,1194.6 L1594.72,1197.8 L1613.72,1197.8 C1613.92,1202.7 1613.32,1209.9 1612.37,1214.15 L1616.02,1214.65 C1616.97,1210.4 1617.67,1201.3 1617.57,1194.6"/>
<path class="Lyrics" d="M1013.35,427.186 L1009.55,427.186 L1009.55,470.886 L1013.35,470.886 L1013.35,447.736 L1020.45,447.736 L1020.45,444.536 L1013.35,444.536 L1013.35,427.186 M985.204,456.936 L985.204,434.936 L1002.1,434.936 L1002.1,431.736 L981.354,431.736 L981.354,460.186 L985.654,460.186 C993.254,460.186 1001.9,459.586 1006.6,458.686 L1006.2,455.536 C1002,456.436 993.354,456.936 987.704,456.936 L985.204,456.936 "/>
<path class="NoteDot" transform="matrix(0.992,0,0,0.992,1029.41,340)" d="M0,0 C0,2.8 2.2,5 5,5 C7.8,5 10,2.8 10,0 C10,-2.8 7.8,-5 5,-5 C2.2,-5 0,-2.8 0,0"/>
<path class="NoteDot" transform="matrix(0.992,0,0,0.992,1378.96,315.2)" d="M0,0 C0,2.8 2.2,5 5,5 C7.8,5 10,2.8 10,0 C10,-2.8 7.8,-5 5,-5 C2.2,-5 0,-2.8 0,0"/>
<path class="NoteDot" transform="matrix(0.992,0,0,0.992,369.295,1103.2)" d="M0,0 C0,2.8 2.2,5 5,5 C7.8,5 10,2.8 10,0 C10,-2.8 7.8,-5 5,-5 C2.2,-5 0,-2.8 0,0"/>
<path class="NoteDot" transform="matrix(0.992,0,0,0.992,709.746,721.6)" d="M0,0 C0,2.8 2.2,5 5,5 C7.8,5 10,2.8 10,0 C10,-2.8 7.8,-5 5,-5 C2.2,-5 0,-2.8 0,0"/>
<path class="NoteDot" transform="matrix(0.992,0,0,0.992,1044.5,746.4)" d="M0,0 C0,2.8 2.2,5 5,5 C7.8,5 10,2.8 10,0 C10,-2.8 7.8,-5 5,-5 C2.2,-5 0,-2.8 0,0"/>
<path class="NoteDot" transform="matrix(0.992,0,0,0.992,1212.37,746.4)" d="M0,0 C0,2.8 2.2,5 5,5 C7.8,5 10,2.8 10,0 C10,-2.8 7.8,-5 5,-5 C2.2,-5 0,-2.8 0,0"/>
<path class="NoteDot" transform="matrix(0.992,0,0,0.992,1442.31,746.4)" d="M0,0 C0,2.8 2.2,5 5,5 C7.8,5 10,2.8 10,0 C10,-2.8 7.8,-5 5,-5 C2.2,-5 0,-2.8 0,0"/>
<path class="NoteDot" transform="matrix(0.992,0,0,0.992,369.295,389.6)" d="M0,0 C0,2.8 2.2,5 5,5 C7.8,5 10,2.8 10,0 C10,-2.8 7.8,-5 5,-5 C2.2,-5 0,-2.8 0,0"/>
</svg>
