<?xml version="1.0" encoding="UTF-8" standalone="no"?>
<svg
   width="2098.8px"
   height="1418.4px"
   viewBox="0 0 2098.8 1418.4"
   version="1.2"
   id="svg119"
   sodipodi:docname="태양의 찬가-1.svg"
   inkscape:version="1.3.2 (091e20e, 2023-11-25)"
   xmlns:inkscape="http://www.inkscape.org/namespaces/inkscape"
   xmlns:sodipodi="http://sodipodi.sourceforge.net/DTD/sodipodi-0.dtd"
   xmlns="http://www.w3.org/2000/svg"
   xmlns:svg="http://www.w3.org/2000/svg">
  <defs
     id="defs119" />
  <sodipodi:namedview
     id="namedview119"
     pagecolor="#ffffff"
     bordercolor="#000000"
     borderopacity="0.25"
     inkscape:showpageshadow="2"
     inkscape:pageopacity="0.0"
     inkscape:pagecheckerboard="0"
     inkscape:deskcolor="#d1d1d1"
     inkscape:zoom="0.16638466"
     inkscape:cx="1048.7746"
     inkscape:cy="709.20001"
     inkscape:window-width="1312"
     inkscape:window-height="449"
     inkscape:window-x="0"
     inkscape:window-y="25"
     inkscape:window-maximized="0"
     inkscape:current-layer="svg119" />
  <title
     id="title1">259 태양의 찬가.musicxml (1)</title>
  <desc
     id="desc1">Generated by MuseScore 4.2.1</desc>
  <polyline
     class="StaffLines"
     fill="none"
     stroke="#000000"
     stroke-width="2.73"
     stroke-linejoin="bevel"
     points="228.4,510.39 1994.4,510.39"
     id="polyline1" />
  <polyline
     class="StaffLines"
     fill="none"
     stroke="#000000"
     stroke-width="2.73"
     stroke-linejoin="bevel"
     points="228.4,535.19 1994.4,535.19"
     id="polyline2" />
  <polyline
     class="StaffLines"
     fill="none"
     stroke="#000000"
     stroke-width="2.73"
     stroke-linejoin="bevel"
     points="228.4,559.99 1994.4,559.99"
     id="polyline3" />
  <polyline
     class="StaffLines"
     fill="none"
     stroke="#000000"
     stroke-width="2.73"
     stroke-linejoin="bevel"
     points="228.4,584.79 1994.4,584.79"
     id="polyline4" />
  <polyline
     class="StaffLines"
     fill="none"
     stroke="#000000"
     stroke-width="2.73"
     stroke-linejoin="bevel"
     points="228.4,609.59 1994.4,609.59"
     id="polyline5" />
  <polyline
     class="StaffLines"
     fill="none"
     stroke="#000000"
     stroke-width="2.73"
     stroke-linejoin="bevel"
     points="104.4,1041.2 1994.4,1041.2"
     id="polyline6"
     transform="translate(0,-174)" />
  <polyline
     class="StaffLines"
     fill="none"
     stroke="#000000"
     stroke-width="2.73"
     stroke-linejoin="bevel"
     points="104.4,1066 1994.4,1066"
     id="polyline7"
     transform="translate(0,-174)" />
  <polyline
     class="StaffLines"
     fill="none"
     stroke="#000000"
     stroke-width="2.73"
     stroke-linejoin="bevel"
     points="104.4,1090.8 1994.4,1090.8"
     id="polyline8"
     transform="translate(0,-174)" />
  <polyline
     class="StaffLines"
     fill="none"
     stroke="#000000"
     stroke-width="2.73"
     stroke-linejoin="bevel"
     points="104.4,1115.6 1994.4,1115.6"
     id="polyline9"
     transform="translate(0,-174)" />
  <polyline
     class="StaffLines"
     fill="none"
     stroke="#000000"
     stroke-width="2.73"
     stroke-linejoin="bevel"
     points="104.4,1140.4 1994.4,1140.4"
     id="polyline10"
     transform="translate(0,-174)" />
  <path
     class="MeasureNumber"
     d="m 109.282,804.2 c 0.68,-3.52 1.48,-5.72 3,-8.4 1.8,-3.16 3.96,-4.76 6.36,-4.76 1.24,0 2,0.48 2,1.24 0,0.28 -0.079,0.44 -0.36,0.96 -0.36,0.68 -0.52,1.16 -0.52,1.76 0,1.28 0.96,2.16 2.32,2.16 1.64,0 2.76,-1.2 2.76,-3 0,-2.72 -2.56,-4.72 -6.12,-4.72 -8.92,0 -14.32,11.64 -14.32,19.32 0,5.88 2.92,9.44 7.8,9.44 6,0 10.44,-4.96 10.44,-10.84 0,-4.08 -2.76,-6.92 -6.76,-6.92 -2.8,0 -4.96,1.2 -6.6,3.76 m 5.32,-1.44 c 2.48,0 3.84,1.72 3.84,4.84 0,5.08 -2.68,8.96 -6.24,8.96 -2.56,0 -4.08,-1.88 -4.08,-5.08 0,-5 2.76,-8.72 6.48,-8.72"
     id="path10" />
  <polyline
     class="BarLine"
     fill="none"
     stroke="#000000"
     stroke-width="4.46"
     stroke-linejoin="bevel"
     points="630.642,1039.84 630.642,1141.76"
     id="polyline11"
     transform="translate(0,-174)" />
  <polyline
     class="BarLine"
     fill="none"
     stroke="#000000"
     stroke-width="4.46"
     stroke-linejoin="bevel"
     points="965.395,1039.84 965.395,1141.76"
     id="polyline12"
     transform="translate(0,-174)" />
  <polyline
     class="BarLine"
     fill="none"
     stroke="#000000"
     stroke-width="4.46"
     stroke-linejoin="bevel"
     points="1992.17,1039.84 1992.17,1141.76"
     id="polyline13"
     transform="translate(0,-174)" />
  <polyline
     class="BarLine"
     fill="none"
     stroke="#000000"
     stroke-width="4.46"
     stroke-linejoin="bevel"
     points="673.071,509.026 673.071,610.954"
     id="polyline14" />
  <polyline
     class="BarLine"
     fill="none"
     stroke="#000000"
     stroke-width="4.46"
     stroke-linejoin="bevel"
     points="1992.17,509.026 1992.17,610.954"
     id="polyline15" />
  <polyline
     class="BarLine"
     fill="none"
     stroke="#000000"
     stroke-width="4.46"
     stroke-linejoin="bevel"
     points="1710.88,509.026 1710.88,610.954"
     id="polyline16" />
  <polyline
     class="BarLine"
     fill="none"
     stroke="#000000"
     stroke-width="4.46"
     stroke-linejoin="bevel"
     points="1363.21,1039.84 1363.21,1141.76"
     id="polyline17"
     transform="translate(0,-174)" />
  <polyline
     class="BarLine"
     fill="none"
     stroke="#000000"
     stroke-width="4.46"
     stroke-linejoin="bevel"
     points="1338.33,509.026 1338.33,610.954"
     id="polyline18" />
  <polyline
     class="BarLine"
     fill="none"
     stroke="#000000"
     stroke-width="4.46"
     stroke-linejoin="bevel"
     points="1005.16,509.026 1005.16,610.954"
     id="polyline19" />
  <polyline
     class="BarLine"
     fill="none"
     stroke="#000000"
     stroke-width="4.46"
     stroke-linejoin="bevel"
     points="1651.72,1039.84 1651.72,1141.76"
     id="polyline20"
     transform="translate(0,-174)" />
  <polyline
     class="Stem"
     fill="none"
     stroke="#000000"
     stroke-width="2.48"
     stroke-linejoin="bevel"
     points="776.369,1094.97 776.369,1171.3"
     id="polyline21"
     transform="translate(0,-174)" />
  <polyline
     class="Stem"
     fill="none"
     stroke="#000000"
     stroke-width="2.48"
     stroke-linejoin="bevel"
     points="1070.62,568.422 1070.62,491.79"
     id="polyline22" />
  <polyline
     class="Stem"
     fill="none"
     stroke="#000000"
     stroke-width="2.48"
     stroke-linejoin="bevel"
     points="863.978,1124.03 863.978,1041.2"
     id="polyline23"
     transform="translate(0,-174)" />
  <polyline
     class="Stem"
     fill="none"
     stroke="#000000"
     stroke-width="2.48"
     stroke-linejoin="bevel"
     points="1173.97,568.422 1173.97,491.989"
     id="polyline24" />
  <polyline
     class="Stem"
     fill="none"
     stroke="#000000"
     stroke-width="2.48"
     stroke-linejoin="bevel"
     points="696.106,1099.23 696.106,1022.6"
     id="polyline25"
     transform="translate(0,-174)" />
  <polyline
     class="Stem"
     fill="none"
     stroke="#000000"
     stroke-width="2.48"
     stroke-linejoin="bevel"
     points="1428.67,1136.43 1428.67,1053.6"
     id="polyline26"
     transform="translate(0,-174)" />
  <polyline
     class="Stem"
     fill="none"
     stroke="#000000"
     stroke-width="2.48"
     stroke-linejoin="bevel"
     points="1244.79,568.422 1244.79,491.79"
     id="polyline27" />
  <polyline
     class="Stem"
     fill="none"
     stroke="#000000"
     stroke-width="2.48"
     stroke-linejoin="bevel"
     points="325.903,1070.17 325.903,1152.8"
     id="polyline28"
     transform="translate(0,-174)" />
  <polyline
     class="Stem"
     fill="none"
     stroke="#000000"
     stroke-width="2.48"
     stroke-linejoin="bevel"
     points="1717.18,1148.83 1717.18,1066"
     id="polyline29"
     transform="translate(0,-174)" />
  <polyline
     class="Stem"
     fill="none"
     stroke="#000000"
     stroke-width="2.48"
     stroke-linejoin="bevel"
     points="542.865,1094.97 542.865,1165.2"
     id="polyline30"
     transform="translate(0,-174)" />
  <polyline
     class="Stem"
     fill="none"
     stroke="#000000"
     stroke-width="2.48"
     stroke-linejoin="bevel"
     points="952.387,580.822 952.387,497.99"
     id="polyline31" />
  <polyline
     class="Stem"
     fill="none"
     stroke="#000000"
     stroke-width="2.48"
     stroke-linejoin="bevel"
     points="1374.04,564.157 1374.04,634.39"
     id="polyline32" />
  <polyline
     class="Stem"
     fill="none"
     stroke="#000000"
     stroke-width="2.48"
     stroke-linejoin="bevel"
     points="456.08,1082.57 456.08,1159"
     id="polyline33"
     transform="translate(0,-174)" />
  <polyline
     class="Stem"
     fill="none"
     stroke="#000000"
     stroke-width="2.48"
     stroke-linejoin="bevel"
     points="1934.14,1111.63 1934.14,1028.8"
     id="polyline34"
     transform="translate(0,-174)" />
  <polyline
     class="Stem"
     fill="none"
     stroke="#000000"
     stroke-width="2.48"
     stroke-linejoin="bevel"
     points="1485.32,568.422 1485.32,491.79"
     id="polyline35" />
  <polyline
     class="Stem"
     fill="none"
     stroke="#000000"
     stroke-width="2.48"
     stroke-linejoin="bevel"
     points="1030.86,1124.03 1030.86,1041.2"
     id="polyline36"
     transform="translate(0,-174)" />
  <polyline
     class="Stem"
     fill="none"
     stroke="#000000"
     stroke-width="2.48"
     stroke-linejoin="bevel"
     points="748.563,618.022 748.563,535.19"
     id="polyline37" />
  <polyline
     class="Stem"
     fill="none"
     stroke="#000000"
     stroke-width="2.48"
     stroke-linejoin="bevel"
     points="1566.85,580.822 1566.85,497.99"
     id="polyline38" />
  <polyline
     class="Stem"
     fill="none"
     stroke="#000000"
     stroke-width="2.48"
     stroke-linejoin="bevel"
     points="1847.36,1124.03 1847.36,1041.2"
     id="polyline39"
     transform="translate(0,-174)" />
  <polyline
     class="Stem"
     fill="none"
     stroke="#000000"
     stroke-width="2.48"
     stroke-linejoin="bevel"
     points="1308.75,1136.43 1308.75,1053.8"
     id="polyline40"
     transform="translate(0,-174)" />
  <polyline
     class="Stem"
     fill="none"
     stroke="#000000"
     stroke-width="2.48"
     stroke-linejoin="bevel"
     points="1898.63,568.422 1898.63,491.79"
     id="polyline41" />
  <polyline
     class="Stem"
     fill="none"
     stroke="#000000"
     stroke-width="2.48"
     stroke-linejoin="bevel"
     points="1198.73,1124.03 1198.73,1041.2"
     id="polyline42"
     transform="translate(0,-174)" />
  <polyline
     class="Stem"
     fill="none"
     stroke="#000000"
     stroke-width="2.48"
     stroke-linejoin="bevel"
     points="1640.45,564.157 1640.45,640.491"
     id="polyline43" />
  <polyline
     class="Stem"
     fill="none"
     stroke="#000000"
     stroke-width="2.48"
     stroke-linejoin="bevel"
     points="1140.87,1111.63 1140.87,1029"
     id="polyline44"
     transform="translate(0,-174)" />
  <polyline
     class="Stem"
     fill="none"
     stroke="#000000"
     stroke-width="2.48"
     stroke-linejoin="bevel"
     points="1776.34,568.422 1776.34,491.79"
     id="polyline45" />
  <polyline
     class="Stem"
     fill="none"
     stroke="#000000"
     stroke-width="2.48"
     stroke-linejoin="bevel"
     points="870.857,593.222 870.857,510.39"
     id="polyline46" />
  <path
     class="Note"
     transform="matrix(0.992,0,0,0.992,839.865,597.19)"
     d="M0,4.2 C0,8.5 3.1,13.3 11.2,13.3 C21.6,13.3 32.5,4.8 32.5,-4 C32.5,-9.9 27.5,-13.2 21.3,-13.2 C11.6,-13.2 0,-5 0,4.2"
     id="path46" />
  <path
     class="Note"
     d="m 1109.88,945.7664 c 0,4.2656 3.0752,9.0272 11.1104,9.0272 10.3168,0 21.1296,-8.432 21.1296,-17.1616 0,-5.8528 -4.96,-9.1264 -11.1104,-9.1264 -9.6224,0 -21.1296,8.1344 -21.1296,17.2608"
     id="path47"
     style="stroke-width:0.992" />
  <path
     class="Note"
     transform="matrix(0.992,0,0,0.992,1745.35,572.39)"
     d="M21.3,-13.2 C11.6,-13.2 0,-5.1 0,4.2 C0,8.5 3.1,13.3 11.2,13.3 C21.6,13.3 32.5,4.8 32.5,-4 C32.5,-9.9 27.5,-13.2 21.3,-13.2 M7.5,8.6 C4.2,8.6 3.5,5.9 3.5,5 C3.5,0.1 20.3,-8.5 25,-8.5 C27.4,-8.5 29,-7.1 29,-4.9 C29,0.1 12.1,8.6 7.5,8.6"
     id="path48" />
  <path
     class="Note"
     transform="matrix(0.992,0,0,0.992,1639.21,559.99)"
     d="M0,4.2 C0,8.5 3.1,13.3 11.2,13.3 C21.6,13.3 32.5,4.8 32.5,-4 C32.5,-9.9 27.5,-13.2 21.3,-13.2 C11.6,-13.2 0,-5 0,4.2"
     id="path49" />
  <path
     class="Note"
     d="m 1167.74,958.1664 c 0,4.2656 3.0752,9.0272 11.1104,9.0272 10.3168,0 21.1296,-8.432 21.1296,-17.1616 0,-5.8528 -4.96,-9.1264 -11.1104,-9.1264 -9.6224,0 -21.1296,8.1344 -21.1296,17.2608"
     id="path50"
     style="stroke-width:0.992" />
  <path
     class="Note"
     transform="matrix(0.992,0,0,0.992,1867.64,572.39)"
     d="M21.3,-13.2 C11.6,-13.2 0,-5.1 0,4.2 C0,8.5 3.1,13.3 11.2,13.3 C21.6,13.3 32.5,4.8 32.5,-4 C32.5,-9.9 27.5,-13.2 21.3,-13.2 M7.5,8.6 C4.2,8.6 3.5,5.9 3.5,5 C3.5,0.1 20.3,-8.5 25,-8.5 C27.4,-8.5 29,-7.1 29,-4.9 C29,0.1 12.1,8.6 7.5,8.6"
     id="path51" />
  <path
     class="Note"
     d="m 999.867,958.1664 c 0,4.2656 3.0752,9.0272 11.1104,9.0272 10.3168,0 21.1296,-8.432 21.1296,-17.1616 0,-5.8528 -4.96,-9.1264 -11.1104,-9.1264 -9.6224,0 -21.1296,8.1344 -21.1296,17.2608"
     id="path52"
     style="stroke-width:0.992" />
  <path
     class="Note"
     transform="matrix(0.992,0,0,0.992,1535.86,584.79)"
     d="M0,4.2 C0,8.5 3.1,13.3 11.2,13.3 C21.6,13.3 32.5,4.8 32.5,-4 C32.5,-9.9 27.5,-13.2 21.3,-13.2 C11.6,-13.2 0,-5 0,4.2"
     id="path53" />
  <path
     class="Note"
     transform="matrix(0.992,0,0,0.992,717.57,621.99)"
     d="M21.3,-13.2 C11.6,-13.2 0,-5.1 0,4.2 C0,8.5 3.1,13.3 11.2,13.3 C21.6,13.3 32.5,4.8 32.5,-4 C32.5,-9.9 27.5,-13.2 21.3,-13.2 M7.5,8.6 C4.2,8.6 3.5,5.9 3.5,5 C3.5,0.1 20.3,-8.5 25,-8.5 C27.4,-8.5 29,-7.1 29,-4.9 C29,0.1 12.1,8.6 7.5,8.6"
     id="path54" />
  <path
     class="Note"
     transform="matrix(0.992,0,0,0.992,1039.63,572.39)"
     d="M0,4.2 C0,8.5 3.1,13.3 11.2,13.3 C21.6,13.3 32.5,4.8 32.5,-4 C32.5,-9.9 27.5,-13.2 21.3,-13.2 C11.6,-13.2 0,-5 0,4.2"
     id="path55" />
  <path
     class="Note"
     transform="matrix(0.992,0,0,0.992,1454.33,572.39)"
     d="M0,4.2 C0,8.5 3.1,13.3 11.2,13.3 C21.6,13.3 32.5,4.8 32.5,-4 C32.5,-9.9 27.5,-13.2 21.3,-13.2 C11.6,-13.2 0,-5 0,4.2"
     id="path56" />
  <path
     class="Note"
     d="m 1816.37,958.1664 c 0,4.2656 3.0752,9.0272 11.1104,9.0272 10.3168,0 21.1296,-8.432 21.1296,-17.1616 0,-5.8528 -4.96,-9.1264 -11.1104,-9.1264 -9.6224,0 -21.1296,8.1344 -21.1296,17.2608"
     id="path57"
     style="stroke-width:0.992" />
  <path
     class="Note"
     d="m 345.7926,878.9056 c -9.6224,0 -21.1296,8.0352 -21.1296,17.2608 0,4.2656 3.0752,9.0272 11.1104,9.0272 10.3168,0 21.1296,-8.432 21.1296,-17.1616 0,-5.8528 -4.96,-9.1264 -11.1104,-9.1264 m -13.6896,21.6256 c -3.2736,0 -3.968,-2.6784 -3.968,-3.5712 0,-4.8608 16.6656,-13.392 21.328,-13.392 2.3808,0 3.968,1.3888 3.968,3.5712 0,4.96 -16.7648,13.392 -21.328,13.392"
     id="path58"
     style="stroke-width:0.992" />
  <path
     class="Note"
     d="m 1707.3196,965.7056 c -9.6224,0 -21.1296,8.0352 -21.1296,17.2608 0,4.2656 3.0752,9.0272 11.1104,9.0272 10.3168,0 21.1296,-8.432 21.1296,-17.1616 0,-5.8528 -4.96,-9.1264 -11.1104,-9.1264 m -13.6896,21.6256 c -3.2736,0 -3.968,-2.6784 -3.968,-3.5712 0,-4.8608 16.6656,-13.392 21.328,-13.392 2.3808,0 3.968,1.3888 3.968,3.5712 0,4.96 -16.7648,13.392 -21.328,13.392"
     id="path59"
     style="stroke-width:0.992" />
  <path
     class="Note"
     transform="matrix(0.992,0,0,0.992,1372.8,559.99)"
     d="M0,4.2 C0,8.5 3.1,13.3 11.2,13.3 C21.6,13.3 32.5,4.8 32.5,-4 C32.5,-9.9 27.5,-13.2 21.3,-13.2 C11.6,-13.2 0,-5 0,4.2"
     id="path60" />
  <path
     class="Note"
     d="m 454.84,908.5664 c 0,4.2656 3.0752,9.0272 11.1104,9.0272 10.3168,0 21.1296,-8.432 21.1296,-17.1616 0,-5.8528 -4.96,-9.1264 -11.1104,-9.1264 -9.6224,0 -21.1296,8.1344 -21.1296,17.2608"
     id="path61"
     style="stroke-width:0.992" />
  <path
     class="Note"
     d="m 1903.15,945.7664 c 0,4.2656 3.0752,9.0272 11.1104,9.0272 10.3168,0 21.1296,-8.432 21.1296,-17.1616 0,-5.8528 -4.96,-9.1264 -11.1104,-9.1264 -9.6224,0 -21.1296,8.1344 -21.1296,17.2608"
     id="path62"
     style="stroke-width:0.992" />
  <path
     class="Note"
     transform="matrix(0.992,0,0,0.992,921.394,584.79)"
     d="M0,4.2 C0,8.5 3.1,13.3 11.2,13.3 C21.6,13.3 32.5,4.8 32.5,-4 C32.5,-9.9 27.5,-13.2 21.3,-13.2 C11.6,-13.2 0,-5 0,4.2"
     id="path63" />
  <path
     class="Note"
     d="m 541.625,920.9664 c 0,4.2656 3.0752,9.0272 11.1104,9.0272 10.3168,0 21.1296,-8.432 21.1296,-17.1616 0,-5.8528 -4.96,-9.1264 -11.1104,-9.1264 -9.6224,0 -21.1296,8.1344 -21.1296,17.2608"
     id="path64"
     style="stroke-width:0.992" />
  <path
     class="Note"
     d="m 854.1156,940.9056 c -9.6224,0 -21.1296,8.0352 -21.1296,17.2608 0,4.2656 3.0752,9.0272 11.1104,9.0272 10.3168,0 21.1296,-8.432 21.1296,-17.1616 0,-5.8528 -4.96,-9.1264 -11.1104,-9.1264 m -13.6896,21.6256 c -3.2736,0 -3.968,-2.6784 -3.968,-3.5712 0,-4.8608 16.6656,-13.392 21.328,-13.392 2.3808,0 3.968,1.3888 3.968,3.5712 0,4.96 -16.7648,13.392 -21.328,13.392"
     id="path65"
     style="stroke-width:0.992" />
  <path
     class="Note"
     transform="matrix(0.992,0,0,0.992,1213.8,572.39)"
     d="M21.3,-13.2 C11.6,-13.2 0,-5.1 0,4.2 C0,8.5 3.1,13.3 11.2,13.3 C21.6,13.3 32.5,4.8 32.5,-4 C32.5,-9.9 27.5,-13.2 21.3,-13.2 M7.5,8.6 C4.2,8.6 3.5,5.9 3.5,5 C3.5,0.1 20.3,-8.5 25,-8.5 C27.4,-8.5 29,-7.1 29,-4.9 C29,0.1 12.1,8.6 7.5,8.6"
     id="path66" />
  <path
     class="Note"
     transform="matrix(0.992,0,0,0.992,1142.98,572.39)"
     d="M0,4.2 C0,8.5 3.1,13.3 11.2,13.3 C21.6,13.3 32.5,4.8 32.5,-4 C32.5,-9.9 27.5,-13.2 21.3,-13.2 C11.6,-13.2 0,-5 0,4.2"
     id="path67" />
  <path
     class="Note"
     d="m 665.114,933.3664 c 0,4.2656 3.0752,9.0272 11.1104,9.0272 10.3168,0 21.1296,-8.432 21.1296,-17.1616 0,-5.8528 -4.96,-9.1264 -11.1104,-9.1264 -9.6224,0 -21.1296,8.1344 -21.1296,17.2608"
     id="path68"
     style="stroke-width:0.992" />
  <path
     class="Note"
     d="m 1418.8096,953.3056 c -9.6224,0 -21.1296,8.0352 -21.1296,17.2608 0,4.2656 3.0752,9.0272 11.1104,9.0272 10.3168,0 21.1296,-8.432 21.1296,-17.1616 0,-5.8528 -4.96,-9.1264 -11.1104,-9.1264 m -13.6896,21.6256 c -3.2736,0 -3.968,-2.6784 -3.968,-3.5712 0,-4.8608 16.6656,-13.392 21.328,-13.392 2.3808,0 3.968,1.3888 3.968,3.5712 0,4.96 -16.7648,13.392 -21.328,13.392"
     id="path69"
     style="stroke-width:0.992" />
  <path
     class="Note"
     d="m 775.129,920.9664 c 0,4.2656 3.0752,9.0272 11.1104,9.0272 10.3168,0 21.1296,-8.432 21.1296,-17.1616 0,-5.8528 -4.96,-9.1264 -11.1104,-9.1264 -9.6224,0 -21.1296,8.1344 -21.1296,17.2608"
     id="path70"
     style="stroke-width:0.992" />
  <path
     class="Note"
     d="m 1277.75,970.5664 c 0,4.2656 3.0752,9.0272 11.1104,9.0272 10.3168,0 21.1296,-8.432 21.1296,-17.1616 0,-5.8528 -4.96,-9.1264 -11.1104,-9.1264 -9.6224,0 -21.1296,8.1344 -21.1296,17.2608"
     id="path71"
     style="stroke-width:0.992" />
  <path
     class="Clef"
     d="m 135.2016,992.4896 c 0,6.5472 4.96,15.1776 18.352,15.1776 4.6624,0 8.7296,-1.1904 12.3008,-3.3728 5.3568,-3.7696 6.7456,-10.3168 6.7456,-16.5664 0,-3.8688 -0.5952,-8.3328 -1.5872,-13.9872 -0.2976,-1.984 -0.8928,-4.96 -1.488,-8.8288 9.7216,-3.1744 16.9632,-13.2928 16.9632,-23.5104 0,-14.9792 -10.6144,-25.0976 -25.0976,-25.0976 -0.992,-5.952 -1.984,-11.8048 -2.7776,-17.36 10.416,-11.0112 17.6576,-23.4112 17.6576,-39.184 0,-9.0272 -2.7776,-16.368 -4.3648,-19.9392 -2.3808,-5.0592 -5.2576,-8.5312 -7.0432,-8.5312 -0.6944,0 -3.7696,1.1904 -7.0432,5.0592 -6.3488,7.5392 -8.1344,20.2368 -8.1344,28.5696 0,5.3568 0.496,10.2176 2.1824,21.328 -0.0992,0.099 -5.2576,5.3568 -7.3408,7.0432 C 135.4992,901.6224 123,913.7248 123,933.5648 c 0,18.5504 16.1696,33.1328 34.6208,33.1328 2.8768,0 5.5552,-0.2976 7.8368,-0.6944 1.8848,9.5232 3.0752,16.4672 3.0752,21.7248 0,10.3168 -5.3568,15.7728 -15.376,15.7728 -2.3808,0 -4.464,-0.496 -4.6624,-0.496 -0.0992,-0.099 -0.2976,-0.1984 -0.2976,-0.2976 0,-0.1984 0.1984,-0.2976 0.496,-0.2976 4.6624,-0.7936 9.3248,-4.7616 9.3248,-11.1104 0,-5.3568 -4.0672,-11.0112 -11.5072,-11.0112 -6.944,0 -11.3088,5.6544 -11.3088,12.2016 m 20.7328,-132.432 c 0.8928,-3.968 5.456,-14.384 10.6144,-14.384 1.488,0 3.8688,4.7616 3.8688,11.7056 0,10.3168 -7.6384,18.0544 -14.4832,24.8 -0.5952,-3.968 -1.0912,-7.8368 -1.0912,-12.0032 0,-3.6704 0.2976,-7.0432 1.0912,-10.1184 m 8.7296,101.9776 c -1.984,0.3968 -3.8688,0.5952 -5.7536,0.5952 -14.1856,0 -26.288,-9.92 -26.288,-24.8992 0,-12.1024 8.5312,-22.9152 17.2608,-30.4544 1.6864,-1.488 3.2736,-2.8768 4.7616,-4.3648 0.8928,5.3568 1.5872,10.0192 2.2816,14.0864 -9.0272,2.6784 -15.1776,12.2016 -15.1776,21.5264 0,6.944 5.456,16.4672 13.392,16.4672 0.7936,0 1.6864,-0.3968 1.6864,-1.2896 0,-0.8928 -0.992,-1.3888 -2.1824,-2.1824 -3.8688,-2.3808 -6.0512,-4.96 -6.0512,-9.8208 0,-6.0512 4.5632,-10.912 10.3168,-12.3008 l 5.7536,32.6368 m 14.0864,-18.352 c 0,7.0432 -2.8768,14.2848 -9.92,17.1616 -2.0832,-11.904 -4.7616,-27.6768 -5.456,-32.0416 8.928,0 15.376,6.0512 15.376,14.88"
     id="path72"
     style="stroke-width:0.992" />
  <path
     class="Clef"
     transform="matrix(0.992,0,0,0.992,247,584.79)"
     d="M12.3,51.3 C12.3,57.9 17.3,66.6 30.8,66.6 C35.5,66.6 39.6,65.4 43.2,63.2 C48.6,59.4 50,52.8 50,46.5 C50,42.6 49.4,38.1 48.4,32.4 C48.1,30.4 47.5,27.4 46.9,23.5 C56.7,20.3 64,10.1 64,-0.2 C64,-15.3 53.3,-25.5 38.7,-25.5 C37.7,-31.5 36.7,-37.4 35.9,-43 C46.4,-54.1 53.7,-66.6 53.7,-82.5 C53.7,-91.6 50.9,-99 49.3,-102.6 C46.9,-107.7 44,-111.2 42.2,-111.2 C41.5,-111.2 38.4,-110 35.1,-106.1 C28.7,-98.5 26.9,-85.7 26.9,-77.3 C26.9,-71.9 27.4,-67 29.1,-55.8 C29,-55.7 23.8,-50.4 21.7,-48.7 C12.6,-40.3 0,-28.1 0,-8.1 C0,10.6 16.3,25.3 34.9,25.3 C37.8,25.3 40.5,25 42.8,24.6 C44.7,34.2 45.9,41.2 45.9,46.5 C45.9,56.9 40.5,62.4 30.4,62.4 C28,62.4 25.9,61.9 25.7,61.9 C25.6,61.8 25.4,61.7 25.4,61.6 C25.4,61.4 25.6,61.3 25.9,61.3 C30.6,60.5 35.3,56.5 35.3,50.1 C35.3,44.7 31.2,39 23.7,39 C16.7,39 12.3,44.7 12.3,51.3 M33.2,-82.2 C34.1,-86.2 38.7,-96.7 43.9,-96.7 C45.4,-96.7 47.8,-91.9 47.8,-84.9 C47.8,-74.5 40.1,-66.7 33.2,-59.9 C32.6,-63.9 32.1,-67.8 32.1,-72 C32.1,-75.7 32.4,-79.1 33.2,-82.2 M42,20.6 C40,21 38.1,21.2 36.2,21.2 C21.9,21.2 9.7,11.2 9.7,-3.9 C9.7,-16.1 18.3,-27 27.1,-34.6 C28.8,-36.1 30.4,-37.5 31.9,-39 C32.8,-33.6 33.5,-28.9 34.2,-24.8 C25.1,-22.1 18.9,-12.5 18.9,-3.1 C18.9,3.9 24.4,13.5 32.4,13.5 C33.2,13.5 34.1,13.1 34.1,12.2 C34.1,11.3 33.1,10.8 31.9,10 C28,7.6 25.8,5 25.8,0.1 C25.8,-6 30.4,-10.9 36.2,-12.3 L42,20.6 M56.2,2.1 C56.2,9.2 53.3,16.5 46.2,19.4 C44.1,7.4 41.4,-8.5 40.7,-12.9 C49.7,-12.9 56.2,-6.8 56.2,2.1"
     id="path73" />
  <path
     class="KeySig"
     d="m 234.3936,856.784 c 0.5952,-0.099 1.0912,-0.7936 1.0912,-1.3888 v -5.8528 c 0,-0.992 -0.6944,-1.3888 -1.5872,-1.3888 l -3.2736,0.6944 v -14.7808 h -2.7776 v 15.376 l -8.8288,1.7856 V 837.2416 H 216.24 v 14.5824 l -3.8688,0.7936 c -0.5952,0.099 -1.0912,0.7936 -1.0912,1.3888 v 5.7536 c 0,1.0912 0.7936,1.3888 1.6864,1.3888 l 3.2736,-0.6944 v 16.368 l -3.8688,0.7936 c -0.5952,0.099 -1.0912,0.7936 -1.0912,1.3888 v 5.7536 c 0,1.0912 0.7936,1.3888 1.6864,1.3888 l 3.2736,-0.6944 v 14.7808 h 2.7776 v -15.376 l 8.8288,-1.7856 v 13.9872 h 2.7776 v -14.5824 l 3.7696,-0.6944 c 0.5952,-0.099 1.0912,-0.7936 1.0912,-1.3888 v -5.8528 c 0,-0.992 -0.6944,-1.3888 -1.5872,-1.3888 l -3.2736,0.6944 v -16.368 l 3.7696,-0.6944 m -15.376,3.0752 8.8288,-1.7856 v 16.368 l -8.8288,1.8848 v -16.4672"
     id="path74"
     style="stroke-width:0.992" />
  <path
     class="KeySig"
     d="m 261.5656,893.984 c 0.5952,-0.099 1.0912,-0.7936 1.0912,-1.3888 v -5.8528 c 0,-0.992 -0.6944,-1.3888 -1.5872,-1.3888 l -3.2736,0.6944 v -14.7808 h -2.7776 v 15.376 l -8.8288,1.7856 v -13.9872 h -2.7776 v 14.5824 l -3.8688,0.7936 c -0.5952,0.099 -1.0912,0.7936 -1.0912,1.3888 v 5.7536 c 0,1.0912 0.7936,1.3888 1.6864,1.3888 l 3.2736,-0.6944 v 16.368 l -3.8688,0.7936 c -0.5952,0.099 -1.0912,0.7936 -1.0912,1.3888 v 5.7536 c 0,1.0912 0.7936,1.3888 1.6864,1.3888 l 3.2736,-0.6944 v 14.7808 h 2.7776 v -15.376 l 8.8288,-1.7856 v 13.9872 h 2.7776 v -14.5824 l 3.7696,-0.6944 c 0.5952,-0.099 1.0912,-0.7936 1.0912,-1.3888 v -5.8528 c 0,-0.992 -0.6944,-1.3888 -1.5872,-1.3888 l -3.2736,0.6944 v -16.368 l 3.7696,-0.6944 m -15.376,3.0752 8.8288,-1.7856 v 16.368 l -8.8288,1.8848 v -16.4672"
     id="path75"
     style="stroke-width:0.992" />
  <path
     class="KeySig"
     transform="matrix(0.992,0,0,0.992,335.28,510.39)"
     d="M23.3,-10.5 C23.9,-10.6 24.4,-11.3 24.4,-11.9 L24.4,-17.8 C24.4,-18.8 23.7,-19.2 22.8,-19.2 L19.5,-18.5 L19.5,-33.4 L16.7,-33.4 L16.7,-17.9 L7.8,-16.1 L7.8,-30.2 L5,-30.2 L5,-15.5 L1.1,-14.7 C0.5,-14.6 0,-13.9 0,-13.3 L0,-7.5 C0,-6.4 0.8,-6.1 1.7,-6.1 L5,-6.8 L5,9.7 L1.1,10.5 C0.5,10.6 0,11.3 0,11.9 L0,17.7 C0,18.8 0.8,19.1 1.7,19.1 L5,18.4 L5,33.3 L7.8,33.3 L7.8,17.8 L16.7,16 L16.7,30.1 L19.5,30.1 L19.5,15.4 L23.3,14.7 C23.9,14.6 24.4,13.9 24.4,13.3 L24.4,7.4 C24.4,6.4 23.7,6 22.8,6 L19.5,6.7 L19.5,-9.8 L23.3,-10.5 M7.8,-7.4 L16.7,-9.2 L16.7,7.3 L7.8,9.2 L7.8,-7.4 "
     id="path76" />
  <path
     class="KeySig"
     transform="matrix(0.992,0,0,0.992,362.452,547.59)"
     d="M23.3,-10.5 C23.9,-10.6 24.4,-11.3 24.4,-11.9 L24.4,-17.8 C24.4,-18.8 23.7,-19.2 22.8,-19.2 L19.5,-18.5 L19.5,-33.4 L16.7,-33.4 L16.7,-17.9 L7.8,-16.1 L7.8,-30.2 L5,-30.2 L5,-15.5 L1.1,-14.7 C0.5,-14.6 0,-13.9 0,-13.3 L0,-7.5 C0,-6.4 0.8,-6.1 1.7,-6.1 L5,-6.8 L5,9.7 L1.1,10.5 C0.5,10.6 0,11.3 0,11.9 L0,17.7 C0,18.8 0.8,19.1 1.7,19.1 L5,18.4 L5,33.3 L7.8,33.3 L7.8,17.8 L16.7,16 L16.7,30.1 L19.5,30.1 L19.5,15.4 L23.3,14.7 C23.9,14.6 24.4,13.9 24.4,13.3 L24.4,7.4 C24.4,6.4 23.7,6 22.8,6 L19.5,6.7 L19.5,-9.8 L23.3,-10.5 M7.8,-7.4 L16.7,-9.2 L16.7,7.3 L7.8,9.2 L7.8,-7.4 "
     id="path77" />
  <path
     class="TimeSig"
     transform="matrix(0.992,0,0,0.992,410.075,535.19)"
     d="M20.8,12.7 L20.8,20.1 L12.5,20.1 C11.8,20.1 11.1,20.7 11.1,21.5 L11.1,23.4 C11.1,24.2 11.8,24.8 12.5,24.8 L42.8,24.8 C43.6,24.8 44.2,24.2 44.2,23.4 L44.2,21.5 C44.2,20.7 43.6,20.1 42.8,20.1 L33.9,20.1 L33.9,12.7 L42.8,12.7 C43.6,12.7 44.2,12 44.2,11.2 L44.2,9.3 C44.2,8.6 43.6,7.9 42.8,7.9 L33.9,7.9 L33.9,-8 C33.9,-8.6 33.6,-9.1 33.1,-9.3 L31.9,-9.9 C31.7,-10 31.4,-10.1 31.2,-10.1 C30.9,-10 30.5,-9.9 30.3,-9.7 L21.2,-1.4 C20.9,-1.1 20.8,-0.7 20.8,-0.3 L20.8,7.9 L9.3,7.9 C9.3,7.9 20.4,-4.1 32.2,-19.9 C32.6,-20.4 32.7,-20.9 32.7,-21.3 C32.7,-21.8 32.5,-22.2 32.4,-22.3 L30.2,-24.5 C30,-24.7 29.6,-24.9 29.2,-24.9 C28.6,-24.9 15.1,-24.9 14.4,-24.9 C13.6,-24.9 13.1,-24.3 13,-23.7 C13,-23.7 12.5,-16.3 9.9,-8.2 C7.3,-0.1 4.3,4.9 1.7,8.6 C1.7,8.6 1.4,9.1 1.4,9.7 C1.4,9.9 1.4,10.1 1.5,10.3 C1.9,11 2.5,12.1 2.5,12.1 C2.5,12.1 2.7,12.7 3.6,12.7 L20.8,12.7 "
     id="path78" />
  <path
     class="TimeSig"
     transform="matrix(0.992,0,0,0.992,410.075,584.79)"
     d="M20.8,12.7 L20.8,20.1 L12.5,20.1 C11.8,20.1 11.1,20.7 11.1,21.5 L11.1,23.4 C11.1,24.2 11.8,24.8 12.5,24.8 L42.8,24.8 C43.6,24.8 44.2,24.2 44.2,23.4 L44.2,21.5 C44.2,20.7 43.6,20.1 42.8,20.1 L33.9,20.1 L33.9,12.7 L42.8,12.7 C43.6,12.7 44.2,12 44.2,11.2 L44.2,9.3 C44.2,8.6 43.6,7.9 42.8,7.9 L33.9,7.9 L33.9,-8 C33.9,-8.6 33.6,-9.1 33.1,-9.3 L31.9,-9.9 C31.7,-10 31.4,-10.1 31.2,-10.1 C30.9,-10 30.5,-9.9 30.3,-9.7 L21.2,-1.4 C20.9,-1.1 20.8,-0.7 20.8,-0.3 L20.8,7.9 L9.3,7.9 C9.3,7.9 20.4,-4.1 32.2,-19.9 C32.6,-20.4 32.7,-20.9 32.7,-21.3 C32.7,-21.8 32.5,-22.2 32.4,-22.3 L30.2,-24.5 C30,-24.7 29.6,-24.9 29.2,-24.9 C28.6,-24.9 15.1,-24.9 14.4,-24.9 C13.6,-24.9 13.1,-24.3 13,-23.7 C13,-23.7 12.5,-16.3 9.9,-8.2 C7.3,-0.1 4.3,4.9 1.7,8.6 C1.7,8.6 1.4,9.1 1.4,9.7 C1.4,9.9 1.4,10.1 1.5,10.3 C1.9,11 2.5,12.1 2.5,12.1 C2.5,12.1 2.7,12.7 3.6,12.7 L20.8,12.7 "
     id="path79" />
  <path
     class="Rest"
     transform="matrix(0.992,0,0,0.992,546.262,535.19)"
     d="M1.4,-0.5 C0.6,-0.5 0,0.1 0,0.9 L0,11.7 C0,12.5 0.6,13.1 1.4,13.1 L31.1,13.1 C31.9,13.1 32.5,12.5 32.5,11.7 L32.5,0.9 C32.5,0.1 31.9,-0.5 31.1,-0.5 L1.4,-0.5 "
     id="path80" />
  <path
     class="Rest"
     d="m 1585.516,933.2672 c -0.099,-0.099 -0.2976,-0.2976 -0.5952,-0.6944 l -11.408,-14.0864 c -0.099,-0.099 -0.1984,-0.3968 -0.1984,-0.5952 0,-0.2976 0.099,-0.6944 0.1984,-0.8928 l 10.1184,-15.2768 c 0.099,-0.1984 0.1984,-0.496 0.1984,-0.6944 v -0.8928 c 0,-0.2976 -0.099,-0.5952 -0.2976,-0.7936 l -16.0704,-21.7248 c 0,0 -0.3968,-0.5952 -0.992,-0.5952 -0.2976,0 -0.496,0 -0.7936,0.2976 -0.3968,0.2976 -0.496,0.6944 -0.496,0.992 0,0.5952 0.2976,1.0912 0.2976,1.0912 l 7.5392,10.3168 c 0.1984,0.2976 0.2976,0.6944 0.2976,1.1904 0,0.3968 -0.099,0.8928 -0.2976,1.1904 l -10.0192,15.2768 c -0.099,0.1984 -0.1984,0.5952 -0.1984,0.7936 v 0.8928 c 0,0.2976 0.099,0.5952 0.2976,0.7936 l 11.1104,13.7888 c -0.3968,-0.099 -1.2896,-0.2976 -2.48,-0.2976 -5.0592,0 -9.0272,4.1664 -9.0272,9.2256 0,1.3888 0.2976,2.7776 1.0912,3.8688 2.0832,3.1744 9.5232,12.5984 9.5232,12.5984 0,0 0.496,0.5952 1.1904,0.5952 0.1984,0 0.3968,0 0.5952,-0.1984 0.496,-0.3968 0.6944,-0.7936 0.6944,-1.1904 0,-0.3968 -0.1984,-0.6944 -0.2976,-0.8928 -0.2976,-0.496 -3.472,-6.2496 -3.472,-6.2496 0,0 -0.6944,-1.3888 -0.6944,-3.1744 0,-3.1744 2.3808,-5.7536 5.5552,-5.7536 1.2896,0 2.3808,0.3968 3.1744,0.8928 l 3.8688,2.48 c 0,0 0.3968,0.1984 0.7936,0.1984 0.3968,0 0.6944,-0.099 0.992,-0.496 0.1984,-0.2976 0.2976,-0.5952 0.2976,-0.8928 0,-0.2976 -0.099,-0.496 -0.2976,-0.7936 l -0.1984,-0.2976"
     id="path81"
     style="stroke-width:0.992" />
  <path
     class="Hook"
     transform="matrix(0.992,0,0,0.992,1172.73,491.79)"
     d="M0,22.7 C0,23 0.1,23.6 0.8,23.8 C5.1,25.2 13.7,30.6 20.2,41.7 C22,44.8 24.9,49.1 24.9,57.4 C24.9,64.6 23.1,72 20.4,79.2 C20.2,79.8 20.1,80.3 20.1,80.7 C20.1,81.4 20.5,81.7 21.2,81.7 C21.8,81.7 22.3,81.3 22.7,80.6 C27.2,72.6 28.9,63.3 28.9,54.2 C28.4,41.3 21,31.8 21,31.8 C21.3,31.8 11.8,19.5 9.1,15.3 C5.4,9.6 3.7,3.9 3.5,3.5 C3.4,3.2 2.5,-0.4 2.5,-0.4 C2.4,-0.8 1.9,-1.2 1.3,-1.2 C0.6,-1.2 0,-0.6 0,0.1 L0,22.7 "
     id="path82" />
  <path
     class="Hook"
     d="m 1307.51,902.1184 c 0,0.2976 0.099,0.8928 0.7936,1.0912 4.2656,1.3888 12.7968,6.7456 19.2448,17.7568 1.7856,3.0752 4.6624,7.3408 4.6624,15.5744 0,7.1424 -1.7856,14.4832 -4.464,21.6256 -0.1984,0.5952 -0.2976,1.0912 -0.2976,1.488 0,0.6944 0.3968,0.992 1.0912,0.992 0.5952,0 1.0912,-0.3968 1.488,-1.0912 4.464,-7.936 6.1504,-17.1616 6.1504,-26.1888 -0.496,-12.7968 -7.8368,-22.2208 -7.8368,-22.2208 0.2976,0 -9.1264,-12.2016 -11.8048,-16.368 -3.6704,-5.6544 -5.3568,-11.3088 -5.5552,-11.7056 -0.099,-0.2976 -0.992,-3.8688 -0.992,-3.8688 -0.099,-0.3968 -0.5952,-0.7936 -1.1904,-0.7936 -0.6944,0 -1.2896,0.5952 -1.2896,1.2896 v 22.4192"
     id="path83"
     style="stroke-width:0.992" />
  <path
     class="Hook"
     transform="matrix(0.992,0,0,0.992,1639.21,640.59)"
     d="M0,-0.1 C0,0.6 0.6,1.2 1.3,1.2 C1.8,1.2 2.4,0.8 2.5,0.4 C2.5,0.3 3.4,-3.2 3.5,-3.5 C3.6,-3.9 4.5,-7.7 8.1,-13.6 C12,-20.1 18,-24.8 23,-31.8 C28,-38.8 30.9,-45.4 30.9,-54.2 C30.9,-63.3 28.9,-70.9 23.5,-80.6 C23.2,-81.3 22.6,-81.7 22,-81.7 C21.8,-81.7 21.6,-81.7 21.5,-81.6 C21,-81.4 20.8,-81 20.8,-80.4 C20.8,-80.1 20.9,-79.7 21.1,-79.2 C25.1,-69.9 26.7,-64.6 26.7,-57.4 C26.7,-49.1 23.8,-44.8 22,-41.7 C15.5,-30.6 5,-25.2 0.8,-23.8 C0.1,-23.6 0,-23 0,-22.7 L0,-0.1 "
     id="path84" />
  <path
     class="Hook"
     d="m 775.129,997.3008 c 0,0.6944 0.5952,1.2896 1.2896,1.2896 0.496,0 1.0912,-0.3968 1.1904,-0.7936 0,-0.099 0.8928,-3.5712 0.992,-3.8688 0.0992,-0.3968 0.992,-4.1664 4.5632,-10.0192 3.8688,-6.448 9.8208,-11.1104 14.7808,-18.0544 4.96,-6.944 7.8368,-13.4912 7.8368,-22.2208 0,-9.0272 -1.984,-16.5664 -7.3408,-26.1888 -0.2976,-0.6944 -0.8928,-1.0912 -1.488,-1.0912 -0.1984,0 -0.3968,0 -0.496,0.099 -0.496,0.1984 -0.6944,0.5952 -0.6944,1.1904 0,0.2976 0.0992,0.6944 0.2976,1.1904 3.968,9.2256 5.5552,14.4832 5.5552,21.6256 0,8.2336 -2.8768,12.4992 -4.6624,15.5744 -6.448,11.0112 -16.864,16.368 -21.0304,17.7568 -0.6944,0.1984 -0.7936,0.7936 -0.7936,1.0912 v 22.4192"
     id="path85"
     style="stroke-width:0.992" />
  <path
     class="Hook"
     d="m 1139.63,877.3184 c 0,0.2976 0.099,0.8928 0.7936,1.0912 4.2656,1.3888 12.7968,6.7456 19.2448,17.7568 1.7856,3.0752 4.6624,7.3408 4.6624,15.5744 0,7.1424 -1.7856,14.4832 -4.464,21.6256 -0.1984,0.5952 -0.2976,1.0912 -0.2976,1.488 0,0.6944 0.3968,0.992 1.0912,0.992 0.5952,0 1.0912,-0.3968 1.488,-1.0912 4.464,-7.936 6.1504,-17.1616 6.1504,-26.1888 -0.496,-12.7968 -7.8368,-22.2208 -7.8368,-22.2208 0.2976,0 -9.1264,-12.2016 -11.8048,-16.368 -3.6704,-5.6544 -5.3568,-11.3088 -5.5552,-11.7056 -0.099,-0.2976 -0.992,-3.8688 -0.992,-3.8688 -0.099,-0.3968 -0.5952,-0.7936 -1.1904,-0.7936 -0.6944,0 -1.2896,0.5952 -1.2896,1.2896 v 22.4192"
     id="path86"
     style="stroke-width:0.992" />
  <path
     class="Lyrics"
     d="m 1935.88,1066.3 v -43.7 h -3.8 v 43.7 h 3.8 m -12.55,-11.25 v -27.95 h -20.65 v 27.95 h 20.65 m -3.8,-3.15 h -13 v -21.65 h 13 v 21.65"
     id="path87" />
  <path
     class="Lyrics"
     d="m 1034.12,1058 c 0,-5.15 -5.3,-8.35 -14.7,-8.35 -9.35,0 -14.6,3.2 -14.6,8.35 0,5.1 5.25,8.3 14.6,8.3 9.4,0 14.7,-3.2 14.7,-8.3 m -34.899,-28.55 h 9.949 c 0,0.8 0,1.85 -0.05,2.35 -0.2,6.2 -5.75,11.75 -11.249,13.85 l 2.05,3.05 c 4.699,-2.05 9.949,-7.3 11.149,-11.4 1.8,3.95 6.5,8.05 11.05,9.85 l 2.25,-3.05 c -5.35,-1.6 -10.95,-6.35 -11.3,-12.3 -0.05,-0.5 -0.05,-1.5 -0.05,-2.35 h 9.85 v -3.2 h -23.649 v 3.2 m 20.199,23.4 c 6.85,0 10.8,1.85 10.8,5.15 0,3.25 -3.95,5.1 -10.8,5.1 -6.7,0 -10.75,-1.85 -10.75,-5.1 0,-3.3 4.05,-5.15 10.75,-5.15 m 10.55,-15.7 v 12.6 h 3.8 v -27.15 h -3.8 v 11.35 h -8.8 v 3.2 h 8.8"
     id="path88" />
  <path
     class="Lyrics"
     d="M1875.3,670.17 C1868.95,670.17 1865.7,676.37 1865.7,685.12 C1865.7,693.92 1868.95,700.07 1875.3,700.07 C1881.3,700.07 1884.5,694.72 1884.9,686.82 L1889.6,686.82 L1889.6,707.97 L1893.3,707.97 L1893.3,667.22 L1889.6,667.22 L1889.6,683.67 L1884.9,683.67 C1884.6,675.72 1881.35,670.17 1875.3,670.17 M1881.15,685.12 C1881.15,692.22 1878.85,696.72 1875.3,696.72 C1871.8,696.72 1869.55,692.22 1869.55,685.12 C1869.55,678.07 1871.8,673.52 1875.3,673.52 C1878.85,673.52 1881.15,678.07 1881.15,685.12 M1901.85,710.07 L1901.85,666.37 L1898.1,666.37 L1898.1,710.07 L1901.85,710.07 "
     id="path89" />
  <path
     class="Lyrics"
     d="M1780.83,680.57 L1780.83,677.37 L1774.18,677.37 L1774.18,666.37 L1770.38,666.37 L1770.38,691.27 L1774.18,691.27 L1774.18,680.57 L1780.83,680.57 M1774.18,709.47 L1774.18,693.57 L1746.73,693.57 L1746.73,709.47 L1774.18,709.47 M1770.38,706.32 L1750.53,706.32 L1750.53,696.72 L1770.38,696.72 L1770.38,706.32 M1762.98,688.72 L1762.98,669.62 L1742.13,669.62 L1742.13,688.72 L1762.98,688.72 M1759.18,685.57 L1745.93,685.57 L1745.93,672.77 L1759.18,672.77 L1759.18,685.57 "
     id="path90" />
  <path
     class="Lyrics"
     d="M1672.81,710.07 L1672.81,666.37 L1669.06,666.37 L1669.06,683.77 L1663.31,683.77 L1663.31,667.42 L1659.61,667.42 L1659.61,707.82 L1663.31,707.82 L1663.31,686.97 L1669.06,686.97 L1669.06,710.07 L1672.81,710.07 M1656.66,693.87 C1653.46,694.72 1646.21,695.32 1641.66,695.22 L1641.66,671.17 L1637.86,671.17 L1637.86,698.52 L1641.21,698.52 C1646.76,698.52 1653.46,697.92 1657.11,697.07 L1656.66,693.87 "
     id="path91" />
  <path
     class="Lyrics"
     d="m 1144.42,1066.05 v -3 h -26.1 v -5.25 h 24.45 v -10.55 h -28.4 v 3 h 24.6 v 4.8 h -24.45 v 11 h 29.9 m -15,-41.05 h -19.95 v 3.2 h 15.6 c -1.45,7.15 -7.85,12.95 -17.45,15.35 l 1.9,3.1 c 10.9,-3.15 19,-10.15 19.9,-21.65 m 0.45,7.05 h 9.1 v 5.05 h -9.65 v 3.05 h 9.65 v 4.7 h 3.8 v -22.25 h -3.8 v 6.45 h -9.1 v 3"
     id="path92" />
  <path
     class="Lyrics"
     d="m 361.023,1040.6 v -3.2 h -6.65 v -14.8 h -3.8 v 32.25 h 3.8 v -14.25 h 6.65 m -4.95,24.3 v -3.2 h -25.3 v -8 h -3.8 v 11.2 h 29.1 m -16.65,-37.4 v -3.35 h -12.6 v 3.35 h 12.6 m 6.75,6.45 v -3.15 h -25.6 v 3.15 h 25.6 m -2.5,10 c 0,-4.7 -4.4,-7.65 -10.3,-7.65 -5.85,0 -10.25,2.95 -10.25,7.65 0,4.6 4.45,7.65 10.25,7.65 5.9,0 10.3,-3.05 10.3,-7.65 m -3.6,0 c 0,2.85 -3.15,4.6 -6.7,4.6 -3.5,0 -6.65,-1.75 -6.65,-4.6 0,-2.9 3.15,-4.65 6.65,-4.65 3.55,0 6.7,1.75 6.7,4.65"
     id="path93" />
  <path
     class="Lyrics"
     d="M1572.22,684.37 L1572.22,681.17 L1565.57,681.17 L1565.57,666.37 L1561.77,666.37 L1561.77,698.62 L1565.57,698.62 L1565.57,684.37 L1572.22,684.37 M1567.27,708.67 L1567.27,705.47 L1541.97,705.47 L1541.97,697.47 L1538.17,697.47 L1538.17,708.67 L1567.27,708.67 M1550.62,671.27 L1550.62,667.92 L1538.02,667.92 L1538.02,671.27 L1550.62,671.27 M1557.37,677.72 L1557.37,674.57 L1531.77,674.57 L1531.77,677.72 L1557.37,677.72 M1554.87,687.72 C1554.87,683.02 1550.47,680.07 1544.57,680.07 C1538.72,680.07 1534.32,683.02 1534.32,687.72 C1534.32,692.32 1538.77,695.37 1544.57,695.37 C1550.47,695.37 1554.87,692.32 1554.87,687.72 M1551.27,687.72 C1551.27,690.57 1548.12,692.32 1544.57,692.32 C1541.07,692.32 1537.92,690.57 1537.92,687.72 C1537.92,684.82 1541.07,683.07 1544.57,683.07 C1548.12,683.07 1551.27,684.82 1551.27,687.72"
     id="path94" />
  <path
     class="Lyrics"
     d="m 699.855,1065.7 v -15.35 h -28.95 v 15.35 h 28.95 m 0,-17.75 v -25.35 h -3.8 v 11.3 h -5.5 v -10.5 h -3.7 v 24.35 h 3.7 v -10.7 h 5.5 v 10.9 h 3.8 m -3.85,14.6 h -21.3 v -9.1 h 21.3 v 9.1 m -10.9,-19.15 c -4.15,-1.8 -9.45,-6.25 -9.45,-12.95 v -5.35 h -3.7 v 5.45 c 0,6.55 -4.7,11.85 -9.35,14.35 l 2.35,2.9 c 4.05,-2.35 7.85,-7.05 8.95,-10.6 1.5,3.4 5.25,7.25 9.15,9.1 l 2.05,-2.9"
     id="path95" />
  <path
     class="Lyrics"
     d="m 1204.1,1040.6 v -3.2 h -6.65 v -14.8 h -3.8 v 32.25 h 3.8 v -14.25 h 6.65 m -4.95,24.3 v -3.2 h -25.3 v -8 h -3.8 v 11.2 h 29.1 m -16.65,-37.4 v -3.35 h -12.6 v 3.35 h 12.6 m 6.75,6.45 v -3.15 h -25.6 v 3.15 h 25.6 m -2.5,10 c 0,-4.7 -4.4,-7.65 -10.3,-7.65 -5.85,0 -10.25,2.95 -10.25,7.65 0,4.6 4.45,7.65 10.25,7.65 5.9,0 10.3,-3.05 10.3,-7.65 m -3.6,0 c 0,2.85 -3.15,4.6 -6.7,4.6 -3.5,0 -6.65,-1.75 -6.65,-4.6 0,-2.9 3.15,-4.65 6.65,-4.65 3.55,0 6.7,1.75 6.7,4.65"
     id="path96" />
  <path
     class="Lyrics"
     d="m 486.494,1046.1 v -23.5 h -3.8 v 10.4 h -7.35 v 3.15 h 7.35 v 9.95 h 3.8 m 4.3,17.35 c -4.7,-2.25 -7.7,-6.75 -7.7,-11.5 v -3.7 h -3.7 v 3.7 c 0,4.65 -2.55,9.45 -7.5,11.7 l 2.1,2.8 c 3.45,-1.85 6.4,-5.45 7.2,-8.35 0.95,2.95 4.15,6.3 7.35,8.15 l 2.25,-2.8 m -19.95,2.25 v -16.95 h -3.6 v 5.45 h -7.7 v -5.45 h -3.6 v 16.95 h 14.9 m -3.6,-3 h -7.7 v -5.6 h 7.7 v 5.6 m -4.85,-37.95 c -6.15,0 -11.25,4.1 -11.25,10.25 0,6.2 5.15,10.1 11.25,10.1 6.15,0 11.2,-3.9 11.2,-10.15 0,-6.2 -5.05,-10.2 -11.2,-10.2 m 0,3.3 c 4.5,0 7.4,2.85 7.4,6.95 0,4.15 -2.95,6.95 -7.4,6.95 -4.3,0 -7.45,-2.8 -7.45,-7 0,-4.1 3.15,-6.9 7.45,-6.9"
     id="path97" />
  <path
     class="Lyrics"
     d="m 810.986,1047.25 v -3.2 h -17.85 v -6.7 h -3.8 v 6.7 h -17.8 v 3.2 h 39.45 m -1.9,-10.55 c -6.55,-0.65 -15.8,-5.75 -15.8,-11.95 v -1.55 h -3.95 v 1.55 c 0,6.15 -8.4,11.2 -15.75,12 l 1.8,3.25 c 7.5,-1.35 14.1,-6.1 15.85,-10.3 2.1,4.2 8.85,8.9 16.1,10.25 l 1.75,-3.25 m -0.85,26.5 c -7.45,-0.65 -15.05,-6.05 -15.05,-11.3 v -1.55 h -3.9 v 1.55 c 0,5.3 -6.95,10.55 -14.95,11.2 l 1.85,3.1 c 7.05,-1.2 13.3,-5.5 15,-9.3 2.15,4 8.85,8.35 15.15,9.35 l 1.9,-3.05"
     id="path98" />
  <path
     class="Lyrics"
     d="M1483.16,666.37 L1479.36,666.37 L1479.36,698.12 L1483.16,698.12 L1483.16,682.27 L1489.86,682.27 L1489.86,679.02 L1483.16,679.02 L1483.16,666.37 M1484.41,708.67 L1484.41,705.52 L1459.36,705.52 L1459.36,695.17 L1455.56,695.17 L1455.56,708.67 L1484.41,708.67 M1474.96,685.37 C1469.91,686.52 1460.61,687.27 1454.86,687.22 L1454.86,669.32 L1451.06,669.32 L1451.06,690.42 L1454.91,690.42 C1461.86,690.42 1470.36,689.62 1475.41,688.52 L1474.96,685.37 "
     id="path99" />
  <path
     class="Lyrics"
     d="m 1314.86,1043.45 v -3.2 h -7.05 v -17.65 h -3.8 v 43.7 h 3.8 v -22.85 h 7.05 m -15,9.3 c -6.05,-3.55 -11.55,-10.7 -11.55,-18.65 v -7.65 h -3.9 v 7.75 c 0,7.75 -5.15,15.6 -11.5,19.5 l 2.45,2.95 c 5.15,-3.6 9.4,-9.15 10.95,-14.6 1.75,5.3 6.65,10.5 11.15,13.6 l 2.4,-2.9"
     id="path100" />
  <path
     class="Lyrics"
     d="M1402.06,666.37 L1398.26,666.37 L1398.26,710.07 L1402.06,710.07 L1402.06,687.82 L1409.21,687.82 L1409.21,684.57 L1402.06,684.57 L1402.06,666.37 M1390.71,671.07 L1370.16,671.07 L1370.16,674.27 L1386.61,674.27 C1385.81,684.12 1379.56,693.32 1368.66,698.37 L1371.01,701.37 C1382.26,695.52 1390.46,685.27 1390.71,671.07"
     id="path101" />
  <path
     class="Lyrics"
     d="M1242.43,666.37 L1238.68,666.37 L1238.68,710.07 L1242.43,710.07 L1242.43,687.17 L1249.48,687.17 L1249.48,683.97 L1242.43,683.97 L1242.43,666.37 M1234.83,694.97 C1228.98,696.07 1221.23,696.52 1214.28,696.47 L1214.28,685.92 L1230.58,685.92 L1230.58,670.42 L1210.38,670.42 L1210.38,673.57 L1226.78,673.57 L1226.78,682.77 L1210.48,682.77 L1210.48,699.67 L1214.18,699.67 C1221.33,699.67 1230.43,699.02 1235.33,698.02 L1234.83,694.97 "
     id="path102" />
  <path
     class="Lyrics"
     d="M1167.03,677.57 C1167.03,671.97 1162.33,668.17 1155.58,668.17 C1148.78,668.17 1144.08,671.97 1144.08,677.57 C1144.08,683.02 1148.78,686.82 1155.58,686.82 C1162.28,686.82 1167.03,683.02 1167.03,677.57 M1177.28,710.07 L1177.28,666.37 L1173.53,666.37 L1173.53,696.47 L1163.53,696.47 L1163.53,699.62 L1173.53,699.62 L1173.53,710.07 L1177.28,710.07 M1163.33,677.57 C1163.33,681.42 1159.93,683.62 1155.58,683.62 C1151.18,683.62 1147.73,681.42 1147.73,677.57 C1147.73,673.57 1151.18,671.37 1155.58,671.37 C1159.93,671.37 1163.33,673.57 1163.33,677.57 M1157.23,708.77 L1157.23,693.12 C1162.08,692.87 1167.38,692.47 1170.68,692.02 L1170.38,689.02 C1166.13,689.52 1161.13,689.82 1155.68,690.02 C1150.88,690.22 1146.13,690.27 1140.93,690.27 L1141.48,693.57 C1145.43,693.52 1149.33,693.52 1153.43,693.32 L1153.43,708.77 L1157.23,708.77 "
     id="path103" />
  <path
     class="Lyrics"
     d="m 868.843,1048.35 v -3.2 h -39.45 v 3.2 h 39.45 m -4.2,17 v -3.15 h -26.3 v -9.75 h -3.8 v 12.9 h 30.1 m -0.2,-25.65 v -3.15 h -25.95 v -12.1 h -3.8 v 15.25 h 29.75"
     id="path104" />
  <path
     class="Lyrics"
     d="m 1852.85,1037.25 v -3.15 h -6.65 v -11.5 h -3.8 v 25.25 h 3.8 v -10.6 h 6.65 m -6.65,28.45 v -15.6 h -27.45 v 15.6 h 27.45 m -3.8,-3.15 h -19.85 v -9.3 h 19.85 v 9.3 m -28.1,-36.6 v 3.2 h 15.85 c -1.05,7.9 -9.4,14.15 -18,15.95 l 1.75,3.15 c 11.15,-3.2 19.9,-10.3 20.55,-22.3 h -20.15"
     id="path105" />
  <path
     class="Lyrics"
     d="m 1433.22,1037.55 v -3.2 h -6.65 v -11.75 h -3.75 v 27.2 h 3.75 v -12.25 h 6.65 m -6.15,20.8 c 0,-4.9 -5,-8 -14.45,-8 -9.5,0 -14.45,3 -14.45,8 0,4.85 4.95,7.9 14.45,7.9 9.45,0 14.45,-3.1 14.45,-7.9 m -14.45,-4.85 c 6.6,0 10.55,1.75 10.55,4.85 0,3.05 -3.95,4.75 -10.55,4.75 -6.65,0 -10.55,-1.8 -10.55,-4.75 0,-3.05 3.9,-4.85 10.55,-4.85 m 6.1,-10.4 c -5.15,1.05 -14.8,1.35 -19.9,1.35 h -0.55 v -6.5 h 16.05 v -12.45 h -19.95 v 3.15 h 16.15 v 6.2 h -16.05 v 12.8 h 4.1 c 6.15,0 16,-0.65 20.5,-1.45 l -0.35,-3.1"
     id="path106" />
  <path
     class="Lyrics"
     d="m 574.998,1066.3 v -43.7 h -3.8 v 43.7 h 3.8 m -34.5,-25 c 0,9.3 4.1,15.5 11.25,15.5 7.25,0 11.3,-6.2 11.3,-15.45 0,-9.25 -4.05,-15.45 -11.3,-15.45 -7.15,0 -11.25,6.2 -11.25,15.4 m 18.95,0.05 c 0,7.15 -3.05,12.15 -7.7,12.15 -4.6,0 -7.65,-5 -7.65,-12.15 0,-7.2 3.05,-12.15 7.65,-12.15 4.65,0 7.7,4.95 7.7,12.15"
     id="path107" />
  <path
     class="Lyrics"
     d="M1075.48,704.52 L1075.48,701.32 L1057.58,701.32 L1057.58,693.87 L1071.83,693.87 L1071.83,690.67 L1044.68,690.67 L1044.68,683.37 L1070.58,683.37 L1070.58,670.02 L1040.83,670.02 L1040.83,673.22 L1066.78,673.22 L1066.78,680.22 L1040.88,680.22 L1040.88,693.87 L1053.78,693.87 L1053.78,701.32 L1036.03,701.32 L1036.03,704.52 L1075.48,704.52 "
     id="path108" />
  <path
     class="Lyrics"
     d="M691.983,671.37 C690.283,673.42 685.683,674.97 681.083,675.07 L681.083,677.22 L685.483,677.22 C688.383,677.27 688.683,677.57 688.583,680.37 L688.583,700.42 C688.583,702.97 688.583,703.07 688.283,703.52 C687.883,704.02 686.933,704.22 684.133,704.22 L680.883,704.22 L680.883,706.57 L700.683,706.57 L700.683,704.22 L697.933,704.22 C695.133,704.22 694.183,704.02 693.783,703.52 C693.433,703.07 693.433,703.02 693.433,700.42 L693.433,679.77 C693.433,676.97 693.533,674.62 693.783,671.37 L691.983,671.37 M710.53,701.02 C708.78,701.02 707.38,702.42 707.38,704.12 C707.38,705.87 708.78,707.27 710.48,707.27 C712.23,707.27 713.63,705.87 713.63,704.12 C713.63,702.42 712.23,701.02 710.53,701.02"
     id="path109" />
  <path
     class="Lyrics"
     d="M754.92,681.02 C754.92,673.82 748.67,669.12 739.12,669.12 C729.72,669.12 723.42,673.82 723.42,681.02 C723.42,687.72 728.87,692.22 737.22,692.82 L737.22,701.12 L719.47,701.12 L719.47,704.32 L758.92,704.32 L758.92,701.12 L741.02,701.12 L741.02,692.82 C749.42,692.27 754.92,687.72 754.92,681.02 M751.27,681.07 C751.27,686.32 746.47,689.77 739.12,689.77 C731.87,689.77 727.12,686.32 727.12,681.07 C727.12,675.82 731.87,672.32 739.12,672.32 C746.52,672.32 751.27,675.82 751.27,681.07"
     id="path110" />
  <path
     class="Lyrics"
     d="M954.12,710.07 L954.12,666.37 L950.32,666.37 L950.32,710.07 L954.12,710.07 M941.57,698.82 L941.57,670.87 L920.92,670.87 L920.92,698.82 L941.57,698.82 M937.77,695.67 L924.77,695.67 L924.77,674.02 L937.77,674.02 L937.77,695.67 "
     id="path111" />
  <path
     class="Lyrics"
     d="M876.35,681.02 L876.35,677.87 L869.7,677.87 L869.7,666.37 L865.9,666.37 L865.9,691.62 L869.7,691.62 L869.7,681.02 L876.35,681.02 M869.7,709.47 L869.7,693.87 L842.25,693.87 L842.25,709.47 L869.7,709.47 M865.9,706.32 L846.05,706.32 L846.05,697.02 L865.9,697.02 L865.9,706.32 M837.8,669.72 L837.8,672.92 L853.65,672.92 C852.6,680.82 844.25,687.07 835.65,688.87 L837.4,692.02 C848.55,688.82 857.3,681.72 857.95,669.72 L837.8,669.72 "
     id="path112" />
  <path
     class="Lyrics"
     d="m 1718.05,1037.25 c 0,-7.2 -6.25,-11.9 -15.8,-11.9 -9.4,0 -15.7,4.7 -15.7,11.9 0,6.7 5.45,11.2 13.8,11.8 v 8.3 h -17.75 v 3.2 h 39.45 v -3.2 h -17.9 v -8.3 c 8.4,-0.55 13.9,-5.1 13.9,-11.8 m -3.65,0.05 c 0,5.25 -4.8,8.7 -12.15,8.7 -7.25,0 -12,-3.45 -12,-8.7 0,-5.25 4.75,-8.75 12,-8.75 7.4,0 12.15,3.5 12.15,8.75"
     id="path113" />
  <path
     class="NoteDot"
     transform="matrix(0.992,0,0,0.992,1084.26,572.39)"
     d="M0,0 C0,2.8 2.2,5 5,5 C7.8,5 10,2.8 10,0 C10,-2.8 7.8,-5 5,-5 C2.2,-5 0,-2.8 0,0"
     id="path114" />
  <path
     class="NoteDot"
     d="m 709.746,929.2 c 0,2.7776 2.1824,4.96 4.96,4.96 2.7776,0 4.96,-2.1824 4.96,-4.96 0,-2.7776 -2.1824,-4.96 -4.96,-4.96 -2.7776,0 -4.96,2.1824 -4.96,4.96"
     id="path115"
     style="stroke-width:0.992" />
  <path
     class="NoteDot"
     d="m 1442.31,954 c 0,2.7776 2.1824,4.96 4.96,4.96 2.7776,0 4.96,-2.1824 4.96,-4.96 0,-2.7776 -2.1824,-4.96 -4.96,-4.96 -2.7776,0 -4.96,2.1824 -4.96,4.96"
     id="path116"
     style="stroke-width:0.992" />
  <path
     class="NoteDot"
     d="m 1044.5,954 c 0,2.7776 2.1824,4.96 4.96,4.96 2.7776,0 4.96,-2.1824 4.96,-4.96 0,-2.7776 -2.1824,-4.96 -4.96,-4.96 -2.7776,0 -4.96,2.1824 -4.96,4.96"
     id="path117"
     style="stroke-width:0.992" />
  <path
     class="NoteDot"
     d="m 1212.37,954 c 0,2.7776 2.1824,4.96 4.96,4.96 2.7776,0 4.96,-2.1824 4.96,-4.96 0,-2.7776 -2.1824,-4.96 -4.96,-4.96 -2.7776,0 -4.96,2.1824 -4.96,4.96"
     id="path118"
     style="stroke-width:0.992" />
  <path
     class="NoteDot"
     transform="matrix(0.992,0,0,0.992,1580.49,572.39)"
     d="M0,0 C0,2.8 2.2,5 5,5 C7.8,5 10,2.8 10,0 C10,-2.8 7.8,-5 5,-5 C2.2,-5 0,-2.8 0,0"
     id="path119" />
</svg>
