<?xml version="1.0" encoding="UTF-8" standalone="no"?>
<svg width="2098.8px" height="1418.4px" viewBox="0 0 2098.8 1418.4"
 xmlns="http://www.w3.org/2000/svg" xmlns:xlink="http://www.w3.org/1999/xlink" version="1.2" baseProfile="tiny">
<title>081영광의주성삼위.musicxml (2)</title>
<desc>Generated by MuseScore 4.2.1</desc>
<polyline class="StaffLines" fill="none" stroke="#000000" stroke-width="2.73" stroke-linejoin="bevel" points="104.4,278 1994.4,278"/>
<polyline class="StaffLines" fill="none" stroke="#000000" stroke-width="2.73" stroke-linejoin="bevel" points="104.4,302.8 1994.4,302.8"/>
<polyline class="StaffLines" fill="none" stroke="#000000" stroke-width="2.73" stroke-linejoin="bevel" points="104.4,327.6 1994.4,327.6"/>
<polyline class="StaffLines" fill="none" stroke="#000000" stroke-width="2.73" stroke-linejoin="bevel" points="104.4,352.4 1994.4,352.4"/>
<polyline class="StaffLines" fill="none" stroke="#000000" stroke-width="2.73" stroke-linejoin="bevel" points="104.4,377.2 1994.4,377.2"/>
<path class="MeasureNumber" d="M120.76,200.08 L119.6,200.08 C117.4,201.72 113.16,203.12 110.28,203.12 L109.8,204.88 L112.56,204.88 C115,204.88 115.28,204.96 115.28,205.68 C115.28,206.04 115.28,206.04 114.88,207.48 L110.6,223.48 C110.08,225.48 110.04,225.6 109.68,225.96 C109.28,226.36 108.44,226.48 106.32,226.52 L104.6,226.52 L104.4,228.4 L119.2,228.4 L119.44,226.52 L117.28,226.52 C114.68,226.52 114.12,226.32 114.12,225.44 C114.12,225.16 114.28,224.24 114.48,223.48 L120.76,200.08 M138.234,213.84 C140.114,213.24 140.874,212.92 141.834,212.28 C143.714,211.04 144.874,208.84 144.874,206.6 C144.874,202.8 141.834,200.24 137.354,200.24 C132.994,200.24 129.314,202.96 129.314,206.24 C129.314,207.88 130.314,209 131.834,209 C133.154,209 134.114,208.04 134.114,206.72 C134.114,206.04 133.914,205.56 133.274,204.92 C132.874,204.56 132.714,204.28 132.714,204 C132.714,203.04 134.714,202.04 136.594,202.04 C139.274,202.04 140.874,203.52 140.874,206 C140.874,209.56 138.354,212.92 135.674,212.92 C135.554,212.92 135.194,212.88 134.754,212.84 C133.594,212.76 133.594,212.76 133.354,212.76 C132.474,212.76 131.994,213.16 131.994,213.88 C131.994,214.52 132.434,214.92 133.154,214.92 C133.354,214.92 133.634,214.88 133.954,214.84 C134.514,214.72 135.114,214.68 135.474,214.68 C137.354,214.68 138.634,216.36 138.634,218.84 C138.634,223.16 136.514,227.32 131.674,227.32 C129.434,227.32 127.514,226.2 127.514,224.92 C127.514,224.48 127.674,224.32 128.314,224.04 C129.474,223.52 129.954,222.8 129.954,221.72 C129.954,220.32 128.834,219.24 127.394,219.24 C125.674,219.24 124.554,220.6 124.554,222.68 C124.554,226.56 127.514,229 132.314,229 C138.354,229 142.954,224.96 142.954,219.6 C142.954,216.48 141.034,214.72 138.234,213.84"/>
<polyline class="BarLine" fill="none" stroke="#000000" stroke-width="4.46" stroke-linejoin="bevel" points="1190.51,276.636 1190.51,378.564"/>
<polyline class="BarLine" fill="none" stroke="#000000" stroke-width="4.46" stroke-linejoin="bevel" points="1969.35,276.636 1969.35,378.564"/>
<polyline class="BarLine" fill="none" stroke="#000000" stroke-width="13.64" stroke-linejoin="bevel" points="1987.58,276.636 1987.58,378.564"/>
<polyline class="BarLine" fill="none" stroke="#000000" stroke-width="4.46" stroke-linejoin="bevel" points="731.484,276.636 731.484,378.564"/>
<polyline class="BarLine" fill="none" stroke="#000000" stroke-width="4.46" stroke-linejoin="bevel" points="1658.98,276.636 1658.98,378.564"/>
<polyline class="Stem" fill="none" stroke="#000000" stroke-width="2.48" stroke-linejoin="bevel" points="949.642,294.566 949.642,377.101"/>
<polyline class="Stem" fill="none" stroke="#000000" stroke-width="2.48" stroke-linejoin="bevel" points="1045.59,306.966 1045.59,389.6"/>
<polyline class="Stem" fill="none" stroke="#000000" stroke-width="2.48" stroke-linejoin="bevel" points="328.476,348.432 328.476,265.6"/>
<polyline class="Stem" fill="none" stroke="#000000" stroke-width="2.48" stroke-linejoin="bevel" points="767.196,306.966 767.196,389.6"/>
<polyline class="Stem" fill="none" stroke="#000000" stroke-width="2.48" stroke-linejoin="bevel" points="1724.44,348.432 1724.44,265.6"/>
<polyline class="Stem" fill="none" stroke="#000000" stroke-width="2.48" stroke-linejoin="bevel" points="472.398,323.632 472.398,253.2"/>
<polyline class="Stem" fill="none" stroke="#000000" stroke-width="2.48" stroke-linejoin="bevel" points="1543.82,336.032 1543.82,259.4"/>
<polyline class="Stem" fill="none" stroke="#000000" stroke-width="2.48" stroke-linejoin="bevel" points="1226.22,319.366 1226.22,395.8"/>
<polyline class="Stem" fill="none" stroke="#000000" stroke-width="2.48" stroke-linejoin="bevel" points="616.321,298.832 616.321,240.8"/>
<polyline class="Stem" fill="none" stroke="#000000" stroke-width="2.48" stroke-linejoin="bevel" points="1370.14,331.766 1370.14,402"/>
<path class="Note" transform="matrix(0.992,0,0,0.992,585.329,302.8)" d="M0,4.2 C0,8.5 3.1,13.3 11.2,13.3 C21.6,13.3 32.5,4.8 32.5,-4 C32.5,-9.9 27.5,-13.2 21.3,-13.2 C11.6,-13.2 0,-5 0,4.2"/>
<path class="Note" transform="matrix(0.992,0,0,0.992,1224.98,315.2)" d="M0,4.2 C0,8.5 3.1,13.3 11.2,13.3 C21.6,13.3 32.5,4.8 32.5,-4 C32.5,-9.9 27.5,-13.2 21.3,-13.2 C11.6,-13.2 0,-5 0,4.2"/>
<path class="Note" transform="matrix(0.992,0,0,0.992,1368.9,327.6)" d="M0,4.2 C0,8.5 3.1,13.3 11.2,13.3 C21.6,13.3 32.5,4.8 32.5,-4 C32.5,-9.9 27.5,-13.2 21.3,-13.2 C11.6,-13.2 0,-5 0,4.2"/>
<path class="Note" transform="matrix(0.992,0,0,0.992,1512.82,340)" d="M0,4.2 C0,8.5 3.1,13.3 11.2,13.3 C21.6,13.3 32.5,4.8 32.5,-4 C32.5,-9.9 27.5,-13.2 21.3,-13.2 C11.6,-13.2 0,-5 0,4.2"/>
<path class="Note" transform="matrix(0.992,0,0,0.992,441.406,327.6)" d="M0,4.2 C0,8.5 3.1,13.3 11.2,13.3 C21.6,13.3 32.5,4.8 32.5,-4 C32.5,-9.9 27.5,-13.2 21.3,-13.2 C11.6,-13.2 0,-5 0,4.2"/>
<path class="Note" transform="matrix(0.992,0,0,0.992,1693.45,352.4)" d="M21.3,-13.2 C11.6,-13.2 0,-5.1 0,4.2 C0,8.5 3.1,13.3 11.2,13.3 C21.6,13.3 32.5,4.8 32.5,-4 C32.5,-9.9 27.5,-13.2 21.3,-13.2 M7.5,8.6 C4.2,8.6 3.5,5.9 3.5,5 C3.5,0.1 20.3,-8.5 25,-8.5 C27.4,-8.5 29,-7.1 29,-4.9 C29,0.1 12.1,8.6 7.5,8.6"/>
<path class="Note" transform="matrix(0.992,0,0,0.992,765.956,302.8)" d="M0,4.2 C0,8.5 3.1,13.3 11.2,13.3 C21.6,13.3 32.5,4.8 32.5,-4 C32.5,-9.9 27.5,-13.2 21.3,-13.2 C11.6,-13.2 0,-5 0,4.2"/>
<path class="Note" transform="matrix(0.992,0,0,0.992,297.483,352.4)" d="M0,4.2 C0,8.5 3.1,13.3 11.2,13.3 C21.6,13.3 32.5,4.8 32.5,-4 C32.5,-9.9 27.5,-13.2 21.3,-13.2 C11.6,-13.2 0,-5 0,4.2"/>
<path class="Note" transform="matrix(0.992,0,0,0.992,1044.35,302.8)" d="M0,4.2 C0,8.5 3.1,13.3 11.2,13.3 C21.6,13.3 32.5,4.8 32.5,-4 C32.5,-9.9 27.5,-13.2 21.3,-13.2 C11.6,-13.2 0,-5 0,4.2"/>
<path class="Note" transform="matrix(0.992,0,0,0.992,948.402,290.4)" d="M0,4.2 C0,8.5 3.1,13.3 11.2,13.3 C21.6,13.3 32.5,4.8 32.5,-4 C32.5,-9.9 27.5,-13.2 21.3,-13.2 C11.6,-13.2 0,-5 0,4.2"/>
<path class="Clef" transform="matrix(0.992,0,0,0.992,123,352.4)" d="M12.3,51.3 C12.3,57.9 17.3,66.6 30.8,66.6 C35.5,66.6 39.6,65.4 43.2,63.2 C48.6,59.4 50,52.8 50,46.5 C50,42.6 49.4,38.1 48.4,32.4 C48.1,30.4 47.5,27.4 46.9,23.5 C56.7,20.3 64,10.1 64,-0.2 C64,-15.3 53.3,-25.5 38.7,-25.5 C37.7,-31.5 36.7,-37.4 35.9,-43 C46.4,-54.1 53.7,-66.6 53.7,-82.5 C53.7,-91.6 50.9,-99 49.3,-102.6 C46.9,-107.7 44,-111.2 42.2,-111.2 C41.5,-111.2 38.4,-110 35.1,-106.1 C28.7,-98.5 26.9,-85.7 26.9,-77.3 C26.9,-71.9 27.4,-67 29.1,-55.8 C29,-55.7 23.8,-50.4 21.7,-48.7 C12.6,-40.3 0,-28.1 0,-8.1 C0,10.6 16.3,25.3 34.9,25.3 C37.8,25.3 40.5,25 42.8,24.6 C44.7,34.2 45.9,41.2 45.9,46.5 C45.9,56.9 40.5,62.4 30.4,62.4 C28,62.4 25.9,61.9 25.7,61.9 C25.6,61.8 25.4,61.7 25.4,61.6 C25.4,61.4 25.6,61.3 25.9,61.3 C30.6,60.5 35.3,56.5 35.3,50.1 C35.3,44.7 31.2,39 23.7,39 C16.7,39 12.3,44.7 12.3,51.3 M33.2,-82.2 C34.1,-86.2 38.7,-96.7 43.9,-96.7 C45.4,-96.7 47.8,-91.9 47.8,-84.9 C47.8,-74.5 40.1,-66.7 33.2,-59.9 C32.6,-63.9 32.1,-67.8 32.1,-72 C32.1,-75.7 32.4,-79.1 33.2,-82.2 M42,20.6 C40,21 38.1,21.2 36.2,21.2 C21.9,21.2 9.7,11.2 9.7,-3.9 C9.7,-16.1 18.3,-27 27.1,-34.6 C28.8,-36.1 30.4,-37.5 31.9,-39 C32.8,-33.6 33.5,-28.9 34.2,-24.8 C25.1,-22.1 18.9,-12.5 18.9,-3.1 C18.9,3.9 24.4,13.5 32.4,13.5 C33.2,13.5 34.1,13.1 34.1,12.2 C34.1,11.3 33.1,10.8 31.9,10 C28,7.6 25.8,5 25.8,0.1 C25.8,-6 30.4,-10.9 36.2,-12.3 L42,20.6 M56.2,2.1 C56.2,9.2 53.3,16.5 46.2,19.4 C44.1,7.4 41.4,-8.5 40.7,-12.9 C49.7,-12.9 56.2,-6.8 56.2,2.1"/>
<path class="KeySig" transform="matrix(0.992,0,0,0.992,211.28,278)" d="M23.3,-10.5 C23.9,-10.6 24.4,-11.3 24.4,-11.9 L24.4,-17.8 C24.4,-18.8 23.7,-19.2 22.8,-19.2 L19.5,-18.5 L19.5,-33.4 L16.7,-33.4 L16.7,-17.9 L7.8,-16.1 L7.8,-30.2 L5,-30.2 L5,-15.5 L1.1,-14.7 C0.5,-14.6 0,-13.9 0,-13.3 L0,-7.5 C0,-6.4 0.8,-6.1 1.7,-6.1 L5,-6.8 L5,9.7 L1.1,10.5 C0.5,10.6 0,11.3 0,11.9 L0,17.7 C0,18.8 0.8,19.1 1.7,19.1 L5,18.4 L5,33.3 L7.8,33.3 L7.8,17.8 L16.7,16 L16.7,30.1 L19.5,30.1 L19.5,15.4 L23.3,14.7 C23.9,14.6 24.4,13.9 24.4,13.3 L24.4,7.4 C24.4,6.4 23.7,6 22.8,6 L19.5,6.7 L19.5,-9.8 L23.3,-10.5 M7.8,-7.4 L16.7,-9.2 L16.7,7.3 L7.8,9.2 L7.8,-7.4 "/>
<path class="Dynamic" d="M285.066,246.74 C282.393,246.74 279.918,249.215 279.918,251.888 C279.918,257.036 283.383,259.907 287.937,259.907 C291.105,259.907 293.382,258.917 295.857,256.442 C300.213,252.086 304.965,237.335 307.341,228.92 C308.232,225.752 309.123,222.683 309.816,220.406 L309.816,220.208 L316.944,220.208 C317.538,220.208 317.934,219.812 317.934,219.218 L317.934,217.04 C317.934,216.446 317.538,216.05 316.944,216.05 L311.103,216.05 L311.103,215.753 C313.875,205.655 314.667,203.873 316.152,202.685 C316.944,202.091 317.637,201.893 318.132,201.893 C318.33,201.893 318.528,201.992 318.627,201.992 C319.221,202.091 319.716,202.685 319.716,203.279 C319.716,203.774 319.518,204.269 319.122,204.467 C318.132,205.259 317.637,206.546 317.637,207.932 C317.637,208.427 317.736,208.823 317.835,209.318 C318.132,210.209 318.924,211.1 319.914,211.496 C320.31,211.694 321.003,211.892 321.696,211.892 C323.775,211.892 325.854,210.308 326.349,208.328 C326.547,207.833 326.547,207.239 326.547,206.645 C326.547,201.695 322.092,199.121 317.637,199.121 C308.43,199.121 304.371,208.526 301.896,215.852 L301.896,216.05 L294.372,216.05 C293.778,216.05 293.382,216.446 293.382,217.04 L293.382,219.218 C293.382,219.812 293.778,220.208 294.372,220.208 L300.51,220.208 L300.51,220.604 C299.52,224.564 298.728,227.93 298.035,231.197 C297.243,234.86 296.352,238.622 295.164,243.176 L294.867,244.364 C292.788,252.482 292.194,255.353 289.818,256.937 C289.323,257.234 288.729,257.432 288.135,257.432 C287.64,257.432 287.145,257.234 286.749,256.937 C286.353,256.64 286.254,256.343 286.254,255.848 C286.353,255.452 286.551,255.056 287.046,254.858 C288.927,254.066 289.521,252.284 289.521,250.7 C289.521,249.314 288.63,246.74 285.066,246.74"/>
<path class="Hook" transform="matrix(0.992,0,0,0.992,948.402,377.2)" d="M0,-0.1 C0,0.6 0.6,1.2 1.3,1.2 C1.8,1.2 2.4,0.8 2.5,0.4 C2.5,0.3 3.4,-3.2 3.5,-3.5 C3.6,-3.9 4.5,-7.7 8.1,-13.6 C12,-20.1 18,-24.8 23,-31.8 C28,-38.8 30.9,-45.4 30.9,-54.2 C30.9,-63.3 28.9,-70.9 23.5,-80.6 C23.2,-81.3 22.6,-81.7 22,-81.7 C21.8,-81.7 21.6,-81.7 21.5,-81.6 C21,-81.4 20.8,-81 20.8,-80.4 C20.8,-80.1 20.9,-79.7 21.1,-79.2 C25.1,-69.9 26.7,-64.6 26.7,-57.4 C26.7,-49.1 23.8,-44.8 22,-41.7 C15.5,-30.6 5,-25.2 0.8,-23.8 C0.1,-23.6 0,-23 0,-22.7 L0,-0.1 "/>
<path class="Lyrics" d="M797.525,618.341 C797.525,612.541 791.675,608.591 781.875,608.591 C772.125,608.591 766.225,612.541 766.225,618.341 C766.225,624.191 772.125,628.141 781.875,628.141 C791.675,628.141 797.525,624.141 797.525,618.341 M781.875,611.891 C789.325,611.891 793.825,614.341 793.825,618.341 C793.825,622.391 789.325,624.841 781.875,624.841 C774.525,624.841 770.025,622.391 770.025,618.341 C770.025,614.341 774.525,611.891 781.875,611.891 M783.775,650.491 L783.775,635.291 L801.825,635.291 L801.825,632.091 L762.325,632.091 L762.325,635.291 L779.975,635.291 L779.975,650.491 L783.775,650.491 "/>
<path class="Lyrics" d="M797.525,558.356 C797.525,552.556 791.675,548.606 781.875,548.606 C772.125,548.606 766.225,552.556 766.225,558.356 C766.225,564.206 772.125,568.156 781.875,568.156 C791.675,568.156 797.525,564.156 797.525,558.356 M781.875,551.906 C789.325,551.906 793.825,554.356 793.825,558.356 C793.825,562.406 789.325,564.856 781.875,564.856 C774.525,564.856 770.025,562.406 770.025,558.356 C770.025,554.356 774.525,551.906 781.875,551.906 M783.775,590.506 L783.775,575.306 L801.825,575.306 L801.825,572.106 L762.325,572.106 L762.325,575.306 L779.975,575.306 L779.975,590.506 L783.775,590.506 "/>
<path class="Lyrics" d="M977.597,426.788 L977.597,470.488 L981.397,470.488 L981.397,426.788 L977.597,426.788 M973.597,455.438 C968.297,456.387 959.647,456.788 952.697,456.788 L951.647,456.788 L951.647,446.338 L968.247,446.338 L968.247,430.838 L947.647,430.838 L947.647,433.988 L964.397,433.988 L964.397,443.188 L947.847,443.188 L947.847,460.038 L952.297,460.038 C961.897,460.038 969.397,459.288 973.947,458.588 L973.597,455.438 "/>
<path class="Lyrics" d="M977.597,486.772 L977.597,530.472 L981.397,530.472 L981.397,486.772 L977.597,486.772 M973.597,515.422 C968.297,516.372 959.647,516.772 952.697,516.772 L951.647,516.772 L951.647,506.322 L968.247,506.322 L968.247,490.822 L947.647,490.822 L947.647,493.972 L964.397,493.972 L964.397,503.172 L947.847,503.172 L947.847,520.022 L952.297,520.022 C961.897,520.022 969.397,519.272 973.947,518.572 L973.597,515.422 "/>
<path class="Lyrics" d="M977.597,546.756 L977.597,590.456 L981.397,590.456 L981.397,546.756 L977.597,546.756 M973.597,575.406 C968.297,576.356 959.647,576.756 952.697,576.756 L951.647,576.756 L951.647,566.306 L968.247,566.306 L968.247,550.806 L947.647,550.806 L947.647,553.956 L964.397,553.956 L964.397,563.156 L947.847,563.156 L947.847,580.006 L952.297,580.006 C961.897,580.006 969.397,579.256 973.947,578.556 L973.597,575.406 "/>
<path class="Lyrics" d="M977.597,606.741 L977.597,650.441 L981.397,650.441 L981.397,606.741 L977.597,606.741 M973.597,635.391 C968.297,636.341 959.647,636.741 952.697,636.741 L951.647,636.741 L951.647,626.291 L968.247,626.291 L968.247,610.791 L947.647,610.791 L947.647,613.941 L964.397,613.941 L964.397,623.141 L947.847,623.141 L947.847,639.991 L952.297,639.991 C961.897,639.991 969.397,639.241 973.947,638.541 L973.597,635.391 "/>
<path class="Lyrics" d="M797.525,498.372 C797.525,492.572 791.675,488.622 781.875,488.622 C772.125,488.622 766.225,492.572 766.225,498.372 C766.225,504.222 772.125,508.172 781.875,508.172 C791.675,508.172 797.525,504.172 797.525,498.372 M781.875,491.922 C789.325,491.922 793.825,494.372 793.825,498.372 C793.825,502.422 789.325,504.872 781.875,504.872 C774.525,504.872 770.025,502.422 770.025,498.372 C770.025,494.372 774.525,491.922 781.875,491.922 M783.775,530.522 L783.775,515.322 L801.825,515.322 L801.825,512.122 L762.325,512.122 L762.325,515.322 L779.975,515.322 L779.975,530.522 L783.775,530.522 "/>
<path class="Lyrics" d="M799.703,470.488 L799.703,426.788 L795.903,426.788 L795.903,470.488 L799.703,470.488 M786.853,431.438 L766.053,431.438 L766.053,434.637 L782.803,434.637 C782.003,444.488 775.503,453.988 764.453,458.838 L766.653,461.838 C777.953,456.488 786.653,445.637 786.853,431.438"/>
<path class="Lyrics" d="M1065.55,440.137 L1073.85,440.137 L1073.85,449.238 L1065.55,449.238 L1065.55,452.387 L1073.85,452.387 L1073.85,470.488 L1077.65,470.488 L1077.65,426.788 L1073.85,426.788 L1073.85,436.988 L1065.55,436.988 L1065.55,440.137 M1063.1,459.438 L1063.1,431.188 L1043.3,431.188 L1043.3,459.438 L1063.1,459.438 M1059.3,456.288 L1047.1,456.288 L1047.1,434.338 L1059.3,434.338 L1059.3,456.288 "/>
<path class="Lyrics" d="M1080.21,510.072 L1080.21,507.122 L1040.76,507.122 L1040.76,510.072 L1080.21,510.072 M1076.91,529.672 L1076.91,526.672 L1049.11,526.672 L1049.11,522.672 L1075.56,522.672 L1075.56,513.522 L1045.36,513.522 L1045.36,516.322 L1071.76,516.322 L1071.76,519.972 L1045.31,519.972 L1045.31,529.672 L1076.91,529.672 M1076.16,503.672 L1076.16,500.822 L1049.56,500.822 L1049.56,497.372 L1075.31,497.372 L1075.31,488.222 L1045.71,488.222 L1045.71,491.222 L1071.51,491.222 L1071.51,494.622 L1045.76,494.622 L1045.76,503.672 L1076.16,503.672 "/>
<path class="Lyrics" d="M1080.21,570.056 L1080.21,567.106 L1040.76,567.106 L1040.76,570.056 L1080.21,570.056 M1076.91,589.656 L1076.91,586.656 L1049.11,586.656 L1049.11,582.656 L1075.56,582.656 L1075.56,573.506 L1045.36,573.506 L1045.36,576.306 L1071.76,576.306 L1071.76,579.956 L1045.31,579.956 L1045.31,589.656 L1076.91,589.656 M1076.16,563.656 L1076.16,560.806 L1049.56,560.806 L1049.56,557.356 L1075.31,557.356 L1075.31,548.206 L1045.71,548.206 L1045.71,551.206 L1071.51,551.206 L1071.51,554.606 L1045.76,554.606 L1045.76,563.656 L1076.16,563.656 "/>
<path class="Lyrics" d="M1079.14,650.441 L1079.14,606.741 L1075.39,606.741 L1075.39,650.441 L1079.14,650.441 M1070.64,648.241 L1070.64,607.791 L1066.99,607.791 L1066.99,623.741 L1059.64,623.741 L1059.64,626.941 L1066.99,626.941 L1066.99,648.241 L1070.64,648.241 M1060.74,611.841 L1043.54,611.841 L1043.54,615.041 L1056.84,615.041 C1056.39,623.941 1050.99,633.141 1041.84,638.291 L1044.44,641.091 C1054.74,634.441 1060.44,624.841 1060.74,611.841"/>
<path class="Lyrics" d="M331.312,462.288 C331.312,457.088 325.962,453.938 316.412,453.938 C306.912,453.938 301.562,457.088 301.562,462.288 C301.562,467.338 306.912,470.588 316.412,470.588 C325.962,470.588 331.312,467.338 331.312,462.288 M319.512,446.688 L327.462,446.688 L327.462,453.838 L331.262,453.838 L331.262,426.788 L327.462,426.788 L327.462,432.588 L319.512,432.588 L319.512,435.838 L327.462,435.838 L327.462,443.438 L319.512,443.438 L319.512,446.688 M327.412,462.288 C327.412,465.488 323.362,467.338 316.412,467.338 C309.612,467.338 305.512,465.488 305.512,462.288 C305.512,459.038 309.612,457.137 316.412,457.137 C323.362,457.137 327.412,459.038 327.412,462.288 M307.162,429.438 C301.012,429.438 295.912,433.637 295.912,439.938 C295.912,446.288 301.062,450.288 307.162,450.288 C313.312,450.288 318.362,446.288 318.362,439.887 C318.362,433.538 313.312,429.438 307.162,429.438 M307.162,432.688 C311.662,432.688 314.562,435.588 314.562,439.938 C314.562,444.338 311.612,447.188 307.162,447.188 C302.862,447.188 299.712,444.338 299.712,439.887 C299.712,435.538 302.862,432.688 307.162,432.688"/>
<path class="Lyrics" d="M618.998,650.441 L618.998,606.741 L615.198,606.741 L615.198,650.441 L618.998,650.441 M603.098,612.841 L603.098,609.641 L590.348,609.641 L590.348,612.841 L603.098,612.841 M609.848,620.391 L609.848,617.241 L583.898,617.241 L583.898,620.391 L609.848,620.391 M607.248,632.241 C607.248,627.091 603.148,623.191 597.048,623.191 C590.948,623.191 586.848,627.141 586.848,632.241 C586.848,637.341 590.948,641.241 597.048,641.241 C603.148,641.241 607.248,637.291 607.248,632.241 M603.448,632.241 C603.448,635.691 600.848,638.141 597.048,638.141 C593.298,638.141 590.598,635.691 590.598,632.241 C590.598,628.741 593.298,626.341 597.048,626.341 C600.748,626.341 603.448,628.741 603.448,632.241"/>
<path class="Lyrics" d="M618.998,590.456 L618.998,546.756 L615.198,546.756 L615.198,590.456 L618.998,590.456 M603.098,552.856 L603.098,549.656 L590.348,549.656 L590.348,552.856 L603.098,552.856 M609.848,560.406 L609.848,557.256 L583.898,557.256 L583.898,560.406 L609.848,560.406 M607.248,572.256 C607.248,567.106 603.148,563.206 597.048,563.206 C590.948,563.206 586.848,567.156 586.848,572.256 C586.848,577.356 590.948,581.256 597.048,581.256 C603.148,581.256 607.248,577.306 607.248,572.256 M603.448,572.256 C603.448,575.706 600.848,578.156 597.048,578.156 C593.298,578.156 590.598,575.706 590.598,572.256 C590.598,568.756 593.298,566.356 597.048,566.356 C600.748,566.356 603.448,568.756 603.448,572.256"/>
<path class="Lyrics" d="M618.998,530.472 L618.998,486.772 L615.198,486.772 L615.198,530.472 L618.998,530.472 M603.098,492.872 L603.098,489.672 L590.348,489.672 L590.348,492.872 L603.098,492.872 M609.848,500.422 L609.848,497.272 L583.898,497.272 L583.898,500.422 L609.848,500.422 M607.248,512.272 C607.248,507.122 603.148,503.222 597.048,503.222 C590.948,503.222 586.848,507.172 586.848,512.272 C586.848,517.372 590.948,521.272 597.048,521.272 C603.148,521.272 607.248,517.322 607.248,512.272 M603.448,512.272 C603.448,515.722 600.848,518.172 597.048,518.172 C593.298,518.172 590.598,515.722 590.598,512.272 C590.598,508.772 593.298,506.372 597.048,506.372 C600.748,506.372 603.448,508.772 603.448,512.272"/>
<path class="Lyrics" d="M1221.91,439.438 L1231.71,439.438 L1231.71,439.738 C1231.71,445.288 1226.51,450.588 1220.66,452.338 L1222.76,455.238 C1227.76,453.488 1232.31,449.137 1233.76,445.238 C1235.81,449.188 1240.41,452.788 1244.26,453.988 L1246.21,450.988 C1241.06,449.738 1235.71,445.137 1235.71,439.637 L1235.71,439.438 L1245.36,439.438 L1245.36,436.338 L1221.91,436.338 L1221.91,439.438 M1261.56,443.637 L1261.56,440.438 L1254.91,440.438 L1254.91,426.788 L1251.11,426.788 L1251.11,458.538 L1254.91,458.538 L1254.91,443.637 L1261.56,443.637 M1256.61,469.088 L1256.61,465.887 L1231.36,465.887 L1231.36,456.438 L1227.56,456.438 L1227.56,469.088 L1256.61,469.088 M1227.61,432.088 L1239.81,432.088 L1239.81,428.838 L1227.61,428.838 L1227.61,432.088 "/>
<path class="Lyrics" d="M1256.08,502.122 L1256.08,499.022 L1230.03,499.022 L1230.03,491.722 L1255.98,491.722 L1255.98,488.572 L1226.23,488.572 L1226.23,502.122 L1239.18,502.122 L1239.18,506.272 L1221.38,506.272 L1221.38,509.372 L1260.83,509.372 L1260.83,506.272 L1242.98,506.272 L1242.98,502.122 L1256.08,502.122 M1257.53,529.672 L1257.53,526.522 L1229.78,526.522 L1229.78,522.622 L1255.88,522.622 L1255.88,512.822 L1225.93,512.822 L1225.93,515.972 L1252.08,515.972 L1252.08,519.772 L1225.98,519.772 L1225.98,529.672 L1257.53,529.672 "/>
<path class="Lyrics" d="M1258.35,590.456 L1258.35,546.756 L1254.55,546.756 L1254.55,590.456 L1258.35,590.456 M1223.85,565.456 C1223.85,574.756 1227.95,580.956 1235.1,580.956 C1242.35,580.956 1246.4,574.756 1246.4,565.506 C1246.4,556.256 1242.35,550.056 1235.1,550.056 C1227.95,550.056 1223.85,556.256 1223.85,565.456 M1242.8,565.506 C1242.8,572.656 1239.75,577.656 1235.1,577.656 C1230.5,577.656 1227.45,572.656 1227.45,565.506 C1227.45,558.306 1230.5,553.356 1235.1,553.356 C1239.75,553.356 1242.8,558.306 1242.8,565.506"/>
<path class="Lyrics" d="M1258.41,631.691 L1258.41,606.741 L1254.61,606.741 L1254.61,631.691 L1258.41,631.691 M1258.46,649.841 L1258.46,633.991 L1230.16,633.991 L1230.16,649.841 L1258.46,649.841 M1254.66,646.691 L1233.96,646.691 L1233.96,637.141 L1254.66,637.141 L1254.66,646.691 M1235.11,609.191 C1228.91,609.191 1223.76,613.391 1223.76,619.741 C1223.76,626.091 1228.91,630.091 1235.11,630.091 C1241.31,630.091 1246.41,626.091 1246.41,619.691 C1246.41,613.391 1241.31,609.191 1235.11,609.191 M1235.11,612.291 C1239.71,612.291 1242.76,615.391 1242.76,619.741 C1242.76,624.041 1239.66,626.991 1235.11,626.991 C1230.71,626.991 1227.46,624.041 1227.46,619.691 C1227.46,615.391 1230.71,612.291 1235.11,612.291"/>
<path class="Lyrics" d="M618.998,470.488 L618.998,426.788 L615.198,426.788 L615.198,470.488 L618.998,470.488 M603.098,432.887 L603.098,429.688 L590.348,429.688 L590.348,432.887 L603.098,432.887 M609.848,440.438 L609.848,437.288 L583.898,437.288 L583.898,440.438 L609.848,440.438 M607.248,452.288 C607.248,447.137 603.148,443.238 597.048,443.238 C590.948,443.238 586.848,447.188 586.848,452.288 C586.848,457.387 590.948,461.288 597.048,461.288 C603.148,461.288 607.248,457.338 607.248,452.288 M603.448,452.288 C603.448,455.738 600.848,458.188 597.048,458.188 C593.298,458.188 590.598,455.738 590.598,452.288 C590.598,448.788 593.298,446.387 597.048,446.387 C600.748,446.387 603.448,448.788 603.448,452.288"/>
<path class="Lyrics" d="M464.841,616.891 C464.841,611.941 459.991,608.791 453.241,608.791 C446.491,608.791 441.541,611.941 441.541,616.841 C441.541,621.941 446.491,624.891 453.241,624.891 C459.991,624.891 464.841,621.891 464.841,616.891 M475.291,640.341 L475.291,606.741 L471.491,606.741 L471.491,632.591 L462.291,632.591 L462.291,635.591 L471.491,635.591 L471.491,640.341 L475.291,640.341 M476.191,649.391 L476.191,646.191 L448.741,646.191 L448.741,636.741 L444.941,636.741 L444.941,649.391 L476.191,649.391 M461.091,616.891 C461.091,619.841 457.941,621.791 453.241,621.791 C448.541,621.791 445.341,619.841 445.341,616.891 C445.341,613.891 448.541,611.941 453.241,611.941 C457.941,611.941 461.091,613.941 461.091,616.891 M455.441,638.591 L455.441,630.391 C460.041,630.091 464.891,629.791 467.641,629.391 L467.341,626.441 C463.091,626.891 458.341,627.341 453.491,627.541 C448.741,627.691 443.391,627.741 438.891,627.691 L439.491,630.941 C443.141,630.941 447.491,630.791 451.641,630.641 L451.641,638.591 L455.441,638.591 "/>
<path class="Lyrics" d="M1401.63,470.488 L1401.63,426.788 L1397.83,426.788 L1397.83,470.488 L1401.63,470.488 M1389.08,459.238 L1389.08,431.288 L1368.43,431.288 L1368.43,459.238 L1389.08,459.238 M1385.28,456.088 L1372.28,456.088 L1372.28,434.438 L1385.28,434.438 L1385.28,456.088 "/>
<path class="Lyrics" d="M1399.96,512.922 L1399.96,489.772 L1396.16,489.772 L1396.16,497.822 L1373.91,497.822 L1373.91,489.772 L1370.06,489.772 L1370.06,512.922 L1383.06,512.922 L1383.06,521.822 L1365.31,521.822 L1365.31,525.022 L1404.76,525.022 L1404.76,521.822 L1386.86,521.822 L1386.86,512.922 L1399.96,512.922 M1396.16,509.772 L1373.91,509.772 L1373.91,500.972 L1396.16,500.972 L1396.16,509.772 "/>
<path class="Lyrics" d="M1404.76,584.006 L1404.76,580.806 L1365.31,580.806 L1365.31,584.006 L1404.76,584.006 M1382.61,551.756 L1368.36,551.756 L1368.36,554.906 L1378.66,554.906 C1378.66,560.656 1377.11,571.706 1375.91,575.556 L1379.71,576.306 C1381.11,571.056 1382.61,559.556 1382.61,551.756 M1400.16,551.756 L1385.96,551.756 L1385.96,554.906 L1396.31,554.906 C1396.31,562.606 1395.46,571.606 1394.36,575.656 L1398.11,576.306 C1399.46,570.806 1400.16,559.956 1400.16,551.756"/>
<path class="Lyrics" d="M1405.49,628.391 L1405.49,625.191 L1398.39,625.191 L1398.39,606.741 L1394.59,606.741 L1394.59,650.441 L1398.39,650.441 L1398.39,628.391 L1405.49,628.391 M1383.94,612.991 L1383.94,609.741 L1371.09,609.741 L1371.09,612.991 L1383.94,612.991 M1390.39,620.391 L1390.39,617.241 L1364.59,617.241 L1364.59,620.391 L1390.39,620.391 M1387.79,632.241 C1387.79,627.091 1383.69,623.191 1377.59,623.191 C1371.49,623.191 1367.39,627.141 1367.39,632.241 C1367.39,637.341 1371.49,641.241 1377.59,641.241 C1383.69,641.241 1387.79,637.291 1387.79,632.241 M1383.99,632.241 C1383.99,635.641 1381.34,638.091 1377.59,638.091 C1373.94,638.091 1371.19,635.641 1371.19,632.241 C1371.19,628.791 1373.94,626.391 1377.59,626.391 C1381.29,626.391 1383.99,628.791 1383.99,632.241"/>
<path class="Lyrics" d="M464.841,556.906 C464.841,551.956 459.991,548.806 453.241,548.806 C446.491,548.806 441.541,551.956 441.541,556.856 C441.541,561.956 446.491,564.906 453.241,564.906 C459.991,564.906 464.841,561.906 464.841,556.906 M475.291,580.356 L475.291,546.756 L471.491,546.756 L471.491,572.606 L462.291,572.606 L462.291,575.606 L471.491,575.606 L471.491,580.356 L475.291,580.356 M476.191,589.406 L476.191,586.206 L448.741,586.206 L448.741,576.756 L444.941,576.756 L444.941,589.406 L476.191,589.406 M461.091,556.906 C461.091,559.856 457.941,561.806 453.241,561.806 C448.541,561.806 445.341,559.856 445.341,556.906 C445.341,553.906 448.541,551.956 453.241,551.956 C457.941,551.956 461.091,553.956 461.091,556.906 M455.441,578.606 L455.441,570.406 C460.041,570.106 464.891,569.806 467.641,569.406 L467.341,566.456 C463.091,566.906 458.341,567.356 453.491,567.556 C448.741,567.706 443.391,567.756 438.891,567.706 L439.491,570.956 C443.141,570.956 447.491,570.806 451.641,570.656 L451.641,578.606 L455.441,578.606 "/>
<path class="Lyrics" d="M464.841,496.922 C464.841,491.972 459.991,488.822 453.241,488.822 C446.491,488.822 441.541,491.972 441.541,496.872 C441.541,501.972 446.491,504.922 453.241,504.922 C459.991,504.922 464.841,501.922 464.841,496.922 M475.291,520.372 L475.291,486.772 L471.491,486.772 L471.491,512.622 L462.291,512.622 L462.291,515.622 L471.491,515.622 L471.491,520.372 L475.291,520.372 M476.191,529.422 L476.191,526.222 L448.741,526.222 L448.741,516.772 L444.941,516.772 L444.941,529.422 L476.191,529.422 M461.091,496.922 C461.091,499.872 457.941,501.822 453.241,501.822 C448.541,501.822 445.341,499.872 445.341,496.922 C445.341,493.922 448.541,491.972 453.241,491.972 C457.941,491.972 461.091,493.972 461.091,496.922 M455.441,518.622 L455.441,510.422 C460.041,510.122 464.891,509.822 467.641,509.422 L467.341,506.472 C463.091,506.922 458.341,507.372 453.491,507.572 C448.741,507.722 443.391,507.772 438.891,507.722 L439.491,510.972 C443.141,510.972 447.491,510.822 451.641,510.672 L451.641,518.622 L455.441,518.622 "/>
<path class="Lyrics" d="M1549.41,448.438 L1549.41,445.238 L1542.31,445.238 L1542.31,426.788 L1538.51,426.788 L1538.51,470.488 L1542.31,470.488 L1542.31,448.438 L1549.41,448.438 M1527.86,433.038 L1527.86,429.788 L1515.01,429.788 L1515.01,433.038 L1527.86,433.038 M1534.31,440.438 L1534.31,437.288 L1508.51,437.288 L1508.51,440.438 L1534.31,440.438 M1531.71,452.288 C1531.71,447.137 1527.61,443.238 1521.51,443.238 C1515.41,443.238 1511.31,447.188 1511.31,452.288 C1511.31,457.387 1515.41,461.288 1521.51,461.288 C1527.61,461.288 1531.71,457.338 1531.71,452.288 M1527.91,452.288 C1527.91,455.688 1525.26,458.137 1521.51,458.137 C1517.86,458.137 1515.11,455.688 1515.11,452.288 C1515.11,448.838 1517.86,446.438 1521.51,446.438 C1525.21,446.438 1527.91,448.838 1527.91,452.288"/>
<path class="Lyrics" d="M1547.13,508.372 C1539.93,506.972 1530.93,500.672 1530.93,493.172 L1530.93,490.022 L1526.98,490.022 L1526.98,493.172 C1526.98,500.672 1518.48,506.922 1510.83,508.372 L1512.83,511.422 C1520.48,509.322 1527.23,503.922 1528.88,498.922 C1530.78,503.822 1537.38,509.272 1545.03,511.422 L1547.13,508.372 M1548.68,524.922 L1548.68,521.722 L1530.78,521.722 L1530.78,510.522 L1526.98,510.522 L1526.98,521.722 L1509.23,521.722 L1509.23,524.922 L1548.68,524.922 "/>
<path class="Lyrics" d="M1547.13,568.356 C1539.93,566.956 1530.93,560.656 1530.93,553.156 L1530.93,550.006 L1526.98,550.006 L1526.98,553.156 C1526.98,560.656 1518.48,566.906 1510.83,568.356 L1512.83,571.406 C1520.48,569.306 1527.23,563.906 1528.88,558.906 C1530.78,563.806 1537.38,569.256 1545.03,571.406 L1547.13,568.356 M1548.68,584.906 L1548.68,581.706 L1530.78,581.706 L1530.78,570.506 L1526.98,570.506 L1526.98,581.706 L1509.23,581.706 L1509.23,584.906 L1548.68,584.906 "/>
<path class="Lyrics" d="M1547.13,628.341 C1539.93,626.941 1530.93,620.641 1530.93,613.141 L1530.93,609.991 L1526.98,609.991 L1526.98,613.141 C1526.98,620.641 1518.48,626.891 1510.83,628.341 L1512.83,631.391 C1520.48,629.291 1527.23,623.891 1528.88,618.891 C1530.78,623.791 1537.38,629.241 1545.03,631.391 L1547.13,628.341 M1548.68,644.891 L1548.68,641.691 L1530.78,641.691 L1530.78,630.491 L1526.98,630.491 L1526.98,641.691 L1509.23,641.691 L1509.23,644.891 L1548.68,644.891 "/>
<path class="Lyrics" d="M464.841,436.938 C464.841,431.988 459.991,428.838 453.241,428.838 C446.491,428.838 441.541,431.988 441.541,436.887 C441.541,441.988 446.491,444.938 453.241,444.938 C459.991,444.938 464.841,441.938 464.841,436.938 M475.291,460.387 L475.291,426.788 L471.491,426.788 L471.491,452.637 L462.291,452.637 L462.291,455.637 L471.491,455.637 L471.491,460.387 L475.291,460.387 M476.191,469.438 L476.191,466.238 L448.741,466.238 L448.741,456.788 L444.941,456.788 L444.941,469.438 L476.191,469.438 M461.091,436.938 C461.091,439.887 457.941,441.838 453.241,441.838 C448.541,441.838 445.341,439.887 445.341,436.938 C445.341,433.938 448.541,431.988 453.241,431.988 C457.941,431.988 461.091,433.988 461.091,436.938 M455.441,458.637 L455.441,450.438 C460.041,450.137 464.891,449.838 467.641,449.438 L467.341,446.488 C463.091,446.938 458.341,447.387 453.491,447.588 C448.741,447.738 443.391,447.788 438.891,447.738 L439.491,450.988 C443.141,450.988 447.491,450.838 451.641,450.688 L451.641,458.637 L455.441,458.637 "/>
<path class="Lyrics" d="M331.312,642.241 C331.312,637.041 325.962,633.891 316.412,633.891 C306.912,633.891 301.562,637.041 301.562,642.241 C301.562,647.291 306.912,650.541 316.412,650.541 C325.962,650.541 331.312,647.291 331.312,642.241 M319.512,626.641 L327.462,626.641 L327.462,633.791 L331.262,633.791 L331.262,606.741 L327.462,606.741 L327.462,612.541 L319.512,612.541 L319.512,615.791 L327.462,615.791 L327.462,623.391 L319.512,623.391 L319.512,626.641 M327.412,642.241 C327.412,645.441 323.362,647.291 316.412,647.291 C309.612,647.291 305.512,645.441 305.512,642.241 C305.512,638.991 309.612,637.091 316.412,637.091 C323.362,637.091 327.412,638.991 327.412,642.241 M307.162,609.391 C301.012,609.391 295.912,613.591 295.912,619.891 C295.912,626.241 301.062,630.241 307.162,630.241 C313.312,630.241 318.362,626.241 318.362,619.841 C318.362,613.491 313.312,609.391 307.162,609.391 M307.162,612.641 C311.662,612.641 314.562,615.541 314.562,619.891 C314.562,624.291 311.612,627.141 307.162,627.141 C302.862,627.141 299.712,624.291 299.712,619.841 C299.712,615.491 302.862,612.641 307.162,612.641"/>
<path class="Lyrics" d="M331.312,582.256 C331.312,577.056 325.962,573.906 316.412,573.906 C306.912,573.906 301.562,577.056 301.562,582.256 C301.562,587.306 306.912,590.556 316.412,590.556 C325.962,590.556 331.312,587.306 331.312,582.256 M319.512,566.656 L327.462,566.656 L327.462,573.806 L331.262,573.806 L331.262,546.756 L327.462,546.756 L327.462,552.556 L319.512,552.556 L319.512,555.806 L327.462,555.806 L327.462,563.406 L319.512,563.406 L319.512,566.656 M327.412,582.256 C327.412,585.456 323.362,587.306 316.412,587.306 C309.612,587.306 305.512,585.456 305.512,582.256 C305.512,579.006 309.612,577.106 316.412,577.106 C323.362,577.106 327.412,579.006 327.412,582.256 M307.162,549.406 C301.012,549.406 295.912,553.606 295.912,559.906 C295.912,566.256 301.062,570.256 307.162,570.256 C313.312,570.256 318.362,566.256 318.362,559.856 C318.362,553.506 313.312,549.406 307.162,549.406 M307.162,552.656 C311.662,552.656 314.562,555.556 314.562,559.906 C314.562,564.306 311.612,567.156 307.162,567.156 C302.862,567.156 299.712,564.306 299.712,559.856 C299.712,555.506 302.862,552.656 307.162,552.656"/>
<path class="Lyrics" d="M331.312,522.272 C331.312,517.072 325.962,513.922 316.412,513.922 C306.912,513.922 301.562,517.072 301.562,522.272 C301.562,527.322 306.912,530.572 316.412,530.572 C325.962,530.572 331.312,527.322 331.312,522.272 M319.512,506.672 L327.462,506.672 L327.462,513.822 L331.262,513.822 L331.262,486.772 L327.462,486.772 L327.462,492.572 L319.512,492.572 L319.512,495.822 L327.462,495.822 L327.462,503.422 L319.512,503.422 L319.512,506.672 M327.412,522.272 C327.412,525.472 323.362,527.322 316.412,527.322 C309.612,527.322 305.512,525.472 305.512,522.272 C305.512,519.022 309.612,517.122 316.412,517.122 C323.362,517.122 327.412,519.022 327.412,522.272 M307.162,489.422 C301.012,489.422 295.912,493.622 295.912,499.922 C295.912,506.272 301.062,510.272 307.162,510.272 C313.312,510.272 318.362,506.272 318.362,499.872 C318.362,493.522 313.312,489.422 307.162,489.422 M307.162,492.672 C311.662,492.672 314.562,495.572 314.562,499.922 C314.562,504.322 311.612,507.172 307.162,507.172 C302.862,507.172 299.712,504.322 299.712,499.872 C299.712,495.522 302.862,492.672 307.162,492.672"/>
<path class="Lyrics" d="M1727.69,650.441 L1727.69,606.741 L1723.89,606.741 L1723.89,622.341 L1713.69,622.341 L1713.69,625.541 L1723.89,625.541 L1723.89,650.441 L1727.69,650.441 M1717.99,637.091 C1711.99,633.591 1706.79,626.491 1706.79,618.491 L1706.79,610.541 L1702.84,610.541 L1702.84,618.641 C1702.84,626.391 1697.79,634.141 1691.44,638.141 L1693.94,640.991 C1698.99,637.341 1703.29,631.941 1704.84,626.491 C1706.59,631.741 1711.64,637.291 1715.64,639.991 L1717.99,637.091 "/>
<path class="Lyrics" d="M1728.56,470.488 L1728.56,426.788 L1724.81,426.788 L1724.81,470.488 L1728.56,470.488 M1719.91,468.288 L1719.91,427.837 L1716.21,427.837 L1716.21,442.538 L1708.46,442.538 L1708.46,445.738 L1716.21,445.738 L1716.21,468.288 L1719.91,468.288 M1713.56,456.688 C1708.81,453.538 1703.71,447.188 1703.71,438.688 L1703.71,430.838 L1699.96,430.838 L1699.96,438.788 C1699.96,447.338 1695.56,454.788 1690.61,457.938 L1692.96,460.788 C1697.31,457.637 1700.91,451.938 1701.86,446.938 C1703.26,451.887 1707.86,457.088 1711.21,459.488 L1713.56,456.688 "/>
<path class="Lyrics" d="M1727.69,530.472 L1727.69,486.772 L1723.89,486.772 L1723.89,502.372 L1713.69,502.372 L1713.69,505.572 L1723.89,505.572 L1723.89,530.472 L1727.69,530.472 M1717.99,517.122 C1711.99,513.622 1706.79,506.522 1706.79,498.522 L1706.79,490.572 L1702.84,490.572 L1702.84,498.672 C1702.84,506.422 1697.79,514.172 1691.44,518.172 L1693.94,521.022 C1698.99,517.372 1703.29,511.972 1704.84,506.522 C1706.59,511.772 1711.64,517.322 1715.64,520.022 L1717.99,517.122 "/>
<path class="Lyrics" d="M1727.69,590.456 L1727.69,546.756 L1723.89,546.756 L1723.89,562.356 L1713.69,562.356 L1713.69,565.556 L1723.89,565.556 L1723.89,590.456 L1727.69,590.456 M1717.99,577.106 C1711.99,573.606 1706.79,566.506 1706.79,558.506 L1706.79,550.556 L1702.84,550.556 L1702.84,558.656 C1702.84,566.406 1697.79,574.156 1691.44,578.156 L1693.94,581.006 C1698.99,577.356 1703.29,571.956 1704.84,566.506 C1706.59,571.756 1711.64,577.306 1715.64,580.006 L1717.99,577.106 "/>
<path class="NoteDot" transform="matrix(0.992,0,0,0.992,1738.08,340)" d="M0,0 C0,2.8 2.2,5 5,5 C7.8,5 10,2.8 10,0 C10,-2.8 7.8,-5 5,-5 C2.2,-5 0,-2.8 0,0"/>
<path class="NoteDot" transform="matrix(0.992,0,0,0.992,810.588,290.4)" d="M0,0 C0,2.8 2.2,5 5,5 C7.8,5 10,2.8 10,0 C10,-2.8 7.8,-5 5,-5 C2.2,-5 0,-2.8 0,0"/>
</svg>
