<?xml version="1.0" encoding="UTF-8" standalone="no"?>
<svg width="2098.8px" height="1418.4px" viewBox="0 0 2098.8 1418.4"
 xmlns="http://www.w3.org/2000/svg" xmlns:xlink="http://www.w3.org/1999/xlink" version="1.2" baseProfile="tiny">
<title>156한말씀만하소서.musicxml (1)</title>
<desc>Generated by MuseScore 4.2.1</desc>
<polyline class="StaffLines" fill="none" stroke="#000000" stroke-width="2.73" stroke-linejoin="bevel" points="228.4,415.662 1994.4,415.662"/>
<polyline class="StaffLines" fill="none" stroke="#000000" stroke-width="2.73" stroke-linejoin="bevel" points="228.4,440.462 1994.4,440.462"/>
<polyline class="StaffLines" fill="none" stroke="#000000" stroke-width="2.73" stroke-linejoin="bevel" points="228.4,465.262 1994.4,465.262"/>
<polyline class="StaffLines" fill="none" stroke="#000000" stroke-width="2.73" stroke-linejoin="bevel" points="228.4,490.062 1994.4,490.062"/>
<polyline class="StaffLines" fill="none" stroke="#000000" stroke-width="2.73" stroke-linejoin="bevel" points="228.4,514.862 1994.4,514.862"/>
<polyline class="StaffLines" fill="none" stroke="#000000" stroke-width="2.73" stroke-linejoin="bevel" points="104.4,855.435 1994.4,855.435"/>
<polyline class="StaffLines" fill="none" stroke="#000000" stroke-width="2.73" stroke-linejoin="bevel" points="104.4,880.235 1994.4,880.235"/>
<polyline class="StaffLines" fill="none" stroke="#000000" stroke-width="2.73" stroke-linejoin="bevel" points="104.4,905.035 1994.4,905.035"/>
<polyline class="StaffLines" fill="none" stroke="#000000" stroke-width="2.73" stroke-linejoin="bevel" points="104.4,929.835 1994.4,929.835"/>
<polyline class="StaffLines" fill="none" stroke="#000000" stroke-width="2.73" stroke-linejoin="bevel" points="104.4,954.635 1994.4,954.635"/>
<path class="MeasureNumber" d="M108.724,790.515 C107.484,791.275 107.124,791.755 107.124,792.555 C107.124,793.315 107.764,793.875 108.564,793.875 C109.604,793.875 110.204,793.115 110.324,791.635 C111.564,790.635 112.884,790.195 114.484,790.195 C117.444,790.195 119.084,792.035 119.084,795.355 C119.084,800.555 115.724,804.795 111.604,804.795 C109.244,804.795 107.324,803.675 107.324,802.355 C107.324,802.115 107.364,802.035 107.564,801.915 C108.844,801.315 109.884,800.875 109.884,799.195 C109.884,797.915 108.884,796.955 107.484,796.955 C105.724,796.955 104.404,798.435 104.404,800.355 C104.404,803.875 107.444,806.435 111.724,806.435 C118.204,806.435 123.444,801.275 123.444,794.875 C123.444,790.835 120.364,787.995 116.004,787.995 C114.284,787.995 112.884,788.355 110.964,789.315 L113.204,781.755 C115.324,782.195 117.004,782.395 118.444,782.395 C121.084,782.395 123.444,781.555 124.764,780.155 C125.444,779.355 125.844,778.675 125.844,778.155 C125.844,777.915 125.724,777.675 125.564,777.675 C125.444,777.675 125.364,777.715 125.124,777.835 C123.804,778.475 122.124,778.835 120.564,778.835 C118.164,778.835 115.324,778.435 112.364,777.675 L108.724,790.515 "/>
<path class="TieSegment" stroke="#000000" stroke-width="1.24" stroke-linecap="round" stroke-linejoin="round" fill-rule="evenodd" d="M838.568,508.162 C866.3,527.575 949.495,527.575 977.226,508.162 C949.495,535.511 866.3,535.511 838.568,508.162"/>
<path class="TieSegment" stroke="#000000" stroke-width="1.24" stroke-linecap="round" stroke-linejoin="round" fill-rule="evenodd" d="M632.03,947.935 C653.989,965.18 719.864,965.18 741.822,947.935 C719.864,973.116 653.989,973.116 632.03,947.935"/>
<polyline class="BarLine" fill="none" stroke="#000000" stroke-width="4.46" stroke-linejoin="bevel" points="1992.17,854.071 1992.17,955.999"/>
<polyline class="BarLine" fill="none" stroke="#000000" stroke-width="4.46" stroke-linejoin="bevel" points="1992.17,414.298 1992.17,516.226"/>
<polyline class="BarLine" fill="none" stroke="#000000" stroke-width="4.46" stroke-linejoin="bevel" points="579.851,854.071 579.851,955.999"/>
<polyline class="BarLine" fill="none" stroke="#000000" stroke-width="4.46" stroke-linejoin="bevel" points="1623.02,414.298 1623.02,516.226"/>
<polyline class="BarLine" fill="none" stroke="#000000" stroke-width="4.46" stroke-linejoin="bevel" points="905.049,854.071 905.049,955.999"/>
<polyline class="BarLine" fill="none" stroke="#000000" stroke-width="4.46" stroke-linejoin="bevel" points="1163.22,414.298 1163.22,516.226"/>
<polyline class="BarLine" fill="none" stroke="#000000" stroke-width="4.46" stroke-linejoin="bevel" points="1384.81,854.071 1384.81,955.999"/>
<polyline class="BarLine" fill="none" stroke="#000000" stroke-width="4.46" stroke-linejoin="bevel" points="786.389,414.298 786.389,516.226"/>
<polyline class="BarLine" fill="none" stroke="#000000" stroke-width="4.46" stroke-linejoin="bevel" points="1593.64,854.071 1593.64,955.999"/>
<path class="Accidental" transform="matrix(0.992,0,0,0.992,1507.17,502.462)" d="M23.3,-10.5 C23.9,-10.6 24.4,-11.3 24.4,-11.9 L24.4,-17.8 C24.4,-18.8 23.7,-19.2 22.8,-19.2 L19.5,-18.5 L19.5,-33.4 L16.7,-33.4 L16.7,-17.9 L7.8,-16.1 L7.8,-30.2 L5,-30.2 L5,-15.5 L1.1,-14.7 C0.5,-14.6 0,-13.9 0,-13.3 L0,-7.5 C0,-6.4 0.8,-6.1 1.7,-6.1 L5,-6.8 L5,9.7 L1.1,10.5 C0.5,10.6 0,11.3 0,11.9 L0,17.7 C0,18.8 0.8,19.1 1.7,19.1 L5,18.4 L5,33.3 L7.8,33.3 L7.8,17.8 L16.7,16 L16.7,30.1 L19.5,30.1 L19.5,15.4 L23.3,14.7 C23.9,14.6 24.4,13.9 24.4,13.3 L24.4,7.4 C24.4,6.4 23.7,6 22.8,6 L19.5,6.7 L19.5,-9.8 L23.3,-10.5 M7.8,-7.4 L16.7,-9.2 L16.7,7.3 L7.8,9.2 L7.8,-7.4 "/>
<path class="Accidental" transform="matrix(0.992,0,0,0.992,1268.96,942.235)" d="M23.3,-10.5 C23.9,-10.6 24.4,-11.3 24.4,-11.9 L24.4,-17.8 C24.4,-18.8 23.7,-19.2 22.8,-19.2 L19.5,-18.5 L19.5,-33.4 L16.7,-33.4 L16.7,-17.9 L7.8,-16.1 L7.8,-30.2 L5,-30.2 L5,-15.5 L1.1,-14.7 C0.5,-14.6 0,-13.9 0,-13.3 L0,-7.5 C0,-6.4 0.8,-6.1 1.7,-6.1 L5,-6.8 L5,9.7 L1.1,10.5 C0.5,10.6 0,11.3 0,11.9 L0,17.7 C0,18.8 0.8,19.1 1.7,19.1 L5,18.4 L5,33.3 L7.8,33.3 L7.8,17.8 L16.7,16 L16.7,30.1 L19.5,30.1 L19.5,15.4 L23.3,14.7 C23.9,14.6 24.4,13.9 24.4,13.3 L24.4,7.4 C24.4,6.4 23.7,6 22.8,6 L19.5,6.7 L19.5,-9.8 L23.3,-10.5 M7.8,-7.4 L16.7,-9.2 L16.7,7.3 L7.8,9.2 L7.8,-7.4 "/>
<path class="Accidental" transform="matrix(0.992,0,0,0.992,1611.99,942.235)" d="M16.6,-18.3 C16.4,-18.5 16.1,-18.6 15.7,-18.6 L15.5,-18.5 C15.5,-18.5 15.4,-18.5 15.4,-18.5 L2.8,-15 L2.8,-32.5 L0,-32.5 L0,17 C0,18.1 0.9,18.3 1.8,18.3 L14.4,14.8 L14.4,32.3 L17.1,32.3 C17.1,15.7 17.1,-0.1 17.1,-17.2 C17.1,-17.6 16.9,-18.1 16.6,-18.3 M2.8,9.7 L2.8,-6.7 L14.4,-10 L14.4,6.5 L2.8,9.7 "/>
<polyline class="Stem" fill="none" stroke="#000000" stroke-width="2.48" stroke-linejoin="bevel" points="731.93,498.494 731.93,415.86"/>
<polyline class="Stem" fill="none" stroke="#000000" stroke-width="2.48" stroke-linejoin="bevel" points="394.225,938.267 394.225,855.633"/>
<polyline class="Stem" fill="none" stroke="#000000" stroke-width="2.48" stroke-linejoin="bevel" points="1666.14,938.267 1666.14,855.435"/>
<polyline class="Stem" fill="none" stroke="#000000" stroke-width="2.48" stroke-linejoin="bevel" points="279.473,950.667 279.473,867.835"/>
<polyline class="Stem" fill="none" stroke="#000000" stroke-width="2.48" stroke-linejoin="bevel" points="1450.27,925.867 1450.27,843.035"/>
<polyline class="Stem" fill="none" stroke="#000000" stroke-width="2.48" stroke-linejoin="bevel" points="437.255,510.894 437.255,428.062"/>
<polyline class="Stem" fill="none" stroke="#000000" stroke-width="2.48" stroke-linejoin="bevel" points="454.572,950.667 454.572,868.033"/>
<polyline class="Stem" fill="none" stroke="#000000" stroke-width="2.48" stroke-linejoin="bevel" points="851.853,486.094 851.853,403.262"/>
<polyline class="Stem" fill="none" stroke="#000000" stroke-width="2.48" stroke-linejoin="bevel" points="1832.11,510.894 1832.11,428.062"/>
<polyline class="Stem" fill="none" stroke="#000000" stroke-width="2.48" stroke-linejoin="bevel" points="656.401,510.894 656.401,428.26"/>
<polyline class="Stem" fill="none" stroke="#000000" stroke-width="2.48" stroke-linejoin="bevel" points="1756.66,950.667 1756.66,868.033"/>
<polyline class="Stem" fill="none" stroke="#000000" stroke-width="2.48" stroke-linejoin="bevel" points="525.392,938.267 525.392,855.633"/>
<polyline class="Stem" fill="none" stroke="#000000" stroke-width="2.48" stroke-linejoin="bevel" points="1688.49,486.094 1688.49,403.262"/>
<polyline class="Stem" fill="none" stroke="#000000" stroke-width="2.48" stroke-linejoin="bevel" points="995.471,486.094 995.471,403.262"/>
<polyline class="Stem" fill="none" stroke="#000000" stroke-width="2.48" stroke-linejoin="bevel" points="1937.71,925.867 1937.71,843.233"/>
<polyline class="Stem" fill="none" stroke="#000000" stroke-width="2.48" stroke-linejoin="bevel" points="1330.35,938.267 1330.35,855.633"/>
<polyline class="Stem" fill="none" stroke="#000000" stroke-width="2.48" stroke-linejoin="bevel" points="1108.76,486.094 1108.76,403.46"/>
<polyline class="Stem" fill="none" stroke="#000000" stroke-width="2.48" stroke-linejoin="bevel" points="1877.36,913.467 1877.36,849.357"/>
<polyline class="Stem" fill="none" stroke="#000000" stroke-width="2.48" stroke-linejoin="bevel" points="645.315,925.867 645.315,843.035"/>
<polyline class="Stem" fill="none" stroke="#000000" stroke-width="2.48" stroke-linejoin="bevel" points="1232.85,925.867 1232.85,843.233"/>
<polyline class="Stem" fill="none" stroke="#000000" stroke-width="2.48" stroke-linejoin="bevel" points="1568.57,498.494 1568.57,415.86"/>
<polyline class="Stem" fill="none" stroke="#000000" stroke-width="2.48" stroke-linejoin="bevel" points="1817.01,963.067 1817.01,855.312"/>
<polyline class="Stem" fill="none" stroke="#000000" stroke-width="2.48" stroke-linejoin="bevel" points="760.068,925.867 760.068,843.035"/>
<polyline class="Stem" fill="none" stroke="#000000" stroke-width="2.48" stroke-linejoin="bevel" points="1228.69,473.694 1228.69,397.062"/>
<polyline class="Stem" fill="none" stroke="#000000" stroke-width="2.48" stroke-linejoin="bevel" points="850.589,925.867 850.589,843.233"/>
<polyline class="Stem" fill="none" stroke="#000000" stroke-width="2.48" stroke-linejoin="bevel" points="1162.03,913.467 1162.03,837.033"/>
<polyline class="Stem" fill="none" stroke="#000000" stroke-width="2.48" stroke-linejoin="bevel" points="1493.04,486.094 1493.04,415.563"/>
<polyline class="Stem" fill="none" stroke="#000000" stroke-width="2.48" stroke-linejoin="bevel" points="1091.21,913.467 1091.21,837.033"/>
<polyline class="Stem" fill="none" stroke="#000000" stroke-width="2.48" stroke-linejoin="bevel" points="580.873,498.494 580.873,415.86"/>
<polyline class="Stem" fill="none" stroke="#000000" stroke-width="2.48" stroke-linejoin="bevel" points="1341.98,473.694 1341.98,397.26"/>
<polyline class="Stem" fill="none" stroke="#000000" stroke-width="2.48" stroke-linejoin="bevel" points="940.761,896.801 940.761,967.157"/>
<polyline class="Stem" fill="none" stroke="#000000" stroke-width="2.48" stroke-linejoin="bevel" points="1001.11,909.201 1001.11,973.112"/>
<polyline class="Stem" fill="none" stroke="#000000" stroke-width="2.48" stroke-linejoin="bevel" points="1417.51,473.694 1417.51,409.56"/>
<path class="Note" transform="matrix(0.992,0,0,0.992,939.521,892.635)" d="M0,4.2 C0,8.5 3.1,13.3 11.2,13.3 C21.6,13.3 32.5,4.8 32.5,-4 C32.5,-9.9 27.5,-13.2 21.3,-13.2 C11.6,-13.2 0,-5 0,4.2"/>
<path class="Note" transform="matrix(0.992,0,0,0.992,1299.36,942.235)" d="M0,4.2 C0,8.5 3.1,13.3 11.2,13.3 C21.6,13.3 32.5,4.8 32.5,-4 C32.5,-9.9 27.5,-13.2 21.3,-13.2 C11.6,-13.2 0,-5 0,4.2"/>
<path class="Note" transform="matrix(0.992,0,0,0.992,1386.52,477.662)" d="M0,4.2 C0,8.5 3.1,13.3 11.2,13.3 C21.6,13.3 32.5,4.8 32.5,-4 C32.5,-9.9 27.5,-13.2 21.3,-13.2 C11.6,-13.2 0,-5 0,4.2"/>
<path class="Note" transform="matrix(0.992,0,0,0.992,248.48,954.635)" d="M0,4.2 C0,8.5 3.1,13.3 11.2,13.3 C21.6,13.3 32.5,4.8 32.5,-4 C32.5,-9.9 27.5,-13.2 21.3,-13.2 C11.6,-13.2 0,-5 0,4.2"/>
<path class="Note" transform="matrix(0.992,0,0,0.992,1310.99,477.662)" d="M0,4.2 C0,8.5 3.1,13.3 11.2,13.3 C21.6,13.3 32.5,4.8 32.5,-4 C32.5,-9.9 27.5,-13.2 21.3,-13.2 C11.6,-13.2 0,-5 0,4.2"/>
<path class="Note" transform="matrix(0.992,0,0,0.992,700.937,502.462)" d="M0,4.2 C0,8.5 3.1,13.3 11.2,13.3 C21.6,13.3 32.5,4.8 32.5,-4 C32.5,-9.9 27.5,-13.2 21.3,-13.2 C11.6,-13.2 0,-5 0,4.2"/>
<path class="Note" transform="matrix(0.992,0,0,0.992,999.869,905.035)" d="M0,4.2 C0,8.5 3.1,13.3 11.2,13.3 C21.6,13.3 32.5,4.8 32.5,-4 C32.5,-9.9 27.5,-13.2 21.3,-13.2 C11.6,-13.2 0,-5 0,4.2"/>
<path class="Note" transform="matrix(0.992,0,0,0.992,1060.22,917.435)" d="M0,4.2 C0,8.5 3.1,13.3 11.2,13.3 C21.6,13.3 32.5,4.8 32.5,-4 C32.5,-9.9 27.5,-13.2 21.3,-13.2 C11.6,-13.2 0,-5 0,4.2"/>
<path class="Note" transform="matrix(0.992,0,0,0.992,1462.04,490.062)" d="M0,4.2 C0,8.5 3.1,13.3 11.2,13.3 C21.6,13.3 32.5,4.8 32.5,-4 C32.5,-9.9 27.5,-13.2 21.3,-13.2 C11.6,-13.2 0,-5 0,4.2"/>
<path class="Note" transform="matrix(0.992,0,0,0.992,819.597,929.835)" d="M0,4.2 C0,8.5 3.1,13.3 11.2,13.3 C21.6,13.3 32.5,4.8 32.5,-4 C32.5,-9.9 27.5,-13.2 21.3,-13.2 C11.6,-13.2 0,-5 0,4.2"/>
<path class="Note" transform="matrix(0.992,0,0,0.992,1197.7,477.662)" d="M0,4.2 C0,8.5 3.1,13.3 11.2,13.3 C21.6,13.3 32.5,4.8 32.5,-4 C32.5,-9.9 27.5,-13.2 21.3,-13.2 C11.6,-13.2 0,-5 0,4.2"/>
<path class="Note" transform="matrix(0.992,0,0,0.992,729.075,929.835)" d="M0,4.2 C0,8.5 3.1,13.3 11.2,13.3 C21.6,13.3 32.5,4.8 32.5,-4 C32.5,-9.9 27.5,-13.2 21.3,-13.2 C11.6,-13.2 0,-5 0,4.2"/>
<path class="Note" transform="matrix(0.992,0,0,0.992,1786.02,967.035)" d="M0,4.2 C0,8.5 3.1,13.3 11.2,13.3 C21.6,13.3 32.5,4.8 32.5,-4 C32.5,-9.9 27.5,-13.2 21.3,-13.2 C11.6,-13.2 0,-5 0,4.2"/>
<path class="Note" transform="matrix(0.992,0,0,0.992,1131.04,917.435)" d="M0,4.2 C0,8.5 3.1,13.3 11.2,13.3 C21.6,13.3 32.5,4.8 32.5,-4 C32.5,-9.9 27.5,-13.2 21.3,-13.2 C11.6,-13.2 0,-5 0,4.2"/>
<path class="Note" transform="matrix(0.992,0,0,0.992,1537.57,502.462)" d="M0,4.2 C0,8.5 3.1,13.3 11.2,13.3 C21.6,13.3 32.5,4.8 32.5,-4 C32.5,-9.9 27.5,-13.2 21.3,-13.2 C11.6,-13.2 0,-5 0,4.2"/>
<path class="Note" transform="matrix(0.992,0,0,0.992,1419.28,929.835)" d="M21.3,-13.2 C11.6,-13.2 0,-5.1 0,4.2 C0,8.5 3.1,13.3 11.2,13.3 C21.6,13.3 32.5,4.8 32.5,-4 C32.5,-9.9 27.5,-13.2 21.3,-13.2 M7.5,8.6 C4.2,8.6 3.5,5.9 3.5,5 C3.5,0.1 20.3,-8.5 25,-8.5 C27.4,-8.5 29,-7.1 29,-4.9 C29,0.1 12.1,8.6 7.5,8.6"/>
<path class="Note" transform="matrix(0.992,0,0,0.992,614.323,929.835)" d="M0,4.2 C0,8.5 3.1,13.3 11.2,13.3 C21.6,13.3 32.5,4.8 32.5,-4 C32.5,-9.9 27.5,-13.2 21.3,-13.2 C11.6,-13.2 0,-5 0,4.2"/>
<path class="Note" transform="matrix(0.992,0,0,0.992,1201.86,929.835)" d="M0,4.2 C0,8.5 3.1,13.3 11.2,13.3 C21.6,13.3 32.5,4.8 32.5,-4 C32.5,-9.9 27.5,-13.2 21.3,-13.2 C11.6,-13.2 0,-5 0,4.2"/>
<path class="Note" transform="matrix(0.992,0,0,0.992,1077.77,490.062)" d="M0,4.2 C0,8.5 3.1,13.3 11.2,13.3 C21.6,13.3 32.5,4.8 32.5,-4 C32.5,-9.9 27.5,-13.2 21.3,-13.2 C11.6,-13.2 0,-5 0,4.2"/>
<path class="Note" transform="matrix(0.992,0,0,0.992,1846.37,917.435)" d="M0,4.2 C0,8.5 3.1,13.3 11.2,13.3 C21.6,13.3 32.5,4.8 32.5,-4 C32.5,-9.9 27.5,-13.2 21.3,-13.2 C11.6,-13.2 0,-5 0,4.2"/>
<path class="Note" transform="matrix(0.992,0,0,0.992,964.479,490.062)" d="M0,4.2 C0,8.5 3.1,13.3 11.2,13.3 C21.6,13.3 32.5,4.8 32.5,-4 C32.5,-9.9 27.5,-13.2 21.3,-13.2 C11.6,-13.2 0,-5 0,4.2"/>
<path class="Note" transform="matrix(0.992,0,0,0.992,549.88,502.462)" d="M0,4.2 C0,8.5 3.1,13.3 11.2,13.3 C21.6,13.3 32.5,4.8 32.5,-4 C32.5,-9.9 27.5,-13.2 21.3,-13.2 C11.6,-13.2 0,-5 0,4.2"/>
<path class="Note" transform="matrix(0.992,0,0,0.992,1657.5,490.062)" d="M0,4.2 C0,8.5 3.1,13.3 11.2,13.3 C21.6,13.3 32.5,4.8 32.5,-4 C32.5,-9.9 27.5,-13.2 21.3,-13.2 C11.6,-13.2 0,-5 0,4.2"/>
<path class="Note" transform="matrix(0.992,0,0,0.992,1906.72,929.835)" d="M0,4.2 C0,8.5 3.1,13.3 11.2,13.3 C21.6,13.3 32.5,4.8 32.5,-4 C32.5,-9.9 27.5,-13.2 21.3,-13.2 C11.6,-13.2 0,-5 0,4.2"/>
<path class="Note" transform="matrix(0.992,0,0,0.992,494.4,942.235)" d="M0,4.2 C0,8.5 3.1,13.3 11.2,13.3 C21.6,13.3 32.5,4.8 32.5,-4 C32.5,-9.9 27.5,-13.2 21.3,-13.2 C11.6,-13.2 0,-5 0,4.2"/>
<path class="Note" transform="matrix(0.992,0,0,0.992,1725.67,954.635)" d="M0,4.2 C0,8.5 3.1,13.3 11.2,13.3 C21.6,13.3 32.5,4.8 32.5,-4 C32.5,-9.9 27.5,-13.2 21.3,-13.2 C11.6,-13.2 0,-5 0,4.2"/>
<path class="Note" transform="matrix(0.992,0,0,0.992,423.58,954.635)" d="M0,4.2 C0,8.5 3.1,13.3 11.2,13.3 C21.6,13.3 32.5,4.8 32.5,-4 C32.5,-9.9 27.5,-13.2 21.3,-13.2 C11.6,-13.2 0,-5 0,4.2"/>
<path class="Note" transform="matrix(0.992,0,0,0.992,820.861,490.062)" d="M0,4.2 C0,8.5 3.1,13.3 11.2,13.3 C21.6,13.3 32.5,4.8 32.5,-4 C32.5,-9.9 27.5,-13.2 21.3,-13.2 C11.6,-13.2 0,-5 0,4.2"/>
<path class="Note" transform="matrix(0.992,0,0,0.992,1801.11,514.862)" d="M0,4.2 C0,8.5 3.1,13.3 11.2,13.3 C21.6,13.3 32.5,4.8 32.5,-4 C32.5,-9.9 27.5,-13.2 21.3,-13.2 C11.6,-13.2 0,-5 0,4.2"/>
<path class="Note" transform="matrix(0.992,0,0,0.992,625.409,514.862)" d="M0,4.2 C0,8.5 3.1,13.3 11.2,13.3 C21.6,13.3 32.5,4.8 32.5,-4 C32.5,-9.9 27.5,-13.2 21.3,-13.2 C11.6,-13.2 0,-5 0,4.2"/>
<path class="Note" transform="matrix(0.992,0,0,0.992,406.262,514.862)" d="M0,4.2 C0,8.5 3.1,13.3 11.2,13.3 C21.6,13.3 32.5,4.8 32.5,-4 C32.5,-9.9 27.5,-13.2 21.3,-13.2 C11.6,-13.2 0,-5 0,4.2"/>
<path class="Note" transform="matrix(0.992,0,0,0.992,363.232,942.235)" d="M0,4.2 C0,8.5 3.1,13.3 11.2,13.3 C21.6,13.3 32.5,4.8 32.5,-4 C32.5,-9.9 27.5,-13.2 21.3,-13.2 C11.6,-13.2 0,-5 0,4.2"/>
<path class="Note" transform="matrix(0.992,0,0,0.992,1635.15,942.235)" d="M0,4.2 C0,8.5 3.1,13.3 11.2,13.3 C21.6,13.3 32.5,4.8 32.5,-4 C32.5,-9.9 27.5,-13.2 21.3,-13.2 C11.6,-13.2 0,-5 0,4.2"/>
<path class="Clef" transform="matrix(0.992,0,0,0.992,247,490.062)" d="M12.3,51.3 C12.3,57.9 17.3,66.6 30.8,66.6 C35.5,66.6 39.6,65.4 43.2,63.2 C48.6,59.4 50,52.8 50,46.5 C50,42.6 49.4,38.1 48.4,32.4 C48.1,30.4 47.5,27.4 46.9,23.5 C56.7,20.3 64,10.1 64,-0.2 C64,-15.3 53.3,-25.5 38.7,-25.5 C37.7,-31.5 36.7,-37.4 35.9,-43 C46.4,-54.1 53.7,-66.6 53.7,-82.5 C53.7,-91.6 50.9,-99 49.3,-102.6 C46.9,-107.7 44,-111.2 42.2,-111.2 C41.5,-111.2 38.4,-110 35.1,-106.1 C28.7,-98.5 26.9,-85.7 26.9,-77.3 C26.9,-71.9 27.4,-67 29.1,-55.8 C29,-55.7 23.8,-50.4 21.7,-48.7 C12.6,-40.3 0,-28.1 0,-8.1 C0,10.6 16.3,25.3 34.9,25.3 C37.8,25.3 40.5,25 42.8,24.6 C44.7,34.2 45.9,41.2 45.9,46.5 C45.9,56.9 40.5,62.4 30.4,62.4 C28,62.4 25.9,61.9 25.7,61.9 C25.6,61.8 25.4,61.7 25.4,61.6 C25.4,61.4 25.6,61.3 25.9,61.3 C30.6,60.5 35.3,56.5 35.3,50.1 C35.3,44.7 31.2,39 23.7,39 C16.7,39 12.3,44.7 12.3,51.3 M33.2,-82.2 C34.1,-86.2 38.7,-96.7 43.9,-96.7 C45.4,-96.7 47.8,-91.9 47.8,-84.9 C47.8,-74.5 40.1,-66.7 33.2,-59.9 C32.6,-63.9 32.1,-67.8 32.1,-72 C32.1,-75.7 32.4,-79.1 33.2,-82.2 M42,20.6 C40,21 38.1,21.2 36.2,21.2 C21.9,21.2 9.7,11.2 9.7,-3.9 C9.7,-16.1 18.3,-27 27.1,-34.6 C28.8,-36.1 30.4,-37.5 31.9,-39 C32.8,-33.6 33.5,-28.9 34.2,-24.8 C25.1,-22.1 18.9,-12.5 18.9,-3.1 C18.9,3.9 24.4,13.5 32.4,13.5 C33.2,13.5 34.1,13.1 34.1,12.2 C34.1,11.3 33.1,10.8 31.9,10 C28,7.6 25.8,5 25.8,0.1 C25.8,-6 30.4,-10.9 36.2,-12.3 L42,20.6 M56.2,2.1 C56.2,9.2 53.3,16.5 46.2,19.4 C44.1,7.4 41.4,-8.5 40.7,-12.9 C49.7,-12.9 56.2,-6.8 56.2,2.1"/>
<path class="Clef" transform="matrix(0.992,0,0,0.992,123,929.835)" d="M12.3,51.3 C12.3,57.9 17.3,66.6 30.8,66.6 C35.5,66.6 39.6,65.4 43.2,63.2 C48.6,59.4 50,52.8 50,46.5 C50,42.6 49.4,38.1 48.4,32.4 C48.1,30.4 47.5,27.4 46.9,23.5 C56.7,20.3 64,10.1 64,-0.2 C64,-15.3 53.3,-25.5 38.7,-25.5 C37.7,-31.5 36.7,-37.4 35.9,-43 C46.4,-54.1 53.7,-66.6 53.7,-82.5 C53.7,-91.6 50.9,-99 49.3,-102.6 C46.9,-107.7 44,-111.2 42.2,-111.2 C41.5,-111.2 38.4,-110 35.1,-106.1 C28.7,-98.5 26.9,-85.7 26.9,-77.3 C26.9,-71.9 27.4,-67 29.1,-55.8 C29,-55.7 23.8,-50.4 21.7,-48.7 C12.6,-40.3 0,-28.1 0,-8.1 C0,10.6 16.3,25.3 34.9,25.3 C37.8,25.3 40.5,25 42.8,24.6 C44.7,34.2 45.9,41.2 45.9,46.5 C45.9,56.9 40.5,62.4 30.4,62.4 C28,62.4 25.9,61.9 25.7,61.9 C25.6,61.8 25.4,61.7 25.4,61.6 C25.4,61.4 25.6,61.3 25.9,61.3 C30.6,60.5 35.3,56.5 35.3,50.1 C35.3,44.7 31.2,39 23.7,39 C16.7,39 12.3,44.7 12.3,51.3 M33.2,-82.2 C34.1,-86.2 38.7,-96.7 43.9,-96.7 C45.4,-96.7 47.8,-91.9 47.8,-84.9 C47.8,-74.5 40.1,-66.7 33.2,-59.9 C32.6,-63.9 32.1,-67.8 32.1,-72 C32.1,-75.7 32.4,-79.1 33.2,-82.2 M42,20.6 C40,21 38.1,21.2 36.2,21.2 C21.9,21.2 9.7,11.2 9.7,-3.9 C9.7,-16.1 18.3,-27 27.1,-34.6 C28.8,-36.1 30.4,-37.5 31.9,-39 C32.8,-33.6 33.5,-28.9 34.2,-24.8 C25.1,-22.1 18.9,-12.5 18.9,-3.1 C18.9,3.9 24.4,13.5 32.4,13.5 C33.2,13.5 34.1,13.1 34.1,12.2 C34.1,11.3 33.1,10.8 31.9,10 C28,7.6 25.8,5 25.8,0.1 C25.8,-6 30.4,-10.9 36.2,-12.3 L42,20.6 M56.2,2.1 C56.2,9.2 53.3,16.5 46.2,19.4 C44.1,7.4 41.4,-8.5 40.7,-12.9 C49.7,-12.9 56.2,-6.8 56.2,2.1"/>
<path class="TimeSig" transform="matrix(0.992,0,0,0.992,334.095,440.958)" d="M24.7,-4.8 C18.6,-4.8 16.4,-3 15,-1.5 C14.7,-3.6 14.5,-5.2 14.5,-6.8 C14.5,-12.5 16.5,-19.9 23.5,-19.9 C26,-19.9 27.5,-19.1 28.5,-18 C26.4,-17.1 24.7,-14.4 24.7,-12.1 C24.7,-8.5 27.5,-5.7 31.1,-5.7 C34.7,-5.7 37.6,-8.5 37.6,-12.1 L37.6,-12.4 C37.6,-13.3 37.4,-14.8 37,-15.6 C35.7,-19.2 31.5,-24.5 21.5,-24.5 C12.5,-24.5 6,-15.9 4,-11.3 C3,-8.9 1.5,-4 1.5,1.6 C1.5,7.7 3.2,14.6 9.1,19.8 C14.9,24.2 18.6,24.4 22.1,24.4 C25.6,24.4 38.7,20.3 38.7,8.7 C38.7,-1.1 31,-4.8 24.7,-4.8 M21,20.2 C17.7,20.2 15,15.7 15,10.1 C15,4.5 17.7,-0.1 21,-0.1 C24.3,-0.1 27.1,4.5 27.1,10.1 C27.1,15.7 24.3,20.2 21,20.2"/>
<path class="TimeSig" transform="matrix(0.992,0,0,0.992,333.8,489.814)" d="M32.4,-1.8 C35.7,-4.3 38,-7.5 38,-11.5 C38,-18.7 30.1,-24.6 20.4,-24.6 C10.7,-24.6 2.8,-18.7 2.8,-11.5 C2.8,-7.5 3.8,-3.9 8.5,-0.9 C4,1.7 1.5,5.4 1.5,10.2 C1.5,18.3 10,24.8 20.4,24.8 C30.8,24.8 39.3,18.3 39.3,10.2 C39.3,5.4 37.6,0.9 32.4,-1.8 M26.8,-4.5 C20,-6.7 12.5,-10 12.5,-14.5 C12.5,-18.4 16.1,-20 20.4,-20 C26.6,-20 30.8,-17.1 30.8,-12.5 C30.8,-7.7 28.6,-5.4 26.8,-4.5 M20.4,19.2 C14,19.2 8.5,15.7 8.5,10.1 C8.5,3.4 13.7,1.8 13.7,1.8 C20.5,4.1 30.2,7.5 30.2,13 C30.2,15.7 26.8,19.2 20.4,19.2"/>
<path class="Rest" transform="matrix(0.992,0,0,0.992,1914.41,465.262)" d="M26.7,-20.3 C26.6,-20.3 26.4,-20.4 26.3,-20.4 C25.7,-20.4 25.2,-20.1 25,-19.6 C22.7,-15 17.9,-8.8 12.5,-7.8 C13.6,-9.1 14.3,-10.7 14.3,-12.6 C14.3,-16.5 11.1,-19.7 7.2,-19.7 C3.2,-19.7 0,-16.5 0,-12.6 C0,-7.2 5.3,-4.7 10,-4.7 C15.3,-4.7 18.8,-7.2 22.2,-10.9 L10.8,24.7 L13.5,25.5 L27.5,-18.6 C27.6,-18.7 27.6,-18.9 27.6,-19.1 C27.6,-19.6 27.3,-20 26.7,-20.3"/>
<path class="Beam" fill-rule="evenodd" d="M1815.77,849.204 L1878.6,843.004 L1878.6,855.465 L1815.77,861.665 L1815.77,849.204 "/>
<path class="Beam" fill-rule="evenodd" d="M1416.27,403.242 L1494.28,409.442 L1494.28,421.881 L1416.27,415.681 L1416.27,403.242 "/>
<path class="Beam" fill-rule="evenodd" d="M939.521,960.804 L1002.35,967.004 L1002.35,979.465 L939.521,973.265 L939.521,960.804 "/>
<path class="Hook" transform="matrix(0.992,0,0,0.992,453.332,867.835)" d="M0,22.7 C0,23 0.1,23.6 0.8,23.8 C5.1,25.2 13.7,30.6 20.2,41.7 C22,44.8 24.9,49.1 24.9,57.4 C24.9,64.6 23.1,72 20.4,79.2 C20.2,79.8 20.1,80.3 20.1,80.7 C20.1,81.4 20.5,81.7 21.2,81.7 C21.8,81.7 22.3,81.3 22.7,80.6 C27.2,72.6 28.9,63.3 28.9,54.2 C28.4,41.3 21,31.8 21,31.8 C21.3,31.8 11.8,19.5 9.1,15.3 C5.4,9.6 3.7,3.9 3.5,3.5 C3.4,3.2 2.5,-0.4 2.5,-0.4 C2.4,-0.8 1.9,-1.2 1.3,-1.2 C0.6,-1.2 0,-0.6 0,0.1 L0,22.7 "/>
<path class="Hook" transform="matrix(0.992,0,0,0.992,1936.47,843.035)" d="M0,22.7 C0,23 0.1,23.6 0.8,23.8 C5.1,25.2 13.7,30.6 20.2,41.7 C22,44.8 24.9,49.1 24.9,57.4 C24.9,64.6 23.1,72 20.4,79.2 C20.2,79.8 20.1,80.3 20.1,80.7 C20.1,81.4 20.5,81.7 21.2,81.7 C21.8,81.7 22.3,81.3 22.7,80.6 C27.2,72.6 28.9,63.3 28.9,54.2 C28.4,41.3 21,31.8 21,31.8 C21.3,31.8 11.8,19.5 9.1,15.3 C5.4,9.6 3.7,3.9 3.5,3.5 C3.4,3.2 2.5,-0.4 2.5,-0.4 C2.4,-0.8 1.9,-1.2 1.3,-1.2 C0.6,-1.2 0,-0.6 0,0.1 L0,22.7 "/>
<path class="Hook" transform="matrix(0.992,0,0,0.992,579.633,415.662)" d="M0,22.7 C0,23 0.1,23.6 0.8,23.8 C5.1,25.2 13.7,30.6 20.2,41.7 C22,44.8 24.9,49.1 24.9,57.4 C24.9,64.6 23.1,72 20.4,79.2 C20.2,79.8 20.1,80.3 20.1,80.7 C20.1,81.4 20.5,81.7 21.2,81.7 C21.8,81.7 22.3,81.3 22.7,80.6 C27.2,72.6 28.9,63.3 28.9,54.2 C28.4,41.3 21,31.8 21,31.8 C21.3,31.8 11.8,19.5 9.1,15.3 C5.4,9.6 3.7,3.9 3.5,3.5 C3.4,3.2 2.5,-0.4 2.5,-0.4 C2.4,-0.8 1.9,-1.2 1.3,-1.2 C0.6,-1.2 0,-0.6 0,0.1 L0,22.7 "/>
<path class="Hook" transform="matrix(0.992,0,0,0.992,392.985,855.435)" d="M0,22.7 C0,23 0.1,23.6 0.8,23.8 C5.1,25.2 13.7,30.6 20.2,41.7 C22,44.8 24.9,49.1 24.9,57.4 C24.9,64.6 23.1,72 20.4,79.2 C20.2,79.8 20.1,80.3 20.1,80.7 C20.1,81.4 20.5,81.7 21.2,81.7 C21.8,81.7 22.3,81.3 22.7,80.6 C27.2,72.6 28.9,63.3 28.9,54.2 C28.4,41.3 21,31.8 21,31.8 C21.3,31.8 11.8,19.5 9.1,15.3 C5.4,9.6 3.7,3.9 3.5,3.5 C3.4,3.2 2.5,-0.4 2.5,-0.4 C2.4,-0.8 1.9,-1.2 1.3,-1.2 C0.6,-1.2 0,-0.6 0,0.1 L0,22.7 "/>
<path class="Hook" transform="matrix(0.992,0,0,0.992,655.161,428.062)" d="M0,22.7 C0,23 0.1,23.6 0.8,23.8 C5.1,25.2 13.7,30.6 20.2,41.7 C22,44.8 24.9,49.1 24.9,57.4 C24.9,64.6 23.1,72 20.4,79.2 C20.2,79.8 20.1,80.3 20.1,80.7 C20.1,81.4 20.5,81.7 21.2,81.7 C21.8,81.7 22.3,81.3 22.7,80.6 C27.2,72.6 28.9,63.3 28.9,54.2 C28.4,41.3 21,31.8 21,31.8 C21.3,31.8 11.8,19.5 9.1,15.3 C5.4,9.6 3.7,3.9 3.5,3.5 C3.4,3.2 2.5,-0.4 2.5,-0.4 C2.4,-0.8 1.9,-1.2 1.3,-1.2 C0.6,-1.2 0,-0.6 0,0.1 L0,22.7 "/>
<path class="Hook" transform="matrix(0.992,0,0,0.992,1755.42,867.835)" d="M0,22.7 C0,23 0.1,23.6 0.8,23.8 C5.1,25.2 13.7,30.6 20.2,41.7 C22,44.8 24.9,49.1 24.9,57.4 C24.9,64.6 23.1,72 20.4,79.2 C20.2,79.8 20.1,80.3 20.1,80.7 C20.1,81.4 20.5,81.7 21.2,81.7 C21.8,81.7 22.3,81.3 22.7,80.6 C27.2,72.6 28.9,63.3 28.9,54.2 C28.4,41.3 21,31.8 21,31.8 C21.3,31.8 11.8,19.5 9.1,15.3 C5.4,9.6 3.7,3.9 3.5,3.5 C3.4,3.2 2.5,-0.4 2.5,-0.4 C2.4,-0.8 1.9,-1.2 1.3,-1.2 C0.6,-1.2 0,-0.6 0,0.1 L0,22.7 "/>
<path class="Hook" transform="matrix(0.992,0,0,0.992,730.69,415.662)" d="M0,22.7 C0,23 0.1,23.6 0.8,23.8 C5.1,25.2 13.7,30.6 20.2,41.7 C22,44.8 24.9,49.1 24.9,57.4 C24.9,64.6 23.1,72 20.4,79.2 C20.2,79.8 20.1,80.3 20.1,80.7 C20.1,81.4 20.5,81.7 21.2,81.7 C21.8,81.7 22.3,81.3 22.7,80.6 C27.2,72.6 28.9,63.3 28.9,54.2 C28.4,41.3 21,31.8 21,31.8 C21.3,31.8 11.8,19.5 9.1,15.3 C5.4,9.6 3.7,3.9 3.5,3.5 C3.4,3.2 2.5,-0.4 2.5,-0.4 C2.4,-0.8 1.9,-1.2 1.3,-1.2 C0.6,-1.2 0,-0.6 0,0.1 L0,22.7 "/>
<path class="Hook" transform="matrix(0.992,0,0,0.992,1107.52,403.262)" d="M0,22.7 C0,23 0.1,23.6 0.8,23.8 C5.1,25.2 13.7,30.6 20.2,41.7 C22,44.8 24.9,49.1 24.9,57.4 C24.9,64.6 23.1,72 20.4,79.2 C20.2,79.8 20.1,80.3 20.1,80.7 C20.1,81.4 20.5,81.7 21.2,81.7 C21.8,81.7 22.3,81.3 22.7,80.6 C27.2,72.6 28.9,63.3 28.9,54.2 C28.4,41.3 21,31.8 21,31.8 C21.3,31.8 11.8,19.5 9.1,15.3 C5.4,9.6 3.7,3.9 3.5,3.5 C3.4,3.2 2.5,-0.4 2.5,-0.4 C2.4,-0.8 1.9,-1.2 1.3,-1.2 C0.6,-1.2 0,-0.6 0,0.1 L0,22.7 "/>
<path class="Hook" transform="matrix(0.992,0,0,0.992,1329.11,855.435)" d="M0,22.7 C0,23 0.1,23.6 0.8,23.8 C5.1,25.2 13.7,30.6 20.2,41.7 C22,44.8 24.9,49.1 24.9,57.4 C24.9,64.6 23.1,72 20.4,79.2 C20.2,79.8 20.1,80.3 20.1,80.7 C20.1,81.4 20.5,81.7 21.2,81.7 C21.8,81.7 22.3,81.3 22.7,80.6 C27.2,72.6 28.9,63.3 28.9,54.2 C28.4,41.3 21,31.8 21,31.8 C21.3,31.8 11.8,19.5 9.1,15.3 C5.4,9.6 3.7,3.9 3.5,3.5 C3.4,3.2 2.5,-0.4 2.5,-0.4 C2.4,-0.8 1.9,-1.2 1.3,-1.2 C0.6,-1.2 0,-0.6 0,0.1 L0,22.7 "/>
<path class="Hook" transform="matrix(0.992,0,0,0.992,1231.61,843.035)" d="M0,22.7 C0,23 0.1,23.6 0.8,23.8 C5.1,25.2 13.7,30.6 20.2,41.7 C22,44.8 24.9,49.1 24.9,57.4 C24.9,64.6 23.1,72 20.4,79.2 C20.2,79.8 20.1,80.3 20.1,80.7 C20.1,81.4 20.5,81.7 21.2,81.7 C21.8,81.7 22.3,81.3 22.7,80.6 C27.2,72.6 28.9,63.3 28.9,54.2 C28.4,41.3 21,31.8 21,31.8 C21.3,31.8 11.8,19.5 9.1,15.3 C5.4,9.6 3.7,3.9 3.5,3.5 C3.4,3.2 2.5,-0.4 2.5,-0.4 C2.4,-0.8 1.9,-1.2 1.3,-1.2 C0.6,-1.2 0,-0.6 0,0.1 L0,22.7 "/>
<path class="Hook" transform="matrix(0.992,0,0,0.992,1160.79,836.835)" d="M0,22.7 C0,23 0.1,23.6 0.8,23.8 C5.1,25.2 13.7,30.6 20.2,41.7 C22,44.8 24.9,49.1 24.9,57.4 C24.9,64.6 23.1,72 20.4,79.2 C20.2,79.8 20.1,80.3 20.1,80.7 C20.1,81.4 20.5,81.7 21.2,81.7 C21.8,81.7 22.3,81.3 22.7,80.6 C27.2,72.6 28.9,63.3 28.9,54.2 C28.4,41.3 21,31.8 21,31.8 C21.3,31.8 11.8,19.5 9.1,15.3 C5.4,9.6 3.7,3.9 3.5,3.5 C3.4,3.2 2.5,-0.4 2.5,-0.4 C2.4,-0.8 1.9,-1.2 1.3,-1.2 C0.6,-1.2 0,-0.6 0,0.1 L0,22.7 "/>
<path class="Hook" transform="matrix(0.992,0,0,0.992,1089.97,836.835)" d="M0,22.7 C0,23 0.1,23.6 0.8,23.8 C5.1,25.2 13.7,30.6 20.2,41.7 C22,44.8 24.9,49.1 24.9,57.4 C24.9,64.6 23.1,72 20.4,79.2 C20.2,79.8 20.1,80.3 20.1,80.7 C20.1,81.4 20.5,81.7 21.2,81.7 C21.8,81.7 22.3,81.3 22.7,80.6 C27.2,72.6 28.9,63.3 28.9,54.2 C28.4,41.3 21,31.8 21,31.8 C21.3,31.8 11.8,19.5 9.1,15.3 C5.4,9.6 3.7,3.9 3.5,3.5 C3.4,3.2 2.5,-0.4 2.5,-0.4 C2.4,-0.8 1.9,-1.2 1.3,-1.2 C0.6,-1.2 0,-0.6 0,0.1 L0,22.7 "/>
<path class="Hook" transform="matrix(0.992,0,0,0.992,1340.74,397.062)" d="M0,22.7 C0,23 0.1,23.6 0.8,23.8 C5.1,25.2 13.7,30.6 20.2,41.7 C22,44.8 24.9,49.1 24.9,57.4 C24.9,64.6 23.1,72 20.4,79.2 C20.2,79.8 20.1,80.3 20.1,80.7 C20.1,81.4 20.5,81.7 21.2,81.7 C21.8,81.7 22.3,81.3 22.7,80.6 C27.2,72.6 28.9,63.3 28.9,54.2 C28.4,41.3 21,31.8 21,31.8 C21.3,31.8 11.8,19.5 9.1,15.3 C5.4,9.6 3.7,3.9 3.5,3.5 C3.4,3.2 2.5,-0.4 2.5,-0.4 C2.4,-0.8 1.9,-1.2 1.3,-1.2 C0.6,-1.2 0,-0.6 0,0.1 L0,22.7 "/>
<path class="Hook" transform="matrix(0.992,0,0,0.992,849.349,843.035)" d="M0,22.7 C0,23 0.1,23.6 0.8,23.8 C5.1,25.2 13.7,30.6 20.2,41.7 C22,44.8 24.9,49.1 24.9,57.4 C24.9,64.6 23.1,72 20.4,79.2 C20.2,79.8 20.1,80.3 20.1,80.7 C20.1,81.4 20.5,81.7 21.2,81.7 C21.8,81.7 22.3,81.3 22.7,80.6 C27.2,72.6 28.9,63.3 28.9,54.2 C28.4,41.3 21,31.8 21,31.8 C21.3,31.8 11.8,19.5 9.1,15.3 C5.4,9.6 3.7,3.9 3.5,3.5 C3.4,3.2 2.5,-0.4 2.5,-0.4 C2.4,-0.8 1.9,-1.2 1.3,-1.2 C0.6,-1.2 0,-0.6 0,0.1 L0,22.7 "/>
<path class="Hook" transform="matrix(0.992,0,0,0.992,1567.33,415.662)" d="M0,22.7 C0,23 0.1,23.6 0.8,23.8 C5.1,25.2 13.7,30.6 20.2,41.7 C22,44.8 24.9,49.1 24.9,57.4 C24.9,64.6 23.1,72 20.4,79.2 C20.2,79.8 20.1,80.3 20.1,80.7 C20.1,81.4 20.5,81.7 21.2,81.7 C21.8,81.7 22.3,81.3 22.7,80.6 C27.2,72.6 28.9,63.3 28.9,54.2 C28.4,41.3 21,31.8 21,31.8 C21.3,31.8 11.8,19.5 9.1,15.3 C5.4,9.6 3.7,3.9 3.5,3.5 C3.4,3.2 2.5,-0.4 2.5,-0.4 C2.4,-0.8 1.9,-1.2 1.3,-1.2 C0.6,-1.2 0,-0.6 0,0.1 L0,22.7 "/>
<path class="Hook" transform="matrix(0.992,0,0,0.992,524.152,855.435)" d="M0,22.7 C0,23 0.1,23.6 0.8,23.8 C5.1,25.2 13.7,30.6 20.2,41.7 C22,44.8 24.9,49.1 24.9,57.4 C24.9,64.6 23.1,72 20.4,79.2 C20.2,79.8 20.1,80.3 20.1,80.7 C20.1,81.4 20.5,81.7 21.2,81.7 C21.8,81.7 22.3,81.3 22.7,80.6 C27.2,72.6 28.9,63.3 28.9,54.2 C28.4,41.3 21,31.8 21,31.8 C21.3,31.8 11.8,19.5 9.1,15.3 C5.4,9.6 3.7,3.9 3.5,3.5 C3.4,3.2 2.5,-0.4 2.5,-0.4 C2.4,-0.8 1.9,-1.2 1.3,-1.2 C0.6,-1.2 0,-0.6 0,0.1 L0,22.7 "/>
<path class="Lyrics" d="M1675.45,656.776 L1675.45,640.926 L1693.35,640.926 L1693.35,637.726 L1653.9,637.726 L1653.9,640.926 L1671.65,640.926 L1671.65,656.776 L1675.45,656.776 M1691.75,629.826 C1684.05,628.876 1675.65,623.276 1675.65,617.326 L1675.65,614.526 L1671.65,614.526 L1671.65,617.326 C1671.65,623.276 1663.95,628.826 1655.55,629.926 L1657.4,633.176 C1664.05,631.876 1671.5,627.626 1673.6,622.526 C1676.25,627.626 1683.4,631.726 1689.95,633.076 L1691.75,629.826 "/>
<path class="Lyrics" d="M1691.24,596.741 L1691.24,553.041 L1687.44,553.041 L1687.44,596.741 L1691.24,596.741 M1678.39,557.691 L1657.59,557.691 L1657.59,560.891 L1674.34,560.891 C1673.54,570.741 1667.04,580.241 1655.99,585.091 L1658.19,588.091 C1669.49,582.741 1678.19,571.891 1678.39,557.691"/>
<path class="Lyrics" d="M526.256,1019.54 C526.256,1012.34 520.006,1007.64 510.456,1007.64 C501.056,1007.64 494.756,1012.34 494.756,1019.54 C494.756,1026.24 500.206,1030.74 508.556,1031.34 L508.556,1039.64 L490.806,1039.64 L490.806,1042.84 L530.256,1042.84 L530.256,1039.64 L512.356,1039.64 L512.356,1031.34 C520.756,1030.79 526.256,1026.24 526.256,1019.54 M522.606,1019.59 C522.606,1024.84 517.806,1028.29 510.456,1028.29 C503.206,1028.29 498.456,1024.84 498.456,1019.59 C498.456,1014.34 503.206,1010.84 510.456,1010.84 C517.856,1010.84 522.606,1014.34 522.606,1019.59"/>
<path class="Lyrics" d="M495.16,1072.72 L505.11,1072.72 C505.06,1079.22 499.56,1084.67 493.96,1086.57 L495.96,1089.57 C501.16,1087.17 505.71,1082.92 507.11,1078.67 C508.86,1082.57 513.86,1086.52 518.11,1088.17 L520.11,1085.27 C515.51,1083.82 509.01,1079.17 508.96,1072.72 L519.26,1072.72 L519.26,1069.52 L495.16,1069.52 L495.16,1072.72 M528.36,1108.57 L528.36,1064.87 L524.61,1064.87 L524.61,1108.57 L528.36,1108.57 M521.66,1098.62 L521.31,1095.52 C518.51,1095.92 513.71,1096.22 508.91,1096.52 L508.91,1087.12 L505.11,1087.12 L505.11,1096.77 C500.46,1096.92 496.06,1097.07 492.71,1097.07 L493.36,1100.42 C497.06,1100.37 501.96,1100.17 506.81,1099.92 C512.16,1099.52 518.21,1099.07 521.66,1098.62"/>
<path class="Lyrics" d="M529.881,1137.25 L529.881,1134.05 L523.231,1134.05 L523.231,1124.85 L519.431,1124.85 L519.431,1146.5 L523.231,1146.5 L523.231,1137.25 L529.881,1137.25 M524.881,1168.25 L524.881,1165.1 L499.081,1165.1 L499.081,1159.9 L523.231,1159.9 L523.231,1149.15 L495.181,1149.15 L495.181,1152.25 L519.431,1152.25 L519.431,1156.95 L495.231,1156.95 L495.231,1168.25 L524.881,1168.25 M515.381,1139.9 C510.281,1141.05 502.431,1141.65 494.981,1141.75 L494.981,1127 L491.181,1127 L491.181,1145 L495.031,1145 C501.981,1144.9 510.781,1144.15 515.781,1143.05 L515.381,1139.9 "/>
<path class="Lyrics" d="M384.339,1145 C379.389,1143.3 373.639,1137.95 373.639,1131 L373.639,1126.95 L369.789,1126.95 L369.789,1131.15 C369.789,1138.1 365.089,1143.6 358.839,1146.55 L360.939,1149.5 C366.039,1146.85 370.489,1142.5 371.839,1137.85 C373.589,1142.25 377.889,1146 382.089,1148.05 L384.339,1145 M393.839,1160.15 C393.839,1154.95 388.339,1151.75 379.139,1151.75 C369.989,1151.75 364.539,1154.95 364.539,1160.15 C364.539,1165.35 369.989,1168.5 379.139,1168.5 C388.339,1168.5 393.839,1165.35 393.839,1160.15 M379.139,1154.9 C385.789,1154.9 389.939,1156.8 389.939,1160.15 C389.939,1163.5 385.789,1165.35 379.139,1165.35 C372.539,1165.35 368.439,1163.5 368.439,1160.15 C368.439,1156.8 372.539,1154.9 379.139,1154.9 M399.889,1139.9 L399.889,1136.7 L393.239,1136.7 L393.239,1124.85 L389.439,1124.85 L389.439,1151.8 L393.239,1151.8 L393.239,1139.9 L399.889,1139.9 "/>
<path class="Lyrics" d="M1573.43,698.76 L1573.43,695.56 L1533.98,695.56 L1533.98,698.76 L1573.43,698.76 M1569.23,715.76 L1569.23,712.61 L1542.93,712.61 L1542.93,702.86 L1539.13,702.86 L1539.13,715.76 L1569.23,715.76 M1569.03,690.11 L1569.03,686.96 L1543.08,686.96 L1543.08,674.86 L1539.28,674.86 L1539.28,690.11 L1569.03,690.11 "/>
<path class="Lyrics" d="M1545.09,616.576 C1538.69,616.576 1535.44,622.876 1535.44,631.776 C1535.44,640.776 1538.69,647.026 1545.09,647.026 C1549.19,647.026 1551.94,644.476 1553.44,640.276 L1559.69,640.276 L1559.69,654.526 L1563.39,654.526 L1563.39,613.876 L1559.69,613.876 L1559.69,623.426 L1553.44,623.426 C1551.99,619.176 1549.19,616.576 1545.09,616.576 M1551.04,631.776 C1551.04,639.176 1548.74,643.726 1545.09,643.726 C1541.39,643.726 1539.14,639.176 1539.14,631.776 C1539.14,624.526 1541.39,619.876 1545.09,619.876 C1548.74,619.876 1551.04,624.526 1551.04,631.776 M1571.94,656.726 L1571.94,613.026 L1568.19,613.026 L1568.19,656.726 L1571.94,656.726 M1559.69,626.626 L1559.69,637.076 L1554.24,637.076 C1554.54,635.526 1554.74,633.726 1554.74,631.776 C1554.74,629.976 1554.59,628.226 1554.29,626.626 L1559.69,626.626 "/>
<path class="Lyrics" d="M1571.82,596.741 L1571.82,553.041 L1567.97,553.041 L1567.97,596.741 L1571.82,596.741 M1562.42,583.341 C1556.37,579.741 1551.07,572.591 1551.07,564.591 L1551.07,556.841 L1547.22,556.841 L1547.22,564.741 C1547.22,572.491 1541.97,580.441 1535.57,584.441 L1538.07,587.291 C1543.12,583.691 1547.62,578.341 1549.22,572.891 C1550.92,578.141 1556.07,583.541 1560.02,586.241 L1562.42,583.341 "/>
<path class="Lyrics" d="M1930.15,1135 C1930.15,1130.05 1925.3,1126.9 1918.55,1126.9 C1911.8,1126.9 1906.85,1130.05 1906.85,1134.95 C1906.85,1140.05 1911.8,1143 1918.55,1143 C1925.3,1143 1930.15,1140 1930.15,1135 M1940.6,1158.45 L1940.6,1124.85 L1936.8,1124.85 L1936.8,1150.7 L1927.6,1150.7 L1927.6,1153.7 L1936.8,1153.7 L1936.8,1158.45 L1940.6,1158.45 M1941.5,1167.5 L1941.5,1164.3 L1914.05,1164.3 L1914.05,1154.85 L1910.25,1154.85 L1910.25,1167.5 L1941.5,1167.5 M1926.4,1135 C1926.4,1137.95 1923.25,1139.9 1918.55,1139.9 C1913.85,1139.9 1910.65,1137.95 1910.65,1135 C1910.65,1132 1913.85,1130.05 1918.55,1130.05 C1923.25,1130.05 1926.4,1132.05 1926.4,1135 M1920.75,1156.7 L1920.75,1148.5 C1925.35,1148.2 1930.2,1147.9 1932.95,1147.5 L1932.65,1144.55 C1928.4,1145 1923.65,1145.45 1918.8,1145.65 C1914.05,1145.8 1908.7,1145.85 1904.2,1145.8 L1904.8,1149.05 C1908.45,1149.05 1912.8,1148.9 1916.95,1148.75 L1916.95,1156.7 L1920.75,1156.7 "/>
<path class="Lyrics" d="M635.421,1032.34 C630.671,1033.49 622.121,1034.14 614.621,1034.19 L614.621,1009.24 L610.821,1009.24 L610.821,1037.54 L613.471,1037.54 C620.121,1037.54 630.621,1036.79 635.971,1035.54 L635.421,1032.34 M642.921,1004.89 L639.121,1004.89 L639.121,1048.59 L642.921,1048.59 L642.921,1025.49 L650.071,1025.49 L650.071,1022.24 L642.921,1022.24 L642.921,1004.89 "/>
<path class="Lyrics" d="M647.274,1096.77 L647.274,1064.87 L643.474,1064.87 L643.474,1096.77 L647.274,1096.77 M648.374,1107.12 L648.374,1103.97 L622.574,1103.97 L622.574,1093.62 L618.774,1093.62 L618.774,1107.12 L648.374,1107.12 M624.274,1067.77 C617.674,1067.77 612.524,1072.22 612.524,1078.72 C612.524,1085.22 617.674,1089.52 624.324,1089.52 C630.974,1089.52 636.074,1085.17 636.074,1078.67 C636.074,1072.17 630.924,1067.77 624.274,1067.77 M624.274,1071.07 C629.124,1071.07 632.474,1074.22 632.474,1078.72 C632.474,1083.07 629.124,1086.17 624.324,1086.17 C619.724,1086.17 616.174,1083.07 616.174,1078.67 C616.174,1074.22 619.674,1071.07 624.274,1071.07"/>
<path class="Lyrics" d="M621.983,1128.65 C615.633,1128.65 612.383,1134.85 612.383,1143.6 C612.383,1152.4 615.633,1158.55 621.983,1158.55 C627.983,1158.55 631.183,1153.2 631.583,1145.3 L636.283,1145.3 L636.283,1166.45 L639.983,1166.45 L639.983,1125.7 L636.283,1125.7 L636.283,1142.15 L631.583,1142.15 C631.283,1134.2 628.033,1128.65 621.983,1128.65 M627.833,1143.6 C627.833,1150.7 625.533,1155.2 621.983,1155.2 C618.483,1155.2 616.233,1150.7 616.233,1143.6 C616.233,1136.55 618.483,1132 621.983,1132 C625.533,1132 627.833,1136.55 627.833,1143.6 M648.533,1168.55 L648.533,1124.85 L644.783,1124.85 L644.783,1168.55 L648.533,1168.55 "/>
<path class="Lyrics" d="M454.487,1126.75 L440.987,1126.75 L440.987,1129.9 L450.587,1129.9 C450.587,1133.25 449.937,1138.45 448.937,1142.25 L435.687,1142.25 C436.687,1138 437.537,1131.9 437.537,1126.75 L423.587,1126.75 L423.587,1129.9 L433.587,1129.9 C433.587,1133.7 432.787,1139.05 431.787,1142.25 L419.987,1142.25 L419.987,1145.45 L459.437,1145.45 L459.437,1142.25 L452.787,1142.25 C453.737,1137.75 454.487,1131.95 454.487,1126.75 M455.237,1168.1 L455.237,1165.1 L428.737,1165.1 L428.737,1160.85 L453.537,1160.85 L453.537,1157.9 L428.737,1157.9 L428.737,1153.8 L454.387,1153.8 L454.387,1150.75 L424.937,1150.75 L424.937,1168.1 L455.237,1168.1 "/>
<path class="Lyrics" d="M1471.95,699.31 L1471.95,703.46 L1484.4,703.46 L1484.4,699.31 L1471.95,699.31 "/>
<path class="Lyrics" d="M459.94,1082.87 L459.94,1079.67 L453.29,1079.67 L453.29,1064.87 L449.49,1064.87 L449.49,1097.12 L453.29,1097.12 L453.29,1082.87 L459.94,1082.87 M454.99,1107.17 L454.99,1103.97 L429.69,1103.97 L429.69,1095.97 L425.89,1095.97 L425.89,1107.17 L454.99,1107.17 M438.34,1069.77 L438.34,1066.42 L425.74,1066.42 L425.74,1069.77 L438.34,1069.77 M445.09,1076.22 L445.09,1073.07 L419.49,1073.07 L419.49,1076.22 L445.09,1076.22 M442.59,1086.22 C442.59,1081.52 438.19,1078.57 432.29,1078.57 C426.44,1078.57 422.04,1081.52 422.04,1086.22 C422.04,1090.82 426.49,1093.87 432.29,1093.87 C438.19,1093.87 442.59,1090.82 442.59,1086.22 M438.99,1086.22 C438.99,1089.07 435.84,1090.82 432.29,1090.82 C428.79,1090.82 425.64,1089.07 425.64,1086.22 C425.64,1083.32 428.79,1081.57 432.29,1081.57 C435.84,1081.57 438.99,1083.32 438.99,1086.22"/>
<path class="Lyrics" d="M1471.95,639.326 L1471.95,643.476 L1484.4,643.476 L1484.4,639.326 L1471.95,639.326 "/>
<path class="Lyrics" d="M1471.95,579.341 L1471.95,583.491 L1484.4,583.491 L1484.4,579.341 L1471.95,579.341 "/>
<path class="Lyrics" d="M855.957,1022.89 L855.957,1019.69 L849.307,1019.69 L849.307,1004.89 L845.507,1004.89 L845.507,1037.14 L849.307,1037.14 L849.307,1022.89 L855.957,1022.89 M851.007,1047.19 L851.007,1043.99 L825.707,1043.99 L825.707,1035.99 L821.907,1035.99 L821.907,1047.19 L851.007,1047.19 M834.357,1009.79 L834.357,1006.44 L821.757,1006.44 L821.757,1009.79 L834.357,1009.79 M841.107,1016.24 L841.107,1013.09 L815.507,1013.09 L815.507,1016.24 L841.107,1016.24 M838.607,1026.24 C838.607,1021.54 834.207,1018.59 828.307,1018.59 C822.457,1018.59 818.057,1021.54 818.057,1026.24 C818.057,1030.84 822.507,1033.89 828.307,1033.89 C834.207,1033.89 838.607,1030.84 838.607,1026.24 M835.007,1026.24 C835.007,1029.09 831.857,1030.84 828.307,1030.84 C824.807,1030.84 821.657,1029.09 821.657,1026.24 C821.657,1023.34 824.807,1021.59 828.307,1021.59 C831.857,1021.59 835.007,1023.34 835.007,1026.24"/>
<path class="Lyrics" d="M828.757,1067.32 C822.757,1067.32 817.757,1071.47 817.757,1077.62 C817.757,1083.82 822.757,1087.72 828.757,1087.72 C834.757,1087.72 839.757,1083.77 839.757,1077.57 C839.757,1071.42 834.757,1067.32 828.757,1067.32 M828.757,1070.62 C833.107,1070.62 835.957,1073.47 835.957,1077.62 C835.957,1081.77 833.057,1084.57 828.757,1084.57 C824.607,1084.57 821.557,1081.77 821.557,1077.57 C821.557,1073.47 824.557,1070.62 828.757,1070.62 M853.707,1107.87 L853.707,1104.72 L846.957,1104.72 C847.557,1102.12 848.057,1099.52 848.607,1096.87 L844.957,1096.32 L843.457,1104.72 L834.007,1104.72 L832.907,1096.27 L829.057,1096.82 L830.507,1104.72 L823.657,1104.72 L823.657,1107.87 L853.707,1107.87 M852.907,1089.17 L852.907,1064.87 L849.107,1064.87 L849.107,1075.87 L841.557,1075.87 L841.557,1079.02 L849.107,1079.02 L849.107,1089.17 L852.907,1089.17 M853.257,1094.62 L853.257,1091.42 L824.107,1091.42 L824.107,1094.62 L853.257,1094.62 "/>
<path class="Lyrics" d="M853.604,1142.45 C846.904,1141.7 837.954,1137.25 837.754,1131.1 L851.804,1131.1 L851.804,1127.95 L819.604,1127.95 L819.604,1131.1 L833.754,1131.1 C833.554,1137.2 825.104,1141.8 817.954,1142.55 L819.704,1145.75 C827.154,1144.5 833.954,1140 835.704,1135.9 C837.704,1140 844.654,1144.4 851.804,1145.65 L853.604,1142.45 M837.554,1168.55 L837.554,1152.9 L855.454,1152.9 L855.454,1149.7 L816.004,1149.7 L816.004,1152.9 L833.754,1152.9 L833.754,1168.55 L837.554,1168.55 "/>
<path class="Lyrics" d="M1418.67,694.66 L1418.67,691.46 L1391.57,691.46 L1391.57,686.06 L1417.47,686.06 L1417.47,674.81 L1387.67,674.81 L1387.67,678.01 L1413.67,678.01 L1413.67,682.91 L1387.77,682.91 L1387.77,694.66 L1418.67,694.66 M1404.47,716.36 L1404.47,702.46 L1422.37,702.46 L1422.37,699.26 L1382.92,699.26 L1382.92,702.46 L1400.67,702.46 L1400.67,716.36 L1404.47,716.36 "/>
<path class="Lyrics" d="M1420,644.776 L1420,613.026 L1416.2,613.026 L1416.2,644.776 L1420,644.776 M1410.7,634.826 C1405.5,632.976 1399.6,627.576 1399.6,620.276 L1399.6,615.526 L1395.75,615.526 L1395.75,620.376 C1395.75,627.376 1390.1,633.776 1384.35,636.326 L1386.65,639.326 C1391.4,636.926 1396.45,631.876 1397.75,627.176 C1399.55,631.776 1404.05,635.926 1408.55,637.876 L1410.7,634.826 M1420.95,655.376 L1420.95,652.226 L1395.6,652.226 L1395.6,641.926 L1391.8,641.926 L1391.8,655.376 L1420.95,655.376 "/>
<path class="Lyrics" d="M1422.37,591.191 L1422.37,587.991 L1404.47,587.991 L1404.47,577.541 L1417.52,577.541 L1417.52,556.941 L1387.67,556.941 L1387.67,577.541 L1400.67,577.541 L1400.67,587.991 L1382.92,587.991 L1382.92,591.191 L1422.37,591.191 M1413.72,574.391 L1391.47,574.391 L1391.47,560.091 L1413.72,560.091 L1413.72,574.391 "/>
<path class="Lyrics" d="M1344.36,716.71 L1344.36,673.01 L1340.56,673.01 L1340.56,716.71 L1344.36,716.71 M1309.86,691.71 C1309.86,701.01 1313.96,707.21 1321.11,707.21 C1328.36,707.21 1332.41,701.01 1332.41,691.76 C1332.41,682.51 1328.36,676.31 1321.11,676.31 C1313.96,676.31 1309.86,682.51 1309.86,691.71 M1328.81,691.76 C1328.81,698.91 1325.76,703.91 1321.11,703.91 C1316.51,703.91 1313.46,698.91 1313.46,691.76 C1313.46,684.56 1316.51,679.61 1321.11,679.61 C1325.76,679.61 1328.81,684.56 1328.81,691.76"/>
<path class="Lyrics" d="M1337.4,654.526 L1337.4,614.076 L1333.7,614.076 L1333.7,625.026 L1327.25,625.026 L1327.25,628.226 L1333.7,628.226 L1333.7,636.226 L1326.25,636.226 L1326.25,639.376 L1333.7,639.376 L1333.7,654.526 L1337.4,654.526 M1345.7,656.726 L1345.7,613.026 L1341.95,613.026 L1341.95,656.726 L1345.7,656.726 M1326.75,618.476 L1310.2,618.476 L1310.2,621.676 L1322.95,621.676 C1322.35,630.776 1317.65,639.576 1308.55,644.526 L1311.05,647.376 C1321.15,640.926 1326.45,631.826 1326.75,618.476"/>
<path class="Lyrics" d="M975.006,1017.79 L975.006,1014.59 L968.356,1014.59 L968.356,1004.89 L964.556,1004.89 L964.556,1027.24 L968.356,1027.24 L968.356,1017.79 L975.006,1017.79 M969.956,1048.29 L969.956,1045.14 L944.306,1045.14 L944.306,1040.14 L968.356,1040.14 L968.356,1029.64 L940.506,1029.64 L940.506,1032.79 L964.556,1032.79 L964.556,1037.19 L940.506,1037.19 L940.506,1048.29 L969.956,1048.29 M957.056,1025.49 L957.056,1007.64 L936.306,1007.64 L936.306,1025.49 L957.056,1025.49 M953.256,1022.34 L940.106,1022.34 L940.106,1010.79 L953.256,1010.79 L953.256,1022.34 "/>
<path class="Lyrics" d="M972.318,1108.57 L972.318,1064.87 L968.518,1064.87 L968.518,1108.57 L972.318,1108.57 M942.768,1094.22 L942.768,1072.42 L959.818,1072.42 L959.818,1069.22 L938.968,1069.22 L938.968,1097.57 L944.218,1097.57 C951.818,1097.42 959.118,1096.87 963.818,1095.97 L963.368,1092.82 C957.618,1093.92 949.168,1094.42 942.768,1094.22"/>
<path class="Lyrics" d="M972.377,1167.9 L972.377,1151.9 L943.727,1151.9 L943.727,1167.9 L972.377,1167.9 M968.577,1164.75 L947.527,1164.75 L947.527,1155 L968.577,1155 L968.577,1164.75 M968.577,1124.85 L968.577,1149.15 L972.377,1149.15 L972.377,1124.85 L968.577,1124.85 M964.477,1140.95 C958.877,1142.1 949.077,1143.1 942.727,1142.85 L942.727,1127.1 L938.927,1127.1 L938.927,1146.2 L941.427,1146.2 C949.027,1146.2 960.077,1145.25 964.927,1144.2 L964.477,1140.95 "/>
<path class="Lyrics" d="M1346.84,575.141 L1346.84,571.941 L1307.39,571.941 L1307.39,575.141 L1346.84,575.141 M1342.44,561.241 C1342.44,556.441 1336.64,553.641 1327.14,553.641 C1317.74,553.641 1311.94,556.441 1311.94,561.241 C1311.94,566.041 1317.74,568.791 1327.14,568.791 C1336.64,568.791 1342.44,566.041 1342.44,561.241 M1327.14,556.741 C1334.09,556.741 1338.59,558.491 1338.59,561.241 C1338.59,563.941 1334.09,565.641 1327.14,565.641 C1320.29,565.641 1315.84,563.941 1315.84,561.241 C1315.84,558.491 1320.29,556.741 1327.14,556.741 M1343.34,596.341 L1343.34,593.241 L1315.79,593.241 L1315.79,588.841 L1341.89,588.841 L1341.89,579.041 L1311.89,579.041 L1311.89,582.091 L1338.09,582.091 L1338.09,585.941 L1311.99,585.941 L1311.99,596.341 L1343.34,596.341 "/>
<path class="Lyrics" d="M460.171,1026.54 L460.171,1023.34 L453.071,1023.34 L453.071,1004.89 L449.271,1004.89 L449.271,1048.59 L453.071,1048.59 L453.071,1026.54 L460.171,1026.54 M438.621,1011.14 L438.621,1007.89 L425.771,1007.89 L425.771,1011.14 L438.621,1011.14 M445.071,1018.54 L445.071,1015.39 L419.271,1015.39 L419.271,1018.54 L445.071,1018.54 M442.471,1030.39 C442.471,1025.24 438.371,1021.34 432.271,1021.34 C426.171,1021.34 422.071,1025.29 422.071,1030.39 C422.071,1035.49 426.171,1039.39 432.271,1039.39 C438.371,1039.39 442.471,1035.44 442.471,1030.39 M438.671,1030.39 C438.671,1033.79 436.021,1036.24 432.271,1036.24 C428.621,1036.24 425.871,1033.79 425.871,1030.39 C425.871,1026.94 428.621,1024.54 432.271,1024.54 C435.971,1024.54 438.671,1026.94 438.671,1030.39"/>
<path class="Lyrics" d="M1009.77,1031.19 L1009.77,1035.34 L1022.22,1035.34 L1022.22,1031.19 L1009.77,1031.19 "/>
<path class="Lyrics" d="M1009.77,1091.17 L1009.77,1095.32 L1022.22,1095.32 L1022.22,1091.17 L1009.77,1091.17 "/>
<path class="Lyrics" d="M1009.77,1151.15 L1009.77,1155.3 L1022.22,1155.3 L1022.22,1151.15 L1009.77,1151.15 "/>
<path class="Lyrics" d="M1691.24,716.71 L1691.24,673.01 L1687.44,673.01 L1687.44,716.71 L1691.24,716.71 M1678.39,677.66 L1657.59,677.66 L1657.59,680.86 L1674.34,680.86 C1673.54,690.71 1667.04,700.21 1655.99,705.06 L1658.19,708.06 C1669.49,702.71 1678.19,691.86 1678.39,677.66"/>
<path class="Lyrics" d="M1223.53,705.01 C1217.93,703.06 1211.43,696.61 1211.43,688.46 L1211.43,687.16 L1221.63,687.16 L1221.63,684.01 L1197.28,684.01 L1197.28,687.16 L1207.53,687.16 L1207.53,688.51 C1207.53,696.66 1201.68,703.41 1195.93,706.16 L1198.18,708.96 C1202.93,706.46 1208.33,700.51 1209.58,695.86 C1211.13,700.41 1216.78,705.86 1221.53,708.06 L1223.53,705.01 M1231.73,716.71 L1231.73,673.01 L1227.88,673.01 L1227.88,716.71 L1231.73,716.71 M1216.13,679.06 L1216.13,675.61 L1202.88,675.61 L1202.88,679.06 L1216.13,679.06 "/>
<path class="Lyrics" d="M1196.26,631.526 C1196.26,640.826 1200.26,646.976 1207.31,646.976 C1213.96,646.976 1217.86,641.476 1218.26,633.076 L1227.61,633.076 L1227.61,656.726 L1231.41,656.726 L1231.41,613.026 L1227.61,613.026 L1227.61,629.826 L1218.26,629.826 C1217.76,621.526 1213.91,616.076 1207.31,616.076 C1200.26,616.076 1196.26,622.276 1196.26,631.526 M1214.56,631.576 C1214.56,638.676 1211.61,643.676 1207.31,643.676 C1202.96,643.676 1200.06,638.676 1200.06,631.576 C1200.06,624.376 1202.96,619.376 1207.31,619.376 C1211.61,619.376 1214.56,624.376 1214.56,631.576"/>
<path class="Lyrics" d="M1096.07,1028.89 L1096.07,1025.69 L1056.62,1025.69 L1056.62,1028.89 L1096.07,1028.89 M1090.97,1047.99 L1090.97,1033.29 L1061.67,1033.29 L1061.67,1047.99 L1090.97,1047.99 M1087.17,1044.84 L1065.47,1044.84 L1065.47,1036.44 L1087.17,1036.44 L1087.17,1044.84 M1076.07,1017.34 C1072.62,1016.19 1069.72,1013.19 1069.72,1008.79 L1069.72,1006.24 L1066.07,1006.24 L1066.07,1008.64 C1066.07,1013.29 1062.67,1017.69 1057.72,1019.54 L1059.97,1022.24 C1063.77,1020.59 1066.87,1017.34 1067.92,1014.54 C1068.92,1016.74 1071.52,1018.94 1073.87,1020.09 L1076.07,1017.34 M1095.02,1018.79 C1090.82,1017.29 1087.27,1013.54 1087.27,1008.69 L1087.27,1005.99 L1083.62,1005.99 L1083.62,1008.84 C1083.62,1013.79 1080.07,1017.89 1075.62,1019.64 L1077.82,1022.29 C1081.37,1020.74 1084.57,1017.29 1085.52,1014.59 C1086.52,1017.39 1089.77,1020.29 1092.82,1021.49 L1095.02,1018.79 "/>
<path class="Lyrics" d="M1058.78,1083.37 C1058.78,1092.67 1062.78,1098.82 1069.83,1098.82 C1076.48,1098.82 1080.38,1093.32 1080.78,1084.92 L1090.13,1084.92 L1090.13,1108.57 L1093.93,1108.57 L1093.93,1064.87 L1090.13,1064.87 L1090.13,1081.67 L1080.78,1081.67 C1080.28,1073.37 1076.43,1067.92 1069.83,1067.92 C1062.78,1067.92 1058.78,1074.12 1058.78,1083.37 M1077.08,1083.42 C1077.08,1090.52 1074.13,1095.52 1069.83,1095.52 C1065.48,1095.52 1062.58,1090.52 1062.58,1083.42 C1062.58,1076.22 1065.48,1071.22 1069.83,1071.22 C1074.13,1071.22 1077.08,1076.22 1077.08,1083.42"/>
<path class="Lyrics" d="M1096.07,1146.95 L1096.07,1143.75 L1056.62,1143.75 L1056.62,1146.95 L1096.07,1146.95 M1091.67,1133.05 C1091.67,1128.25 1085.87,1125.45 1076.37,1125.45 C1066.97,1125.45 1061.17,1128.25 1061.17,1133.05 C1061.17,1137.85 1066.97,1140.6 1076.37,1140.6 C1085.87,1140.6 1091.67,1137.85 1091.67,1133.05 M1076.37,1128.55 C1083.32,1128.55 1087.82,1130.3 1087.82,1133.05 C1087.82,1135.75 1083.32,1137.45 1076.37,1137.45 C1069.52,1137.45 1065.07,1135.75 1065.07,1133.05 C1065.07,1130.3 1069.52,1128.55 1076.37,1128.55 M1092.57,1168.15 L1092.57,1165.05 L1065.02,1165.05 L1065.02,1160.65 L1091.12,1160.65 L1091.12,1150.85 L1061.12,1150.85 L1061.12,1153.9 L1087.32,1153.9 L1087.32,1157.75 L1061.22,1157.75 L1061.22,1168.15 L1092.57,1168.15 "/>
<path class="Lyrics" d="M1808.77,556.841 C1802.42,556.841 1799.17,563.041 1799.17,571.791 C1799.17,580.591 1802.42,586.741 1808.77,586.741 C1814.77,586.741 1817.97,581.391 1818.37,573.491 L1823.07,573.491 L1823.07,594.641 L1826.77,594.641 L1826.77,553.891 L1823.07,553.891 L1823.07,570.341 L1818.37,570.341 C1818.07,562.391 1814.82,556.841 1808.77,556.841 M1814.62,571.791 C1814.62,578.891 1812.32,583.391 1808.77,583.391 C1805.27,583.391 1803.02,578.891 1803.02,571.791 C1803.02,564.741 1805.27,560.191 1808.77,560.191 C1812.32,560.191 1814.62,564.741 1814.62,571.791 M1835.32,596.741 L1835.32,553.041 L1831.57,553.041 L1831.57,596.741 L1835.32,596.741 "/>
<path class="Lyrics" d="M1230.55,596.091 L1230.55,580.091 L1201.9,580.091 L1201.9,596.091 L1230.55,596.091 M1226.75,592.941 L1205.7,592.941 L1205.7,583.191 L1226.75,583.191 L1226.75,592.941 M1226.75,553.041 L1226.75,577.341 L1230.55,577.341 L1230.55,553.041 L1226.75,553.041 M1222.65,569.141 C1217.05,570.291 1207.25,571.291 1200.9,571.041 L1200.9,555.291 L1197.1,555.291 L1197.1,574.391 L1199.6,574.391 C1207.2,574.391 1218.25,573.441 1223.1,572.391 L1222.65,569.141 "/>
<path class="Lyrics" d="M1110.38,695.11 L1110.38,673.01 L1106.58,673.01 L1106.58,695.11 L1110.38,695.11 M1111.98,716.11 L1111.98,713.01 L1085.88,713.01 L1085.88,708.01 L1110.38,708.01 L1110.38,697.41 L1081.93,697.41 L1081.93,700.51 L1106.58,700.51 L1106.58,705.06 L1082.08,705.06 L1082.08,716.11 L1111.98,716.11 M1087.23,674.36 C1080.93,674.36 1075.83,678.36 1075.83,684.26 C1075.83,690.21 1080.98,694.01 1087.23,694.01 C1093.48,694.01 1098.53,690.16 1098.53,684.26 C1098.53,678.31 1093.48,674.36 1087.23,674.36 M1087.23,677.66 C1091.78,677.66 1094.83,680.36 1094.83,684.26 C1094.83,688.11 1091.78,690.71 1087.23,690.71 C1082.88,690.71 1079.53,688.11 1079.53,684.21 C1079.53,680.31 1082.93,677.66 1087.23,677.66"/>
<path class="Lyrics" d="M1148.49,1028.99 L1148.49,1008.74 L1127.79,1008.74 L1127.79,1028.99 L1148.49,1028.99 M1144.69,1025.84 L1131.59,1025.84 L1131.59,1011.89 L1144.69,1011.89 L1144.69,1025.84 M1166.54,1021.14 L1166.54,1017.94 L1159.89,1017.94 L1159.89,1004.89 L1156.09,1004.89 L1156.09,1036.64 L1159.89,1036.64 L1159.89,1021.14 L1166.54,1021.14 M1161.59,1047.09 L1161.59,1043.94 L1136.34,1043.94 L1136.34,1033.64 L1132.54,1033.64 L1132.54,1047.09 L1161.59,1047.09 "/>
<path class="Lyrics" d="M1164.95,1100.07 C1164.95,1095.02 1159.55,1091.82 1150.1,1091.82 C1140.55,1091.82 1135.2,1095.02 1135.2,1100.07 C1135.2,1105.17 1140.55,1108.37 1150.1,1108.37 C1159.55,1108.37 1164.95,1105.17 1164.95,1100.07 M1150.1,1095.02 C1157,1095.02 1161.05,1096.87 1161.05,1100.07 C1161.05,1103.32 1157,1105.22 1150.1,1105.22 C1143.2,1105.22 1139.15,1103.32 1139.15,1100.07 C1139.15,1096.87 1143.2,1095.02 1150.1,1095.02 M1151.15,1085.07 L1160.8,1085.07 L1160.8,1092.47 L1164.6,1092.47 L1164.6,1064.87 L1160.8,1064.87 L1160.8,1072.77 L1151.85,1072.77 L1151.85,1075.92 L1160.8,1075.92 L1160.8,1081.92 L1151.15,1081.92 L1151.15,1085.07 M1151.4,1068.27 L1131.3,1068.27 L1131.3,1071.52 L1147.1,1071.52 C1145.8,1078.92 1138.4,1086.17 1129.4,1088.67 L1131.3,1091.92 C1142.85,1087.87 1150.75,1079.27 1151.4,1068.27"/>
<path class="Lyrics" d="M1153.64,1141.5 L1153.64,1126.3 L1149.79,1126.3 L1149.79,1130.9 L1137.09,1130.9 L1137.09,1126.35 L1133.29,1126.35 L1133.29,1141.5 L1141.29,1141.5 L1141.29,1146.55 C1136.79,1146.75 1132.59,1146.75 1129.24,1146.75 L1129.89,1150.15 C1132.99,1150.1 1138.29,1149.9 1143.29,1149.65 C1148.44,1149.35 1155.09,1148.9 1158.44,1148.4 L1158.09,1145.35 C1155.24,1145.8 1149.99,1146.1 1145.09,1146.4 L1145.09,1141.5 L1153.64,1141.5 M1165.09,1167.95 L1165.09,1152.6 L1161.29,1152.6 L1161.29,1157.1 L1140.44,1157.1 L1140.44,1152.7 L1136.64,1152.7 L1136.64,1167.95 L1165.09,1167.95 M1161.29,1164.85 L1140.44,1164.85 L1140.44,1160.2 L1161.29,1160.2 L1161.29,1164.85 M1165.09,1150.25 L1165.09,1124.85 L1161.29,1124.85 L1161.29,1150.25 L1165.09,1150.25 M1149.79,1138.35 L1137.09,1138.35 L1137.09,1134.05 L1149.79,1134.05 L1149.79,1138.35 "/>
<path class="Lyrics" d="M1831.24,625.926 L1831.24,636.826 L1822.39,636.826 L1822.39,639.976 L1831.24,639.976 L1831.24,656.726 L1835.04,656.726 L1835.04,613.026 L1831.24,613.026 L1831.24,622.776 L1822.39,622.776 L1822.39,625.926 L1831.24,625.926 M1799.44,631.526 C1799.44,640.826 1803.34,646.976 1810.24,646.976 C1817.24,646.976 1821.09,640.826 1821.09,631.576 C1821.09,622.276 1817.24,616.076 1810.24,616.076 C1803.34,616.076 1799.44,622.276 1799.44,631.526 M1817.34,631.576 C1817.34,638.676 1814.54,643.676 1810.24,643.676 C1806.04,643.676 1803.19,638.676 1803.19,631.576 C1803.19,624.376 1806.04,619.376 1810.24,619.376 C1814.54,619.376 1817.34,624.376 1817.34,631.576"/>
<path class="Lyrics" d="M1108.63,656.126 L1108.63,642.076 L1095.78,642.076 L1095.78,636.326 L1113.63,636.326 L1113.63,633.176 L1074.18,633.176 L1074.18,636.326 L1091.98,636.326 L1091.98,642.076 L1079.23,642.076 L1079.23,656.126 L1108.63,656.126 M1104.78,652.976 L1083.03,652.976 L1083.03,645.176 L1104.78,645.176 L1104.78,652.976 M1091.93,615.076 C1091.93,621.176 1083.23,626.076 1076.38,626.826 L1078.18,630.076 C1084.78,628.826 1091.83,624.526 1093.88,619.976 C1095.98,624.526 1103.23,628.876 1109.68,630.076 L1111.43,626.876 C1104.88,626.176 1095.88,621.176 1095.88,615.076 L1095.88,613.576 L1091.93,613.576 L1091.93,615.076 "/>
<path class="Lyrics" d="M1111.78,570.641 C1105.08,569.891 1096.13,565.441 1095.93,559.291 L1109.98,559.291 L1109.98,556.141 L1077.78,556.141 L1077.78,559.291 L1091.93,559.291 C1091.73,565.391 1083.28,569.991 1076.13,570.741 L1077.88,573.941 C1085.33,572.691 1092.13,568.191 1093.88,564.091 C1095.88,568.191 1102.83,572.591 1109.98,573.841 L1111.78,570.641 M1095.73,596.741 L1095.73,581.091 L1113.63,581.091 L1113.63,577.891 L1074.18,577.891 L1074.18,581.091 L1091.93,581.091 L1091.93,596.741 L1095.73,596.741 "/>
<path class="Lyrics" d="M1238.45,1026.54 L1238.45,1023.34 L1231.35,1023.34 L1231.35,1004.89 L1227.55,1004.89 L1227.55,1048.59 L1231.35,1048.59 L1231.35,1026.54 L1238.45,1026.54 M1216.9,1011.14 L1216.9,1007.89 L1204.05,1007.89 L1204.05,1011.14 L1216.9,1011.14 M1223.35,1018.54 L1223.35,1015.39 L1197.55,1015.39 L1197.55,1018.54 L1223.35,1018.54 M1220.75,1030.39 C1220.75,1025.24 1216.65,1021.34 1210.55,1021.34 C1204.45,1021.34 1200.35,1025.29 1200.35,1030.39 C1200.35,1035.49 1204.45,1039.39 1210.55,1039.39 C1216.65,1039.39 1220.75,1035.44 1220.75,1030.39 M1216.95,1030.39 C1216.95,1033.79 1214.3,1036.24 1210.55,1036.24 C1206.9,1036.24 1204.15,1033.79 1204.15,1030.39 C1204.15,1026.94 1206.9,1024.54 1210.55,1024.54 C1214.25,1024.54 1216.95,1026.94 1216.95,1030.39"/>
<path class="Lyrics" d="M1217.74,1097.62 L1217.74,1069.22 L1213.99,1069.22 L1213.99,1079.92 L1204.04,1079.92 L1204.04,1069.22 L1200.29,1069.22 L1200.29,1097.62 L1217.74,1097.62 M1235.69,1108.57 L1235.69,1064.87 L1231.94,1064.87 L1231.94,1082.82 L1226.59,1082.82 L1226.59,1065.92 L1222.89,1065.92 L1222.89,1106.37 L1226.59,1106.37 L1226.59,1086.02 L1231.94,1086.02 L1231.94,1108.57 L1235.69,1108.57 M1213.99,1094.42 L1204.04,1094.42 L1204.04,1083.07 L1213.99,1083.07 L1213.99,1094.42 "/>
<path class="Lyrics" d="M1236.64,1168.55 L1236.64,1124.85 L1232.89,1124.85 L1232.89,1168.55 L1236.64,1168.55 M1228.14,1166.35 L1228.14,1125.9 L1224.49,1125.9 L1224.49,1141.85 L1217.14,1141.85 L1217.14,1145.05 L1224.49,1145.05 L1224.49,1166.35 L1228.14,1166.35 M1218.24,1129.95 L1201.04,1129.95 L1201.04,1133.15 L1214.34,1133.15 C1213.89,1142.05 1208.49,1151.25 1199.34,1156.4 L1201.94,1159.2 C1212.24,1152.55 1217.94,1142.95 1218.24,1129.95"/>
<path class="Lyrics" d="M279.537,1025.84 L279.537,1006.59 L275.737,1006.59 L275.737,1013.04 L253.487,1013.04 L253.487,1006.59 L249.637,1006.59 L249.637,1025.84 L279.537,1025.84 M266.437,1048.64 L266.437,1034.24 L284.337,1034.24 L284.337,1031.04 L244.887,1031.04 L244.887,1034.24 L262.637,1034.24 L262.637,1048.64 L266.437,1048.64 M275.737,1022.69 L253.487,1022.69 L253.487,1016.14 L275.737,1016.14 L275.737,1022.69 "/>
<path class="Lyrics" d="M370.814,1067.27 C364.564,1067.27 359.464,1071.47 359.464,1077.82 C359.464,1084.22 364.564,1088.17 370.814,1088.17 C377.014,1088.17 382.114,1084.22 382.114,1077.77 C382.114,1071.47 377.014,1067.27 370.814,1067.27 M370.814,1070.37 C375.414,1070.37 378.464,1073.47 378.464,1077.82 C378.464,1082.12 375.364,1085.07 370.814,1085.07 C366.414,1085.07 363.164,1082.12 363.164,1077.77 C363.164,1073.47 366.414,1070.37 370.814,1070.37 M399.264,1081.27 L392.614,1081.27 L392.614,1074.92 L399.264,1074.92 L399.264,1071.72 L392.614,1071.72 L392.614,1064.87 L388.814,1064.87 L388.814,1090.72 L392.614,1090.72 L392.614,1084.47 L399.264,1084.47 L399.264,1081.27 M392.664,1108.57 L392.664,1092.87 L364.464,1092.87 L364.464,1096.02 L388.814,1096.02 L388.814,1108.57 L392.664,1108.57 "/>
<path class="Lyrics" d="M852.018,709.31 C852.018,704.46 846.768,701.76 836.968,701.76 C827.218,701.76 822.018,704.66 822.018,709.31 C822.018,714.06 827.218,716.91 836.968,716.91 C846.768,716.91 852.018,714.11 852.018,709.31 M854.618,689.61 C848.418,689.11 840.668,686.41 839.168,682.21 L852.518,682.21 L852.518,679.06 L821.418,679.06 L821.418,682.21 L834.868,682.21 C833.468,686.41 826.268,689.16 819.468,689.66 L821.118,692.81 C827.868,692.01 834.768,689.21 836.968,685.01 C839.318,689.11 846.568,691.96 852.918,692.81 L854.618,689.61 M836.968,704.96 C843.918,704.96 848.118,706.51 848.118,709.31 C848.118,712.11 843.918,713.66 836.968,713.66 C830.118,713.66 825.918,712.11 825.918,709.31 C825.918,706.51 830.118,704.96 836.968,704.96 M856.718,699.01 L856.718,695.86 L838.818,695.86 L838.818,690.41 L835.018,690.41 L835.018,695.86 L817.268,695.86 L817.268,699.01 L856.718,699.01 M843.968,676.26 L843.968,673.11 L829.968,673.11 L829.968,676.26 L843.968,676.26 "/>
<path class="Lyrics" d="M828.521,616.826 C822.171,616.826 818.921,623.026 818.921,631.776 C818.921,640.576 822.171,646.726 828.521,646.726 C834.521,646.726 837.721,641.376 838.121,633.476 L842.821,633.476 L842.821,654.626 L846.521,654.626 L846.521,613.876 L842.821,613.876 L842.821,630.326 L838.121,630.326 C837.821,622.376 834.571,616.826 828.521,616.826 M834.371,631.776 C834.371,638.876 832.071,643.376 828.521,643.376 C825.021,643.376 822.771,638.876 822.771,631.776 C822.771,624.726 825.021,620.176 828.521,620.176 C832.071,620.176 834.371,624.726 834.371,631.776 M855.071,656.726 L855.071,613.026 L851.321,613.026 L851.321,656.726 L855.071,656.726 "/>
<path class="Lyrics" d="M1333.67,1026.49 C1326.47,1025.09 1317.47,1018.79 1317.47,1011.29 L1317.47,1008.14 L1313.52,1008.14 L1313.52,1011.29 C1313.52,1018.79 1305.02,1025.04 1297.37,1026.49 L1299.37,1029.54 C1307.02,1027.44 1313.77,1022.04 1315.42,1017.04 C1317.32,1021.94 1323.92,1027.39 1331.57,1029.54 L1333.67,1026.49 M1335.22,1043.04 L1335.22,1039.84 L1317.32,1039.84 L1317.32,1028.64 L1313.52,1028.64 L1313.52,1039.84 L1295.77,1039.84 L1295.77,1043.04 L1335.22,1043.04 "/>
<path class="Lyrics" d="M1335.95,1086.52 L1335.95,1083.32 L1328.85,1083.32 L1328.85,1064.87 L1325.05,1064.87 L1325.05,1108.57 L1328.85,1108.57 L1328.85,1086.52 L1335.95,1086.52 M1314.4,1071.12 L1314.4,1067.87 L1301.55,1067.87 L1301.55,1071.12 L1314.4,1071.12 M1320.85,1078.52 L1320.85,1075.37 L1295.05,1075.37 L1295.05,1078.52 L1320.85,1078.52 M1318.25,1090.37 C1318.25,1085.22 1314.15,1081.32 1308.05,1081.32 C1301.95,1081.32 1297.85,1085.27 1297.85,1090.37 C1297.85,1095.47 1301.95,1099.37 1308.05,1099.37 C1314.15,1099.37 1318.25,1095.42 1318.25,1090.37 M1314.45,1090.37 C1314.45,1093.77 1311.8,1096.22 1308.05,1096.22 C1304.4,1096.22 1301.65,1093.77 1301.65,1090.37 C1301.65,1086.92 1304.4,1084.52 1308.05,1084.52 C1311.75,1084.52 1314.45,1086.92 1314.45,1090.37"/>
<path class="Lyrics" d="M1326.72,1158.3 L1326.37,1155.25 C1323.57,1155.65 1318.47,1156 1313.62,1156.2 L1313.62,1147.05 L1323.57,1147.05 L1323.57,1143.9 L1304.52,1143.9 L1304.52,1132.4 L1323.42,1132.4 L1323.42,1129.25 L1300.72,1129.25 L1300.72,1147.05 L1309.82,1147.05 L1309.82,1156.35 C1305.22,1156.5 1300.82,1156.55 1297.47,1156.55 L1298.12,1159.9 C1300.97,1159.9 1307.57,1159.7 1312.42,1159.45 C1317.77,1159.15 1323.27,1158.75 1326.72,1158.3 M1333.52,1168.55 L1333.52,1124.85 L1329.77,1124.85 L1329.77,1168.55 L1333.52,1168.55 "/>
<path class="Lyrics" d="M850.99,565.941 L850.99,576.841 L842.14,576.841 L842.14,579.991 L850.99,579.991 L850.99,596.741 L854.79,596.741 L854.79,553.041 L850.99,553.041 L850.99,562.791 L842.14,562.791 L842.14,565.941 L850.99,565.941 M819.19,571.541 C819.19,580.841 823.09,586.991 829.99,586.991 C836.99,586.991 840.84,580.841 840.84,571.591 C840.84,562.291 836.99,556.091 829.99,556.091 C823.09,556.091 819.19,562.291 819.19,571.541 M837.09,571.591 C837.09,578.691 834.29,583.691 829.99,583.691 C825.79,583.691 822.94,578.691 822.94,571.591 C822.94,564.391 825.79,559.391 829.99,559.391 C834.29,559.391 837.09,564.391 837.09,571.591"/>
<path class="Lyrics" d="M1936.97,1064.87 L1936.97,1108.57 L1940.77,1108.57 L1940.77,1064.87 L1936.97,1064.87 M1930.07,1078.67 C1930.07,1072.27 1925.17,1068.27 1918.72,1068.27 C1912.37,1068.27 1907.32,1072.52 1907.32,1078.67 C1907.32,1084.52 1912.27,1088.82 1918.72,1088.82 C1925.02,1088.82 1930.07,1084.87 1930.07,1078.67 M1926.37,1078.67 C1926.37,1082.77 1922.87,1085.62 1918.72,1085.62 C1914.47,1085.62 1911.02,1082.72 1911.02,1078.67 C1911.02,1074.57 1914.52,1071.52 1918.72,1071.52 C1922.97,1071.52 1926.37,1074.27 1926.37,1078.67 M1934.42,1097.47 L1934.07,1094.37 C1930.87,1094.77 1925.22,1095.12 1919.12,1095.32 C1913.82,1095.62 1908.67,1095.72 1904.92,1095.67 L1905.62,1099.02 C1908.92,1098.97 1913.72,1098.82 1918.87,1098.57 C1924.42,1098.32 1930.67,1097.92 1934.42,1097.47"/>
<path class="Lyrics" d="M736.794,698.66 L736.794,695.46 L697.344,695.46 L697.344,698.66 L736.794,698.66 M732.344,715.46 L732.344,712.26 L706.344,712.26 L706.344,702.71 L702.544,702.71 L702.544,715.46 L732.344,715.46 M732.294,682.86 C732.294,677.36 726.594,674.31 717.094,674.31 C707.594,674.31 701.894,677.36 701.894,682.86 C701.894,688.46 707.544,691.51 717.044,691.51 C726.594,691.51 732.294,688.46 732.294,682.86 M717.094,677.46 C724.044,677.46 728.544,679.26 728.544,682.91 C728.544,686.46 723.994,688.31 717.044,688.31 C710.144,688.31 705.694,686.46 705.694,682.91 C705.694,679.26 710.194,677.46 717.094,677.46"/>
<path class="Lyrics" d="M736.891,629.026 L736.891,625.826 L730.241,625.826 L730.241,613.026 L726.441,613.026 L726.441,644.776 L730.241,644.776 L730.241,629.026 L736.891,629.026 M731.841,655.226 L731.841,652.076 L706.641,652.076 L706.641,641.676 L702.841,641.676 L702.841,655.226 L731.841,655.226 M708.791,616.226 C702.241,616.226 697.241,620.726 697.241,627.276 C697.241,633.876 702.241,638.176 708.841,638.176 C715.391,638.176 720.391,633.826 720.391,627.226 C720.391,620.676 715.341,616.226 708.791,616.226 M708.791,619.476 C713.441,619.476 716.591,622.726 716.591,627.276 C716.591,631.726 713.441,634.926 708.841,634.926 C704.441,634.926 701.041,631.726 701.041,627.226 C701.041,622.726 704.391,619.476 708.791,619.476"/>
<path class="Lyrics" d="M1940.09,1048.59 L1940.09,1004.89 L1936.29,1004.89 L1936.29,1048.59 L1940.09,1048.59 M1905.59,1023.59 C1905.59,1032.89 1909.69,1039.09 1916.84,1039.09 C1924.09,1039.09 1928.14,1032.89 1928.14,1023.64 C1928.14,1014.39 1924.09,1008.19 1916.84,1008.19 C1909.69,1008.19 1905.59,1014.39 1905.59,1023.59 M1924.54,1023.64 C1924.54,1030.79 1921.49,1035.79 1916.84,1035.79 C1912.24,1035.79 1909.19,1030.79 1909.19,1023.64 C1909.19,1016.44 1912.24,1011.49 1916.84,1011.49 C1921.49,1011.49 1924.54,1016.44 1924.54,1023.64"/>
<path class="Lyrics" d="M1453.52,1048.59 L1453.52,1004.89 L1449.72,1004.89 L1449.72,1020.49 L1439.52,1020.49 L1439.52,1023.69 L1449.72,1023.69 L1449.72,1048.59 L1453.52,1048.59 M1443.82,1035.24 C1437.82,1031.74 1432.62,1024.64 1432.62,1016.64 L1432.62,1008.69 L1428.67,1008.69 L1428.67,1016.79 C1428.67,1024.54 1423.62,1032.29 1417.27,1036.29 L1419.77,1039.14 C1424.82,1035.49 1429.12,1030.09 1430.67,1024.64 C1432.42,1029.89 1437.47,1035.44 1441.47,1038.14 L1443.82,1035.24 "/>
<path class="Lyrics" d="M1448.48,1064.87 L1448.48,1108.57 L1452.28,1108.57 L1452.28,1064.87 L1448.48,1064.87 M1444.48,1093.52 C1439.18,1094.47 1430.53,1094.87 1423.58,1094.87 L1422.53,1094.87 L1422.53,1084.42 L1439.13,1084.42 L1439.13,1068.92 L1418.53,1068.92 L1418.53,1072.07 L1435.28,1072.07 L1435.28,1081.27 L1418.73,1081.27 L1418.73,1098.12 L1423.18,1098.12 C1432.78,1098.12 1440.28,1097.37 1444.83,1096.67 L1444.48,1093.52 "/>
<path class="Lyrics" d="M1448.48,1124.85 L1448.48,1168.55 L1452.28,1168.55 L1452.28,1124.85 L1448.48,1124.85 M1444.48,1153.5 C1439.18,1154.45 1430.53,1154.85 1423.58,1154.85 L1422.53,1154.85 L1422.53,1144.4 L1439.13,1144.4 L1439.13,1128.9 L1418.53,1128.9 L1418.53,1132.05 L1435.28,1132.05 L1435.28,1141.25 L1418.73,1141.25 L1418.73,1158.1 L1423.18,1158.1 C1432.78,1158.1 1440.28,1157.35 1444.83,1156.65 L1444.48,1153.5 "/>
<path class="Lyrics" d="M734.944,570.641 C728.244,569.891 719.294,565.441 719.094,559.291 L733.144,559.291 L733.144,556.141 L700.944,556.141 L700.944,559.291 L715.094,559.291 C714.894,565.391 706.444,569.991 699.294,570.741 L701.044,573.941 C708.494,572.691 715.294,568.191 717.044,564.091 C719.044,568.191 725.994,572.591 733.144,573.841 L734.944,570.641 M718.894,596.741 L718.894,581.091 L736.794,581.091 L736.794,577.891 L697.344,577.891 L697.344,581.091 L715.094,581.091 L715.094,596.741 L718.894,596.741 "/>
<path class="Lyrics" d="M398.73,1019.54 L398.73,1016.39 L392.08,1016.39 L392.08,1004.89 L388.28,1004.89 L388.28,1031.04 L392.08,1031.04 L392.08,1019.54 L398.73,1019.54 M392.63,1040.09 C392.63,1035.19 387.58,1031.74 378.13,1031.74 C368.63,1031.74 363.68,1035.09 363.68,1040.09 C363.68,1045.04 368.63,1048.39 378.13,1048.39 C387.58,1048.39 392.63,1044.99 392.63,1040.09 M388.68,1040.09 C388.68,1043.24 384.73,1045.24 378.13,1045.24 C371.53,1045.24 367.63,1043.19 367.63,1040.09 C367.63,1036.99 371.53,1034.94 378.13,1034.94 C384.73,1034.94 388.68,1036.94 388.68,1040.09 M363.78,1024.89 L363.78,1011.59 L379.68,1011.59 L379.68,1008.39 L359.98,1008.39 L359.98,1028.04 L363.53,1028.04 C371.08,1028.04 379.18,1027.39 384.03,1026.54 L383.63,1023.44 C379.38,1024.24 371.98,1024.89 365.93,1024.89 L363.78,1024.89 "/>
<path class="Lyrics" d="M658.891,704.76 L658.891,673.01 L655.091,673.01 L655.091,704.76 L658.891,704.76 M649.591,694.81 C644.391,692.96 638.491,687.56 638.491,680.26 L638.491,675.51 L634.641,675.51 L634.641,680.36 C634.641,687.36 628.991,693.76 623.241,696.31 L625.541,699.31 C630.291,696.91 635.341,691.86 636.641,687.16 C638.441,691.76 642.941,695.91 647.441,697.86 L649.591,694.81 M659.841,715.36 L659.841,712.21 L634.491,712.21 L634.491,701.91 L630.691,701.91 L630.691,715.36 L659.841,715.36 "/>
<path class="Lyrics" d="M644.334,627.276 L644.334,624.076 L623.584,624.076 L623.584,627.276 L631.984,627.276 L631.984,628.826 C631.984,636.976 627.734,642.426 622.734,645.476 L624.884,648.076 C629.034,645.526 632.934,640.826 633.934,636.226 C635.184,640.776 639.284,644.926 642.884,646.926 L645.134,644.126 C640.684,641.826 635.884,636.926 635.884,628.726 L635.884,627.276 L644.334,627.276 M647.834,635.126 L647.834,654.526 L651.534,654.526 L651.534,614.076 L647.834,614.076 L647.834,631.976 L640.884,631.976 L640.884,635.126 L647.834,635.126 M660.334,656.726 L660.334,613.026 L656.584,613.026 L656.584,656.726 L660.334,656.726 M628.234,619.876 L639.784,619.876 L639.784,616.476 L628.234,616.476 L628.234,619.876 "/>
<path class="Lyrics" d="M655.666,553.041 L655.666,596.741 L659.466,596.741 L659.466,553.041 L655.666,553.041 M648.766,566.841 C648.766,560.441 643.866,556.441 637.416,556.441 C631.066,556.441 626.016,560.691 626.016,566.841 C626.016,572.691 630.966,576.991 637.416,576.991 C643.716,576.991 648.766,573.041 648.766,566.841 M645.066,566.841 C645.066,570.941 641.566,573.791 637.416,573.791 C633.166,573.791 629.716,570.891 629.716,566.841 C629.716,562.741 633.216,559.691 637.416,559.691 C641.666,559.691 645.066,562.441 645.066,566.841 M653.116,585.641 L652.766,582.541 C649.566,582.941 643.916,583.291 637.816,583.491 C632.516,583.791 627.366,583.891 623.616,583.841 L624.316,587.191 C627.616,587.141 632.416,586.991 637.566,586.741 C643.116,586.491 649.366,586.091 653.116,585.641"/>
<path class="Lyrics" d="M1668.75,1048.59 L1668.75,1004.89 L1665,1004.89 L1665,1022.29 L1659.25,1022.29 L1659.25,1005.94 L1655.55,1005.94 L1655.55,1046.34 L1659.25,1046.34 L1659.25,1025.49 L1665,1025.49 L1665,1048.59 L1668.75,1048.59 M1652.6,1032.39 C1649.4,1033.24 1642.15,1033.84 1637.6,1033.74 L1637.6,1009.69 L1633.8,1009.69 L1633.8,1037.04 L1637.15,1037.04 C1642.7,1037.04 1649.4,1036.44 1653.05,1035.59 L1652.6,1032.39 "/>
<path class="Lyrics" d="M1664.98,1078.82 L1664.98,1091.02 L1668.73,1091.02 L1668.73,1064.87 L1664.98,1064.87 L1664.98,1075.82 L1657.23,1075.82 L1657.23,1078.82 L1664.98,1078.82 M1668.78,1108.57 L1668.78,1093.32 L1639.13,1093.32 L1639.13,1096.47 L1664.98,1096.47 L1664.98,1108.57 L1668.78,1108.57 M1645.83,1086.82 L1645.33,1083.77 C1642.83,1084.37 1639.88,1084.72 1637.53,1084.72 L1637.53,1071.27 L1644.48,1071.27 L1644.48,1068.12 L1633.78,1068.12 L1633.78,1087.92 C1638.53,1088.02 1642.48,1087.57 1645.83,1086.82 M1661.48,1086.77 L1660.98,1083.77 C1658.43,1084.37 1654.23,1084.77 1650.98,1084.77 L1650.98,1071.27 L1659.18,1071.27 L1659.18,1068.12 L1647.23,1068.12 L1647.23,1087.97 C1652.63,1087.97 1658.03,1087.57 1661.48,1086.77"/>
<path class="Lyrics" d="M1668.1,1156.75 L1668.1,1124.85 L1664.3,1124.85 L1664.3,1156.75 L1668.1,1156.75 M1669.2,1167.1 L1669.2,1163.95 L1643.4,1163.95 L1643.4,1153.6 L1639.6,1153.6 L1639.6,1167.1 L1669.2,1167.1 M1645.1,1127.75 C1638.5,1127.75 1633.35,1132.2 1633.35,1138.7 C1633.35,1145.2 1638.5,1149.5 1645.15,1149.5 C1651.8,1149.5 1656.9,1145.15 1656.9,1138.65 C1656.9,1132.15 1651.75,1127.75 1645.1,1127.75 M1645.1,1131.05 C1649.95,1131.05 1653.3,1134.2 1653.3,1138.7 C1653.3,1143.05 1649.95,1146.15 1645.15,1146.15 C1640.55,1146.15 1637,1143.05 1637,1138.65 C1637,1134.2 1640.5,1131.05 1645.1,1131.05"/>
<path class="Lyrics" d="M1836.97,697.56 L1836.97,694.41 L1797.52,694.41 L1797.52,697.56 L1836.97,697.56 M1832.17,716.06 L1832.17,701.66 L1802.32,701.66 L1802.32,716.06 L1832.17,716.06 M1828.37,712.91 L1806.17,712.91 L1806.17,704.81 L1828.37,704.81 L1828.37,712.91 M1815.47,690.31 L1815.47,674.31 L1811.87,674.31 L1811.87,679.31 L1805.27,679.31 L1805.27,674.36 L1801.62,674.36 L1801.62,690.31 L1815.47,690.31 M1811.87,687.26 L1805.27,687.26 L1805.27,682.26 L1811.87,682.26 L1811.87,687.26 M1832.77,690.31 L1832.77,674.31 L1829.22,674.31 L1829.22,679.31 L1822.47,679.31 L1822.47,674.36 L1818.87,674.36 L1818.87,690.31 L1832.77,690.31 M1829.22,687.26 L1822.47,687.26 L1822.47,682.26 L1829.22,682.26 L1829.22,687.26 "/>
<path class="Lyrics" d="M380.675,558.041 C378.975,560.091 374.375,561.641 369.775,561.741 L369.775,563.891 L374.175,563.891 C377.075,563.941 377.375,564.241 377.275,567.041 L377.275,587.091 C377.275,589.641 377.275,589.741 376.975,590.191 C376.575,590.691 375.625,590.891 372.825,590.891 L369.575,590.891 L369.575,593.241 L389.375,593.241 L389.375,590.891 L386.625,590.891 C383.825,590.891 382.875,590.691 382.475,590.191 C382.125,589.741 382.125,589.691 382.125,587.091 L382.125,566.441 C382.125,563.641 382.225,561.291 382.475,558.041 L380.675,558.041 M399.222,587.691 C397.472,587.691 396.072,589.091 396.072,590.791 C396.072,592.541 397.472,593.941 399.172,593.941 C400.922,593.941 402.322,592.541 402.322,590.791 C402.322,589.091 400.922,587.691 399.222,587.691"/>
<path class="Lyrics" d="M448.813,573.891 L448.813,570.691 L441.762,570.691 L441.762,553.041 L437.962,553.041 L437.962,596.741 L441.762,596.741 L441.762,573.891 L448.813,573.891 M433.813,583.191 C427.762,579.641 422.262,572.491 422.262,564.541 L422.262,556.891 L418.363,556.891 L418.363,564.641 C418.363,572.391 413.212,580.241 406.863,584.141 L409.313,587.091 C414.462,583.491 418.712,577.941 420.262,572.491 C422.012,577.791 426.912,582.991 431.412,586.091 L433.813,583.191 "/>
<path class="Lyrics" d="M580.687,677.81 L551.087,677.81 L551.087,680.96 L576.737,680.96 L576.737,685.46 C576.737,686.91 576.637,688.51 576.537,690.26 L549.737,691.21 L550.487,694.56 L576.337,693.21 C576.037,697.76 575.487,702.26 575.037,704.31 L578.687,704.81 C579.987,699.26 580.637,689.26 580.687,683.41 L580.687,677.81 M585.737,710.36 L585.737,707.16 L546.287,707.16 L546.287,710.36 L585.737,710.36 "/>
<path class="Lyrics" d="M1759.5,1040.39 C1759.5,1035.19 1754.15,1032.04 1744.6,1032.04 C1735.1,1032.04 1729.75,1035.19 1729.75,1040.39 C1729.75,1045.44 1735.1,1048.69 1744.6,1048.69 C1754.15,1048.69 1759.5,1045.44 1759.5,1040.39 M1747.7,1024.79 L1755.65,1024.79 L1755.65,1031.94 L1759.45,1031.94 L1759.45,1004.89 L1755.65,1004.89 L1755.65,1010.69 L1747.7,1010.69 L1747.7,1013.94 L1755.65,1013.94 L1755.65,1021.54 L1747.7,1021.54 L1747.7,1024.79 M1755.6,1040.39 C1755.6,1043.59 1751.55,1045.44 1744.6,1045.44 C1737.8,1045.44 1733.7,1043.59 1733.7,1040.39 C1733.7,1037.14 1737.8,1035.24 1744.6,1035.24 C1751.55,1035.24 1755.6,1037.14 1755.6,1040.39 M1735.35,1007.54 C1729.2,1007.54 1724.1,1011.74 1724.1,1018.04 C1724.1,1024.39 1729.25,1028.39 1735.35,1028.39 C1741.5,1028.39 1746.55,1024.39 1746.55,1017.99 C1746.55,1011.64 1741.5,1007.54 1735.35,1007.54 M1735.35,1010.79 C1739.85,1010.79 1742.75,1013.69 1742.75,1018.04 C1742.75,1022.44 1739.8,1025.29 1735.35,1025.29 C1731.05,1025.29 1727.9,1022.44 1727.9,1017.99 C1727.9,1013.64 1731.05,1010.79 1735.35,1010.79"/>
<path class="Lyrics" d="M1762.67,1086.37 L1762.67,1083.12 L1755.57,1083.12 L1755.57,1064.87 L1751.77,1064.87 L1751.77,1108.57 L1755.57,1108.57 L1755.57,1086.37 L1762.67,1086.37 M1749.27,1097.52 L1748.97,1094.37 C1745.07,1094.97 1739.57,1095.37 1734.32,1095.62 L1734.32,1081.92 L1730.47,1081.92 L1730.47,1095.72 C1727.22,1095.82 1723.32,1095.77 1720.92,1095.77 L1721.47,1099.12 C1725.12,1099.12 1729.97,1098.97 1734.37,1098.77 C1738.62,1098.52 1745.07,1098.07 1749.27,1097.52 M1745.97,1069.47 L1723.12,1069.47 L1723.12,1072.67 L1742.12,1072.67 C1742.32,1077.57 1741.72,1084.77 1740.77,1089.02 L1744.42,1089.52 C1745.37,1085.27 1746.07,1076.17 1745.97,1069.47"/>
<path class="Lyrics" d="M1757.98,1146.45 L1757.98,1143.25 L1730.48,1143.25 L1730.48,1137.9 L1756.78,1137.9 L1756.78,1126.6 L1726.78,1126.6 L1726.78,1129.8 L1752.98,1129.8 L1752.98,1134.75 L1726.68,1134.75 L1726.68,1146.45 L1757.98,1146.45 M1736.23,1168.6 L1736.23,1154.5 L1747.23,1154.5 L1747.23,1168.6 L1751.08,1168.6 L1751.08,1154.5 L1761.53,1154.5 L1761.53,1151.3 L1722.08,1151.3 L1722.08,1154.5 L1732.43,1154.5 L1732.43,1168.6 L1736.23,1168.6 "/>
<path class="Lyrics" d="M580.109,626.226 L580.109,640.176 L583.909,640.176 L583.909,613.026 L580.109,613.026 L580.109,623.076 L570.709,623.076 L570.709,626.226 L580.109,626.226 M584.359,648.426 C584.359,643.326 579.109,640.176 569.709,640.176 C560.359,640.176 555.109,643.326 555.109,648.426 C555.109,653.526 560.359,656.676 569.709,656.676 C579.109,656.676 584.359,653.526 584.359,648.426 M569.709,643.276 C576.509,643.276 580.509,645.176 580.509,648.426 C580.509,651.726 576.509,653.576 569.709,653.576 C563.009,653.576 558.959,651.726 558.959,648.426 C558.959,645.176 563.009,643.276 569.709,643.276 M573.059,633.826 C568.109,632.026 562.359,626.776 562.359,619.776 L562.359,615.526 L558.509,615.526 L558.509,619.876 C558.509,626.826 553.959,632.426 547.659,635.326 L550.009,638.276 C555.059,635.726 559.209,631.126 560.559,626.626 C562.259,630.976 566.609,634.776 570.809,636.776 L573.059,633.826 "/>
<path class="Lyrics" d="M585.425,567.991 L585.425,564.791 L578.775,564.791 L578.775,553.041 L575.025,553.041 L575.025,580.241 L578.775,580.241 L578.775,567.991 L585.425,567.991 M579.275,588.791 C579.275,583.891 574.275,580.791 564.825,580.791 C555.325,580.791 550.375,583.791 550.375,588.791 C550.375,593.641 555.325,596.691 564.825,596.691 C574.275,596.691 579.275,593.591 579.275,588.791 M564.825,583.941 C571.425,583.941 575.375,585.691 575.375,588.791 C575.375,591.841 571.425,593.541 564.825,593.541 C558.175,593.541 554.275,591.741 554.275,588.791 C554.275,585.741 558.175,583.941 564.825,583.941 M570.925,573.541 C565.775,574.591 556.125,574.891 551.025,574.891 L550.475,574.891 L550.475,568.391 L566.525,568.391 L566.525,555.941 L546.575,555.941 L546.575,559.091 L562.725,559.091 L562.725,565.291 L546.675,565.291 L546.675,578.091 L550.775,578.091 C556.925,578.091 566.775,577.441 571.275,576.641 L570.925,573.541 "/>
<path class="Lyrics" d="M283.59,1168.55 L283.59,1124.85 L279.84,1124.85 L279.84,1168.55 L283.59,1168.55 M274.94,1166.35 L274.94,1125.9 L271.24,1125.9 L271.24,1140.6 L263.49,1140.6 L263.49,1143.8 L271.24,1143.8 L271.24,1166.35 L274.94,1166.35 M268.59,1154.75 C263.84,1151.6 258.74,1145.25 258.74,1136.75 L258.74,1128.9 L254.99,1128.9 L254.99,1136.85 C254.99,1145.4 250.59,1152.85 245.64,1156 L247.99,1158.85 C252.34,1155.7 255.94,1150 256.89,1145 C258.29,1149.95 262.89,1155.15 266.24,1157.55 L268.59,1154.75 "/>
<path class="Lyrics" d="M1815.38,1021.64 C1815.38,1017.59 1810.63,1015.44 1802.18,1015.44 C1793.73,1015.44 1789.03,1017.59 1789.03,1021.64 C1789.03,1025.39 1792.98,1027.49 1800.18,1027.84 L1800.18,1031.09 L1782.43,1031.09 L1782.43,1034.24 L1821.88,1034.24 L1821.88,1031.09 L1803.98,1031.09 L1803.98,1027.84 C1811.28,1027.54 1815.38,1025.39 1815.38,1021.64 M1817.53,1047.29 L1817.53,1044.14 L1791.38,1044.14 L1791.38,1036.54 L1787.58,1036.54 L1787.58,1047.29 L1817.53,1047.29 M1819.43,1013.69 L1819.43,1010.59 L1784.88,1010.59 L1784.88,1013.69 L1819.43,1013.69 M1811.43,1021.69 C1811.43,1023.94 1807.53,1024.84 1802.18,1024.84 C1796.88,1024.84 1792.98,1023.94 1792.98,1021.69 C1792.98,1019.34 1796.88,1018.49 1802.18,1018.49 C1807.53,1018.49 1811.43,1019.34 1811.43,1021.69 M1809.83,1008.39 L1809.83,1005.24 L1794.78,1005.24 L1794.78,1008.39 L1809.83,1008.39 "/>
<path class="Lyrics" d="M1818.73,1108.22 L1818.73,1105.07 L1790.68,1105.07 L1790.68,1101.22 L1817.13,1101.22 L1817.13,1091.37 L1803.98,1091.37 L1803.98,1086.67 L1821.88,1086.67 L1821.88,1083.52 L1782.43,1083.52 L1782.43,1086.67 L1800.18,1086.67 L1800.18,1091.37 L1786.88,1091.37 L1786.88,1094.47 L1813.33,1094.47 L1813.33,1098.27 L1786.88,1098.27 L1786.88,1108.22 L1818.73,1108.22 M1819.73,1077.72 C1813.03,1077.12 1804.18,1072.57 1804.18,1066.67 L1804.18,1065.42 L1800.23,1065.42 L1800.23,1066.67 C1800.23,1072.52 1792.33,1076.97 1784.73,1077.77 L1786.43,1080.92 C1794.08,1079.67 1800.43,1075.62 1802.13,1071.37 C1804.23,1075.52 1810.78,1079.62 1818.08,1080.92 L1819.73,1077.72 "/>
<path class="Lyrics" d="M1816.73,1128.1 L1787.08,1128.1 L1787.08,1131.25 L1812.78,1131.25 C1812.78,1135.55 1812.53,1142.75 1811.33,1147.45 L1782.43,1147.45 L1782.43,1150.65 L1800.23,1150.65 L1800.23,1168.55 L1804.03,1168.55 L1804.03,1150.65 L1821.88,1150.65 L1821.88,1147.45 L1815.13,1147.45 C1816.58,1140.7 1816.73,1134.05 1816.73,1128.1"/>
<path class="Lyrics" d="M381.875,694.81 C386.425,693.16 388.525,690.61 388.525,686.61 C388.525,681.36 384.525,678.01 378.325,678.01 C372.475,678.01 368.025,681.46 368.025,686.01 C368.025,688.06 369.375,689.51 371.325,689.51 C373.075,689.51 374.275,688.31 374.275,686.51 C374.275,685.41 373.875,684.76 372.725,683.96 C372.225,683.61 372.075,683.41 372.075,683.06 C372.075,681.66 374.975,680.16 377.825,680.16 C381.425,680.16 383.325,682.41 383.325,686.66 C383.325,691.31 381.425,693.76 377.875,693.76 C377.425,693.76 376.575,693.71 375.825,693.66 C375.425,693.61 375.025,693.61 374.725,693.61 C373.675,693.61 373.125,694.06 373.125,694.96 C373.125,695.81 373.625,696.21 374.725,696.21 C375.025,696.21 375.425,696.21 375.875,696.16 C376.875,696.11 377.675,696.11 378.225,696.11 C381.925,696.11 383.925,698.76 383.925,703.71 C383.925,708.91 381.425,711.81 376.925,711.81 C373.775,711.81 370.375,710.11 370.375,708.56 C370.375,708.11 370.475,708.01 371.425,707.46 C372.825,706.61 373.375,705.76 373.375,704.51 C373.375,702.71 372.025,701.36 370.225,701.36 C368.075,701.36 366.675,703.11 366.675,705.76 C366.675,710.61 371.125,713.96 377.525,713.96 C384.775,713.96 389.475,709.96 389.475,703.81 C389.475,699.11 387.075,696.26 381.875,694.81 M399.222,707.66 C397.472,707.66 396.072,709.06 396.072,710.76 C396.072,712.51 397.472,713.91 399.172,713.91 C400.922,713.91 402.322,712.51 402.322,710.76 C402.322,709.06 400.922,707.66 399.222,707.66"/>
<path class="Lyrics" d="M444.113,716.71 L444.113,673.01 L440.313,673.01 L440.313,716.71 L444.113,716.71 M409.613,691.71 C409.613,701.01 413.712,707.21 420.863,707.21 C428.113,707.21 432.162,701.01 432.162,691.76 C432.162,682.51 428.113,676.31 420.863,676.31 C413.712,676.31 409.613,682.51 409.613,691.71 M428.563,691.76 C428.563,698.91 425.512,703.91 420.863,703.91 C416.262,703.91 413.212,698.91 413.212,691.76 C413.212,684.56 416.262,679.61 420.863,679.61 C425.512,679.61 428.563,684.56 428.563,691.76"/>
<path class="Lyrics" d="M389.825,642.426 L387.625,642.426 L387.125,644.976 C386.475,648.226 386.075,648.526 382.975,648.526 L371.775,648.526 C375.225,644.926 376.375,643.876 379.575,641.376 C384.125,637.876 386.075,636.126 387.225,634.626 C388.825,632.426 389.625,630.226 389.625,627.776 C389.625,622.076 384.925,618.026 378.375,618.026 C372.025,618.026 367.175,622.076 367.175,627.426 C367.175,630.576 368.775,632.726 371.125,632.726 C372.975,632.726 374.225,631.476 374.225,629.676 C374.225,628.426 373.525,627.276 372.475,626.826 C370.625,626.076 370.525,625.976 370.525,625.326 C370.525,624.576 371.025,623.426 371.725,622.576 C372.975,621.026 375.025,620.176 377.375,620.176 C381.525,620.176 383.975,622.726 383.975,626.926 C383.975,630.626 382.225,633.976 378.075,638.376 C374.375,642.276 372.075,644.726 371.225,645.676 C369.425,647.776 368.525,648.926 366.325,651.826 L366.325,653.226 L388.875,653.226 L389.825,642.426 M399.222,647.676 C397.472,647.676 396.072,649.076 396.072,650.776 C396.072,652.526 397.472,653.926 399.172,653.926 C400.922,653.926 402.322,652.526 402.322,650.776 C402.322,649.076 400.922,647.676 399.222,647.676"/>
<path class="Lyrics" d="M444.113,656.726 L444.113,613.026 L440.313,613.026 L440.313,656.726 L444.113,656.726 M409.613,631.726 C409.613,641.026 413.712,647.226 420.863,647.226 C428.113,647.226 432.162,641.026 432.162,631.776 C432.162,622.526 428.113,616.326 420.863,616.326 C413.712,616.326 409.613,622.526 409.613,631.726 M428.563,631.776 C428.563,638.926 425.512,643.926 420.863,643.926 C416.262,643.926 413.212,638.926 413.212,631.776 C413.212,624.576 416.262,619.626 420.863,619.626 C425.512,619.626 428.563,624.576 428.563,631.776"/>
<path class="Lyrics" d="M1856.27,1031.19 L1856.27,1035.34 L1868.72,1035.34 L1868.72,1031.19 L1856.27,1031.19 "/>
<path class="Lyrics" d="M1856.27,1091.17 L1856.27,1095.32 L1868.72,1095.32 L1868.72,1091.17 L1856.27,1091.17 "/>
<path class="Lyrics" d="M1856.27,1151.15 L1856.27,1155.3 L1868.72,1155.3 L1868.72,1151.15 L1856.27,1151.15 "/>
<path class="Lyrics" d="M278.068,1074.22 L278.068,1082.27 L270.118,1082.27 L270.118,1085.42 L278.068,1085.42 L278.068,1096.62 L281.868,1096.62 L281.868,1064.87 L278.068,1064.87 L278.068,1071.07 L270.118,1071.07 L270.118,1074.22 L278.068,1074.22 M282.818,1107.12 L282.818,1103.97 L257.418,1103.97 L257.418,1093.82 L253.618,1093.82 L253.618,1107.12 L282.818,1107.12 M257.768,1067.82 C251.368,1067.82 246.418,1072.32 246.418,1078.77 C246.418,1085.32 251.368,1089.62 257.818,1089.62 C264.218,1089.62 269.118,1085.27 269.118,1078.77 C269.118,1072.27 264.168,1067.82 257.768,1067.82 M257.768,1071.17 C262.318,1071.17 265.418,1074.32 265.418,1078.77 C265.418,1083.17 262.318,1086.27 257.818,1086.27 C253.468,1086.27 250.168,1083.17 250.168,1078.77 C250.168,1074.32 253.418,1071.17 257.768,1071.17"/>
<path class="NoteDot" transform="matrix(0.992,0,0,0.992,293.113,942.235)" d="M0,0 C0,2.8 2.2,5 5,5 C7.8,5 10,2.8 10,0 C10,-2.8 7.8,-5 5,-5 C2.2,-5 0,-2.8 0,0"/>
<path class="NoteDot" transform="matrix(0.992,0,0,0.992,450.895,502.462)" d="M0,0 C0,2.8 2.2,5 5,5 C7.8,5 10,2.8 10,0 C10,-2.8 7.8,-5 5,-5 C2.2,-5 0,-2.8 0,0"/>
<path class="NoteDot" transform="matrix(0.992,0,0,0.992,1463.91,917.435)" d="M0,0 C0,2.8 2.2,5 5,5 C7.8,5 10,2.8 10,0 C10,-2.8 7.8,-5 5,-5 C2.2,-5 0,-2.8 0,0"/>
<path class="NoteDot" transform="matrix(0.992,0,0,0.992,865.493,477.662)" d="M0,0 C0,2.8 2.2,5 5,5 C7.8,5 10,2.8 10,0 C10,-2.8 7.8,-5 5,-5 C2.2,-5 0,-2.8 0,0"/>
<path class="NoteDot" transform="matrix(0.992,0,0,0.992,658.955,917.435)" d="M0,0 C0,2.8 2.2,5 5,5 C7.8,5 10,2.8 10,0 C10,-2.8 7.8,-5 5,-5 C2.2,-5 0,-2.8 0,0"/>
<path class="NoteDot" transform="matrix(0.992,0,0,0.992,1702.13,477.662)" d="M0,0 C0,2.8 2.2,5 5,5 C7.8,5 10,2.8 10,0 C10,-2.8 7.8,-5 5,-5 C2.2,-5 0,-2.8 0,0"/>
</svg>
