<?xml version="1.0" encoding="UTF-8" standalone="no"?>
<svg width="2098.8px" height="1418.4px" viewBox="0 0 2098.8 1418.4"
 xmlns="http://www.w3.org/2000/svg" xmlns:xlink="http://www.w3.org/1999/xlink" version="1.2" baseProfile="tiny">
<title>218주여당신종이여기.musicxml (1)</title>
<desc>Generated by MuseScore 4.2.1</desc>
<polyline class="StaffLines" fill="none" stroke="#000000" stroke-width="2.73" stroke-linejoin="bevel" points="210.4,449.463 2012.4,449.463"/>
<polyline class="StaffLines" fill="none" stroke="#000000" stroke-width="2.73" stroke-linejoin="bevel" points="210.4,474.263 2012.4,474.263"/>
<polyline class="StaffLines" fill="none" stroke="#000000" stroke-width="2.73" stroke-linejoin="bevel" points="210.4,499.063 2012.4,499.063"/>
<polyline class="StaffLines" fill="none" stroke="#000000" stroke-width="2.73" stroke-linejoin="bevel" points="210.4,523.863 2012.4,523.863"/>
<polyline class="StaffLines" fill="none" stroke="#000000" stroke-width="2.73" stroke-linejoin="bevel" points="210.4,548.663 2012.4,548.663"/>
<polyline class="StaffLines" fill="none" stroke="#000000" stroke-width="2.73" stroke-linejoin="bevel" points="86.4,1009.94 2012.4,1009.94"/>
<polyline class="StaffLines" fill="none" stroke="#000000" stroke-width="2.73" stroke-linejoin="bevel" points="86.4,1034.74 2012.4,1034.74"/>
<polyline class="StaffLines" fill="none" stroke="#000000" stroke-width="2.73" stroke-linejoin="bevel" points="86.4,1059.54 2012.4,1059.54"/>
<polyline class="StaffLines" fill="none" stroke="#000000" stroke-width="2.73" stroke-linejoin="bevel" points="86.4,1084.34 2012.4,1084.34"/>
<polyline class="StaffLines" fill="none" stroke="#000000" stroke-width="2.73" stroke-linejoin="bevel" points="86.4,1109.14 2012.4,1109.14"/>
<path class="MeasureNumber" d="M90.7237,945.016 C89.4837,945.776 89.1237,946.256 89.1237,947.056 C89.1237,947.816 89.7637,948.376 90.5637,948.376 C91.6037,948.376 92.2037,947.616 92.3237,946.136 C93.5637,945.136 94.8837,944.696 96.4837,944.696 C99.4437,944.696 101.084,946.536 101.084,949.856 C101.084,955.056 97.7237,959.296 93.6037,959.296 C91.2437,959.296 89.3237,958.176 89.3237,956.856 C89.3237,956.616 89.3637,956.536 89.5637,956.416 C90.8437,955.816 91.8837,955.376 91.8837,953.696 C91.8837,952.416 90.8837,951.456 89.4837,951.456 C87.7237,951.456 86.4037,952.936 86.4037,954.856 C86.4037,958.376 89.4437,960.936 93.7237,960.936 C100.204,960.936 105.444,955.776 105.444,949.376 C105.444,945.336 102.364,942.496 98.0037,942.496 C96.2837,942.496 94.8837,942.856 92.9637,943.816 L95.2037,936.256 C97.3237,936.696 99.0037,936.896 100.444,936.896 C103.084,936.896 105.444,936.056 106.764,934.656 C107.444,933.856 107.844,933.176 107.844,932.656 C107.844,932.416 107.724,932.176 107.564,932.176 C107.444,932.176 107.364,932.216 107.124,932.336 C105.804,932.976 104.124,933.336 102.564,933.336 C100.164,933.336 97.3237,932.936 94.3637,932.176 L90.7237,945.016 "/>
<polyline class="BarLine" fill="none" stroke="#000000" stroke-width="4.46" stroke-linejoin="bevel" points="1372.85,1008.57 1372.85,1110.5"/>
<polyline class="BarLine" fill="none" stroke="#000000" stroke-width="4.46" stroke-linejoin="bevel" points="2010.17,1008.57 2010.17,1110.5"/>
<polyline class="BarLine" fill="none" stroke="#000000" stroke-width="4.46" stroke-linejoin="bevel" points="975.528,1008.57 975.528,1110.5"/>
<polyline class="BarLine" fill="none" stroke="#000000" stroke-width="4.46" stroke-linejoin="bevel" points="2010.17,448.099 2010.17,550.027"/>
<polyline class="BarLine" fill="none" stroke="#000000" stroke-width="4.46" stroke-linejoin="bevel" points="1248.04,448.099 1248.04,550.027"/>
<polyline class="BarLine" fill="none" stroke="#000000" stroke-width="4.46" stroke-linejoin="bevel" points="1571.25,448.099 1571.25,550.027"/>
<polyline class="BarLine" fill="none" stroke="#000000" stroke-width="4.46" stroke-linejoin="bevel" points="1641.47,1008.57 1641.47,1110.5"/>
<polyline class="BarLine" fill="none" stroke="#000000" stroke-width="4.46" stroke-linejoin="bevel" points="584.967,1008.57 584.967,1110.5"/>
<polyline class="BarLine" fill="none" stroke="#000000" stroke-width="4.46" stroke-linejoin="bevel" points="809.734,448.099 809.734,550.027"/>
<path class="Accidental" transform="matrix(0.992,0,0,0.992,476.473,1071.94)" d="M12,-15.5 C7,-15.5 4.1,-12.4 3.6,-11.8 L4,-43.9 C4,-44.7 3.4,-45.3 2.6,-45.3 L1.4,-45.3 C0.6,-45.3 0,-44.7 0,-43.9 L0.5,16.2 C0.5,17 1.1,17.6 1.9,17.6 C2.1,17.6 2.5,17.5 2.7,17.4 C11.3,13.1 20.3,4.9 20.3,-5.4 C20.3,-10.6 17.9,-15.5 12,-15.5 M3.3,12.7 L3.6,-6.8 C3.8,-7.7 5.3,-10.6 9.3,-10.6 C12.9,-10.6 13.2,-7.2 13.2,-5.1 C13.2,3.8 9.9,7.5 3.3,12.7"/>
<polyline class="LedgerLine" fill="none" stroke="#000000" stroke-width="3.97" stroke-linejoin="bevel" points="1001.82,1133.94 1050.42,1133.94"/>
<polyline class="LedgerLine" fill="none" stroke="#000000" stroke-width="3.97" stroke-linejoin="bevel" points="1103.14,1133.94 1151.74,1133.94"/>
<polyline class="LedgerLine" fill="none" stroke="#000000" stroke-width="3.97" stroke-linejoin="bevel" points="1154.4,573.463 1203,573.463"/>
<polyline class="LedgerLine" fill="none" stroke="#000000" stroke-width="3.97" stroke-linejoin="bevel" points="1175.94,1133.94 1224.54,1133.94"/>
<polyline class="LedgerLine" fill="none" stroke="#000000" stroke-width="3.97" stroke-linejoin="bevel" points="1081.6,573.463 1130.2,573.463"/>
<polyline class="LedgerLine" fill="none" stroke="#000000" stroke-width="3.97" stroke-linejoin="bevel" points="917.881,573.463 966.481,573.463"/>
<polyline class="Stem" fill="none" stroke="#000000" stroke-width="2.48" stroke-linejoin="bevel" points="875.198,557.095 875.198,474.263"/>
<polyline class="Stem" fill="none" stroke="#000000" stroke-width="2.48" stroke-linejoin="bevel" points="1438.32,1117.57 1438.32,1034.74"/>
<polyline class="Stem" fill="none" stroke="#000000" stroke-width="2.48" stroke-linejoin="bevel" points="304.229,1063.7 304.229,1133.94"/>
<polyline class="Stem" fill="none" stroke="#000000" stroke-width="2.48" stroke-linejoin="bevel" points="957.057,569.495 957.057,486.663"/>
<polyline class="Stem" fill="none" stroke="#000000" stroke-width="2.48" stroke-linejoin="bevel" points="1884.89,532.295 1884.89,449.662"/>
<polyline class="Stem" fill="none" stroke="#000000" stroke-width="2.48" stroke-linejoin="bevel" points="650.431,1080.37 650.431,997.536"/>
<polyline class="Stem" fill="none" stroke="#000000" stroke-width="2.48" stroke-linejoin="bevel" points="1814.07,532.295 1814.07,449.662"/>
<polyline class="Stem" fill="none" stroke="#000000" stroke-width="2.48" stroke-linejoin="bevel" points="1321.69,1105.17 1321.69,1022.34"/>
<polyline class="Stem" fill="none" stroke="#000000" stroke-width="2.48" stroke-linejoin="bevel" points="850.249,1105.17 850.249,1022.53"/>
<polyline class="Stem" fill="none" stroke="#000000" stroke-width="2.48" stroke-linejoin="bevel" points="1268.4,1117.57 1268.4,1053.47"/>
<polyline class="Stem" fill="none" stroke="#000000" stroke-width="2.48" stroke-linejoin="bevel" points="1120.77,569.495 1120.77,486.862"/>
<polyline class="Stem" fill="none" stroke="#000000" stroke-width="2.48" stroke-linejoin="bevel" points="756.636,544.695 756.636,461.863"/>
<polyline class="Stem" fill="none" stroke="#000000" stroke-width="2.48" stroke-linejoin="bevel" points="921.069,1105.17 921.069,1022.53"/>
<polyline class="Stem" fill="none" stroke="#000000" stroke-width="2.48" stroke-linejoin="bevel" points="1636.71,557.095 1636.71,474.263"/>
<polyline class="Stem" fill="none" stroke="#000000" stroke-width="2.48" stroke-linejoin="bevel" points="674.777,557.095 674.777,474.263"/>
<polyline class="Stem" fill="none" stroke="#000000" stroke-width="2.48" stroke-linejoin="bevel" points="1215.12,1129.97 1215.12,1059.4"/>
<polyline class="Stem" fill="none" stroke="#000000" stroke-width="2.48" stroke-linejoin="bevel" points="1193.58,569.495 1193.58,486.862"/>
<polyline class="Stem" fill="none" stroke="#000000" stroke-width="2.48" stroke-linejoin="bevel" points="1706.93,1117.57 1706.93,1034.74"/>
<polyline class="Stem" fill="none" stroke="#000000" stroke-width="2.48" stroke-linejoin="bevel" points="1955.71,532.295 1955.71,449.662"/>
<polyline class="Stem" fill="none" stroke="#000000" stroke-width="2.48" stroke-linejoin="bevel" points="533.8,1067.97 533.8,991.336"/>
<polyline class="Stem" fill="none" stroke="#000000" stroke-width="2.48" stroke-linejoin="bevel" points="603.958,557.095 603.958,474.462"/>
<polyline class="Stem" fill="none" stroke="#000000" stroke-width="2.48" stroke-linejoin="bevel" points="1808.25,1117.57 1808.25,1034.93"/>
<polyline class="Stem" fill="none" stroke="#000000" stroke-width="2.48" stroke-linejoin="bevel" points="1879.07,1117.57 1879.07,1034.74"/>
<polyline class="Stem" fill="none" stroke="#000000" stroke-width="2.48" stroke-linejoin="bevel" points="1313.5,544.695 1313.5,461.863"/>
<polyline class="Stem" fill="none" stroke="#000000" stroke-width="2.48" stroke-linejoin="bevel" points="500.188,557.095 500.188,474.263"/>
<polyline class="Stem" fill="none" stroke="#000000" stroke-width="2.48" stroke-linejoin="bevel" points="1142.31,1129.97 1142.31,1047.33"/>
<polyline class="Stem" fill="none" stroke="#000000" stroke-width="2.48" stroke-linejoin="bevel" points="1959,1105.17 1959,1022.34"/>
<polyline class="Stem" fill="none" stroke="#000000" stroke-width="2.48" stroke-linejoin="bevel" points="1436.29,532.295 1436.29,449.463"/>
<polyline class="Stem" fill="none" stroke="#000000" stroke-width="2.48" stroke-linejoin="bevel" points="1518.15,544.695 1518.15,461.863"/>
<polyline class="Stem" fill="none" stroke="#000000" stroke-width="2.48" stroke-linejoin="bevel" points="453.872,1067.97 453.872,991.336"/>
<polyline class="Stem" fill="none" stroke="#000000" stroke-width="2.48" stroke-linejoin="bevel" points="1040.99,1129.97 1040.99,1047.14"/>
<path class="Note" transform="matrix(0.992,0,0,0.992,1405.3,536.263)" d="M0,4.2 C0,8.5 3.1,13.3 11.2,13.3 C21.6,13.3 32.5,4.8 32.5,-4 C32.5,-9.9 27.5,-13.2 21.3,-13.2 C11.6,-13.2 0,-5 0,4.2"/>
<path class="Note" transform="matrix(0.992,0,0,0.992,1487.15,548.663)" d="M0,4.2 C0,8.5 3.1,13.3 11.2,13.3 C21.6,13.3 32.5,4.8 32.5,-4 C32.5,-9.9 27.5,-13.2 21.3,-13.2 C11.6,-13.2 0,-5 0,4.2"/>
<path class="Note" transform="matrix(0.992,0,0,0.992,1010,1133.94)" d="M0,4.2 C0,8.5 3.1,13.3 11.2,13.3 C21.6,13.3 32.5,4.8 32.5,-4 C32.5,-9.9 27.5,-13.2 21.3,-13.2 C11.6,-13.2 0,-5 0,4.2"/>
<path class="Note" transform="matrix(0.992,0,0,0.992,1282.51,548.663)" d="M21.3,-13.2 C11.6,-13.2 0,-5.1 0,4.2 C0,8.5 3.1,13.3 11.2,13.3 C21.6,13.3 32.5,4.8 32.5,-4 C32.5,-9.9 27.5,-13.2 21.3,-13.2 M7.5,8.6 C4.2,8.6 3.5,5.9 3.5,5 C3.5,0.1 20.3,-8.5 25,-8.5 C27.4,-8.5 29,-7.1 29,-4.9 C29,0.1 12.1,8.6 7.5,8.6"/>
<path class="Note" transform="matrix(0.992,0,0,0.992,1111.32,1133.94)" d="M0,4.2 C0,8.5 3.1,13.3 11.2,13.3 C21.6,13.3 32.5,4.8 32.5,-4 C32.5,-9.9 27.5,-13.2 21.3,-13.2 C11.6,-13.2 0,-5 0,4.2"/>
<path class="Note" transform="matrix(0.992,0,0,0.992,1162.59,573.463)" d="M0,4.2 C0,8.5 3.1,13.3 11.2,13.3 C21.6,13.3 32.5,4.8 32.5,-4 C32.5,-9.9 27.5,-13.2 21.3,-13.2 C11.6,-13.2 0,-5 0,4.2"/>
<path class="Note" transform="matrix(0.992,0,0,0.992,1184.13,1133.94)" d="M0,4.2 C0,8.5 3.1,13.3 11.2,13.3 C21.6,13.3 32.5,4.8 32.5,-4 C32.5,-9.9 27.5,-13.2 21.3,-13.2 C11.6,-13.2 0,-5 0,4.2"/>
<path class="Note" transform="matrix(0.992,0,0,0.992,1605.72,561.063)" d="M21.3,-13.2 C11.6,-13.2 0,-5.1 0,4.2 C0,8.5 3.1,13.3 11.2,13.3 C21.6,13.3 32.5,4.8 32.5,-4 C32.5,-9.9 27.5,-13.2 21.3,-13.2 M7.5,8.6 C4.2,8.6 3.5,5.9 3.5,5 C3.5,0.1 20.3,-8.5 25,-8.5 C27.4,-8.5 29,-7.1 29,-4.9 C29,0.1 12.1,8.6 7.5,8.6"/>
<path class="Note" transform="matrix(0.992,0,0,0.992,890.077,1109.14)" d="M0,4.2 C0,8.5 3.1,13.3 11.2,13.3 C21.6,13.3 32.5,4.8 32.5,-4 C32.5,-9.9 27.5,-13.2 21.3,-13.2 C11.6,-13.2 0,-5 0,4.2"/>
<path class="Note" transform="matrix(0.992,0,0,0.992,1089.78,573.463)" d="M0,4.2 C0,8.5 3.1,13.3 11.2,13.3 C21.6,13.3 32.5,4.8 32.5,-4 C32.5,-9.9 27.5,-13.2 21.3,-13.2 C11.6,-13.2 0,-5 0,4.2"/>
<path class="Note" transform="matrix(0.992,0,0,0.992,819.257,1109.14)" d="M0,4.2 C0,8.5 3.1,13.3 11.2,13.3 C21.6,13.3 32.5,4.8 32.5,-4 C32.5,-9.9 27.5,-13.2 21.3,-13.2 C11.6,-13.2 0,-5 0,4.2"/>
<path class="Note" transform="matrix(0.992,0,0,0.992,1237.41,1121.54)" d="M0,4.2 C0,8.5 3.1,13.3 11.2,13.3 C21.6,13.3 32.5,4.8 32.5,-4 C32.5,-9.9 27.5,-13.2 21.3,-13.2 C11.6,-13.2 0,-5 0,4.2"/>
<path class="Note" transform="matrix(0.992,0,0,0.992,1290.7,1109.14)" d="M0,4.2 C0,8.5 3.1,13.3 11.2,13.3 C21.6,13.3 32.5,4.8 32.5,-4 C32.5,-9.9 27.5,-13.2 21.3,-13.2 C11.6,-13.2 0,-5 0,4.2"/>
<path class="Note" transform="matrix(0.992,0,0,0.992,1783.08,536.263)" d="M0,4.2 C0,8.5 3.1,13.3 11.2,13.3 C21.6,13.3 32.5,4.8 32.5,-4 C32.5,-9.9 27.5,-13.2 21.3,-13.2 C11.6,-13.2 0,-5 0,4.2"/>
<path class="Note" transform="matrix(0.992,0,0,0.992,619.439,1084.34)" d="M21.3,-13.2 C11.6,-13.2 0,-5.1 0,4.2 C0,8.5 3.1,13.3 11.2,13.3 C21.6,13.3 32.5,4.8 32.5,-4 C32.5,-9.9 27.5,-13.2 21.3,-13.2 M7.5,8.6 C4.2,8.6 3.5,5.9 3.5,5 C3.5,0.1 20.3,-8.5 25,-8.5 C27.4,-8.5 29,-7.1 29,-4.9 C29,0.1 12.1,8.6 7.5,8.6"/>
<path class="Note" transform="matrix(0.992,0,0,0.992,926.065,573.463)" d="M0,4.2 C0,8.5 3.1,13.3 11.2,13.3 C21.6,13.3 32.5,4.8 32.5,-4 C32.5,-9.9 27.5,-13.2 21.3,-13.2 C11.6,-13.2 0,-5 0,4.2"/>
<path class="Note" transform="matrix(0.992,0,0,0.992,844.206,561.063)" d="M0,4.2 C0,8.5 3.1,13.3 11.2,13.3 C21.6,13.3 32.5,4.8 32.5,-4 C32.5,-9.9 27.5,-13.2 21.3,-13.2 C11.6,-13.2 0,-5 0,4.2"/>
<path class="Note" transform="matrix(0.992,0,0,0.992,1407.33,1121.54)" d="M21.3,-13.2 C11.6,-13.2 0,-5.1 0,4.2 C0,8.5 3.1,13.3 11.2,13.3 C21.6,13.3 32.5,4.8 32.5,-4 C32.5,-9.9 27.5,-13.2 21.3,-13.2 M7.5,8.6 C4.2,8.6 3.5,5.9 3.5,5 C3.5,0.1 20.3,-8.5 25,-8.5 C27.4,-8.5 29,-7.1 29,-4.9 C29,0.1 12.1,8.6 7.5,8.6"/>
<path class="Note" transform="matrix(0.992,0,0,0.992,1853.9,536.263)" d="M0,4.2 C0,8.5 3.1,13.3 11.2,13.3 C21.6,13.3 32.5,4.8 32.5,-4 C32.5,-9.9 27.5,-13.2 21.3,-13.2 C11.6,-13.2 0,-5 0,4.2"/>
<path class="Note" transform="matrix(0.992,0,0,0.992,725.643,548.663)" d="M0,4.2 C0,8.5 3.1,13.3 11.2,13.3 C21.6,13.3 32.5,4.8 32.5,-4 C32.5,-9.9 27.5,-13.2 21.3,-13.2 C11.6,-13.2 0,-5 0,4.2"/>
<path class="Note" transform="matrix(0.992,0,0,0.992,643.785,561.063)" d="M0,4.2 C0,8.5 3.1,13.3 11.2,13.3 C21.6,13.3 32.5,4.8 32.5,-4 C32.5,-9.9 27.5,-13.2 21.3,-13.2 C11.6,-13.2 0,-5 0,4.2"/>
<path class="Note" transform="matrix(0.992,0,0,0.992,502.808,1071.94)" d="M0,4.2 C0,8.5 3.1,13.3 11.2,13.3 C21.6,13.3 32.5,4.8 32.5,-4 C32.5,-9.9 27.5,-13.2 21.3,-13.2 C11.6,-13.2 0,-5 0,4.2"/>
<path class="Note" transform="matrix(0.992,0,0,0.992,1675.94,1121.54)" d="M0,4.2 C0,8.5 3.1,13.3 11.2,13.3 C21.6,13.3 32.5,4.8 32.5,-4 C32.5,-9.9 27.5,-13.2 21.3,-13.2 C11.6,-13.2 0,-5 0,4.2"/>
<path class="Note" transform="matrix(0.992,0,0,0.992,1924.72,536.263)" d="M0,4.2 C0,8.5 3.1,13.3 11.2,13.3 C21.6,13.3 32.5,4.8 32.5,-4 C32.5,-9.9 27.5,-13.2 21.3,-13.2 C11.6,-13.2 0,-5 0,4.2"/>
<path class="Note" transform="matrix(0.992,0,0,0.992,572.965,561.063)" d="M0,4.2 C0,8.5 3.1,13.3 11.2,13.3 C21.6,13.3 32.5,4.8 32.5,-4 C32.5,-9.9 27.5,-13.2 21.3,-13.2 C11.6,-13.2 0,-5 0,4.2"/>
<path class="Note" transform="matrix(0.992,0,0,0.992,422.88,1071.94)" d="M0,4.2 C0,8.5 3.1,13.3 11.2,13.3 C21.6,13.3 32.5,4.8 32.5,-4 C32.5,-9.9 27.5,-13.2 21.3,-13.2 C11.6,-13.2 0,-5 0,4.2"/>
<path class="Note" transform="matrix(0.992,0,0,0.992,1777.26,1121.54)" d="M0,4.2 C0,8.5 3.1,13.3 11.2,13.3 C21.6,13.3 32.5,4.8 32.5,-4 C32.5,-9.9 27.5,-13.2 21.3,-13.2 C11.6,-13.2 0,-5 0,4.2"/>
<path class="Note" transform="matrix(0.992,0,0,0.992,1848.08,1121.54)" d="M0,4.2 C0,8.5 3.1,13.3 11.2,13.3 C21.6,13.3 32.5,4.8 32.5,-4 C32.5,-9.9 27.5,-13.2 21.3,-13.2 C11.6,-13.2 0,-5 0,4.2"/>
<path class="Note" transform="matrix(0.992,0,0,0.992,469.196,561.063)" d="M0,4.2 C0,8.5 3.1,13.3 11.2,13.3 C21.6,13.3 32.5,4.8 32.5,-4 C32.5,-9.9 27.5,-13.2 21.3,-13.2 C11.6,-13.2 0,-5 0,4.2"/>
<path class="Note" transform="matrix(0.992,0,0,0.992,302.989,1059.54)" d="M21.3,-13.2 C11.6,-13.2 0,-5.1 0,4.2 C0,8.5 3.1,13.3 11.2,13.3 C21.6,13.3 32.5,4.8 32.5,-4 C32.5,-9.9 27.5,-13.2 21.3,-13.2 M7.5,8.6 C4.2,8.6 3.5,5.9 3.5,5 C3.5,0.1 20.3,-8.5 25,-8.5 C27.4,-8.5 29,-7.1 29,-4.9 C29,0.1 12.1,8.6 7.5,8.6"/>
<path class="Note" transform="matrix(0.992,0,0,0.992,1928.01,1109.14)" d="M0,4.2 C0,8.5 3.1,13.3 11.2,13.3 C21.6,13.3 32.5,4.8 32.5,-4 C32.5,-9.9 27.5,-13.2 21.3,-13.2 C11.6,-13.2 0,-5 0,4.2"/>
<path class="Clef" transform="matrix(0.992,0,0,0.992,229,523.863)" d="M12.3,51.3 C12.3,57.9 17.3,66.6 30.8,66.6 C35.5,66.6 39.6,65.4 43.2,63.2 C48.6,59.4 50,52.8 50,46.5 C50,42.6 49.4,38.1 48.4,32.4 C48.1,30.4 47.5,27.4 46.9,23.5 C56.7,20.3 64,10.1 64,-0.2 C64,-15.3 53.3,-25.5 38.7,-25.5 C37.7,-31.5 36.7,-37.4 35.9,-43 C46.4,-54.1 53.7,-66.6 53.7,-82.5 C53.7,-91.6 50.9,-99 49.3,-102.6 C46.9,-107.7 44,-111.2 42.2,-111.2 C41.5,-111.2 38.4,-110 35.1,-106.1 C28.7,-98.5 26.9,-85.7 26.9,-77.3 C26.9,-71.9 27.4,-67 29.1,-55.8 C29,-55.7 23.8,-50.4 21.7,-48.7 C12.6,-40.3 0,-28.1 0,-8.1 C0,10.6 16.3,25.3 34.9,25.3 C37.8,25.3 40.5,25 42.8,24.6 C44.7,34.2 45.9,41.2 45.9,46.5 C45.9,56.9 40.5,62.4 30.4,62.4 C28,62.4 25.9,61.9 25.7,61.9 C25.6,61.8 25.4,61.7 25.4,61.6 C25.4,61.4 25.6,61.3 25.9,61.3 C30.6,60.5 35.3,56.5 35.3,50.1 C35.3,44.7 31.2,39 23.7,39 C16.7,39 12.3,44.7 12.3,51.3 M33.2,-82.2 C34.1,-86.2 38.7,-96.7 43.9,-96.7 C45.4,-96.7 47.8,-91.9 47.8,-84.9 C47.8,-74.5 40.1,-66.7 33.2,-59.9 C32.6,-63.9 32.1,-67.8 32.1,-72 C32.1,-75.7 32.4,-79.1 33.2,-82.2 M42,20.6 C40,21 38.1,21.2 36.2,21.2 C21.9,21.2 9.7,11.2 9.7,-3.9 C9.7,-16.1 18.3,-27 27.1,-34.6 C28.8,-36.1 30.4,-37.5 31.9,-39 C32.8,-33.6 33.5,-28.9 34.2,-24.8 C25.1,-22.1 18.9,-12.5 18.9,-3.1 C18.9,3.9 24.4,13.5 32.4,13.5 C33.2,13.5 34.1,13.1 34.1,12.2 C34.1,11.3 33.1,10.8 31.9,10 C28,7.6 25.8,5 25.8,0.1 C25.8,-6 30.4,-10.9 36.2,-12.3 L42,20.6 M56.2,2.1 C56.2,9.2 53.3,16.5 46.2,19.4 C44.1,7.4 41.4,-8.5 40.7,-12.9 C49.7,-12.9 56.2,-6.8 56.2,2.1"/>
<path class="Clef" transform="matrix(0.992,0,0,0.992,105,1084.34)" d="M12.3,51.3 C12.3,57.9 17.3,66.6 30.8,66.6 C35.5,66.6 39.6,65.4 43.2,63.2 C48.6,59.4 50,52.8 50,46.5 C50,42.6 49.4,38.1 48.4,32.4 C48.1,30.4 47.5,27.4 46.9,23.5 C56.7,20.3 64,10.1 64,-0.2 C64,-15.3 53.3,-25.5 38.7,-25.5 C37.7,-31.5 36.7,-37.4 35.9,-43 C46.4,-54.1 53.7,-66.6 53.7,-82.5 C53.7,-91.6 50.9,-99 49.3,-102.6 C46.9,-107.7 44,-111.2 42.2,-111.2 C41.5,-111.2 38.4,-110 35.1,-106.1 C28.7,-98.5 26.9,-85.7 26.9,-77.3 C26.9,-71.9 27.4,-67 29.1,-55.8 C29,-55.7 23.8,-50.4 21.7,-48.7 C12.6,-40.3 0,-28.1 0,-8.1 C0,10.6 16.3,25.3 34.9,25.3 C37.8,25.3 40.5,25 42.8,24.6 C44.7,34.2 45.9,41.2 45.9,46.5 C45.9,56.9 40.5,62.4 30.4,62.4 C28,62.4 25.9,61.9 25.7,61.9 C25.6,61.8 25.4,61.7 25.4,61.6 C25.4,61.4 25.6,61.3 25.9,61.3 C30.6,60.5 35.3,56.5 35.3,50.1 C35.3,44.7 31.2,39 23.7,39 C16.7,39 12.3,44.7 12.3,51.3 M33.2,-82.2 C34.1,-86.2 38.7,-96.7 43.9,-96.7 C45.4,-96.7 47.8,-91.9 47.8,-84.9 C47.8,-74.5 40.1,-66.7 33.2,-59.9 C32.6,-63.9 32.1,-67.8 32.1,-72 C32.1,-75.7 32.4,-79.1 33.2,-82.2 M42,20.6 C40,21 38.1,21.2 36.2,21.2 C21.9,21.2 9.7,11.2 9.7,-3.9 C9.7,-16.1 18.3,-27 27.1,-34.6 C28.8,-36.1 30.4,-37.5 31.9,-39 C32.8,-33.6 33.5,-28.9 34.2,-24.8 C25.1,-22.1 18.9,-12.5 18.9,-3.1 C18.9,3.9 24.4,13.5 32.4,13.5 C33.2,13.5 34.1,13.1 34.1,12.2 C34.1,11.3 33.1,10.8 31.9,10 C28,7.6 25.8,5 25.8,0.1 C25.8,-6 30.4,-10.9 36.2,-12.3 L42,20.6 M56.2,2.1 C56.2,9.2 53.3,16.5 46.2,19.4 C44.1,7.4 41.4,-8.5 40.7,-12.9 C49.7,-12.9 56.2,-6.8 56.2,2.1"/>
<path class="KeySig" transform="matrix(0.992,0,0,0.992,193.28,1059.54)" d="M12,-15.5 C7,-15.5 4.1,-12.4 3.6,-11.8 L4,-43.9 C4,-44.7 3.4,-45.3 2.6,-45.3 L1.4,-45.3 C0.6,-45.3 0,-44.7 0,-43.9 L0.5,16.2 C0.5,17 1.1,17.6 1.9,17.6 C2.1,17.6 2.5,17.5 2.7,17.4 C11.3,13.1 20.3,4.9 20.3,-5.4 C20.3,-10.6 17.9,-15.5 12,-15.5 M3.3,12.7 L3.6,-6.8 C3.8,-7.7 5.3,-10.6 9.3,-10.6 C12.9,-10.6 13.2,-7.2 13.2,-5.1 C13.2,3.8 9.9,7.5 3.3,12.7"/>
<path class="KeySig" transform="matrix(0.992,0,0,0.992,220.855,1022.34)" d="M12,-15.5 C7,-15.5 4.1,-12.4 3.6,-11.8 L4,-43.9 C4,-44.7 3.4,-45.3 2.6,-45.3 L1.4,-45.3 C0.6,-45.3 0,-44.7 0,-43.9 L0.5,16.2 C0.5,17 1.1,17.6 1.9,17.6 C2.1,17.6 2.5,17.5 2.7,17.4 C11.3,13.1 20.3,4.9 20.3,-5.4 C20.3,-10.6 17.9,-15.5 12,-15.5 M3.3,12.7 L3.6,-6.8 C3.8,-7.7 5.3,-10.6 9.3,-10.6 C12.9,-10.6 13.2,-7.2 13.2,-5.1 C13.2,3.8 9.9,7.5 3.3,12.7"/>
<path class="KeySig" transform="matrix(0.992,0,0,0.992,317.28,499.063)" d="M12,-15.5 C7,-15.5 4.1,-12.4 3.6,-11.8 L4,-43.9 C4,-44.7 3.4,-45.3 2.6,-45.3 L1.4,-45.3 C0.6,-45.3 0,-44.7 0,-43.9 L0.5,16.2 C0.5,17 1.1,17.6 1.9,17.6 C2.1,17.6 2.5,17.5 2.7,17.4 C11.3,13.1 20.3,4.9 20.3,-5.4 C20.3,-10.6 17.9,-15.5 12,-15.5 M3.3,12.7 L3.6,-6.8 C3.8,-7.7 5.3,-10.6 9.3,-10.6 C12.9,-10.6 13.2,-7.2 13.2,-5.1 C13.2,3.8 9.9,7.5 3.3,12.7"/>
<path class="KeySig" transform="matrix(0.992,0,0,0.992,344.855,461.863)" d="M12,-15.5 C7,-15.5 4.1,-12.4 3.6,-11.8 L4,-43.9 C4,-44.7 3.4,-45.3 2.6,-45.3 L1.4,-45.3 C0.6,-45.3 0,-44.7 0,-43.9 L0.5,16.2 C0.5,17 1.1,17.6 1.9,17.6 C2.1,17.6 2.5,17.5 2.7,17.4 C11.3,13.1 20.3,4.9 20.3,-5.4 C20.3,-10.6 17.9,-15.5 12,-15.5 M3.3,12.7 L3.6,-6.8 C3.8,-7.7 5.3,-10.6 9.3,-10.6 C12.9,-10.6 13.2,-7.2 13.2,-5.1 C13.2,3.8 9.9,7.5 3.3,12.7"/>
<path class="TimeSig" transform="matrix(0.992,0,0,0.992,389.789,499.063)" d="M32.5,-17.9 C30,-16.3 28.2,-13.4 28.2,-10.2 C28.2,-9.8 28.2,-9.4 28.3,-9 C28.8,-4.9 32.1,-1.7 36.2,-1.2 C36.5,-1.2 37,-1.2 37.3,-1.2 C42.3,-1.2 46.3,-5.2 46.3,-10.2 C46.3,-10.9 46.3,-11.6 46.1,-12.3 C45.2,-16.6 41.3,-25.8 24.3,-25.8 C2.5,-25.8 0,-7.7 0,-1.2 C0,10.7 1.5,25.6 26.5,25.6 C36.4,25.6 44.1,19.8 44.5,9.1 C44.5,8.6 44.2,8.3 43.7,8.3 L42.4,8.3 C42,8.3 41.6,8.7 41.6,9.1 C41.2,17.4 35.3,22.4 26.5,22.4 C17.8,22.4 13.6,17.7 13.6,8.9 L13.6,-10.2 C13.6,-15.8 15.8,-22.2 24.7,-22.2 C29.4,-22.2 31.5,-20.5 32.6,-18.8 C32.7,-18.6 32.7,-18.5 32.7,-18.3 C32.7,-18.2 32.7,-18 32.5,-17.9"/>
<path class="Rest" transform="matrix(0.992,0,0,0.992,1559.31,1059.54)" d="M23,16.6 C22.9,16.5 22.7,16.3 22.4,15.9 L10.9,1.7 C10.8,1.6 10.7,1.3 10.7,1.1 C10.7,0.8 10.8,0.4 10.9,0.2 L21.1,-15.2 C21.2,-15.4 21.3,-15.7 21.3,-15.9 L21.3,-16.8 C21.3,-17.1 21.2,-17.4 21,-17.6 L4.8,-39.5 C4.8,-39.5 4.4,-40.1 3.8,-40.1 C3.5,-40.1 3.3,-40.1 3,-39.8 C2.6,-39.5 2.5,-39.1 2.5,-38.8 C2.5,-38.2 2.8,-37.7 2.8,-37.7 L10.4,-27.3 C10.6,-27 10.7,-26.6 10.7,-26.1 C10.7,-25.7 10.6,-25.2 10.4,-24.9 L0.3,-9.5 C0.2,-9.3 0.1,-8.9 0.1,-8.7 L0.1,-7.8 C0.1,-7.5 0.2,-7.2 0.4,-7 L11.6,6.9 C11.2,6.8 10.3,6.6 9.1,6.6 C4,6.6 0,10.8 0,15.9 C0,17.3 0.3,18.7 1.1,19.8 C3.2,23 10.7,32.5 10.7,32.5 C10.7,32.5 11.2,33.1 11.9,33.1 C12.1,33.1 12.3,33.1 12.5,32.9 C13,32.5 13.2,32.1 13.2,31.7 C13.2,31.3 13,31 12.9,30.8 C12.6,30.3 9.4,24.5 9.4,24.5 C9.4,24.5 8.7,23.1 8.7,21.3 C8.7,18.1 11.1,15.5 14.3,15.5 C15.6,15.5 16.7,15.9 17.5,16.4 L21.4,18.9 C21.4,18.9 21.8,19.1 22.2,19.1 C22.6,19.1 22.9,19 23.2,18.6 C23.4,18.3 23.5,18 23.5,17.7 C23.5,17.4 23.4,17.2 23.2,16.9 L23,16.6 "/>
<path class="Rest" transform="matrix(0.992,0,0,0.992,1007.92,499.063)" d="M23,16.6 C22.9,16.5 22.7,16.3 22.4,15.9 L10.9,1.7 C10.8,1.6 10.7,1.3 10.7,1.1 C10.7,0.8 10.8,0.4 10.9,0.2 L21.1,-15.2 C21.2,-15.4 21.3,-15.7 21.3,-15.9 L21.3,-16.8 C21.3,-17.1 21.2,-17.4 21,-17.6 L4.8,-39.5 C4.8,-39.5 4.4,-40.1 3.8,-40.1 C3.5,-40.1 3.3,-40.1 3,-39.8 C2.6,-39.5 2.5,-39.1 2.5,-38.8 C2.5,-38.2 2.8,-37.7 2.8,-37.7 L10.4,-27.3 C10.6,-27 10.7,-26.6 10.7,-26.1 C10.7,-25.7 10.6,-25.2 10.4,-24.9 L0.3,-9.5 C0.2,-9.3 0.1,-8.9 0.1,-8.7 L0.1,-7.8 C0.1,-7.5 0.2,-7.2 0.4,-7 L11.6,6.9 C11.2,6.8 10.3,6.6 9.1,6.6 C4,6.6 0,10.8 0,15.9 C0,17.3 0.3,18.7 1.1,19.8 C3.2,23 10.7,32.5 10.7,32.5 C10.7,32.5 11.2,33.1 11.9,33.1 C12.1,33.1 12.3,33.1 12.5,32.9 C13,32.5 13.2,32.1 13.2,31.7 C13.2,31.3 13,31 12.9,30.8 C12.6,30.3 9.4,24.5 9.4,24.5 C9.4,24.5 8.7,23.1 8.7,21.3 C8.7,18.1 11.1,15.5 14.3,15.5 C15.6,15.5 16.7,15.9 17.5,16.4 L21.4,18.9 C21.4,18.9 21.8,19.1 22.2,19.1 C22.6,19.1 22.9,19 23.2,18.6 C23.4,18.3 23.5,18 23.5,17.7 C23.5,17.4 23.4,17.2 23.2,16.9 L23,16.6 "/>
<path class="Rest" transform="matrix(0.992,0,0,0.992,1728.51,499.063)" d="M26.7,-20.3 C26.6,-20.3 26.4,-20.4 26.3,-20.4 C25.7,-20.4 25.2,-20.1 25,-19.6 C22.7,-15 17.9,-8.8 12.5,-7.8 C13.6,-9.1 14.3,-10.7 14.3,-12.6 C14.3,-16.5 11.1,-19.7 7.2,-19.7 C3.2,-19.7 0,-16.5 0,-12.6 C0,-7.2 5.3,-4.7 10,-4.7 C15.3,-4.7 18.8,-7.2 22.2,-10.9 L10.8,24.7 L13.5,25.5 L27.5,-18.6 C27.6,-18.7 27.6,-18.9 27.6,-19.1 C27.6,-19.6 27.3,-20 26.7,-20.3"/>
<path class="Rest" transform="matrix(0.992,0,0,0.992,739.33,1059.54)" d="M23,16.6 C22.9,16.5 22.7,16.3 22.4,15.9 L10.9,1.7 C10.8,1.6 10.7,1.3 10.7,1.1 C10.7,0.8 10.8,0.4 10.9,0.2 L21.1,-15.2 C21.2,-15.4 21.3,-15.7 21.3,-15.9 L21.3,-16.8 C21.3,-17.1 21.2,-17.4 21,-17.6 L4.8,-39.5 C4.8,-39.5 4.4,-40.1 3.8,-40.1 C3.5,-40.1 3.3,-40.1 3,-39.8 C2.6,-39.5 2.5,-39.1 2.5,-38.8 C2.5,-38.2 2.8,-37.7 2.8,-37.7 L10.4,-27.3 C10.6,-27 10.7,-26.6 10.7,-26.1 C10.7,-25.7 10.6,-25.2 10.4,-24.9 L0.3,-9.5 C0.2,-9.3 0.1,-8.9 0.1,-8.7 L0.1,-7.8 C0.1,-7.5 0.2,-7.2 0.4,-7 L11.6,6.9 C11.2,6.8 10.3,6.6 9.1,6.6 C4,6.6 0,10.8 0,15.9 C0,17.3 0.3,18.7 1.1,19.8 C3.2,23 10.7,32.5 10.7,32.5 C10.7,32.5 11.2,33.1 11.9,33.1 C12.1,33.1 12.3,33.1 12.5,32.9 C13,32.5 13.2,32.1 13.2,31.7 C13.2,31.3 13,31 12.9,30.8 C12.6,30.3 9.4,24.5 9.4,24.5 C9.4,24.5 8.7,23.1 8.7,21.3 C8.7,18.1 11.1,15.5 14.3,15.5 C15.6,15.5 16.7,15.9 17.5,16.4 L21.4,18.9 C21.4,18.9 21.8,19.1 22.2,19.1 C22.6,19.1 22.9,19 23.2,18.6 C23.4,18.3 23.5,18 23.5,17.7 C23.5,17.4 23.4,17.2 23.2,16.9 L23,16.6 "/>
<path class="Beam" fill-rule="evenodd" d="M1213.88,1053.3 L1269.64,1047.1 L1269.64,1059.57 L1213.88,1065.77 L1213.88,1053.3 "/>
<path class="Hook" transform="matrix(0.992,0,0,0.992,1192.34,486.663)" d="M0,22.7 C0,23 0.1,23.6 0.8,23.8 C5.1,25.2 13.7,30.6 20.2,41.7 C22,44.8 24.9,49.1 24.9,57.4 C24.9,64.6 23.1,72 20.4,79.2 C20.2,79.8 20.1,80.3 20.1,80.7 C20.1,81.4 20.5,81.7 21.2,81.7 C21.8,81.7 22.3,81.3 22.7,80.6 C27.2,72.6 28.9,63.3 28.9,54.2 C28.4,41.3 21,31.8 21,31.8 C21.3,31.8 11.8,19.5 9.1,15.3 C5.4,9.6 3.7,3.9 3.5,3.5 C3.4,3.2 2.5,-0.4 2.5,-0.4 C2.4,-0.8 1.9,-1.2 1.3,-1.2 C0.6,-1.2 0,-0.6 0,0.1 L0,22.7 "/>
<path class="Hook" transform="matrix(0.992,0,0,0.992,602.718,474.263)" d="M0,22.7 C0,23 0.1,23.6 0.8,23.8 C5.1,25.2 13.7,30.6 20.2,41.7 C22,44.8 24.9,49.1 24.9,57.4 C24.9,64.6 23.1,72 20.4,79.2 C20.2,79.8 20.1,80.3 20.1,80.7 C20.1,81.4 20.5,81.7 21.2,81.7 C21.8,81.7 22.3,81.3 22.7,80.6 C27.2,72.6 28.9,63.3 28.9,54.2 C28.4,41.3 21,31.8 21,31.8 C21.3,31.8 11.8,19.5 9.1,15.3 C5.4,9.6 3.7,3.9 3.5,3.5 C3.4,3.2 2.5,-0.4 2.5,-0.4 C2.4,-0.8 1.9,-1.2 1.3,-1.2 C0.6,-1.2 0,-0.6 0,0.1 L0,22.7 "/>
<path class="Hook" transform="matrix(0.992,0,0,0.992,1807.01,1034.74)" d="M0,22.7 C0,23 0.1,23.6 0.8,23.8 C5.1,25.2 13.7,30.6 20.2,41.7 C22,44.8 24.9,49.1 24.9,57.4 C24.9,64.6 23.1,72 20.4,79.2 C20.2,79.8 20.1,80.3 20.1,80.7 C20.1,81.4 20.5,81.7 21.2,81.7 C21.8,81.7 22.3,81.3 22.7,80.6 C27.2,72.6 28.9,63.3 28.9,54.2 C28.4,41.3 21,31.8 21,31.8 C21.3,31.8 11.8,19.5 9.1,15.3 C5.4,9.6 3.7,3.9 3.5,3.5 C3.4,3.2 2.5,-0.4 2.5,-0.4 C2.4,-0.8 1.9,-1.2 1.3,-1.2 C0.6,-1.2 0,-0.6 0,0.1 L0,22.7 "/>
<path class="Hook" transform="matrix(0.992,0,0,0.992,1954.47,449.463)" d="M0,22.7 C0,23 0.1,23.6 0.8,23.8 C5.1,25.2 13.7,30.6 20.2,41.7 C22,44.8 24.9,49.1 24.9,57.4 C24.9,64.6 23.1,72 20.4,79.2 C20.2,79.8 20.1,80.3 20.1,80.7 C20.1,81.4 20.5,81.7 21.2,81.7 C21.8,81.7 22.3,81.3 22.7,80.6 C27.2,72.6 28.9,63.3 28.9,54.2 C28.4,41.3 21,31.8 21,31.8 C21.3,31.8 11.8,19.5 9.1,15.3 C5.4,9.6 3.7,3.9 3.5,3.5 C3.4,3.2 2.5,-0.4 2.5,-0.4 C2.4,-0.8 1.9,-1.2 1.3,-1.2 C0.6,-1.2 0,-0.6 0,0.1 L0,22.7 "/>
<path class="Hook" transform="matrix(0.992,0,0,0.992,1119.53,486.663)" d="M0,22.7 C0,23 0.1,23.6 0.8,23.8 C5.1,25.2 13.7,30.6 20.2,41.7 C22,44.8 24.9,49.1 24.9,57.4 C24.9,64.6 23.1,72 20.4,79.2 C20.2,79.8 20.1,80.3 20.1,80.7 C20.1,81.4 20.5,81.7 21.2,81.7 C21.8,81.7 22.3,81.3 22.7,80.6 C27.2,72.6 28.9,63.3 28.9,54.2 C28.4,41.3 21,31.8 21,31.8 C21.3,31.8 11.8,19.5 9.1,15.3 C5.4,9.6 3.7,3.9 3.5,3.5 C3.4,3.2 2.5,-0.4 2.5,-0.4 C2.4,-0.8 1.9,-1.2 1.3,-1.2 C0.6,-1.2 0,-0.6 0,0.1 L0,22.7 "/>
<path class="Hook" transform="matrix(0.992,0,0,0.992,1141.07,1047.14)" d="M0,22.7 C0,23 0.1,23.6 0.8,23.8 C5.1,25.2 13.7,30.6 20.2,41.7 C22,44.8 24.9,49.1 24.9,57.4 C24.9,64.6 23.1,72 20.4,79.2 C20.2,79.8 20.1,80.3 20.1,80.7 C20.1,81.4 20.5,81.7 21.2,81.7 C21.8,81.7 22.3,81.3 22.7,80.6 C27.2,72.6 28.9,63.3 28.9,54.2 C28.4,41.3 21,31.8 21,31.8 C21.3,31.8 11.8,19.5 9.1,15.3 C5.4,9.6 3.7,3.9 3.5,3.5 C3.4,3.2 2.5,-0.4 2.5,-0.4 C2.4,-0.8 1.9,-1.2 1.3,-1.2 C0.6,-1.2 0,-0.6 0,0.1 L0,22.7 "/>
<path class="Hook" transform="matrix(0.992,0,0,0.992,1883.65,449.463)" d="M0,22.7 C0,23 0.1,23.6 0.8,23.8 C5.1,25.2 13.7,30.6 20.2,41.7 C22,44.8 24.9,49.1 24.9,57.4 C24.9,64.6 23.1,72 20.4,79.2 C20.2,79.8 20.1,80.3 20.1,80.7 C20.1,81.4 20.5,81.7 21.2,81.7 C21.8,81.7 22.3,81.3 22.7,80.6 C27.2,72.6 28.9,63.3 28.9,54.2 C28.4,41.3 21,31.8 21,31.8 C21.3,31.8 11.8,19.5 9.1,15.3 C5.4,9.6 3.7,3.9 3.5,3.5 C3.4,3.2 2.5,-0.4 2.5,-0.4 C2.4,-0.8 1.9,-1.2 1.3,-1.2 C0.6,-1.2 0,-0.6 0,0.1 L0,22.7 "/>
<path class="Hook" transform="matrix(0.992,0,0,0.992,919.829,1022.34)" d="M0,22.7 C0,23 0.1,23.6 0.8,23.8 C5.1,25.2 13.7,30.6 20.2,41.7 C22,44.8 24.9,49.1 24.9,57.4 C24.9,64.6 23.1,72 20.4,79.2 C20.2,79.8 20.1,80.3 20.1,80.7 C20.1,81.4 20.5,81.7 21.2,81.7 C21.8,81.7 22.3,81.3 22.7,80.6 C27.2,72.6 28.9,63.3 28.9,54.2 C28.4,41.3 21,31.8 21,31.8 C21.3,31.8 11.8,19.5 9.1,15.3 C5.4,9.6 3.7,3.9 3.5,3.5 C3.4,3.2 2.5,-0.4 2.5,-0.4 C2.4,-0.8 1.9,-1.2 1.3,-1.2 C0.6,-1.2 0,-0.6 0,0.1 L0,22.7 "/>
<path class="Hook" transform="matrix(0.992,0,0,0.992,1812.83,449.463)" d="M0,22.7 C0,23 0.1,23.6 0.8,23.8 C5.1,25.2 13.7,30.6 20.2,41.7 C22,44.8 24.9,49.1 24.9,57.4 C24.9,64.6 23.1,72 20.4,79.2 C20.2,79.8 20.1,80.3 20.1,80.7 C20.1,81.4 20.5,81.7 21.2,81.7 C21.8,81.7 22.3,81.3 22.7,80.6 C27.2,72.6 28.9,63.3 28.9,54.2 C28.4,41.3 21,31.8 21,31.8 C21.3,31.8 11.8,19.5 9.1,15.3 C5.4,9.6 3.7,3.9 3.5,3.5 C3.4,3.2 2.5,-0.4 2.5,-0.4 C2.4,-0.8 1.9,-1.2 1.3,-1.2 C0.6,-1.2 0,-0.6 0,0.1 L0,22.7 "/>
<path class="Hook" transform="matrix(0.992,0,0,0.992,849.009,1022.34)" d="M0,22.7 C0,23 0.1,23.6 0.8,23.8 C5.1,25.2 13.7,30.6 20.2,41.7 C22,44.8 24.9,49.1 24.9,57.4 C24.9,64.6 23.1,72 20.4,79.2 C20.2,79.8 20.1,80.3 20.1,80.7 C20.1,81.4 20.5,81.7 21.2,81.7 C21.8,81.7 22.3,81.3 22.7,80.6 C27.2,72.6 28.9,63.3 28.9,54.2 C28.4,41.3 21,31.8 21,31.8 C21.3,31.8 11.8,19.5 9.1,15.3 C5.4,9.6 3.7,3.9 3.5,3.5 C3.4,3.2 2.5,-0.4 2.5,-0.4 C2.4,-0.8 1.9,-1.2 1.3,-1.2 C0.6,-1.2 0,-0.6 0,0.1 L0,22.7 "/>
<path class="Lyrics" d="M627.099,1235.9 C620.749,1235.9 617.499,1242.1 617.499,1250.85 C617.499,1259.65 620.749,1265.8 627.099,1265.8 C633.099,1265.8 636.299,1260.45 636.699,1252.55 L641.399,1252.55 L641.399,1273.7 L645.099,1273.7 L645.099,1232.95 L641.399,1232.95 L641.399,1249.4 L636.699,1249.4 C636.399,1241.45 633.149,1235.9 627.099,1235.9 M632.949,1250.85 C632.949,1257.95 630.649,1262.45 627.099,1262.45 C623.599,1262.45 621.349,1257.95 621.349,1250.85 C621.349,1243.8 623.599,1239.25 627.099,1239.25 C630.649,1239.25 632.949,1243.8 632.949,1250.85 M653.649,1275.8 L653.649,1232.1 L649.899,1232.1 L649.899,1275.8 L653.649,1275.8 "/>
<path class="Lyrics" d="M655.296,1194.22 L655.296,1191.02 L615.846,1191.02 L615.846,1194.22 L655.296,1194.22 M650.896,1180.32 C650.896,1175.52 645.096,1172.72 635.596,1172.72 C626.196,1172.72 620.396,1175.52 620.396,1180.32 C620.396,1185.12 626.196,1187.87 635.596,1187.87 C645.096,1187.87 650.896,1185.12 650.896,1180.32 M635.596,1175.82 C642.546,1175.82 647.046,1177.57 647.046,1180.32 C647.046,1183.02 642.546,1184.72 635.596,1184.72 C628.746,1184.72 624.296,1183.02 624.296,1180.32 C624.296,1177.57 628.746,1175.82 635.596,1175.82 M651.796,1215.42 L651.796,1212.32 L624.246,1212.32 L624.246,1207.92 L650.346,1207.92 L650.346,1198.12 L620.346,1198.12 L620.346,1201.17 L646.546,1201.17 L646.546,1205.02 L620.446,1205.02 L620.446,1215.42 L651.796,1215.42 "/>
<path class="Lyrics" d="M1814.93,626.293 C1814.93,619.093 1808.68,614.393 1799.13,614.393 C1789.73,614.393 1783.43,619.093 1783.43,626.293 C1783.43,632.993 1788.88,637.493 1797.23,638.093 L1797.23,646.393 L1779.48,646.393 L1779.48,649.593 L1818.93,649.593 L1818.93,646.393 L1801.03,646.393 L1801.03,638.093 C1809.43,637.543 1814.93,632.993 1814.93,626.293 M1811.28,626.343 C1811.28,631.593 1806.48,635.043 1799.13,635.043 C1791.88,635.043 1787.13,631.593 1787.13,626.343 C1787.13,621.093 1791.88,617.593 1799.13,617.593 C1806.53,617.593 1811.28,621.093 1811.28,626.343"/>
<path class="Lyrics" d="M855.239,1192.67 L855.239,1189.47 L848.889,1189.47 L848.889,1172.12 L845.089,1172.12 L845.089,1215.82 L848.889,1215.82 L848.889,1192.67 L855.239,1192.67 M827.789,1202.97 L827.239,1199.87 C824.239,1200.62 821.839,1200.87 819.289,1200.87 L819.289,1179.87 L826.489,1179.87 L826.489,1176.72 L815.539,1176.72 L815.539,1204.12 C820.889,1204.12 824.139,1203.77 827.789,1202.97 M843.039,1203.17 L842.589,1200.07 C839.889,1200.72 836.189,1200.97 832.939,1200.97 L832.939,1179.87 L840.839,1179.87 L840.839,1176.72 L829.189,1176.72 L829.189,1204.22 C834.989,1204.22 839.389,1204.02 843.039,1203.17"/>
<path class="Lyrics" d="M851.114,1246.75 C851.114,1239.55 844.864,1234.85 835.314,1234.85 C825.914,1234.85 819.614,1239.55 819.614,1246.75 C819.614,1253.45 825.064,1257.95 833.414,1258.55 L833.414,1266.85 L815.664,1266.85 L815.664,1270.05 L855.114,1270.05 L855.114,1266.85 L837.214,1266.85 L837.214,1258.55 C845.614,1258 851.114,1253.45 851.114,1246.75 M847.464,1246.8 C847.464,1252.05 842.664,1255.5 835.314,1255.5 C828.064,1255.5 823.314,1252.05 823.314,1246.8 C823.314,1241.55 828.064,1238.05 835.314,1238.05 C842.714,1238.05 847.464,1241.55 847.464,1246.8"/>
<path class="Lyrics" d="M1814.93,686.277 C1814.93,679.077 1808.68,674.377 1799.13,674.377 C1789.73,674.377 1783.43,679.077 1783.43,686.277 C1783.43,692.977 1788.88,697.477 1797.23,698.077 L1797.23,706.377 L1779.48,706.377 L1779.48,709.577 L1818.93,709.577 L1818.93,706.377 L1801.03,706.377 L1801.03,698.077 C1809.43,697.527 1814.93,692.977 1814.93,686.277 M1811.28,686.327 C1811.28,691.577 1806.48,695.027 1799.13,695.027 C1791.88,695.027 1787.13,691.577 1787.13,686.327 C1787.13,681.077 1791.88,677.577 1799.13,677.577 C1806.53,677.577 1811.28,681.077 1811.28,686.327"/>
<path class="Lyrics" d="M1634.29,671.627 L1630.49,671.627 L1630.49,715.327 L1634.29,715.327 L1634.29,692.177 L1641.39,692.177 L1641.39,688.977 L1634.29,688.977 L1634.29,671.627 M1606.14,701.377 L1606.14,679.377 L1623.04,679.377 L1623.04,676.177 L1602.29,676.177 L1602.29,704.627 L1606.59,704.627 C1614.19,704.627 1622.84,704.027 1627.54,703.127 L1627.14,699.977 C1622.94,700.877 1614.29,701.377 1608.64,701.377 L1606.14,701.377 "/>
<path class="Lyrics" d="M1634.29,611.643 L1630.49,611.643 L1630.49,655.343 L1634.29,655.343 L1634.29,632.193 L1641.39,632.193 L1641.39,628.993 L1634.29,628.993 L1634.29,611.643 M1606.14,641.393 L1606.14,619.393 L1623.04,619.393 L1623.04,616.193 L1602.29,616.193 L1602.29,644.643 L1606.59,644.643 C1614.19,644.643 1622.84,644.043 1627.54,643.143 L1627.14,639.993 C1622.94,640.893 1614.29,641.393 1608.64,641.393 L1606.14,641.393 "/>
<path class="Lyrics" d="M922.133,1199.32 L922.133,1196.12 L895.233,1196.12 L895.233,1188.77 L920.983,1188.77 L920.983,1175.57 L891.283,1175.57 L891.283,1178.77 L917.183,1178.77 L917.183,1185.62 L891.433,1185.62 L891.433,1199.32 L922.133,1199.32 M925.933,1209.87 L925.933,1206.67 L886.483,1206.67 L886.483,1209.87 L925.933,1209.87 "/>
<path class="Lyrics" d="M921.533,1251.4 L921.533,1248.35 L895.533,1248.35 L895.533,1243.8 L920.633,1243.8 L920.633,1233.7 L891.583,1233.7 L891.583,1236.7 L916.833,1236.7 L916.833,1240.95 L891.733,1240.95 L891.733,1251.4 L904.233,1251.4 L904.233,1255.7 L886.483,1255.7 L886.483,1258.85 L925.933,1258.85 L925.933,1255.7 L908.033,1255.7 L908.033,1251.4 L921.533,1251.4 M923.183,1272.7 C915.633,1272.15 908.133,1266.9 908.133,1261.85 L908.133,1260.9 L904.233,1260.9 L904.233,1261.85 C904.233,1266.95 896.833,1272.1 889.233,1272.6 L891.183,1275.7 C897.933,1274.55 904.283,1270.25 906.133,1266.7 C907.933,1270.25 914.733,1274.9 921.283,1275.8 L923.183,1272.7 "/>
<path class="Lyrics" d="M1520.53,715.327 L1520.53,671.627 L1516.73,671.627 L1516.73,715.327 L1520.53,715.327 M1486.03,690.327 C1486.03,699.627 1490.13,705.827 1497.28,705.827 C1504.53,705.827 1508.58,699.627 1508.58,690.377 C1508.58,681.127 1504.53,674.927 1497.28,674.927 C1490.13,674.927 1486.03,681.127 1486.03,690.327 M1504.98,690.377 C1504.98,697.527 1501.93,702.527 1497.28,702.527 C1492.68,702.527 1489.63,697.527 1489.63,690.377 C1489.63,683.177 1492.68,678.227 1497.28,678.227 C1501.93,678.227 1504.98,683.177 1504.98,690.377"/>
<path class="Lyrics" d="M1520.53,655.343 L1520.53,611.643 L1516.73,611.643 L1516.73,655.343 L1520.53,655.343 M1486.03,630.343 C1486.03,639.643 1490.13,645.843 1497.28,645.843 C1504.53,645.843 1508.58,639.643 1508.58,630.393 C1508.58,621.143 1504.53,614.943 1497.28,614.943 C1490.13,614.943 1486.03,621.143 1486.03,630.343 M1504.98,630.393 C1504.98,637.543 1501.93,642.543 1497.28,642.543 C1492.68,642.543 1489.63,637.543 1489.63,630.393 C1489.63,623.193 1492.68,618.243 1497.28,618.243 C1501.93,618.243 1504.98,623.193 1504.98,630.393"/>
<path class="Lyrics" d="M1426.39,699.077 C1421.64,700.227 1413.09,700.877 1405.59,700.927 L1405.59,675.977 L1401.79,675.977 L1401.79,704.277 L1404.44,704.277 C1411.09,704.277 1421.59,703.527 1426.94,702.277 L1426.39,699.077 M1433.89,671.627 L1430.09,671.627 L1430.09,715.327 L1433.89,715.327 L1433.89,692.227 L1441.04,692.227 L1441.04,688.977 L1433.89,688.977 L1433.89,671.627 "/>
<path class="Lyrics" d="M1426.39,639.093 C1421.64,640.243 1413.09,640.893 1405.59,640.943 L1405.59,615.993 L1401.79,615.993 L1401.79,644.293 L1404.44,644.293 C1411.09,644.293 1421.59,643.543 1426.94,642.293 L1426.39,639.093 M1433.89,611.643 L1430.09,611.643 L1430.09,655.343 L1433.89,655.343 L1433.89,632.243 L1441.04,632.243 L1441.04,628.993 L1433.89,628.993 L1433.89,611.643 "/>
<path class="Lyrics" d="M1302.77,681.577 C1302.77,676.427 1298.32,672.827 1291.67,672.827 C1285.07,672.827 1280.57,676.427 1280.57,681.577 C1280.57,686.177 1284.17,689.427 1289.67,690.127 L1289.67,694.727 C1285.37,694.927 1281.17,694.927 1278.12,694.927 L1278.72,698.277 C1281.82,698.277 1287.37,698.027 1292.27,697.777 C1297.47,697.427 1302.97,696.927 1306.12,696.527 L1305.77,693.427 C1303.12,693.877 1298.17,694.277 1293.47,694.577 L1293.47,690.177 C1299.12,689.527 1302.77,686.227 1302.77,681.577 M1299.07,681.577 C1299.07,684.627 1296.27,687.077 1291.67,687.077 C1287.07,687.077 1284.27,684.627 1284.27,681.577 C1284.27,678.477 1287.07,675.977 1291.67,675.977 C1296.27,675.977 1299.07,678.477 1299.07,681.577 M1319.17,687.377 L1319.17,684.177 L1312.57,684.177 L1312.57,671.627 L1308.72,671.627 L1308.72,698.127 L1312.57,698.127 L1312.57,687.377 L1319.17,687.377 M1315.02,715.927 L1317.32,713.177 C1313.22,711.627 1309.17,707.427 1309.17,702.027 L1309.17,700.277 L1305.42,700.277 L1305.42,702.227 C1305.42,707.477 1301.42,711.477 1296.67,713.777 L1299.12,716.327 C1302.57,714.627 1306.27,711.377 1307.32,708.127 C1308.47,711.277 1312.07,714.477 1314.97,715.927 L1315.02,715.927 M1299.02,709.777 C1295.62,708.477 1292.72,706.277 1292.72,701.727 L1292.72,700.327 L1288.97,700.327 L1288.97,701.927 C1288.97,707.277 1284.62,711.177 1280.02,713.127 L1282.37,715.877 C1286.12,714.077 1289.97,710.677 1290.97,707.427 C1292.07,709.827 1294.37,711.327 1296.47,712.477 L1299.02,709.777 "/>
<path class="Lyrics" d="M1958.92,1249.7 L1958.92,1233.15 L1955.07,1233.15 L1955.07,1238.45 L1933.22,1238.45 L1933.22,1233.15 L1929.42,1233.15 L1929.42,1249.7 L1942.17,1249.7 L1942.17,1254.4 L1924.42,1254.4 L1924.42,1257.55 L1963.87,1257.55 L1963.87,1254.4 L1945.97,1254.4 L1945.97,1249.7 L1958.92,1249.7 M1928.72,1261.9 L1928.72,1265.05 L1955.22,1265.05 L1955.22,1276.1 L1959.02,1276.1 L1959.02,1261.9 L1928.72,1261.9 M1955.07,1246.55 L1933.22,1246.55 L1933.22,1241.6 L1955.07,1241.6 L1955.07,1246.55 "/>
<path class="Lyrics" d="M1030.58,1201.02 C1025.08,1201.97 1018.08,1202.22 1012.83,1202.22 L1012.83,1191.57 L1028.33,1191.57 L1028.33,1176.17 L1009.03,1176.17 L1009.03,1179.32 L1024.53,1179.32 L1024.53,1188.37 L1009.03,1188.37 L1009.03,1205.47 L1012.58,1205.47 C1019.93,1205.47 1026.43,1204.92 1031.03,1204.17 L1030.58,1201.02 M1031.23,1197.72 L1039.43,1197.72 L1039.43,1215.82 L1043.23,1215.82 L1043.23,1172.12 L1039.43,1172.12 L1039.43,1182.87 L1031.23,1182.87 L1031.23,1186.07 L1039.43,1186.07 L1039.43,1194.52 L1031.23,1194.52 L1031.23,1197.72 "/>
<path class="Lyrics" d="M1043.37,1275.8 L1043.37,1232.1 L1039.57,1232.1 L1039.57,1275.8 L1043.37,1275.8 M1008.87,1250.8 C1008.87,1260.1 1012.97,1266.3 1020.12,1266.3 C1027.37,1266.3 1031.42,1260.1 1031.42,1250.85 C1031.42,1241.6 1027.37,1235.4 1020.12,1235.4 C1012.97,1235.4 1008.87,1241.6 1008.87,1250.8 M1027.82,1250.85 C1027.82,1258 1024.77,1263 1020.12,1263 C1015.52,1263 1012.47,1258 1012.47,1250.85 C1012.47,1243.65 1015.52,1238.7 1020.12,1238.7 C1024.77,1238.7 1027.82,1243.65 1027.82,1250.85"/>
<path class="Lyrics" d="M1889.75,649.793 L1889.75,646.593 L1871.85,646.593 L1871.85,639.143 L1886.1,639.143 L1886.1,635.943 L1858.95,635.943 L1858.95,628.643 L1884.85,628.643 L1884.85,615.293 L1855.1,615.293 L1855.1,618.493 L1881.05,618.493 L1881.05,625.493 L1855.15,625.493 L1855.15,639.143 L1868.05,639.143 L1868.05,646.593 L1850.3,646.593 L1850.3,649.793 L1889.75,649.793 "/>
<path class="Lyrics" d="M1302.77,621.593 C1302.77,616.443 1298.32,612.843 1291.67,612.843 C1285.07,612.843 1280.57,616.443 1280.57,621.593 C1280.57,626.193 1284.17,629.443 1289.67,630.143 L1289.67,634.743 C1285.37,634.943 1281.17,634.943 1278.12,634.943 L1278.72,638.293 C1281.82,638.293 1287.37,638.043 1292.27,637.793 C1297.47,637.443 1302.97,636.943 1306.12,636.543 L1305.77,633.443 C1303.12,633.893 1298.17,634.293 1293.47,634.593 L1293.47,630.193 C1299.12,629.543 1302.77,626.243 1302.77,621.593 M1299.07,621.593 C1299.07,624.643 1296.27,627.093 1291.67,627.093 C1287.07,627.093 1284.27,624.643 1284.27,621.593 C1284.27,618.493 1287.07,615.993 1291.67,615.993 C1296.27,615.993 1299.07,618.493 1299.07,621.593 M1319.17,627.393 L1319.17,624.193 L1312.57,624.193 L1312.57,611.643 L1308.72,611.643 L1308.72,638.143 L1312.57,638.143 L1312.57,627.393 L1319.17,627.393 M1315.02,655.943 L1317.32,653.193 C1313.22,651.643 1309.17,647.443 1309.17,642.043 L1309.17,640.293 L1305.42,640.293 L1305.42,642.243 C1305.42,647.493 1301.42,651.493 1296.67,653.793 L1299.12,656.343 C1302.57,654.643 1306.27,651.393 1307.32,648.143 C1308.47,651.293 1312.07,654.493 1314.97,655.943 L1315.02,655.943 M1299.02,649.793 C1295.62,648.493 1292.72,646.293 1292.72,641.743 L1292.72,640.343 L1288.97,640.343 L1288.97,641.943 C1288.97,647.293 1284.62,651.193 1280.02,653.143 L1282.37,655.893 C1286.12,654.093 1289.97,650.693 1290.97,647.443 C1292.07,649.843 1294.37,651.343 1296.47,652.493 L1299.02,649.793 "/>
<path class="Lyrics" d="M1196.33,715.327 L1196.33,671.627 L1192.53,671.627 L1192.53,715.327 L1196.33,715.327 M1183.48,676.277 L1162.68,676.277 L1162.68,679.477 L1179.43,679.477 C1178.63,689.327 1172.13,698.827 1161.08,703.677 L1163.28,706.677 C1174.58,701.327 1183.28,690.477 1183.48,676.277"/>
<path class="Lyrics" d="M1196.33,655.343 L1196.33,611.643 L1192.53,611.643 L1192.53,655.343 L1196.33,655.343 M1183.48,616.293 L1162.68,616.293 L1162.68,619.493 L1179.43,619.493 C1178.63,629.343 1172.13,638.843 1161.08,643.693 L1163.28,646.693 C1174.58,641.343 1183.28,630.493 1183.48,616.293"/>
<path class="Lyrics" d="M1131.58,1182.07 C1131.58,1176.92 1127.13,1173.32 1120.48,1173.32 C1113.88,1173.32 1109.38,1176.92 1109.38,1182.07 C1109.38,1186.67 1112.98,1189.92 1118.48,1190.62 L1118.48,1195.22 C1114.18,1195.42 1109.98,1195.42 1106.93,1195.42 L1107.53,1198.77 C1110.63,1198.77 1116.18,1198.52 1121.08,1198.27 C1126.28,1197.92 1131.78,1197.42 1134.93,1197.02 L1134.58,1193.92 C1131.93,1194.37 1126.98,1194.77 1122.28,1195.07 L1122.28,1190.67 C1127.93,1190.02 1131.58,1186.72 1131.58,1182.07 M1127.88,1182.07 C1127.88,1185.12 1125.08,1187.57 1120.48,1187.57 C1115.88,1187.57 1113.08,1185.12 1113.08,1182.07 C1113.08,1178.97 1115.88,1176.47 1120.48,1176.47 C1125.08,1176.47 1127.88,1178.97 1127.88,1182.07 M1147.98,1187.87 L1147.98,1184.67 L1141.38,1184.67 L1141.38,1172.12 L1137.53,1172.12 L1137.53,1198.62 L1141.38,1198.62 L1141.38,1187.87 L1147.98,1187.87 M1143.83,1216.42 L1146.13,1213.67 C1142.03,1212.12 1137.98,1207.92 1137.98,1202.52 L1137.98,1200.77 L1134.23,1200.77 L1134.23,1202.72 C1134.23,1207.97 1130.23,1211.97 1125.48,1214.27 L1127.93,1216.82 C1131.38,1215.12 1135.08,1211.87 1136.13,1208.62 C1137.28,1211.77 1140.88,1214.97 1143.78,1216.42 L1143.83,1216.42 M1127.83,1210.27 C1124.43,1208.97 1121.53,1206.77 1121.53,1202.22 L1121.53,1200.82 L1117.78,1200.82 L1117.78,1202.42 C1117.78,1207.77 1113.43,1211.67 1108.83,1213.62 L1111.18,1216.37 C1114.93,1214.57 1118.78,1211.17 1119.78,1207.92 C1120.88,1210.32 1123.18,1211.82 1125.28,1212.97 L1127.83,1210.27 "/>
<path class="Lyrics" d="M1131.58,1242.05 C1131.58,1236.9 1127.13,1233.3 1120.48,1233.3 C1113.88,1233.3 1109.38,1236.9 1109.38,1242.05 C1109.38,1246.65 1112.98,1249.9 1118.48,1250.6 L1118.48,1255.2 C1114.18,1255.4 1109.98,1255.4 1106.93,1255.4 L1107.53,1258.75 C1110.63,1258.75 1116.18,1258.5 1121.08,1258.25 C1126.28,1257.9 1131.78,1257.4 1134.93,1257 L1134.58,1253.9 C1131.93,1254.35 1126.98,1254.75 1122.28,1255.05 L1122.28,1250.65 C1127.93,1250 1131.58,1246.7 1131.58,1242.05 M1127.88,1242.05 C1127.88,1245.1 1125.08,1247.55 1120.48,1247.55 C1115.88,1247.55 1113.08,1245.1 1113.08,1242.05 C1113.08,1238.95 1115.88,1236.45 1120.48,1236.45 C1125.08,1236.45 1127.88,1238.95 1127.88,1242.05 M1147.98,1247.85 L1147.98,1244.65 L1141.38,1244.65 L1141.38,1232.1 L1137.53,1232.1 L1137.53,1258.6 L1141.38,1258.6 L1141.38,1247.85 L1147.98,1247.85 M1143.83,1276.4 L1146.13,1273.65 C1142.03,1272.1 1137.98,1267.9 1137.98,1262.5 L1137.98,1260.75 L1134.23,1260.75 L1134.23,1262.7 C1134.23,1267.95 1130.23,1271.95 1125.48,1274.25 L1127.93,1276.8 C1131.38,1275.1 1135.08,1271.85 1136.13,1268.6 C1137.28,1271.75 1140.88,1274.95 1143.78,1276.4 L1143.83,1276.4 M1127.83,1270.25 C1124.43,1268.95 1121.53,1266.75 1121.53,1262.2 L1121.53,1260.8 L1117.78,1260.8 L1117.78,1262.4 C1117.78,1267.75 1113.43,1271.65 1108.83,1273.6 L1111.18,1276.35 C1114.93,1274.55 1118.78,1271.15 1119.78,1267.9 C1120.88,1270.3 1123.18,1271.8 1125.28,1272.95 L1127.83,1270.25 "/>
<path class="Lyrics" d="M334.046,1253.05 L334.046,1233.8 L330.246,1233.8 L330.246,1240.25 L307.996,1240.25 L307.996,1233.8 L304.146,1233.8 L304.146,1253.05 L334.046,1253.05 M320.946,1275.85 L320.946,1261.45 L338.846,1261.45 L338.846,1258.25 L299.396,1258.25 L299.396,1261.45 L317.146,1261.45 L317.146,1275.85 L320.946,1275.85 M330.246,1249.9 L307.996,1249.9 L307.996,1243.35 L330.246,1243.35 L330.246,1249.9 "/>
<path class="Lyrics" d="M1119.91,684.527 L1119.91,695.427 L1111.06,695.427 L1111.06,698.577 L1119.91,698.577 L1119.91,715.327 L1123.71,715.327 L1123.71,671.627 L1119.91,671.627 L1119.91,681.377 L1111.06,681.377 L1111.06,684.527 L1119.91,684.527 M1088.11,690.127 C1088.11,699.427 1092.01,705.577 1098.91,705.577 C1105.91,705.577 1109.76,699.427 1109.76,690.177 C1109.76,680.877 1105.91,674.677 1098.91,674.677 C1092.01,674.677 1088.11,680.877 1088.11,690.127 M1106.01,690.177 C1106.01,697.277 1103.21,702.277 1098.91,702.277 C1094.71,702.277 1091.86,697.277 1091.86,690.177 C1091.86,682.977 1094.71,677.977 1098.91,677.977 C1103.21,677.977 1106.01,682.977 1106.01,690.177"/>
<path class="Lyrics" d="M1119.91,624.543 L1119.91,635.443 L1111.06,635.443 L1111.06,638.593 L1119.91,638.593 L1119.91,655.343 L1123.71,655.343 L1123.71,611.643 L1119.91,611.643 L1119.91,621.393 L1111.06,621.393 L1111.06,624.543 L1119.91,624.543 M1088.11,630.143 C1088.11,639.443 1092.01,645.593 1098.91,645.593 C1105.91,645.593 1109.76,639.443 1109.76,630.193 C1109.76,620.893 1105.91,614.693 1098.91,614.693 C1092.01,614.693 1088.11,620.893 1088.11,630.143 M1106.01,630.193 C1106.01,637.293 1103.21,642.293 1098.91,642.293 C1094.71,642.293 1091.86,637.293 1091.86,630.193 C1091.86,622.993 1094.71,617.993 1098.91,617.993 C1103.21,617.993 1106.01,622.993 1106.01,630.193"/>
<path class="Lyrics" d="M536.721,1256.95 L536.721,1232.1 L532.921,1232.1 L532.921,1256.95 L536.721,1256.95 M526.871,1252.3 C521.921,1250.55 516.021,1245.15 516.021,1238.15 L516.021,1234.15 L512.171,1234.15 L512.171,1238.3 C512.171,1245.25 507.221,1250.8 501.121,1253.6 L503.471,1256.55 C508.971,1253.55 512.871,1249.5 514.221,1245 C515.921,1249.4 520.471,1253.3 524.621,1255.35 L526.871,1252.3 M536.771,1275.2 L536.771,1259.6 L507.971,1259.6 L507.971,1275.2 L536.771,1275.2 M532.971,1272.05 L511.821,1272.05 L511.821,1262.75 L532.971,1262.75 L532.971,1272.05 "/>
<path class="Lyrics" d="M1205.22,1199.57 C1200.47,1200.72 1191.92,1201.37 1184.42,1201.42 L1184.42,1176.47 L1180.62,1176.47 L1180.62,1204.77 L1183.27,1204.77 C1189.92,1204.77 1200.42,1204.02 1205.77,1202.77 L1205.22,1199.57 M1212.72,1172.12 L1208.92,1172.12 L1208.92,1215.82 L1212.72,1215.82 L1212.72,1192.72 L1219.87,1192.72 L1219.87,1189.47 L1212.72,1189.47 L1212.72,1172.12 "/>
<path class="Lyrics" d="M1205.22,1259.55 C1200.47,1260.7 1191.92,1261.35 1184.42,1261.4 L1184.42,1236.45 L1180.62,1236.45 L1180.62,1264.75 L1183.27,1264.75 C1189.92,1264.75 1200.42,1264 1205.77,1262.75 L1205.22,1259.55 M1212.72,1232.1 L1208.92,1232.1 L1208.92,1275.8 L1212.72,1275.8 L1212.72,1252.7 L1219.87,1252.7 L1219.87,1249.45 L1212.72,1249.45 L1212.72,1232.1 "/>
<path class="Lyrics" d="M520.258,1196.22 L520.258,1175.97 L499.558,1175.97 L499.558,1196.22 L520.258,1196.22 M516.458,1193.07 L503.358,1193.07 L503.358,1179.12 L516.458,1179.12 L516.458,1193.07 M538.308,1188.37 L538.308,1185.17 L531.658,1185.17 L531.658,1172.12 L527.858,1172.12 L527.858,1203.87 L531.658,1203.87 L531.658,1188.37 L538.308,1188.37 M533.358,1214.32 L533.358,1211.17 L508.108,1211.17 L508.108,1200.87 L504.308,1200.87 L504.308,1214.32 L533.358,1214.32 "/>
<path class="Lyrics" d="M1889.75,709.777 L1889.75,706.577 L1871.85,706.577 L1871.85,699.127 L1886.1,699.127 L1886.1,695.927 L1858.95,695.927 L1858.95,688.627 L1884.85,688.627 L1884.85,675.277 L1855.1,675.277 L1855.1,678.477 L1881.05,678.477 L1881.05,685.477 L1855.15,685.477 L1855.15,699.127 L1868.05,699.127 L1868.05,706.577 L1850.3,706.577 L1850.3,709.777 L1889.75,709.777 "/>
<path class="Lyrics" d="M1247.31,1198.42 L1247.31,1202.57 L1259.76,1202.57 L1259.76,1198.42 L1247.31,1198.42 "/>
<path class="Lyrics" d="M1247.31,1258.4 L1247.31,1262.55 L1259.76,1262.55 L1259.76,1258.4 L1247.31,1258.4 "/>
<path class="Lyrics" d="M959.437,715.327 L959.437,671.627 L955.637,671.627 L955.637,715.327 L959.437,715.327 M924.937,690.327 C924.937,699.627 929.037,705.827 936.187,705.827 C943.437,705.827 947.487,699.627 947.487,690.377 C947.487,681.127 943.437,674.927 936.187,674.927 C929.037,674.927 924.937,681.127 924.937,690.327 M943.887,690.377 C943.887,697.527 940.837,702.527 936.187,702.527 C931.587,702.527 928.537,697.527 928.537,690.377 C928.537,683.177 931.587,678.227 936.187,678.227 C940.837,678.227 943.887,683.177 943.887,690.377"/>
<path class="Lyrics" d="M959.437,655.343 L959.437,611.643 L955.637,611.643 L955.637,655.343 L959.437,655.343 M924.937,630.343 C924.937,639.643 929.037,645.843 936.187,645.843 C943.437,645.843 947.487,639.643 947.487,630.393 C947.487,621.143 943.437,614.943 936.187,614.943 C929.037,614.943 924.937,621.143 924.937,630.343 M943.887,630.393 C943.887,637.543 940.837,642.543 936.187,642.543 C931.587,642.543 928.537,637.543 928.537,630.393 C928.537,623.193 931.587,618.243 936.187,618.243 C940.837,618.243 943.887,623.193 943.887,630.393"/>
<path class="Lyrics" d="M1324.07,1215.82 L1324.07,1172.12 L1320.27,1172.12 L1320.27,1215.82 L1324.07,1215.82 M1289.57,1190.82 C1289.57,1200.12 1293.67,1206.32 1300.82,1206.32 C1308.07,1206.32 1312.12,1200.12 1312.12,1190.87 C1312.12,1181.62 1308.07,1175.42 1300.82,1175.42 C1293.67,1175.42 1289.57,1181.62 1289.57,1190.82 M1308.52,1190.87 C1308.52,1198.02 1305.47,1203.02 1300.82,1203.02 C1296.22,1203.02 1293.17,1198.02 1293.17,1190.87 C1293.17,1183.67 1296.22,1178.72 1300.82,1178.72 C1305.47,1178.72 1308.52,1183.67 1308.52,1190.87"/>
<path class="Lyrics" d="M1324.07,1275.8 L1324.07,1232.1 L1320.27,1232.1 L1320.27,1275.8 L1324.07,1275.8 M1289.57,1250.8 C1289.57,1260.1 1293.67,1266.3 1300.82,1266.3 C1308.07,1266.3 1312.12,1260.1 1312.12,1250.85 C1312.12,1241.6 1308.07,1235.4 1300.82,1235.4 C1293.67,1235.4 1289.57,1241.6 1289.57,1250.8 M1308.52,1250.85 C1308.52,1258 1305.47,1263 1300.82,1263 C1296.22,1263 1293.17,1258 1293.17,1250.85 C1293.17,1243.65 1296.22,1238.7 1300.82,1238.7 C1305.47,1238.7 1308.52,1243.65 1308.52,1250.85"/>
<path class="Lyrics" d="M875.663,707.677 C875.663,702.827 870.113,700.227 860.313,700.227 C850.563,700.227 845.063,703.027 845.063,707.677 C845.063,712.427 850.563,715.227 860.313,715.227 C870.113,715.227 875.663,712.477 875.663,707.677 M878.113,686.227 C872.013,685.627 863.963,682.227 862.563,677.027 L876.463,677.027 L876.463,673.877 L844.213,673.877 L844.213,677.027 L858.163,677.027 C856.863,682.177 849.413,685.627 842.663,686.277 L844.413,689.427 C852.113,688.327 858.613,684.427 860.313,680.377 C862.513,684.377 869.063,688.227 876.363,689.427 L878.113,686.227 M860.313,703.277 C867.413,703.277 871.813,704.877 871.813,707.677 C871.813,710.577 867.413,712.127 860.313,712.127 C853.263,712.127 848.913,710.577 848.913,707.677 C848.913,704.877 853.263,703.277 860.313,703.277 M880.063,696.677 L880.063,693.477 L862.213,693.477 L862.213,686.877 L858.413,686.877 L858.413,693.477 L840.613,693.477 L840.613,696.677 L880.063,696.677 "/>
<path class="Lyrics" d="M875.663,647.693 C875.663,642.843 870.113,640.243 860.313,640.243 C850.563,640.243 845.063,643.043 845.063,647.693 C845.063,652.443 850.563,655.243 860.313,655.243 C870.113,655.243 875.663,652.493 875.663,647.693 M878.113,626.243 C872.013,625.643 863.963,622.243 862.563,617.043 L876.463,617.043 L876.463,613.893 L844.213,613.893 L844.213,617.043 L858.163,617.043 C856.863,622.193 849.413,625.643 842.663,626.293 L844.413,629.443 C852.113,628.343 858.613,624.443 860.313,620.393 C862.513,624.393 869.063,628.243 876.363,629.443 L878.113,626.243 M860.313,643.293 C867.413,643.293 871.813,644.893 871.813,647.693 C871.813,650.593 867.413,652.143 860.313,652.143 C853.263,652.143 848.913,650.593 848.913,647.693 C848.913,644.893 853.263,643.293 860.313,643.293 M880.063,636.693 L880.063,633.493 L862.213,633.493 L862.213,626.893 L858.413,626.893 L858.413,633.493 L840.613,633.493 L840.613,636.693 L880.063,636.693 "/>
<path class="Lyrics" d="M759.125,703.377 L759.125,671.627 L755.325,671.627 L755.325,703.377 L759.125,703.377 M749.825,693.427 C744.625,691.577 738.725,686.177 738.725,678.877 L738.725,674.127 L734.875,674.127 L734.875,678.977 C734.875,685.977 729.225,692.377 723.475,694.927 L725.775,697.927 C730.525,695.527 735.575,690.477 736.875,685.777 C738.675,690.377 743.175,694.527 747.675,696.477 L749.825,693.427 M760.075,713.977 L760.075,710.827 L734.725,710.827 L734.725,700.527 L730.925,700.527 L730.925,713.977 L760.075,713.977 "/>
<path class="Lyrics" d="M759.125,643.393 L759.125,611.643 L755.325,611.643 L755.325,643.393 L759.125,643.393 M749.825,633.443 C744.625,631.593 738.725,626.193 738.725,618.893 L738.725,614.143 L734.875,614.143 L734.875,618.993 C734.875,625.993 729.225,632.393 723.475,634.943 L725.775,637.943 C730.525,635.543 735.575,630.493 736.875,625.793 C738.675,630.393 743.175,634.543 747.675,636.493 L749.825,633.443 M760.075,653.993 L760.075,650.843 L734.725,650.843 L734.725,640.543 L730.925,640.543 L730.925,653.993 L760.075,653.993 "/>
<path class="Lyrics" d="M1963.87,1195.42 L1963.87,1192.47 L1924.42,1192.47 L1924.42,1195.42 L1963.87,1195.42 M1960.57,1215.02 L1960.57,1212.02 L1932.77,1212.02 L1932.77,1208.02 L1959.22,1208.02 L1959.22,1198.87 L1929.02,1198.87 L1929.02,1201.67 L1955.42,1201.67 L1955.42,1205.32 L1928.97,1205.32 L1928.97,1215.02 L1960.57,1215.02 M1959.82,1189.02 L1959.82,1186.17 L1933.22,1186.17 L1933.22,1182.72 L1958.97,1182.72 L1958.97,1173.57 L1929.37,1173.57 L1929.37,1176.57 L1955.17,1176.57 L1955.17,1179.97 L1929.42,1179.97 L1929.42,1189.02 L1959.82,1189.02 "/>
<path class="Lyrics" d="M1435.9,1172.12 L1432.1,1172.12 L1432.1,1215.82 L1435.9,1215.82 L1435.9,1192.67 L1443,1192.67 L1443,1189.47 L1435.9,1189.47 L1435.9,1172.12 M1407.75,1201.87 L1407.75,1179.87 L1424.65,1179.87 L1424.65,1176.67 L1403.9,1176.67 L1403.9,1205.12 L1408.2,1205.12 C1415.8,1205.12 1424.45,1204.52 1429.15,1203.62 L1428.75,1200.47 C1424.55,1201.37 1415.9,1201.87 1410.25,1201.87 L1407.75,1201.87 "/>
<path class="Lyrics" d="M1435.9,1232.1 L1432.1,1232.1 L1432.1,1275.8 L1435.9,1275.8 L1435.9,1252.65 L1443,1252.65 L1443,1249.45 L1435.9,1249.45 L1435.9,1232.1 M1407.75,1261.85 L1407.75,1239.85 L1424.65,1239.85 L1424.65,1236.65 L1403.9,1236.65 L1403.9,1265.1 L1408.2,1265.1 C1415.8,1265.1 1424.45,1264.5 1429.15,1263.6 L1428.75,1260.45 C1424.55,1261.35 1415.9,1261.85 1410.25,1261.85 L1407.75,1261.85 "/>
<path class="Lyrics" d="M1949.98,642.093 C1943.98,638.843 1938.43,631.793 1938.43,623.643 L1938.43,619.193 L1948.63,619.193 L1948.63,616.043 L1924.28,616.043 L1924.28,619.193 L1934.48,619.193 L1934.48,623.693 C1934.48,631.943 1929.23,639.393 1922.83,643.143 L1925.18,645.943 C1930.23,642.693 1935.03,637.093 1936.48,631.643 C1937.98,636.793 1943.53,642.293 1947.63,644.943 L1949.98,642.093 M1955.03,611.643 L1955.03,655.343 L1958.83,655.343 L1958.83,611.643 L1955.03,611.643 "/>
<path class="Lyrics" d="M679.282,686.277 L679.282,683.127 L672.632,683.127 L672.632,671.627 L668.832,671.627 L668.832,697.777 L672.632,697.777 L672.632,686.277 L679.282,686.277 M673.182,706.827 C673.182,701.927 668.132,698.477 658.682,698.477 C649.182,698.477 644.232,701.827 644.232,706.827 C644.232,711.777 649.182,715.127 658.682,715.127 C668.132,715.127 673.182,711.727 673.182,706.827 M669.232,706.827 C669.232,709.977 665.282,711.977 658.682,711.977 C652.082,711.977 648.182,709.927 648.182,706.827 C648.182,703.727 652.082,701.677 658.682,701.677 C665.282,701.677 669.232,703.677 669.232,706.827 M644.332,691.627 L644.332,678.327 L660.232,678.327 L660.232,675.127 L640.532,675.127 L640.532,694.777 L644.082,694.777 C651.632,694.777 659.732,694.127 664.582,693.277 L664.182,690.177 C659.932,690.977 652.532,691.627 646.482,691.627 L644.332,691.627 "/>
<path class="Lyrics" d="M679.282,626.293 L679.282,623.143 L672.632,623.143 L672.632,611.643 L668.832,611.643 L668.832,637.793 L672.632,637.793 L672.632,626.293 L679.282,626.293 M673.182,646.843 C673.182,641.943 668.132,638.493 658.682,638.493 C649.182,638.493 644.232,641.843 644.232,646.843 C644.232,651.793 649.182,655.143 658.682,655.143 C668.132,655.143 673.182,651.743 673.182,646.843 M669.232,646.843 C669.232,649.993 665.282,651.993 658.682,651.993 C652.082,651.993 648.182,649.943 648.182,646.843 C648.182,643.743 652.082,641.693 658.682,641.693 C665.282,641.693 669.232,643.693 669.232,646.843 M644.332,631.643 L644.332,618.343 L660.232,618.343 L660.232,615.143 L640.532,615.143 L640.532,634.793 L644.082,634.793 C651.632,634.793 659.732,634.143 664.582,633.293 L664.182,630.193 C659.932,630.993 652.532,631.643 646.482,631.643 L644.332,631.643 "/>
<path class="Lyrics" d="M603.094,684.527 L603.094,695.427 L594.244,695.427 L594.244,698.577 L603.094,698.577 L603.094,715.327 L606.894,715.327 L606.894,671.627 L603.094,671.627 L603.094,681.377 L594.244,681.377 L594.244,684.527 L603.094,684.527 M571.294,690.127 C571.294,699.427 575.194,705.577 582.094,705.577 C589.094,705.577 592.944,699.427 592.944,690.177 C592.944,680.877 589.094,674.677 582.094,674.677 C575.194,674.677 571.294,680.877 571.294,690.127 M589.194,690.177 C589.194,697.277 586.394,702.277 582.094,702.277 C577.894,702.277 575.044,697.277 575.044,690.177 C575.044,682.977 577.894,677.977 582.094,677.977 C586.394,677.977 589.194,682.977 589.194,690.177"/>
<path class="Lyrics" d="M603.094,624.543 L603.094,635.443 L594.244,635.443 L594.244,638.593 L603.094,638.593 L603.094,655.343 L606.894,655.343 L606.894,611.643 L603.094,611.643 L603.094,621.393 L594.244,621.393 L594.244,624.543 L603.094,624.543 M571.294,630.143 C571.294,639.443 575.194,645.593 582.094,645.593 C589.094,645.593 592.944,639.443 592.944,630.193 C592.944,620.893 589.094,614.693 582.094,614.693 C575.194,614.693 571.294,620.893 571.294,630.143 M589.194,630.193 C589.194,637.293 586.394,642.293 582.094,642.293 C577.894,642.293 575.044,637.293 575.044,630.193 C575.044,622.993 577.894,617.993 582.094,617.993 C586.394,617.993 589.194,622.993 589.194,630.193"/>
<path class="Lyrics" d="M336.996,1189.72 C330.296,1188.97 321.346,1184.52 321.146,1178.37 L335.196,1178.37 L335.196,1175.22 L302.996,1175.22 L302.996,1178.37 L317.146,1178.37 C316.946,1184.47 308.496,1189.07 301.346,1189.82 L303.096,1193.02 C310.546,1191.77 317.346,1187.27 319.096,1183.17 C321.096,1187.27 328.046,1191.67 335.196,1192.92 L336.996,1189.72 M320.946,1215.82 L320.946,1200.17 L338.846,1200.17 L338.846,1196.97 L299.396,1196.97 L299.396,1200.17 L317.146,1200.17 L317.146,1215.82 L320.946,1215.82 "/>
<path class="Lyrics" d="M1709.77,1195.57 L1709.77,1172.12 L1705.97,1172.12 L1705.97,1195.57 L1709.77,1195.57 M1699.97,1191.82 C1695.02,1190.07 1689.22,1184.77 1689.22,1177.77 L1689.22,1173.97 L1685.37,1173.97 L1685.37,1177.92 C1685.37,1184.87 1680.42,1190.27 1674.32,1193.07 L1676.67,1196.07 C1681.97,1193.07 1686.17,1189.07 1687.42,1184.62 C1689.02,1188.92 1693.57,1192.82 1697.72,1194.77 L1699.97,1191.82 M1709.82,1215.22 L1709.82,1197.82 L1706.02,1197.82 L1706.02,1203.37 L1685.47,1203.37 L1685.47,1197.97 L1681.67,1197.97 L1681.67,1215.22 L1709.82,1215.22 M1706.02,1212.12 L1685.47,1212.12 L1685.47,1206.47 L1706.02,1206.47 L1706.02,1212.12 "/>
<path class="Lyrics" d="M1712.53,1253.75 L1712.53,1250.55 L1705.43,1250.55 L1705.43,1232.1 L1701.63,1232.1 L1701.63,1275.8 L1705.43,1275.8 L1705.43,1253.75 L1712.53,1253.75 M1690.98,1238.35 L1690.98,1235.1 L1678.13,1235.1 L1678.13,1238.35 L1690.98,1238.35 M1697.43,1245.75 L1697.43,1242.6 L1671.63,1242.6 L1671.63,1245.75 L1697.43,1245.75 M1694.83,1257.6 C1694.83,1252.45 1690.73,1248.55 1684.63,1248.55 C1678.53,1248.55 1674.43,1252.5 1674.43,1257.6 C1674.43,1262.7 1678.53,1266.6 1684.63,1266.6 C1690.73,1266.6 1694.83,1262.65 1694.83,1257.6 M1691.03,1257.6 C1691.03,1261 1688.38,1263.45 1684.63,1263.45 C1680.98,1263.45 1678.23,1261 1678.23,1257.6 C1678.23,1254.15 1680.98,1251.75 1684.63,1251.75 C1688.33,1251.75 1691.03,1254.15 1691.03,1257.6"/>
<path class="Lyrics" d="M454.937,1259.3 L454.937,1256.1 L428.037,1256.1 L428.037,1248.75 L453.787,1248.75 L453.787,1235.55 L424.087,1235.55 L424.087,1238.75 L449.987,1238.75 L449.987,1245.6 L424.237,1245.6 L424.237,1259.3 L454.937,1259.3 M458.737,1269.85 L458.737,1266.65 L419.287,1266.65 L419.287,1269.85 L458.737,1269.85 "/>
<path class="Lyrics" d="M455.737,1215.17 L455.737,1199.17 L427.087,1199.17 L427.087,1215.17 L455.737,1215.17 M451.937,1212.02 L430.887,1212.02 L430.887,1202.27 L451.937,1202.27 L451.937,1212.02 M451.937,1172.12 L451.937,1196.42 L455.737,1196.42 L455.737,1172.12 L451.937,1172.12 M447.837,1188.22 C442.237,1189.37 432.437,1190.37 426.087,1190.12 L426.087,1174.37 L422.287,1174.37 L422.287,1193.47 L424.787,1193.47 C432.387,1193.47 443.437,1192.52 448.287,1191.47 L447.837,1188.22 "/>
<path class="Lyrics" d="M452.758,701.027 L450.558,701.027 L450.058,703.577 C449.408,706.827 449.008,707.127 445.908,707.127 L434.708,707.127 C438.158,703.527 439.308,702.477 442.508,699.977 C447.058,696.477 449.008,694.727 450.158,693.227 C451.758,691.027 452.558,688.827 452.558,686.377 C452.558,680.677 447.858,676.627 441.308,676.627 C434.958,676.627 430.108,680.677 430.108,686.027 C430.108,689.177 431.708,691.327 434.058,691.327 C435.908,691.327 437.158,690.077 437.158,688.277 C437.158,687.027 436.458,685.877 435.408,685.427 C433.558,684.677 433.458,684.577 433.458,683.927 C433.458,683.177 433.958,682.027 434.658,681.177 C435.908,679.627 437.958,678.777 440.308,678.777 C444.458,678.777 446.908,681.327 446.908,685.527 C446.908,689.227 445.158,692.577 441.008,696.977 C437.308,700.877 435.008,703.327 434.158,704.277 C432.358,706.377 431.458,707.527 429.258,710.427 L429.258,711.827 L451.808,711.827 L452.758,701.027 M462.155,706.277 C460.405,706.277 459.005,707.677 459.005,709.377 C459.005,711.127 460.405,712.527 462.105,712.527 C463.855,712.527 465.255,711.127 465.255,709.377 C465.255,707.677 463.855,706.277 462.155,706.277"/>
<path class="Lyrics" d="M508.696,689.227 C501.996,688.477 493.046,684.027 492.846,677.877 L506.896,677.877 L506.896,674.727 L474.696,674.727 L474.696,677.877 L488.846,677.877 C488.646,683.977 480.196,688.577 473.046,689.327 L474.796,692.527 C482.246,691.277 489.046,686.777 490.796,682.677 C492.796,686.777 499.746,691.177 506.896,692.427 L508.696,689.227 M492.646,715.327 L492.646,699.677 L510.546,699.677 L510.546,696.477 L471.096,696.477 L471.096,699.677 L488.846,699.677 L488.846,715.327 L492.646,715.327 "/>
<path class="Lyrics" d="M1799.38,1202.72 C1793.38,1199.32 1788.03,1192.47 1788.03,1184.32 L1788.03,1179.92 L1798.13,1179.92 L1798.13,1176.72 L1773.98,1176.72 L1773.98,1179.92 L1784.08,1179.92 L1784.08,1184.42 C1784.08,1192.27 1779.03,1199.97 1772.58,1203.77 L1775.08,1206.62 C1780.33,1202.97 1784.58,1197.57 1786.08,1192.27 C1787.63,1197.47 1792.98,1202.97 1797.08,1205.57 L1799.38,1202.72 M1814.18,1193.07 L1814.18,1189.87 L1807.08,1189.87 L1807.08,1172.12 L1803.28,1172.12 L1803.28,1215.82 L1807.08,1215.82 L1807.08,1193.07 L1814.18,1193.07 "/>
<path class="Lyrics" d="M1785.13,1235.3 C1778.58,1235.3 1773.58,1239.8 1773.58,1246.35 C1773.58,1252.95 1778.58,1257.25 1785.18,1257.25 C1791.73,1257.25 1796.73,1252.9 1796.73,1246.3 C1796.73,1239.75 1791.68,1235.3 1785.13,1235.3 M1785.13,1238.55 C1789.78,1238.55 1792.93,1241.8 1792.93,1246.35 C1792.93,1250.8 1789.78,1254 1785.18,1254 C1780.78,1254 1777.38,1250.8 1777.38,1246.3 C1777.38,1241.8 1780.73,1238.55 1785.13,1238.55 M1813.18,1250.75 L1806.53,1250.75 L1806.53,1242.95 L1813.18,1242.95 L1813.18,1239.75 L1806.53,1239.75 L1806.53,1232.1 L1802.73,1232.1 L1802.73,1263.9 L1806.53,1263.9 L1806.53,1253.95 L1813.18,1253.95 L1813.18,1250.75 M1808.18,1274.3 L1808.18,1271.15 L1782.98,1271.15 L1782.98,1260.8 L1779.18,1260.8 L1779.18,1274.3 L1808.18,1274.3 "/>
<path class="Lyrics" d="M443.608,616.643 C441.908,618.693 437.308,620.243 432.708,620.343 L432.708,622.493 L437.108,622.493 C440.008,622.543 440.308,622.843 440.208,625.643 L440.208,645.693 C440.208,648.243 440.208,648.343 439.908,648.793 C439.508,649.293 438.558,649.493 435.758,649.493 L432.508,649.493 L432.508,651.843 L452.308,651.843 L452.308,649.493 L449.558,649.493 C446.758,649.493 445.808,649.293 445.408,648.793 C445.058,648.343 445.058,648.293 445.058,645.693 L445.058,625.043 C445.058,622.243 445.158,619.893 445.408,616.643 L443.608,616.643 M462.155,646.293 C460.405,646.293 459.005,647.693 459.005,649.393 C459.005,651.143 460.405,652.543 462.105,652.543 C463.855,652.543 465.255,651.143 465.255,649.393 C465.255,647.693 463.855,646.293 462.155,646.293"/>
<path class="Lyrics" d="M508.696,629.243 C501.996,628.493 493.046,624.043 492.846,617.893 L506.896,617.893 L506.896,614.743 L474.696,614.743 L474.696,617.893 L488.846,617.893 C488.646,623.993 480.196,628.593 473.046,629.343 L474.796,632.543 C482.246,631.293 489.046,626.793 490.796,622.693 C492.796,626.793 499.746,631.193 506.896,632.443 L508.696,629.243 M492.646,655.343 L492.646,639.693 L510.546,639.693 L510.546,636.493 L471.096,636.493 L471.096,639.693 L488.846,639.693 L488.846,655.343 L492.646,655.343 "/>
<path class="Lyrics" d="M1949.98,702.077 C1943.98,698.827 1938.43,691.777 1938.43,683.627 L1938.43,679.177 L1948.63,679.177 L1948.63,676.027 L1924.28,676.027 L1924.28,679.177 L1934.48,679.177 L1934.48,683.677 C1934.48,691.927 1929.23,699.377 1922.83,703.127 L1925.18,705.927 C1930.23,702.677 1935.03,697.077 1936.48,691.627 C1937.98,696.777 1943.53,702.277 1947.63,704.927 L1949.98,702.077 M1955.03,671.627 L1955.03,715.327 L1958.83,715.327 L1958.83,671.627 L1955.03,671.627 "/>
<path class="Lyrics" d="M1877.34,1172.12 L1873.54,1172.12 L1873.54,1215.82 L1877.34,1215.82 L1877.34,1193.57 L1884.49,1193.57 L1884.49,1190.32 L1877.34,1190.32 L1877.34,1172.12 M1865.99,1176.82 L1845.44,1176.82 L1845.44,1180.02 L1861.89,1180.02 C1861.09,1189.87 1854.84,1199.07 1843.94,1204.12 L1846.29,1207.12 C1857.54,1201.27 1865.74,1191.02 1865.99,1176.82"/>
<path class="Lyrics" d="M1882.39,1253.7 C1875.19,1252.3 1866.19,1246 1866.19,1238.5 L1866.19,1235.35 L1862.24,1235.35 L1862.24,1238.5 C1862.24,1246 1853.74,1252.25 1846.09,1253.7 L1848.09,1256.75 C1855.74,1254.65 1862.49,1249.25 1864.14,1244.25 C1866.04,1249.15 1872.64,1254.6 1880.29,1256.75 L1882.39,1253.7 M1883.94,1270.25 L1883.94,1267.05 L1866.04,1267.05 L1866.04,1255.85 L1862.24,1255.85 L1862.24,1267.05 L1844.49,1267.05 L1844.49,1270.25 L1883.94,1270.25 "/>
<path class="NoteDot" transform="matrix(0.992,0,0,0.992,513.828,561.063)" d="M0,0 C0,2.8 2.2,5 5,5 C7.8,5 10,2.8 10,0 C10,-2.8 7.8,-5 5,-5 C2.2,-5 0,-2.8 0,0"/>
<path class="NoteDot" transform="matrix(0.992,0,0,0.992,1720.57,1121.54)" d="M0,0 C0,2.8 2.2,5 5,5 C7.8,5 10,2.8 10,0 C10,-2.8 7.8,-5 5,-5 C2.2,-5 0,-2.8 0,0"/>
<path class="NoteDot" transform="matrix(0.992,0,0,0.992,1451.96,1121.54)" d="M0,0 C0,2.8 2.2,5 5,5 C7.8,5 10,2.8 10,0 C10,-2.8 7.8,-5 5,-5 C2.2,-5 0,-2.8 0,0"/>
<path class="NoteDot" transform="matrix(0.992,0,0,0.992,1054.63,1121.54)" d="M0,0 C0,2.8 2.2,5 5,5 C7.8,5 10,2.8 10,0 C10,-2.8 7.8,-5 5,-5 C2.2,-5 0,-2.8 0,0"/>
</svg>
