<?xml version="1.0" encoding="UTF-8" standalone="no"?>
<svg width="2098.8px" height="1418.4px" viewBox="0 0 2098.8 1418.4"
 xmlns="http://www.w3.org/2000/svg" xmlns:xlink="http://www.w3.org/1999/xlink" version="1.2" baseProfile="tiny">
<title>035 대영광송.mscz (5)</title>
<desc>Generated by MuseScore 4.2.1</desc>
<polyline class="StaffLines" fill="none" stroke="#000000" stroke-width="2.75" stroke-linejoin="bevel" points="68.4,316.732 2030.4,316.732"/>
<polyline class="StaffLines" fill="none" stroke="#000000" stroke-width="2.75" stroke-linejoin="bevel" points="68.4,341.732 2030.4,341.732"/>
<polyline class="StaffLines" fill="none" stroke="#000000" stroke-width="2.75" stroke-linejoin="bevel" points="68.4,366.733 2030.4,366.733"/>
<polyline class="StaffLines" fill="none" stroke="#000000" stroke-width="2.75" stroke-linejoin="bevel" points="68.4,391.733 2030.4,391.733"/>
<polyline class="StaffLines" fill="none" stroke="#000000" stroke-width="2.75" stroke-linejoin="bevel" points="68.4,416.733 2030.4,416.733"/>
<polyline class="StaffLines" fill="none" stroke="#000000" stroke-width="2.75" stroke-linejoin="bevel" points="68.4,791.733 2030.4,791.733"/>
<polyline class="StaffLines" fill="none" stroke="#000000" stroke-width="2.75" stroke-linejoin="bevel" points="68.4,816.733 2030.4,816.733"/>
<polyline class="StaffLines" fill="none" stroke="#000000" stroke-width="2.75" stroke-linejoin="bevel" points="68.4,841.733 2030.4,841.733"/>
<polyline class="StaffLines" fill="none" stroke="#000000" stroke-width="2.75" stroke-linejoin="bevel" points="68.4,866.733 2030.4,866.733"/>
<polyline class="StaffLines" fill="none" stroke="#000000" stroke-width="2.75" stroke-linejoin="bevel" points="68.4,891.733 2030.4,891.733"/>
<path class="MeasureNumber" d="M62.5394,258.972 C62.5394,257.559 62.226,256.306 61.5994,255.212 C60.9727,254.119 60.2127,253.272 59.3194,252.672 C58.426,252.072 57.426,251.579 56.3194,251.192 C55.2127,250.806 54.2527,250.552 53.4394,250.432 C52.626,250.312 51.9127,250.252 51.2994,250.252 C50.9794,250.252 50.8194,250.146 50.8194,249.932 C50.8194,249.852 50.8327,249.786 50.8594,249.732 L55.2194,240.252 L63.5794,240.252 C64.006,240.252 64.346,240.186 64.5994,240.052 C64.8527,239.919 65.126,239.639 65.4194,239.212 L65.7794,239.492 L64.2594,243.052 C64.1527,243.292 63.846,243.412 63.3394,243.412 L55.4994,243.412 L53.8194,246.812 C57.7127,247.506 60.606,248.632 62.4994,250.192 C64.3927,251.752 65.3394,254.039 65.3394,257.052 C65.3394,258.626 65.0927,260.026 64.5994,261.252 C64.106,262.479 63.4794,263.466 62.7194,264.212 C61.9594,264.959 61.0794,265.572 60.0794,266.052 C59.0794,266.532 58.1194,266.859 57.1994,267.032 C56.2794,267.206 55.3527,267.292 54.4194,267.292 C52.926,267.292 51.7394,267.072 50.8594,266.632 C49.9794,266.192 49.5394,265.586 49.5394,264.812 C49.5394,263.826 50.1127,263.332 51.2594,263.332 C52.006,263.332 52.9727,263.746 54.1594,264.572 C55.346,265.399 56.286,265.812 56.9794,265.812 C58.5527,265.812 59.8727,265.152 60.9394,263.832 C62.006,262.512 62.5394,260.892 62.5394,258.972 M84.8194,263.452 C83.166,266.012 80.9794,267.292 78.2594,267.292 C75.5394,267.292 73.3527,265.986 71.6994,263.372 C70.046,260.759 69.2194,257.399 69.2194,253.292 C69.2194,249.426 70.046,246.192 71.6994,243.592 C73.3527,240.992 75.5927,239.692 78.4194,239.692 C81.0327,239.692 83.166,240.972 84.8194,243.532 C86.4727,246.092 87.2994,249.426 87.2994,253.532 C87.2994,257.586 86.4727,260.892 84.8194,263.452 M78.2994,240.732 C74.806,240.732 73.0594,245.039 73.0594,253.652 C73.0594,262.052 74.7927,266.252 78.2594,266.252 C81.726,266.252 83.4594,262.039 83.4594,253.612 C83.4594,249.426 83.0194,246.232 82.1394,244.032 C81.2594,241.832 79.9794,240.732 78.2994,240.732"/>
<path class="MeasureNumber" d="M62.6956,733.973 C62.6956,732.559 62.3823,731.306 61.7556,730.213 C61.129,729.119 60.369,728.273 59.4756,727.673 C58.5823,727.073 57.5823,726.579 56.4756,726.193 C55.369,725.806 54.409,725.553 53.5956,725.433 C52.7823,725.313 52.069,725.253 51.4556,725.253 C51.1356,725.253 50.9756,725.146 50.9756,724.933 C50.9756,724.853 50.989,724.786 51.0156,724.733 L55.3756,715.253 L63.7356,715.253 C64.1623,715.253 64.5023,715.186 64.7556,715.053 C65.009,714.919 65.2823,714.639 65.5756,714.213 L65.9356,714.493 L64.4156,718.053 C64.309,718.293 64.0023,718.413 63.4956,718.413 L55.6556,718.413 L53.9756,721.813 C57.869,722.506 60.7623,723.633 62.6556,725.193 C64.549,726.753 65.4956,729.039 65.4956,732.053 C65.4956,733.626 65.249,735.026 64.7556,736.253 C64.2623,737.479 63.6356,738.466 62.8756,739.213 C62.1156,739.959 61.2356,740.573 60.2356,741.053 C59.2356,741.533 58.2756,741.859 57.3556,742.033 C56.4356,742.206 55.509,742.293 54.5756,742.293 C53.0823,742.293 51.8956,742.073 51.0156,741.633 C50.1356,741.193 49.6956,740.586 49.6956,739.813 C49.6956,738.826 50.269,738.333 51.4156,738.333 C52.1623,738.333 53.129,738.746 54.3156,739.573 C55.5023,740.399 56.4423,740.813 57.1356,740.813 C58.709,740.813 60.029,740.153 61.0956,738.833 C62.1623,737.513 62.6956,735.893 62.6956,733.973 M78.7356,742.293 C76.0423,742.293 73.8756,741.219 72.2356,739.073 C70.5956,736.926 69.7756,734.093 69.7756,730.573 C69.7756,729.479 69.8823,728.353 70.0956,727.193 C70.309,726.033 70.7756,724.713 71.4956,723.233 C72.2156,721.753 73.149,720.426 74.2956,719.253 C75.4423,718.079 77.049,717.033 79.1156,716.113 C81.1823,715.193 83.5623,714.613 86.2556,714.373 L86.3356,715.013 C83.189,715.519 80.5623,716.793 78.4556,718.833 C76.349,720.873 75.029,723.399 74.4956,726.413 C75.749,725.666 76.6956,725.179 77.3356,724.953 C77.9756,724.726 78.7356,724.613 79.6156,724.613 C81.909,724.613 83.7356,725.366 85.0956,726.873 C86.4556,728.379 87.1356,730.413 87.1356,732.973 C87.1356,735.719 86.3556,737.959 84.7956,739.693 C83.2356,741.426 81.2156,742.293 78.7356,742.293 M78.0956,726.453 C76.2823,726.453 75.0623,726.853 74.4356,727.653 C73.809,728.453 73.4956,729.639 73.4956,731.213 C73.4956,734.306 74.0023,736.739 75.0156,738.513 C76.029,740.286 77.4156,741.173 79.1756,741.173 C80.589,741.173 81.669,740.579 82.4156,739.393 C83.1623,738.206 83.5356,736.519 83.5356,734.333 C83.5356,731.826 83.0623,729.886 82.1156,728.513 C81.169,727.139 79.829,726.453 78.0956,726.453"/>
<polyline class="BarLine" fill="none" stroke="#000000" stroke-width="4.50" stroke-linejoin="bevel" points="986.99,315.357 986.99,418.108"/>
<polyline class="BarLine" fill="none" stroke="#000000" stroke-width="4.50" stroke-linejoin="bevel" points="2005.15,790.358 2005.15,893.108"/>
<polyline class="BarLine" fill="none" stroke="#000000" stroke-width="13.75" stroke-linejoin="bevel" points="2023.52,790.358 2023.52,893.108"/>
<polyline class="BarLine" fill="none" stroke="#000000" stroke-width="4.50" stroke-linejoin="bevel" points="1193.4,315.357 1193.4,418.108"/>
<polyline class="BarLine" fill="none" stroke="#000000" stroke-width="4.50" stroke-linejoin="bevel" points="628.535,315.357 628.535,418.108"/>
<polyline class="BarLine" fill="none" stroke="#000000" stroke-width="4.50" stroke-linejoin="bevel" points="1567.19,315.357 1567.19,418.108"/>
<polyline class="BarLine" fill="none" stroke="#000000" stroke-width="4.50" stroke-linejoin="bevel" points="1121.1,790.358 1121.1,893.108"/>
<polyline class="BarLine" fill="none" stroke="#000000" stroke-width="4.50" stroke-linejoin="bevel" points="1821.74,315.357 1821.74,418.108"/>
<polyline class="BarLine" fill="none" stroke="#000000" stroke-width="4.50" stroke-linejoin="bevel" points="2028.15,315.357 2028.15,418.108"/>
<path class="Accidental" d="M1493.65,351.233 C1488.65,351.233 1485.75,354.333 1485.25,354.933 L1485.65,322.833 C1485.65,322.033 1485.05,321.433 1484.25,321.433 L1483.05,321.433 C1482.25,321.433 1481.65,322.033 1481.65,322.833 L1482.15,382.933 C1482.15,383.733 1482.75,384.333 1483.55,384.333 C1483.75,384.333 1484.15,384.233 1484.35,384.133 C1492.95,379.833 1501.95,371.633 1501.95,361.333 C1501.95,356.133 1499.55,351.233 1493.65,351.233 M1484.95,379.433 L1485.25,359.933 C1485.45,359.033 1486.95,356.133 1490.95,356.133 C1494.55,356.133 1494.85,359.533 1494.85,361.633 C1494.85,370.533 1491.55,374.233 1484.95,379.433"/>
<polyline class="Stem" fill="none" stroke="#000000" stroke-width="2.50" stroke-linejoin="bevel" points="398.99,375.233 398.99,302.133"/>
<polyline class="Stem" fill="none" stroke="#000000" stroke-width="2.50" stroke-linejoin="bevel" points="347.283,375.233 347.283,300.083"/>
<polyline class="Stem" fill="none" stroke="#000000" stroke-width="2.50" stroke-linejoin="bevel" points="450.698,375.233 450.698,304.183"/>
<polyline class="Stem" fill="none" stroke="#000000" stroke-width="2.50" stroke-linejoin="bevel" points="825.574,845.933 825.574,916.733"/>
<polyline class="Stem" fill="none" stroke="#000000" stroke-width="2.50" stroke-linejoin="bevel" points="502.405,375.233 502.405,297.982"/>
<polyline class="Stem" fill="none" stroke="#000000" stroke-width="2.50" stroke-linejoin="bevel" points="1773.17,375.233 1773.17,297.982"/>
<polyline class="Stem" fill="none" stroke="#000000" stroke-width="2.50" stroke-linejoin="bevel" points="265.541,845.933 265.541,916.733"/>
<polyline class="Stem" fill="none" stroke="#000000" stroke-width="2.50" stroke-linejoin="bevel" points="549.974,370.933 549.974,441.733"/>
<polyline class="Stem" fill="none" stroke="#000000" stroke-width="2.50" stroke-linejoin="bevel" points="295.533,362.732 295.533,298.032"/>
<polyline class="Stem" fill="none" stroke="#000000" stroke-width="2.50" stroke-linejoin="bevel" points="687.027,375.233 687.027,297.982"/>
<polyline class="Stem" fill="none" stroke="#000000" stroke-width="2.50" stroke-linejoin="bevel" points="1538.69,362.732 1538.69,298.028"/>
<polyline class="Stem" fill="none" stroke="#000000" stroke-width="2.50" stroke-linejoin="bevel" points="1471.65,375.233 1471.65,300.45"/>
<polyline class="Stem" fill="none" stroke="#000000" stroke-width="2.50" stroke-linejoin="bevel" points="855.075,375.233 855.075,297.982"/>
<polyline class="Stem" fill="none" stroke="#000000" stroke-width="2.50" stroke-linejoin="bevel" points="1419.95,387.733 1419.95,302.319"/>
<polyline class="Stem" fill="none" stroke="#000000" stroke-width="2.50" stroke-linejoin="bevel" points="1368.24,387.733 1368.24,304.187"/>
<polyline class="Stem" fill="none" stroke="#000000" stroke-width="2.50" stroke-linejoin="bevel" points="1251.9,387.733 1251.9,304.232"/>
<polyline class="Stem" fill="none" stroke="#000000" stroke-width="2.50" stroke-linejoin="bevel" points="906.783,362.732 906.783,297.982"/>
<polyline class="Stem" fill="none" stroke="#000000" stroke-width="2.50" stroke-linejoin="bevel" points="1149.6,845.933 1149.6,916.733"/>
<polyline class="Stem" fill="none" stroke="#000000" stroke-width="2.50" stroke-linejoin="bevel" points="958.49,375.233 958.49,297.982"/>
<polyline class="Stem" fill="none" stroke="#000000" stroke-width="2.50" stroke-linejoin="bevel" points="1595.69,370.933 1595.69,441.733"/>
<path class="Note" d="M1337,395.933 C1337,400.233 1340.1,405.033 1348.2,405.033 C1358.6,405.033 1369.5,396.533 1369.5,387.733 C1369.5,381.833 1364.5,378.533 1358.3,378.533 C1348.6,378.533 1337,386.733 1337,395.933"/>
<path class="Note" d="M927.248,383.433 C927.248,387.733 930.348,392.533 938.448,392.533 C948.848,392.533 959.748,384.033 959.748,375.233 C959.748,369.333 954.748,366.033 948.548,366.033 C938.848,366.033 927.248,374.233 927.248,383.433"/>
<path class="Note" d="M1032.94,378.133 C1019.14,378.133 1014.24,385.133 1014.24,391.633 C1014.24,398.133 1019.14,405.133 1032.94,405.133 C1046.74,405.133 1051.54,398.133 1051.54,391.633 C1051.54,385.133 1046.74,378.133 1032.94,378.133 M1033.74,401.933 C1030.94,401.933 1029.04,401.133 1027.74,398.633 C1026.44,396.133 1024.64,389.633 1024.54,387.033 C1024.34,384.333 1025.34,382.733 1027.74,381.933 C1028.94,381.533 1030.54,381.333 1032.14,381.333 C1034.84,381.333 1036.64,381.933 1038.04,384.633 C1039.44,387.233 1041.34,393.733 1041.34,396.233 C1041.34,401.133 1037.74,401.933 1033.74,401.933"/>
<path class="Note" d="M1169.65,828.533 C1159.95,828.533 1148.35,836.633 1148.35,845.933 C1148.35,850.233 1151.45,855.033 1159.55,855.033 C1169.95,855.033 1180.85,846.533 1180.85,837.733 C1180.85,831.833 1175.85,828.533 1169.65,828.533 M1155.85,850.333 C1152.55,850.333 1151.85,847.633 1151.85,846.733 C1151.85,841.833 1168.65,833.233 1173.35,833.233 C1175.75,833.233 1177.35,834.633 1177.35,836.833 C1177.35,841.833 1160.45,850.333 1155.85,850.333"/>
<path class="Note" d="M264.291,370.933 C264.291,375.233 267.391,380.033 275.491,380.033 C285.891,380.033 296.791,371.533 296.791,362.733 C296.791,356.833 291.791,353.533 285.591,353.533 C275.891,353.533 264.291,361.733 264.291,370.933"/>
<path class="Note" d="M875.541,370.933 C875.541,375.233 878.641,380.033 886.741,380.033 C897.141,380.033 908.041,371.533 908.041,362.733 C908.041,356.833 903.041,353.533 896.841,353.533 C887.141,353.533 875.541,361.733 875.541,370.933"/>
<path class="Note" d="M824.324,845.933 C824.324,850.233 827.424,855.033 835.524,855.033 C845.924,855.033 856.824,846.533 856.824,837.733 C856.824,831.833 851.824,828.533 845.624,828.533 C835.924,828.533 824.324,836.733 824.324,845.933"/>
<path class="Note" d="M1241.95,378.533 C1232.25,378.533 1220.65,386.633 1220.65,395.933 C1220.65,400.233 1223.75,405.033 1231.85,405.033 C1242.25,405.033 1253.15,396.533 1253.15,387.733 C1253.15,381.833 1248.15,378.533 1241.95,378.533 M1228.15,400.333 C1224.85,400.333 1224.15,397.633 1224.15,396.733 C1224.15,391.833 1240.95,383.233 1245.65,383.233 C1248.05,383.233 1249.65,384.633 1249.65,386.833 C1249.65,391.833 1232.75,400.333 1228.15,400.333"/>
<path class="Note" d="M285.591,828.533 C275.891,828.533 264.291,836.633 264.291,845.933 C264.291,850.233 267.391,855.033 275.491,855.033 C285.891,855.033 296.791,846.533 296.791,837.733 C296.791,831.833 291.791,828.533 285.591,828.533 M271.791,850.333 C268.491,850.333 267.791,847.633 267.791,846.733 C267.791,841.833 284.591,833.233 289.291,833.233 C291.691,833.233 293.291,834.633 293.291,836.833 C293.291,841.833 276.391,850.333 271.791,850.333"/>
<path class="Note" d="M316.041,383.433 C316.041,387.733 319.141,392.533 327.241,392.533 C337.641,392.533 348.541,384.033 348.541,375.233 C348.541,369.333 343.541,366.033 337.341,366.033 C327.641,366.033 316.041,374.233 316.041,383.433"/>
<path class="Note" d="M367.748,383.433 C367.748,387.733 370.848,392.533 378.948,392.533 C389.348,392.533 400.248,384.033 400.248,375.233 C400.248,369.333 395.248,366.033 389.048,366.033 C379.348,366.033 367.748,374.233 367.748,383.433"/>
<path class="Note" d="M1867.69,353.133 C1853.89,353.133 1848.99,360.133 1848.99,366.633 C1848.99,373.133 1853.89,380.133 1867.69,380.133 C1881.49,380.133 1886.29,373.133 1886.29,366.633 C1886.29,360.133 1881.49,353.133 1867.69,353.133 M1868.49,376.933 C1865.69,376.933 1863.79,376.133 1862.49,373.633 C1861.19,371.133 1859.39,364.633 1859.29,362.033 C1859.09,359.333 1860.09,357.733 1862.49,356.933 C1863.69,356.533 1865.29,356.333 1866.89,356.333 C1869.59,356.333 1871.39,356.933 1872.79,359.633 C1874.19,362.233 1876.09,368.733 1876.09,371.233 C1876.09,376.133 1872.49,376.933 1868.49,376.933"/>
<path class="Note" d="M419.455,383.433 C419.455,387.733 422.555,392.533 430.655,392.533 C441.055,392.533 451.955,384.033 451.955,375.233 C451.955,369.333 446.955,366.033 440.755,366.033 C431.055,366.033 419.455,374.233 419.455,383.433"/>
<path class="Note" d="M823.833,383.433 C823.833,387.733 826.933,392.533 835.033,392.533 C845.433,392.533 856.333,384.033 856.333,375.233 C856.333,369.333 851.333,366.033 845.133,366.033 C835.433,366.033 823.833,374.233 823.833,383.433"/>
<path class="Note" d="M1388.7,395.933 C1388.7,400.233 1391.8,405.033 1399.9,405.033 C1410.3,405.033 1421.2,396.533 1421.2,387.733 C1421.2,381.833 1416.2,378.533 1410,378.533 C1400.3,378.533 1388.7,386.733 1388.7,395.933"/>
<path class="Note" d="M1741.92,383.433 C1741.92,387.733 1745.02,392.533 1753.12,392.533 C1763.52,392.533 1774.42,384.033 1774.42,375.233 C1774.42,369.333 1769.42,366.033 1763.22,366.033 C1753.52,366.033 1741.92,374.233 1741.92,383.433"/>
<path class="Note" d="M471.163,383.433 C471.163,387.733 474.263,392.533 482.363,392.533 C492.763,392.533 503.663,384.033 503.663,375.233 C503.663,369.333 498.663,366.033 492.463,366.033 C482.763,366.033 471.163,374.233 471.163,383.433"/>
<path class="Note" d="M1440.41,383.433 C1440.41,387.733 1443.51,392.533 1451.61,392.533 C1462.01,392.533 1472.91,384.033 1472.91,375.233 C1472.91,369.333 1467.91,366.033 1461.71,366.033 C1452.01,366.033 1440.41,374.233 1440.41,383.433"/>
<path class="Note" d="M1615.74,353.533 C1606.04,353.533 1594.44,361.633 1594.44,370.933 C1594.44,375.233 1597.54,380.033 1605.64,380.033 C1616.04,380.033 1626.94,371.533 1626.94,362.733 C1626.94,356.833 1621.94,353.533 1615.74,353.533 M1601.94,375.333 C1598.64,375.333 1597.94,372.633 1597.94,371.733 C1597.94,366.833 1614.74,358.233 1619.44,358.233 C1621.84,358.233 1623.44,359.633 1623.44,361.833 C1623.44,366.833 1606.54,375.333 1601.94,375.333"/>
<path class="Note" d="M548.724,370.933 C548.724,375.233 551.824,380.033 559.924,380.033 C570.324,380.033 581.224,371.533 581.224,362.733 C581.224,356.833 576.224,353.533 570.024,353.533 C560.324,353.533 548.724,361.733 548.724,370.933"/>
<path class="Note" d="M1507.45,370.933 C1507.45,375.233 1510.55,380.033 1518.65,380.033 C1529.05,380.033 1539.95,371.533 1539.95,362.733 C1539.95,356.833 1534.95,353.533 1528.75,353.533 C1519.05,353.533 1507.45,361.733 1507.45,370.933"/>
<path class="Note" d="M677.085,366.033 C667.385,366.033 655.785,374.133 655.785,383.433 C655.785,387.733 658.885,392.533 666.985,392.533 C677.385,392.533 688.285,384.033 688.285,375.233 C688.285,369.333 683.285,366.033 677.085,366.033 M663.285,387.833 C659.985,387.833 659.285,385.133 659.285,384.233 C659.285,379.333 676.085,370.733 680.785,370.733 C683.185,370.733 684.785,372.133 684.785,374.333 C684.785,379.333 667.885,387.833 663.285,387.833"/>
<path class="Clef" d="M100.7,443.033 C100.7,449.633 105.7,458.333 119.2,458.333 C123.9,458.333 128,457.133 131.6,454.933 C137,451.133 138.4,444.533 138.4,438.233 C138.4,434.333 137.8,429.833 136.8,424.133 C136.5,422.133 135.9,419.133 135.3,415.233 C145.1,412.033 152.4,401.833 152.4,391.533 C152.4,376.433 141.7,366.233 127.1,366.233 C126.1,360.233 125.1,354.333 124.3,348.733 C134.8,337.633 142.1,325.133 142.1,309.233 C142.1,300.133 139.3,292.733 137.7,289.133 C135.3,284.033 132.4,280.533 130.6,280.533 C129.9,280.533 126.8,281.733 123.5,285.633 C117.1,293.233 115.3,306.033 115.3,314.433 C115.3,319.833 115.8,324.733 117.5,335.933 C117.4,336.033 112.2,341.333 110.1,343.033 C101,351.433 88.4,363.633 88.4,383.633 C88.4,402.333 104.7,417.033 123.3,417.033 C126.2,417.033 128.9,416.733 131.2,416.333 C133.1,425.933 134.3,432.933 134.3,438.233 C134.3,448.633 128.9,454.133 118.8,454.133 C116.4,454.133 114.3,453.633 114.1,453.633 C114,453.533 113.8,453.433 113.8,453.333 C113.8,453.133 114,453.033 114.3,453.033 C119,452.233 123.7,448.233 123.7,441.833 C123.7,436.433 119.6,430.733 112.1,430.733 C105.1,430.733 100.7,436.433 100.7,443.033 M121.6,309.533 C122.5,305.533 127.1,295.033 132.3,295.033 C133.8,295.033 136.2,299.833 136.2,306.833 C136.2,317.233 128.5,325.033 121.6,331.833 C121,327.833 120.5,323.933 120.5,319.733 C120.5,316.033 120.8,312.633 121.6,309.533 M130.4,412.333 C128.4,412.733 126.5,412.933 124.6,412.933 C110.3,412.933 98.1,402.933 98.1,387.833 C98.1,375.633 106.7,364.733 115.5,357.133 C117.2,355.633 118.8,354.233 120.3,352.733 C121.2,358.133 121.9,362.833 122.6,366.933 C113.5,369.633 107.3,379.233 107.3,388.633 C107.3,395.633 112.8,405.233 120.8,405.233 C121.6,405.233 122.5,404.833 122.5,403.933 C122.5,403.033 121.5,402.533 120.3,401.733 C116.4,399.333 114.2,396.733 114.2,391.833 C114.2,385.733 118.8,380.833 124.6,379.433 L130.4,412.333 M144.6,393.833 C144.6,400.933 141.7,408.233 134.6,411.133 C132.5,399.133 129.8,383.233 129.1,378.833 C138.1,378.833 144.6,384.933 144.6,393.833"/>
<path class="Clef" d="M100.7,918.033 C100.7,924.633 105.7,933.333 119.2,933.333 C123.9,933.333 128,932.133 131.6,929.933 C137,926.133 138.4,919.533 138.4,913.233 C138.4,909.333 137.8,904.833 136.8,899.133 C136.5,897.133 135.9,894.133 135.3,890.233 C145.1,887.033 152.4,876.833 152.4,866.533 C152.4,851.433 141.7,841.233 127.1,841.233 C126.1,835.233 125.1,829.333 124.3,823.733 C134.8,812.633 142.1,800.133 142.1,784.233 C142.1,775.133 139.3,767.733 137.7,764.133 C135.3,759.033 132.4,755.533 130.6,755.533 C129.9,755.533 126.8,756.733 123.5,760.633 C117.1,768.233 115.3,781.033 115.3,789.433 C115.3,794.833 115.8,799.733 117.5,810.933 C117.4,811.033 112.2,816.333 110.1,818.033 C101,826.433 88.4,838.633 88.4,858.633 C88.4,877.333 104.7,892.033 123.3,892.033 C126.2,892.033 128.9,891.733 131.2,891.333 C133.1,900.933 134.3,907.933 134.3,913.233 C134.3,923.633 128.9,929.133 118.8,929.133 C116.4,929.133 114.3,928.633 114.1,928.633 C114,928.533 113.8,928.433 113.8,928.333 C113.8,928.133 114,928.033 114.3,928.033 C119,927.233 123.7,923.233 123.7,916.833 C123.7,911.433 119.6,905.733 112.1,905.733 C105.1,905.733 100.7,911.433 100.7,918.033 M121.6,784.533 C122.5,780.533 127.1,770.033 132.3,770.033 C133.8,770.033 136.2,774.833 136.2,781.833 C136.2,792.233 128.5,800.033 121.6,806.833 C121,802.833 120.5,798.933 120.5,794.733 C120.5,791.033 120.8,787.633 121.6,784.533 M130.4,887.333 C128.4,887.733 126.5,887.933 124.6,887.933 C110.3,887.933 98.1,877.933 98.1,862.833 C98.1,850.633 106.7,839.733 115.5,832.133 C117.2,830.633 118.8,829.233 120.3,827.733 C121.2,833.133 121.9,837.833 122.6,841.933 C113.5,844.633 107.3,854.233 107.3,863.633 C107.3,870.633 112.8,880.233 120.8,880.233 C121.6,880.233 122.5,879.833 122.5,878.933 C122.5,878.033 121.5,877.533 120.3,876.733 C116.4,874.333 114.2,871.733 114.2,866.833 C114.2,860.733 118.8,855.833 124.6,854.433 L130.4,887.333 M144.6,868.833 C144.6,875.933 141.7,883.233 134.6,886.133 C132.5,874.133 129.8,858.233 129.1,853.833 C138.1,853.833 144.6,859.933 144.6,868.833"/>
<path class="KeySig" d="M200.692,306.232 C201.292,306.132 201.792,305.432 201.792,304.832 L201.792,298.932 C201.792,297.932 201.092,297.532 200.192,297.532 L196.892,298.232 L196.892,283.332 L194.092,283.332 L194.092,298.832 L185.192,300.632 L185.192,286.532 L182.392,286.532 L182.392,301.232 L178.492,302.032 C177.892,302.132 177.392,302.832 177.392,303.432 L177.392,309.232 C177.392,310.332 178.192,310.632 179.092,310.632 L182.392,309.932 L182.392,326.432 L178.492,327.232 C177.892,327.332 177.392,328.032 177.392,328.632 L177.392,334.432 C177.392,335.532 178.192,335.832 179.092,335.832 L182.392,335.132 L182.392,350.032 L185.192,350.032 L185.192,334.532 L194.092,332.732 L194.092,346.832 L196.892,346.832 L196.892,332.132 L200.692,331.432 C201.292,331.332 201.792,330.632 201.792,330.032 L201.792,324.132 C201.792,323.132 201.092,322.732 200.192,322.732 L196.892,323.432 L196.892,306.932 L200.692,306.232 M185.192,309.332 L194.092,307.532 L194.092,324.032 L185.192,325.932 L185.192,309.332 "/>
<path class="KeySig" d="M200.692,781.233 C201.292,781.133 201.792,780.433 201.792,779.833 L201.792,773.933 C201.792,772.933 201.092,772.533 200.192,772.533 L196.892,773.233 L196.892,758.333 L194.092,758.333 L194.092,773.833 L185.192,775.633 L185.192,761.533 L182.392,761.533 L182.392,776.233 L178.492,777.033 C177.892,777.133 177.392,777.833 177.392,778.433 L177.392,784.233 C177.392,785.333 178.192,785.633 179.092,785.633 L182.392,784.933 L182.392,801.433 L178.492,802.233 C177.892,802.333 177.392,803.033 177.392,803.633 L177.392,809.433 C177.392,810.533 178.192,810.833 179.092,810.833 L182.392,810.133 L182.392,825.033 L185.192,825.033 L185.192,809.533 L194.092,807.733 L194.092,821.833 L196.892,821.833 L196.892,807.133 L200.692,806.433 C201.292,806.333 201.792,805.633 201.792,805.033 L201.792,799.133 C201.792,798.133 201.092,797.733 200.192,797.733 L196.892,798.433 L196.892,781.933 L200.692,781.233 M185.192,784.333 L194.092,782.533 L194.092,799.033 L185.192,800.933 L185.192,784.333 "/>
<path class="Rest" d="M1731.38,858.333 C1731.28,858.233 1731.08,858.033 1730.78,857.633 L1719.28,843.433 C1719.18,843.333 1719.08,843.033 1719.08,842.833 C1719.08,842.533 1719.18,842.133 1719.28,841.933 L1729.48,826.533 C1729.58,826.333 1729.68,826.033 1729.68,825.833 L1729.68,824.933 C1729.68,824.633 1729.58,824.333 1729.38,824.133 L1713.18,802.233 C1713.18,802.233 1712.78,801.633 1712.18,801.633 C1711.88,801.633 1711.68,801.633 1711.38,801.933 C1710.98,802.233 1710.88,802.633 1710.88,802.933 C1710.88,803.533 1711.18,804.033 1711.18,804.033 L1718.78,814.433 C1718.98,814.733 1719.08,815.133 1719.08,815.633 C1719.08,816.033 1718.98,816.533 1718.78,816.833 L1708.68,832.233 C1708.58,832.433 1708.48,832.833 1708.48,833.033 L1708.48,833.933 C1708.48,834.233 1708.58,834.533 1708.78,834.733 L1719.98,848.633 C1719.58,848.533 1718.68,848.333 1717.48,848.333 C1712.38,848.333 1708.38,852.533 1708.38,857.633 C1708.38,859.033 1708.68,860.433 1709.48,861.533 C1711.58,864.733 1719.08,874.233 1719.08,874.233 C1719.08,874.233 1719.58,874.833 1720.28,874.833 C1720.48,874.833 1720.68,874.833 1720.88,874.633 C1721.38,874.233 1721.58,873.833 1721.58,873.433 C1721.58,873.033 1721.38,872.733 1721.28,872.533 C1720.98,872.033 1717.78,866.233 1717.78,866.233 C1717.78,866.233 1717.08,864.833 1717.08,863.033 C1717.08,859.833 1719.48,857.233 1722.68,857.233 C1723.98,857.233 1725.08,857.633 1725.88,858.133 L1729.78,860.633 C1729.78,860.633 1730.18,860.833 1730.58,860.833 C1730.98,860.833 1731.28,860.733 1731.58,860.333 C1731.78,860.033 1731.88,859.733 1731.88,859.433 C1731.88,859.133 1731.78,858.933 1731.58,858.633 L1731.38,858.333 "/>
<path class="Rest" d="M798.826,346.433 C798.726,346.433 798.526,346.333 798.426,346.333 C797.826,346.333 797.326,346.633 797.126,347.133 C794.826,351.733 790.026,357.933 784.626,358.933 C785.726,357.633 786.426,356.033 786.426,354.133 C786.426,350.233 783.226,347.033 779.326,347.033 C775.326,347.033 772.126,350.233 772.126,354.133 C772.126,359.533 777.426,362.033 782.126,362.033 C787.426,362.033 790.926,359.533 794.326,355.833 L782.926,391.433 L785.626,392.233 L799.626,348.133 C799.726,348.033 799.726,347.833 799.726,347.633 C799.726,347.133 799.426,346.733 798.826,346.433"/>
<path class="Beam" fill-rule="evenodd" d="M853.825,291.732 L959.74,291.732 L959.74,304.232 L853.825,304.232 L853.825,291.732 "/>
<path class="Beam" fill-rule="evenodd" d="M294.283,291.728 L451.948,297.978 L451.948,310.487 L294.283,304.237 L294.283,291.728 "/>
<path class="Beam" fill-rule="evenodd" d="M1366.99,297.978 L1539.94,291.728 L1539.94,304.237 L1366.99,310.487 L1366.99,297.978 "/>
<path class="Lyrics" d="M1757.38,489.418 C1757.38,492.316 1756.28,494.775 1754.08,496.796 C1751.88,498.817 1749.18,499.828 1746,499.828 C1742.39,499.828 1739.52,498.907 1737.39,497.065 C1735.26,495.222 1734.19,492.674 1734.19,489.418 C1734.19,485.841 1735.95,483.087 1739.45,481.155 C1740.6,480.511 1742.37,479.885 1744.77,479.277 C1744.84,479.241 1744.91,479.098 1744.98,478.848 C1744.98,478.669 1744.91,478.4 1744.77,478.043 C1744.62,477.685 1744.55,477.434 1744.55,477.291 C1744.69,477.148 1744.87,477.077 1745.09,477.077 C1745.77,477.077 1746.39,477.327 1746.97,477.828 C1747.54,478.329 1747.82,478.937 1747.82,479.652 C1749.97,480.153 1751.56,480.708 1752.6,481.316 C1755.78,483.14 1757.38,485.841 1757.38,489.418 M1778.36,494.623 L1773.53,494.569 L1770.95,494.677 L1770.84,508.252 C1770.84,511.078 1770.75,513.135 1770.58,514.423 C1770.25,516.713 1769.65,517.965 1768.75,518.179 C1768.32,518.179 1768.01,517.41 1767.81,515.872 C1767.62,514.334 1767.52,512.706 1767.52,510.989 L1767.46,471.604 C1767.46,471.139 1766.71,470.584 1765.21,469.94 C1763.71,469.296 1762.17,468.634 1760.59,467.955 C1760.7,467.239 1761.85,466.882 1764.03,466.882 C1765.42,467.096 1766.82,467.311 1768.21,467.526 C1770.22,467.991 1771.22,468.67 1771.22,469.565 C1771.22,469.779 1771.18,470.101 1771.11,470.53 C1771.04,470.96 1771,471.264 1771,471.443 L1770.9,492.799 L1773.31,492.691 C1773.78,492.691 1774.53,492.414 1775.57,491.86 C1776.6,491.305 1777.57,491.028 1778.46,491.028 C1779.86,491.028 1780.82,491.153 1781.36,491.404 C1781.9,491.654 1782.17,492.065 1782.17,492.638 C1782.17,493.461 1781.84,493.997 1781.2,494.248 C1780.56,494.498 1779.61,494.623 1778.36,494.623 M1754.21,489.418 C1754.21,486.592 1753.05,484.392 1750.72,482.818 C1749.97,482.317 1748.79,481.799 1747.18,481.262 C1746.97,481.441 1746.73,481.593 1746.48,481.718 C1746.23,481.843 1745.95,481.924 1745.62,481.96 C1743.84,482.174 1742.19,482.782 1740.69,483.784 C1738.54,485.215 1737.47,487.093 1737.47,489.418 C1737.47,491.779 1738.31,493.639 1739.99,494.999 C1741.56,496.251 1743.57,496.877 1746,496.877 C1748.29,496.877 1750.23,496.143 1751.82,494.677 C1753.41,493.21 1754.21,491.457 1754.21,489.418"/>
<path class="Lyrics" d="M428.956,498.41 L442.486,498.41 L442.486,501.875 L428.956,501.875 L428.956,498.41 "/>
<path class="Lyrics" d="M1363.75,473.267 L1363.59,474.823 L1363.37,504.872 C1363.37,507.698 1363.19,509.952 1362.81,511.633 C1362.44,513.314 1361.93,514.155 1361.28,514.155 C1360.92,514.048 1360.66,513.404 1360.5,512.223 C1360.34,511.043 1360.26,509.701 1360.26,508.199 L1360.26,498.111 L1353.66,498.487 C1353.59,498.487 1353.35,498.576 1352.94,498.755 C1352.53,498.934 1352.18,499.023 1351.89,499.023 C1351.43,499.023 1350.68,498.764 1349.64,498.245 C1348.6,497.726 1348.08,497.306 1348.08,496.984 C1348.08,496.662 1348.48,496.501 1349.26,496.501 C1349.69,496.501 1350.4,496.528 1351.38,496.582 C1352.37,496.635 1352.96,496.662 1353.18,496.662 C1354.18,496.662 1355.31,496.626 1356.56,496.555 C1357.81,496.483 1359.05,496.394 1360.26,496.287 L1360.26,486.735 L1354.9,487.111 C1354.86,487.111 1354.61,487.182 1354.14,487.326 C1353.68,487.469 1353.29,487.54 1352.96,487.54 C1352.03,487.254 1351.39,486.968 1351.03,486.682 C1350.85,487.182 1350.73,487.522 1350.66,487.701 C1350.23,488.595 1349.37,490.134 1348.08,492.316 C1345.61,496.573 1342.72,500.436 1339.39,503.906 C1336.35,507.09 1334.29,508.682 1333.22,508.682 L1332.84,508.521 C1333.74,507.698 1335.13,506.124 1337.03,503.799 C1339.21,501.152 1341.5,497.896 1343.9,494.033 C1345.54,491.386 1346.88,488.685 1347.92,485.93 C1349.1,481.781 1349.69,479.688 1349.69,479.652 C1348.73,479.652 1347.6,479.706 1346.31,479.813 C1343.31,480.064 1341.45,480.189 1340.73,480.189 C1340.66,480.189 1340.44,480.287 1340.09,480.484 C1339.73,480.681 1339.39,480.779 1339.07,480.779 C1338.42,480.779 1337.39,480.413 1335.95,479.679 C1334.52,478.946 1333.81,478.418 1333.81,478.096 C1333.99,477.953 1334.15,477.882 1334.29,477.882 C1335.26,477.989 1336.17,478.078 1337.03,478.15 C1337.89,478.221 1338.85,478.257 1339.93,478.257 C1341,478.257 1342.36,478.221 1344,478.15 C1345.65,478.078 1347.21,478.007 1348.67,477.935 C1348.85,477.935 1349.17,477.81 1349.64,477.56 C1350.1,477.309 1350.48,477.184 1350.76,477.184 C1351.19,477.184 1351.9,477.381 1352.88,477.774 C1353.87,478.168 1354.36,478.543 1354.36,478.901 C1354.36,479.08 1354.23,479.313 1353.98,479.599 C1353.73,479.885 1353.47,480.189 1353.18,480.511 C1353.18,481.083 1353,481.87 1352.64,482.872 C1352.43,483.516 1352.09,484.285 1351.62,485.179 L1353.34,485.34 L1354.68,485.287 C1356.51,485.143 1357.73,485.063 1358.36,485.045 C1358.98,485.027 1359.62,484.965 1360.26,484.857 L1360.26,474.394 C1360.26,473.786 1359.41,473.124 1357.71,472.408 C1356.01,471.693 1355.16,471.228 1355.16,471.013 C1355.16,470.584 1355.58,470.369 1356.4,470.369 C1357.22,470.369 1358.47,470.602 1360.15,471.067 C1360.76,471.246 1361.68,471.532 1362.89,471.926 C1363.46,472.14 1363.75,472.587 1363.75,473.267 M1373.68,470.53 L1373.52,471.979 L1373.09,509.379 C1373.09,511.669 1372.92,513.645 1372.58,515.308 C1372.24,516.972 1371.71,517.804 1370.99,517.804 C1370.35,517.804 1370.03,515.675 1370.03,511.418 L1369.92,472.033 C1369.92,471.461 1368.95,470.674 1367,469.672 C1365.05,468.67 1364.07,468.062 1364.07,467.848 C1364.07,467.418 1364.57,467.204 1365.57,467.204 C1366.11,467.204 1367.31,467.472 1369.17,468.008 C1371.03,468.545 1372.21,468.939 1372.71,469.189 C1373.03,469.332 1373.27,469.52 1373.44,469.752 C1373.6,469.985 1373.68,470.244 1373.68,470.53"/>
<path class="Lyrics" d="M1413.55,498.916 C1413.55,499.81 1413.21,500.257 1412.53,500.257 C1411.85,500.257 1410.96,499.506 1409.85,498.004 C1408.74,496.501 1407.65,494.999 1406.58,493.496 C1404.97,491.421 1403.73,489.865 1402.87,488.828 C1402.41,488.291 1401.82,487.594 1401.1,486.735 C1400.46,487.701 1399.57,488.864 1398.42,490.223 C1397.28,491.582 1395.88,493.013 1394.24,494.516 C1392.05,496.448 1390.14,498.039 1388.49,499.291 C1386.42,500.83 1385.06,501.599 1384.42,501.599 C1384.42,501.384 1386.03,499.667 1389.24,496.448 C1391.25,494.444 1392.91,492.602 1394.24,490.921 C1395.92,488.774 1397.4,486.574 1398.69,484.321 C1400.41,481.316 1401.26,479.474 1401.26,478.794 C1401.26,478.4 1400.5,477.685 1398.96,476.648 C1397.42,475.61 1396.65,475.02 1396.65,474.877 C1396.79,474.519 1397.33,474.34 1398.26,474.34 C1399.3,474.34 1400.84,474.805 1402.87,475.735 C1404.91,476.665 1405.93,477.488 1405.93,478.204 C1405.93,478.633 1405.52,479.554 1404.7,480.967 C1403.88,482.38 1403.04,483.802 1402.18,485.233 L1405.4,488.667 C1406,489.311 1406.77,489.946 1407.7,490.572 C1408.63,491.198 1409.58,491.797 1410.55,492.369 C1411.3,493.192 1411.99,494.256 1412.61,495.562 C1413.24,496.868 1413.55,497.986 1413.55,498.916 M1425.52,469.887 L1425.36,471.711 L1425.04,508.413 C1425.04,511.275 1424.84,513.538 1424.44,515.201 C1424.05,516.865 1423.48,517.786 1422.73,517.965 C1422.37,517.965 1422.11,517.446 1421.95,516.408 C1421.79,515.371 1421.71,514.262 1421.71,513.082 L1421.65,471.604 C1421.65,471.282 1420.64,470.638 1418.6,469.672 C1416.56,468.706 1415.54,468.062 1415.54,467.74 C1415.64,467.204 1416.56,466.935 1418.27,466.935 C1420.1,467.221 1421.48,467.49 1422.41,467.74 C1424.48,468.348 1425.52,469.064 1425.52,469.887"/>
<path class="Lyrics" d="M1863.44,487.648 L1863.49,484.965 L1863.38,480.082 L1852.92,480.833 L1853.4,494.73 L1863.12,493.979 C1863.15,493.765 1863.17,493.55 1863.17,493.335 C1863.35,491.654 1863.44,489.758 1863.44,487.648 M1890.7,512.867 C1890.7,513.618 1890.33,514.128 1889.6,514.396 C1888.86,514.665 1887.82,514.799 1886.46,514.799 L1880.66,514.745 C1878.8,514.745 1876.21,514.808 1872.88,514.933 C1869.55,515.058 1867.43,515.121 1866.5,515.121 C1864.85,515.121 1863.62,514.763 1862.79,514.048 C1861.97,513.332 1861.56,512.187 1861.56,510.613 L1861.34,505.355 C1861.34,504.782 1860.41,504.317 1858.55,503.96 C1856.69,503.602 1855.76,503.262 1855.76,502.94 C1855.76,502.439 1856.28,502.117 1857.32,501.974 C1858.36,501.831 1859.38,501.76 1860.38,501.76 L1862.1,501.706 C1863.1,501.706 1863.87,501.84 1864.4,502.108 C1864.94,502.377 1865.21,502.958 1865.21,503.852 L1865.15,511.526 C1865.15,512.134 1865.2,512.581 1865.29,512.867 C1865.38,513.153 1865.85,513.296 1866.71,513.296 L1880.55,512.974 C1880.91,512.974 1881.46,512.795 1882.19,512.438 C1882.92,512.08 1883.7,511.704 1884.52,511.311 L1886.99,511.204 C1888.1,511.204 1889,511.32 1889.68,511.552 C1890.36,511.785 1890.7,512.223 1890.7,512.867 M1866.55,486.252 L1868.59,486.306 C1870.05,486.306 1871.5,486.217 1872.93,486.038 C1873.19,486.038 1873.49,485.984 1873.85,485.877 L1873.79,474.823 C1873.79,474.287 1873.21,473.714 1872.05,473.106 C1870.89,472.498 1869.7,471.872 1868.48,471.228 C1868.48,471.013 1868.64,470.817 1868.96,470.638 C1869.29,470.459 1869.72,470.369 1870.25,470.369 C1871.4,470.369 1872.89,470.611 1874.73,471.094 C1876.57,471.577 1877.5,472.176 1877.5,472.891 C1877.5,473.178 1877.47,473.464 1877.42,473.75 C1877.36,474.036 1877.3,474.358 1877.23,474.716 L1877.23,498.594 C1877.23,500.132 1877.04,501.465 1876.66,502.591 C1876.29,503.718 1875.78,504.282 1875.13,504.282 C1874.85,504.282 1874.61,503.745 1874.41,502.672 C1874.21,501.599 1874.12,500.382 1874.12,499.023 L1874.06,487.916 L1868,488.077 C1867.57,488.184 1867.19,488.238 1866.87,488.238 C1866.55,488.202 1866.35,488.166 1866.28,488.13 L1865.32,493.335 C1865.92,493.371 1866.37,493.425 1866.66,493.496 C1867.55,493.711 1868,494.069 1868,494.569 C1868,495.07 1867.73,495.392 1867.19,495.535 C1866.66,495.678 1866.01,495.75 1865.26,495.75 L1863.28,495.75 L1853.13,496.287 C1853.13,497.002 1852.96,497.664 1852.62,498.272 C1852.29,498.88 1851.88,499.184 1851.42,499.184 C1851.06,499.184 1850.78,498.701 1850.59,497.735 C1850.39,496.769 1850.29,496.018 1850.29,495.482 L1849.22,482.121 C1849.22,481.656 1848.73,481.208 1847.77,480.779 C1845.66,479.849 1844.6,479.366 1844.6,479.33 C1844.6,478.973 1844.99,478.722 1845.76,478.579 C1846.53,478.436 1847.21,478.365 1847.82,478.365 C1848.36,478.365 1849.04,478.436 1849.86,478.579 C1851.69,478.901 1852.72,479.062 1852.97,479.062 C1854.33,479.062 1856.16,479 1858.45,478.874 C1860.74,478.749 1862.03,478.615 1862.34,478.472 C1862.64,478.329 1862.88,478.204 1863.06,478.096 C1863.49,477.846 1863.78,477.721 1863.92,477.721 C1864.39,477.721 1865.17,477.908 1866.28,478.284 C1867.39,478.66 1867.94,479.008 1867.94,479.33 C1867.94,479.509 1867.85,479.787 1867.65,480.162 C1867.45,480.538 1867.34,480.815 1867.3,480.994 C1867.26,481.03 1867.15,481.781 1866.95,483.248 C1866.75,484.714 1866.62,485.716 1866.55,486.252 M1886.56,472.194 L1886.3,499.935 C1886.3,501.867 1886.12,503.459 1885.76,504.711 C1885.4,505.963 1884.83,506.589 1884.04,506.589 C1883.68,506.589 1883.44,505.972 1883.32,504.738 C1883.19,503.504 1883.13,502.457 1883.13,501.599 L1882.97,472.248 C1882.97,471.782 1882.3,471.165 1880.96,470.396 C1879.62,469.627 1878.25,468.831 1876.85,468.008 C1876.85,467.758 1877.07,467.552 1877.5,467.391 C1877.92,467.23 1878.28,467.15 1878.57,467.15 C1879.75,467.15 1881.41,467.499 1883.56,468.196 C1885.71,468.894 1886.78,469.636 1886.78,470.423 C1886.78,470.602 1886.74,470.933 1886.67,471.416 C1886.6,471.899 1886.56,472.158 1886.56,472.194"/>
<path class="Lyrics" d="M403.73,470.423 L403.623,472.891 L403.515,489.365 C403.515,490.939 403.31,492.271 402.898,493.362 C402.487,494.453 401.959,494.999 401.315,494.999 C401.029,494.999 400.761,494.507 400.51,493.523 C400.26,492.539 400.135,491.565 400.135,490.599 L400.028,472.301 C400.028,471.729 399.285,471.067 397.801,470.316 C396.316,469.565 394.805,468.795 393.267,468.008 C393.267,467.687 393.454,467.445 393.83,467.284 C394.206,467.123 394.715,467.043 395.359,467.043 C396.969,467.043 398.615,467.275 400.296,467.74 C402.585,468.384 403.73,469.278 403.73,470.423 M399.169,484.589 C399.169,485.34 397.202,486.378 393.267,487.701 C389.904,488.846 385.933,489.937 381.354,490.974 C376.775,492.012 373.681,492.53 372.071,492.53 C371.428,492.53 370.837,492.128 370.301,491.323 C369.764,490.518 369.496,489.812 369.496,489.204 L369.335,477.721 C369.335,477.256 368.405,476.755 366.545,476.218 C364.684,475.682 363.736,475.306 363.701,475.091 C363.701,474.662 364.049,474.313 364.747,474.045 C365.445,473.777 366.241,473.643 367.135,473.643 L367.403,473.643 C369.013,473.643 370.175,473.714 370.891,473.857 C372.322,474.143 373.037,474.698 373.037,475.521 C373.037,475.735 372.984,476.165 372.876,476.808 C372.769,477.452 372.715,478.007 372.715,478.472 L372.715,486.574 C372.715,487.54 372.814,488.157 373.01,488.426 C373.207,488.694 373.753,488.828 374.647,488.828 C376.078,488.828 377.357,488.765 378.484,488.64 C379.61,488.515 381.14,488.291 383.071,487.969 C386.541,487.361 389.967,486.628 393.347,485.769 C396.728,484.911 398.561,484.482 398.847,484.482 L399.169,484.589 M404.32,498.808 C404.32,499.023 404.213,499.256 403.998,499.506 C403.462,500.15 403.193,500.508 403.193,500.579 L401.53,511.043 C402.067,511.078 402.46,511.132 402.71,511.204 C403.497,511.49 403.891,512.008 403.891,512.76 C403.819,513.01 403.623,513.207 403.301,513.35 C402.979,513.493 402.424,513.565 401.637,513.565 L398.793,513.404 C396.933,513.404 393.83,513.439 389.484,513.511 C385.137,513.582 382.821,513.618 382.535,513.618 C382.535,514.119 382.41,514.674 382.159,515.282 C381.802,516.176 381.301,516.623 380.657,516.623 C380.335,516.623 380.075,516.221 379.879,515.416 C379.682,514.611 379.566,513.94 379.53,513.404 L378.779,501.062 C378.779,500.669 378.367,500.257 377.545,499.828 C376.543,499.399 375.559,498.969 374.593,498.54 C374.593,498.218 374.799,497.941 375.21,497.708 C375.622,497.476 376.257,497.36 377.115,497.36 C377.723,497.36 378.636,497.503 379.852,497.789 C381.068,498.075 381.909,498.218 382.374,498.218 L389.028,498.165 L397.345,497.789 C397.738,497.789 398.167,497.708 398.632,497.548 C399.097,497.387 399.58,497.217 400.081,497.038 C400.618,497.038 401.458,497.234 402.603,497.628 C403.748,498.021 404.32,498.415 404.32,498.808 M399.384,499.506 L382.481,500.043 L382.642,511.794 L399.115,511.365 L399.384,499.506 "/>
<path class="Lyrics" d="M943,485.126 C943,488.095 941.99,490.465 939.968,492.235 C937.947,494.006 935.13,494.891 931.517,494.891 C928.405,494.891 925.758,494.122 923.576,492.584 C921.036,490.795 919.766,488.274 919.766,485.018 C919.766,482.085 920.964,479.778 923.361,478.096 C925.973,476.88 928.584,475.646 931.195,474.394 C931.195,474.251 931.115,474.018 930.954,473.696 C930.793,473.374 930.712,473.16 930.712,473.052 C930.82,472.909 931.016,472.838 931.303,472.838 C932.054,472.838 932.707,473.133 933.261,473.723 C933.816,474.313 934.093,475.002 934.093,475.789 C936.096,476.54 937.581,477.238 938.547,477.882 C941.516,479.849 943,482.264 943,485.126 M967.254,486.735 C967.254,487.451 966.869,487.934 966.1,488.184 C965.331,488.434 964.392,488.56 963.283,488.56 L956.2,488.613 L956.093,498.433 C956.093,499.721 955.968,500.955 955.717,502.135 C955.324,504.067 954.698,505.158 953.839,505.408 C953.374,505.408 953.106,504.818 953.034,503.638 C952.963,502.457 952.927,501.384 952.927,500.418 L952.927,471.979 C952.927,471.371 951.916,470.53 949.895,469.457 C947.874,468.384 946.864,467.83 946.864,467.794 C946.971,467.15 947.615,466.828 948.795,466.828 C949.725,466.828 950.96,467.025 952.498,467.418 C953.356,467.669 954.215,467.91 955.073,468.143 C955.932,468.375 956.361,468.903 956.361,469.726 L956.254,471.121 L956.2,486.843 L958.078,486.843 C958.436,486.843 959.008,486.574 959.795,486.038 C960.582,485.501 961.012,485.233 961.083,485.233 L964.034,485.126 C965.036,485.126 965.823,485.233 966.395,485.448 C966.968,485.662 967.254,486.091 967.254,486.735 M961.888,513.457 C961.888,514.244 961.539,514.772 960.842,515.04 C960.144,515.308 958.973,515.443 957.327,515.443 C956.755,515.443 956.173,515.434 955.583,515.416 C954.993,515.398 954.376,515.389 953.732,515.389 C953.481,515.389 953.285,515.389 953.142,515.389 C951.21,515.389 948.661,515.434 945.495,515.523 C942.329,515.613 940.729,515.657 940.693,515.657 L938.386,515.604 C936.704,515.604 935.47,515.335 934.683,514.799 C933.717,514.155 933.234,513.028 933.234,511.418 L933.127,504.926 C933.127,504.532 932.251,504.067 930.498,503.53 C928.745,502.994 927.868,502.636 927.868,502.457 C927.868,502.171 928.056,501.912 928.432,501.679 C928.807,501.447 929.228,501.33 929.693,501.33 L932.268,501.277 C933.592,501.277 934.692,501.402 935.568,501.652 C936.445,501.903 936.883,502.368 936.883,503.048 L936.722,504.389 L936.722,512.169 C936.722,512.778 936.82,513.198 937.017,513.43 C937.214,513.663 937.509,513.779 937.903,513.779 L944.825,513.726 C945.862,513.726 947.042,513.69 948.366,513.618 C949.69,513.547 950.942,513.475 952.122,513.404 C952.623,513.404 953.24,513.18 953.973,512.733 C954.707,512.286 955.091,512.062 955.127,512.062 L958.347,511.901 C959.42,511.901 960.278,512.008 960.922,512.223 C961.566,512.438 961.888,512.849 961.888,513.457 M939.888,485.126 C939.888,483.087 938.833,481.119 936.722,479.223 C936.042,478.615 934.987,477.882 933.556,477.023 C933.485,477.095 933.413,477.166 933.342,477.238 C932.984,477.595 932.322,477.846 931.356,477.989 C928.96,478.454 926.992,479.313 925.454,480.565 C923.916,481.817 923.147,483.301 923.147,485.018 C923.147,487.415 924.094,489.275 925.99,490.599 C927.529,491.672 929.371,492.208 931.517,492.208 C934.021,492.208 936.007,491.672 937.473,490.599 C939.083,489.418 939.888,487.701 939.888,485.448 L939.888,485.126 "/>
<path class="Lyrics" d="M350.627,491.082 C350.52,491.618 350.198,491.967 349.662,492.128 C349.125,492.289 348.41,492.369 347.515,492.369 L332.276,492.799 L322.779,492.852 C320.847,492.852 319.488,492.441 318.701,491.618 C317.914,490.795 317.52,489.454 317.52,487.594 L317.306,479.706 C317.306,479.169 316.375,478.633 314.515,478.096 C312.655,477.56 311.725,477.202 311.725,477.023 C311.725,476.558 311.975,476.245 312.476,476.084 C312.977,475.923 313.675,475.843 314.569,475.843 L315.749,475.843 C317.86,475.843 319.336,476.075 320.176,476.54 C321.017,477.005 321.437,477.649 321.437,478.472 C321.437,478.722 321.401,479.232 321.33,480.001 C321.258,480.77 321.223,481.208 321.223,481.316 L321.223,488.452 C321.223,489.526 321.357,490.214 321.625,490.518 C321.893,490.822 322.528,490.974 323.53,490.974 L329.432,491.028 C329.79,491.028 330.112,491.028 330.398,491.028 C332.902,491.028 335.013,491.001 336.73,490.948 C338.447,490.894 339.61,490.76 340.218,490.545 C340.54,490.545 341.023,490.393 341.667,490.089 C342.31,489.785 342.972,489.454 343.652,489.096 L346.12,489.043 C347.515,489.043 348.615,489.186 349.42,489.472 C350.225,489.758 350.627,490.295 350.627,491.082 M356.637,507.34 C356.351,508.163 355.385,508.574 353.74,508.574 C352.309,508.574 350.753,508.539 349.071,508.467 C344.886,508.288 342.257,508.199 341.184,508.199 L332.169,508.306 C329.414,508.306 326.32,508.449 322.886,508.735 C321.706,508.807 320.185,508.968 318.325,509.218 C317.932,509.218 317.323,509.361 316.501,509.648 C316,509.826 315.624,509.916 315.374,509.916 C314.48,509.916 313.022,509.397 311.001,508.36 C308.98,507.322 307.969,506.482 307.969,505.838 C308.076,505.552 308.291,505.408 308.613,505.408 C309.936,505.73 311.528,506.017 313.388,506.267 C315.249,506.517 317.18,506.643 319.184,506.643 L323.476,506.696 C326.016,506.696 330.193,506.598 336.006,506.401 C341.819,506.204 344.922,506.034 345.315,505.891 C345.852,505.891 346.469,505.757 347.167,505.489 C347.864,505.221 348.588,504.943 349.34,504.657 C354.205,504.657 356.637,505.552 356.637,507.34"/>
<path class="Lyrics" d="M1621.27,494.355 C1620.16,495.142 1618.03,496.197 1614.88,497.521 C1611.74,498.844 1608.57,500.025 1605.39,501.062 C1602.63,501.921 1600.11,502.582 1597.82,503.048 C1596.1,503.405 1594.89,503.584 1594.17,503.584 C1593.81,503.584 1593.29,503.146 1592.61,502.269 C1591.94,501.393 1591.6,500.561 1591.6,499.774 L1591.01,481.477 C1591.01,480.869 1590.47,480.314 1589.4,479.813 C1588.14,479.384 1586.91,478.937 1585.69,478.472 C1585.69,478.007 1585.93,477.667 1586.39,477.452 C1586.86,477.238 1587.48,477.13 1588.27,477.13 C1589.16,477.13 1590.27,477.247 1591.6,477.479 C1592.92,477.712 1594.28,477.953 1595.67,478.204 C1596.57,478.204 1598.04,478.123 1600.1,477.962 C1602.16,477.801 1603.31,477.667 1603.56,477.56 C1604.06,477.524 1604.6,477.345 1605.17,477.023 C1606.42,476.343 1607.08,476.004 1607.16,476.004 L1609.73,475.896 C1610.88,475.896 1611.8,476.021 1612.5,476.272 C1613.19,476.522 1613.54,476.987 1613.54,477.667 C1613.54,478.239 1613.02,478.651 1611.99,478.901 C1610.95,479.152 1609.64,479.277 1608.07,479.277 C1607.14,479.527 1605.32,479.697 1602.62,479.787 C1599.92,479.876 1597.25,479.921 1594.6,479.921 L1594.87,496.984 C1594.87,497.95 1594.98,498.701 1595.19,499.238 C1595.41,499.774 1595.91,500.043 1596.69,500.043 C1597.62,500.043 1599.04,499.828 1600.96,499.399 C1602.87,498.969 1605.14,498.397 1607.77,497.682 C1610.4,496.966 1612.68,496.269 1614.61,495.589 C1616.83,494.802 1619.05,494.015 1621.27,493.228 L1621.16,472.087 C1621.16,471.264 1620,470.387 1617.67,469.457 C1615.35,468.527 1614.19,467.955 1614.19,467.74 C1614.19,467.061 1614.9,466.721 1616.33,466.721 C1616.94,466.721 1617.49,466.756 1617.97,466.828 C1618.45,466.9 1619.16,467.034 1620.09,467.23 C1621.02,467.427 1622,467.633 1623.04,467.848 C1624.26,468.277 1624.86,469.01 1624.86,470.048 L1624.76,472.033 L1624.6,492.048 L1627.06,491.94 C1627.42,491.94 1628.19,491.618 1629.37,490.974 C1630.01,490.617 1630.5,490.438 1630.82,490.438 C1632.54,490.438 1633.78,490.572 1634.55,490.84 C1635.32,491.108 1635.7,491.654 1635.7,492.477 C1635.63,492.834 1635.36,493.103 1634.9,493.282 C1634.43,493.461 1633.57,493.55 1632.32,493.55 L1624.6,493.818 L1624.43,510.828 C1624.43,512.402 1624.26,514.03 1623.9,515.711 C1623.54,517.392 1623.02,518.233 1622.34,518.233 C1621.95,518.233 1621.69,517.589 1621.56,516.301 C1621.44,515.013 1621.38,513.493 1621.38,511.74 L1621.27,494.355 "/>
<path class="Lyrics" d="M1528.2,488.238 L1528.2,488.613 C1528.2,491.654 1527.12,494.176 1524.95,496.179 C1522.79,498.182 1520.17,499.184 1517.09,499.184 C1513.73,499.184 1510.83,498.165 1508.4,496.126 C1505.97,494.087 1504.75,491.636 1504.75,488.774 L1504.75,488.238 C1504.75,484.589 1506.58,481.888 1510.22,480.135 C1511.44,479.563 1513.28,479.062 1515.75,478.633 C1515.97,478.454 1516.07,478.239 1516.07,477.989 C1516.07,477.774 1515.98,477.524 1515.81,477.238 C1515.63,476.952 1515.54,476.773 1515.54,476.701 C1515.54,476.63 1515.63,476.558 1515.81,476.487 C1515.84,476.487 1515.93,476.469 1516.07,476.433 C1516.75,476.433 1517.38,476.656 1517.95,477.104 C1518.52,477.551 1518.81,478.114 1518.81,478.794 L1518.81,479.008 C1520.89,479.474 1522.44,479.974 1523.48,480.511 C1526.63,482.228 1528.2,484.804 1528.2,488.238 M1542.53,471.496 L1542.26,510.184 C1542.26,512.33 1542.17,513.994 1541.99,515.174 C1541.67,517.356 1541.08,518.448 1540.22,518.448 C1539.65,518.448 1539.31,517.5 1539.2,515.604 C1539.09,513.708 1539.04,512.187 1539.04,511.043 L1538.93,471.657 C1538.93,471.121 1538.2,470.539 1536.73,469.913 C1535.27,469.287 1533.78,468.652 1532.28,468.008 C1532.28,467.651 1532.56,467.374 1533.11,467.177 C1533.66,466.98 1534.16,466.882 1534.59,466.882 C1535.52,466.882 1536.58,467.007 1537.78,467.257 C1538.98,467.508 1540.24,467.83 1541.56,468.223 C1541.99,468.366 1542.29,468.563 1542.45,468.813 C1542.61,469.064 1542.69,469.386 1542.69,469.779 L1542.53,471.496 M1525.03,488.345 C1525.03,485.519 1523.91,483.373 1521.65,481.906 C1520.9,481.441 1519.76,480.976 1518.22,480.511 C1518.04,480.69 1517.86,480.833 1517.68,480.94 C1517.29,481.226 1516.93,481.369 1516.61,481.369 C1514.54,481.369 1512.63,482.13 1510.9,483.65 C1509.16,485.17 1508.29,486.986 1508.29,489.096 C1508.29,491.171 1509.26,492.906 1511.19,494.301 C1512.91,495.553 1514.77,496.179 1516.77,496.179 C1519.1,496.179 1521.06,495.455 1522.65,494.006 C1524.24,492.557 1525.03,490.67 1525.03,488.345"/>
<path class="Lyrics" d="M1230.16,498.41 L1243.69,498.41 L1243.69,501.875 L1230.16,501.875 L1230.16,498.41 "/>
<path class="Lyrics" d="M273.791,973.27 L287.321,973.27 L287.321,976.735 L273.791,976.735 L273.791,973.27 "/>
<path class="Lyrics" d="M279.127,475.091 C279.127,475.592 278.546,475.959 277.383,476.191 C276.221,476.424 274.834,476.54 273.225,476.54 C271.15,476.54 269.773,476.451 269.093,476.272 C268.413,476.093 267.394,475.565 266.034,474.689 C264.675,473.813 263.995,473.213 263.995,472.891 C263.995,472.784 264.138,472.713 264.425,472.677 C264.496,472.677 264.657,472.659 264.908,472.623 C265.838,472.623 267.233,472.748 269.093,472.999 C270.953,473.249 272.366,473.374 273.332,473.374 L275.908,473.321 C277.052,473.321 277.875,473.428 278.376,473.643 C278.877,473.857 279.127,474.34 279.127,475.091 M285.083,482.926 L281.595,482.765 C281.452,482.765 280.951,482.809 280.093,482.899 C279.234,482.988 278.555,483.033 278.054,483.033 C277.41,483.104 275.559,483.167 272.5,483.221 C269.442,483.274 267.161,483.48 265.659,483.838 C264.943,483.838 264.21,484.034 263.459,484.428 C262.708,484.821 262.207,485.018 261.956,485.018 C261.42,485.018 260.23,484.571 258.388,483.677 C256.546,482.782 255.625,482.174 255.625,481.852 C255.625,481.638 255.893,481.53 256.429,481.53 C257.109,481.53 258.54,481.656 260.722,481.906 C261.974,482.049 262.851,482.121 263.351,482.121 L265.551,482.067 C266.481,482.067 268.699,481.915 272.205,481.611 C275.711,481.307 277.571,481.119 277.786,481.048 C278.215,481.048 278.716,480.922 279.288,480.672 C280.576,480.1 281.434,479.813 281.864,479.813 C283.867,479.813 285.289,479.956 286.129,480.243 C286.97,480.529 287.39,480.976 287.39,481.584 C287.39,482.085 287.194,482.434 286.8,482.63 C286.407,482.827 285.834,482.926 285.083,482.926 M305.42,492.262 C305.277,492.87 304.901,493.255 304.293,493.416 C303.685,493.577 302.612,493.657 301.073,493.657 L294.42,493.926 L294.366,510.023 C294.366,512.241 294.187,514.083 293.829,515.55 C293.472,517.017 292.953,517.75 292.273,517.75 C291.737,517.75 291.433,516.918 291.361,515.255 C291.29,513.591 291.254,512.008 291.254,510.506 L290.932,471.496 C290.932,470.995 289.93,470.262 287.927,469.296 C285.924,468.33 284.922,467.758 284.922,467.579 C284.958,467.329 285.155,467.141 285.512,467.016 C285.87,466.891 286.299,466.828 286.8,466.828 C288.16,466.828 289.698,467.078 291.415,467.579 C293.597,468.223 294.688,469.01 294.688,469.94 C294.688,470.119 294.652,470.53 294.581,471.174 C294.509,471.818 294.473,472.408 294.473,472.945 L294.42,492.262 L297.639,491.994 L299.732,490.491 L301.878,490.491 C303.023,490.491 303.908,490.581 304.534,490.76 C305.16,490.939 305.473,491.314 305.473,491.887 L305.42,492.262 M283.098,496.877 C283.098,499.56 281.935,501.778 279.61,503.53 C277.464,505.14 274.977,505.945 272.151,505.945 C268.86,505.945 266.106,504.836 263.888,502.618 C261.992,500.722 261.044,498.737 261.044,496.662 C261.044,493.335 262.636,490.849 265.82,489.204 C266.857,488.667 268.449,488.184 270.595,487.755 C270.738,487.683 270.846,487.63 270.917,487.594 C271.096,487.451 271.186,487.165 271.186,486.735 C271.042,486.342 270.971,486.056 270.971,485.877 C270.971,485.805 271.06,485.716 271.239,485.608 C271.275,485.608 271.311,485.591 271.347,485.555 C271.74,485.555 272.259,485.761 272.903,486.172 C273.547,486.583 273.868,486.986 273.868,487.379 L273.761,487.755 C275.836,488.184 277.392,488.667 278.429,489.204 C281.542,490.813 283.098,493.282 283.098,496.608 L283.098,496.877 M279.932,496.179 C279.932,494.319 279.306,492.763 278.054,491.511 C276.551,490.008 275.085,489.257 273.654,489.257 C273.475,489.436 273.332,489.579 273.225,489.687 C272.867,490.044 272.545,490.259 272.259,490.33 C269.29,491.153 267.769,491.582 267.698,491.618 C265.623,492.584 264.586,494.14 264.586,496.287 C264.586,498.004 265.48,499.56 267.268,500.955 C268.95,502.243 270.738,502.887 272.634,502.887 C274.638,502.887 276.355,502.261 277.786,501.008 C279.216,499.756 279.932,498.147 279.932,496.179"/>
<path class="Lyrics" d="M843.07,483.408 L843.07,483.891 C843.07,486.717 841.961,488.971 839.743,490.652 C837.704,492.191 835.236,492.96 832.338,492.96 C829.441,492.96 826.865,492.083 824.612,490.33 C822.179,488.434 820.963,486.145 820.963,483.462 L821.017,482.765 C821.338,479.33 823.109,476.916 826.329,475.521 C827.366,475.056 828.94,474.698 831.051,474.448 C831.122,474.376 831.194,474.215 831.265,473.965 C831.265,473.786 831.23,473.607 831.158,473.428 C830.979,472.927 830.89,472.659 830.89,472.623 C830.89,472.444 831.051,472.355 831.373,472.355 C831.945,472.355 832.562,472.596 833.224,473.079 C833.886,473.562 834.217,474.09 834.217,474.662 C836.184,475.199 837.651,475.735 838.617,476.272 C841.586,477.989 843.07,480.368 843.07,483.408 M859.114,471.55 L858.953,491.35 C858.953,493.568 858.747,495.455 858.336,497.011 C857.925,498.567 857.379,499.345 856.699,499.345 C856.378,499.345 856.136,498.871 855.975,497.923 C855.814,496.975 855.734,495.965 855.734,494.891 L855.68,490.062 L849.563,490.545 C849.277,490.545 848.955,490.626 848.597,490.787 C848.239,490.948 847.953,491.028 847.738,491.028 C847.166,491.028 846.29,490.778 845.109,490.277 C843.929,489.776 843.338,489.329 843.338,488.935 C843.338,488.721 843.535,488.613 843.929,488.613 L847.095,488.667 L855.68,488.399 L855.626,479.223 C854.66,479.223 853.73,479.232 852.836,479.25 C851.942,479.268 850.976,479.366 849.938,479.545 C849.688,479.545 849.268,479.643 848.678,479.84 C848.087,480.037 847.667,480.135 847.417,480.135 C846.951,480.135 846.138,479.831 844.975,479.223 C843.812,478.615 843.231,478.15 843.231,477.828 C843.231,477.613 843.41,477.506 843.768,477.506 C844.018,477.506 844.653,477.533 845.673,477.587 C846.692,477.64 847.47,477.667 848.007,477.667 C850.439,477.667 852.121,477.658 853.051,477.64 C853.981,477.622 854.821,477.578 855.573,477.506 L855.519,471.496 C855.519,471.031 854.857,470.486 853.534,469.86 C852.21,469.234 850.851,468.581 849.456,467.901 C849.456,467.579 849.715,467.338 850.234,467.177 C850.752,467.016 851.208,466.935 851.602,466.935 C852.103,466.935 853.158,467.096 854.768,467.418 C856.378,467.74 857.442,467.973 857.96,468.116 C858.479,468.259 858.819,468.482 858.98,468.787 C859.141,469.091 859.221,469.439 859.221,469.833 L859.114,471.55 M858.256,507.072 L858.256,507.34 C858.256,509.952 857.156,512.107 854.956,513.806 C852.756,515.505 850.171,516.355 847.202,516.355 C844.09,516.355 841.407,515.407 839.153,513.511 C836.899,511.615 835.773,509.379 835.773,506.804 L835.826,506.106 C836.077,502.922 837.776,500.615 840.924,499.184 C841.961,498.719 843.517,498.308 845.592,497.95 C845.664,497.878 845.735,497.717 845.807,497.467 C845.807,497.36 845.753,497.181 845.646,496.93 C845.538,496.68 845.485,496.501 845.485,496.394 C845.485,496.179 845.699,496.072 846.129,496.072 C846.737,496.072 847.336,496.269 847.926,496.662 C848.517,497.056 848.812,497.539 848.812,498.111 C850.851,498.111 853.015,499.059 855.304,500.955 C857.272,502.6 858.256,504.639 858.256,507.072 M840.226,483.408 C840.226,481.012 839.171,479.062 837.06,477.56 C836.381,477.059 835.325,476.54 833.895,476.004 C833.68,476.218 833.367,476.433 832.956,476.648 C832.544,476.862 832.088,477.005 831.587,477.077 C829.691,477.363 828.082,478.061 826.758,479.169 C825.22,480.421 824.451,481.96 824.451,483.784 C824.451,485.823 825.417,487.469 827.348,488.721 C828.958,489.758 830.711,490.277 832.607,490.277 C834.574,490.277 836.336,489.66 837.892,488.426 C839.448,487.191 840.226,485.608 840.226,483.677 L840.226,483.408 M855.358,507.018 L855.358,506.75 C855.358,504.639 854.231,502.815 851.978,501.277 C851.226,500.776 850.099,500.221 848.597,499.613 C848.382,499.828 848.051,500.034 847.604,500.23 C847.157,500.427 846.647,500.561 846.075,500.633 C843.893,500.919 842.238,501.626 841.112,502.752 C839.985,503.879 839.421,505.212 839.421,506.75 C839.421,508.574 840.101,510.13 841.46,511.418 C842.963,512.849 844.895,513.565 847.256,513.565 C849.366,513.565 851.191,513.01 852.729,511.901 C854.482,510.649 855.358,509.021 855.358,507.018"/>
<path class="Lyrics" d="M839.775,964.278 C839.775,967.175 838.675,969.635 836.475,971.656 C834.275,973.677 831.583,974.688 828.4,974.688 C824.787,974.688 821.916,973.767 819.787,971.924 C817.659,970.082 816.595,967.533 816.595,964.278 C816.595,960.701 818.348,957.946 821.853,956.014 C822.998,955.371 824.769,954.745 827.165,954.136 C827.237,954.101 827.309,953.958 827.38,953.707 C827.38,953.528 827.309,953.26 827.165,952.902 C827.022,952.545 826.951,952.294 826.951,952.151 C827.094,952.008 827.273,951.936 827.487,951.936 C828.167,951.936 828.793,952.187 829.365,952.688 C829.938,953.188 830.224,953.797 830.224,954.512 C832.37,955.013 833.962,955.567 835,956.175 C838.183,958 839.775,960.701 839.775,964.278 M860.756,969.483 L855.926,969.429 L853.351,969.536 L853.243,983.112 C853.243,985.938 853.154,987.995 852.975,989.283 C852.653,991.572 852.045,992.824 851.151,993.039 C850.722,993.039 850.409,992.27 850.212,990.732 C850.015,989.193 849.917,987.566 849.917,985.849 L849.863,946.463 C849.863,945.998 849.112,945.444 847.609,944.8 C846.107,944.156 844.569,943.494 842.995,942.814 C843.102,942.099 844.247,941.741 846.429,941.741 C847.824,941.956 849.219,942.171 850.614,942.385 C852.617,942.85 853.619,943.53 853.619,944.424 C853.619,944.639 853.583,944.961 853.512,945.39 C853.44,945.819 853.404,946.123 853.404,946.302 L853.297,967.658 L855.712,967.551 C856.177,967.551 856.928,967.274 857.965,966.719 C859.003,966.165 859.969,965.888 860.863,965.888 C862.258,965.888 863.224,966.013 863.761,966.263 C864.297,966.514 864.565,966.925 864.565,967.497 C864.565,968.32 864.243,968.857 863.6,969.107 C862.956,969.358 862.008,969.483 860.756,969.483 M836.609,964.278 C836.609,961.452 835.447,959.252 833.122,957.678 C832.37,957.177 831.19,956.658 829.58,956.122 C829.365,956.301 829.133,956.453 828.883,956.578 C828.632,956.703 828.346,956.784 828.024,956.819 C826.235,957.034 824.59,957.642 823.087,958.644 C820.941,960.075 819.868,961.953 819.868,964.278 C819.868,966.639 820.709,968.499 822.39,969.858 C823.964,971.11 825.967,971.736 828.4,971.736 C830.689,971.736 832.63,971.003 834.222,969.536 C835.813,968.07 836.609,966.317 836.609,964.278"/>
<path class="Lyrics" d="M1469.45,492.799 C1469.45,493.443 1467.39,494.569 1463.28,496.179 C1459.85,497.503 1455.73,498.853 1450.94,500.23 C1446.14,501.608 1443.05,502.296 1441.66,502.296 C1440.76,502.296 1439.97,502.064 1439.27,501.599 C1438.57,501.134 1438.22,500.418 1438.22,499.452 L1437.68,481.96 C1437.68,481.244 1436.72,480.6 1434.79,480.028 C1432.86,479.456 1431.89,479.062 1431.89,478.848 C1431.89,478.49 1432.18,478.204 1432.75,477.989 C1433.32,477.774 1434.02,477.667 1434.84,477.667 C1436.16,477.774 1437.51,477.882 1438.87,477.989 C1440.73,478.311 1441.66,478.991 1441.66,480.028 L1441.82,498.594 C1443.14,498.594 1444.8,498.487 1446.81,498.272 C1448.81,498.057 1451.05,497.664 1453.51,497.091 C1456.84,496.34 1460.92,495.16 1465.75,493.55 C1467.57,492.942 1468.68,492.638 1469.08,492.638 C1469.18,492.638 1469.27,492.656 1469.34,492.691 C1469.38,492.727 1469.41,492.763 1469.45,492.799 M1481.47,492.155 C1481.36,492.834 1480.27,493.264 1478.2,493.443 C1477.3,493.514 1476.35,493.55 1475.35,493.55 L1470.58,493.711 L1470.42,511.472 C1470.42,513.01 1470.22,514.45 1469.83,515.791 C1469.43,517.133 1468.97,517.804 1468.43,517.804 C1467.89,517.804 1467.58,517.195 1467.49,515.979 C1467.4,514.763 1467.36,513.654 1467.36,512.652 L1467.04,471.818 C1467.04,471.246 1466.28,470.629 1464.78,469.967 C1463.28,469.305 1461.74,468.617 1460.17,467.901 C1460.28,467.508 1460.57,467.239 1461.05,467.096 C1461.54,466.953 1462.19,466.882 1463.01,466.882 C1465.84,467.311 1467.39,467.561 1467.68,467.633 C1469.9,468.205 1471.01,469.01 1471.01,470.048 C1471.01,470.369 1470.96,470.906 1470.87,471.657 C1470.78,472.408 1470.74,472.891 1470.74,473.106 L1470.47,491.833 L1473.15,491.726 C1473.55,491.726 1474.15,491.457 1474.98,490.921 C1475.8,490.384 1476.34,490.116 1476.59,490.116 L1477.93,490.116 C1479.07,490.116 1479.95,490.232 1480.56,490.465 C1481.17,490.697 1481.47,491.261 1481.47,492.155"/>
<path class="Lyrics" d="M894.887,475.95 C894.171,479.599 893.331,482.648 892.365,485.099 C891.399,487.549 890.523,488.774 889.736,488.774 C889.521,488.774 889.414,488.578 889.414,488.184 C889.414,487.755 889.53,486.95 889.762,485.769 C889.995,484.589 890.218,483.4 890.433,482.201 C890.648,481.003 890.827,479.491 890.97,477.667 C891.005,477.095 891.059,476.343 891.131,475.413 C889.664,475.413 888.001,475.503 886.14,475.682 C881.669,476.111 878.861,476.326 877.716,476.326 C877.573,476.326 877.242,476.415 876.723,476.594 C876.205,476.773 875.802,476.862 875.516,476.862 C874.944,476.862 873.933,476.522 872.484,475.843 C871.036,475.163 870.311,474.608 870.311,474.179 C870.311,473.929 870.615,473.804 871.223,473.804 C871.653,473.804 872.493,473.848 873.745,473.938 C874.997,474.027 875.856,474.072 876.321,474.072 L884.531,474.018 C885.962,474.018 887.035,473.982 887.75,473.911 C888.466,473.839 889.038,473.768 889.467,473.696 C889.718,473.696 890.093,473.553 890.594,473.267 C891.095,472.981 891.453,472.838 891.667,472.838 C892.132,472.838 892.937,473.034 894.082,473.428 C895.227,473.821 895.799,474.197 895.799,474.555 C895.799,474.734 895.647,474.984 895.343,475.306 C895.039,475.628 894.887,475.843 894.887,475.95 M916.404,487.272 L916.404,487.487 C916.404,488.202 915.992,488.667 915.17,488.882 C914.74,488.989 914.222,489.043 913.614,489.043 L905.243,489.311 L905.243,491.565 C905.243,492.96 905.082,494.373 904.76,495.804 C904.331,497.735 903.74,498.701 902.989,498.701 C902.631,498.701 902.381,498.147 902.238,497.038 C902.095,495.929 902.023,494.355 902.023,492.316 L901.97,489.096 C899.931,489.848 898.053,490.474 896.336,490.974 C892.937,492.012 889.807,492.888 886.945,493.604 L875.784,496.394 C875.641,496.43 875.498,496.501 875.355,496.608 C874.926,496.895 874.55,497.038 874.228,497.038 C873.477,497.038 872.118,496.546 870.15,495.562 C868.183,494.578 867.199,493.836 867.199,493.335 C867.199,493.085 867.36,492.96 867.682,492.96 C868.004,492.96 868.415,492.995 868.916,493.067 C870.597,493.317 871.796,493.443 872.511,493.443 C872.94,493.443 874.3,493.282 876.589,492.96 C877.34,492.852 878.449,492.691 879.916,492.477 L879.862,484.535 C879.862,484.249 879.487,483.945 878.736,483.623 C877.018,482.908 876.16,482.478 876.16,482.335 C876.16,482.156 876.294,481.987 876.562,481.826 C876.831,481.665 877.162,481.584 877.555,481.584 L879.701,481.53 C880.882,481.53 881.848,481.638 882.599,481.852 C883.35,482.067 883.726,482.461 883.726,483.033 L883.565,484.267 L883.35,491.887 C884.316,491.887 887.518,491.314 892.955,490.169 C898.392,489.025 901.397,488.291 901.97,487.969 L901.916,471.389 C901.916,470.781 900.852,470.048 898.723,469.189 C896.595,468.33 895.531,467.794 895.531,467.579 C895.531,467.329 895.701,467.105 896.04,466.908 C896.38,466.712 896.783,466.613 897.248,466.613 C898.679,466.613 900.253,466.81 901.97,467.204 C904.402,467.776 905.618,468.527 905.618,469.457 C905.618,469.6 905.583,469.833 905.511,470.155 C905.44,470.477 905.404,470.691 905.404,470.799 L905.35,487.594 L908.355,487.379 C908.534,487.379 909.196,487.075 910.34,486.467 C910.949,486.145 911.61,485.984 912.326,485.984 C913.471,485.984 914.427,486.074 915.197,486.252 C915.966,486.431 916.368,486.771 916.404,487.272 M904.867,508.145 C904.867,510.256 904.027,512.098 902.345,513.672 C900.449,515.425 897.963,516.301 894.887,516.301 C892.204,516.301 889.825,515.496 887.75,513.887 C885.461,512.134 884.316,509.952 884.316,507.34 C884.316,504.049 885.89,501.599 889.038,499.989 C890.075,499.452 891.667,498.969 893.814,498.54 C893.849,498.504 893.885,498.361 893.921,498.111 L893.706,496.877 C893.706,496.769 893.76,496.68 893.867,496.608 C893.903,496.608 893.957,496.591 894.028,496.555 C894.565,496.555 895.119,496.769 895.692,497.199 C896.264,497.628 896.55,498.111 896.55,498.648 C898.41,499.113 899.805,499.613 900.736,500.15 C903.526,501.795 904.921,504.192 904.921,507.34 L904.867,508.145 M902.184,507.233 L902.184,506.589 C902.184,504.407 901.218,502.654 899.287,501.33 C898.643,500.901 897.677,500.454 896.389,499.989 C896.282,500.275 896.067,500.49 895.745,500.633 C895.137,500.919 894.234,501.152 893.036,501.33 C891.837,501.509 890.701,502.1 889.628,503.101 C888.376,504.282 887.75,505.695 887.75,507.34 C887.75,509.272 888.555,510.864 890.165,512.116 C891.631,513.261 893.349,513.833 895.316,513.833 C897.248,513.833 898.831,513.216 900.065,511.982 C901.299,510.748 902.005,509.165 902.184,507.233"/>
<path class="Lyrics" d="M495.073,484.213 L495.073,484.535 C495.073,486.968 494.08,489.087 492.095,490.894 C490.109,492.7 487.525,493.604 484.341,493.604 C481.372,493.604 478.779,492.852 476.561,491.35 C473.985,489.597 472.697,487.308 472.697,484.482 C472.697,481.012 474.325,478.382 477.58,476.594 C478.653,476.021 480.281,475.467 482.463,474.93 C482.642,474.752 482.731,474.537 482.731,474.287 C482.731,474.108 482.678,473.875 482.57,473.589 C482.463,473.303 482.409,473.124 482.409,473.052 L482.785,472.838 C483.357,472.838 483.939,473.052 484.529,473.482 C485.119,473.911 485.414,474.394 485.414,474.93 C487.561,475.503 489.17,476.075 490.244,476.648 C493.463,478.436 495.073,480.958 495.073,484.213 M507.629,471.55 L507.414,505.569 C507.414,509.504 507.226,512.518 506.851,514.611 C506.475,516.704 505.93,517.75 505.214,517.75 C504.642,517.75 504.293,516.882 504.168,515.148 C504.043,513.413 503.98,511.955 503.98,510.774 L503.926,471.389 C503.926,470.96 502.952,470.307 501.002,469.43 C499.053,468.554 498.078,468.026 498.078,467.848 C498.078,467.526 498.355,467.284 498.909,467.123 C499.464,466.962 499.938,466.882 500.331,466.882 C501.691,466.882 503.139,467.114 504.678,467.579 C506.753,468.223 507.79,469.028 507.79,469.994 L507.629,471.55 M505.966,496.233 C505.966,496.698 504.374,497.413 501.19,498.379 C498.936,499.059 496.987,499.631 495.341,500.096 C492.766,500.812 489.904,501.474 486.756,502.082 C484.431,502.547 482.07,502.958 479.673,503.316 C478.635,503.459 477.616,503.602 476.614,503.745 C475.72,504.067 474.844,504.371 473.985,504.657 C473.341,504.657 472.026,504.174 470.041,503.208 C468.056,502.243 467.063,501.527 467.063,501.062 C467.063,500.812 467.26,500.687 467.653,500.687 C467.796,500.687 468.405,500.74 469.478,500.848 C470.551,500.955 471.553,501.008 472.483,501.008 C475.631,501.008 478.635,500.839 481.497,500.499 C484.359,500.159 487.757,499.631 491.692,498.916 C493.982,498.487 497.04,497.861 500.868,497.038 C503.658,496.43 505.268,496.126 505.697,496.126 L505.966,496.233 M485.092,476.379 C485.021,476.665 483.536,477.363 480.639,478.472 C477.741,479.581 476.292,481.638 476.292,484.643 C476.292,486.503 477.187,488.041 478.975,489.257 C480.549,490.33 482.302,490.867 484.234,490.867 C486.809,490.867 488.848,490.098 490.351,488.56 C491.567,487.308 492.175,485.93 492.175,484.428 C492.175,481.888 490.995,479.778 488.634,478.096 C487.847,477.56 486.666,476.987 485.092,476.379"/>
<path class="Lyrics" d="M1043.14,475.843 L1042.93,502.779 C1042.93,505.212 1042.84,507.09 1042.66,508.413 C1042.3,510.989 1041.68,512.277 1040.78,512.277 C1040.42,512.277 1040.18,511.66 1040.06,510.426 C1039.93,509.191 1039.87,507.805 1039.87,506.267 L1039.82,491.189 L1033.48,491.35 C1032.98,493.031 1032.45,494.283 1031.87,495.106 C1030.12,497.646 1027.62,498.916 1024.36,498.916 L1023.77,498.916 C1020.77,498.916 1018.22,497.923 1016.13,495.938 C1014.03,493.952 1012.99,491.672 1012.99,489.096 L1012.99,488.721 C1012.99,485.358 1014.63,482.89 1017.92,481.316 C1019,480.815 1020.66,480.368 1022.91,479.974 C1023.13,479.76 1023.23,479.545 1023.23,479.33 C1023.23,479.187 1023.2,479.026 1023.13,478.848 C1022.95,478.418 1022.86,478.186 1022.86,478.15 C1022.86,477.935 1023.07,477.828 1023.5,477.828 C1024.15,477.828 1024.71,478.034 1025.19,478.445 C1025.68,478.856 1025.92,479.366 1025.92,479.974 L1025.92,480.35 C1026.81,480.529 1027.53,480.726 1028.06,480.94 C1029.71,481.656 1031.09,482.8 1032.2,484.374 C1032.7,485.161 1033.09,486.217 1033.38,487.54 C1033.45,487.969 1033.54,488.578 1033.64,489.365 L1039.76,489.204 L1039.76,475.199 C1039.76,474.769 1039.17,474.224 1037.99,473.562 C1036.81,472.9 1035.61,472.212 1034.4,471.496 C1034.4,471.246 1034.57,471.049 1034.91,470.906 C1035.25,470.763 1035.65,470.691 1036.11,470.691 C1036.65,470.691 1037.65,470.906 1039.12,471.335 C1039.8,471.55 1040.83,471.872 1042.23,472.301 C1042.66,472.444 1042.95,472.632 1043.12,472.865 C1043.28,473.097 1043.36,473.428 1043.36,473.857 C1043.36,474.072 1043.32,474.412 1043.25,474.877 C1043.18,475.342 1043.14,475.664 1043.14,475.843 M1052.64,472.087 L1052.37,508.521 C1052.37,511.526 1052.17,513.94 1051.78,515.765 C1051.39,517.589 1050.8,518.501 1050.01,518.501 C1049.69,518.501 1049.46,517.956 1049.34,516.865 C1049.21,515.774 1049.15,514.495 1049.15,513.028 L1049.1,471.979 C1049.1,471.443 1048.13,470.691 1046.2,469.726 C1044.27,468.76 1043.3,468.187 1043.3,468.008 C1043.3,467.651 1043.58,467.409 1044.13,467.284 C1044.69,467.159 1045.09,467.096 1045.34,467.096 C1046.56,467.096 1047.99,467.365 1049.63,467.901 C1051.75,468.581 1052.8,469.386 1052.8,470.316 L1052.64,472.087 M1031.02,488.828 C1031.02,486.503 1030.12,484.625 1028.33,483.194 C1027.76,482.729 1026.85,482.228 1025.6,481.691 C1025.27,482.049 1024.91,482.344 1024.5,482.577 C1024.08,482.809 1023.66,482.926 1023.23,482.926 C1021.52,482.926 1019.95,483.561 1018.54,484.83 C1017.13,486.1 1016.42,487.63 1016.42,489.418 C1016.42,491.278 1017.14,492.843 1018.59,494.113 C1020.04,495.383 1021.86,496.018 1024.04,496.018 C1026.01,496.018 1027.66,495.365 1029,494.06 C1030.34,492.754 1031.02,491.153 1031.02,489.257 L1031.02,488.828 "/>
<path class="Lyrics" d="M1160.39,962.507 L1160.45,959.824 L1160.34,954.941 L1149.88,955.693 L1150.36,969.59 L1160.07,968.839 C1160.11,968.624 1160.13,968.41 1160.13,968.195 C1160.31,966.514 1160.39,964.618 1160.39,962.507 M1187.65,987.727 C1187.65,988.478 1187.29,988.988 1186.55,989.256 C1185.82,989.524 1184.77,989.658 1183.41,989.658 L1177.62,989.605 C1175.76,989.605 1173.17,989.667 1169.84,989.793 C1166.51,989.918 1164.38,989.98 1163.45,989.98 C1161.81,989.98 1160.57,989.623 1159.75,988.907 C1158.93,988.192 1158.52,987.047 1158.52,985.473 L1158.3,980.214 C1158.3,979.642 1157.37,979.177 1155.51,978.819 C1153.65,978.462 1152.72,978.122 1152.72,977.8 C1152.72,977.299 1153.24,976.977 1154.28,976.834 C1155.31,976.691 1156.33,976.619 1157.34,976.619 L1159.05,976.566 C1160.05,976.566 1160.82,976.7 1161.36,976.968 C1161.9,977.236 1162.17,977.818 1162.17,978.712 L1162.11,986.385 C1162.11,986.993 1162.16,987.441 1162.25,987.727 C1162.34,988.013 1162.81,988.156 1163.67,988.156 L1177.51,987.834 C1177.87,987.834 1178.41,987.655 1179.15,987.297 C1179.88,986.94 1180.66,986.564 1181.48,986.171 L1183.95,986.063 C1185.06,986.063 1185.95,986.18 1186.63,986.412 C1187.31,986.645 1187.65,987.083 1187.65,987.727 M1163.51,961.112 L1165.55,961.166 C1167.01,961.166 1168.46,961.076 1169.89,960.897 C1170.14,960.897 1170.45,960.844 1170.8,960.736 L1170.75,949.683 C1170.75,949.146 1170.17,948.574 1169.01,947.966 C1167.84,947.358 1166.65,946.732 1165.44,946.088 C1165.44,945.873 1165.6,945.676 1165.92,945.497 C1166.24,945.319 1166.67,945.229 1167.21,945.229 C1168.35,945.229 1169.85,945.471 1171.69,945.954 C1173.53,946.436 1174.45,947.036 1174.45,947.751 C1174.45,948.037 1174.43,948.323 1174.37,948.61 C1174.32,948.896 1174.26,949.218 1174.18,949.575 L1174.18,973.454 C1174.18,974.992 1174,976.324 1173.62,977.451 C1173.25,978.578 1172.74,979.141 1172.09,979.141 C1171.81,979.141 1171.56,978.605 1171.37,977.532 C1171.17,976.458 1171.07,975.242 1171.07,973.883 L1171.02,962.775 L1164.96,962.936 C1164.53,963.044 1164.15,963.097 1163.83,963.097 C1163.51,963.062 1163.31,963.026 1163.24,962.99 L1162.27,968.195 C1162.88,968.231 1163.33,968.284 1163.61,968.356 C1164.51,968.571 1164.96,968.928 1164.96,969.429 C1164.96,969.93 1164.69,970.252 1164.15,970.395 C1163.61,970.538 1162.97,970.61 1162.22,970.61 L1160.23,970.61 L1150.09,971.146 C1150.09,971.862 1149.92,972.523 1149.58,973.132 C1149.24,973.74 1148.84,974.044 1148.38,974.044 C1148.02,974.044 1147.74,973.561 1147.54,972.595 C1147.35,971.629 1147.25,970.878 1147.25,970.341 L1146.18,956.98 C1146.18,956.515 1145.69,956.068 1144.73,955.639 C1142.62,954.709 1141.56,954.226 1141.56,954.19 C1141.56,953.832 1141.94,953.582 1142.71,953.439 C1143.48,953.296 1144.17,953.224 1144.78,953.224 C1145.32,953.224 1146,953.296 1146.82,953.439 C1148.64,953.761 1149.68,953.922 1149.93,953.922 C1151.29,953.922 1153.11,953.859 1155.4,953.734 C1157.69,953.609 1158.99,953.475 1159.29,953.332 C1159.6,953.188 1159.84,953.063 1160.02,952.956 C1160.45,952.706 1160.73,952.58 1160.88,952.58 C1161.34,952.58 1162.13,952.768 1163.24,953.144 C1164.35,953.519 1164.9,953.868 1164.9,954.19 C1164.9,954.369 1164.8,954.646 1164.61,955.022 C1164.41,955.397 1164.29,955.675 1164.26,955.854 C1164.22,955.889 1164.11,956.641 1163.91,958.107 C1163.71,959.574 1163.58,960.575 1163.51,961.112 M1183.52,947.054 L1183.25,974.795 C1183.25,976.727 1183.07,978.319 1182.72,979.571 C1182.36,980.823 1181.79,981.449 1181,981.449 C1180.64,981.449 1180.4,980.832 1180.28,979.597 C1180.15,978.363 1180.09,977.317 1180.09,976.458 L1179.93,947.107 C1179.93,946.642 1179.26,946.025 1177.91,945.256 C1176.57,944.487 1175.2,943.691 1173.81,942.868 C1173.81,942.618 1174.02,942.412 1174.45,942.251 C1174.88,942.09 1175.24,942.01 1175.53,942.01 C1176.71,942.01 1178.37,942.358 1180.52,943.056 C1182.66,943.754 1183.74,944.496 1183.74,945.283 C1183.74,945.462 1183.7,945.793 1183.63,946.275 C1183.56,946.758 1183.52,947.018 1183.52,947.054"/>
<path class="Lyrics" d="M675.131,475.95 C674.415,479.599 673.575,482.648 672.609,485.099 C671.643,487.549 670.767,488.774 669.98,488.774 C669.765,488.774 669.658,488.578 669.658,488.184 C669.658,487.755 669.774,486.95 670.006,485.769 C670.239,484.589 670.462,483.4 670.677,482.201 C670.892,481.003 671.071,479.491 671.214,477.667 C671.249,477.095 671.303,476.343 671.375,475.413 C669.908,475.413 668.245,475.503 666.384,475.682 C661.913,476.111 659.105,476.326 657.96,476.326 C657.817,476.326 657.486,476.415 656.967,476.594 C656.449,476.773 656.046,476.862 655.76,476.862 C655.188,476.862 654.177,476.522 652.728,475.843 C651.28,475.163 650.555,474.608 650.555,474.179 C650.555,473.929 650.859,473.804 651.467,473.804 C651.897,473.804 652.737,473.848 653.989,473.938 C655.241,474.027 656.1,474.072 656.565,474.072 L664.775,474.018 C666.206,474.018 667.279,473.982 667.994,473.911 C668.71,473.839 669.282,473.768 669.711,473.696 C669.962,473.696 670.337,473.553 670.838,473.267 C671.339,472.981 671.697,472.838 671.911,472.838 C672.376,472.838 673.181,473.034 674.326,473.428 C675.471,473.821 676.043,474.197 676.043,474.555 C676.043,474.734 675.891,474.984 675.587,475.306 C675.283,475.628 675.131,475.843 675.131,475.95 M696.648,487.272 L696.648,487.487 C696.648,488.202 696.236,488.667 695.414,488.882 C694.984,488.989 694.466,489.043 693.858,489.043 L685.487,489.311 L685.487,491.565 C685.487,492.96 685.326,494.373 685.004,495.804 C684.575,497.735 683.984,498.701 683.233,498.701 C682.875,498.701 682.625,498.147 682.482,497.038 C682.339,495.929 682.267,494.355 682.267,492.316 L682.214,489.096 C680.175,489.848 678.297,490.474 676.58,490.974 C673.181,492.012 670.051,492.888 667.189,493.604 L656.028,496.394 C655.885,496.43 655.742,496.501 655.599,496.608 C655.17,496.895 654.794,497.038 654.472,497.038 C653.721,497.038 652.362,496.546 650.394,495.562 C648.427,494.578 647.443,493.836 647.443,493.335 C647.443,493.085 647.604,492.96 647.926,492.96 C648.248,492.96 648.659,492.995 649.16,493.067 C650.841,493.317 652.04,493.443 652.755,493.443 C653.184,493.443 654.544,493.282 656.833,492.96 C657.584,492.852 658.693,492.691 660.16,492.477 L660.106,484.535 C660.106,484.249 659.731,483.945 658.98,483.623 C657.262,482.908 656.404,482.478 656.404,482.335 C656.404,482.156 656.538,481.987 656.806,481.826 C657.075,481.665 657.406,481.584 657.799,481.584 L659.945,481.53 C661.126,481.53 662.092,481.638 662.843,481.852 C663.594,482.067 663.97,482.461 663.97,483.033 L663.809,484.267 L663.594,491.887 C664.56,491.887 667.762,491.314 673.199,490.169 C678.636,489.025 681.641,488.291 682.214,487.969 L682.16,471.389 C682.16,470.781 681.096,470.048 678.967,469.189 C676.839,468.33 675.775,467.794 675.775,467.579 C675.775,467.329 675.945,467.105 676.284,466.908 C676.624,466.712 677.027,466.613 677.492,466.613 C678.923,466.613 680.497,466.81 682.214,467.204 C684.646,467.776 685.862,468.527 685.862,469.457 C685.862,469.6 685.827,469.833 685.755,470.155 C685.684,470.477 685.648,470.691 685.648,470.799 L685.594,487.594 L688.599,487.379 C688.778,487.379 689.44,487.075 690.584,486.467 C691.193,486.145 691.854,485.984 692.57,485.984 C693.715,485.984 694.671,486.074 695.441,486.252 C696.21,486.431 696.612,486.771 696.648,487.272 M685.111,508.145 C685.111,510.256 684.271,512.098 682.589,513.672 C680.693,515.425 678.207,516.301 675.131,516.301 C672.448,516.301 670.069,515.496 667.994,513.887 C665.705,512.134 664.56,509.952 664.56,507.34 C664.56,504.049 666.134,501.599 669.282,499.989 C670.319,499.452 671.911,498.969 674.058,498.54 C674.093,498.504 674.129,498.361 674.165,498.111 L673.95,496.877 C673.95,496.769 674.004,496.68 674.111,496.608 C674.147,496.608 674.201,496.591 674.272,496.555 C674.809,496.555 675.363,496.769 675.936,497.199 C676.508,497.628 676.794,498.111 676.794,498.648 C678.654,499.113 680.049,499.613 680.98,500.15 C683.77,501.795 685.165,504.192 685.165,507.34 L685.111,508.145 M682.428,507.233 L682.428,506.589 C682.428,504.407 681.462,502.654 679.531,501.33 C678.887,500.901 677.921,500.454 676.633,499.989 C676.526,500.275 676.311,500.49 675.989,500.633 C675.381,500.919 674.478,501.152 673.28,501.33 C672.081,501.509 670.945,502.1 669.872,503.101 C668.62,504.282 667.994,505.695 667.994,507.34 C667.994,509.272 668.799,510.864 670.409,512.116 C671.875,513.261 673.593,513.833 675.56,513.833 C677.492,513.833 679.075,513.216 680.309,511.982 C681.543,510.748 682.249,509.165 682.428,507.233"/>
<path class="Lyrics" d="M567.961,483.408 L567.961,483.891 C567.961,486.717 566.852,488.971 564.634,490.652 C562.595,492.191 560.126,492.96 557.229,492.96 C554.331,492.96 551.756,492.083 549.502,490.33 C547.069,488.434 545.853,486.145 545.853,483.462 L545.907,482.765 C546.229,479.33 548,476.916 551.219,475.521 C552.256,475.056 553.83,474.698 555.941,474.448 C556.013,474.376 556.084,474.215 556.156,473.965 C556.156,473.786 556.12,473.607 556.048,473.428 C555.869,472.927 555.78,472.659 555.78,472.623 C555.78,472.444 555.941,472.355 556.263,472.355 C556.835,472.355 557.452,472.596 558.114,473.079 C558.776,473.562 559.107,474.09 559.107,474.662 C561.074,475.199 562.541,475.735 563.507,476.272 C566.476,477.989 567.961,480.368 567.961,483.408 M584.004,471.55 L583.843,491.35 C583.843,493.568 583.638,495.455 583.226,497.011 C582.815,498.567 582.269,499.345 581.59,499.345 C581.268,499.345 581.026,498.871 580.865,497.923 C580.704,496.975 580.624,495.965 580.624,494.891 L580.57,490.062 L574.453,490.545 C574.167,490.545 573.845,490.626 573.487,490.787 C573.13,490.948 572.843,491.028 572.629,491.028 C572.056,491.028 571.18,490.778 570,490.277 C568.819,489.776 568.229,489.329 568.229,488.935 C568.229,488.721 568.426,488.613 568.819,488.613 L571.985,488.667 L580.57,488.399 L580.517,479.223 C579.551,479.223 578.621,479.232 577.726,479.25 C576.832,479.268 575.866,479.366 574.829,479.545 C574.578,479.545 574.158,479.643 573.568,479.84 C572.978,480.037 572.557,480.135 572.307,480.135 C571.842,480.135 571.028,479.831 569.865,479.223 C568.703,478.615 568.122,478.15 568.122,477.828 C568.122,477.613 568.3,477.506 568.658,477.506 C568.908,477.506 569.543,477.533 570.563,477.587 C571.582,477.64 572.361,477.667 572.897,477.667 C575.33,477.667 577.011,477.658 577.941,477.64 C578.871,477.622 579.712,477.578 580.463,477.506 L580.409,471.496 C580.409,471.031 579.748,470.486 578.424,469.86 C577.1,469.234 575.741,468.581 574.346,467.901 C574.346,467.579 574.605,467.338 575.124,467.177 C575.643,467.016 576.099,466.935 576.492,466.935 C576.993,466.935 578.048,467.096 579.658,467.418 C581.268,467.74 582.332,467.973 582.851,468.116 C583.369,468.259 583.709,468.482 583.87,468.787 C584.031,469.091 584.112,469.439 584.112,469.833 L584.004,471.55 M583.146,507.072 L583.146,507.34 C583.146,509.952 582.046,512.107 579.846,513.806 C577.646,515.505 575.061,516.355 572.092,516.355 C568.98,516.355 566.297,515.407 564.043,513.511 C561.79,511.615 560.663,509.379 560.663,506.804 L560.717,506.106 C560.967,502.922 562.666,500.615 565.814,499.184 C566.852,498.719 568.408,498.308 570.482,497.95 C570.554,497.878 570.626,497.717 570.697,497.467 C570.697,497.36 570.643,497.181 570.536,496.93 C570.429,496.68 570.375,496.501 570.375,496.394 C570.375,496.179 570.59,496.072 571.019,496.072 C571.627,496.072 572.226,496.269 572.817,496.662 C573.407,497.056 573.702,497.539 573.702,498.111 C575.741,498.111 577.905,499.059 580.195,500.955 C582.162,502.6 583.146,504.639 583.146,507.072 M565.117,483.408 C565.117,481.012 564.061,479.062 561.951,477.56 C561.271,477.059 560.216,476.54 558.785,476.004 C558.57,476.218 558.257,476.433 557.846,476.648 C557.435,476.862 556.978,477.005 556.478,477.077 C554.582,477.363 552.972,478.061 551.648,479.169 C550.11,480.421 549.341,481.96 549.341,483.784 C549.341,485.823 550.307,487.469 552.239,488.721 C553.848,489.758 555.601,490.277 557.497,490.277 C559.465,490.277 561.226,489.66 562.782,488.426 C564.339,487.191 565.117,485.608 565.117,483.677 L565.117,483.408 M580.248,507.018 L580.248,506.75 C580.248,504.639 579.122,502.815 576.868,501.277 C576.117,500.776 574.99,500.221 573.487,499.613 C573.273,499.828 572.942,500.034 572.495,500.23 C572.048,500.427 571.538,500.561 570.965,500.633 C568.783,500.919 567.129,501.626 566.002,502.752 C564.875,503.879 564.312,505.212 564.312,506.75 C564.312,508.574 564.991,510.13 566.351,511.418 C567.853,512.849 569.785,513.565 572.146,513.565 C574.256,513.565 576.081,513.01 577.619,511.901 C579.372,510.649 580.248,509.021 580.248,507.018"/>
<path class="Marker" d="M1954.05,727.873 L1952.67,727.873 C1952.31,725.433 1951.73,723.863 1950.93,723.163 C1950.13,722.463 1948.51,722.113 1946.07,722.113 L1937.37,722.113 L1937.37,734.593 C1937.37,737.033 1937.7,738.613 1938.36,739.333 C1939.02,740.053 1940.51,740.473 1942.83,740.593 L1942.83,741.733 L1926.03,741.733 L1926.03,740.593 C1928.31,740.433 1929.75,740.003 1930.35,739.303 C1930.95,738.603 1931.25,737.013 1931.25,734.533 L1931.25,708.553 C1931.25,706.433 1930.93,705.043 1930.29,704.383 C1929.65,703.723 1928.23,703.313 1926.03,703.153 L1926.03,702.013 L1957.89,702.013 L1958.07,710.593 L1956.57,710.593 C1956.05,707.913 1955.25,706.193 1954.17,705.433 C1953.09,704.673 1950.85,704.293 1947.45,704.293 L1939.29,704.293 C1938.49,704.293 1937.97,704.423 1937.73,704.683 C1937.49,704.943 1937.37,705.493 1937.37,706.333 L1937.37,719.653 L1946.07,719.653 C1948.47,719.653 1950.08,719.303 1950.9,718.603 C1951.72,717.903 1952.31,716.353 1952.67,713.953 L1954.05,713.953 L1954.05,727.873 M1962.67,718.153 C1961.79,718.153 1960.95,718.213 1960.15,718.333 L1960.15,717.433 C1962.95,716.633 1966.05,715.533 1969.45,714.133 L1969.69,714.313 L1969.69,735.613 C1969.69,737.773 1969.94,739.143 1970.44,739.723 C1970.94,740.303 1972.17,740.673 1974.13,740.833 L1974.13,741.733 L1959.91,741.733 L1959.91,740.833 C1961.99,740.713 1963.3,740.353 1963.84,739.753 C1964.38,739.153 1964.65,737.773 1964.65,735.613 L1964.65,721.693 C1964.65,720.373 1964.5,719.453 1964.2,718.933 C1963.9,718.413 1963.39,718.153 1962.67,718.153 M1966.63,700.753 C1967.51,700.753 1968.25,701.053 1968.85,701.653 C1969.45,702.253 1969.75,702.973 1969.75,703.813 C1969.75,704.693 1969.45,705.423 1968.85,706.003 C1968.25,706.583 1967.51,706.873 1966.63,706.873 C1965.79,706.873 1965.08,706.573 1964.5,705.973 C1963.92,705.373 1963.63,704.653 1963.63,703.813 C1963.63,702.973 1963.93,702.253 1964.53,701.653 C1965.13,701.053 1965.83,700.753 1966.63,700.753 M1975.63,717.853 L1975.63,716.833 C1978.59,715.953 1981.35,715.053 1983.91,714.133 L1984.33,714.253 L1984.33,718.993 C1986.37,717.073 1987.98,715.783 1989.16,715.123 C1990.34,714.463 1991.63,714.133 1993.03,714.133 C1995.23,714.133 1996.96,714.923 1998.22,716.503 C1999.48,718.083 2000.11,720.293 2000.11,723.133 L2000.11,736.873 C2000.11,738.353 2000.35,739.343 2000.83,739.843 C2001.31,740.343 2002.29,740.673 2003.77,740.833 L2003.77,741.733 L1991.29,741.733 L1991.29,740.833 C1992.81,740.713 1993.82,740.313 1994.32,739.633 C1994.82,738.953 1995.07,737.673 1995.07,735.793 L1995.07,723.253 C1995.07,719.373 1993.61,717.433 1990.69,717.433 C1989.69,717.433 1988.77,717.663 1987.93,718.123 C1987.09,718.583 1985.95,719.493 1984.51,720.853 L1984.51,737.713 C1984.51,738.793 1984.79,739.553 1985.35,739.993 C1985.91,740.433 1986.95,740.713 1988.47,740.833 L1988.47,741.733 L1975.75,741.733 L1975.75,740.833 C1977.27,740.713 1978.27,740.363 1978.75,739.783 C1979.23,739.203 1979.47,738.053 1979.47,736.333 L1979.47,721.453 C1979.47,719.973 1979.31,718.963 1978.99,718.423 C1978.67,717.883 1978.09,717.613 1977.25,717.613 C1976.49,717.613 1975.95,717.693 1975.63,717.853 M2009.59,725.113 C2009.67,727.633 2010.01,729.803 2010.61,731.623 C2011.21,733.443 2011.99,734.803 2012.95,735.703 C2013.91,736.603 2014.88,737.243 2015.86,737.623 C2016.84,738.003 2017.87,738.193 2018.95,738.193 C2020.87,738.193 2022.54,737.713 2023.96,736.753 C2025.38,735.793 2026.81,734.173 2028.25,731.893 L2029.21,732.313 C2027.97,735.553 2026.25,738.033 2024.05,739.753 C2021.85,741.473 2019.33,742.333 2016.49,742.333 C2013.05,742.333 2010.32,741.123 2008.3,738.703 C2006.28,736.283 2005.27,733.013 2005.27,728.893 C2005.27,724.453 2006.44,720.883 2008.78,718.183 C2011.12,715.483 2014.13,714.133 2017.81,714.133 C2020.85,714.133 2023.21,715.043 2024.89,716.863 C2026.57,718.683 2027.63,721.433 2028.07,725.113 L2009.59,725.113 M2009.71,723.193 L2021.95,723.193 C2021.55,720.593 2020.93,718.793 2020.09,717.793 C2019.25,716.793 2017.91,716.293 2016.07,716.293 C2012.47,716.293 2010.35,718.593 2009.71,723.193"/>
<path class="Marker" d="M1954.05,673.81 L1952.67,673.81 C1952.31,671.37 1951.73,669.8 1950.93,669.1 C1950.13,668.4 1948.51,668.05 1946.07,668.05 L1937.37,668.05 L1937.37,680.53 C1937.37,682.97 1937.7,684.55 1938.36,685.27 C1939.02,685.99 1940.51,686.41 1942.83,686.53 L1942.83,687.67 L1926.03,687.67 L1926.03,686.53 C1928.31,686.37 1929.75,685.94 1930.35,685.24 C1930.95,684.54 1931.25,682.95 1931.25,680.47 L1931.25,654.49 C1931.25,652.37 1930.93,650.98 1930.29,650.32 C1929.65,649.66 1928.23,649.25 1926.03,649.09 L1926.03,647.95 L1957.89,647.95 L1958.07,656.53 L1956.57,656.53 C1956.05,653.85 1955.25,652.13 1954.17,651.37 C1953.09,650.61 1950.85,650.23 1947.45,650.23 L1939.29,650.23 C1938.49,650.23 1937.97,650.36 1937.73,650.62 C1937.49,650.88 1937.37,651.43 1937.37,652.27 L1937.37,665.59 L1946.07,665.59 C1948.47,665.59 1950.08,665.24 1950.9,664.54 C1951.72,663.84 1952.31,662.29 1952.67,659.89 L1954.05,659.89 L1954.05,673.81 M1962.67,664.09 C1961.79,664.09 1960.95,664.15 1960.15,664.27 L1960.15,663.37 C1962.95,662.57 1966.05,661.47 1969.45,660.07 L1969.69,660.25 L1969.69,681.55 C1969.69,683.71 1969.94,685.08 1970.44,685.66 C1970.94,686.24 1972.17,686.61 1974.13,686.77 L1974.13,687.67 L1959.91,687.67 L1959.91,686.77 C1961.99,686.65 1963.3,686.29 1963.84,685.69 C1964.38,685.09 1964.65,683.71 1964.65,681.55 L1964.65,667.63 C1964.65,666.31 1964.5,665.39 1964.2,664.87 C1963.9,664.35 1963.39,664.09 1962.67,664.09 M1966.63,646.69 C1967.51,646.69 1968.25,646.99 1968.85,647.59 C1969.45,648.19 1969.75,648.91 1969.75,649.75 C1969.75,650.63 1969.45,651.36 1968.85,651.94 C1968.25,652.52 1967.51,652.81 1966.63,652.81 C1965.79,652.81 1965.08,652.51 1964.5,651.91 C1963.92,651.31 1963.63,650.59 1963.63,649.75 C1963.63,648.91 1963.93,648.19 1964.53,647.59 C1965.13,646.99 1965.83,646.69 1966.63,646.69 M1975.63,663.79 L1975.63,662.77 C1978.59,661.89 1981.35,660.99 1983.91,660.07 L1984.33,660.19 L1984.33,664.93 C1986.37,663.01 1987.98,661.72 1989.16,661.06 C1990.34,660.4 1991.63,660.07 1993.03,660.07 C1995.23,660.07 1996.96,660.86 1998.22,662.44 C1999.48,664.02 2000.11,666.23 2000.11,669.07 L2000.11,682.81 C2000.11,684.29 2000.35,685.28 2000.83,685.78 C2001.31,686.28 2002.29,686.61 2003.77,686.77 L2003.77,687.67 L1991.29,687.67 L1991.29,686.77 C1992.81,686.65 1993.82,686.25 1994.32,685.57 C1994.82,684.89 1995.07,683.61 1995.07,681.73 L1995.07,669.19 C1995.07,665.31 1993.61,663.37 1990.69,663.37 C1989.69,663.37 1988.77,663.6 1987.93,664.06 C1987.09,664.52 1985.95,665.43 1984.51,666.79 L1984.51,683.65 C1984.51,684.73 1984.79,685.49 1985.35,685.93 C1985.91,686.37 1986.95,686.65 1988.47,686.77 L1988.47,687.67 L1975.75,687.67 L1975.75,686.77 C1977.27,686.65 1978.27,686.3 1978.75,685.72 C1979.23,685.14 1979.47,683.99 1979.47,682.27 L1979.47,667.39 C1979.47,665.91 1979.31,664.9 1978.99,664.36 C1978.67,663.82 1978.09,663.55 1977.25,663.55 C1976.49,663.55 1975.95,663.63 1975.63,663.79 M2009.59,671.05 C2009.67,673.57 2010.01,675.74 2010.61,677.56 C2011.21,679.38 2011.99,680.74 2012.95,681.64 C2013.91,682.54 2014.88,683.18 2015.86,683.56 C2016.84,683.94 2017.87,684.13 2018.95,684.13 C2020.87,684.13 2022.54,683.65 2023.96,682.69 C2025.38,681.73 2026.81,680.11 2028.25,677.83 L2029.21,678.25 C2027.97,681.49 2026.25,683.97 2024.05,685.69 C2021.85,687.41 2019.33,688.27 2016.49,688.27 C2013.05,688.27 2010.32,687.06 2008.3,684.64 C2006.28,682.22 2005.27,678.95 2005.27,674.83 C2005.27,670.39 2006.44,666.82 2008.78,664.12 C2011.12,661.42 2014.13,660.07 2017.81,660.07 C2020.85,660.07 2023.21,660.98 2024.89,662.8 C2026.57,664.62 2027.63,667.37 2028.07,671.05 L2009.59,671.05 M2009.71,669.13 L2021.95,669.13 C2021.55,666.53 2020.93,664.73 2020.09,663.73 C2019.25,662.73 2017.91,662.23 2016.07,662.23 C2012.47,662.23 2010.35,664.53 2009.71,669.13"/>
<path class="Marker" d="M1954.05,619.748 L1952.67,619.748 C1952.31,617.308 1951.73,615.738 1950.93,615.038 C1950.13,614.338 1948.51,613.988 1946.07,613.988 L1937.37,613.988 L1937.37,626.468 C1937.37,628.908 1937.7,630.488 1938.36,631.208 C1939.02,631.928 1940.51,632.348 1942.83,632.468 L1942.83,633.608 L1926.03,633.608 L1926.03,632.468 C1928.31,632.308 1929.75,631.878 1930.35,631.178 C1930.95,630.478 1931.25,628.888 1931.25,626.408 L1931.25,600.428 C1931.25,598.308 1930.93,596.918 1930.29,596.258 C1929.65,595.598 1928.23,595.188 1926.03,595.028 L1926.03,593.888 L1957.89,593.888 L1958.07,602.468 L1956.57,602.468 C1956.05,599.788 1955.25,598.068 1954.17,597.308 C1953.09,596.548 1950.85,596.168 1947.45,596.168 L1939.29,596.168 C1938.49,596.168 1937.97,596.298 1937.73,596.558 C1937.49,596.818 1937.37,597.368 1937.37,598.208 L1937.37,611.528 L1946.07,611.528 C1948.47,611.528 1950.08,611.178 1950.9,610.478 C1951.72,609.778 1952.31,608.228 1952.67,605.828 L1954.05,605.828 L1954.05,619.748 M1962.67,610.028 C1961.79,610.028 1960.95,610.088 1960.15,610.208 L1960.15,609.308 C1962.95,608.508 1966.05,607.408 1969.45,606.008 L1969.69,606.188 L1969.69,627.488 C1969.69,629.648 1969.94,631.018 1970.44,631.598 C1970.94,632.178 1972.17,632.548 1974.13,632.708 L1974.13,633.608 L1959.91,633.608 L1959.91,632.708 C1961.99,632.588 1963.3,632.228 1963.84,631.628 C1964.38,631.028 1964.65,629.648 1964.65,627.488 L1964.65,613.568 C1964.65,612.248 1964.5,611.328 1964.2,610.808 C1963.9,610.288 1963.39,610.028 1962.67,610.028 M1966.63,592.628 C1967.51,592.628 1968.25,592.928 1968.85,593.528 C1969.45,594.128 1969.75,594.848 1969.75,595.688 C1969.75,596.568 1969.45,597.298 1968.85,597.878 C1968.25,598.458 1967.51,598.748 1966.63,598.748 C1965.79,598.748 1965.08,598.448 1964.5,597.848 C1963.92,597.248 1963.63,596.528 1963.63,595.688 C1963.63,594.848 1963.93,594.128 1964.53,593.528 C1965.13,592.928 1965.83,592.628 1966.63,592.628 M1975.63,609.728 L1975.63,608.708 C1978.59,607.828 1981.35,606.928 1983.91,606.008 L1984.33,606.128 L1984.33,610.868 C1986.37,608.948 1987.98,607.658 1989.16,606.998 C1990.34,606.338 1991.63,606.008 1993.03,606.008 C1995.23,606.008 1996.96,606.798 1998.22,608.378 C1999.48,609.958 2000.11,612.168 2000.11,615.008 L2000.11,628.748 C2000.11,630.228 2000.35,631.218 2000.83,631.718 C2001.31,632.218 2002.29,632.548 2003.77,632.708 L2003.77,633.608 L1991.29,633.608 L1991.29,632.708 C1992.81,632.588 1993.82,632.188 1994.32,631.508 C1994.82,630.828 1995.07,629.548 1995.07,627.668 L1995.07,615.128 C1995.07,611.248 1993.61,609.308 1990.69,609.308 C1989.69,609.308 1988.77,609.538 1987.93,609.998 C1987.09,610.458 1985.95,611.368 1984.51,612.728 L1984.51,629.588 C1984.51,630.668 1984.79,631.428 1985.35,631.868 C1985.91,632.308 1986.95,632.588 1988.47,632.708 L1988.47,633.608 L1975.75,633.608 L1975.75,632.708 C1977.27,632.588 1978.27,632.238 1978.75,631.658 C1979.23,631.078 1979.47,629.928 1979.47,628.208 L1979.47,613.328 C1979.47,611.848 1979.31,610.838 1978.99,610.298 C1978.67,609.758 1978.09,609.488 1977.25,609.488 C1976.49,609.488 1975.95,609.568 1975.63,609.728 M2009.59,616.988 C2009.67,619.508 2010.01,621.678 2010.61,623.498 C2011.21,625.318 2011.99,626.678 2012.95,627.578 C2013.91,628.478 2014.88,629.118 2015.86,629.498 C2016.84,629.878 2017.87,630.068 2018.95,630.068 C2020.87,630.068 2022.54,629.588 2023.96,628.628 C2025.38,627.668 2026.81,626.048 2028.25,623.768 L2029.21,624.188 C2027.97,627.428 2026.25,629.908 2024.05,631.628 C2021.85,633.348 2019.33,634.208 2016.49,634.208 C2013.05,634.208 2010.32,632.998 2008.3,630.578 C2006.28,628.158 2005.27,624.888 2005.27,620.768 C2005.27,616.328 2006.44,612.758 2008.78,610.058 C2011.12,607.358 2014.13,606.008 2017.81,606.008 C2020.85,606.008 2023.21,606.918 2024.89,608.738 C2026.57,610.558 2027.63,613.308 2028.07,616.988 L2009.59,616.988 M2009.71,615.068 L2021.95,615.068 C2021.55,612.468 2020.93,610.668 2020.09,609.668 C2019.25,608.668 2017.91,608.168 2016.07,608.168 C2012.47,608.168 2010.35,610.468 2009.71,615.068"/>
<path class="NoteDot" d="M1635.68,354.232 C1635.68,357.032 1637.88,359.232 1640.68,359.232 C1643.48,359.232 1645.68,357.032 1645.68,354.232 C1645.68,351.432 1643.48,349.232 1640.68,349.232 C1637.88,349.232 1635.68,351.432 1635.68,354.232"/>
<path class="NoteDot" d="M305.533,829.233 C305.533,832.033 307.733,834.233 310.533,834.233 C313.333,834.233 315.533,832.033 315.533,829.233 C315.533,826.433 313.333,824.233 310.533,824.233 C307.733,824.233 305.533,826.433 305.533,829.233"/>
<path class="NoteDot" d="M1189.59,829.233 C1189.59,832.033 1191.79,834.233 1194.59,834.233 C1197.39,834.233 1199.59,832.033 1199.59,829.233 C1199.59,826.433 1197.39,824.233 1194.59,824.233 C1191.79,824.233 1189.59,826.433 1189.59,829.233"/>
</svg>
