<?xml version="1.0" encoding="UTF-8" standalone="no"?>
<svg width="2098.8px" height="1418.4px" viewBox="0 0 2098.8 1418.4"
 xmlns="http://www.w3.org/2000/svg" xmlns:xlink="http://www.w3.org/1999/xlink" version="1.2" baseProfile="tiny">
<title>529 마니피캇-수정 (2)</title>
<desc>Generated by MuseScore 4.2.1</desc>
<polyline class="StaffLines" fill="none" stroke="#000000" stroke-width="2.73" stroke-linejoin="bevel" points="68.4,278 2030.4,278"/>
<polyline class="StaffLines" fill="none" stroke="#000000" stroke-width="2.73" stroke-linejoin="bevel" points="68.4,302.8 2030.4,302.8"/>
<polyline class="StaffLines" fill="none" stroke="#000000" stroke-width="2.73" stroke-linejoin="bevel" points="68.4,327.6 2030.4,327.6"/>
<polyline class="StaffLines" fill="none" stroke="#000000" stroke-width="2.73" stroke-linejoin="bevel" points="68.4,352.4 2030.4,352.4"/>
<polyline class="StaffLines" fill="none" stroke="#000000" stroke-width="2.73" stroke-linejoin="bevel" points="68.4,377.2 2030.4,377.2"/>
<polyline class="StaffLines" fill="none" stroke="#000000" stroke-width="2.73" stroke-linejoin="bevel" points="68.4,641.6 2030.4,641.6"/>
<polyline class="StaffLines" fill="none" stroke="#000000" stroke-width="2.73" stroke-linejoin="bevel" points="68.4,666.4 2030.4,666.4"/>
<polyline class="StaffLines" fill="none" stroke="#000000" stroke-width="2.73" stroke-linejoin="bevel" points="68.4,691.2 2030.4,691.2"/>
<polyline class="StaffLines" fill="none" stroke="#000000" stroke-width="2.73" stroke-linejoin="bevel" points="68.4,716 2030.4,716"/>
<polyline class="StaffLines" fill="none" stroke="#000000" stroke-width="2.73" stroke-linejoin="bevel" points="68.4,740.8 2030.4,740.8"/>
<polyline class="StaffLines" fill="none" stroke="#000000" stroke-width="2.73" stroke-linejoin="bevel" points="68.4,1005.2 2030.4,1005.2"/>
<polyline class="StaffLines" fill="none" stroke="#000000" stroke-width="2.73" stroke-linejoin="bevel" points="68.4,1030 2030.4,1030"/>
<polyline class="StaffLines" fill="none" stroke="#000000" stroke-width="2.73" stroke-linejoin="bevel" points="68.4,1054.8 2030.4,1054.8"/>
<polyline class="StaffLines" fill="none" stroke="#000000" stroke-width="2.73" stroke-linejoin="bevel" points="68.4,1079.6 2030.4,1079.6"/>
<polyline class="StaffLines" fill="none" stroke="#000000" stroke-width="2.73" stroke-linejoin="bevel" points="68.4,1104.4 2030.4,1104.4"/>
<path class="MeasureNumber" d="M84.76,563.68 L83.6,563.68 C81.4,565.32 77.16,566.72 74.28,566.72 L73.8,568.48 L76.56,568.48 C79,568.48 79.28,568.56 79.28,569.28 C79.28,569.64 79.28,569.64 78.88,571.08 L74.6,587.08 C74.08,589.08 74.04,589.2 73.68,589.56 C73.28,589.96 72.44,590.08 70.32,590.12 L68.6,590.12 L68.4,592 L83.2,592 L83.44,590.12 L81.28,590.12 C78.68,590.12 78.12,589.92 78.12,589.04 C78.12,588.76 78.28,587.84 78.48,587.08 L84.76,563.68 M102.234,577.44 C104.114,576.84 104.874,576.52 105.834,575.88 C107.714,574.64 108.874,572.44 108.874,570.2 C108.874,566.4 105.834,563.84 101.354,563.84 C96.9944,563.84 93.3144,566.56 93.3144,569.84 C93.3144,571.48 94.3144,572.6 95.8344,572.6 C97.1544,572.6 98.1144,571.64 98.1144,570.32 C98.1144,569.64 97.9144,569.16 97.2744,568.52 C96.8744,568.16 96.7144,567.88 96.7144,567.6 C96.7144,566.64 98.7144,565.64 100.594,565.64 C103.274,565.64 104.874,567.12 104.874,569.6 C104.874,573.16 102.354,576.52 99.6744,576.52 C99.5544,576.52 99.1944,576.48 98.7544,576.44 C97.5944,576.36 97.5944,576.36 97.3544,576.36 C96.4744,576.36 95.9944,576.76 95.9944,577.48 C95.9944,578.12 96.4344,578.52 97.1544,578.52 C97.3544,578.52 97.6344,578.48 97.9544,578.44 C98.5144,578.32 99.1144,578.28 99.4744,578.28 C101.354,578.28 102.634,579.96 102.634,582.44 C102.634,586.76 100.514,590.92 95.6744,590.92 C93.4344,590.92 91.5144,589.8 91.5144,588.52 C91.5144,588.08 91.6744,587.92 92.3144,587.64 C93.4744,587.12 93.9544,586.4 93.9544,585.32 C93.9544,583.92 92.8344,582.84 91.3944,582.84 C89.6744,582.84 88.5544,584.2 88.5544,586.28 C88.5544,590.16 91.5144,592.6 96.3144,592.6 C102.354,592.6 106.954,588.56 106.954,583.2 C106.954,580.08 105.034,578.32 102.234,577.44"/>
<path class="MeasureNumber" d="M83.8544,214.72 C82.8544,219.36 80.1744,227.32 74.4544,227.32 C73.2944,227.32 72.5344,226.84 72.5344,226.12 C72.5344,225.84 72.6144,225.72 72.9344,225.24 C73.3344,224.72 73.5344,224.24 73.5344,223.68 C73.5344,222.36 72.4944,221.36 71.1344,221.36 C69.5344,221.36 68.4144,222.56 68.4144,224.32 C68.4144,227.04 70.9744,229 74.5344,229 C83.2944,229 88.8944,217.8 88.8944,210.2 C88.8944,203.96 85.8944,200.24 80.9344,200.24 C74.9744,200.24 70.5344,205.72 70.5344,211.44 C70.5344,215.24 73.4544,218.12 77.3344,218.12 C79.9744,218.12 82.0144,217.04 83.8544,214.72 M80.8944,201.92 C83.4544,201.92 85.0944,203.96 85.0944,207.16 C85.0944,212.12 82.3744,215.76 78.6944,215.76 C76.1744,215.76 74.7744,214.04 74.7744,211.04 C74.7744,207.44 76.4944,201.92 80.8944,201.92"/>
<path class="MeasureNumber" d="M84.76,927.28 L83.6,927.28 C81.4,928.92 77.16,930.32 74.28,930.32 L73.8,932.08 L76.56,932.08 C79,932.08 79.28,932.16 79.28,932.88 C79.28,933.24 79.28,933.24 78.88,934.68 L74.6,950.68 C74.08,952.68 74.04,952.8 73.68,953.16 C73.28,953.56 72.44,953.68 70.32,953.72 L68.6,953.72 L68.4,955.6 L83.2,955.6 L83.44,953.72 L81.28,953.72 C78.68,953.72 78.12,953.52 78.12,952.64 C78.12,952.36 78.28,951.44 78.48,950.68 L84.76,927.28 M111.074,927.44 C108.954,927.68 106.354,927.84 104.114,927.84 C102.994,927.84 101.714,927.8 100.274,927.72 C98.9544,927.64 97.6344,927.56 96.2744,927.48 L95.2744,927.44 L91.3944,935.88 L92.8744,936.36 L93.8344,934.76 C95.7144,931.64 96.5944,931.2 100.674,931.24 L107.434,931.24 L103.074,937.48 C97.9544,944.68 97.9544,944.68 95.9944,947.88 C94.2344,950.72 93.5144,952.48 93.5144,953.92 C93.5144,955.32 94.3944,956.2 95.7944,956.2 C97.2744,956.2 98.0344,955.48 98.5544,953.6 C100.554,946.08 101.754,943.48 107.314,934.48 L111.074,928.64 L111.074,927.44 "/>
<path class="SlurSegment" stroke="#000000" stroke-width="1.24" stroke-linecap="round" stroke-linejoin="round" fill-rule="evenodd" d="M999.195,775.52 C1019.81,789.279 1055.12,783.079 1069.82,763.12 C1056.5,790.896 1021.18,797.096 999.195,775.52"/>
<polyline class="BarLine" fill="none" stroke="#000000" stroke-width="4.46" stroke-linejoin="bevel" points="1209.57,276.636 1209.57,378.564"/>
<polyline class="BarLine" fill="none" stroke="#000000" stroke-width="4.46" stroke-linejoin="bevel" points="1538.63,1003.84 1538.63,1105.76"/>
<polyline class="BarLine" fill="none" stroke="#000000" stroke-width="4.46" stroke-linejoin="bevel" points="1155.81,1003.84 1155.81,1105.76"/>
<polyline class="BarLine" fill="none" stroke="#000000" stroke-width="4.46" stroke-linejoin="bevel" points="691.383,1003.84 691.383,1105.76"/>
<polyline class="BarLine" fill="none" stroke="#000000" stroke-width="4.46" stroke-linejoin="bevel" points="660.398,276.636 660.398,378.564"/>
<polyline class="BarLine" fill="none" stroke="#000000" stroke-width="4.46" stroke-linejoin="bevel" points="2028.17,1003.84 2028.17,1105.76"/>
<polyline class="BarLine" fill="none" stroke="#000000" stroke-width="4.46" stroke-linejoin="bevel" points="1564.45,640.236 1564.45,742.164"/>
<polyline class="BarLine" fill="none" stroke="#000000" stroke-width="4.46" stroke-linejoin="bevel" points="1172.45,640.236 1172.45,742.164"/>
<polyline class="BarLine" fill="none" stroke="#000000" stroke-width="4.46" stroke-linejoin="bevel" points="614.937,640.236 614.937,742.164"/>
<polyline class="BarLine" fill="none" stroke="#000000" stroke-width="4.46" stroke-linejoin="bevel" points="2028.17,640.236 2028.17,742.164"/>
<polyline class="BarLine" fill="none" stroke="#000000" stroke-width="4.46" stroke-linejoin="bevel" points="2028.17,276.636 2028.17,378.564"/>
<polyline class="BarLine" fill="none" stroke="#000000" stroke-width="4.46" stroke-linejoin="bevel" points="1617.94,276.636 1617.94,378.564"/>
<path class="Accidental" transform="matrix(0.992001,0,0,0.992001,989.563,1104.4)" d="M12,-15.5 C7,-15.5 4.1,-12.4 3.6,-11.8 L4,-43.9 C4,-44.7 3.4,-45.3 2.6,-45.3 L1.4,-45.3 C0.6,-45.3 0,-44.7 0,-43.9 L0.5,16.2 C0.5,17 1.1,17.6 1.9,17.6 C2.1,17.6 2.5,17.5 2.7,17.4 C11.3,13.1 20.3,4.9 20.3,-5.4 C20.3,-10.6 17.9,-15.5 12,-15.5 M3.3,12.7 L3.6,-6.8 C3.8,-7.7 5.3,-10.6 9.3,-10.6 C12.9,-10.6 13.2,-7.2 13.2,-5.1 C13.2,3.8 9.9,7.5 3.3,12.7"/>
<path class="Accidental" transform="matrix(0.992001,0,0,0.992001,235.095,1104.4)" d="M12,-15.5 C7,-15.5 4.1,-12.4 3.6,-11.8 L4,-43.9 C4,-44.7 3.4,-45.3 2.6,-45.3 L1.4,-45.3 C0.6,-45.3 0,-44.7 0,-43.9 L0.5,16.2 C0.5,17 1.1,17.6 1.9,17.6 C2.1,17.6 2.5,17.5 2.7,17.4 C11.3,13.1 20.3,4.9 20.3,-5.4 C20.3,-10.6 17.9,-15.5 12,-15.5 M3.3,12.7 L3.6,-6.8 C3.8,-7.7 5.3,-10.6 9.3,-10.6 C12.9,-10.6 13.2,-7.2 13.2,-5.1 C13.2,3.8 9.9,7.5 3.3,12.7"/>
<path class="Accidental" transform="matrix(0.992001,0,0,0.992001,1556.98,1067.2)" d="M12,-15.5 C7,-15.5 4.1,-12.4 3.6,-11.8 L4,-43.9 C4,-44.7 3.4,-45.3 2.6,-45.3 L1.4,-45.3 C0.6,-45.3 0,-44.7 0,-43.9 L0.5,16.2 C0.5,17 1.1,17.6 1.9,17.6 C2.1,17.6 2.5,17.5 2.7,17.4 C11.3,13.1 20.3,4.9 20.3,-5.4 C20.3,-10.6 17.9,-15.5 12,-15.5 M3.3,12.7 L3.6,-6.8 C3.8,-7.7 5.3,-10.6 9.3,-10.6 C12.9,-10.6 13.2,-7.2 13.2,-5.1 C13.2,3.8 9.9,7.5 3.3,12.7"/>
<path class="Accidental" transform="matrix(0.992001,0,0,0.992001,1582.8,740.8)" d="M12,-15.5 C7,-15.5 4.1,-12.4 3.6,-11.8 L4,-43.9 C4,-44.7 3.4,-45.3 2.6,-45.3 L1.4,-45.3 C0.6,-45.3 0,-44.7 0,-43.9 L0.5,16.2 C0.5,17 1.1,17.6 1.9,17.6 C2.1,17.6 2.5,17.5 2.7,17.4 C11.3,13.1 20.3,4.9 20.3,-5.4 C20.3,-10.6 17.9,-15.5 12,-15.5 M3.3,12.7 L3.6,-6.8 C3.8,-7.7 5.3,-10.6 9.3,-10.6 C12.9,-10.6 13.2,-7.2 13.2,-5.1 C13.2,3.8 9.9,7.5 3.3,12.7"/>
<path class="Accidental" transform="matrix(0.992001,0,0,0.992001,850.805,740.8)" d="M12,-15.5 C7,-15.5 4.1,-12.4 3.6,-11.8 L4,-43.9 C4,-44.7 3.4,-45.3 2.6,-45.3 L1.4,-45.3 C0.6,-45.3 0,-44.7 0,-43.9 L0.5,16.2 C0.5,17 1.1,17.6 1.9,17.6 C2.1,17.6 2.5,17.5 2.7,17.4 C11.3,13.1 20.3,4.9 20.3,-5.4 C20.3,-10.6 17.9,-15.5 12,-15.5 M3.3,12.7 L3.6,-6.8 C3.8,-7.7 5.3,-10.6 9.3,-10.6 C12.9,-10.6 13.2,-7.2 13.2,-5.1 C13.2,3.8 9.9,7.5 3.3,12.7"/>
<path class="Accidental" transform="matrix(0.992001,0,0,0.992001,904.345,377.2)" d="M12,-15.5 C7,-15.5 4.1,-12.4 3.6,-11.8 L4,-43.9 C4,-44.7 3.4,-45.3 2.6,-45.3 L1.4,-45.3 C0.6,-45.3 0,-44.7 0,-43.9 L0.5,16.2 C0.5,17 1.1,17.6 1.9,17.6 C2.1,17.6 2.5,17.5 2.7,17.4 C11.3,13.1 20.3,4.9 20.3,-5.4 C20.3,-10.6 17.9,-15.5 12,-15.5 M3.3,12.7 L3.6,-6.8 C3.8,-7.7 5.3,-10.6 9.3,-10.6 C12.9,-10.6 13.2,-7.2 13.2,-5.1 C13.2,3.8 9.9,7.5 3.3,12.7"/>
<path class="Accidental" transform="matrix(0.992001,0,0,0.992001,1636.29,340)" d="M12,-15.5 C7,-15.5 4.1,-12.4 3.6,-11.8 L4,-43.9 C4,-44.7 3.4,-45.3 2.6,-45.3 L1.4,-45.3 C0.6,-45.3 0,-44.7 0,-43.9 L0.5,16.2 C0.5,17 1.1,17.6 1.9,17.6 C2.1,17.6 2.5,17.5 2.7,17.4 C11.3,13.1 20.3,4.9 20.3,-5.4 C20.3,-10.6 17.9,-15.5 12,-15.5 M3.3,12.7 L3.6,-6.8 C3.8,-7.7 5.3,-10.6 9.3,-10.6 C12.9,-10.6 13.2,-7.2 13.2,-5.1 C13.2,3.8 9.9,7.5 3.3,12.7"/>
<polyline class="LedgerLine" fill="none" stroke="#000000" stroke-width="3.97" stroke-linejoin="bevel" points="1198.74,765.6 1247.34,765.6"/>
<polyline class="LedgerLine" fill="none" stroke="#000000" stroke-width="3.97" stroke-linejoin="bevel" points="537.669,402 586.27,402"/>
<polyline class="LedgerLine" fill="none" stroke="#000000" stroke-width="3.97" stroke-linejoin="bevel" points="1470.81,765.6 1519.41,765.6"/>
<polyline class="LedgerLine" fill="none" stroke="#000000" stroke-width="3.97" stroke-linejoin="bevel" points="521.302,765.6 569.902,765.6"/>
<polyline class="LedgerLine" fill="none" stroke="#000000" stroke-width="3.97" stroke-linejoin="bevel" points="1880.07,1129.2 1928.67,1129.2"/>
<polyline class="LedgerLine" fill="none" stroke="#000000" stroke-width="3.97" stroke-linejoin="bevel" points="1704.9,1129.2 1753.5,1129.2"/>
<polyline class="LedgerLine" fill="none" stroke="#000000" stroke-width="3.97" stroke-linejoin="bevel" points="1777.71,1129.2 1826.31,1129.2"/>
<polyline class="LedgerLine" fill="none" stroke="#000000" stroke-width="3.97" stroke-linejoin="bevel" points="1524.3,402 1572.9,402"/>
<polyline class="Stem" fill="none" stroke="#000000" stroke-width="2.48" stroke-linejoin="bevel" points="1563.48,410.432 1563.48,327.799"/>
<polyline class="Stem" fill="none" stroke="#000000" stroke-width="2.48" stroke-linejoin="bevel" points="1816.88,1125.23 1816.88,1042.4"/>
<polyline class="Stem" fill="none" stroke="#000000" stroke-width="2.48" stroke-linejoin="bevel" points="1919.25,1125.23 1919.25,1005.09"/>
<polyline class="Stem" fill="none" stroke="#000000" stroke-width="2.48" stroke-linejoin="bevel" points="1744.08,1125.23 1744.08,1042.6"/>
<polyline class="Stem" fill="none" stroke="#000000" stroke-width="2.48" stroke-linejoin="bevel" points="1168.9,373.232 1168.9,302.879"/>
<polyline class="Stem" fill="none" stroke="#000000" stroke-width="2.48" stroke-linejoin="bevel" points="1614.31,1063.23 1614.31,986.6"/>
<polyline class="Stem" fill="none" stroke="#000000" stroke-width="2.48" stroke-linejoin="bevel" points="1693.61,336.032 1693.61,259.4"/>
<polyline class="Stem" fill="none" stroke="#000000" stroke-width="2.48" stroke-linejoin="bevel" points="288.407,360.832 288.407,278"/>
<polyline class="Stem" fill="none" stroke="#000000" stroke-width="2.48" stroke-linejoin="bevel" points="1484.17,1075.63 1484.17,992.998"/>
<polyline class="Stem" fill="none" stroke="#000000" stroke-width="2.48" stroke-linejoin="bevel" points="1221.27,1075.63 1221.27,992.8"/>
<polyline class="Stem" fill="none" stroke="#000000" stroke-width="2.48" stroke-linejoin="bevel" points="1115.14,1088.03 1115.14,1011.4"/>
<polyline class="Stem" fill="none" stroke="#000000" stroke-width="2.48" stroke-linejoin="bevel" points="1907.18,323.632 1907.18,259.5"/>
<polyline class="Stem" fill="none" stroke="#000000" stroke-width="2.48" stroke-linejoin="bevel" points="1046.89,1100.43 1046.89,1011.4"/>
<polyline class="Stem" fill="none" stroke="#000000" stroke-width="2.48" stroke-linejoin="bevel" points="978.645,1088.03 978.645,1011.4"/>
<polyline class="Stem" fill="none" stroke="#000000" stroke-width="2.48" stroke-linejoin="bevel" points="756.847,1088.03 756.847,1005.2"/>
<polyline class="Stem" fill="none" stroke="#000000" stroke-width="2.48" stroke-linejoin="bevel" points="1982.05,336.032 1982.05,265.501"/>
<polyline class="Stem" fill="none" stroke="#000000" stroke-width="2.48" stroke-linejoin="bevel" points="576.846,410.432 576.846,327.6"/>
<polyline class="Stem" fill="none" stroke="#000000" stroke-width="2.48" stroke-linejoin="bevel" points="1774.42,712.032 1774.42,629.398"/>
<polyline class="Stem" fill="none" stroke="#000000" stroke-width="2.48" stroke-linejoin="bevel" points="650.71,1100.43 650.71,1030"/>
<polyline class="Stem" fill="none" stroke="#000000" stroke-width="2.48" stroke-linejoin="bevel" points="582.465,1112.83 582.465,1030"/>
<polyline class="Stem" fill="none" stroke="#000000" stroke-width="2.48" stroke-linejoin="bevel" points="1073.98,385.632 1073.98,308.921"/>
<polyline class="Stem" fill="none" stroke="#000000" stroke-width="2.48" stroke-linejoin="bevel" points="514.22,1100.43 514.22,1030"/>
<polyline class="Stem" fill="none" stroke="#000000" stroke-width="2.48" stroke-linejoin="bevel" points="292.422,1100.43 292.422,1017.6"/>
<polyline class="Stem" fill="none" stroke="#000000" stroke-width="2.48" stroke-linejoin="bevel" points="288.407,712.032 288.407,629.2"/>
<polyline class="Stem" fill="none" stroke="#000000" stroke-width="2.48" stroke-linejoin="bevel" points="725.862,348.432 725.862,265.6"/>
<polyline class="Stem" fill="none" stroke="#000000" stroke-width="2.48" stroke-linejoin="bevel" points="1950.99,749.232 1950.99,666.4"/>
<polyline class="Stem" fill="none" stroke="#000000" stroke-width="2.48" stroke-linejoin="bevel" points="1845.05,724.432 1845.05,641.6"/>
<polyline class="Stem" fill="none" stroke="#000000" stroke-width="2.48" stroke-linejoin="bevel" points="1640.13,736.832 1640.13,654"/>
<polyline class="Stem" fill="none" stroke="#000000" stroke-width="2.48" stroke-linejoin="bevel" points="868.238,360.832 868.238,278.199"/>
<polyline class="Stem" fill="none" stroke="#000000" stroke-width="2.48" stroke-linejoin="bevel" points="560.478,774.032 560.478,691.398"/>
<polyline class="Stem" fill="none" stroke="#000000" stroke-width="2.48" stroke-linejoin="bevel" points="1987.5,1063.23 1987.5,999.108"/>
<polyline class="Stem" fill="none" stroke="#000000" stroke-width="2.48" stroke-linejoin="bevel" points="1275.04,360.832 1275.04,278"/>
<polyline class="Stem" fill="none" stroke="#000000" stroke-width="2.48" stroke-linejoin="bevel" points="1509.99,761.632 1509.99,678.998"/>
<polyline class="Stem" fill="none" stroke="#000000" stroke-width="2.48" stroke-linejoin="bevel" points="1237.92,761.632 1237.92,678.8"/>
<polyline class="Stem" fill="none" stroke="#000000" stroke-width="2.48" stroke-linejoin="bevel" points="1131.78,749.232 1131.78,666.4"/>
<polyline class="Stem" fill="none" stroke="#000000" stroke-width="2.48" stroke-linejoin="bevel" points="650.649,695.366 650.649,765.6"/>
<polyline class="Stem" fill="none" stroke="#000000" stroke-width="2.48" stroke-linejoin="bevel" points="1084.7,736.832 1084.7,666.4"/>
<polyline class="Stem" fill="none" stroke="#000000" stroke-width="2.48" stroke-linejoin="bevel" points="1014.07,749.232 1014.07,666.4"/>
<polyline class="Stem" fill="none" stroke="#000000" stroke-width="2.48" stroke-linejoin="bevel" points="961.672,373.232 961.672,290.4"/>
<polyline class="Stem" fill="none" stroke="#000000" stroke-width="2.48" stroke-linejoin="bevel" points="908.132,736.832 908.132,654"/>
<polyline class="Stem" fill="none" stroke="#000000" stroke-width="2.48" stroke-linejoin="bevel" points="814.698,712.032 814.698,629.398"/>
<path class="Note" transform="matrix(0.992001,0,0,0.992001,783.706,716)" d="M0,4.2 C0,8.5 3.1,13.3 11.2,13.3 C21.6,13.3 32.5,4.8 32.5,-4 C32.5,-9.9 27.5,-13.2 21.3,-13.2 C11.6,-13.2 0,-5 0,4.2"/>
<path class="Note" transform="matrix(0.992001,0,0,0.992001,1042.99,389.6)" d="M0,4.2 C0,8.5 3.1,13.3 11.2,13.3 C21.6,13.3 32.5,4.8 32.5,-4 C32.5,-9.9 27.5,-13.2 21.3,-13.2 C11.6,-13.2 0,-5 0,4.2"/>
<path class="Note" transform="matrix(0.992001,0,0,0.992001,1951.06,340)" d="M0,4.2 C0,8.5 3.1,13.3 11.2,13.3 C21.6,13.3 32.5,4.8 32.5,-4 C32.5,-9.9 27.5,-13.2 21.3,-13.2 C11.6,-13.2 0,-5 0,4.2"/>
<path class="Note" transform="matrix(0.992001,0,0,0.992001,877.14,740.8)" d="M0,4.2 C0,8.5 3.1,13.3 11.2,13.3 C21.6,13.3 32.5,4.8 32.5,-4 C32.5,-9.9 27.5,-13.2 21.3,-13.2 C11.6,-13.2 0,-5 0,4.2"/>
<path class="Note" transform="matrix(0.992001,0,0,0.992001,725.855,1092)" d="M21.3,-13.2 C11.6,-13.2 0,-5.1 0,4.2 C0,8.5 3.1,13.3 11.2,13.3 C21.6,13.3 32.5,4.8 32.5,-4 C32.5,-9.9 27.5,-13.2 21.3,-13.2 M7.5,8.6 C4.2,8.6 3.5,5.9 3.5,5 C3.5,0.1 20.3,-8.5 25,-8.5 C27.4,-8.5 29,-7.1 29,-4.9 C29,0.1 12.1,8.6 7.5,8.6"/>
<path class="Note" transform="matrix(0.992001,0,0,0.992001,1956.5,1067.2)" d="M0,4.2 C0,8.5 3.1,13.3 11.2,13.3 C21.6,13.3 32.5,4.8 32.5,-4 C32.5,-9.9 27.5,-13.2 21.3,-13.2 C11.6,-13.2 0,-5 0,4.2"/>
<path class="Note" transform="matrix(0.992001,0,0,0.992001,1244.05,364.8)" d="M21.3,-13.2 C11.6,-13.2 0,-5.1 0,4.2 C0,8.5 3.1,13.3 11.2,13.3 C21.6,13.3 32.5,4.8 32.5,-4 C32.5,-9.9 27.5,-13.2 21.3,-13.2 M7.5,8.6 C4.2,8.6 3.5,5.9 3.5,5 C3.5,0.1 20.3,-8.5 25,-8.5 C27.4,-8.5 29,-7.1 29,-4.9 C29,0.1 12.1,8.6 7.5,8.6"/>
<path class="Note" transform="matrix(0.992001,0,0,0.992001,983.079,753.2)" d="M0,4.2 C0,8.5 3.1,13.3 11.2,13.3 C21.6,13.3 32.5,4.8 32.5,-4 C32.5,-9.9 27.5,-13.2 21.3,-13.2 C11.6,-13.2 0,-5 0,4.2"/>
<path class="Note" transform="matrix(0.992001,0,0,0.992001,619.718,1104.4)" d="M0,4.2 C0,8.5 3.1,13.3 11.2,13.3 C21.6,13.3 32.5,4.8 32.5,-4 C32.5,-9.9 27.5,-13.2 21.3,-13.2 C11.6,-13.2 0,-5 0,4.2"/>
<path class="Note" transform="matrix(0.992001,0,0,0.992001,551.473,1116.8)" d="M0,4.2 C0,8.5 3.1,13.3 11.2,13.3 C21.6,13.3 32.5,4.8 32.5,-4 C32.5,-9.9 27.5,-13.2 21.3,-13.2 C11.6,-13.2 0,-5 0,4.2"/>
<path class="Note" transform="matrix(0.992001,0,0,0.992001,649.409,691.2)" d="M0,4.2 C0,8.5 3.1,13.3 11.2,13.3 C21.6,13.3 32.5,4.8 32.5,-4 C32.5,-9.9 27.5,-13.2 21.3,-13.2 C11.6,-13.2 0,-5 0,4.2"/>
<path class="Note" transform="matrix(0.992001,0,0,0.992001,1053.71,740.8)" d="M0,4.2 C0,8.5 3.1,13.3 11.2,13.3 C21.6,13.3 32.5,4.8 32.5,-4 C32.5,-9.9 27.5,-13.2 21.3,-13.2 C11.6,-13.2 0,-5 0,4.2"/>
<path class="Note" transform="matrix(0.992001,0,0,0.992001,930.68,377.2)" d="M0,4.2 C0,8.5 3.1,13.3 11.2,13.3 C21.6,13.3 32.5,4.8 32.5,-4 C32.5,-9.9 27.5,-13.2 21.3,-13.2 C11.6,-13.2 0,-5 0,4.2"/>
<path class="Note" transform="matrix(0.992001,0,0,0.992001,1100.79,753.2)" d="M0,4.2 C0,8.5 3.1,13.3 11.2,13.3 C21.6,13.3 32.5,4.8 32.5,-4 C32.5,-9.9 27.5,-13.2 21.3,-13.2 C11.6,-13.2 0,-5 0,4.2"/>
<path class="Note" transform="matrix(0.992001,0,0,0.992001,1888.26,1129.2)" d="M0,4.2 C0,8.5 3.1,13.3 11.2,13.3 C21.6,13.3 32.5,4.8 32.5,-4 C32.5,-9.9 27.5,-13.2 21.3,-13.2 C11.6,-13.2 0,-5 0,4.2"/>
<path class="Note" transform="matrix(0.992001,0,0,0.992001,1785.89,1129.2)" d="M0,4.2 C0,8.5 3.1,13.3 11.2,13.3 C21.6,13.3 32.5,4.8 32.5,-4 C32.5,-9.9 27.5,-13.2 21.3,-13.2 C11.6,-13.2 0,-5 0,4.2"/>
<path class="Note" transform="matrix(0.992001,0,0,0.992001,837.246,364.8)" d="M0,4.2 C0,8.5 3.1,13.3 11.2,13.3 C21.6,13.3 32.5,4.8 32.5,-4 C32.5,-9.9 27.5,-13.2 21.3,-13.2 C11.6,-13.2 0,-5 0,4.2"/>
<path class="Note" transform="matrix(0.992001,0,0,0.992001,947.652,1092)" d="M0,4.2 C0,8.5 3.1,13.3 11.2,13.3 C21.6,13.3 32.5,4.8 32.5,-4 C32.5,-9.9 27.5,-13.2 21.3,-13.2 C11.6,-13.2 0,-5 0,4.2"/>
<path class="Note" transform="matrix(0.992001,0,0,0.992001,483.227,1104.4)" d="M0,4.2 C0,8.5 3.1,13.3 11.2,13.3 C21.6,13.3 32.5,4.8 32.5,-4 C32.5,-9.9 27.5,-13.2 21.3,-13.2 C11.6,-13.2 0,-5 0,4.2"/>
<path class="Note" transform="matrix(0.992001,0,0,0.992001,1206.93,765.6)" d="M21.3,-13.2 C11.6,-13.2 0,-5.1 0,4.2 C0,8.5 3.1,13.3 11.2,13.3 C21.6,13.3 32.5,4.8 32.5,-4 C32.5,-9.9 27.5,-13.2 21.3,-13.2 M7.5,8.6 C4.2,8.6 3.5,5.9 3.5,5 C3.5,0.1 20.3,-8.5 25,-8.5 C27.4,-8.5 29,-7.1 29,-4.9 C29,0.1 12.1,8.6 7.5,8.6"/>
<path class="Note" transform="matrix(0.992001,0,0,0.992001,1713.09,1129.2)" d="M0,4.2 C0,8.5 3.1,13.3 11.2,13.3 C21.6,13.3 32.5,4.8 32.5,-4 C32.5,-9.9 27.5,-13.2 21.3,-13.2 C11.6,-13.2 0,-5 0,4.2"/>
<path class="Note" transform="matrix(0.992001,0,0,0.992001,1532.48,414.4)" d="M0,4.2 C0,8.5 3.1,13.3 11.2,13.3 C21.6,13.3 32.5,4.8 32.5,-4 C32.5,-9.9 27.5,-13.2 21.3,-13.2 C11.6,-13.2 0,-5 0,4.2"/>
<path class="Note" transform="matrix(0.992001,0,0,0.992001,1876.19,327.6)" d="M0,4.2 C0,8.5 3.1,13.3 11.2,13.3 C21.6,13.3 32.5,4.8 32.5,-4 C32.5,-9.9 27.5,-13.2 21.3,-13.2 C11.6,-13.2 0,-5 0,4.2"/>
<path class="Note" transform="matrix(0.992001,0,0,0.992001,545.853,414.4)" d="M0,4.2 C0,8.5 3.1,13.3 11.2,13.3 C21.6,13.3 32.5,4.8 32.5,-4 C32.5,-9.9 27.5,-13.2 21.3,-13.2 C11.6,-13.2 0,-5 0,4.2"/>
<path class="Note" transform="matrix(0.992001,0,0,0.992001,261.429,1104.4)" d="M21.3,-13.2 C11.6,-13.2 0,-5.1 0,4.2 C0,8.5 3.1,13.3 11.2,13.3 C21.6,13.3 32.5,4.8 32.5,-4 C32.5,-9.9 27.5,-13.2 21.3,-13.2 M7.5,8.6 C4.2,8.6 3.5,5.9 3.5,5 C3.5,0.1 20.3,-8.5 25,-8.5 C27.4,-8.5 29,-7.1 29,-4.9 C29,0.1 12.1,8.6 7.5,8.6"/>
<path class="Note" transform="matrix(0.992001,0,0,0.992001,529.486,778)" d="M0,4.2 C0,8.5 3.1,13.3 11.2,13.3 C21.6,13.3 32.5,4.8 32.5,-4 C32.5,-9.9 27.5,-13.2 21.3,-13.2 C11.6,-13.2 0,-5 0,4.2"/>
<path class="Note" transform="matrix(0.992001,0,0,0.992001,1479,765.6)" d="M0,4.2 C0,8.5 3.1,13.3 11.2,13.3 C21.6,13.3 32.5,4.8 32.5,-4 C32.5,-9.9 27.5,-13.2 21.3,-13.2 C11.6,-13.2 0,-5 0,4.2"/>
<path class="Note" transform="matrix(0.992001,0,0,0.992001,1015.9,1104.4)" d="M0,4.2 C0,8.5 3.1,13.3 11.2,13.3 C21.6,13.3 32.5,4.8 32.5,-4 C32.5,-9.9 27.5,-13.2 21.3,-13.2 C11.6,-13.2 0,-5 0,4.2"/>
<path class="Note" transform="matrix(0.992001,0,0,0.992001,257.415,716)" d="M21.3,-13.2 C11.6,-13.2 0,-5.1 0,4.2 C0,8.5 3.1,13.3 11.2,13.3 C21.6,13.3 32.5,4.8 32.5,-4 C32.5,-9.9 27.5,-13.2 21.3,-13.2 M7.5,8.6 C4.2,8.6 3.5,5.9 3.5,5 C3.5,0.1 20.3,-8.5 25,-8.5 C27.4,-8.5 29,-7.1 29,-4.9 C29,0.1 12.1,8.6 7.5,8.6"/>
<path class="Note" transform="matrix(0.992001,0,0,0.992001,694.87,352.4)" d="M0,4.2 C0,8.5 3.1,13.3 11.2,13.3 C21.6,13.3 32.5,4.8 32.5,-4 C32.5,-9.9 27.5,-13.2 21.3,-13.2 C11.6,-13.2 0,-5 0,4.2"/>
<path class="Note" transform="matrix(0.992001,0,0,0.992001,1084.14,1092)" d="M0,4.2 C0,8.5 3.1,13.3 11.2,13.3 C21.6,13.3 32.5,4.8 32.5,-4 C32.5,-9.9 27.5,-13.2 21.3,-13.2 C11.6,-13.2 0,-5 0,4.2"/>
<path class="Note" transform="matrix(0.992001,0,0,0.992001,1609.13,740.8)" d="M0,4.2 C0,8.5 3.1,13.3 11.2,13.3 C21.6,13.3 32.5,4.8 32.5,-4 C32.5,-9.9 27.5,-13.2 21.3,-13.2 C11.6,-13.2 0,-5 0,4.2"/>
<path class="Note" transform="matrix(0.992001,0,0,0.992001,1583.32,1067.2)" d="M0,4.2 C0,8.5 3.1,13.3 11.2,13.3 C21.6,13.3 32.5,4.8 32.5,-4 C32.5,-9.9 27.5,-13.2 21.3,-13.2 C11.6,-13.2 0,-5 0,4.2"/>
<path class="Note" transform="matrix(0.992001,0,0,0.992001,1662.62,340)" d="M21.3,-13.2 C11.6,-13.2 0,-5.1 0,4.2 C0,8.5 3.1,13.3 11.2,13.3 C21.6,13.3 32.5,4.8 32.5,-4 C32.5,-9.9 27.5,-13.2 21.3,-13.2 M7.5,8.6 C4.2,8.6 3.5,5.9 3.5,5 C3.5,0.1 20.3,-8.5 25,-8.5 C27.4,-8.5 29,-7.1 29,-4.9 C29,0.1 12.1,8.6 7.5,8.6"/>
<path class="Note" transform="matrix(0.992001,0,0,0.992001,257.415,364.8)" d="M21.3,-13.2 C11.6,-13.2 0,-5.1 0,4.2 C0,8.5 3.1,13.3 11.2,13.3 C21.6,13.3 32.5,4.8 32.5,-4 C32.5,-9.9 27.5,-13.2 21.3,-13.2 M7.5,8.6 C4.2,8.6 3.5,5.9 3.5,5 C3.5,0.1 20.3,-8.5 25,-8.5 C27.4,-8.5 29,-7.1 29,-4.9 C29,0.1 12.1,8.6 7.5,8.6"/>
<path class="Note" transform="matrix(0.992001,0,0,0.992001,1190.28,1079.6)" d="M21.3,-13.2 C11.6,-13.2 0,-5.1 0,4.2 C0,8.5 3.1,13.3 11.2,13.3 C21.6,13.3 32.5,4.8 32.5,-4 C32.5,-9.9 27.5,-13.2 21.3,-13.2 M7.5,8.6 C4.2,8.6 3.5,5.9 3.5,5 C3.5,0.1 20.3,-8.5 25,-8.5 C27.4,-8.5 29,-7.1 29,-4.9 C29,0.1 12.1,8.6 7.5,8.6"/>
<path class="Note" transform="matrix(0.992001,0,0,0.992001,1137.91,377.2)" d="M0,4.2 C0,8.5 3.1,13.3 11.2,13.3 C21.6,13.3 32.5,4.8 32.5,-4 C32.5,-9.9 27.5,-13.2 21.3,-13.2 C11.6,-13.2 0,-5 0,4.2"/>
<path class="Note" transform="matrix(0.992001,0,0,0.992001,1743.43,716)" d="M0,4.2 C0,8.5 3.1,13.3 11.2,13.3 C21.6,13.3 32.5,4.8 32.5,-4 C32.5,-9.9 27.5,-13.2 21.3,-13.2 C11.6,-13.2 0,-5 0,4.2"/>
<path class="Note" transform="matrix(0.992001,0,0,0.992001,1453.18,1079.6)" d="M0,4.2 C0,8.5 3.1,13.3 11.2,13.3 C21.6,13.3 32.5,4.8 32.5,-4 C32.5,-9.9 27.5,-13.2 21.3,-13.2 C11.6,-13.2 0,-5 0,4.2"/>
<path class="Note" transform="matrix(0.992001,0,0,0.992001,1920,753.2)" d="M0,4.2 C0,8.5 3.1,13.3 11.2,13.3 C21.6,13.3 32.5,4.8 32.5,-4 C32.5,-9.9 27.5,-13.2 21.3,-13.2 C11.6,-13.2 0,-5 0,4.2"/>
<path class="Note" transform="matrix(0.992001,0,0,0.992001,1814.06,728.4)" d="M0,4.2 C0,8.5 3.1,13.3 11.2,13.3 C21.6,13.3 32.5,4.8 32.5,-4 C32.5,-9.9 27.5,-13.2 21.3,-13.2 C11.6,-13.2 0,-5 0,4.2"/>
<path class="Clef" transform="matrix(0.992001,0,0,0.992001,87,1079.6)" d="M12.3,51.3 C12.3,57.9 17.3,66.6 30.8,66.6 C35.5,66.6 39.6,65.4 43.2,63.2 C48.6,59.4 50,52.8 50,46.5 C50,42.6 49.4,38.1 48.4,32.4 C48.1,30.4 47.5,27.4 46.9,23.5 C56.7,20.3 64,10.1 64,-0.2 C64,-15.3 53.3,-25.5 38.7,-25.5 C37.7,-31.5 36.7,-37.4 35.9,-43 C46.4,-54.1 53.7,-66.6 53.7,-82.5 C53.7,-91.6 50.9,-99 49.3,-102.6 C46.9,-107.7 44,-111.2 42.2,-111.2 C41.5,-111.2 38.4,-110 35.1,-106.1 C28.7,-98.5 26.9,-85.7 26.9,-77.3 C26.9,-71.9 27.4,-67 29.1,-55.8 C29,-55.7 23.8,-50.4 21.7,-48.7 C12.6,-40.3 0,-28.1 0,-8.1 C0,10.6 16.3,25.3 34.9,25.3 C37.8,25.3 40.5,25 42.8,24.6 C44.7,34.2 45.9,41.2 45.9,46.5 C45.9,56.9 40.5,62.4 30.4,62.4 C28,62.4 25.9,61.9 25.7,61.9 C25.6,61.8 25.4,61.7 25.4,61.6 C25.4,61.4 25.6,61.3 25.9,61.3 C30.6,60.5 35.3,56.5 35.3,50.1 C35.3,44.7 31.2,39 23.7,39 C16.7,39 12.3,44.7 12.3,51.3 M33.2,-82.2 C34.1,-86.2 38.7,-96.7 43.9,-96.7 C45.4,-96.7 47.8,-91.9 47.8,-84.9 C47.8,-74.5 40.1,-66.7 33.2,-59.9 C32.6,-63.9 32.1,-67.8 32.1,-72 C32.1,-75.7 32.4,-79.1 33.2,-82.2 M42,20.6 C40,21 38.1,21.2 36.2,21.2 C21.9,21.2 9.7,11.2 9.7,-3.9 C9.7,-16.1 18.3,-27 27.1,-34.6 C28.8,-36.1 30.4,-37.5 31.9,-39 C32.8,-33.6 33.5,-28.9 34.2,-24.8 C25.1,-22.1 18.9,-12.5 18.9,-3.1 C18.9,3.9 24.4,13.5 32.4,13.5 C33.2,13.5 34.1,13.1 34.1,12.2 C34.1,11.3 33.1,10.8 31.9,10 C28,7.6 25.8,5 25.8,0.1 C25.8,-6 30.4,-10.9 36.2,-12.3 L42,20.6 M56.2,2.1 C56.2,9.2 53.3,16.5 46.2,19.4 C44.1,7.4 41.4,-8.5 40.7,-12.9 C49.7,-12.9 56.2,-6.8 56.2,2.1"/>
<path class="Clef" transform="matrix(0.992001,0,0,0.992001,87,716)" d="M12.3,51.3 C12.3,57.9 17.3,66.6 30.8,66.6 C35.5,66.6 39.6,65.4 43.2,63.2 C48.6,59.4 50,52.8 50,46.5 C50,42.6 49.4,38.1 48.4,32.4 C48.1,30.4 47.5,27.4 46.9,23.5 C56.7,20.3 64,10.1 64,-0.2 C64,-15.3 53.3,-25.5 38.7,-25.5 C37.7,-31.5 36.7,-37.4 35.9,-43 C46.4,-54.1 53.7,-66.6 53.7,-82.5 C53.7,-91.6 50.9,-99 49.3,-102.6 C46.9,-107.7 44,-111.2 42.2,-111.2 C41.5,-111.2 38.4,-110 35.1,-106.1 C28.7,-98.5 26.9,-85.7 26.9,-77.3 C26.9,-71.9 27.4,-67 29.1,-55.8 C29,-55.7 23.8,-50.4 21.7,-48.7 C12.6,-40.3 0,-28.1 0,-8.1 C0,10.6 16.3,25.3 34.9,25.3 C37.8,25.3 40.5,25 42.8,24.6 C44.7,34.2 45.9,41.2 45.9,46.5 C45.9,56.9 40.5,62.4 30.4,62.4 C28,62.4 25.9,61.9 25.7,61.9 C25.6,61.8 25.4,61.7 25.4,61.6 C25.4,61.4 25.6,61.3 25.9,61.3 C30.6,60.5 35.3,56.5 35.3,50.1 C35.3,44.7 31.2,39 23.7,39 C16.7,39 12.3,44.7 12.3,51.3 M33.2,-82.2 C34.1,-86.2 38.7,-96.7 43.9,-96.7 C45.4,-96.7 47.8,-91.9 47.8,-84.9 C47.8,-74.5 40.1,-66.7 33.2,-59.9 C32.6,-63.9 32.1,-67.8 32.1,-72 C32.1,-75.7 32.4,-79.1 33.2,-82.2 M42,20.6 C40,21 38.1,21.2 36.2,21.2 C21.9,21.2 9.7,11.2 9.7,-3.9 C9.7,-16.1 18.3,-27 27.1,-34.6 C28.8,-36.1 30.4,-37.5 31.9,-39 C32.8,-33.6 33.5,-28.9 34.2,-24.8 C25.1,-22.1 18.9,-12.5 18.9,-3.1 C18.9,3.9 24.4,13.5 32.4,13.5 C33.2,13.5 34.1,13.1 34.1,12.2 C34.1,11.3 33.1,10.8 31.9,10 C28,7.6 25.8,5 25.8,0.1 C25.8,-6 30.4,-10.9 36.2,-12.3 L42,20.6 M56.2,2.1 C56.2,9.2 53.3,16.5 46.2,19.4 C44.1,7.4 41.4,-8.5 40.7,-12.9 C49.7,-12.9 56.2,-6.8 56.2,2.1"/>
<path class="Clef" transform="matrix(0.992001,0,0,0.992001,87,352.4)" d="M12.3,51.3 C12.3,57.9 17.3,66.6 30.8,66.6 C35.5,66.6 39.6,65.4 43.2,63.2 C48.6,59.4 50,52.8 50,46.5 C50,42.6 49.4,38.1 48.4,32.4 C48.1,30.4 47.5,27.4 46.9,23.5 C56.7,20.3 64,10.1 64,-0.2 C64,-15.3 53.3,-25.5 38.7,-25.5 C37.7,-31.5 36.7,-37.4 35.9,-43 C46.4,-54.1 53.7,-66.6 53.7,-82.5 C53.7,-91.6 50.9,-99 49.3,-102.6 C46.9,-107.7 44,-111.2 42.2,-111.2 C41.5,-111.2 38.4,-110 35.1,-106.1 C28.7,-98.5 26.9,-85.7 26.9,-77.3 C26.9,-71.9 27.4,-67 29.1,-55.8 C29,-55.7 23.8,-50.4 21.7,-48.7 C12.6,-40.3 0,-28.1 0,-8.1 C0,10.6 16.3,25.3 34.9,25.3 C37.8,25.3 40.5,25 42.8,24.6 C44.7,34.2 45.9,41.2 45.9,46.5 C45.9,56.9 40.5,62.4 30.4,62.4 C28,62.4 25.9,61.9 25.7,61.9 C25.6,61.8 25.4,61.7 25.4,61.6 C25.4,61.4 25.6,61.3 25.9,61.3 C30.6,60.5 35.3,56.5 35.3,50.1 C35.3,44.7 31.2,39 23.7,39 C16.7,39 12.3,44.7 12.3,51.3 M33.2,-82.2 C34.1,-86.2 38.7,-96.7 43.9,-96.7 C45.4,-96.7 47.8,-91.9 47.8,-84.9 C47.8,-74.5 40.1,-66.7 33.2,-59.9 C32.6,-63.9 32.1,-67.8 32.1,-72 C32.1,-75.7 32.4,-79.1 33.2,-82.2 M42,20.6 C40,21 38.1,21.2 36.2,21.2 C21.9,21.2 9.7,11.2 9.7,-3.9 C9.7,-16.1 18.3,-27 27.1,-34.6 C28.8,-36.1 30.4,-37.5 31.9,-39 C32.8,-33.6 33.5,-28.9 34.2,-24.8 C25.1,-22.1 18.9,-12.5 18.9,-3.1 C18.9,3.9 24.4,13.5 32.4,13.5 C33.2,13.5 34.1,13.1 34.1,12.2 C34.1,11.3 33.1,10.8 31.9,10 C28,7.6 25.8,5 25.8,0.1 C25.8,-6 30.4,-10.9 36.2,-12.3 L42,20.6 M56.2,2.1 C56.2,9.2 53.3,16.5 46.2,19.4 C44.1,7.4 41.4,-8.5 40.7,-12.9 C49.7,-12.9 56.2,-6.8 56.2,2.1"/>
<path class="KeySig" transform="matrix(0.992001,0,0,0.992001,175.28,327.6)" d="M12,-15.5 C7,-15.5 4.1,-12.4 3.6,-11.8 L4,-43.9 C4,-44.7 3.4,-45.3 2.6,-45.3 L1.4,-45.3 C0.6,-45.3 0,-44.7 0,-43.9 L0.5,16.2 C0.5,17 1.1,17.6 1.9,17.6 C2.1,17.6 2.5,17.5 2.7,17.4 C11.3,13.1 20.3,4.9 20.3,-5.4 C20.3,-10.6 17.9,-15.5 12,-15.5 M3.3,12.7 L3.6,-6.8 C3.8,-7.7 5.3,-10.6 9.3,-10.6 C12.9,-10.6 13.2,-7.2 13.2,-5.1 C13.2,3.8 9.9,7.5 3.3,12.7"/>
<path class="KeySig" transform="matrix(0.992001,0,0,0.992001,175.28,1054.8)" d="M12,-15.5 C7,-15.5 4.1,-12.4 3.6,-11.8 L4,-43.9 C4,-44.7 3.4,-45.3 2.6,-45.3 L1.4,-45.3 C0.6,-45.3 0,-44.7 0,-43.9 L0.5,16.2 C0.5,17 1.1,17.6 1.9,17.6 C2.1,17.6 2.5,17.5 2.7,17.4 C11.3,13.1 20.3,4.9 20.3,-5.4 C20.3,-10.6 17.9,-15.5 12,-15.5 M3.3,12.7 L3.6,-6.8 C3.8,-7.7 5.3,-10.6 9.3,-10.6 C12.9,-10.6 13.2,-7.2 13.2,-5.1 C13.2,3.8 9.9,7.5 3.3,12.7"/>
<path class="KeySig" transform="matrix(0.992001,0,0,0.992001,175.28,691.2)" d="M12,-15.5 C7,-15.5 4.1,-12.4 3.6,-11.8 L4,-43.9 C4,-44.7 3.4,-45.3 2.6,-45.3 L1.4,-45.3 C0.6,-45.3 0,-44.7 0,-43.9 L0.5,16.2 C0.5,17 1.1,17.6 1.9,17.6 C2.1,17.6 2.5,17.5 2.7,17.4 C11.3,13.1 20.3,4.9 20.3,-5.4 C20.3,-10.6 17.9,-15.5 12,-15.5 M3.3,12.7 L3.6,-6.8 C3.8,-7.7 5.3,-10.6 9.3,-10.6 C12.9,-10.6 13.2,-7.2 13.2,-5.1 C13.2,3.8 9.9,7.5 3.3,12.7"/>
<path class="Rest" transform="matrix(0.992001,0,0,0.992001,1384.93,1054.8)" d="M26.7,-20.3 C26.6,-20.3 26.4,-20.4 26.3,-20.4 C25.7,-20.4 25.2,-20.1 25,-19.6 C22.7,-15 17.9,-8.8 12.5,-7.8 C13.6,-9.1 14.3,-10.7 14.3,-12.6 C14.3,-16.5 11.1,-19.7 7.2,-19.7 C3.2,-19.7 0,-16.5 0,-12.6 C0,-7.2 5.3,-4.7 10,-4.7 C15.3,-4.7 18.8,-7.2 22.2,-10.9 L10.8,24.7 L13.5,25.5 L27.5,-18.6 C27.6,-18.7 27.6,-18.9 27.6,-19.1 C27.6,-19.6 27.3,-20 26.7,-20.3"/>
<path class="Rest" transform="matrix(0.992001,0,0,0.992001,458.859,691.2)" d="M26.7,-20.3 C26.6,-20.3 26.4,-20.4 26.3,-20.4 C25.7,-20.4 25.2,-20.1 25,-19.6 C22.7,-15 17.9,-8.8 12.5,-7.8 C13.6,-9.1 14.3,-10.7 14.3,-12.6 C14.3,-16.5 11.1,-19.7 7.2,-19.7 C3.2,-19.7 0,-16.5 0,-12.6 C0,-7.2 5.3,-4.7 10,-4.7 C15.3,-4.7 18.8,-7.2 22.2,-10.9 L10.8,24.7 L13.5,25.5 L27.5,-18.6 C27.6,-18.7 27.6,-18.9 27.6,-19.1 C27.6,-19.6 27.3,-20 26.7,-20.3"/>
<path class="Rest" transform="matrix(0.992001,0,0,0.992001,470.978,327.6)" d="M26.7,-20.3 C26.6,-20.3 26.4,-20.4 26.3,-20.4 C25.7,-20.4 25.2,-20.1 25,-19.6 C22.7,-15 17.9,-8.8 12.5,-7.8 C13.6,-9.1 14.3,-10.7 14.3,-12.6 C14.3,-16.5 11.1,-19.7 7.2,-19.7 C3.2,-19.7 0,-16.5 0,-12.6 C0,-7.2 5.3,-4.7 10,-4.7 C15.3,-4.7 18.8,-7.2 22.2,-10.9 L10.8,24.7 L13.5,25.5 L27.5,-18.6 C27.6,-18.7 27.6,-18.9 27.6,-19.1 C27.6,-19.6 27.3,-20 26.7,-20.3"/>
<path class="Rest" transform="matrix(0.992001,0,0,0.992001,1408.37,691.2)" d="M26.7,-20.3 C26.6,-20.3 26.4,-20.4 26.3,-20.4 C25.7,-20.4 25.2,-20.1 25,-19.6 C22.7,-15 17.9,-8.8 12.5,-7.8 C13.6,-9.1 14.3,-10.7 14.3,-12.6 C14.3,-16.5 11.1,-19.7 7.2,-19.7 C3.2,-19.7 0,-16.5 0,-12.6 C0,-7.2 5.3,-4.7 10,-4.7 C15.3,-4.7 18.8,-7.2 22.2,-10.9 L10.8,24.7 L13.5,25.5 L27.5,-18.6 C27.6,-18.7 27.6,-18.9 27.6,-19.1 C27.6,-19.6 27.3,-20 26.7,-20.3"/>
<path class="Rest" transform="matrix(0.992001,0,0,0.992001,414.982,1054.8)" d="M26.7,-20.3 C26.6,-20.3 26.4,-20.4 26.3,-20.4 C25.7,-20.4 25.2,-20.1 25,-19.6 C22.7,-15 17.9,-8.8 12.5,-7.8 C13.6,-9.1 14.3,-10.7 14.3,-12.6 C14.3,-16.5 11.1,-19.7 7.2,-19.7 C3.2,-19.7 0,-16.5 0,-12.6 C0,-7.2 5.3,-4.7 10,-4.7 C15.3,-4.7 18.8,-7.2 22.2,-10.9 L10.8,24.7 L13.5,25.5 L27.5,-18.6 C27.6,-18.7 27.6,-18.9 27.6,-19.1 C27.6,-19.6 27.3,-20 26.7,-20.3"/>
<path class="Rest" transform="matrix(0.992001,0,0,0.992001,1457.61,327.6)" d="M26.7,-20.3 C26.6,-20.3 26.4,-20.4 26.3,-20.4 C25.7,-20.4 25.2,-20.1 25,-19.6 C22.7,-15 17.9,-8.8 12.5,-7.8 C13.6,-9.1 14.3,-10.7 14.3,-12.6 C14.3,-16.5 11.1,-19.7 7.2,-19.7 C3.2,-19.7 0,-16.5 0,-12.6 C0,-7.2 5.3,-4.7 10,-4.7 C15.3,-4.7 18.8,-7.2 22.2,-10.9 L10.8,24.7 L13.5,25.5 L27.5,-18.6 C27.6,-18.7 27.6,-18.9 27.6,-19.1 C27.6,-19.6 27.3,-20 26.7,-20.3"/>
<path class="Rest" transform="matrix(0.992001,0,0,0.992001,879.407,1054.8)" d="M26.7,-20.3 C26.6,-20.3 26.4,-20.4 26.3,-20.4 C25.7,-20.4 25.2,-20.1 25,-19.6 C22.7,-15 17.9,-8.8 12.5,-7.8 C13.6,-9.1 14.3,-10.7 14.3,-12.6 C14.3,-16.5 11.1,-19.7 7.2,-19.7 C3.2,-19.7 0,-16.5 0,-12.6 C0,-7.2 5.3,-4.7 10,-4.7 C15.3,-4.7 18.8,-7.2 22.2,-10.9 L10.8,24.7 L13.5,25.5 L27.5,-18.6 C27.6,-18.7 27.6,-18.9 27.6,-19.1 C27.6,-19.6 27.3,-20 26.7,-20.3"/>
<path class="Beam" fill-rule="evenodd" d="M1072.74,302.788 L1170.14,296.588 L1170.14,309.013 L1072.74,315.213 L1072.74,302.788 "/>
<path class="Beam" fill-rule="evenodd" d="M1170.14,315.188 L1142.86,316.924 L1142.86,329.349 L1170.14,327.613 L1170.14,315.188 "/>
<path class="Beam" fill-rule="evenodd" d="M512.98,1023.8 L651.95,1023.8 L651.95,1036.2 L512.98,1036.2 L512.98,1023.8 "/>
<path class="Beam" fill-rule="evenodd" d="M977.405,1005.2 L1116.38,1005.2 L1116.38,1017.6 L977.405,1017.6 L977.405,1005.2 "/>
<path class="Beam" fill-rule="evenodd" d="M1918.01,998.976 L1988.74,992.776 L1988.74,1005.22 L1918.01,1011.42 L1918.01,998.976 "/>
<path class="Beam" fill-rule="evenodd" d="M1905.94,253.18 L1983.29,259.38 L1983.29,271.82 L1905.94,265.62 L1905.94,253.18 "/>
<path class="Beam" fill-rule="evenodd" d="M1012.83,660.2 L1133.02,660.2 L1133.02,672.6 L1012.83,672.6 L1012.83,660.2 "/>
<path class="Beam" fill-rule="evenodd" d="M1083.46,678.8 L1133.02,678.8 L1133.02,691.2 L1083.46,691.2 L1083.46,678.8 "/>
<path class="Hook" transform="matrix(0.992001,0,0,0.992001,1482.93,992.8)" d="M0,22.7 C0,23 0.1,23.6 0.8,23.8 C5.1,25.2 13.7,30.6 20.2,41.7 C22,44.8 24.9,49.1 24.9,57.4 C24.9,64.6 23.1,72 20.4,79.2 C20.2,79.8 20.1,80.3 20.1,80.7 C20.1,81.4 20.5,81.7 21.2,81.7 C21.8,81.7 22.3,81.3 22.7,80.6 C27.2,72.6 28.9,63.3 28.9,54.2 C28.4,41.3 21,31.8 21,31.8 C21.3,31.8 11.8,19.5 9.1,15.3 C5.4,9.6 3.7,3.9 3.5,3.5 C3.4,3.2 2.5,-0.4 2.5,-0.4 C2.4,-0.8 1.9,-1.2 1.3,-1.2 C0.6,-1.2 0,-0.6 0,0.1 L0,22.7 "/>
<path class="Hook" transform="matrix(0.992001,0,0,0.992001,1773.18,629.2)" d="M0,22.7 C0,23 0.1,23.6 0.8,23.8 C5.1,25.2 13.7,30.6 20.2,41.7 C22,44.8 24.9,49.1 24.9,57.4 C24.9,64.6 23.1,72 20.4,79.2 C20.2,79.8 20.1,80.3 20.1,80.7 C20.1,81.4 20.5,81.7 21.2,81.7 C21.8,81.7 22.3,81.3 22.7,80.6 C27.2,72.6 28.9,63.3 28.9,54.2 C28.4,41.3 21,31.8 21,31.8 C21.3,31.8 11.8,19.5 9.1,15.3 C5.4,9.6 3.7,3.9 3.5,3.5 C3.4,3.2 2.5,-0.4 2.5,-0.4 C2.4,-0.8 1.9,-1.2 1.3,-1.2 C0.6,-1.2 0,-0.6 0,0.1 L0,22.7 "/>
<path class="Hook" transform="matrix(0.992001,0,0,0.992001,866.998,278)" d="M0,22.7 C0,23 0.1,23.6 0.8,23.8 C5.1,25.2 13.7,30.6 20.2,41.7 C22,44.8 24.9,49.1 24.9,57.4 C24.9,64.6 23.1,72 20.4,79.2 C20.2,79.8 20.1,80.3 20.1,80.7 C20.1,81.4 20.5,81.7 21.2,81.7 C21.8,81.7 22.3,81.3 22.7,80.6 C27.2,72.6 28.9,63.3 28.9,54.2 C28.4,41.3 21,31.8 21,31.8 C21.3,31.8 11.8,19.5 9.1,15.3 C5.4,9.6 3.7,3.9 3.5,3.5 C3.4,3.2 2.5,-0.4 2.5,-0.4 C2.4,-0.8 1.9,-1.2 1.3,-1.2 C0.6,-1.2 0,-0.6 0,0.1 L0,22.7 "/>
<path class="Hook" transform="matrix(0.992001,0,0,0.992001,559.238,691.2)" d="M0,22.7 C0,23 0.1,23.6 0.8,23.8 C5.1,25.2 13.7,30.6 20.2,41.7 C22,44.8 24.9,49.1 24.9,57.4 C24.9,64.6 23.1,72 20.4,79.2 C20.2,79.8 20.1,80.3 20.1,80.7 C20.1,81.4 20.5,81.7 21.2,81.7 C21.8,81.7 22.3,81.3 22.7,80.6 C27.2,72.6 28.9,63.3 28.9,54.2 C28.4,41.3 21,31.8 21,31.8 C21.3,31.8 11.8,19.5 9.1,15.3 C5.4,9.6 3.7,3.9 3.5,3.5 C3.4,3.2 2.5,-0.4 2.5,-0.4 C2.4,-0.8 1.9,-1.2 1.3,-1.2 C0.6,-1.2 0,-0.6 0,0.1 L0,22.7 "/>
<path class="Hook" transform="matrix(0.992001,0,0,0.992001,1742.84,1042.4)" d="M0,22.7 C0,23 0.1,23.6 0.8,23.8 C5.1,25.2 13.7,30.6 20.2,41.7 C22,44.8 24.9,49.1 24.9,57.4 C24.9,64.6 23.1,72 20.4,79.2 C20.2,79.8 20.1,80.3 20.1,80.7 C20.1,81.4 20.5,81.7 21.2,81.7 C21.8,81.7 22.3,81.3 22.7,80.6 C27.2,72.6 28.9,63.3 28.9,54.2 C28.4,41.3 21,31.8 21,31.8 C21.3,31.8 11.8,19.5 9.1,15.3 C5.4,9.6 3.7,3.9 3.5,3.5 C3.4,3.2 2.5,-0.4 2.5,-0.4 C2.4,-0.8 1.9,-1.2 1.3,-1.2 C0.6,-1.2 0,-0.6 0,0.1 L0,22.7 "/>
<path class="Hook" transform="matrix(0.992001,0,0,0.992001,1508.75,678.8)" d="M0,22.7 C0,23 0.1,23.6 0.8,23.8 C5.1,25.2 13.7,30.6 20.2,41.7 C22,44.8 24.9,49.1 24.9,57.4 C24.9,64.6 23.1,72 20.4,79.2 C20.2,79.8 20.1,80.3 20.1,80.7 C20.1,81.4 20.5,81.7 21.2,81.7 C21.8,81.7 22.3,81.3 22.7,80.6 C27.2,72.6 28.9,63.3 28.9,54.2 C28.4,41.3 21,31.8 21,31.8 C21.3,31.8 11.8,19.5 9.1,15.3 C5.4,9.6 3.7,3.9 3.5,3.5 C3.4,3.2 2.5,-0.4 2.5,-0.4 C2.4,-0.8 1.9,-1.2 1.3,-1.2 C0.6,-1.2 0,-0.6 0,0.1 L0,22.7 "/>
<path class="Hook" transform="matrix(0.992001,0,0,0.992001,1562.24,327.6)" d="M0,22.7 C0,23 0.1,23.6 0.8,23.8 C5.1,25.2 13.7,30.6 20.2,41.7 C22,44.8 24.9,49.1 24.9,57.4 C24.9,64.6 23.1,72 20.4,79.2 C20.2,79.8 20.1,80.3 20.1,80.7 C20.1,81.4 20.5,81.7 21.2,81.7 C21.8,81.7 22.3,81.3 22.7,80.6 C27.2,72.6 28.9,63.3 28.9,54.2 C28.4,41.3 21,31.8 21,31.8 C21.3,31.8 11.8,19.5 9.1,15.3 C5.4,9.6 3.7,3.9 3.5,3.5 C3.4,3.2 2.5,-0.4 2.5,-0.4 C2.4,-0.8 1.9,-1.2 1.3,-1.2 C0.6,-1.2 0,-0.6 0,0.1 L0,22.7 "/>
<path class="Hook" transform="matrix(0.992001,0,0,0.992001,813.458,629.2)" d="M0,22.7 C0,23 0.1,23.6 0.8,23.8 C5.1,25.2 13.7,30.6 20.2,41.7 C22,44.8 24.9,49.1 24.9,57.4 C24.9,64.6 23.1,72 20.4,79.2 C20.2,79.8 20.1,80.3 20.1,80.7 C20.1,81.4 20.5,81.7 21.2,81.7 C21.8,81.7 22.3,81.3 22.7,80.6 C27.2,72.6 28.9,63.3 28.9,54.2 C28.4,41.3 21,31.8 21,31.8 C21.3,31.8 11.8,19.5 9.1,15.3 C5.4,9.6 3.7,3.9 3.5,3.5 C3.4,3.2 2.5,-0.4 2.5,-0.4 C2.4,-0.8 1.9,-1.2 1.3,-1.2 C0.6,-1.2 0,-0.6 0,0.1 L0,22.7 "/>
<path class="Lyrics" d="M1982.92,467.246 C1982.92,460.046 1976.67,455.346 1967.12,455.346 C1957.72,455.346 1951.42,460.046 1951.42,467.246 C1951.42,473.946 1956.87,478.446 1965.22,479.046 L1965.22,487.346 L1947.47,487.346 L1947.47,490.546 L1986.92,490.546 L1986.92,487.346 L1969.02,487.346 L1969.02,479.046 C1977.42,478.496 1982.92,473.946 1982.92,467.246 M1979.27,467.296 C1979.27,472.546 1974.47,475.996 1967.12,475.996 C1959.87,475.996 1955.12,472.546 1955.12,467.296 C1955.12,462.046 1959.87,458.546 1967.12,458.546 C1974.52,458.546 1979.27,462.046 1979.27,467.296"/>
<path class="Lyrics" d="M1912.78,474.246 L1912.78,471.046 L1905.68,471.046 L1905.68,452.596 L1901.88,452.596 L1901.88,496.296 L1905.68,496.296 L1905.68,474.246 L1912.78,474.246 M1891.23,458.846 L1891.23,455.596 L1878.38,455.596 L1878.38,458.846 L1891.23,458.846 M1897.68,466.246 L1897.68,463.096 L1871.88,463.096 L1871.88,466.246 L1897.68,466.246 M1895.08,478.096 C1895.08,472.946 1890.98,469.046 1884.88,469.046 C1878.78,469.046 1874.68,472.996 1874.68,478.096 C1874.68,483.196 1878.78,487.096 1884.88,487.096 C1890.98,487.096 1895.08,483.146 1895.08,478.096 M1891.28,478.096 C1891.28,481.496 1888.63,483.946 1884.88,483.946 C1881.23,483.946 1878.48,481.496 1878.48,478.096 C1878.48,474.646 1881.23,472.246 1884.88,472.246 C1888.58,472.246 1891.28,474.646 1891.28,478.096"/>
<path class="Lyrics" d="M649.075,1184.14 C649.075,1180.09 644.325,1177.94 635.875,1177.94 C627.425,1177.94 622.725,1180.09 622.725,1184.14 C622.725,1187.89 626.675,1189.99 633.875,1190.34 L633.875,1193.59 L616.125,1193.59 L616.125,1196.74 L655.575,1196.74 L655.575,1193.59 L637.675,1193.59 L637.675,1190.34 C644.975,1190.04 649.075,1187.89 649.075,1184.14 M651.225,1209.79 L651.225,1206.64 L625.075,1206.64 L625.075,1199.04 L621.275,1199.04 L621.275,1209.79 L651.225,1209.79 M653.125,1176.19 L653.125,1173.09 L618.575,1173.09 L618.575,1176.19 L653.125,1176.19 M645.125,1184.19 C645.125,1186.44 641.225,1187.34 635.875,1187.34 C630.575,1187.34 626.675,1186.44 626.675,1184.19 C626.675,1181.84 630.575,1180.99 635.875,1180.99 C641.225,1180.99 645.125,1181.84 645.125,1184.19 M643.525,1170.89 L643.525,1167.74 L628.475,1167.74 L628.475,1170.89 L643.525,1170.89 "/>
<path class="Lyrics" d="M759.227,1211.09 L759.227,1167.39 L755.427,1167.39 L755.427,1211.09 L759.227,1211.09 M724.727,1186.09 C724.727,1195.39 728.827,1201.59 735.977,1201.59 C743.227,1201.59 747.277,1195.39 747.277,1186.14 C747.277,1176.89 743.227,1170.69 735.977,1170.69 C728.827,1170.69 724.727,1176.89 724.727,1186.09 M743.677,1186.14 C743.677,1193.29 740.627,1198.29 735.977,1198.29 C731.377,1198.29 728.327,1193.29 728.327,1186.14 C728.327,1178.94 731.377,1173.99 735.977,1173.99 C740.627,1173.99 743.677,1178.94 743.677,1186.14"/>
<path class="Lyrics" d="M679.666,816.18 L679.666,859.88 L683.466,859.88 L683.466,816.18 L679.666,816.18 M672.766,829.98 C672.766,823.58 667.866,819.58 661.416,819.58 C655.066,819.58 650.016,823.83 650.016,829.98 C650.016,835.83 654.966,840.13 661.416,840.13 C667.716,840.13 672.766,836.18 672.766,829.98 M669.066,829.98 C669.066,834.08 665.566,836.93 661.416,836.93 C657.166,836.93 653.716,834.03 653.716,829.98 C653.716,825.88 657.216,822.83 661.416,822.83 C665.666,822.83 669.066,825.58 669.066,829.98 M677.116,848.78 L676.766,845.68 C673.566,846.08 667.916,846.43 661.816,846.63 C656.516,846.93 651.366,847.03 647.616,846.98 L648.316,850.33 C651.616,850.28 656.416,850.13 661.566,849.88 C667.116,849.63 673.366,849.23 677.116,848.78"/>
<path class="Lyrics" d="M585.301,1202.89 C585.301,1197.69 579.951,1194.54 570.401,1194.54 C560.901,1194.54 555.551,1197.69 555.551,1202.89 C555.551,1207.94 560.901,1211.19 570.401,1211.19 C579.951,1211.19 585.301,1207.94 585.301,1202.89 M573.501,1187.29 L581.451,1187.29 L581.451,1194.44 L585.251,1194.44 L585.251,1167.39 L581.451,1167.39 L581.451,1173.19 L573.501,1173.19 L573.501,1176.44 L581.451,1176.44 L581.451,1184.04 L573.501,1184.04 L573.501,1187.29 M581.401,1202.89 C581.401,1206.09 577.351,1207.94 570.401,1207.94 C563.601,1207.94 559.501,1206.09 559.501,1202.89 C559.501,1199.64 563.601,1197.74 570.401,1197.74 C577.351,1197.74 581.401,1199.64 581.401,1202.89 M561.151,1170.04 C555.001,1170.04 549.901,1174.24 549.901,1180.54 C549.901,1186.89 555.051,1190.89 561.151,1190.89 C567.301,1190.89 572.351,1186.89 572.351,1180.49 C572.351,1174.14 567.301,1170.04 561.151,1170.04 M561.151,1173.29 C565.651,1173.29 568.551,1176.19 568.551,1180.54 C568.551,1184.94 565.601,1187.79 561.151,1187.79 C556.851,1187.79 553.701,1184.94 553.701,1180.49 C553.701,1176.14 556.851,1173.29 561.151,1173.29"/>
<path class="Lyrics" d="M800.584,848.88 L800.584,820.68 L780.134,820.68 L780.134,848.88 L800.584,848.88 M796.784,845.73 L783.934,845.73 L783.934,823.83 L796.784,823.83 L796.784,845.73 M819.534,836.98 L819.534,833.78 L812.384,833.78 L812.384,816.18 L808.584,816.18 L808.584,859.88 L812.384,859.88 L812.384,836.98 L819.534,836.98 "/>
<path class="Lyrics" d="M516.828,1211.09 L516.828,1167.39 L513.078,1167.39 L513.078,1184.79 L507.328,1184.79 L507.328,1168.44 L503.628,1168.44 L503.628,1208.84 L507.328,1208.84 L507.328,1187.99 L513.078,1187.99 L513.078,1211.09 L516.828,1211.09 M500.678,1194.89 C497.478,1195.74 490.228,1196.34 485.678,1196.24 L485.678,1172.19 L481.878,1172.19 L481.878,1199.54 L485.228,1199.54 C490.778,1199.54 497.478,1198.94 501.128,1198.09 L500.678,1194.89 "/>
<path class="Lyrics" d="M981.659,1184.99 C974.959,1184.24 966.009,1179.79 965.809,1173.64 L979.859,1173.64 L979.859,1170.49 L947.659,1170.49 L947.659,1173.64 L961.809,1173.64 C961.609,1179.74 953.159,1184.34 946.009,1185.09 L947.759,1188.29 C955.209,1187.04 962.009,1182.54 963.759,1178.44 C965.759,1182.54 972.709,1186.94 979.859,1188.19 L981.659,1184.99 M965.609,1211.09 L965.609,1195.44 L983.509,1195.44 L983.509,1192.24 L944.059,1192.24 L944.059,1195.44 L961.809,1195.44 L961.809,1211.09 L965.609,1211.09 "/>
<path class="Lyrics" d="M290.005,1167.39 L286.205,1167.39 L286.205,1211.09 L290.005,1211.09 L290.005,1187.94 L297.105,1187.94 L297.105,1184.74 L290.005,1184.74 L290.005,1167.39 M261.855,1197.14 L261.855,1175.14 L278.755,1175.14 L278.755,1171.94 L258.005,1171.94 L258.005,1200.39 L262.305,1200.39 C269.905,1200.39 278.555,1199.79 283.255,1198.89 L282.855,1195.74 C278.655,1196.64 270.005,1197.14 264.355,1197.14 L261.855,1197.14 "/>
<path class="Lyrics" d="M579.454,496.296 L579.454,452.596 L575.704,452.596 L575.704,469.996 L569.954,469.996 L569.954,453.646 L566.254,453.646 L566.254,494.046 L569.954,494.046 L569.954,473.196 L575.704,473.196 L575.704,496.296 L579.454,496.296 M563.304,480.096 C560.104,480.946 552.854,481.546 548.304,481.446 L548.304,457.396 L544.504,457.396 L544.504,484.746 L547.854,484.746 C553.404,484.746 560.104,484.146 563.754,483.296 L563.304,480.096 "/>
<path class="Lyrics" d="M1985.7,1167.39 L1985.7,1211.09 L1989.5,1211.09 L1989.5,1167.39 L1985.7,1167.39 M1981.7,1196.04 C1976.4,1196.99 1967.75,1197.39 1960.8,1197.39 L1959.75,1197.39 L1959.75,1186.94 L1976.35,1186.94 L1976.35,1171.44 L1955.75,1171.44 L1955.75,1174.59 L1972.5,1174.59 L1972.5,1183.79 L1955.95,1183.79 L1955.95,1200.64 L1960.4,1200.64 C1970,1200.64 1977.5,1199.89 1982.05,1199.19 L1981.7,1196.04 "/>
<path class="Lyrics" d="M1048.75,1210.44 L1048.75,1194.44 L1020.1,1194.44 L1020.1,1210.44 L1048.75,1210.44 M1044.95,1207.29 L1023.9,1207.29 L1023.9,1197.54 L1044.95,1197.54 L1044.95,1207.29 M1044.95,1167.39 L1044.95,1191.69 L1048.75,1191.69 L1048.75,1167.39 L1044.95,1167.39 M1040.85,1183.49 C1035.25,1184.64 1025.45,1185.64 1019.1,1185.39 L1019.1,1169.64 L1015.3,1169.64 L1015.3,1188.74 L1017.8,1188.74 C1025.4,1188.74 1036.45,1187.79 1041.3,1186.74 L1040.85,1183.49 "/>
<path class="Lyrics" d="M1698.65,468.796 L1692,468.796 L1692,462.546 L1698.65,462.546 L1698.65,459.346 L1692,459.346 L1692,452.596 L1688.2,452.596 L1688.2,478.946 L1692,478.946 L1692,471.946 L1698.65,471.946 L1698.65,468.796 M1692.35,487.796 C1692.35,482.846 1687.4,479.396 1677.85,479.396 C1668.35,479.396 1663.45,482.746 1663.45,487.796 C1663.45,492.796 1668.35,496.196 1677.85,496.196 C1687.4,496.196 1692.35,492.796 1692.35,487.796 M1677.85,482.546 C1684.45,482.546 1688.45,484.596 1688.45,487.796 C1688.45,491.046 1684.45,493.046 1677.85,493.046 C1671.25,493.046 1667.35,490.946 1667.35,487.796 C1667.35,484.646 1671.25,482.546 1677.85,482.546 M1670.2,454.996 C1663.95,454.996 1658.85,459.196 1658.85,465.546 C1658.85,471.946 1663.95,475.896 1670.2,475.896 C1676.4,475.896 1681.5,471.946 1681.5,465.496 C1681.5,459.196 1676.4,454.996 1670.2,454.996 M1670.2,458.096 C1674.8,458.096 1677.85,461.196 1677.85,465.546 C1677.85,469.846 1674.75,472.796 1670.2,472.796 C1665.8,472.796 1662.55,469.846 1662.55,465.496 C1662.55,461.196 1665.8,458.096 1670.2,458.096"/>
<path class="Lyrics" d="M912.997,840.48 L912.997,837.28 L873.547,837.28 L873.547,840.48 L912.997,840.48 M908.197,859.28 L908.197,845.03 L878.397,845.03 L878.397,859.28 L908.197,859.28 M904.397,856.13 L882.197,856.13 L882.197,848.13 L904.397,848.13 L904.397,856.13 M908.547,825.53 C908.547,820.58 902.847,817.33 893.247,817.33 C883.697,817.33 878.047,820.58 878.047,825.53 C878.047,830.48 883.697,833.73 893.247,833.73 C902.847,833.73 908.547,830.48 908.547,825.53 M904.847,825.53 C904.847,828.73 900.247,830.68 893.247,830.68 C886.247,830.68 881.747,828.73 881.747,825.53 C881.747,822.28 886.247,820.38 893.247,820.38 C900.247,820.38 904.847,822.28 904.847,825.53"/>
<path class="Lyrics" d="M1120.18,1181.39 L1120.18,1178.19 L1113.53,1178.19 L1113.53,1167.39 L1109.73,1167.39 L1109.73,1191.44 L1113.53,1191.44 L1113.53,1181.39 L1120.18,1181.39 M1114.58,1197.09 L1114.58,1193.94 L1085.28,1193.94 L1085.28,1197.09 L1114.58,1197.09 M1115.08,1210.39 L1115.08,1207.24 L1108.33,1207.24 L1109.98,1199.29 L1106.28,1198.74 L1104.83,1207.24 L1095.13,1207.24 L1094.13,1198.69 L1090.33,1199.19 L1091.58,1207.24 L1084.78,1207.24 L1084.78,1210.39 L1115.08,1210.39 M1091.73,1169.34 C1085.48,1169.34 1080.38,1173.49 1080.38,1179.84 C1080.38,1186.24 1085.48,1190.24 1091.73,1190.24 C1097.93,1190.24 1103.03,1186.24 1103.03,1179.79 C1103.03,1173.49 1097.93,1169.34 1091.73,1169.34 M1091.73,1172.44 C1096.33,1172.44 1099.38,1175.54 1099.38,1179.84 C1099.38,1184.19 1096.28,1187.14 1091.73,1187.14 C1087.33,1187.14 1084.08,1184.19 1084.08,1179.79 C1084.08,1175.54 1087.33,1172.44 1091.73,1172.44"/>
<path class="Lyrics" d="M293.272,477.146 L293.272,473.996 L253.822,473.996 L253.822,477.146 L293.272,477.146 M288.472,495.646 L288.472,481.246 L258.622,481.246 L258.622,495.646 L288.472,495.646 M284.672,492.496 L262.472,492.496 L262.472,484.396 L284.672,484.396 L284.672,492.496 M271.772,469.896 L271.772,453.896 L268.172,453.896 L268.172,458.896 L261.572,458.896 L261.572,453.946 L257.922,453.946 L257.922,469.896 L271.772,469.896 M268.172,466.846 L261.572,466.846 L261.572,461.846 L268.172,461.846 L268.172,466.846 M289.072,469.896 L289.072,453.896 L285.522,453.896 L285.522,458.896 L278.772,458.896 L278.772,453.946 L275.172,453.946 L275.172,469.896 L289.072,469.896 M285.522,466.846 L278.772,466.846 L278.772,461.846 L285.522,461.846 L285.522,466.846 "/>
<path class="Lyrics" d="M1919.36,1192.29 L1919.36,1189.14 L1893.41,1189.14 L1893.41,1174.89 L1918.96,1174.89 L1918.96,1171.74 L1889.61,1171.74 L1889.61,1192.29 L1919.36,1192.29 M1924.11,1205.09 L1924.11,1201.89 L1884.66,1201.89 L1884.66,1205.09 L1924.11,1205.09 "/>
<path class="Lyrics" d="M1014.74,831.43 L1014.74,848.03 L1018.54,848.03 L1018.54,816.18 L1014.74,816.18 L1014.74,828.28 L1007.54,828.28 L1007.54,831.43 L1014.74,831.43 M1019.49,858.43 L1019.49,855.28 L994.138,855.28 L994.138,844.78 L990.338,844.78 L990.338,858.43 L1019.49,858.43 M994.438,819.08 C988.038,819.08 983.088,823.58 983.088,830.08 C983.088,836.58 988.038,840.88 994.488,840.88 C1000.89,840.88 1005.79,836.53 1005.79,830.03 C1005.79,823.53 1000.84,819.08 994.438,819.08 M994.438,822.43 C998.988,822.43 1002.09,825.58 1002.09,830.08 C1002.09,834.43 998.988,837.53 994.488,837.53 C990.138,837.53 986.838,834.43 986.838,830.03 C986.838,825.58 990.088,822.43 994.438,822.43"/>
<path class="Lyrics" d="M1953.37,859.88 L1953.37,816.18 L1949.57,816.18 L1949.57,859.88 L1953.37,859.88 M1918.87,834.88 C1918.87,844.18 1922.97,850.38 1930.12,850.38 C1937.37,850.38 1941.42,844.18 1941.42,834.93 C1941.42,825.68 1937.37,819.48 1930.12,819.48 C1922.97,819.48 1918.87,825.68 1918.87,834.88 M1937.82,834.93 C1937.82,842.08 1934.77,847.08 1930.12,847.08 C1925.52,847.08 1922.47,842.08 1922.47,834.93 C1922.47,827.73 1925.52,822.78 1930.12,822.78 C1934.77,822.78 1937.82,827.73 1937.82,834.93"/>
<path class="Lyrics" d="M1121.15,846.78 C1115.75,843.28 1111.65,837.88 1111.65,829.28 L1111.65,824.48 L1120.05,824.48 L1120.05,821.33 L1099.2,821.33 L1099.2,824.48 L1107.9,824.48 L1107.9,829.38 C1107.9,837.88 1103.3,844.78 1098.15,848.08 L1100.7,850.73 C1104.95,847.73 1108.9,842.53 1109.8,837.68 C1111.05,842.28 1115.65,847.38 1118.75,849.58 L1121.15,846.78 M1127.05,857.68 L1127.05,817.23 L1123.3,817.23 L1123.3,832.23 L1116.3,832.23 L1116.3,835.38 L1123.3,835.38 L1123.3,857.68 L1127.05,857.68 M1135.7,859.88 L1135.7,816.18 L1131.95,816.18 L1131.95,859.88 L1135.7,859.88 "/>
<path class="Lyrics" d="M1197.94,1171.19 C1191.59,1171.19 1188.34,1177.39 1188.34,1186.14 C1188.34,1194.94 1191.59,1201.09 1197.94,1201.09 C1203.94,1201.09 1207.14,1195.74 1207.54,1187.84 L1212.24,1187.84 L1212.24,1208.99 L1215.94,1208.99 L1215.94,1168.24 L1212.24,1168.24 L1212.24,1184.69 L1207.54,1184.69 C1207.24,1176.74 1203.99,1171.19 1197.94,1171.19 M1203.79,1186.14 C1203.79,1193.24 1201.49,1197.74 1197.94,1197.74 C1194.44,1197.74 1192.19,1193.24 1192.19,1186.14 C1192.19,1179.09 1194.44,1174.54 1197.94,1174.54 C1201.49,1174.54 1203.79,1179.09 1203.79,1186.14 M1224.49,1211.09 L1224.49,1167.39 L1220.74,1167.39 L1220.74,1211.09 L1224.49,1211.09 "/>
<path class="Lyrics" d="M1279.9,474.696 L1279.9,471.496 L1240.45,471.496 L1240.45,474.696 L1279.9,474.696 M1275.5,460.796 C1275.5,455.996 1269.7,453.196 1260.2,453.196 C1250.8,453.196 1245,455.996 1245,460.796 C1245,465.596 1250.8,468.346 1260.2,468.346 C1269.7,468.346 1275.5,465.596 1275.5,460.796 M1260.2,456.296 C1267.15,456.296 1271.65,458.046 1271.65,460.796 C1271.65,463.496 1267.15,465.196 1260.2,465.196 C1253.35,465.196 1248.9,463.496 1248.9,460.796 C1248.9,458.046 1253.35,456.296 1260.2,456.296 M1276.4,495.896 L1276.4,492.796 L1248.85,492.796 L1248.85,488.396 L1274.95,488.396 L1274.95,478.596 L1244.95,478.596 L1244.95,481.646 L1271.15,481.646 L1271.15,485.496 L1245.05,485.496 L1245.05,495.896 L1276.4,495.896 "/>
<path class="Lyrics" d="M1835.15,843.63 C1830.4,844.78 1821.85,845.43 1814.35,845.48 L1814.35,820.53 L1810.55,820.53 L1810.55,848.83 L1813.2,848.83 C1819.85,848.83 1830.35,848.08 1835.7,846.83 L1835.15,843.63 M1842.65,816.18 L1838.85,816.18 L1838.85,859.88 L1842.65,859.88 L1842.65,836.78 L1849.8,836.78 L1849.8,833.53 L1842.65,833.53 L1842.65,816.18 "/>
<path class="Lyrics" d="M278.609,829.53 L286.909,829.53 L286.909,838.63 L278.609,838.63 L278.609,841.78 L286.909,841.78 L286.909,859.88 L290.709,859.88 L290.709,816.18 L286.909,816.18 L286.909,826.38 L278.609,826.38 L278.609,829.53 M276.159,848.83 L276.159,820.58 L256.359,820.58 L256.359,848.83 L276.159,848.83 M272.359,845.68 L260.159,845.68 L260.159,823.73 L272.359,823.73 L272.359,845.68 "/>
<path class="Lyrics" d="M1774.54,824.93 C1774.54,820.03 1768.94,816.88 1759.54,816.88 C1750.14,816.88 1744.59,820.03 1744.59,824.93 C1744.59,829.43 1749.34,832.43 1757.59,832.88 L1757.59,836.88 L1739.84,836.88 L1739.84,840.08 L1779.29,840.08 L1779.29,836.88 L1761.39,836.88 L1761.39,832.88 C1769.64,832.48 1774.54,829.43 1774.54,824.93 M1774.14,859.28 L1774.14,842.83 L1770.34,842.83 L1770.34,847.88 L1748.89,847.88 L1748.89,842.88 L1745.09,842.88 L1745.09,859.28 L1774.14,859.28 M1770.64,824.93 C1770.64,828.03 1766.24,829.78 1759.54,829.78 C1752.84,829.78 1748.49,828.03 1748.49,824.93 C1748.49,821.78 1752.84,820.03 1759.54,820.03 C1766.29,820.03 1770.64,821.78 1770.64,824.93 M1770.34,856.13 L1748.89,856.13 L1748.89,851.03 L1770.34,851.03 L1770.34,856.13 "/>
<path class="Lyrics" d="M1450.11,1180.04 L1459.91,1180.04 L1459.91,1180.34 C1459.91,1185.89 1454.71,1191.19 1448.86,1192.94 L1450.96,1195.84 C1455.96,1194.09 1460.51,1189.74 1461.96,1185.84 C1464.01,1189.79 1468.61,1193.39 1472.46,1194.59 L1474.41,1191.59 C1469.26,1190.34 1463.91,1185.74 1463.91,1180.24 L1463.91,1180.04 L1473.56,1180.04 L1473.56,1176.94 L1450.11,1176.94 L1450.11,1180.04 M1489.76,1184.24 L1489.76,1181.04 L1483.11,1181.04 L1483.11,1167.39 L1479.31,1167.39 L1479.31,1199.14 L1483.11,1199.14 L1483.11,1184.24 L1489.76,1184.24 M1484.81,1209.69 L1484.81,1206.49 L1459.56,1206.49 L1459.56,1197.04 L1455.76,1197.04 L1455.76,1209.69 L1484.81,1209.69 M1455.81,1172.69 L1468.01,1172.69 L1468.01,1169.44 L1455.81,1169.44 L1455.81,1172.69 "/>
<path class="Lyrics" d="M1643.21,859.88 L1643.21,816.18 L1639.51,816.18 L1639.51,859.88 L1643.21,859.88 M1634.81,857.63 L1634.81,817.23 L1631.11,817.23 L1631.11,833.18 L1625.46,833.18 L1625.46,836.33 L1631.11,836.33 L1631.11,857.63 L1634.81,857.63 M1626.11,844.78 C1621.26,845.73 1615.16,845.93 1611.21,845.93 L1611.21,835.98 L1623.46,835.98 L1623.46,821.03 L1607.31,821.03 L1607.31,824.18 L1619.61,824.18 L1619.61,832.83 L1607.41,832.83 L1607.41,849.18 L1611.16,849.18 C1617.06,849.18 1622.36,848.83 1626.61,847.98 L1626.11,844.78 "/>
<path class="Lyrics" d="M1821.92,1183.59 L1815.27,1183.59 L1815.27,1177.34 L1821.92,1177.34 L1821.92,1174.14 L1815.27,1174.14 L1815.27,1167.39 L1811.47,1167.39 L1811.47,1193.74 L1815.27,1193.74 L1815.27,1186.74 L1821.92,1186.74 L1821.92,1183.59 M1815.62,1202.59 C1815.62,1197.64 1810.67,1194.19 1801.12,1194.19 C1791.62,1194.19 1786.72,1197.54 1786.72,1202.59 C1786.72,1207.59 1791.62,1210.99 1801.12,1210.99 C1810.67,1210.99 1815.62,1207.59 1815.62,1202.59 M1801.12,1197.34 C1807.72,1197.34 1811.72,1199.39 1811.72,1202.59 C1811.72,1205.84 1807.72,1207.84 1801.12,1207.84 C1794.52,1207.84 1790.62,1205.74 1790.62,1202.59 C1790.62,1199.44 1794.52,1197.34 1801.12,1197.34 M1793.47,1169.79 C1787.22,1169.79 1782.12,1173.99 1782.12,1180.34 C1782.12,1186.74 1787.22,1190.69 1793.47,1190.69 C1799.67,1190.69 1804.77,1186.74 1804.77,1180.29 C1804.77,1173.99 1799.67,1169.79 1793.47,1169.79 M1793.47,1172.89 C1798.07,1172.89 1801.12,1175.99 1801.12,1180.34 C1801.12,1184.64 1798.02,1187.59 1793.47,1187.59 C1789.07,1187.59 1785.82,1184.64 1785.82,1180.29 C1785.82,1175.99 1789.07,1172.89 1793.47,1172.89"/>
<path class="Lyrics" d="M1077,470.196 C1070.3,469.446 1061.35,464.996 1061.15,458.846 L1075.2,458.846 L1075.2,455.696 L1043,455.696 L1043,458.846 L1057.15,458.846 C1056.95,464.946 1048.5,469.546 1041.35,470.296 L1043.1,473.496 C1050.55,472.246 1057.35,467.746 1059.1,463.646 C1061.1,467.746 1068.05,472.146 1075.2,473.396 L1077,470.196 M1060.95,496.296 L1060.95,480.646 L1078.85,480.646 L1078.85,477.446 L1039.4,477.446 L1039.4,480.646 L1057.15,480.646 L1057.15,496.296 L1060.95,496.296 "/>
<path class="Lyrics" d="M728.699,488.096 C728.699,482.896 723.349,479.746 713.799,479.746 C704.299,479.746 698.949,482.896 698.949,488.096 C698.949,493.146 704.299,496.396 713.799,496.396 C723.349,496.396 728.699,493.146 728.699,488.096 M716.899,472.496 L724.849,472.496 L724.849,479.646 L728.649,479.646 L728.649,452.596 L724.849,452.596 L724.849,458.396 L716.899,458.396 L716.899,461.646 L724.849,461.646 L724.849,469.246 L716.899,469.246 L716.899,472.496 M724.799,488.096 C724.799,491.296 720.749,493.146 713.799,493.146 C706.999,493.146 702.899,491.296 702.899,488.096 C702.899,484.846 706.999,482.946 713.799,482.946 C720.749,482.946 724.799,484.846 724.799,488.096 M704.549,455.246 C698.399,455.246 693.299,459.446 693.299,465.746 C693.299,472.096 698.449,476.096 704.549,476.096 C710.699,476.096 715.749,472.096 715.749,465.696 C715.749,459.346 710.699,455.246 704.549,455.246 M704.549,458.496 C709.049,458.496 711.949,461.396 711.949,465.746 C711.949,470.146 708.999,472.996 704.549,472.996 C700.249,472.996 697.099,470.146 697.099,465.696 C697.099,461.346 700.249,458.496 704.549,458.496"/>
<path class="Lyrics" d="M1508.52,828.08 L1508.52,838.73 L1512.32,838.73 L1512.32,816.18 L1508.52,816.18 L1508.52,824.88 L1499.57,824.88 L1499.57,828.08 L1508.52,828.08 M1501.97,834.53 C1497.32,832.98 1491.17,828.38 1491.17,821.28 L1491.17,817.68 L1487.32,817.68 L1487.32,821.43 C1487.32,828.43 1482.02,833.58 1476.27,835.83 L1478.62,838.68 C1483.82,836.23 1487.97,832.28 1489.27,827.78 C1491.37,832.38 1495.62,835.78 1499.82,837.48 L1501.97,834.53 M1513.97,859.58 L1513.97,856.43 L1487.92,856.43 L1487.92,851.68 L1512.37,851.68 L1512.37,841.13 L1483.87,841.13 L1483.87,844.28 L1508.57,844.28 L1508.57,848.78 L1484.12,848.78 L1484.12,859.58 L1513.97,859.58 "/>
<path class="Lyrics" d="M866.602,469.346 C866.602,465.296 861.852,463.146 853.402,463.146 C844.952,463.146 840.252,465.296 840.252,469.346 C840.252,473.096 844.202,475.196 851.402,475.546 L851.402,478.796 L833.652,478.796 L833.652,481.946 L873.102,481.946 L873.102,478.796 L855.202,478.796 L855.202,475.546 C862.502,475.246 866.602,473.096 866.602,469.346 M868.752,494.996 L868.752,491.846 L842.602,491.846 L842.602,484.246 L838.802,484.246 L838.802,494.996 L868.752,494.996 M870.652,461.396 L870.652,458.296 L836.102,458.296 L836.102,461.396 L870.652,461.396 M862.652,469.396 C862.652,471.646 858.752,472.546 853.402,472.546 C848.102,472.546 844.202,471.646 844.202,469.396 C844.202,467.046 848.102,466.196 853.402,466.196 C858.752,466.196 862.652,467.046 862.652,469.396 M861.052,456.096 L861.052,452.946 L846.002,452.946 L846.002,456.096 L861.052,456.096 "/>
<path class="Lyrics" d="M1616.04,1211.09 L1616.04,1167.39 L1612.24,1167.39 L1612.24,1211.09 L1616.04,1211.09 M1603.49,1199.84 L1603.49,1171.89 L1582.84,1171.89 L1582.84,1199.84 L1603.49,1199.84 M1599.69,1196.69 L1586.69,1196.69 L1586.69,1175.04 L1599.69,1175.04 L1599.69,1196.69 "/>
<path class="Lyrics" d="M550.583,843.63 C545.833,844.78 537.283,845.43 529.783,845.48 L529.783,820.53 L525.983,820.53 L525.983,848.83 L528.633,848.83 C535.283,848.83 545.783,848.08 551.133,846.83 L550.583,843.63 M558.083,816.18 L554.283,816.18 L554.283,859.88 L558.083,859.88 L558.083,836.78 L565.233,836.78 L565.233,833.53 L558.083,833.53 L558.083,816.18 "/>
<path class="Lyrics" d="M1529.41,465.246 L1539.21,465.246 L1539.21,465.546 C1539.21,471.096 1534.01,476.396 1528.16,478.146 L1530.26,481.046 C1535.26,479.296 1539.81,474.946 1541.26,471.046 C1543.31,474.996 1547.91,478.596 1551.76,479.796 L1553.71,476.796 C1548.56,475.546 1543.21,470.946 1543.21,465.446 L1543.21,465.246 L1552.86,465.246 L1552.86,462.146 L1529.41,462.146 L1529.41,465.246 M1569.06,469.446 L1569.06,466.246 L1562.41,466.246 L1562.41,452.596 L1558.61,452.596 L1558.61,484.346 L1562.41,484.346 L1562.41,469.446 L1569.06,469.446 M1564.11,494.896 L1564.11,491.696 L1538.86,491.696 L1538.86,482.246 L1535.06,482.246 L1535.06,494.896 L1564.11,494.896 M1535.11,457.896 L1547.31,457.896 L1547.31,454.646 L1535.11,454.646 L1535.11,457.896 "/>
<path class="Lyrics" d="M1228.02,843.63 C1223.27,844.78 1214.72,845.43 1207.22,845.48 L1207.22,820.53 L1203.42,820.53 L1203.42,848.83 L1206.07,848.83 C1212.72,848.83 1223.22,848.08 1228.57,846.83 L1228.02,843.63 M1235.52,816.18 L1231.72,816.18 L1231.72,859.88 L1235.52,859.88 L1235.52,836.78 L1242.67,836.78 L1242.67,833.53 L1235.52,833.53 L1235.52,816.18 "/>
<path class="Lyrics" d="M964.052,496.296 L964.052,452.596 L960.252,452.596 L960.252,496.296 L964.052,496.296 M929.552,471.296 C929.552,480.596 933.652,486.796 940.802,486.796 C948.052,486.796 952.102,480.596 952.102,471.346 C952.102,462.096 948.052,455.896 940.802,455.896 C933.652,455.896 929.552,462.096 929.552,471.296 M948.502,471.346 C948.502,478.496 945.452,483.496 940.802,483.496 C936.202,483.496 933.152,478.496 933.152,471.346 C933.152,464.146 936.202,459.196 940.802,459.196 C945.452,459.196 948.502,464.146 948.502,471.346"/>
<path class="Lyrics" d="M1710.02,1180.04 L1719.82,1180.04 L1719.82,1180.34 C1719.82,1185.89 1714.62,1191.19 1708.77,1192.94 L1710.87,1195.84 C1715.87,1194.09 1720.42,1189.74 1721.87,1185.84 C1723.92,1189.79 1728.52,1193.39 1732.37,1194.59 L1734.32,1191.59 C1729.17,1190.34 1723.82,1185.74 1723.82,1180.24 L1723.82,1180.04 L1733.47,1180.04 L1733.47,1176.94 L1710.02,1176.94 L1710.02,1180.04 M1749.67,1184.24 L1749.67,1181.04 L1743.02,1181.04 L1743.02,1167.39 L1739.22,1167.39 L1739.22,1199.14 L1743.02,1199.14 L1743.02,1184.24 L1749.67,1184.24 M1744.72,1209.69 L1744.72,1206.49 L1719.47,1206.49 L1719.47,1197.04 L1715.67,1197.04 L1715.67,1209.69 L1744.72,1209.69 M1715.72,1172.69 L1727.92,1172.69 L1727.92,1169.44 L1715.72,1169.44 L1715.72,1172.69 "/>
<path class="Lyrics" d="M1170.77,495.646 L1170.77,479.646 L1142.12,479.646 L1142.12,495.646 L1170.77,495.646 M1166.97,492.496 L1145.92,492.496 L1145.92,482.746 L1166.97,482.746 L1166.97,492.496 M1166.97,452.596 L1166.97,476.896 L1170.77,476.896 L1170.77,452.596 L1166.97,452.596 M1162.87,468.696 C1157.27,469.846 1147.47,470.846 1141.12,470.596 L1141.12,454.846 L1137.32,454.846 L1137.32,473.946 L1139.82,473.946 C1147.42,473.946 1158.47,472.996 1163.32,471.946 L1162.87,468.696 "/>
<polyline class="LyricsLineSegment" fill="none" stroke="#000000" stroke-width="2.48" stroke-linejoin="bevel" points="1048.88,842.402 1068.72,842.402"/>
<path class="NoteDot" transform="matrix(0.992001,0,0,0.992001,1251.56,753.2)" d="M0,0 C0,2.8 2.2,5 5,5 C7.8,5 10,2.8 10,0 C10,-2.8 7.8,-5 5,-5 C2.2,-5 0,-2.8 0,0"/>
<path class="NoteDot" transform="matrix(0.992001,0,0,0.992001,1627.95,1067.2)" d="M0,0 C0,2.8 2.2,5 5,5 C7.8,5 10,2.8 10,0 C10,-2.8 7.8,-5 5,-5 C2.2,-5 0,-2.8 0,0"/>
<path class="NoteDot" transform="matrix(0.992001,0,0,0.992001,1653.77,728.4)" d="M0,0 C0,2.8 2.2,5 5,5 C7.8,5 10,2.8 10,0 C10,-2.8 7.8,-5 5,-5 C2.2,-5 0,-2.8 0,0"/>
<path class="NoteDot" transform="matrix(0.992001,0,0,0.992001,302.047,703.6)" d="M0,0 C0,2.8 2.2,5 5,5 C7.8,5 10,2.8 10,0 C10,-2.8 7.8,-5 5,-5 C2.2,-5 0,-2.8 0,0"/>
<path class="NoteDot" transform="matrix(0.992001,0,0,0.992001,1288.68,364.8)" d="M0,0 C0,2.8 2.2,5 5,5 C7.8,5 10,2.8 10,0 C10,-2.8 7.8,-5 5,-5 C2.2,-5 0,-2.8 0,0"/>
<path class="NoteDot" transform="matrix(0.992001,0,0,0.992001,1234.91,1067.2)" d="M0,0 C0,2.8 2.2,5 5,5 C7.8,5 10,2.8 10,0 C10,-2.8 7.8,-5 5,-5 C2.2,-5 0,-2.8 0,0"/>
<path class="NoteDot" transform="matrix(0.992001,0,0,0.992001,1707.25,340)" d="M0,0 C0,2.8 2.2,5 5,5 C7.8,5 10,2.8 10,0 C10,-2.8 7.8,-5 5,-5 C2.2,-5 0,-2.8 0,0"/>
<path class="NoteDot" transform="matrix(0.992001,0,0,0.992001,302.047,364.8)" d="M0,0 C0,2.8 2.2,5 5,5 C7.8,5 10,2.8 10,0 C10,-2.8 7.8,-5 5,-5 C2.2,-5 0,-2.8 0,0"/>
<path class="NoteDot" transform="matrix(0.992001,0,0,0.992001,694.042,678.8)" d="M0,0 C0,2.8 2.2,5 5,5 C7.8,5 10,2.8 10,0 C10,-2.8 7.8,-5 5,-5 C2.2,-5 0,-2.8 0,0"/>
<path class="NoteDot" transform="matrix(0.992001,0,0,0.992001,739.502,340)" d="M0,0 C0,2.8 2.2,5 5,5 C7.8,5 10,2.8 10,0 C10,-2.8 7.8,-5 5,-5 C2.2,-5 0,-2.8 0,0"/>
<path class="NoteDot" transform="matrix(0.992001,0,0,0.992001,1087.62,389.6)" d="M0,0 C0,2.8 2.2,5 5,5 C7.8,5 10,2.8 10,0 C10,-2.8 7.8,-5 5,-5 C2.2,-5 0,-2.8 0,0"/>
</svg>
