<?xml version="1.0" encoding="UTF-8" standalone="no"?>
<svg
   width="2098.8px"
   height="1418.4px"
   viewBox="0 0 2098.8 1418.4"
   version="1.2"
   id="svg128"
   sodipodi:docname="마니피캇-1.svg"
   inkscape:version="1.3.2 (091e20e, 2023-11-25)"
   xmlns:inkscape="http://www.inkscape.org/namespaces/inkscape"
   xmlns:sodipodi="http://sodipodi.sourceforge.net/DTD/sodipodi-0.dtd"
   xmlns="http://www.w3.org/2000/svg"
   xmlns:svg="http://www.w3.org/2000/svg">
  <defs
     id="defs128" />
  <sodipodi:namedview
     id="namedview128"
     pagecolor="#ffffff"
     bordercolor="#000000"
     borderopacity="0.25"
     inkscape:showpageshadow="2"
     inkscape:pageopacity="0.0"
     inkscape:pagecheckerboard="0"
     inkscape:deskcolor="#d1d1d1"
     inkscape:zoom="0.16638466"
     inkscape:cx="1048.7746"
     inkscape:cy="709.20001"
     inkscape:window-width="1312"
     inkscape:window-height="449"
     inkscape:window-x="0"
     inkscape:window-y="25"
     inkscape:window-maximized="0"
     inkscape:current-layer="svg128" />
  <title
     id="title1">529 마니피캇-수정 (1)</title>
  <desc
     id="desc1">Generated by MuseScore 4.2.1</desc>
  <polyline
     class="StaffLines"
     fill="none"
     stroke="#000000"
     stroke-width="2.73"
     stroke-linejoin="bevel"
     points="192.4,479.171 2030.4,479.171"
     id="polyline1" />
  <polyline
     class="StaffLines"
     fill="none"
     stroke="#000000"
     stroke-width="2.73"
     stroke-linejoin="bevel"
     points="192.4,503.971 2030.4,503.971"
     id="polyline2" />
  <polyline
     class="StaffLines"
     fill="none"
     stroke="#000000"
     stroke-width="2.73"
     stroke-linejoin="bevel"
     points="192.4,528.771 2030.4,528.771"
     id="polyline3" />
  <polyline
     class="StaffLines"
     fill="none"
     stroke="#000000"
     stroke-width="2.73"
     stroke-linejoin="bevel"
     points="192.4,553.571 2030.4,553.571"
     id="polyline4" />
  <polyline
     class="StaffLines"
     fill="none"
     stroke="#000000"
     stroke-width="2.73"
     stroke-linejoin="bevel"
     points="192.4,578.371 2030.4,578.371"
     id="polyline5" />
  <polyline
     class="StaffLines"
     fill="none"
     stroke="#000000"
     stroke-width="2.73"
     stroke-linejoin="bevel"
     points="68.4,1005.2 2030.4,1005.2"
     id="polyline6"
     transform="translate(0,-124)" />
  <polyline
     class="StaffLines"
     fill="none"
     stroke="#000000"
     stroke-width="2.73"
     stroke-linejoin="bevel"
     points="68.4,1030 2030.4,1030"
     id="polyline7"
     transform="translate(0,-124)" />
  <polyline
     class="StaffLines"
     fill="none"
     stroke="#000000"
     stroke-width="2.73"
     stroke-linejoin="bevel"
     points="68.4,1054.8 2030.4,1054.8"
     id="polyline8"
     transform="translate(0,-124)" />
  <polyline
     class="StaffLines"
     fill="none"
     stroke="#000000"
     stroke-width="2.73"
     stroke-linejoin="bevel"
     points="68.4,1079.6 2030.4,1079.6"
     id="polyline9"
     transform="translate(0,-124)" />
  <polyline
     class="StaffLines"
     fill="none"
     stroke="#000000"
     stroke-width="2.73"
     stroke-linejoin="bevel"
     points="68.4,1104.4 2030.4,1104.4"
     id="polyline10"
     transform="translate(0,-124)" />
  <path
     class="MeasureNumber"
     d="m 72.7238,816.28 c -1.24,0.76 -1.6,1.24 -1.6,2.04 0,0.76 0.64,1.32 1.4399,1.32 1.0401,0 1.64,-0.76 1.7601,-2.24 1.2399,-1 2.56,-1.44 4.16,-1.44 2.96,0 4.6,1.84 4.6,5.16 0,5.2 -3.36,9.44 -7.48,9.44 -2.36,0 -4.28,-1.12 -4.28,-2.44 0,-0.24 0.04,-0.32 0.2399,-0.44 1.2801,-0.6 2.3201,-1.04 2.3201,-2.72 0,-1.28 -1,-2.24 -2.4,-2.24 -1.76,0 -3.08,1.48 -3.08,3.4 0,3.52 3.04,6.08 7.32,6.08 6.48,0 11.72,-5.16 11.72,-11.56 0,-4.04 -3.08,-6.88 -7.44,-6.88 -1.72,0 -3.12,0.36 -5.04,1.32 l 2.24,-7.56 c 2.12,0.44 3.8,0.64 5.24,0.64 2.64,0 5,-0.84 6.32,-2.24 0.68,-0.8 1.08,-1.48 1.08,-2 0,-0.24 -0.12,-0.48 -0.2801,-0.48 -0.1199,0 -0.1999,0.04 -0.4399,0.16 -1.32,0.64 -3,1 -4.5601,1 -2.3999,0 -5.2399,-0.4 -8.1999,-1.16 l -3.64,12.84"
     id="path10" />
  <polyline
     class="BarLine"
     fill="none"
     stroke="#000000"
     stroke-width="4.46"
     stroke-linejoin="bevel"
     points="1564.45,1003.84 1564.45,1105.76"
     id="polyline11"
     transform="translate(0,-124)" />
  <polyline
     class="BarLine"
     fill="none"
     stroke="#000000"
     stroke-width="4.46"
     stroke-linejoin="bevel"
     points="1576.96,477.807 1576.96,579.735"
     id="polyline12" />
  <polyline
     class="BarLine"
     fill="none"
     stroke="#000000"
     stroke-width="4.46"
     stroke-linejoin="bevel"
     points="1172.45,1003.84 1172.45,1105.76"
     id="polyline13"
     transform="translate(0,-124)" />
  <polyline
     class="BarLine"
     fill="none"
     stroke="#000000"
     stroke-width="4.46"
     stroke-linejoin="bevel"
     points="547.361,477.807 547.361,579.735"
     id="polyline14" />
  <polyline
     class="BarLine"
     fill="none"
     stroke="#000000"
     stroke-width="4.46"
     stroke-linejoin="bevel"
     points="2028.17,477.807 2028.17,579.735"
     id="polyline15" />
  <polyline
     class="BarLine"
     fill="none"
     stroke="#000000"
     stroke-width="4.46"
     stroke-linejoin="bevel"
     points="1135.97,477.807 1135.97,579.735"
     id="polyline16" />
  <polyline
     class="BarLine"
     fill="none"
     stroke="#000000"
     stroke-width="4.46"
     stroke-linejoin="bevel"
     points="614.937,1003.84 614.937,1105.76"
     id="polyline17"
     transform="translate(0,-124)" />
  <polyline
     class="BarLine"
     fill="none"
     stroke="#000000"
     stroke-width="4.46"
     stroke-linejoin="bevel"
     points="2028.17,1003.84 2028.17,1105.76"
     id="polyline18"
     transform="translate(0,-124)" />
  <path
     class="Accidental"
     transform="matrix(0.992001,0,0,0.992001,1595.31,541.171)"
     d="M12,-15.5 C7,-15.5 4.1,-12.4 3.6,-11.8 L4,-43.9 C4,-44.7 3.4,-45.3 2.6,-45.3 L1.4,-45.3 C0.6,-45.3 0,-44.7 0,-43.9 L0.5,16.2 C0.5,17 1.1,17.6 1.9,17.6 C2.1,17.6 2.5,17.5 2.7,17.4 C11.3,13.1 20.3,4.9 20.3,-5.4 C20.3,-10.6 17.9,-15.5 12,-15.5 M3.3,12.7 L3.6,-6.8 C3.8,-7.7 5.3,-10.6 9.3,-10.6 C12.9,-10.6 13.2,-7.2 13.2,-5.1 C13.2,3.8 9.9,7.5 3.3,12.7"
     id="path18" />
  <path
     class="Accidental"
     d="m 862.70901,965.024 c -4.96,0 -7.83681,3.0752 -8.33281,3.6704 l 0.3968,-31.8432 c 0,-0.7936 -0.5952,-1.3888 -1.3888,-1.3888 h -1.1904 c -0.7936,0 -1.3888,0.5952 -1.3888,1.3888 l 0.496,59.6192 c 0,0.7936 0.5952,1.3888 1.3888,1.3888 0.1984,0 0.5952,-0.099 0.7936,-0.1984 8.53121,-4.2656 17.45922,-12.4 17.45922,-22.6176 0,-5.1584 -2.3808,-10.0192 -8.23361,-10.0192 m -8.63041,27.9744 0.2976,-19.344 c 0.1984,-0.8928 1.68641,-3.7696 5.65441,-3.7696 3.5712,0 3.8688,3.3728 3.8688,5.456 0,8.8288 -3.2736,12.4992 -9.82081,17.6576"
     id="path19"
     style="stroke-width:0.992001" />
  <path
     class="Accidental"
     d="m 1594.704,965.024 c -4.96,0 -7.8368,3.0752 -8.3328,3.6704 l 0.3968,-31.8432 c 0,-0.7936 -0.5952,-1.3888 -1.3888,-1.3888 h -1.1904 c -0.7936,0 -1.3888,0.5952 -1.3888,1.3888 l 0.496,59.6192 c 0,0.7936 0.5952,1.3888 1.3888,1.3888 0.1984,0 0.5952,-0.099 0.7936,-0.1984 8.5312,-4.2656 17.4592,-12.4 17.4592,-22.6176 0,-5.1584 -2.3808,-10.0192 -8.2336,-10.0192 m -8.6304,27.9744 0.2976,-19.344 c 0.1984,-0.8928 1.6864,-3.7696 5.6544,-3.7696 3.5712,0 3.8688,3.3728 3.8688,5.456 0,8.8288 -3.2736,12.4992 -9.8208,17.6576"
     id="path20"
     style="stroke-width:0.992001" />
  <path
     class="Accidental"
     transform="matrix(0.992001,0,0,0.992001,807.366,578.371)"
     d="M12,-15.5 C7,-15.5 4.1,-12.4 3.6,-11.8 L4,-43.9 C4,-44.7 3.4,-45.3 2.6,-45.3 L1.4,-45.3 C0.6,-45.3 0,-44.7 0,-43.9 L0.5,16.2 C0.5,17 1.1,17.6 1.9,17.6 C2.1,17.6 2.5,17.5 2.7,17.4 C11.3,13.1 20.3,4.9 20.3,-5.4 C20.3,-10.6 17.9,-15.5 12,-15.5 M3.3,12.7 L3.6,-6.8 C3.8,-7.7 5.3,-10.6 9.3,-10.6 C12.9,-10.6 13.2,-7.2 13.2,-5.1 C13.2,3.8 9.9,7.5 3.3,12.7"
     id="path21" />
  <polyline
     class="LedgerLine"
     fill="none"
     stroke="#000000"
     stroke-width="3.97"
     stroke-linejoin="bevel"
     points="1470.81,1129.2 1519.41,1129.2"
     id="polyline21"
     transform="translate(0,-124)" />
  <polyline
     class="LedgerLine"
     fill="none"
     stroke="#000000"
     stroke-width="3.97"
     stroke-linejoin="bevel"
     points="411.966,603.171 460.566,603.171"
     id="polyline22" />
  <polyline
     class="LedgerLine"
     fill="none"
     stroke="#000000"
     stroke-width="3.97"
     stroke-linejoin="bevel"
     points="1483.22,603.171 1531.82,603.171"
     id="polyline23" />
  <polyline
     class="LedgerLine"
     fill="none"
     stroke="#000000"
     stroke-width="3.97"
     stroke-linejoin="bevel"
     points="1198.74,1129.2 1247.34,1129.2"
     id="polyline24"
     transform="translate(0,-124)" />
  <polyline
     class="LedgerLine"
     fill="none"
     stroke="#000000"
     stroke-width="3.97"
     stroke-linejoin="bevel"
     points="521.302,1129.2 569.902,1129.2"
     id="polyline25"
     transform="translate(0,-124)" />
  <polyline
     class="Stem"
     fill="none"
     stroke="#000000"
     stroke-width="2.48"
     stroke-linejoin="bevel"
     points="1774.42,1075.63 1774.42,992.998"
     id="polyline26"
     transform="translate(0,-124)" />
  <polyline
     class="Stem"
     fill="none"
     stroke="#000000"
     stroke-width="2.48"
     stroke-linejoin="bevel"
     points="560.478,1137.63 560.478,1055"
     id="polyline27"
     transform="translate(0,-124)" />
  <polyline
     class="Stem"
     fill="none"
     stroke="#000000"
     stroke-width="2.48"
     stroke-linejoin="bevel"
     points="1095.29,574.403 1095.29,504.042"
     id="polyline28" />
  <polyline
     class="Stem"
     fill="none"
     stroke="#000000"
     stroke-width="2.48"
     stroke-linejoin="bevel"
     points="989.673,586.803 989.673,510.1"
     id="polyline29" />
  <polyline
     class="Stem"
     fill="none"
     stroke="#000000"
     stroke-width="2.48"
     stroke-linejoin="bevel"
     points="864.693,574.403 864.693,491.571"
     id="polyline30" />
  <polyline
     class="Stem"
     fill="none"
     stroke="#000000"
     stroke-width="2.48"
     stroke-linejoin="bevel"
     points="1845.05,1088.03 1845.05,1005.2"
     id="polyline31"
     transform="translate(0,-124)" />
  <polyline
     class="Stem"
     fill="none"
     stroke="#000000"
     stroke-width="2.48"
     stroke-linejoin="bevel"
     points="650.649,1058.97 650.649,1129.2"
     id="polyline32"
     transform="translate(0,-124)" />
  <polyline
     class="Stem"
     fill="none"
     stroke="#000000"
     stroke-width="2.48"
     stroke-linejoin="bevel"
     points="1201.43,562.003 1201.43,479.171"
     id="polyline33" />
  <polyline
     class="Stem"
     fill="none"
     stroke="#000000"
     stroke-width="2.48"
     stroke-linejoin="bevel"
     points="288.407,1075.63 288.407,992.8"
     id="polyline34"
     transform="translate(0,-124)" />
  <polyline
     class="Stem"
     fill="none"
     stroke="#000000"
     stroke-width="2.48"
     stroke-linejoin="bevel"
     points="771.259,562.003 771.259,479.37"
     id="polyline35" />
  <polyline
     class="Stem"
     fill="none"
     stroke="#000000"
     stroke-width="2.48"
     stroke-linejoin="bevel"
     points="1640.13,1100.43 1640.13,1017.6"
     id="polyline36"
     transform="translate(0,-124)" />
  <polyline
     class="Stem"
     fill="none"
     stroke="#000000"
     stroke-width="2.48"
     stroke-linejoin="bevel"
     points="1237.92,1125.23 1237.92,1042.4"
     id="polyline37"
     transform="translate(0,-124)" />
  <polyline
     class="Stem"
     fill="none"
     stroke="#000000"
     stroke-width="2.48"
     stroke-linejoin="bevel"
     points="1950.99,1100.43 1950.99,1017.6"
     id="polyline38"
     transform="translate(0,-124)" />
  <polyline
     class="Stem"
     fill="none"
     stroke="#000000"
     stroke-width="2.48"
     stroke-linejoin="bevel"
     points="1522.4,611.603 1522.4,528.97"
     id="polyline39" />
  <polyline
     class="Stem"
     fill="none"
     stroke="#000000"
     stroke-width="2.48"
     stroke-linejoin="bevel"
     points="814.698,1075.63 814.698,992.998"
     id="polyline40"
     transform="translate(0,-124)" />
  <polyline
     class="Stem"
     fill="none"
     stroke="#000000"
     stroke-width="2.48"
     stroke-linejoin="bevel"
     points="1509.99,1125.23 1509.99,1042.6"
     id="polyline41"
     transform="translate(0,-124)" />
  <polyline
     class="Stem"
     fill="none"
     stroke="#000000"
     stroke-width="2.48"
     stroke-linejoin="bevel"
     points="612.826,549.603 612.826,466.771"
     id="polyline42" />
  <polyline
     class="Stem"
     fill="none"
     stroke="#000000"
     stroke-width="2.48"
     stroke-linejoin="bevel"
     points="908.132,1100.43 908.132,1017.6"
     id="polyline43"
     transform="translate(0,-124)" />
  <polyline
     class="Stem"
     fill="none"
     stroke="#000000"
     stroke-width="2.48"
     stroke-linejoin="bevel"
     points="451.142,611.603 451.142,528.771"
     id="polyline44" />
  <polyline
     class="Stem"
     fill="none"
     stroke="#000000"
     stroke-width="2.48"
     stroke-linejoin="bevel"
     points="1652.64,537.203 1652.64,460.571"
     id="polyline45" />
  <polyline
     class="Stem"
     fill="none"
     stroke="#000000"
     stroke-width="2.48"
     stroke-linejoin="bevel"
     points="1973.61,537.203 1973.61,466.682"
     id="polyline46" />
  <polyline
     class="Stem"
     fill="none"
     stroke="#000000"
     stroke-width="2.48"
     stroke-linejoin="bevel"
     points="1014.07,1112.83 1014.07,1030"
     id="polyline47"
     transform="translate(0,-124)" />
  <polyline
     class="Stem"
     fill="none"
     stroke="#000000"
     stroke-width="2.48"
     stroke-linejoin="bevel"
     points="1131.78,1112.83 1131.78,1030"
     id="polyline48"
     transform="translate(0,-124)" />
  <polyline
     class="Stem"
     fill="none"
     stroke="#000000"
     stroke-width="2.48"
     stroke-linejoin="bevel"
     points="1084.7,1100.43 1084.7,1030"
     id="polyline49"
     transform="translate(0,-124)" />
  <polyline
     class="Stem"
     fill="none"
     stroke="#000000"
     stroke-width="2.48"
     stroke-linejoin="bevel"
     points="1890.29,524.803 1890.29,460.661"
     id="polyline50" />
  <path
     class="Note"
     transform="matrix(0.992001,0,0,0.992001,1859.3,528.771)"
     d="M0,4.2 C0,8.5 3.1,13.3 11.2,13.3 C21.6,13.3 32.5,4.8 32.5,-4 C32.5,-9.9 27.5,-13.2 21.3,-13.2 C11.6,-13.2 0,-5 0,4.2"
     id="path50" />
  <path
     class="Note"
     transform="matrix(0.992001,0,0,0.992001,958.68,590.771)"
     d="M0,4.2 C0,8.5 3.1,13.3 11.2,13.3 C21.6,13.3 32.5,4.8 32.5,-4 C32.5,-9.9 27.5,-13.2 21.3,-13.2 C11.6,-13.2 0,-5 0,4.2"
     id="path51" />
  <path
     class="Note"
     d="m 1479,1009.3664 c 0,4.2656 3.0752,9.0272 11.1104,9.0272 10.3168,0 21.1296,-8.432 21.1296,-17.1616 0,-5.8528 -4.96,-9.1264 -11.1104,-9.1264 -9.6224,0 -21.1296,8.1344 -21.1296,17.2608"
     id="path52"
     style="stroke-width:0.992001" />
  <path
     class="Note"
     transform="matrix(0.992001,0,0,0.992001,1621.65,541.171)"
     d="M21.3,-13.2 C11.6,-13.2 0,-5.1 0,4.2 C0,8.5 3.1,13.3 11.2,13.3 C21.6,13.3 32.5,4.8 32.5,-4 C32.5,-9.9 27.5,-13.2 21.3,-13.2 M7.5,8.6 C4.2,8.6 3.5,5.9 3.5,5 C3.5,0.1 20.3,-8.5 25,-8.5 C27.4,-8.5 29,-7.1 29,-4.9 C29,0.1 12.1,8.6 7.5,8.6"
     id="path53" />
  <path
     class="Note"
     transform="matrix(0.992001,0,0,0.992001,1942.62,541.171)"
     d="M0,4.2 C0,8.5 3.1,13.3 11.2,13.3 C21.6,13.3 32.5,4.8 32.5,-4 C32.5,-9.9 27.5,-13.2 21.3,-13.2 C11.6,-13.2 0,-5 0,4.2"
     id="path54" />
  <path
     class="Note"
     transform="matrix(0.992001,0,0,0.992001,1491.41,615.571)"
     d="M0,4.2 C0,8.5 3.1,13.3 11.2,13.3 C21.6,13.3 32.5,4.8 32.5,-4 C32.5,-9.9 27.5,-13.2 21.3,-13.2 C11.6,-13.2 0,-5 0,4.2"
     id="path55" />
  <path
     class="Note"
     d="m 278.54462,942.5056 c -9.62241,0 -21.12962,8.0352 -21.12962,17.2608 0,4.2656 3.0752,9.0272 11.11041,9.0272 10.31681,0 21.12962,-8.432 21.12962,-17.1616 0,-5.8528 -4.96,-9.1264 -11.11041,-9.1264 m -13.68961,21.6256 c -3.27361,0 -3.96801,-2.6784 -3.96801,-3.5712 0,-4.8608 16.66562,-13.392 21.32803,-13.392 2.3808,0 3.968,1.3888 3.968,3.5712 0,4.96 -16.76482,13.392 -21.32802,13.392"
     id="path56"
     style="stroke-width:0.992001" />
  <path
     class="Note"
     d="m 983.079,996.9664 c 0,4.2656 3.0752,9.0272 11.11041,9.0272 10.31679,0 21.12959,-8.432 21.12959,-17.1616 0,-5.8528 -4.96,-9.1264 -11.1104,-9.1264 -9.62239,0 -21.1296,8.1344 -21.1296,17.2608"
     id="path57"
     style="stroke-width:0.992001" />
  <path
     class="Note"
     d="m 1609.13,984.5664 c 0,4.2656 3.0752,9.0272 11.1104,9.0272 10.3168,0 21.1296,-8.432 21.1296,-17.1616 0,-5.8528 -4.96,-9.1264 -11.1104,-9.1264 -9.6224,0 -21.1296,8.1344 -21.1296,17.2608"
     id="path58"
     style="stroke-width:0.992001" />
  <path
     class="Note"
     d="m 1100.79,996.9664 c 0,4.2656 3.0752,9.0272 11.1104,9.0272 10.3168,0 21.1296,-8.432 21.1296,-17.1616 0,-5.8528 -4.96,-9.1264 -11.1104,-9.1264 -9.6224,0 -21.1296,8.1344 -21.1296,17.2608"
     id="path59"
     style="stroke-width:0.992001" />
  <path
     class="Note"
     d="m 877.14,984.5664 c 0,4.2656 3.0752,9.0272 11.11041,9.0272 10.31681,0 21.12962,-8.432 21.12962,-17.1616 0,-5.8528 -4.96,-9.1264 -11.11041,-9.1264 -9.62241,0 -21.12962,8.1344 -21.12962,17.2608"
     id="path60"
     style="stroke-width:0.992001" />
  <path
     class="Note"
     transform="matrix(0.992001,0,0,0.992001,1170.44,565.971)"
     d="M21.3,-13.2 C11.6,-13.2 0,-5.1 0,4.2 C0,8.5 3.1,13.3 11.2,13.3 C21.6,13.3 32.5,4.8 32.5,-4 C32.5,-9.9 27.5,-13.2 21.3,-13.2 M7.5,8.6 C4.2,8.6 3.5,5.9 3.5,5 C3.5,0.1 20.3,-8.5 25,-8.5 C27.4,-8.5 29,-7.1 29,-4.9 C29,0.1 12.1,8.6 7.5,8.6"
     id="path61" />
  <path
     class="Note"
     transform="matrix(0.992001,0,0,0.992001,420.15,615.571)"
     d="M0,4.2 C0,8.5 3.1,13.3 11.2,13.3 C21.6,13.3 32.5,4.8 32.5,-4 C32.5,-9.9 27.5,-13.2 21.3,-13.2 C11.6,-13.2 0,-5 0,4.2"
     id="path62" />
  <path
     class="Note"
     transform="matrix(0.992001,0,0,0.992001,1064.3,578.371)"
     d="M0,4.2 C0,8.5 3.1,13.3 11.2,13.3 C21.6,13.3 32.5,4.8 32.5,-4 C32.5,-9.9 27.5,-13.2 21.3,-13.2 C11.6,-13.2 0,-5 0,4.2"
     id="path63" />
  <path
     class="Note"
     d="m 1920,984.5664 c 0,4.2656 3.0752,9.0272 11.1104,9.0272 10.3168,0 21.1296,-8.432 21.1296,-17.1616 0,-5.8528 -4.96,-9.1264 -11.1104,-9.1264 -9.6224,0 -21.1296,8.1344 -21.1296,17.2608"
     id="path64"
     style="stroke-width:0.992001" />
  <path
     class="Note"
     d="m 1228.0596,992.1056 c -9.6224,0 -21.1296,8.0352 -21.1296,17.2608 0,4.2656 3.0752,9.0272 11.1104,9.0272 10.3168,0 21.1296,-8.432 21.1296,-17.1616 0,-5.8528 -4.96,-9.1264 -11.1104,-9.1264 m -13.6896,21.6256 c -3.2736,0 -3.968,-2.6784 -3.968,-3.5712 0,-4.8608 16.6656,-13.392 21.328,-13.392 2.3808,0 3.968,1.3888 3.968,3.5712 0,4.96 -16.7648,13.392 -21.328,13.392"
     id="path65"
     style="stroke-width:0.992001" />
  <path
     class="Note"
     d="m 783.706,959.7664 c 0,4.2656 3.0752,9.0272 11.11041,9.0272 10.31681,0 21.12962,-8.432 21.12962,-17.1616 0,-5.8528 -4.96,-9.1264 -11.11041,-9.1264 -9.62241,0 -21.12962,8.1344 -21.12962,17.2608"
     id="path66"
     style="stroke-width:0.992001" />
  <path
     class="Note"
     transform="matrix(0.992001,0,0,0.992001,581.833,553.571)"
     d="M0,4.2 C0,8.5 3.1,13.3 11.2,13.3 C21.6,13.3 32.5,4.8 32.5,-4 C32.5,-9.9 27.5,-13.2 21.3,-13.2 C11.6,-13.2 0,-5 0,4.2"
     id="path67" />
  <path
     class="Note"
     d="m 1814.06,972.1664 c 0,4.2656 3.0752,9.0272 11.1104,9.0272 10.3168,0 21.1296,-8.432 21.1296,-17.1616 0,-5.8528 -4.96,-9.1264 -11.1104,-9.1264 -9.6224,0 -21.1296,8.1344 -21.1296,17.2608"
     id="path68"
     style="stroke-width:0.992001" />
  <path
     class="Note"
     d="m 649.409,934.9664 c 0,4.2656 3.0752,9.0272 11.11041,9.0272 10.31681,0 21.12962,-8.432 21.12962,-17.1616 0,-5.8528 -4.96,-9.1264 -11.11041,-9.1264 -9.62241,0 -21.12962,8.1344 -21.12962,17.2608"
     id="path69"
     style="stroke-width:0.992001" />
  <path
     class="Note"
     d="m 529.486,1021.7664 c 0,4.2656 3.0752,9.0272 11.11041,9.0272 10.31681,0 21.12962,-8.432 21.12962,-17.1616 0,-5.8528 -4.96,-9.1264 -11.11041,-9.1264 -9.62241,0 -21.12962,8.1344 -21.12962,17.2608"
     id="path70"
     style="stroke-width:0.992001" />
  <path
     class="Note"
     d="m 1053.71,984.5664 c 0,4.2656 3.0752,9.0272 11.1104,9.0272 10.3168,0 21.1296,-8.432 21.1296,-17.1616 0,-5.8528 -4.96,-9.1264 -11.1104,-9.1264 -9.6224,0 -21.1296,8.1344 -21.1296,17.2608"
     id="path71"
     style="stroke-width:0.992001" />
  <path
     class="Note"
     d="m 1743.43,959.7664 c 0,4.2656 3.0752,9.0272 11.1104,9.0272 10.3168,0 21.1296,-8.432 21.1296,-17.1616 0,-5.8528 -4.96,-9.1264 -11.1104,-9.1264 -9.6224,0 -21.1296,8.1344 -21.1296,17.2608"
     id="path72"
     style="stroke-width:0.992001" />
  <path
     class="Note"
     transform="matrix(0.992001,0,0,0.992001,833.701,578.371)"
     d="M0,4.2 C0,8.5 3.1,13.3 11.2,13.3 C21.6,13.3 32.5,4.8 32.5,-4 C32.5,-9.9 27.5,-13.2 21.3,-13.2 C11.6,-13.2 0,-5 0,4.2"
     id="path73" />
  <path
     class="Note"
     transform="matrix(0.992001,0,0,0.992001,740.267,565.971)"
     d="M0,4.2 C0,8.5 3.1,13.3 11.2,13.3 C21.6,13.3 32.5,4.8 32.5,-4 C32.5,-9.9 27.5,-13.2 21.3,-13.2 C11.6,-13.2 0,-5 0,4.2"
     id="path74" />
  <path
     class="Clef"
     d="m 99.201612,1006.4897 c 0,6.5472 4.960008,15.1776 18.352018,15.1776 4.66241,0 8.72961,-1.1904 12.30081,-3.3728 5.35681,-3.7696 6.74561,-10.3168 6.74561,-16.5665 0,-3.8688 -0.5952,-8.3328 -1.5872,-13.9872 -0.2976,-1.984 -0.8928,-4.96 -1.488,-8.8288 9.72161,-3.1744 16.96321,-13.2928 16.96321,-23.5104 0,-14.9792 -10.61441,-25.0976 -25.09762,-25.0976 -0.992,-5.952 -1.984,-11.8048 -2.7776,-17.36 10.41601,-11.0113 17.65761,-23.4113 17.65761,-39.18408 0,-9.02721 -2.7776,-16.36802 -4.3648,-19.93922 -2.3808,-5.05921 -5.25761,-8.53121 -7.04321,-8.53121 -0.6944,0 -3.7696,1.1904 -7.0432,5.0592 -6.34881,7.53921 -8.13441,20.23682 -8.13441,28.56961 0,5.3568 0.496,10.2176 2.1824,21.328 -0.0992,0.099 -5.25761,5.3568 -7.34081,7.0433 C 99.499213,915.6224 87,927.7248 87,947.5648 c 0,18.5504 16.16962,33.1328 34.62083,33.1328 2.87681,0 5.55521,-0.2976 7.83681,-0.6944 1.8848,9.5232 3.07521,16.4672 3.07521,21.7248 0,10.3169 -5.35681,15.7729 -15.37602,15.7729 -2.3808,0 -4.464,-0.496 -4.6624,-0.496 -0.0992,-0.099 -0.2976,-0.1984 -0.2976,-0.2976 0,-0.1984 0.1984,-0.2976 0.496,-0.2976 4.6624,-0.7936 9.32481,-4.7616 9.32481,-11.1104 0,-5.3569 -4.06721,-11.0113 -11.50722,-11.0113 -6.944,0 -11.308808,5.6544 -11.308808,12.2017 M 119.93443,874.05752 c 0.8928,-3.96801 5.45601,-14.38402 10.61441,-14.38402 1.48801,0 3.86881,4.76161 3.86881,11.70562 0,10.31678 -7.63841,18.05438 -14.48322,24.79998 -0.5952,-3.968 -1.0912,-7.8368 -1.0912,-12.0032 0,-3.6704 0.2976,-7.04318 1.0912,-10.11838 m 8.72961,101.97768 c -1.984,0.3968 -3.8688,0.5952 -5.7536,0.5952 -14.18562,0 -26.28803,-9.92 -26.28803,-24.8992 0,-12.1024 8.53121,-22.9152 17.26082,-30.4544 1.6864,-1.488 3.2736,-2.8768 4.7616,-4.3648 0.8928,5.3568 1.5872,10.0192 2.2816,14.0864 -9.0272,2.6784 -15.17761,12.2016 -15.17761,21.5264 0,6.944 5.456,16.4672 13.39201,16.4672 0.7936,0 1.6864,-0.3968 1.6864,-1.2896 0,-0.8928 -0.992,-1.3888 -2.1824,-2.1824 -3.8688,-2.3808 -6.0512,-4.96 -6.0512,-9.8208 0,-6.0512 4.5632,-10.912 10.31681,-12.3008 l 5.7536,32.6368 m 14.08642,-18.352 c 0,7.0432 -2.87681,14.2848 -9.92001,17.1616 -2.08321,-11.904 -4.76161,-27.6768 -5.45601,-32.0416 8.92801,0 15.37602,6.0512 15.37602,14.88"
     id="path75"
     style="stroke-width:0.992001" />
  <path
     class="Clef"
     transform="matrix(0.992001,0,0,0.992001,211,553.571)"
     d="M12.3,51.3 C12.3,57.9 17.3,66.6 30.8,66.6 C35.5,66.6 39.6,65.4 43.2,63.2 C48.6,59.4 50,52.8 50,46.5 C50,42.6 49.4,38.1 48.4,32.4 C48.1,30.4 47.5,27.4 46.9,23.5 C56.7,20.3 64,10.1 64,-0.2 C64,-15.3 53.3,-25.5 38.7,-25.5 C37.7,-31.5 36.7,-37.4 35.9,-43 C46.4,-54.1 53.7,-66.6 53.7,-82.5 C53.7,-91.6 50.9,-99 49.3,-102.6 C46.9,-107.7 44,-111.2 42.2,-111.2 C41.5,-111.2 38.4,-110 35.1,-106.1 C28.7,-98.5 26.9,-85.7 26.9,-77.3 C26.9,-71.9 27.4,-67 29.1,-55.8 C29,-55.7 23.8,-50.4 21.7,-48.7 C12.6,-40.3 0,-28.1 0,-8.1 C0,10.6 16.3,25.3 34.9,25.3 C37.8,25.3 40.5,25 42.8,24.6 C44.7,34.2 45.9,41.2 45.9,46.5 C45.9,56.9 40.5,62.4 30.4,62.4 C28,62.4 25.9,61.9 25.7,61.9 C25.6,61.8 25.4,61.7 25.4,61.6 C25.4,61.4 25.6,61.3 25.9,61.3 C30.6,60.5 35.3,56.5 35.3,50.1 C35.3,44.7 31.2,39 23.7,39 C16.7,39 12.3,44.7 12.3,51.3 M33.2,-82.2 C34.1,-86.2 38.7,-96.7 43.9,-96.7 C45.4,-96.7 47.8,-91.9 47.8,-84.9 C47.8,-74.5 40.1,-66.7 33.2,-59.9 C32.6,-63.9 32.1,-67.8 32.1,-72 C32.1,-75.7 32.4,-79.1 33.2,-82.2 M42,20.6 C40,21 38.1,21.2 36.2,21.2 C21.9,21.2 9.7,11.2 9.7,-3.9 C9.7,-16.1 18.3,-27 27.1,-34.6 C28.8,-36.1 30.4,-37.5 31.9,-39 C32.8,-33.6 33.5,-28.9 34.2,-24.8 C25.1,-22.1 18.9,-12.5 18.9,-3.1 C18.9,3.9 24.4,13.5 32.4,13.5 C33.2,13.5 34.1,13.1 34.1,12.2 C34.1,11.3 33.1,10.8 31.9,10 C28,7.6 25.8,5 25.8,0.1 C25.8,-6 30.4,-10.9 36.2,-12.3 L42,20.6 M56.2,2.1 C56.2,9.2 53.3,16.5 46.2,19.4 C44.1,7.4 41.4,-8.5 40.7,-12.9 C49.7,-12.9 56.2,-6.8 56.2,2.1"
     id="path76" />
  <path
     class="KeySig"
     d="m 187.18401,915.424 c -4.96,0 -7.83681,3.0752 -8.33281,3.6704 l 0.3968,-31.8432 c 0,-0.7936 -0.5952,-1.3888 -1.3888,-1.3888 h -1.1904 c -0.7936,0 -1.3888,0.5952 -1.3888,1.3888 l 0.496,59.6192 c 0,0.7936 0.5952,1.3888 1.3888,1.3888 0.1984,0 0.5952,-0.099 0.7936,-0.1984 8.53121,-4.2656 17.45922,-12.4 17.45922,-22.6176 0,-5.1584 -2.3808,-10.0192 -8.23361,-10.0192 m -8.63041,27.9744 0.2976,-19.344 c 0.1984,-0.8928 1.68641,-3.7696 5.65441,-3.7696 3.5712,0 3.8688,3.3728 3.8688,5.456 0,8.8288 -3.2736,12.4992 -9.82081,17.6576"
     id="path77"
     style="stroke-width:0.992001" />
  <path
     class="KeySig"
     transform="matrix(0.992001,0,0,0.992001,299.281,528.771)"
     d="M12,-15.5 C7,-15.5 4.1,-12.4 3.6,-11.8 L4,-43.9 C4,-44.7 3.4,-45.3 2.6,-45.3 L1.4,-45.3 C0.6,-45.3 0,-44.7 0,-43.9 L0.5,16.2 C0.5,17 1.1,17.6 1.9,17.6 C2.1,17.6 2.5,17.5 2.7,17.4 C11.3,13.1 20.3,4.9 20.3,-5.4 C20.3,-10.6 17.9,-15.5 12,-15.5 M3.3,12.7 L3.6,-6.8 C3.8,-7.7 5.3,-10.6 9.3,-10.6 C12.9,-10.6 13.2,-7.2 13.2,-5.1 C13.2,3.8 9.9,7.5 3.3,12.7"
     id="path78" />
  <path
     class="TimeSig"
     transform="matrix(0.992001,0,0,0.992001,342.828,503.971)"
     d="M20.8,12.7 L20.8,20.1 L12.5,20.1 C11.8,20.1 11.1,20.7 11.1,21.5 L11.1,23.4 C11.1,24.2 11.8,24.8 12.5,24.8 L42.8,24.8 C43.6,24.8 44.2,24.2 44.2,23.4 L44.2,21.5 C44.2,20.7 43.6,20.1 42.8,20.1 L33.9,20.1 L33.9,12.7 L42.8,12.7 C43.6,12.7 44.2,12 44.2,11.2 L44.2,9.3 C44.2,8.6 43.6,7.9 42.8,7.9 L33.9,7.9 L33.9,-8 C33.9,-8.6 33.6,-9.1 33.1,-9.3 L31.9,-9.9 C31.7,-10 31.4,-10.1 31.2,-10.1 C30.9,-10 30.5,-9.9 30.3,-9.7 L21.2,-1.4 C20.9,-1.1 20.8,-0.7 20.8,-0.3 L20.8,7.9 L9.3,7.9 C9.3,7.9 20.4,-4.1 32.2,-19.9 C32.6,-20.4 32.7,-20.9 32.7,-21.3 C32.7,-21.8 32.5,-22.2 32.4,-22.3 L30.2,-24.5 C30,-24.7 29.6,-24.9 29.2,-24.9 C28.6,-24.9 15.1,-24.9 14.4,-24.9 C13.6,-24.9 13.1,-24.3 13,-23.7 C13,-23.7 12.5,-16.3 9.9,-8.2 C7.3,-0.1 4.3,4.9 1.7,8.6 C1.7,8.6 1.4,9.1 1.4,9.7 C1.4,9.9 1.4,10.1 1.5,10.3 C1.9,11 2.5,12.1 2.5,12.1 C2.5,12.1 2.7,12.7 3.6,12.7 L20.8,12.7 "
     id="path79" />
  <path
     class="TimeSig"
     transform="matrix(0.992001,0,0,0.992001,342.828,553.571)"
     d="M20.8,12.7 L20.8,20.1 L12.5,20.1 C11.8,20.1 11.1,20.7 11.1,21.5 L11.1,23.4 C11.1,24.2 11.8,24.8 12.5,24.8 L42.8,24.8 C43.6,24.8 44.2,24.2 44.2,23.4 L44.2,21.5 C44.2,20.7 43.6,20.1 42.8,20.1 L33.9,20.1 L33.9,12.7 L42.8,12.7 C43.6,12.7 44.2,12 44.2,11.2 L44.2,9.3 C44.2,8.6 43.6,7.9 42.8,7.9 L33.9,7.9 L33.9,-8 C33.9,-8.6 33.6,-9.1 33.1,-9.3 L31.9,-9.9 C31.7,-10 31.4,-10.1 31.2,-10.1 C30.9,-10 30.5,-9.9 30.3,-9.7 L21.2,-1.4 C20.9,-1.1 20.8,-0.7 20.8,-0.3 L20.8,7.9 L9.3,7.9 C9.3,7.9 20.4,-4.1 32.2,-19.9 C32.6,-20.4 32.7,-20.9 32.7,-21.3 C32.7,-21.8 32.5,-22.2 32.4,-22.3 L30.2,-24.5 C30,-24.7 29.6,-24.9 29.2,-24.9 C28.6,-24.9 15.1,-24.9 14.4,-24.9 C13.6,-24.9 13.1,-24.3 13,-23.7 C13,-23.7 12.5,-16.3 9.9,-8.2 C7.3,-0.1 4.3,4.9 1.7,8.6 C1.7,8.6 1.4,9.1 1.4,9.7 C1.4,9.9 1.4,10.1 1.5,10.3 C1.9,11 2.5,12.1 2.5,12.1 C2.5,12.1 2.7,12.7 3.6,12.7 L20.8,12.7 "
     id="path80" />
  <path
     class="Rest"
     d="m 485.34543,910.6624 c -0.0992,0 -0.2976,-0.099 -0.3968,-0.099 -0.5952,0 -1.0912,0.2976 -1.28961,0.7936 -2.2816,4.5632 -7.0432,10.7136 -12.40001,11.7056 1.0912,-1.2896 1.7856,-2.8768 1.7856,-4.7616 0,-3.8688 -3.1744,-7.0432 -7.0432,-7.0432 -3.96801,0 -7.14241,3.1744 -7.14241,7.0432 0,5.3568 5.25761,7.8368 9.92001,7.8368 5.25761,0 8.72961,-2.48 12.10241,-6.1504 l -11.30881,35.3152 2.6784,0.7936 13.88802,-43.7472 c 0.0992,-0.099 0.0992,-0.2976 0.0992,-0.496 0,-0.496 -0.2976,-0.8928 -0.8928,-1.1904"
     id="path81"
     style="stroke-width:0.992001" />
  <path
     class="Rest"
     d="m 1434.8564,910.6624 c -0.099,0 -0.2976,-0.099 -0.3968,-0.099 -0.5952,0 -1.0912,0.2976 -1.2896,0.7936 -2.2816,4.5632 -7.0432,10.7136 -12.4,11.7056 1.0912,-1.2896 1.7856,-2.8768 1.7856,-4.7616 0,-3.8688 -3.1744,-7.0432 -7.0432,-7.0432 -3.968,0 -7.1424,3.1744 -7.1424,7.0432 0,5.3568 5.2576,7.8368 9.92,7.8368 5.2576,0 8.7296,-2.48 12.1024,-6.1504 l -11.3088,35.3152 2.6784,0.7936 13.888,-43.7472 c 0.099,-0.099 0.099,-0.2976 0.099,-0.496 0,-0.496 -0.2976,-0.8928 -0.8928,-1.1904"
     id="path82"
     style="stroke-width:0.992001" />
  <path
     class="Rest"
     transform="matrix(0.992001,0,0,0.992001,1408.09,528.771)"
     d="M26.7,-20.3 C26.6,-20.3 26.4,-20.4 26.3,-20.4 C25.7,-20.4 25.2,-20.1 25,-19.6 C22.7,-15 17.9,-8.8 12.5,-7.8 C13.6,-9.1 14.3,-10.7 14.3,-12.6 C14.3,-16.5 11.1,-19.7 7.2,-19.7 C3.2,-19.7 0,-16.5 0,-12.6 C0,-7.2 5.3,-4.7 10,-4.7 C15.3,-4.7 18.8,-7.2 22.2,-10.9 L10.8,24.7 L13.5,25.5 L27.5,-18.6 C27.6,-18.7 27.6,-18.9 27.6,-19.1 C27.6,-19.6 27.3,-20 26.7,-20.3"
     id="path83" />
  <path
     class="Beam"
     fill-rule="evenodd"
     d="M988.433,503.961 L1096.53,497.761 L1096.53,510.181 L988.433,516.382 L988.433,503.961 "
     id="path84" />
  <path
     class="Beam"
     fill-rule="evenodd"
     d="M1096.53,516.361 L1069.25,517.926 L1069.25,530.346 L1096.53,528.782 L1096.53,516.361 "
     id="path85" />
  <path
     class="Beam"
     fill-rule="evenodd"
     d="m 1012.83,899.8 h 120.19 v 12.4 h -120.19 v -12.4"
     id="path86" />
  <path
     class="Beam"
     fill-rule="evenodd"
     d="m 1083.46,918.4 h 49.56 v 12.4 h -49.56 v -12.4"
     id="path87" />
  <path
     class="Beam"
     fill-rule="evenodd"
     d="M1889.05,454.355 L1974.85,460.555 L1974.85,472.987 L1889.05,466.787 L1889.05,454.355 "
     id="path88" />
  <path
     class="Hook"
     transform="matrix(0.992001,0,0,0.992001,770.019,479.171)"
     d="M0,22.7 C0,23 0.1,23.6 0.8,23.8 C5.1,25.2 13.7,30.6 20.2,41.7 C22,44.8 24.9,49.1 24.9,57.4 C24.9,64.6 23.1,72 20.4,79.2 C20.2,79.8 20.1,80.3 20.1,80.7 C20.1,81.4 20.5,81.7 21.2,81.7 C21.8,81.7 22.3,81.3 22.7,80.6 C27.2,72.6 28.9,63.3 28.9,54.2 C28.4,41.3 21,31.8 21,31.8 C21.3,31.8 11.8,19.5 9.1,15.3 C5.4,9.6 3.7,3.9 3.5,3.5 C3.4,3.2 2.5,-0.4 2.5,-0.4 C2.4,-0.8 1.9,-1.2 1.3,-1.2 C0.6,-1.2 0,-0.6 0,0.1 L0,22.7 "
     id="path89" />
  <path
     class="Hook"
     d="m 1773.18,891.3184 c 0,0.2976 0.099,0.8928 0.7936,1.0912 4.2656,1.3888 12.7968,6.7456 19.2448,17.7568 1.7856,3.0752 4.6624,7.3408 4.6624,15.5745 0,7.1424 -1.7856,14.4832 -4.464,21.6256 -0.1984,0.5952 -0.2976,1.0912 -0.2976,1.488 0,0.6944 0.3968,0.992 1.0912,0.992 0.5952,0 1.0912,-0.3968 1.488,-1.0912 4.464,-7.936 6.1504,-17.1616 6.1504,-26.1888 -0.496,-12.7969 -7.8368,-22.2209 -7.8368,-22.2209 0.2976,0 -9.1264,-12.2016 -11.8048,-16.368 -3.6704,-5.6544 -5.3568,-11.3088 -5.5552,-11.7056 -0.099,-0.2976 -0.992,-3.8688 -0.992,-3.8688 -0.099,-0.3968 -0.5952,-0.7936 -1.1904,-0.7936 -0.6944,0 -1.2896,0.5952 -1.2896,1.2896 v 22.4192"
     id="path90"
     style="stroke-width:0.992001" />
  <path
     class="Hook"
     d="m 813.458,891.3184 c 0,0.2976 0.0992,0.8928 0.7936,1.0912 4.26561,1.3888 12.79681,6.7456 19.24482,17.7568 1.7856,3.0752 4.6624,7.3408 4.6624,15.5745 0,7.1424 -1.7856,14.4832 -4.464,21.6256 -0.1984,0.5952 -0.2976,1.0912 -0.2976,1.488 0,0.6944 0.3968,0.992 1.0912,0.992 0.5952,0 1.0912,-0.3968 1.488,-1.0912 4.46401,-7.936 6.15041,-17.1616 6.15041,-26.1888 -0.496,-12.7969 -7.83681,-22.2209 -7.83681,-22.2209 0.2976,0 -9.12641,-12.2016 -11.80481,-16.368 -3.6704,-5.6544 -5.35681,-11.3088 -5.55521,-11.7056 -0.0992,-0.2976 -0.992,-3.8688 -0.992,-3.8688 -0.0992,-0.3968 -0.5952,-0.7936 -1.1904,-0.7936 -0.6944,0 -1.2896,0.5952 -1.2896,1.2896 v 22.4192"
     id="path91"
     style="stroke-width:0.992001" />
  <path
     class="Hook"
     d="m 559.238,953.3184 c 0,0.2976 0.0992,0.8928 0.7936,1.0912 4.26561,1.3888 12.79681,6.7456 19.24482,17.7568 1.7856,3.0752 4.6624,7.3408 4.6624,15.5745 0,7.1424 -1.7856,14.4832 -4.464,21.6256 -0.1984,0.5952 -0.2976,1.0912 -0.2976,1.488 0,0.6944 0.3968,0.992 1.0912,0.992 0.5952,0 1.0912,-0.3968 1.488,-1.0912 4.46401,-7.936 6.15041,-17.1616 6.15041,-26.1888 -0.496,-12.7969 -7.83681,-22.2209 -7.83681,-22.2209 0.2976,0 -9.12641,-12.2016 -11.80481,-16.368 -3.6704,-5.6544 -5.35681,-11.3088 -5.55521,-11.7056 -0.0992,-0.2976 -0.992,-3.8688 -0.992,-3.8688 -0.0992,-0.3968 -0.5952,-0.7936 -1.1904,-0.7936 -0.6944,0 -1.2896,0.5952 -1.2896,1.2896 v 22.4192"
     id="path92"
     style="stroke-width:0.992001" />
  <path
     class="Hook"
     d="m 1508.75,940.9184 c 0,0.2976 0.099,0.8928 0.7936,1.0912 4.2656,1.3888 12.7968,6.7456 19.2448,17.7568 1.7856,3.0752 4.6624,7.3408 4.6624,15.5745 0,7.1424 -1.7856,14.4832 -4.464,21.6256 -0.1984,0.5952 -0.2976,1.0912 -0.2976,1.488 0,0.6944 0.3968,0.992 1.0912,0.992 0.5952,0 1.0912,-0.3968 1.488,-1.0912 4.464,-7.936 6.1504,-17.1616 6.1504,-26.1888 -0.496,-12.7969 -7.8368,-22.2209 -7.8368,-22.2209 0.2976,0 -9.1264,-12.2016 -11.8048,-16.368 -3.6704,-5.6544 -5.3568,-11.3088 -5.5552,-11.7056 -0.099,-0.2976 -0.992,-3.8688 -0.992,-3.8688 -0.099,-0.3968 -0.5952,-0.7936 -1.1904,-0.7936 -0.6944,0 -1.2896,0.5952 -1.2896,1.2896 v 22.4192"
     id="path93"
     style="stroke-width:0.992001" />
  <path
     class="Hook"
     transform="matrix(0.992001,0,0,0.992001,1521.16,528.771)"
     d="M0,22.7 C0,23 0.1,23.6 0.8,23.8 C5.1,25.2 13.7,30.6 20.2,41.7 C22,44.8 24.9,49.1 24.9,57.4 C24.9,64.6 23.1,72 20.4,79.2 C20.2,79.8 20.1,80.3 20.1,80.7 C20.1,81.4 20.5,81.7 21.2,81.7 C21.8,81.7 22.3,81.3 22.7,80.6 C27.2,72.6 28.9,63.3 28.9,54.2 C28.4,41.3 21,31.8 21,31.8 C21.3,31.8 11.8,19.5 9.1,15.3 C5.4,9.6 3.7,3.9 3.5,3.5 C3.4,3.2 2.5,-0.4 2.5,-0.4 C2.4,-0.8 1.9,-1.2 1.3,-1.2 C0.6,-1.2 0,-0.6 0,0.1 L0,22.7 "
     id="path94" />
  <path
     class="Lyrics"
     d="m 1089.56,1093.28 v -3.2 h -39.45 v 3.2 h 39.45 m -4.75,-15.4 v -3.15 h -25.8 v -15.15 h -3.8 v 18.3 h 29.6"
     id="path95" />
  <path
     class="Lyrics"
     d="m 1019.67,1077.43 v -3.2 h -7.1 v -18.45 h -3.8 v 43.7 h 3.8 v -22.05 h 7.1 m -21.55,-15.4 v -3.25 h -12.85 v 3.25 h 12.85 m 6.45,7.4 v -3.15 h -25.8 v 3.15 h 25.8 m -2.6,11.85 c 0,-5.15 -4.1,-9.05 -10.2,-9.05 -6.1,0 -10.2,3.95 -10.2,9.05 0,5.1 4.1,9 10.2,9 6.1,0 10.2,-3.95 10.2,-9 m -3.8,0 c 0,3.4 -2.65,5.85 -6.4,5.85 -3.65,0 -6.4,-2.45 -6.4,-5.85 0,-3.45 2.75,-5.85 6.4,-5.85 3.7,0 6.4,2.4 6.4,5.85"
     id="path96" />
  <path
     class="Lyrics"
     d="m 911.147,1073.38 c -6.7,-0.75 -15.65,-5.2 -15.85,-11.35 h 14.05 v -3.15 h -32.2 v 3.15 h 14.15 c -0.2,6.1 -8.65,10.7 -15.8,11.45 l 1.75,3.2 c 7.45,-1.25 14.25,-5.75 16,-9.85 2,4.1 8.95,8.5 16.1,9.75 l 1.8,-3.2 m -16.05,26.1 v -15.65 h 17.9 v -3.2 h -39.45 v 3.2 h 17.75 v 15.65 h 3.8"
     id="path97" />
  <path
     class="Lyrics"
     d="m 1133.65,1098.83 v -16 H 1105 v 16 h 28.65 m -3.8,-3.15 h -21.05 v -9.75 h 21.05 v 9.75 m 0,-39.9 v 24.3 h 3.8 v -24.3 h -3.8 m -4.1,16.1 c -5.6,1.15 -15.4,2.15 -21.75,1.9 v -15.75 h -3.8 v 19.1 h 2.5 c 7.6,0 18.65,-0.95 23.5,-2 l -0.45,-3.25"
     id="path98" />
  <path
     class="Lyrics"
     d="m 818.816,1099.48 v -43.7 h -3.75 v 43.7 h 3.75 m -8.65,-2.2 v -40.45 h -3.7 v 14.7 h -7.75 v 3.2 h 7.75 v 22.55 h 3.7 m -6.35,-11.6 c -4.75,-3.15 -9.85,-9.5 -9.85,-18 v -7.85 h -3.75 v 7.95 c 0,8.55 -4.4,16 -9.35,19.15 l 2.35,2.85 c 4.35,-3.15 7.95,-8.85 8.9,-13.85 1.4,4.95 6,10.15 9.35,12.55 l 2.35,-2.8"
     id="path99" />
  <path
     class="Lyrics"
     d="m 680.116,1059.03 h -29.65 v 3.15 h 25.7 c 0,4.3 -0.25,11.5 -1.45,16.2 h -28.9 v 3.2 h 17.8 v 17.9 h 3.8 v -17.9 h 17.85 v -3.2 h -6.75 c 1.45,-6.75 1.6,-13.4 1.6,-19.35"
     id="path100" />
  <path
     class="Lyrics"
     d="M453.75,697.467 L453.75,653.767 L450,653.767 L450,671.167 L444.25,671.167 L444.25,654.817 L440.55,654.817 L440.55,695.217 L444.25,695.217 L444.25,674.367 L450,674.367 L450,697.467 L453.75,697.467 M437.6,681.267 C434.4,682.117 427.15,682.717 422.6,682.617 L422.6,658.567 L418.8,658.567 L418.8,685.917 L422.15,685.917 C427.7,685.917 434.4,685.317 438.05,684.467 L437.6,681.267 "
     id="path101" />
  <path
     class="Lyrics"
     d="m 563.086,1099.48 v -43.7 h -3.75 v 17.4 h -5.75 v -16.35 h -3.7 v 40.4 h 3.7 v -20.85 h 5.75 v 23.1 h 3.75 m -16.15,-16.2 c -3.2,0.85 -10.45,1.45 -15,1.35 v -24.05 h -3.8 v 27.35 h 3.35 c 5.55,0 12.25,-0.6 15.9,-1.45 l -0.45,-3.2"
     id="path102" />
  <path
     class="Lyrics"
     d="m 1849.91,1081.53 v -3.2 h -39.45 v 3.2 h 39.45 m -4.2,17 v -3.15 h -26.3 v -9.75 h -3.8 v 12.9 h 30.1 m -0.2,-25.65 v -3.15 h -25.95 v -12.1 h -3.8 v 15.25 h 29.75"
     id="path103" />
  <path
     class="Lyrics"
     d="m 1242.78,1077.88 v -3.2 h -39.45 v 3.2 h 39.45 m -4.4,-13.9 c 0,-4.8 -5.8,-7.6 -15.3,-7.6 -9.4,0 -15.2,2.8 -15.2,7.6 0,4.8 5.8,7.55 15.2,7.55 9.5,0 15.3,-2.75 15.3,-7.55 m -15.3,-4.5 c 6.95,0 11.45,1.75 11.45,4.5 0,2.7 -4.5,4.4 -11.45,4.4 -6.85,0 -11.3,-1.7 -11.3,-4.4 0,-2.75 4.45,-4.5 11.3,-4.5 m 16.2,39.6 v -3.1 h -27.55 v -4.4 h 26.1 v -9.8 h -30 v 3.05 h 26.2 v 3.85 h -26.1 v 10.4 h 31.35"
     id="path104" />
  <path
     class="Lyrics"
     d="m 278.609,1069.13 h 8.3 v 9.1 h -8.3 v 3.15 h 8.3 v 18.1 h 3.8 v -43.7 h -3.8 v 10.2 h -8.3 v 3.15 m -2.45,19.3 v -28.25 h -19.8 v 28.25 h 19.8 m -3.8,-3.15 h -12.2 v -21.95 h 12.2 v 21.95"
     id="path105" />
  <path
     class="Lyrics"
     d="m 1953.74,1099.48 v -43.7 h -3.8 v 43.7 h 3.8 m -12.85,-39.05 h -20.8 v 3.2 h 16.75 c -0.8,9.85 -7.3,19.35 -18.35,24.2 l 2.2,3 c 11.3,-5.35 20,-16.2 20.2,-30.4"
     id="path106" />
  <path
     class="Lyrics"
     d="M1974.47,668.417 C1974.47,661.217 1968.22,656.517 1958.67,656.517 C1949.27,656.517 1942.97,661.217 1942.97,668.417 C1942.97,675.117 1948.42,679.617 1956.77,680.217 L1956.77,688.517 L1939.02,688.517 L1939.02,691.717 L1978.47,691.717 L1978.47,688.517 L1960.57,688.517 L1960.57,680.217 C1968.97,679.667 1974.47,675.117 1974.47,668.417 M1970.82,668.467 C1970.82,673.717 1966.02,677.167 1958.67,677.167 C1951.42,677.167 1946.67,673.717 1946.67,668.467 C1946.67,663.217 1951.42,659.717 1958.67,659.717 C1966.07,659.717 1970.82,663.217 1970.82,668.467"
     id="path107" />
  <path
     class="Lyrics"
     d="M1895.89,675.417 L1895.89,672.217 L1888.79,672.217 L1888.79,653.767 L1884.99,653.767 L1884.99,697.467 L1888.79,697.467 L1888.79,675.417 L1895.89,675.417 M1874.34,660.017 L1874.34,656.767 L1861.49,656.767 L1861.49,660.017 L1874.34,660.017 M1880.79,667.417 L1880.79,664.267 L1854.99,664.267 L1854.99,667.417 L1880.79,667.417 M1878.19,679.267 C1878.19,674.117 1874.09,670.217 1867.99,670.217 C1861.89,670.217 1857.79,674.167 1857.79,679.267 C1857.79,684.367 1861.89,688.267 1867.99,688.267 C1874.09,688.267 1878.19,684.317 1878.19,679.267 M1874.39,679.267 C1874.39,682.667 1871.74,685.117 1867.99,685.117 C1864.34,685.117 1861.59,682.667 1861.59,679.267 C1861.59,675.817 1864.34,673.417 1867.99,673.417 C1871.69,673.417 1874.39,675.817 1874.39,679.267"
     id="path108" />
  <path
     class="Lyrics"
     d="M1657.68,669.967 L1651.03,669.967 L1651.03,663.717 L1657.68,663.717 L1657.68,660.517 L1651.03,660.517 L1651.03,653.767 L1647.23,653.767 L1647.23,680.117 L1651.03,680.117 L1651.03,673.117 L1657.68,673.117 L1657.68,669.967 M1651.38,688.967 C1651.38,684.017 1646.43,680.567 1636.88,680.567 C1627.38,680.567 1622.48,683.917 1622.48,688.967 C1622.48,693.967 1627.38,697.367 1636.88,697.367 C1646.43,697.367 1651.38,693.967 1651.38,688.967 M1636.88,683.717 C1643.48,683.717 1647.48,685.767 1647.48,688.967 C1647.48,692.217 1643.48,694.217 1636.88,694.217 C1630.28,694.217 1626.38,692.117 1626.38,688.967 C1626.38,685.817 1630.28,683.717 1636.88,683.717 M1629.23,656.167 C1622.98,656.167 1617.88,660.367 1617.88,666.717 C1617.88,673.117 1622.98,677.067 1629.23,677.067 C1635.43,677.067 1640.53,673.117 1640.53,666.667 C1640.53,660.367 1635.43,656.167 1629.23,656.167 M1629.23,659.267 C1633.83,659.267 1636.88,662.367 1636.88,666.717 C1636.88,671.017 1633.78,673.967 1629.23,673.967 C1624.83,673.967 1621.58,671.017 1621.58,666.667 C1621.58,662.367 1624.83,659.267 1629.23,659.267"
     id="path109" />
  <path
     class="Lyrics"
     d="m 1513.95,1091.33 c 0,-4.95 -5.55,-8.05 -14.9,-8.05 -9.35,0 -14.85,3.1 -14.85,8.05 0,4.95 5.5,8.05 14.85,8.05 9.35,0 14.9,-3.1 14.9,-8.05 m -0.4,-7.95 v -27.6 h -3.8 v 11.55 h -5.45 v -10.75 h -3.7 v 24.65 h 3.7 v -10.7 h 5.45 v 12.85 h 3.8 m -14.5,3.1 c 6.7,0 10.85,1.9 10.85,4.85 0,3 -4.15,4.9 -10.85,4.9 -6.65,0 -10.85,-1.9 -10.85,-4.9 0,-2.95 4.2,-4.85 10.85,-4.85 m -0.25,-9.85 c -4.15,-1.8 -9.45,-6.25 -9.45,-12.95 v -5.35 h -3.7 v 5.45 c 0,6.55 -4.7,11.85 -9.35,14.35 l 2.35,2.9 c 4.05,-2.35 7.85,-7.05 8.95,-10.6 1.5,3.4 5.25,7.25 9.15,9.1 l 2.05,-2.9"
     id="path110" />
  <path
     class="Lyrics"
     d="M615.662,689.267 C615.662,684.067 610.312,680.917 600.762,680.917 C591.262,680.917 585.912,684.067 585.912,689.267 C585.912,694.317 591.262,697.567 600.762,697.567 C610.312,697.567 615.662,694.317 615.662,689.267 M603.862,673.667 L611.812,673.667 L611.812,680.817 L615.612,680.817 L615.612,653.767 L611.812,653.767 L611.812,659.567 L603.862,659.567 L603.862,662.817 L611.812,662.817 L611.812,670.417 L603.862,670.417 L603.862,673.667 M611.762,689.267 C611.762,692.467 607.712,694.317 600.762,694.317 C593.962,694.317 589.862,692.467 589.862,689.267 C589.862,686.017 593.962,684.117 600.762,684.117 C607.712,684.117 611.762,686.017 611.762,689.267 M591.512,656.417 C585.362,656.417 580.262,660.617 580.262,666.917 C580.262,673.267 585.412,677.267 591.512,677.267 C597.662,677.267 602.712,673.267 602.712,666.867 C602.712,660.517 597.662,656.417 591.512,656.417 M591.512,659.667 C596.012,659.667 598.912,662.567 598.912,666.917 C598.912,671.317 595.962,674.167 591.512,674.167 C587.212,674.167 584.062,671.317 584.062,666.867 C584.062,662.517 587.212,659.667 591.512,659.667"
     id="path111" />
  <path
     class="Lyrics"
     d="M1488.34,666.417 L1498.14,666.417 L1498.14,666.717 C1498.14,672.267 1492.94,677.567 1487.09,679.317 L1489.19,682.217 C1494.19,680.467 1498.74,676.117 1500.19,672.217 C1502.24,676.167 1506.84,679.767 1510.69,680.967 L1512.64,677.967 C1507.49,676.717 1502.14,672.117 1502.14,666.617 L1502.14,666.417 L1511.79,666.417 L1511.79,663.317 L1488.34,663.317 L1488.34,666.417 M1527.99,670.617 L1527.99,667.417 L1521.34,667.417 L1521.34,653.767 L1517.54,653.767 L1517.54,685.517 L1521.34,685.517 L1521.34,670.617 L1527.99,670.617 M1523.04,696.067 L1523.04,692.867 L1497.79,692.867 L1497.79,683.417 L1493.99,683.417 L1493.99,696.067 L1523.04,696.067 M1494.04,659.067 L1506.24,659.067 L1506.24,655.817 L1494.04,655.817 L1494.04,659.067 "
     id="path112" />
  <path
     class="Lyrics"
     d="M1206.3,675.867 L1206.3,672.667 L1166.85,672.667 L1166.85,675.867 L1206.3,675.867 M1201.9,661.967 C1201.9,657.167 1196.1,654.367 1186.6,654.367 C1177.2,654.367 1171.4,657.167 1171.4,661.967 C1171.4,666.767 1177.2,669.517 1186.6,669.517 C1196.1,669.517 1201.9,666.767 1201.9,661.967 M1186.6,657.467 C1193.55,657.467 1198.05,659.217 1198.05,661.967 C1198.05,664.667 1193.55,666.367 1186.6,666.367 C1179.75,666.367 1175.3,664.667 1175.3,661.967 C1175.3,659.217 1179.75,657.467 1186.6,657.467 M1202.8,697.067 L1202.8,693.967 L1175.25,693.967 L1175.25,689.567 L1201.35,689.567 L1201.35,679.767 L1171.35,679.767 L1171.35,682.817 L1197.55,682.817 L1197.55,686.667 L1171.45,686.667 L1171.45,697.067 L1202.8,697.067 "
     id="path113" />
  <path
     class="Lyrics"
     d="M769.623,670.517 C769.623,666.467 764.873,664.317 756.423,664.317 C747.973,664.317 743.273,666.467 743.273,670.517 C743.273,674.267 747.223,676.367 754.423,676.717 L754.423,679.967 L736.673,679.967 L736.673,683.117 L776.123,683.117 L776.123,679.967 L758.223,679.967 L758.223,676.717 C765.523,676.417 769.623,674.267 769.623,670.517 M771.773,696.167 L771.773,693.017 L745.623,693.017 L745.623,685.417 L741.823,685.417 L741.823,696.167 L771.773,696.167 M773.673,662.567 L773.673,659.467 L739.123,659.467 L739.123,662.567 L773.673,662.567 M765.673,670.567 C765.673,672.817 761.773,673.717 756.423,673.717 C751.123,673.717 747.223,672.817 747.223,670.567 C747.223,668.217 751.123,667.367 756.423,667.367 C761.773,667.367 765.673,668.217 765.673,670.567 M764.073,657.267 L764.073,654.117 L749.023,654.117 L749.023,657.267 L764.073,657.267 "
     id="path114" />
  <path
     class="Lyrics"
     d="M1097.16,696.817 L1097.16,680.817 L1068.51,680.817 L1068.51,696.817 L1097.16,696.817 M1093.36,693.667 L1072.31,693.667 L1072.31,683.917 L1093.36,683.917 L1093.36,693.667 M1093.36,653.767 L1093.36,678.067 L1097.16,678.067 L1097.16,653.767 L1093.36,653.767 M1089.26,669.867 C1083.66,671.017 1073.86,672.017 1067.51,671.767 L1067.51,656.017 L1063.71,656.017 L1063.71,675.117 L1066.21,675.117 C1073.81,675.117 1084.86,674.167 1089.71,673.117 L1089.26,669.867 "
     id="path115" />
  <path
     class="Lyrics"
     d="m 1780.02,1077.43 v -3.2 h -7.1 v -18.45 h -3.8 v 43.7 h 3.8 v -22.05 h 7.1 m -21.55,-15.4 v -3.25 h -12.85 v 3.25 h 12.85 m 6.45,7.4 v -3.15 h -25.8 v 3.15 h 25.8 m -2.6,11.85 c 0,-5.15 -4.1,-9.05 -10.2,-9.05 -6.1,0 -10.2,3.95 -10.2,9.05 0,5.1 4.1,9 10.2,9 6.1,0 10.2,-3.95 10.2,-9 m -3.8,0 c 0,3.4 -2.65,5.85 -6.4,5.85 -3.65,0 -6.4,-2.45 -6.4,-5.85 0,-3.45 2.75,-5.85 6.4,-5.85 3.7,0 6.4,2.4 6.4,5.85"
     id="path116" />
  <path
     class="Lyrics"
     d="m 1645.46,1070.03 v -3.2 h -6.65 v -11.05 h -3.8 v 25.95 h 3.8 v -11.7 h 6.65 m -35.6,14 v 3.15 h 25.15 v 12.6 h 3.8 v -15.75 h -28.95 m 16.8,-25.25 h -19.85 v 3.25 h 15.7 c -1.2,7.4 -8.7,13.9 -17.45,15.85 l 2.05,3.2 c 11.1,-3.45 18.7,-10.9 19.55,-22.3"
     id="path117" />
  <path
     class="Lyrics"
     d="M992.687,671.367 C985.987,670.617 977.037,666.167 976.837,660.017 L990.887,660.017 L990.887,656.867 L958.687,656.867 L958.687,660.017 L972.837,660.017 C972.637,666.117 964.187,670.717 957.037,671.467 L958.787,674.667 C966.237,673.417 973.037,668.917 974.787,664.817 C976.787,668.917 983.737,673.317 990.887,674.567 L992.687,671.367 M976.637,697.467 L976.637,681.817 L994.537,681.817 L994.537,678.617 L955.087,678.617 L955.087,681.817 L972.837,681.817 L972.837,697.467 L976.637,697.467 "
     id="path118" />
  <path
     class="Lyrics"
     d="M867.073,697.467 L867.073,653.767 L863.273,653.767 L863.273,697.467 L867.073,697.467 M832.573,672.467 C832.573,681.767 836.673,687.967 843.823,687.967 C851.073,687.967 855.123,681.767 855.123,672.517 C855.123,663.267 851.073,657.067 843.823,657.067 C836.673,657.067 832.573,663.267 832.573,672.467 M851.523,672.517 C851.523,679.667 848.473,684.667 843.823,684.667 C839.223,684.667 836.173,679.667 836.173,672.517 C836.173,665.317 839.223,660.367 843.823,660.367 C848.473,660.367 851.523,665.317 851.523,672.517"
     id="path119" />
  <path
     class="StaffText"
     d="m 287.177,820.3 h -29.75 v 2.35 h 0.9 c 2.85,0.05 3.8,0.2 4.2,0.7 0.3,0.45 0.3,0.55 0.3,3.1 v 23.8 c 0,2.55 0,2.65 -0.3,3.1 -0.4,0.5 -1.35,0.7 -4.2,0.7 h -0.9 v 2.35 h 17.15 v -2.35 h -1.65 c -2.85,0 -3.8,-0.2 -4.2,-0.7 -0.3,-0.45 -0.3,-0.6 -0.3,-3.1 V 838.9 h 1 c 5.15,-0.2 7,1.65 7.2,7.2 h 2.35 v -16.4 h -2.35 c -0.3,4.9 -2.25,6.8 -7,6.85 h -1.2 v -11.4 c -0.05,-2.1 0.45,-2.45 3.15,-2.5 h 2.3 c 8.2,-0.05 10.25,1.8 11.8,10.4 h 2.2 l -0.7,-12.75"
     id="path120" />
  <path
     class="NoteDot"
     transform="matrix(0.992001,0,0,0.992001,1003.31,590.771)"
     d="M0,0 C0,2.8 2.2,5 5,5 C7.8,5 10,2.8 10,0 C10,-2.8 7.8,-5 5,-5 C2.2,-5 0,-2.8 0,0"
     id="path121" />
  <path
     class="NoteDot"
     d="m 1653.77,968 c 0,2.7776 2.1824,4.96 4.96,4.96 2.7776,0 4.96,-2.1824 4.96,-4.96 0,-2.7776 -2.1824,-4.96 -4.96,-4.96 -2.7776,0 -4.96,2.1824 -4.96,4.96"
     id="path122"
     style="stroke-width:0.992001" />
  <path
     class="NoteDot"
     transform="matrix(0.992001,0,0,0.992001,1215.07,565.971)"
     d="M0,0 C0,2.8 2.2,5 5,5 C7.8,5 10,2.8 10,0 C10,-2.8 7.8,-5 5,-5 C2.2,-5 0,-2.8 0,0"
     id="path123" />
  <path
     class="NoteDot"
     transform="matrix(0.992001,0,0,0.992001,1666.28,541.171)"
     d="M0,0 C0,2.8 2.2,5 5,5 C7.8,5 10,2.8 10,0 C10,-2.8 7.8,-5 5,-5 C2.2,-5 0,-2.8 0,0"
     id="path124" />
  <path
     class="NoteDot"
     d="m 1251.56,992.8 c 0,2.7776 2.1824,4.96 4.96,4.96 2.7776,0 4.96,-2.1824 4.96,-4.96 0,-2.7776 -2.1824,-4.96 -4.96,-4.96 -2.7776,0 -4.96,2.1824 -4.96,4.96"
     id="path125"
     style="stroke-width:0.992001" />
  <path
     class="NoteDot"
     transform="matrix(0.992001,0,0,0.992001,626.466,541.171)"
     d="M0,0 C0,2.8 2.2,5 5,5 C7.8,5 10,2.8 10,0 C10,-2.8 7.8,-5 5,-5 C2.2,-5 0,-2.8 0,0"
     id="path126" />
  <path
     class="NoteDot"
     d="m 694.042,918.4 c 0,2.7776 2.1824,4.96 4.96001,4.96 2.7776,0 4.96,-2.1824 4.96,-4.96 0,-2.7776 -2.1824,-4.96 -4.96,-4.96 -2.77761,0 -4.96001,2.1824 -4.96001,4.96"
     id="path127"
     style="stroke-width:0.992001" />
  <path
     class="NoteDot"
     d="m 302.047,943.2 c 0,2.7776 2.1824,4.96 4.96001,4.96 2.7776,0 4.96,-2.1824 4.96,-4.96 0,-2.7776 -2.1824,-4.96 -4.96,-4.96 -2.77761,0 -4.96001,2.1824 -4.96001,4.96"
     id="path128"
     style="stroke-width:0.992001" />
</svg>
