<?xml version="1.0" encoding="UTF-8" standalone="no"?>
<svg width="2098.8px" height="1418.4px" viewBox="0 0 2098.8 1418.4"
 xmlns="http://www.w3.org/2000/svg" xmlns:xlink="http://www.w3.org/1999/xlink" version="1.2" baseProfile="tiny">
<title>529 마니피캇-수정 (3)</title>
<desc>Generated by MuseScore 4.2.1</desc>
<polyline class="StaffLines" fill="none" stroke="#000000" stroke-width="2.73" stroke-linejoin="bevel" points="68.4,278 2030.4,278"/>
<polyline class="StaffLines" fill="none" stroke="#000000" stroke-width="2.73" stroke-linejoin="bevel" points="68.4,302.8 2030.4,302.8"/>
<polyline class="StaffLines" fill="none" stroke="#000000" stroke-width="2.73" stroke-linejoin="bevel" points="68.4,327.6 2030.4,327.6"/>
<polyline class="StaffLines" fill="none" stroke="#000000" stroke-width="2.73" stroke-linejoin="bevel" points="68.4,352.4 2030.4,352.4"/>
<polyline class="StaffLines" fill="none" stroke="#000000" stroke-width="2.73" stroke-linejoin="bevel" points="68.4,377.2 2030.4,377.2"/>
<polyline class="StaffLines" fill="none" stroke="#000000" stroke-width="2.73" stroke-linejoin="bevel" points="68.4,641.6 2030.4,641.6"/>
<polyline class="StaffLines" fill="none" stroke="#000000" stroke-width="2.73" stroke-linejoin="bevel" points="68.4,666.4 2030.4,666.4"/>
<polyline class="StaffLines" fill="none" stroke="#000000" stroke-width="2.73" stroke-linejoin="bevel" points="68.4,691.2 2030.4,691.2"/>
<polyline class="StaffLines" fill="none" stroke="#000000" stroke-width="2.73" stroke-linejoin="bevel" points="68.4,716 2030.4,716"/>
<polyline class="StaffLines" fill="none" stroke="#000000" stroke-width="2.73" stroke-linejoin="bevel" points="68.4,740.8 2030.4,740.8"/>
<polyline class="StaffLines" fill="none" stroke="#000000" stroke-width="2.73" stroke-linejoin="bevel" points="68.4,1005.2 2030.4,1005.2"/>
<polyline class="StaffLines" fill="none" stroke="#000000" stroke-width="2.73" stroke-linejoin="bevel" points="68.4,1030 2030.4,1030"/>
<polyline class="StaffLines" fill="none" stroke="#000000" stroke-width="2.73" stroke-linejoin="bevel" points="68.4,1054.8 2030.4,1054.8"/>
<polyline class="StaffLines" fill="none" stroke="#000000" stroke-width="2.73" stroke-linejoin="bevel" points="68.4,1079.6 2030.4,1079.6"/>
<polyline class="StaffLines" fill="none" stroke="#000000" stroke-width="2.73" stroke-linejoin="bevel" points="68.4,1104.4 2030.4,1104.4"/>
<path class="MeasureNumber" d="M87.1906,220.12 L86.1506,221.96 C84.5506,224.72 84.2306,224.96 82.1906,225 L72.9106,225 C73.8706,223.72 75.6306,222.24 78.8306,220 C84.1106,216.36 84.4706,216.12 85.5906,215.24 C88.7906,212.76 90.1106,210.4 90.1106,207.24 C90.1106,203.04 86.9906,200.24 82.3906,200.24 C77.2706,200.24 72.8306,204 72.8306,208.36 C72.8306,210.6 74.0306,212.04 75.9506,212.04 C77.3906,212.04 78.5106,210.96 78.5106,209.48 C78.5106,208.44 77.9906,207.76 76.6706,207.04 C75.7106,206.56 75.5506,206.36 75.5506,205.88 C75.5506,204.16 78.5106,202.24 81.2306,202.24 C84.0306,202.24 85.9106,204.12 85.9106,206.92 C85.9106,209.92 84.5906,212.12 80.9906,215.24 C70.3506,224.48 68.7506,226.16 68.3906,228.4 L85.5506,228.4 L88.6306,220.68 L87.1906,220.12 M110.385,200.08 L109.225,200.08 C107.025,201.72 102.785,203.12 99.905,203.12 L99.425,204.88 L102.185,204.88 C104.625,204.88 104.905,204.96 104.905,205.68 C104.905,206.04 104.905,206.04 104.505,207.48 L100.225,223.48 C99.705,225.48 99.665,225.6 99.305,225.96 C98.905,226.36 98.065,226.48 95.945,226.52 L94.225,226.52 L94.025,228.4 L108.825,228.4 L109.065,226.52 L106.905,226.52 C104.305,226.52 103.745,226.32 103.745,225.44 C103.745,225.16 103.905,224.24 104.105,223.48 L110.385,200.08 "/>
<path class="MeasureNumber" d="M82.0781,941.04 C83.9581,940.44 84.7181,940.12 85.6781,939.48 C87.5581,938.24 88.7181,936.04 88.7181,933.8 C88.7181,930 85.6781,927.44 81.1981,927.44 C76.8381,927.44 73.1581,930.16 73.1581,933.44 C73.1581,935.08 74.1581,936.2 75.6781,936.2 C76.9981,936.2 77.9581,935.24 77.9581,933.92 C77.9581,933.24 77.7581,932.76 77.1181,932.12 C76.7181,931.76 76.5581,931.48 76.5581,931.2 C76.5581,930.24 78.5581,929.24 80.4381,929.24 C83.1181,929.24 84.7181,930.72 84.7181,933.2 C84.7181,936.76 82.1981,940.12 79.5181,940.12 C79.3981,940.12 79.0381,940.08 78.5981,940.04 C77.4381,939.96 77.4381,939.96 77.1981,939.96 C76.3181,939.96 75.8381,940.36 75.8381,941.08 C75.8381,941.72 76.2781,942.12 76.9981,942.12 C77.1981,942.12 77.4781,942.08 77.7981,942.04 C78.3581,941.92 78.9581,941.88 79.3181,941.88 C81.1981,941.88 82.4781,943.56 82.4781,946.04 C82.4781,950.36 80.3581,954.52 75.5181,954.52 C73.2781,954.52 71.3581,953.4 71.3581,952.12 C71.3581,951.68 71.5181,951.52 72.1581,951.24 C73.3181,950.72 73.7981,950 73.7981,948.92 C73.7981,947.52 72.6781,946.44 71.2381,946.44 C69.5181,946.44 68.3981,947.8 68.3981,949.88 C68.3981,953.76 71.3581,956.2 76.1581,956.2 C82.1981,956.2 86.7981,952.16 86.7981,946.8 C86.7981,943.68 84.8781,941.92 82.0781,941.04 M104.752,927.44 C96.1525,927.44 91.8725,939.28 91.8725,946.32 C91.8725,952.12 94.7525,956.2 98.8325,956.2 C105.673,956.2 111.793,947.32 111.793,937.4 C111.793,931.44 108.953,927.44 104.752,927.44 M104.713,929.04 C106.793,929.04 107.913,930.88 107.913,934.32 C107.913,938.24 106.913,943.32 105.273,947.44 C103.353,952.44 101.433,954.6 99.0325,954.6 C96.8725,954.6 95.6725,952.68 95.6725,949.28 C95.6725,944.08 97.5125,937.12 100.073,932.48 C101.313,930.24 102.913,929.04 104.713,929.04"/>
<path class="MeasureNumber" d="M87.1906,583.72 L86.1506,585.56 C84.5506,588.32 84.2306,588.56 82.1906,588.6 L72.9106,588.6 C73.8706,587.32 75.6306,585.84 78.8306,583.6 C84.1106,579.96 84.4706,579.72 85.5906,578.84 C88.7906,576.36 90.1106,574 90.1106,570.84 C90.1106,566.64 86.9906,563.84 82.3906,563.84 C77.2706,563.84 72.8306,567.6 72.8306,571.96 C72.8306,574.2 74.0306,575.64 75.9506,575.64 C77.3906,575.64 78.5106,574.56 78.5106,573.08 C78.5106,572.04 77.9906,571.36 76.6706,570.64 C75.7106,570.16 75.5506,569.96 75.5506,569.48 C75.5506,567.76 78.5106,565.84 81.2306,565.84 C84.0306,565.84 85.9106,567.72 85.9106,570.52 C85.9106,573.52 84.5906,575.72 80.9906,578.84 C70.3506,588.08 68.7506,589.76 68.3906,592 L85.5506,592 L88.6306,584.28 L87.1906,583.72 M96.505,576.68 C95.265,577.44 94.905,577.92 94.905,578.72 C94.905,579.48 95.545,580.04 96.345,580.04 C97.385,580.04 97.985,579.28 98.105,577.8 C99.345,576.8 100.665,576.36 102.265,576.36 C105.225,576.36 106.865,578.2 106.865,581.52 C106.865,586.72 103.505,590.96 99.385,590.96 C97.025,590.96 95.105,589.84 95.105,588.52 C95.105,588.28 95.145,588.2 95.345,588.08 C96.625,587.48 97.665,587.04 97.665,585.36 C97.665,584.08 96.665,583.12 95.265,583.12 C93.505,583.12 92.185,584.6 92.185,586.52 C92.185,590.04 95.225,592.6 99.505,592.6 C105.985,592.6 111.225,587.44 111.225,581.04 C111.225,577 108.145,574.16 103.785,574.16 C102.065,574.16 100.665,574.52 98.745,575.48 L100.985,567.92 C103.105,568.36 104.785,568.56 106.225,568.56 C108.865,568.56 111.225,567.72 112.545,566.32 C113.225,565.52 113.625,564.84 113.625,564.32 C113.625,564.08 113.505,563.84 113.345,563.84 C113.225,563.84 113.145,563.88 112.905,564 C111.585,564.64 109.905,565 108.345,565 C105.945,565 103.105,564.6 100.145,563.84 L96.505,576.68 "/>
<path class="SlurSegment" stroke="#000000" stroke-width="1.24" stroke-linecap="round" stroke-linejoin="round" fill-rule="evenodd" d="M1638.62,1044.88 C1660.03,984.273 1787.78,941.067 1809.05,999.496 C1788.73,948.946 1660.98,992.152 1638.62,1044.88"/>
<path class="SlurSegment" stroke="#000000" stroke-width="1.24" stroke-linecap="round" stroke-linejoin="round" fill-rule="evenodd" d="M727.168,1024.3 C768.724,995.447 842.328,1005.74 874.377,1044.88 C841.229,1013.6 767.625,1003.31 727.168,1024.3"/>
<polyline class="BarLine" fill="none" stroke="#000000" stroke-width="4.46" stroke-linejoin="bevel" points="676.58,1003.84 676.58,1105.76"/>
<polyline class="BarLine" fill="none" stroke="#000000" stroke-width="4.46" stroke-linejoin="bevel" points="2028.17,640.236 2028.17,742.164"/>
<polyline class="BarLine" fill="none" stroke="#000000" stroke-width="4.46" stroke-linejoin="bevel" points="1719.33,640.236 1719.33,742.164"/>
<polyline class="BarLine" fill="none" stroke="#000000" stroke-width="4.46" stroke-linejoin="bevel" points="1093.49,1003.84 1093.49,1105.76"/>
<polyline class="BarLine" fill="none" stroke="#000000" stroke-width="4.46" stroke-linejoin="bevel" points="1328.98,640.236 1328.98,742.164"/>
<polyline class="BarLine" fill="none" stroke="#000000" stroke-width="4.46" stroke-linejoin="bevel" points="1006.35,640.236 1006.35,742.164"/>
<polyline class="BarLine" fill="none" stroke="#000000" stroke-width="4.46" stroke-linejoin="bevel" points="609.341,640.236 609.341,742.164"/>
<polyline class="BarLine" fill="none" stroke="#000000" stroke-width="4.46" stroke-linejoin="bevel" points="2028.17,1003.84 2028.17,1105.76"/>
<polyline class="BarLine" fill="none" stroke="#000000" stroke-width="4.46" stroke-linejoin="bevel" points="2028.17,276.636 2028.17,378.564"/>
<polyline class="BarLine" fill="none" stroke="#000000" stroke-width="4.46" stroke-linejoin="bevel" points="1563.24,1003.84 1563.24,1105.76"/>
<polyline class="BarLine" fill="none" stroke="#000000" stroke-width="4.46" stroke-linejoin="bevel" points="617.379,276.636 617.379,378.564"/>
<polyline class="BarLine" fill="none" stroke="#000000" stroke-width="4.46" stroke-linejoin="bevel" points="1519.51,276.636 1519.51,378.564"/>
<polyline class="BarLine" fill="none" stroke="#000000" stroke-width="4.46" stroke-linejoin="bevel" points="1125.08,276.636 1125.08,378.564"/>
<path class="Accidental" transform="matrix(0.992001,0,0,0.992001,1667.84,340)" d="M12,-15.5 C7,-15.5 4.1,-12.4 3.6,-11.8 L4,-43.9 C4,-44.7 3.4,-45.3 2.6,-45.3 L1.4,-45.3 C0.6,-45.3 0,-44.7 0,-43.9 L0.5,16.2 C0.5,17 1.1,17.6 1.9,17.6 C2.1,17.6 2.5,17.5 2.7,17.4 C11.3,13.1 20.3,4.9 20.3,-5.4 C20.3,-10.6 17.9,-15.5 12,-15.5 M3.3,12.7 L3.6,-6.8 C3.8,-7.7 5.3,-10.6 9.3,-10.6 C12.9,-10.6 13.2,-7.2 13.2,-5.1 C13.2,3.8 9.9,7.5 3.3,12.7"/>
<path class="Accidental" transform="matrix(0.992001,0,0,0.992001,635.731,340)" d="M12,-15.5 C7,-15.5 4.1,-12.4 3.6,-11.8 L4,-43.9 C4,-44.7 3.4,-45.3 2.6,-45.3 L1.4,-45.3 C0.6,-45.3 0,-44.7 0,-43.9 L0.5,16.2 C0.5,17 1.1,17.6 1.9,17.6 C2.1,17.6 2.5,17.5 2.7,17.4 C11.3,13.1 20.3,4.9 20.3,-5.4 C20.3,-10.6 17.9,-15.5 12,-15.5 M3.3,12.7 L3.6,-6.8 C3.8,-7.7 5.3,-10.6 9.3,-10.6 C12.9,-10.6 13.2,-7.2 13.2,-5.1 C13.2,3.8 9.9,7.5 3.3,12.7"/>
<path class="Accidental" transform="matrix(0.992001,0,0,0.992001,235.095,1067.2)" d="M12,-15.5 C7,-15.5 4.1,-12.4 3.6,-11.8 L4,-43.9 C4,-44.7 3.4,-45.3 2.6,-45.3 L1.4,-45.3 C0.6,-45.3 0,-44.7 0,-43.9 L0.5,16.2 C0.5,17 1.1,17.6 1.9,17.6 C2.1,17.6 2.5,17.5 2.7,17.4 C11.3,13.1 20.3,4.9 20.3,-5.4 C20.3,-10.6 17.9,-15.5 12,-15.5 M3.3,12.7 L3.6,-6.8 C3.8,-7.7 5.3,-10.6 9.3,-10.6 C12.9,-10.6 13.2,-7.2 13.2,-5.1 C13.2,3.8 9.9,7.5 3.3,12.7"/>
<path class="Accidental" transform="matrix(0.992001,0,0,0.992001,855.735,740.8)" d="M12,-15.5 C7,-15.5 4.1,-12.4 3.6,-11.8 L4,-43.9 C4,-44.7 3.4,-45.3 2.6,-45.3 L1.4,-45.3 C0.6,-45.3 0,-44.7 0,-43.9 L0.5,16.2 C0.5,17 1.1,17.6 1.9,17.6 C2.1,17.6 2.5,17.5 2.7,17.4 C11.3,13.1 20.3,4.9 20.3,-5.4 C20.3,-10.6 17.9,-15.5 12,-15.5 M3.3,12.7 L3.6,-6.8 C3.8,-7.7 5.3,-10.6 9.3,-10.6 C12.9,-10.6 13.2,-7.2 13.2,-5.1 C13.2,3.8 9.9,7.5 3.3,12.7"/>
<path class="Accidental" transform="matrix(0.992001,0,0,0.992001,235.095,740.8)" d="M12,-15.5 C7,-15.5 4.1,-12.4 3.6,-11.8 L4,-43.9 C4,-44.7 3.4,-45.3 2.6,-45.3 L1.4,-45.3 C0.6,-45.3 0,-44.7 0,-43.9 L0.5,16.2 C0.5,17 1.1,17.6 1.9,17.6 C2.1,17.6 2.5,17.5 2.7,17.4 C11.3,13.1 20.3,4.9 20.3,-5.4 C20.3,-10.6 17.9,-15.5 12,-15.5 M3.3,12.7 L3.6,-6.8 C3.8,-7.7 5.3,-10.6 9.3,-10.6 C12.9,-10.6 13.2,-7.2 13.2,-5.1 C13.2,3.8 9.9,7.5 3.3,12.7"/>
<path class="Accidental" transform="matrix(0.992001,0,0,0.992001,1111.84,1067.2)" d="M12,-15.5 C7,-15.5 4.1,-12.4 3.6,-11.8 L4,-43.9 C4,-44.7 3.4,-45.3 2.6,-45.3 L1.4,-45.3 C0.6,-45.3 0,-44.7 0,-43.9 L0.5,16.2 C0.5,17 1.1,17.6 1.9,17.6 C2.1,17.6 2.5,17.5 2.7,17.4 C11.3,13.1 20.3,4.9 20.3,-5.4 C20.3,-10.6 17.9,-15.5 12,-15.5 M3.3,12.7 L3.6,-6.8 C3.8,-7.7 5.3,-10.6 9.3,-10.6 C12.9,-10.6 13.2,-7.2 13.2,-5.1 C13.2,3.8 9.9,7.5 3.3,12.7"/>
<path class="Accidental" transform="matrix(0.992001,0,0,0.992001,1695.78,1067.2)" d="M12,-15.5 C7,-15.5 4.1,-12.4 3.6,-11.8 L4,-43.9 C4,-44.7 3.4,-45.3 2.6,-45.3 L1.4,-45.3 C0.6,-45.3 0,-44.7 0,-43.9 L0.5,16.2 C0.5,17 1.1,17.6 1.9,17.6 C2.1,17.6 2.5,17.5 2.7,17.4 C11.3,13.1 20.3,4.9 20.3,-5.4 C20.3,-10.6 17.9,-15.5 12,-15.5 M3.3,12.7 L3.6,-6.8 C3.8,-7.7 5.3,-10.6 9.3,-10.6 C12.9,-10.6 13.2,-7.2 13.2,-5.1 C13.2,3.8 9.9,7.5 3.3,12.7"/>
<polyline class="Stem" fill="none" stroke="#000000" stroke-width="2.48" stroke-linejoin="bevel" points="1371.07,331.767 1371.07,395.8"/>
<polyline class="Stem" fill="none" stroke="#000000" stroke-width="2.48" stroke-linejoin="bevel" points="1987.5,712.032 1987.5,641.6"/>
<polyline class="Stem" fill="none" stroke="#000000" stroke-width="2.48" stroke-linejoin="bevel" points="957.639,1058.97 957.639,1123"/>
<polyline class="Stem" fill="none" stroke="#000000" stroke-width="2.48" stroke-linejoin="bevel" points="1794.18,1058.97 1794.18,1129.2"/>
<polyline class="Stem" fill="none" stroke="#000000" stroke-width="2.48" stroke-linejoin="bevel" points="1444.8,331.767 1444.8,395.8"/>
<polyline class="Stem" fill="none" stroke="#000000" stroke-width="2.48" stroke-linejoin="bevel" points="1934.88,712.032 1934.88,641.6"/>
<polyline class="Stem" fill="none" stroke="#000000" stroke-width="2.48" stroke-linejoin="bevel" points="1755.04,695.366 1755.04,765.6"/>
<polyline class="Stem" fill="none" stroke="#000000" stroke-width="2.48" stroke-linejoin="bevel" points="889.253,1075.63 889.253,992.8"/>
<polyline class="Stem" fill="none" stroke="#000000" stroke-width="2.48" stroke-linejoin="bevel" points="475.304,1071.37 475.304,1135.28"/>
<polyline class="Stem" fill="none" stroke="#000000" stroke-width="2.48" stroke-linejoin="bevel" points="1555.23,331.767 1555.23,402"/>
<polyline class="Stem" fill="none" stroke="#000000" stroke-width="2.48" stroke-linejoin="bevel" points="976.636,331.767 976.636,402"/>
<polyline class="Stem" fill="none" stroke="#000000" stroke-width="2.48" stroke-linejoin="bevel" points="1753.11,1063.23 1753.11,986.798"/>
<polyline class="Stem" fill="none" stroke="#000000" stroke-width="2.48" stroke-linejoin="bevel" points="288.407,348.432 288.407,265.6"/>
<polyline class="Stem" fill="none" stroke="#000000" stroke-width="2.48" stroke-linejoin="bevel" points="1023.07,1058.97 1023.07,1123"/>
<polyline class="Stem" fill="none" stroke="#000000" stroke-width="2.48" stroke-linejoin="bevel" points="1725.17,336.032 1725.17,259.599"/>
<polyline class="Stem" fill="none" stroke="#000000" stroke-width="2.48" stroke-linejoin="bevel" points="1648.91,682.966 1648.91,746.861"/>
<polyline class="Stem" fill="none" stroke="#000000" stroke-width="2.48" stroke-linejoin="bevel" points="1892.32,1058.97 1892.32,1123"/>
<polyline class="Stem" fill="none" stroke="#000000" stroke-width="2.48" stroke-linejoin="bevel" points="1596.29,670.566 1596.29,740.94"/>
<polyline class="Stem" fill="none" stroke="#000000" stroke-width="2.48" stroke-linejoin="bevel" points="1798.89,348.432 1798.89,265.6"/>
<polyline class="Stem" fill="none" stroke="#000000" stroke-width="2.48" stroke-linejoin="bevel" points="1517.36,670.566 1517.36,753.2"/>
<polyline class="Stem" fill="none" stroke="#000000" stroke-width="2.48" stroke-linejoin="bevel" points="1628.7,1075.63 1628.7,992.8"/>
<polyline class="Stem" fill="none" stroke="#000000" stroke-width="2.48" stroke-linejoin="bevel" points="1909.48,360.832 1909.48,296.701"/>
<polyline class="Stem" fill="none" stroke="#000000" stroke-width="2.48" stroke-linejoin="bevel" points="540.73,1058.97 540.73,1129.2"/>
<polyline class="Stem" fill="none" stroke="#000000" stroke-width="2.48" stroke-linejoin="bevel" points="1464.74,682.966 1464.74,759.301"/>
<polyline class="Stem" fill="none" stroke="#000000" stroke-width="2.48" stroke-linejoin="bevel" points="712.292,1058.97 712.292,1129.2"/>
<polyline class="Stem" fill="none" stroke="#000000" stroke-width="2.48" stroke-linejoin="bevel" points="1983.2,385.632 1983.2,302.699"/>
<polyline class="Stem" fill="none" stroke="#000000" stroke-width="2.48" stroke-linejoin="bevel" points="1169.17,1063.23 1169.17,986.6"/>
<polyline class="Stem" fill="none" stroke="#000000" stroke-width="2.48" stroke-linejoin="bevel" points="1364.69,682.966 1364.69,759.4"/>
<polyline class="Stem" fill="none" stroke="#000000" stroke-width="2.48" stroke-linejoin="bevel" points="606.156,1046.57 606.156,1123.12"/>
<polyline class="Stem" fill="none" stroke="#000000" stroke-width="2.48" stroke-linejoin="bevel" points="902.911,319.367 902.911,395.903"/>
<polyline class="Stem" fill="none" stroke="#000000" stroke-width="2.48" stroke-linejoin="bevel" points="572.415,348.432 572.415,278"/>
<polyline class="Stem" fill="none" stroke="#000000" stroke-width="2.48" stroke-linejoin="bevel" points="498.69,348.432 498.69,278"/>
<polyline class="Stem" fill="none" stroke="#000000" stroke-width="2.48" stroke-linejoin="bevel" points="1050.36,344.167 1050.36,408.098"/>
<polyline class="Stem" fill="none" stroke="#000000" stroke-width="2.48" stroke-linejoin="bevel" points="292.422,736.832 292.422,654"/>
<polyline class="Stem" fill="none" stroke="#000000" stroke-width="2.48" stroke-linejoin="bevel" points="1274.52,712.032 1274.52,629.398"/>
<polyline class="Stem" fill="none" stroke="#000000" stroke-width="2.48" stroke-linejoin="bevel" points="292.422,1063.23 292.422,986.6"/>
<polyline class="Stem" fill="none" stroke="#000000" stroke-width="2.48" stroke-linejoin="bevel" points="1293.58,1075.63 1293.58,992.998"/>
<polyline class="Stem" fill="none" stroke="#000000" stroke-width="2.48" stroke-linejoin="bevel" points="1071.82,712.032 1071.82,629.2"/>
<polyline class="Stem" fill="none" stroke="#000000" stroke-width="2.48" stroke-linejoin="bevel" points="463.432,736.832 463.432,666.4"/>
<polyline class="Stem" fill="none" stroke="#000000" stroke-width="2.48" stroke-linejoin="bevel" points="1957.74,1058.97 1957.74,1123"/>
<polyline class="Stem" fill="none" stroke="#000000" stroke-width="2.48" stroke-linejoin="bevel" points="965.68,724.432 965.68,647.8"/>
<polyline class="Stem" fill="none" stroke="#000000" stroke-width="2.48" stroke-linejoin="bevel" points="1522.57,1063.23 1522.57,999.113"/>
<polyline class="Stem" fill="none" stroke="#000000" stroke-width="2.48" stroke-linejoin="bevel" points="516.05,749.232 516.05,666.4"/>
<polyline class="Stem" fill="none" stroke="#000000" stroke-width="2.48" stroke-linejoin="bevel" points="1359,1088.03 1359,1005.2"/>
<polyline class="Stem" fill="none" stroke="#000000" stroke-width="2.48" stroke-linejoin="bevel" points="1190.54,348.432 1190.54,265.6"/>
<polyline class="Stem" fill="none" stroke="#000000" stroke-width="2.48" stroke-linejoin="bevel" points="568.669,736.832 568.669,666.4"/>
<polyline class="Stem" fill="none" stroke="#000000" stroke-width="2.48" stroke-linejoin="bevel" points="913.062,736.832 913.062,647.8"/>
<polyline class="Stem" fill="none" stroke="#000000" stroke-width="2.48" stroke-linejoin="bevel" points="845.815,724.432 845.815,647.8"/>
<polyline class="Stem" fill="none" stroke="#000000" stroke-width="2.48" stroke-linejoin="bevel" points="1457.14,1088.03 1457.14,1005.09"/>
<polyline class="Stem" fill="none" stroke="#000000" stroke-width="2.48" stroke-linejoin="bevel" points="693.058,336.032 693.058,259.4"/>
<polyline class="Stem" fill="none" stroke="#000000" stroke-width="2.48" stroke-linejoin="bevel" points="674.805,724.432 674.805,641.6"/>
<path class="Note" transform="matrix(0.992001,0,0,0.992001,643.813,728.4)" d="M21.3,-13.2 C11.6,-13.2 0,-5.1 0,4.2 C0,8.5 3.1,13.3 11.2,13.3 C21.6,13.3 32.5,4.8 32.5,-4 C32.5,-9.9 27.5,-13.2 21.3,-13.2 M7.5,8.6 C4.2,8.6 3.5,5.9 3.5,5 C3.5,0.1 20.3,-8.5 25,-8.5 C27.4,-8.5 29,-7.1 29,-4.9 C29,0.1 12.1,8.6 7.5,8.6"/>
<path class="Note" transform="matrix(0.992001,0,0,0.992001,537.676,740.8)" d="M0,4.2 C0,8.5 3.1,13.3 11.2,13.3 C21.6,13.3 32.5,4.8 32.5,-4 C32.5,-9.9 27.5,-13.2 21.3,-13.2 C11.6,-13.2 0,-5 0,4.2"/>
<path class="Note" transform="matrix(0.992001,0,0,0.992001,1792.94,1054.8)" d="M0,4.2 C0,8.5 3.1,13.3 11.2,13.3 C21.6,13.3 32.5,4.8 32.5,-4 C32.5,-9.9 27.5,-13.2 21.3,-13.2 C11.6,-13.2 0,-5 0,4.2"/>
<path class="Note" transform="matrix(0.992001,0,0,0.992001,1426.15,1092)" d="M0,4.2 C0,8.5 3.1,13.3 11.2,13.3 C21.6,13.3 32.5,4.8 32.5,-4 C32.5,-9.9 27.5,-13.2 21.3,-13.2 C11.6,-13.2 0,-5 0,4.2"/>
<path class="Note" transform="matrix(0.992001,0,0,0.992001,814.823,728.4)" d="M0,4.2 C0,8.5 3.1,13.3 11.2,13.3 C21.6,13.3 32.5,4.8 32.5,-4 C32.5,-9.9 27.5,-13.2 21.3,-13.2 C11.6,-13.2 0,-5 0,4.2"/>
<path class="Note" transform="matrix(0.992001,0,0,0.992001,858.26,1079.6)" d="M0,4.2 C0,8.5 3.1,13.3 11.2,13.3 C21.6,13.3 32.5,4.8 32.5,-4 C32.5,-9.9 27.5,-13.2 21.3,-13.2 C11.6,-13.2 0,-5 0,4.2"/>
<path class="Note" transform="matrix(0.992001,0,0,0.992001,1328.01,1092)" d="M0,4.2 C0,8.5 3.1,13.3 11.2,13.3 C21.6,13.3 32.5,4.8 32.5,-4 C32.5,-9.9 27.5,-13.2 21.3,-13.2 C11.6,-13.2 0,-5 0,4.2"/>
<path class="Note" transform="matrix(0.992001,0,0,0.992001,662.066,340)" d="M21.3,-13.2 C11.6,-13.2 0,-5.1 0,4.2 C0,8.5 3.1,13.3 11.2,13.3 C21.6,13.3 32.5,4.8 32.5,-4 C32.5,-9.9 27.5,-13.2 21.3,-13.2 M7.5,8.6 C4.2,8.6 3.5,5.9 3.5,5 C3.5,0.1 20.3,-8.5 25,-8.5 C27.4,-8.5 29,-7.1 29,-4.9 C29,0.1 12.1,8.6 7.5,8.6"/>
<path class="Note" transform="matrix(0.992001,0,0,0.992001,882.07,740.8)" d="M0,4.2 C0,8.5 3.1,13.3 11.2,13.3 C21.6,13.3 32.5,4.8 32.5,-4 C32.5,-9.9 27.5,-13.2 21.3,-13.2 C11.6,-13.2 0,-5 0,4.2"/>
<path class="Note" transform="matrix(0.992001,0,0,0.992001,604.916,1042.4)" d="M0,4.2 C0,8.5 3.1,13.3 11.2,13.3 C21.6,13.3 32.5,4.8 32.5,-4 C32.5,-9.9 27.5,-13.2 21.3,-13.2 C11.6,-13.2 0,-5 0,4.2"/>
<path class="Note" transform="matrix(0.992001,0,0,0.992001,485.058,753.2)" d="M0,4.2 C0,8.5 3.1,13.3 11.2,13.3 C21.6,13.3 32.5,4.8 32.5,-4 C32.5,-9.9 27.5,-13.2 21.3,-13.2 C11.6,-13.2 0,-5 0,4.2"/>
<path class="Note" transform="matrix(0.992001,0,0,0.992001,901.671,315.2)" d="M0,4.2 C0,8.5 3.1,13.3 11.2,13.3 C21.6,13.3 32.5,4.8 32.5,-4 C32.5,-9.9 27.5,-13.2 21.3,-13.2 C11.6,-13.2 0,-5 0,4.2"/>
<path class="Note" transform="matrix(0.992001,0,0,0.992001,934.688,728.4)" d="M0,4.2 C0,8.5 3.1,13.3 11.2,13.3 C21.6,13.3 32.5,4.8 32.5,-4 C32.5,-9.9 27.5,-13.2 21.3,-13.2 C11.6,-13.2 0,-5 0,4.2"/>
<path class="Note" transform="matrix(0.992001,0,0,0.992001,1262.58,1079.6)" d="M0,4.2 C0,8.5 3.1,13.3 11.2,13.3 C21.6,13.3 32.5,4.8 32.5,-4 C32.5,-9.9 27.5,-13.2 21.3,-13.2 C11.6,-13.2 0,-5 0,4.2"/>
<path class="Note" transform="matrix(0.992001,0,0,0.992001,467.697,352.4)" d="M0,4.2 C0,8.5 3.1,13.3 11.2,13.3 C21.6,13.3 32.5,4.8 32.5,-4 C32.5,-9.9 27.5,-13.2 21.3,-13.2 C11.6,-13.2 0,-5 0,4.2"/>
<path class="Note" transform="matrix(0.992001,0,0,0.992001,432.439,740.8)" d="M0,4.2 C0,8.5 3.1,13.3 11.2,13.3 C21.6,13.3 32.5,4.8 32.5,-4 C32.5,-9.9 27.5,-13.2 21.3,-13.2 C11.6,-13.2 0,-5 0,4.2"/>
<path class="Note" transform="matrix(0.992001,0,0,0.992001,1956.5,716)" d="M0,4.2 C0,8.5 3.1,13.3 11.2,13.3 C21.6,13.3 32.5,4.8 32.5,-4 C32.5,-9.9 27.5,-13.2 21.3,-13.2 C11.6,-13.2 0,-5 0,4.2"/>
<path class="Note" transform="matrix(0.992001,0,0,0.992001,1040.82,716)" d="M21.3,-13.2 C11.6,-13.2 0,-5.1 0,4.2 C0,8.5 3.1,13.3 11.2,13.3 C21.6,13.3 32.5,4.8 32.5,-4 C32.5,-9.9 27.5,-13.2 21.3,-13.2 M7.5,8.6 C4.2,8.6 3.5,5.9 3.5,5 C3.5,0.1 20.3,-8.5 25,-8.5 C27.4,-8.5 29,-7.1 29,-4.9 C29,0.1 12.1,8.6 7.5,8.6"/>
<path class="Note" transform="matrix(0.992001,0,0,0.992001,1491.57,1067.2)" d="M0,4.2 C0,8.5 3.1,13.3 11.2,13.3 C21.6,13.3 32.5,4.8 32.5,-4 C32.5,-9.9 27.5,-13.2 21.3,-13.2 C11.6,-13.2 0,-5 0,4.2"/>
<path class="Note" transform="matrix(0.992001,0,0,0.992001,539.49,1054.8)" d="M0,4.2 C0,8.5 3.1,13.3 11.2,13.3 C21.6,13.3 32.5,4.8 32.5,-4 C32.5,-9.9 27.5,-13.2 21.3,-13.2 C11.6,-13.2 0,-5 0,4.2"/>
<path class="Note" transform="matrix(0.992001,0,0,0.992001,1369.83,327.6)" d="M0,4.2 C0,8.5 3.1,13.3 11.2,13.3 C21.6,13.3 32.5,4.8 32.5,-4 C32.5,-9.9 27.5,-13.2 21.3,-13.2 C11.6,-13.2 0,-5 0,4.2"/>
<path class="Note" transform="matrix(0.992001,0,0,0.992001,711.052,1054.8)" d="M21.3,-13.2 C11.6,-13.2 0,-5.1 0,4.2 C0,8.5 3.1,13.3 11.2,13.3 C21.6,13.3 32.5,4.8 32.5,-4 C32.5,-9.9 27.5,-13.2 21.3,-13.2 M7.5,8.6 C4.2,8.6 3.5,5.9 3.5,5 C3.5,0.1 20.3,-8.5 25,-8.5 C27.4,-8.5 29,-7.1 29,-4.9 C29,0.1 12.1,8.6 7.5,8.6"/>
<path class="Note" transform="matrix(0.992001,0,0,0.992001,261.429,740.8)" d="M21.3,-13.2 C11.6,-13.2 0,-5.1 0,4.2 C0,8.5 3.1,13.3 11.2,13.3 C21.6,13.3 32.5,4.8 32.5,-4 C32.5,-9.9 27.5,-13.2 21.3,-13.2 M7.5,8.6 C4.2,8.6 3.5,5.9 3.5,5 C3.5,0.1 20.3,-8.5 25,-8.5 C27.4,-8.5 29,-7.1 29,-4.9 C29,0.1 12.1,8.6 7.5,8.6"/>
<path class="Note" transform="matrix(0.992001,0,0,0.992001,1243.52,716)" d="M0,4.2 C0,8.5 3.1,13.3 11.2,13.3 C21.6,13.3 32.5,4.8 32.5,-4 C32.5,-9.9 27.5,-13.2 21.3,-13.2 C11.6,-13.2 0,-5 0,4.2"/>
<path class="Note" transform="matrix(0.992001,0,0,0.992001,1159.55,352.4)" d="M21.3,-13.2 C11.6,-13.2 0,-5.1 0,4.2 C0,8.5 3.1,13.3 11.2,13.3 C21.6,13.3 32.5,4.8 32.5,-4 C32.5,-9.9 27.5,-13.2 21.3,-13.2 M7.5,8.6 C4.2,8.6 3.5,5.9 3.5,5 C3.5,0.1 20.3,-8.5 25,-8.5 C27.4,-8.5 29,-7.1 29,-4.9 C29,0.1 12.1,8.6 7.5,8.6"/>
<path class="Note" transform="matrix(0.992001,0,0,0.992001,1903.89,716)" d="M0,4.2 C0,8.5 3.1,13.3 11.2,13.3 C21.6,13.3 32.5,4.8 32.5,-4 C32.5,-9.9 27.5,-13.2 21.3,-13.2 C11.6,-13.2 0,-5 0,4.2"/>
<path class="Note" transform="matrix(0.992001,0,0,0.992001,541.422,352.4)" d="M0,4.2 C0,8.5 3.1,13.3 11.2,13.3 C21.6,13.3 32.5,4.8 32.5,-4 C32.5,-9.9 27.5,-13.2 21.3,-13.2 C11.6,-13.2 0,-5 0,4.2"/>
<path class="Note" transform="matrix(0.992001,0,0,0.992001,1956.5,1054.8)" d="M0,4.2 C0,8.5 3.1,13.3 11.2,13.3 C21.6,13.3 32.5,4.8 32.5,-4 C32.5,-9.9 27.5,-13.2 21.3,-13.2 C11.6,-13.2 0,-5 0,4.2"/>
<path class="Note" transform="matrix(0.992001,0,0,0.992001,1363.45,678.8)" d="M0,4.2 C0,8.5 3.1,13.3 11.2,13.3 C21.6,13.3 32.5,4.8 32.5,-4 C32.5,-9.9 27.5,-13.2 21.3,-13.2 C11.6,-13.2 0,-5 0,4.2"/>
<path class="Note" transform="matrix(0.992001,0,0,0.992001,1138.18,1067.2)" d="M0,4.2 C0,8.5 3.1,13.3 11.2,13.3 C21.6,13.3 32.5,4.8 32.5,-4 C32.5,-9.9 27.5,-13.2 21.3,-13.2 C11.6,-13.2 0,-5 0,4.2"/>
<path class="Note" transform="matrix(0.992001,0,0,0.992001,1952.21,389.6)" d="M0,4.2 C0,8.5 3.1,13.3 11.2,13.3 C21.6,13.3 32.5,4.8 32.5,-4 C32.5,-9.9 27.5,-13.2 21.3,-13.2 C11.6,-13.2 0,-5 0,4.2"/>
<path class="Note" transform="matrix(0.992001,0,0,0.992001,474.064,1067.2)" d="M0,4.2 C0,8.5 3.1,13.3 11.2,13.3 C21.6,13.3 32.5,4.8 32.5,-4 C32.5,-9.9 27.5,-13.2 21.3,-13.2 C11.6,-13.2 0,-5 0,4.2"/>
<path class="Note" transform="matrix(0.992001,0,0,0.992001,975.396,327.6)" d="M0,4.2 C0,8.5 3.1,13.3 11.2,13.3 C21.6,13.3 32.5,4.8 32.5,-4 C32.5,-9.9 27.5,-13.2 21.3,-13.2 C11.6,-13.2 0,-5 0,4.2"/>
<path class="Note" transform="matrix(0.992001,0,0,0.992001,1463.5,678.8)" d="M0,4.2 C0,8.5 3.1,13.3 11.2,13.3 C21.6,13.3 32.5,4.8 32.5,-4 C32.5,-9.9 27.5,-13.2 21.3,-13.2 C11.6,-13.2 0,-5 0,4.2"/>
<path class="Note" transform="matrix(0.992001,0,0,0.992001,1878.49,364.8)" d="M0,4.2 C0,8.5 3.1,13.3 11.2,13.3 C21.6,13.3 32.5,4.8 32.5,-4 C32.5,-9.9 27.5,-13.2 21.3,-13.2 C11.6,-13.2 0,-5 0,4.2"/>
<path class="Note" transform="matrix(0.992001,0,0,0.992001,1767.9,352.4)" d="M0,4.2 C0,8.5 3.1,13.3 11.2,13.3 C21.6,13.3 32.5,4.8 32.5,-4 C32.5,-9.9 27.5,-13.2 21.3,-13.2 C11.6,-13.2 0,-5 0,4.2"/>
<path class="Note" transform="matrix(0.992001,0,0,0.992001,1516.12,666.4)" d="M0,4.2 C0,8.5 3.1,13.3 11.2,13.3 C21.6,13.3 32.5,4.8 32.5,-4 C32.5,-9.9 27.5,-13.2 21.3,-13.2 C11.6,-13.2 0,-5 0,4.2"/>
<path class="Note" transform="matrix(0.992001,0,0,0.992001,257.415,352.4)" d="M21.3,-13.2 C11.6,-13.2 0,-5.1 0,4.2 C0,8.5 3.1,13.3 11.2,13.3 C21.6,13.3 32.5,4.8 32.5,-4 C32.5,-9.9 27.5,-13.2 21.3,-13.2 M7.5,8.6 C4.2,8.6 3.5,5.9 3.5,5 C3.5,0.1 20.3,-8.5 25,-8.5 C27.4,-8.5 29,-7.1 29,-4.9 C29,0.1 12.1,8.6 7.5,8.6"/>
<path class="Note" transform="matrix(0.992001,0,0,0.992001,1597.71,1079.6)" d="M0,4.2 C0,8.5 3.1,13.3 11.2,13.3 C21.6,13.3 32.5,4.8 32.5,-4 C32.5,-9.9 27.5,-13.2 21.3,-13.2 C11.6,-13.2 0,-5 0,4.2"/>
<path class="Note" transform="matrix(0.992001,0,0,0.992001,1595.05,666.4)" d="M0,4.2 C0,8.5 3.1,13.3 11.2,13.3 C21.6,13.3 32.5,4.8 32.5,-4 C32.5,-9.9 27.5,-13.2 21.3,-13.2 C11.6,-13.2 0,-5 0,4.2"/>
<path class="Note" transform="matrix(0.992001,0,0,0.992001,1443.56,327.6)" d="M0,4.2 C0,8.5 3.1,13.3 11.2,13.3 C21.6,13.3 32.5,4.8 32.5,-4 C32.5,-9.9 27.5,-13.2 21.3,-13.2 C11.6,-13.2 0,-5 0,4.2"/>
<path class="Note" transform="matrix(0.992001,0,0,0.992001,1021.83,1054.8)" d="M0,4.2 C0,8.5 3.1,13.3 11.2,13.3 C21.6,13.3 32.5,4.8 32.5,-4 C32.5,-9.9 27.5,-13.2 21.3,-13.2 C11.6,-13.2 0,-5 0,4.2"/>
<path class="Note" transform="matrix(0.992001,0,0,0.992001,1694.17,340)" d="M0,4.2 C0,8.5 3.1,13.3 11.2,13.3 C21.6,13.3 32.5,4.8 32.5,-4 C32.5,-9.9 27.5,-13.2 21.3,-13.2 C11.6,-13.2 0,-5 0,4.2"/>
<path class="Note" transform="matrix(0.992001,0,0,0.992001,1647.67,678.8)" d="M0,4.2 C0,8.5 3.1,13.3 11.2,13.3 C21.6,13.3 32.5,4.8 32.5,-4 C32.5,-9.9 27.5,-13.2 21.3,-13.2 C11.6,-13.2 0,-5 0,4.2"/>
<path class="Note" transform="matrix(0.992001,0,0,0.992001,1891.08,1054.8)" d="M0,4.2 C0,8.5 3.1,13.3 11.2,13.3 C21.6,13.3 32.5,4.8 32.5,-4 C32.5,-9.9 27.5,-13.2 21.3,-13.2 C11.6,-13.2 0,-5 0,4.2"/>
<path class="Note" transform="matrix(0.992001,0,0,0.992001,1049.12,340)" d="M0,4.2 C0,8.5 3.1,13.3 11.2,13.3 C21.6,13.3 32.5,4.8 32.5,-4 C32.5,-9.9 27.5,-13.2 21.3,-13.2 C11.6,-13.2 0,-5 0,4.2"/>
<path class="Note" transform="matrix(0.992001,0,0,0.992001,1553.99,327.6)" d="M0,4.2 C0,8.5 3.1,13.3 11.2,13.3 C21.6,13.3 32.5,4.8 32.5,-4 C32.5,-9.9 27.5,-13.2 21.3,-13.2 C11.6,-13.2 0,-5 0,4.2"/>
<path class="Note" transform="matrix(0.992001,0,0,0.992001,1722.12,1067.2)" d="M0,4.2 C0,8.5 3.1,13.3 11.2,13.3 C21.6,13.3 32.5,4.8 32.5,-4 C32.5,-9.9 27.5,-13.2 21.3,-13.2 C11.6,-13.2 0,-5 0,4.2"/>
<path class="Note" transform="matrix(0.992001,0,0,0.992001,1753.8,691.2)" d="M21.3,-13.2 C11.6,-13.2 0,-5.1 0,4.2 C0,8.5 3.1,13.3 11.2,13.3 C21.6,13.3 32.5,4.8 32.5,-4 C32.5,-9.9 27.5,-13.2 21.3,-13.2 M7.5,8.6 C4.2,8.6 3.5,5.9 3.5,5 C3.5,0.1 20.3,-8.5 25,-8.5 C27.4,-8.5 29,-7.1 29,-4.9 C29,0.1 12.1,8.6 7.5,8.6"/>
<path class="Note" transform="matrix(0.992001,0,0,0.992001,261.429,1067.2)" d="M21.3,-13.2 C11.6,-13.2 0,-5.1 0,4.2 C0,8.5 3.1,13.3 11.2,13.3 C21.6,13.3 32.5,4.8 32.5,-4 C32.5,-9.9 27.5,-13.2 21.3,-13.2 M7.5,8.6 C4.2,8.6 3.5,5.9 3.5,5 C3.5,0.1 20.3,-8.5 25,-8.5 C27.4,-8.5 29,-7.1 29,-4.9 C29,0.1 12.1,8.6 7.5,8.6"/>
<path class="Note" transform="matrix(0.992001,0,0,0.992001,956.399,1054.8)" d="M0,4.2 C0,8.5 3.1,13.3 11.2,13.3 C21.6,13.3 32.5,4.8 32.5,-4 C32.5,-9.9 27.5,-13.2 21.3,-13.2 C11.6,-13.2 0,-5 0,4.2"/>
<path class="Clef" transform="matrix(0.992001,0,0,0.992001,87,716)" d="M12.3,51.3 C12.3,57.9 17.3,66.6 30.8,66.6 C35.5,66.6 39.6,65.4 43.2,63.2 C48.6,59.4 50,52.8 50,46.5 C50,42.6 49.4,38.1 48.4,32.4 C48.1,30.4 47.5,27.4 46.9,23.5 C56.7,20.3 64,10.1 64,-0.2 C64,-15.3 53.3,-25.5 38.7,-25.5 C37.7,-31.5 36.7,-37.4 35.9,-43 C46.4,-54.1 53.7,-66.6 53.7,-82.5 C53.7,-91.6 50.9,-99 49.3,-102.6 C46.9,-107.7 44,-111.2 42.2,-111.2 C41.5,-111.2 38.4,-110 35.1,-106.1 C28.7,-98.5 26.9,-85.7 26.9,-77.3 C26.9,-71.9 27.4,-67 29.1,-55.8 C29,-55.7 23.8,-50.4 21.7,-48.7 C12.6,-40.3 0,-28.1 0,-8.1 C0,10.6 16.3,25.3 34.9,25.3 C37.8,25.3 40.5,25 42.8,24.6 C44.7,34.2 45.9,41.2 45.9,46.5 C45.9,56.9 40.5,62.4 30.4,62.4 C28,62.4 25.9,61.9 25.7,61.9 C25.6,61.8 25.4,61.7 25.4,61.6 C25.4,61.4 25.6,61.3 25.9,61.3 C30.6,60.5 35.3,56.5 35.3,50.1 C35.3,44.7 31.2,39 23.7,39 C16.7,39 12.3,44.7 12.3,51.3 M33.2,-82.2 C34.1,-86.2 38.7,-96.7 43.9,-96.7 C45.4,-96.7 47.8,-91.9 47.8,-84.9 C47.8,-74.5 40.1,-66.7 33.2,-59.9 C32.6,-63.9 32.1,-67.8 32.1,-72 C32.1,-75.7 32.4,-79.1 33.2,-82.2 M42,20.6 C40,21 38.1,21.2 36.2,21.2 C21.9,21.2 9.7,11.2 9.7,-3.9 C9.7,-16.1 18.3,-27 27.1,-34.6 C28.8,-36.1 30.4,-37.5 31.9,-39 C32.8,-33.6 33.5,-28.9 34.2,-24.8 C25.1,-22.1 18.9,-12.5 18.9,-3.1 C18.9,3.9 24.4,13.5 32.4,13.5 C33.2,13.5 34.1,13.1 34.1,12.2 C34.1,11.3 33.1,10.8 31.9,10 C28,7.6 25.8,5 25.8,0.1 C25.8,-6 30.4,-10.9 36.2,-12.3 L42,20.6 M56.2,2.1 C56.2,9.2 53.3,16.5 46.2,19.4 C44.1,7.4 41.4,-8.5 40.7,-12.9 C49.7,-12.9 56.2,-6.8 56.2,2.1"/>
<path class="Clef" transform="matrix(0.992001,0,0,0.992001,87,352.4)" d="M12.3,51.3 C12.3,57.9 17.3,66.6 30.8,66.6 C35.5,66.6 39.6,65.4 43.2,63.2 C48.6,59.4 50,52.8 50,46.5 C50,42.6 49.4,38.1 48.4,32.4 C48.1,30.4 47.5,27.4 46.9,23.5 C56.7,20.3 64,10.1 64,-0.2 C64,-15.3 53.3,-25.5 38.7,-25.5 C37.7,-31.5 36.7,-37.4 35.9,-43 C46.4,-54.1 53.7,-66.6 53.7,-82.5 C53.7,-91.6 50.9,-99 49.3,-102.6 C46.9,-107.7 44,-111.2 42.2,-111.2 C41.5,-111.2 38.4,-110 35.1,-106.1 C28.7,-98.5 26.9,-85.7 26.9,-77.3 C26.9,-71.9 27.4,-67 29.1,-55.8 C29,-55.7 23.8,-50.4 21.7,-48.7 C12.6,-40.3 0,-28.1 0,-8.1 C0,10.6 16.3,25.3 34.9,25.3 C37.8,25.3 40.5,25 42.8,24.6 C44.7,34.2 45.9,41.2 45.9,46.5 C45.9,56.9 40.5,62.4 30.4,62.4 C28,62.4 25.9,61.9 25.7,61.9 C25.6,61.8 25.4,61.7 25.4,61.6 C25.4,61.4 25.6,61.3 25.9,61.3 C30.6,60.5 35.3,56.5 35.3,50.1 C35.3,44.7 31.2,39 23.7,39 C16.7,39 12.3,44.7 12.3,51.3 M33.2,-82.2 C34.1,-86.2 38.7,-96.7 43.9,-96.7 C45.4,-96.7 47.8,-91.9 47.8,-84.9 C47.8,-74.5 40.1,-66.7 33.2,-59.9 C32.6,-63.9 32.1,-67.8 32.1,-72 C32.1,-75.7 32.4,-79.1 33.2,-82.2 M42,20.6 C40,21 38.1,21.2 36.2,21.2 C21.9,21.2 9.7,11.2 9.7,-3.9 C9.7,-16.1 18.3,-27 27.1,-34.6 C28.8,-36.1 30.4,-37.5 31.9,-39 C32.8,-33.6 33.5,-28.9 34.2,-24.8 C25.1,-22.1 18.9,-12.5 18.9,-3.1 C18.9,3.9 24.4,13.5 32.4,13.5 C33.2,13.5 34.1,13.1 34.1,12.2 C34.1,11.3 33.1,10.8 31.9,10 C28,7.6 25.8,5 25.8,0.1 C25.8,-6 30.4,-10.9 36.2,-12.3 L42,20.6 M56.2,2.1 C56.2,9.2 53.3,16.5 46.2,19.4 C44.1,7.4 41.4,-8.5 40.7,-12.9 C49.7,-12.9 56.2,-6.8 56.2,2.1"/>
<path class="Clef" transform="matrix(0.992001,0,0,0.992001,87,1079.6)" d="M12.3,51.3 C12.3,57.9 17.3,66.6 30.8,66.6 C35.5,66.6 39.6,65.4 43.2,63.2 C48.6,59.4 50,52.8 50,46.5 C50,42.6 49.4,38.1 48.4,32.4 C48.1,30.4 47.5,27.4 46.9,23.5 C56.7,20.3 64,10.1 64,-0.2 C64,-15.3 53.3,-25.5 38.7,-25.5 C37.7,-31.5 36.7,-37.4 35.9,-43 C46.4,-54.1 53.7,-66.6 53.7,-82.5 C53.7,-91.6 50.9,-99 49.3,-102.6 C46.9,-107.7 44,-111.2 42.2,-111.2 C41.5,-111.2 38.4,-110 35.1,-106.1 C28.7,-98.5 26.9,-85.7 26.9,-77.3 C26.9,-71.9 27.4,-67 29.1,-55.8 C29,-55.7 23.8,-50.4 21.7,-48.7 C12.6,-40.3 0,-28.1 0,-8.1 C0,10.6 16.3,25.3 34.9,25.3 C37.8,25.3 40.5,25 42.8,24.6 C44.7,34.2 45.9,41.2 45.9,46.5 C45.9,56.9 40.5,62.4 30.4,62.4 C28,62.4 25.9,61.9 25.7,61.9 C25.6,61.8 25.4,61.7 25.4,61.6 C25.4,61.4 25.6,61.3 25.9,61.3 C30.6,60.5 35.3,56.5 35.3,50.1 C35.3,44.7 31.2,39 23.7,39 C16.7,39 12.3,44.7 12.3,51.3 M33.2,-82.2 C34.1,-86.2 38.7,-96.7 43.9,-96.7 C45.4,-96.7 47.8,-91.9 47.8,-84.9 C47.8,-74.5 40.1,-66.7 33.2,-59.9 C32.6,-63.9 32.1,-67.8 32.1,-72 C32.1,-75.7 32.4,-79.1 33.2,-82.2 M42,20.6 C40,21 38.1,21.2 36.2,21.2 C21.9,21.2 9.7,11.2 9.7,-3.9 C9.7,-16.1 18.3,-27 27.1,-34.6 C28.8,-36.1 30.4,-37.5 31.9,-39 C32.8,-33.6 33.5,-28.9 34.2,-24.8 C25.1,-22.1 18.9,-12.5 18.9,-3.1 C18.9,3.9 24.4,13.5 32.4,13.5 C33.2,13.5 34.1,13.1 34.1,12.2 C34.1,11.3 33.1,10.8 31.9,10 C28,7.6 25.8,5 25.8,0.1 C25.8,-6 30.4,-10.9 36.2,-12.3 L42,20.6 M56.2,2.1 C56.2,9.2 53.3,16.5 46.2,19.4 C44.1,7.4 41.4,-8.5 40.7,-12.9 C49.7,-12.9 56.2,-6.8 56.2,2.1"/>
<path class="KeySig" transform="matrix(0.992001,0,0,0.992001,175.28,691.2)" d="M12,-15.5 C7,-15.5 4.1,-12.4 3.6,-11.8 L4,-43.9 C4,-44.7 3.4,-45.3 2.6,-45.3 L1.4,-45.3 C0.6,-45.3 0,-44.7 0,-43.9 L0.5,16.2 C0.5,17 1.1,17.6 1.9,17.6 C2.1,17.6 2.5,17.5 2.7,17.4 C11.3,13.1 20.3,4.9 20.3,-5.4 C20.3,-10.6 17.9,-15.5 12,-15.5 M3.3,12.7 L3.6,-6.8 C3.8,-7.7 5.3,-10.6 9.3,-10.6 C12.9,-10.6 13.2,-7.2 13.2,-5.1 C13.2,3.8 9.9,7.5 3.3,12.7"/>
<path class="KeySig" transform="matrix(0.992001,0,0,0.992001,175.28,1054.8)" d="M12,-15.5 C7,-15.5 4.1,-12.4 3.6,-11.8 L4,-43.9 C4,-44.7 3.4,-45.3 2.6,-45.3 L1.4,-45.3 C0.6,-45.3 0,-44.7 0,-43.9 L0.5,16.2 C0.5,17 1.1,17.6 1.9,17.6 C2.1,17.6 2.5,17.5 2.7,17.4 C11.3,13.1 20.3,4.9 20.3,-5.4 C20.3,-10.6 17.9,-15.5 12,-15.5 M3.3,12.7 L3.6,-6.8 C3.8,-7.7 5.3,-10.6 9.3,-10.6 C12.9,-10.6 13.2,-7.2 13.2,-5.1 C13.2,3.8 9.9,7.5 3.3,12.7"/>
<path class="KeySig" transform="matrix(0.992001,0,0,0.992001,175.28,327.6)" d="M12,-15.5 C7,-15.5 4.1,-12.4 3.6,-11.8 L4,-43.9 C4,-44.7 3.4,-45.3 2.6,-45.3 L1.4,-45.3 C0.6,-45.3 0,-44.7 0,-43.9 L0.5,16.2 C0.5,17 1.1,17.6 1.9,17.6 C2.1,17.6 2.5,17.5 2.7,17.4 C11.3,13.1 20.3,4.9 20.3,-5.4 C20.3,-10.6 17.9,-15.5 12,-15.5 M3.3,12.7 L3.6,-6.8 C3.8,-7.7 5.3,-10.6 9.3,-10.6 C12.9,-10.6 13.2,-7.2 13.2,-5.1 C13.2,3.8 9.9,7.5 3.3,12.7"/>
<path class="Rest" transform="matrix(0.992001,0,0,0.992001,408.638,1054.8)" d="M26.7,-20.3 C26.6,-20.3 26.4,-20.4 26.3,-20.4 C25.7,-20.4 25.2,-20.1 25,-19.6 C22.7,-15 17.9,-8.8 12.5,-7.8 C13.6,-9.1 14.3,-10.7 14.3,-12.6 C14.3,-16.5 11.1,-19.7 7.2,-19.7 C3.2,-19.7 0,-16.5 0,-12.6 C0,-7.2 5.3,-4.7 10,-4.7 C15.3,-4.7 18.8,-7.2 22.2,-10.9 L10.8,24.7 L13.5,25.5 L27.5,-18.6 C27.6,-18.7 27.6,-18.9 27.6,-19.1 C27.6,-19.6 27.3,-20 26.7,-20.3"/>
<path class="Rest" transform="matrix(0.992001,0,0,0.992001,1190.91,691.2)" d="M26.7,-20.3 C26.6,-20.3 26.4,-20.4 26.3,-20.4 C25.7,-20.4 25.2,-20.1 25,-19.6 C22.7,-15 17.9,-8.8 12.5,-7.8 C13.6,-9.1 14.3,-10.7 14.3,-12.6 C14.3,-16.5 11.1,-19.7 7.2,-19.7 C3.2,-19.7 0,-16.5 0,-12.6 C0,-7.2 5.3,-4.7 10,-4.7 C15.3,-4.7 18.8,-7.2 22.2,-10.9 L10.8,24.7 L13.5,25.5 L27.5,-18.6 C27.6,-18.7 27.6,-18.9 27.6,-19.1 C27.6,-19.6 27.3,-20 26.7,-20.3"/>
<path class="Rest" transform="matrix(0.992001,0,0,0.992001,379.821,691.2)" d="M26.7,-20.3 C26.6,-20.3 26.4,-20.4 26.3,-20.4 C25.7,-20.4 25.2,-20.1 25,-19.6 C22.7,-15 17.9,-8.8 12.5,-7.8 C13.6,-9.1 14.3,-10.7 14.3,-12.6 C14.3,-16.5 11.1,-19.7 7.2,-19.7 C3.2,-19.7 0,-16.5 0,-12.6 C0,-7.2 5.3,-4.7 10,-4.7 C15.3,-4.7 18.8,-7.2 22.2,-10.9 L10.8,24.7 L13.5,25.5 L27.5,-18.6 C27.6,-18.7 27.6,-18.9 27.6,-19.1 C27.6,-19.6 27.3,-20 26.7,-20.3"/>
<path class="Rest" transform="matrix(0.992001,0,0,0.992001,827.947,327.6)" d="M26.7,-20.3 C26.6,-20.3 26.4,-20.4 26.3,-20.4 C25.7,-20.4 25.2,-20.1 25,-19.6 C22.7,-15 17.9,-8.8 12.5,-7.8 C13.6,-9.1 14.3,-10.7 14.3,-12.6 C14.3,-16.5 11.1,-19.7 7.2,-19.7 C3.2,-19.7 0,-16.5 0,-12.6 C0,-7.2 5.3,-4.7 10,-4.7 C15.3,-4.7 18.8,-7.2 22.2,-10.9 L10.8,24.7 L13.5,25.5 L27.5,-18.6 C27.6,-18.7 27.6,-18.9 27.6,-19.1 C27.6,-19.6 27.3,-20 26.7,-20.3"/>
<path class="Rest" transform="matrix(0.992001,0,0,0.992001,762.204,691.2)" d="M26.7,-20.3 C26.6,-20.3 26.4,-20.4 26.3,-20.4 C25.7,-20.4 25.2,-20.1 25,-19.6 C22.7,-15 17.9,-8.8 12.5,-7.8 C13.6,-9.1 14.3,-10.7 14.3,-12.6 C14.3,-16.5 11.1,-19.7 7.2,-19.7 C3.2,-19.7 0,-16.5 0,-12.6 C0,-7.2 5.3,-4.7 10,-4.7 C15.3,-4.7 18.8,-7.2 22.2,-10.9 L10.8,24.7 L13.5,25.5 L27.5,-18.6 C27.6,-18.7 27.6,-18.9 27.6,-19.1 C27.6,-19.6 27.3,-20 26.7,-20.3"/>
<path class="Beam" fill-rule="evenodd" d="M1369.83,389.6 L1446.04,389.6 L1446.04,402 L1369.83,402 L1369.83,389.6 "/>
<path class="Beam" fill-rule="evenodd" d="M1933.64,635.4 L1988.74,635.4 L1988.74,647.8 L1933.64,647.8 L1933.64,635.4 "/>
<path class="Beam" fill-rule="evenodd" d="M956.399,1116.8 L1024.31,1116.8 L1024.31,1129.2 L956.399,1129.2 L956.399,1116.8 "/>
<path class="Beam" fill-rule="evenodd" d="M497.45,271.8 L573.655,271.8 L573.655,284.2 L497.45,284.2 L497.45,271.8 "/>
<path class="Beam" fill-rule="evenodd" d="M1908.24,290.38 L1984.44,296.58 L1984.44,309.021 L1908.24,302.821 L1908.24,290.38 "/>
<path class="Beam" fill-rule="evenodd" d="M474.064,1129.17 L607.396,1116.77 L607.396,1129.23 L474.064,1141.63 L474.064,1129.17 "/>
<path class="Beam" fill-rule="evenodd" d="M1891.08,1116.8 L1958.98,1116.8 L1958.98,1129.2 L1891.08,1129.2 L1891.08,1116.8 "/>
<path class="Beam" fill-rule="evenodd" d="M901.671,389.579 L1051.6,401.979 L1051.6,414.422 L901.671,402.022 L901.671,389.579 "/>
<path class="Beam" fill-rule="evenodd" d="M462.192,660.2 L569.909,660.2 L569.909,672.6 L462.192,672.6 L462.192,660.2 "/>
<path class="Beam" fill-rule="evenodd" d="M1455.9,998.974 L1523.81,992.774 L1523.81,1005.23 L1455.9,1011.43 L1455.9,998.974 "/>
<path class="Beam" fill-rule="evenodd" d="M844.575,641.6 L966.92,641.6 L966.92,654 L844.575,654 L844.575,641.6 "/>
<path class="Beam" fill-rule="evenodd" d="M1595.05,734.561 L1650.15,740.761 L1650.15,753.239 L1595.05,747.039 L1595.05,734.561 "/>
<path class="Hook" transform="matrix(0.992001,0,0,0.992001,1751.87,986.6)" d="M0,22.7 C0,23 0.1,23.6 0.8,23.8 C5.1,25.2 13.7,30.6 20.2,41.7 C22,44.8 24.9,49.1 24.9,57.4 C24.9,64.6 23.1,72 20.4,79.2 C20.2,79.8 20.1,80.3 20.1,80.7 C20.1,81.4 20.5,81.7 21.2,81.7 C21.8,81.7 22.3,81.3 22.7,80.6 C27.2,72.6 28.9,63.3 28.9,54.2 C28.4,41.3 21,31.8 21,31.8 C21.3,31.8 11.8,19.5 9.1,15.3 C5.4,9.6 3.7,3.9 3.5,3.5 C3.4,3.2 2.5,-0.4 2.5,-0.4 C2.4,-0.8 1.9,-1.2 1.3,-1.2 C0.6,-1.2 0,-0.6 0,0.1 L0,22.7 "/>
<path class="Hook" transform="matrix(0.992001,0,0,0.992001,1723.93,259.4)" d="M0,22.7 C0,23 0.1,23.6 0.8,23.8 C5.1,25.2 13.7,30.6 20.2,41.7 C22,44.8 24.9,49.1 24.9,57.4 C24.9,64.6 23.1,72 20.4,79.2 C20.2,79.8 20.1,80.3 20.1,80.7 C20.1,81.4 20.5,81.7 21.2,81.7 C21.8,81.7 22.3,81.3 22.7,80.6 C27.2,72.6 28.9,63.3 28.9,54.2 C28.4,41.3 21,31.8 21,31.8 C21.3,31.8 11.8,19.5 9.1,15.3 C5.4,9.6 3.7,3.9 3.5,3.5 C3.4,3.2 2.5,-0.4 2.5,-0.4 C2.4,-0.8 1.9,-1.2 1.3,-1.2 C0.6,-1.2 0,-0.6 0,0.1 L0,22.7 "/>
<path class="Hook" transform="matrix(0.992001,0,0,0.992001,1463.5,759.4)" d="M0,-0.1 C0,0.6 0.6,1.2 1.3,1.2 C1.8,1.2 2.4,0.8 2.5,0.4 C2.5,0.3 3.4,-3.2 3.5,-3.5 C3.6,-3.9 4.5,-7.7 8.1,-13.6 C12,-20.1 18,-24.8 23,-31.8 C28,-38.8 30.9,-45.4 30.9,-54.2 C30.9,-63.3 28.9,-70.9 23.5,-80.6 C23.2,-81.3 22.6,-81.7 22,-81.7 C21.8,-81.7 21.6,-81.7 21.5,-81.6 C21,-81.4 20.8,-81 20.8,-80.4 C20.8,-80.1 20.9,-79.7 21.1,-79.2 C25.1,-69.9 26.7,-64.6 26.7,-57.4 C26.7,-49.1 23.8,-44.8 22,-41.7 C15.5,-30.6 5,-25.2 0.8,-23.8 C0.1,-23.6 0,-23 0,-22.7 L0,-0.1 "/>
<path class="Hook" transform="matrix(0.992001,0,0,0.992001,1273.28,629.2)" d="M0,22.7 C0,23 0.1,23.6 0.8,23.8 C5.1,25.2 13.7,30.6 20.2,41.7 C22,44.8 24.9,49.1 24.9,57.4 C24.9,64.6 23.1,72 20.4,79.2 C20.2,79.8 20.1,80.3 20.1,80.7 C20.1,81.4 20.5,81.7 21.2,81.7 C21.8,81.7 22.3,81.3 22.7,80.6 C27.2,72.6 28.9,63.3 28.9,54.2 C28.4,41.3 21,31.8 21,31.8 C21.3,31.8 11.8,19.5 9.1,15.3 C5.4,9.6 3.7,3.9 3.5,3.5 C3.4,3.2 2.5,-0.4 2.5,-0.4 C2.4,-0.8 1.9,-1.2 1.3,-1.2 C0.6,-1.2 0,-0.6 0,0.1 L0,22.7 "/>
<path class="Hook" transform="matrix(0.992001,0,0,0.992001,1292.34,992.8)" d="M0,22.7 C0,23 0.1,23.6 0.8,23.8 C5.1,25.2 13.7,30.6 20.2,41.7 C22,44.8 24.9,49.1 24.9,57.4 C24.9,64.6 23.1,72 20.4,79.2 C20.2,79.8 20.1,80.3 20.1,80.7 C20.1,81.4 20.5,81.7 21.2,81.7 C21.8,81.7 22.3,81.3 22.7,80.6 C27.2,72.6 28.9,63.3 28.9,54.2 C28.4,41.3 21,31.8 21,31.8 C21.3,31.8 11.8,19.5 9.1,15.3 C5.4,9.6 3.7,3.9 3.5,3.5 C3.4,3.2 2.5,-0.4 2.5,-0.4 C2.4,-0.8 1.9,-1.2 1.3,-1.2 C0.6,-1.2 0,-0.6 0,0.1 L0,22.7 "/>
<path class="Lyrics" d="M635.144,1179.61 L635.144,1193.56 L638.944,1193.56 L638.944,1166.41 L635.144,1166.41 L635.144,1176.46 L625.744,1176.46 L625.744,1179.61 L635.144,1179.61 M639.394,1201.81 C639.394,1196.71 634.144,1193.56 624.744,1193.56 C615.394,1193.56 610.144,1196.71 610.144,1201.81 C610.144,1206.91 615.394,1210.06 624.744,1210.06 C634.144,1210.06 639.394,1206.91 639.394,1201.81 M624.744,1196.66 C631.544,1196.66 635.544,1198.56 635.544,1201.81 C635.544,1205.11 631.544,1206.96 624.744,1206.96 C618.044,1206.96 613.994,1205.11 613.994,1201.81 C613.994,1198.56 618.044,1196.66 624.744,1196.66 M628.094,1187.21 C623.144,1185.41 617.394,1180.16 617.394,1173.16 L617.394,1168.91 L613.544,1168.91 L613.544,1173.26 C613.544,1180.21 608.994,1185.81 602.694,1188.71 L605.044,1191.66 C610.094,1189.11 614.244,1184.51 615.594,1180.01 C617.294,1184.36 621.644,1188.16 625.844,1190.16 L628.094,1187.21 "/>
<path class="Lyrics" d="M555.531,1189.76 L555.531,1169.31 L551.831,1169.31 L551.831,1176.06 L541.681,1176.06 L541.681,1169.31 L537.981,1169.31 L537.981,1189.76 L555.531,1189.76 M573.231,1192.36 L573.231,1166.41 L569.431,1166.41 L569.431,1177.56 L564.031,1177.56 L564.031,1167.21 L560.381,1167.21 L560.381,1192.06 L564.031,1192.06 L564.031,1180.71 L569.431,1180.71 L569.431,1192.36 L573.231,1192.36 M573.231,1210.11 L573.231,1194.71 L543.681,1194.71 L543.681,1197.86 L569.331,1197.86 L569.331,1210.11 L573.231,1210.11 M551.831,1186.61 L541.681,1186.61 L541.681,1179.21 L551.831,1179.21 L551.831,1186.61 "/>
<path class="Lyrics" d="M491.514,1190.51 L491.514,1170.26 L470.814,1170.26 L470.814,1190.51 L491.514,1190.51 M487.714,1187.36 L474.614,1187.36 L474.614,1173.41 L487.714,1173.41 L487.714,1187.36 M509.564,1182.66 L509.564,1179.46 L502.914,1179.46 L502.914,1166.41 L499.114,1166.41 L499.114,1198.16 L502.914,1198.16 L502.914,1182.66 L509.564,1182.66 M504.614,1208.61 L504.614,1205.46 L479.364,1205.46 L479.364,1195.16 L475.564,1195.16 L475.564,1208.61 L504.614,1208.61 "/>
<path class="Lyrics" d="M745.558,1210.11 L745.558,1166.41 L741.758,1166.41 L741.758,1210.11 L745.558,1210.11 M711.058,1185.11 C711.058,1194.41 715.158,1200.61 722.308,1200.61 C729.558,1200.61 733.608,1194.41 733.608,1185.16 C733.608,1175.91 729.558,1169.71 722.308,1169.71 C715.158,1169.71 711.058,1175.91 711.058,1185.11 M730.008,1185.16 C730.008,1192.31 726.958,1197.31 722.308,1197.31 C717.708,1197.31 714.658,1192.31 714.658,1185.16 C714.658,1177.96 717.708,1173.01 722.308,1173.01 C726.958,1173.01 730.008,1177.96 730.008,1185.16"/>
<path class="Lyrics" d="M297.286,1192.16 L297.286,1188.96 L257.836,1188.96 L257.836,1192.16 L297.286,1192.16 M293.086,1209.16 L293.086,1206.01 L266.786,1206.01 L266.786,1196.26 L262.986,1196.26 L262.986,1209.16 L293.086,1209.16 M292.886,1183.51 L292.886,1180.36 L266.936,1180.36 L266.936,1168.26 L263.136,1168.26 L263.136,1183.51 L292.886,1183.51 "/>
<path class="Lyrics" d="M1976.87,821.995 C1971.47,818.495 1967.37,813.095 1967.37,804.495 L1967.37,799.695 L1975.77,799.695 L1975.77,796.545 L1954.92,796.545 L1954.92,799.695 L1963.62,799.695 L1963.62,804.595 C1963.62,813.095 1959.02,819.995 1953.87,823.295 L1956.42,825.945 C1960.67,822.945 1964.62,817.745 1965.52,812.895 C1966.77,817.495 1971.37,822.595 1974.47,824.795 L1976.87,821.995 M1982.77,832.895 L1982.77,792.445 L1979.02,792.445 L1979.02,807.445 L1972.02,807.445 L1972.02,810.595 L1979.02,810.595 L1979.02,832.895 L1982.77,832.895 M1991.42,835.095 L1991.42,791.395 L1987.67,791.395 L1987.67,835.095 L1991.42,835.095 "/>
<path class="Lyrics" d="M1937.26,835.095 L1937.26,791.395 L1933.46,791.395 L1933.46,835.095 L1937.26,835.095 M1902.76,810.095 C1902.76,819.395 1906.86,825.595 1914.01,825.595 C1921.26,825.595 1925.31,819.395 1925.31,810.145 C1925.31,800.895 1921.26,794.695 1914.01,794.695 C1906.86,794.695 1902.76,800.895 1902.76,810.095 M1921.71,810.145 C1921.71,817.295 1918.66,822.295 1914.01,822.295 C1909.41,822.295 1906.36,817.295 1906.36,810.145 C1906.36,802.945 1909.41,797.995 1914.01,797.995 C1918.66,797.995 1921.71,802.945 1921.71,810.145"/>
<path class="Lyrics" d="M1775,804.745 L1783.3,804.745 L1783.3,813.845 L1775,813.845 L1775,816.995 L1783.3,816.995 L1783.3,835.095 L1787.1,835.095 L1787.1,791.395 L1783.3,791.395 L1783.3,801.595 L1775,801.595 L1775,804.745 M1772.55,824.045 L1772.55,795.795 L1752.75,795.795 L1752.75,824.045 L1772.55,824.045 M1768.75,820.895 L1756.55,820.895 L1756.55,798.945 L1768.75,798.945 L1768.75,820.895 "/>
<path class="Lyrics" d="M278.609,452.575 L286.909,452.575 L286.909,461.675 L278.609,461.675 L278.609,464.825 L286.909,464.825 L286.909,482.925 L290.709,482.925 L290.709,439.225 L286.909,439.225 L286.909,449.425 L278.609,449.425 L278.609,452.575 M276.159,471.875 L276.159,443.625 L256.359,443.625 L256.359,471.875 L276.159,471.875 M272.359,468.725 L260.159,468.725 L260.159,446.775 L272.359,446.775 L272.359,468.725 "/>
<path class="Lyrics" d="M977.497,1193.86 C972.747,1195.01 964.197,1195.66 956.697,1195.71 L956.697,1170.76 L952.897,1170.76 L952.897,1199.06 L955.547,1199.06 C962.197,1199.06 972.697,1198.31 978.047,1197.06 L977.497,1193.86 M984.997,1166.41 L981.197,1166.41 L981.197,1210.11 L984.997,1210.11 L984.997,1187.01 L992.147,1187.01 L992.147,1183.76 L984.997,1183.76 L984.997,1166.41 "/>
<path class="Lyrics" d="M1676.86,791.395 L1676.86,835.095 L1680.66,835.095 L1680.66,791.395 L1676.86,791.395 M1672.86,820.045 C1667.56,820.995 1658.91,821.395 1651.96,821.395 L1650.91,821.395 L1650.91,810.945 L1667.51,810.945 L1667.51,795.445 L1646.91,795.445 L1646.91,798.595 L1663.66,798.595 L1663.66,807.795 L1647.11,807.795 L1647.11,824.645 L1651.56,824.645 C1661.16,824.645 1668.66,823.895 1673.21,823.195 L1672.86,820.045 "/>
<path class="Lyrics" d="M1626.16,816.295 L1626.16,813.145 L1600.21,813.145 L1600.21,798.895 L1625.76,798.895 L1625.76,795.745 L1596.41,795.745 L1596.41,816.295 L1626.16,816.295 M1630.91,829.095 L1630.91,825.895 L1591.46,825.895 L1591.46,829.095 L1630.91,829.095 "/>
<path class="Lyrics" d="M1057.68,1189.71 L1057.68,1186.76 L1018.23,1186.76 L1018.23,1189.71 L1057.68,1189.71 M1054.38,1209.31 L1054.38,1206.31 L1026.58,1206.31 L1026.58,1202.31 L1053.03,1202.31 L1053.03,1193.16 L1022.83,1193.16 L1022.83,1195.96 L1049.23,1195.96 L1049.23,1199.61 L1022.78,1199.61 L1022.78,1209.31 L1054.38,1209.31 M1053.63,1183.31 L1053.63,1180.46 L1027.03,1180.46 L1027.03,1177.01 L1052.78,1177.01 L1052.78,1167.86 L1023.18,1167.86 L1023.18,1170.86 L1048.98,1170.86 L1048.98,1174.26 L1023.23,1174.26 L1023.23,1183.31 L1053.63,1183.31 "/>
<path class="Lyrics" d="M1552.15,807.595 L1545.5,807.595 L1545.5,801.345 L1552.15,801.345 L1552.15,798.145 L1545.5,798.145 L1545.5,791.395 L1541.7,791.395 L1541.7,817.745 L1545.5,817.745 L1545.5,810.745 L1552.15,810.745 L1552.15,807.595 M1545.85,826.595 C1545.85,821.645 1540.9,818.195 1531.35,818.195 C1521.85,818.195 1516.95,821.545 1516.95,826.595 C1516.95,831.595 1521.85,834.995 1531.35,834.995 C1540.9,834.995 1545.85,831.595 1545.85,826.595 M1531.35,821.345 C1537.95,821.345 1541.95,823.395 1541.95,826.595 C1541.95,829.845 1537.95,831.845 1531.35,831.845 C1524.75,831.845 1520.85,829.745 1520.85,826.595 C1520.85,823.445 1524.75,821.345 1531.35,821.345 M1523.7,793.795 C1517.45,793.795 1512.35,797.995 1512.35,804.345 C1512.35,810.745 1517.45,814.695 1523.7,814.695 C1529.9,814.695 1535,810.745 1535,804.295 C1535,797.995 1529.9,793.795 1523.7,793.795 M1523.7,796.895 C1528.3,796.895 1531.35,799.995 1531.35,804.345 C1531.35,808.645 1528.25,811.595 1523.7,811.595 C1519.3,811.595 1516.05,808.645 1516.05,804.295 C1516.05,799.995 1519.3,796.895 1523.7,796.895"/>
<path class="Lyrics" d="M1460.43,804.045 L1470.23,804.045 L1470.23,804.345 C1470.23,809.895 1465.03,815.195 1459.18,816.945 L1461.28,819.845 C1466.28,818.095 1470.83,813.745 1472.28,809.845 C1474.33,813.795 1478.93,817.395 1482.78,818.595 L1484.73,815.595 C1479.58,814.345 1474.23,809.745 1474.23,804.245 L1474.23,804.045 L1483.88,804.045 L1483.88,800.945 L1460.43,800.945 L1460.43,804.045 M1500.08,808.245 L1500.08,805.045 L1493.43,805.045 L1493.43,791.395 L1489.63,791.395 L1489.63,823.145 L1493.43,823.145 L1493.43,808.245 L1500.08,808.245 M1495.13,833.695 L1495.13,830.495 L1469.88,830.495 L1469.88,821.045 L1466.08,821.045 L1466.08,833.695 L1495.13,833.695 M1466.13,796.695 L1478.33,796.695 L1478.33,793.445 L1466.13,793.445 L1466.13,796.695 "/>
<path class="Lyrics" d="M1396.17,835.095 L1396.17,791.395 L1392.37,791.395 L1392.37,835.095 L1396.17,835.095 M1383.62,823.845 L1383.62,795.895 L1362.97,795.895 L1362.97,823.845 L1383.62,823.845 M1379.82,820.695 L1366.82,820.695 L1366.82,799.045 L1379.82,799.045 L1379.82,820.695 "/>
<path class="Lyrics" d="M501.07,482.925 L501.07,439.225 L497.27,439.225 L497.27,482.925 L501.07,482.925 M466.57,457.925 C466.57,467.225 470.67,473.425 477.82,473.425 C485.07,473.425 489.12,467.225 489.12,457.975 C489.12,448.725 485.07,442.525 477.82,442.525 C470.67,442.525 466.57,448.725 466.57,457.925 M485.52,457.975 C485.52,465.125 482.47,470.125 477.82,470.125 C473.22,470.125 470.17,465.125 470.17,457.975 C470.17,450.775 473.22,445.825 477.82,445.825 C482.47,445.825 485.52,450.775 485.52,457.975"/>
<path class="Lyrics" d="M1240.45,804.045 L1250.25,804.045 L1250.25,804.345 C1250.25,809.895 1245.05,815.195 1239.2,816.945 L1241.3,819.845 C1246.3,818.095 1250.85,813.745 1252.3,809.845 C1254.35,813.795 1258.95,817.395 1262.8,818.595 L1264.75,815.595 C1259.6,814.345 1254.25,809.745 1254.25,804.245 L1254.25,804.045 L1263.9,804.045 L1263.9,800.945 L1240.45,800.945 L1240.45,804.045 M1280.1,808.245 L1280.1,805.045 L1273.45,805.045 L1273.45,791.395 L1269.65,791.395 L1269.65,823.145 L1273.45,823.145 L1273.45,808.245 L1280.1,808.245 M1275.15,833.695 L1275.15,830.495 L1249.9,830.495 L1249.9,821.045 L1246.1,821.045 L1246.1,833.695 L1275.15,833.695 M1246.15,796.695 L1258.35,796.695 L1258.35,793.445 L1246.15,793.445 L1246.15,796.695 "/>
<path class="Lyrics" d="M1974.99,1171.66 L1967.19,1171.66 L1967.19,1174.86 L1971.19,1174.86 C1971.34,1182.06 1970.44,1192.01 1963.89,1199.96 L1967.04,1202.06 C1970.69,1197.16 1972.74,1192.31 1973.74,1187.16 L1979.94,1187.16 L1979.94,1207.91 L1983.64,1207.91 L1983.64,1167.46 L1979.94,1167.46 L1979.94,1183.96 L1974.34,1183.96 C1974.84,1180.16 1974.94,1176.11 1974.99,1171.66 M1991.54,1210.11 L1991.54,1166.41 L1987.79,1166.41 L1987.79,1210.11 L1991.54,1210.11 M1965.24,1171.66 L1955.34,1171.66 L1955.34,1174.86 L1961.54,1174.86 C1961.54,1180.71 1960.24,1190.21 1953.74,1197.41 L1956.74,1199.51 C1963.19,1191.91 1965.24,1182.66 1965.24,1171.66"/>
<path class="Lyrics" d="M1169.08,1184.01 L1169.08,1167.46 L1165.23,1167.46 L1165.23,1172.76 L1143.38,1172.76 L1143.38,1167.46 L1139.58,1167.46 L1139.58,1184.01 L1152.33,1184.01 L1152.33,1188.71 L1134.58,1188.71 L1134.58,1191.86 L1174.03,1191.86 L1174.03,1188.71 L1156.13,1188.71 L1156.13,1184.01 L1169.08,1184.01 M1138.88,1196.21 L1138.88,1199.36 L1165.38,1199.36 L1165.38,1210.41 L1169.18,1210.41 L1169.18,1196.21 L1138.88,1196.21 M1165.23,1180.86 L1143.38,1180.86 L1143.38,1175.91 L1165.23,1175.91 L1165.23,1180.86 "/>
<path class="Lyrics" d="M1048.48,795.195 C1042.13,795.195 1038.88,801.395 1038.88,810.145 C1038.88,818.945 1042.13,825.095 1048.48,825.095 C1054.48,825.095 1057.68,819.745 1058.08,811.845 L1062.78,811.845 L1062.78,832.995 L1066.48,832.995 L1066.48,792.245 L1062.78,792.245 L1062.78,808.695 L1058.08,808.695 C1057.78,800.745 1054.53,795.195 1048.48,795.195 M1054.33,810.145 C1054.33,817.245 1052.03,821.745 1048.48,821.745 C1044.98,821.745 1042.73,817.245 1042.73,810.145 C1042.73,803.095 1044.98,798.545 1048.48,798.545 C1052.03,798.545 1054.33,803.095 1054.33,810.145 M1075.03,835.095 L1075.03,791.395 L1071.28,791.395 L1071.28,835.095 L1075.03,835.095 "/>
<path class="Lyrics" d="M561.785,469.825 C556.385,466.325 552.285,460.925 552.285,452.325 L552.285,447.525 L560.685,447.525 L560.685,444.375 L539.835,444.375 L539.835,447.525 L548.535,447.525 L548.535,452.425 C548.535,460.925 543.935,467.825 538.785,471.125 L541.335,473.775 C545.585,470.775 549.535,465.575 550.435,460.725 C551.685,465.325 556.285,470.425 559.385,472.625 L561.785,469.825 M567.685,480.725 L567.685,440.275 L563.935,440.275 L563.935,455.275 L556.935,455.275 L556.935,458.425 L563.935,458.425 L563.935,480.725 L567.685,480.725 M576.335,482.925 L576.335,439.225 L572.585,439.225 L572.585,482.925 L576.335,482.925 "/>
<path class="Lyrics" d="M970.72,805.395 L970.72,802.195 L964.07,802.195 L964.07,791.395 L960.27,791.395 L960.27,815.445 L964.07,815.445 L964.07,805.395 L970.72,805.395 M965.12,821.095 L965.12,817.945 L935.82,817.945 L935.82,821.095 L965.12,821.095 M965.62,834.395 L965.62,831.245 L958.87,831.245 L960.52,823.295 L956.82,822.745 L955.37,831.245 L945.67,831.245 L944.67,822.695 L940.87,823.195 L942.12,831.245 L935.32,831.245 L935.32,834.395 L965.62,834.395 M942.27,793.345 C936.02,793.345 930.92,797.495 930.92,803.845 C930.92,810.245 936.02,814.245 942.27,814.245 C948.47,814.245 953.57,810.245 953.57,803.795 C953.57,797.495 948.47,793.345 942.27,793.345 M942.27,796.445 C946.87,796.445 949.92,799.545 949.92,803.845 C949.92,808.195 946.82,811.145 942.27,811.145 C937.87,811.145 934.62,808.195 934.62,803.795 C934.62,799.545 937.87,796.445 942.27,796.445"/>
<path class="Lyrics" d="M1289.95,1199.86 L1289.6,1196.81 C1286.8,1197.21 1281.7,1197.56 1276.85,1197.76 L1276.85,1188.61 L1286.8,1188.61 L1286.8,1185.46 L1267.75,1185.46 L1267.75,1173.96 L1286.65,1173.96 L1286.65,1170.81 L1263.95,1170.81 L1263.95,1188.61 L1273.05,1188.61 L1273.05,1197.91 C1268.45,1198.06 1264.05,1198.11 1260.7,1198.11 L1261.35,1201.46 C1264.2,1201.46 1270.8,1201.26 1275.65,1201.01 C1281,1200.71 1286.5,1200.31 1289.95,1199.86 M1296.75,1210.11 L1296.75,1166.41 L1293,1166.41 L1293,1210.11 L1296.75,1210.11 "/>
<path class="Lyrics" d="M914.926,834.445 L914.926,818.445 L886.276,818.445 L886.276,834.445 L914.926,834.445 M911.126,831.295 L890.076,831.295 L890.076,821.545 L911.126,821.545 L911.126,831.295 M911.126,791.395 L911.126,815.695 L914.926,815.695 L914.926,791.395 L911.126,791.395 M907.026,807.495 C901.426,808.645 891.626,809.645 885.276,809.395 L885.276,793.645 L881.476,793.645 L881.476,812.745 L883.976,812.745 C891.576,812.745 902.626,811.795 907.476,810.745 L907.026,807.495 "/>
<path class="Lyrics" d="M848.83,808.995 C842.13,808.245 833.18,803.795 832.98,797.645 L847.03,797.645 L847.03,794.495 L814.83,794.495 L814.83,797.645 L828.98,797.645 C828.78,803.745 820.33,808.345 813.18,809.095 L814.93,812.295 C822.38,811.045 829.18,806.545 830.93,802.445 C832.93,806.545 839.88,810.945 847.03,812.195 L848.83,808.995 M832.78,835.095 L832.78,819.445 L850.68,819.445 L850.68,816.245 L811.23,816.245 L811.23,819.445 L828.98,819.445 L828.98,835.095 L832.78,835.095 "/>
<path class="Lyrics" d="M1356.59,1166.41 L1352.79,1166.41 L1352.79,1210.11 L1356.59,1210.11 L1356.59,1186.96 L1363.69,1186.96 L1363.69,1183.76 L1356.59,1183.76 L1356.59,1166.41 M1328.44,1196.16 L1328.44,1174.16 L1345.34,1174.16 L1345.34,1170.96 L1324.59,1170.96 L1324.59,1199.41 L1328.89,1199.41 C1336.49,1199.41 1345.14,1198.81 1349.84,1197.91 L1349.44,1194.76 C1345.24,1195.66 1336.59,1196.16 1330.94,1196.16 L1328.44,1196.16 "/>
<path class="Lyrics" d="M677.185,835.095 L677.185,791.395 L673.385,791.395 L673.385,835.095 L677.185,835.095 M642.685,810.095 C642.685,819.395 646.785,825.595 653.935,825.595 C661.185,825.595 665.235,819.395 665.235,810.145 C665.235,800.895 661.185,794.695 653.935,794.695 C646.785,794.695 642.685,800.895 642.685,810.095 M661.635,810.145 C661.635,817.295 658.585,822.295 653.935,822.295 C649.335,822.295 646.285,817.295 646.285,810.145 C646.285,802.945 649.335,797.995 653.935,797.995 C658.585,797.995 661.635,802.945 661.635,810.145"/>
<path class="Lyrics" d="M567.033,808.145 C567.033,804.095 562.283,801.945 553.833,801.945 C545.383,801.945 540.683,804.095 540.683,808.145 C540.683,811.895 544.633,813.995 551.833,814.345 L551.833,817.595 L534.083,817.595 L534.083,820.745 L573.533,820.745 L573.533,817.595 L555.633,817.595 L555.633,814.345 C562.933,814.045 567.033,811.895 567.033,808.145 M569.183,833.795 L569.183,830.645 L543.033,830.645 L543.033,823.045 L539.233,823.045 L539.233,833.795 L569.183,833.795 M571.083,800.195 L571.083,797.095 L536.533,797.095 L536.533,800.195 L571.083,800.195 M563.083,808.195 C563.083,810.445 559.183,811.345 553.833,811.345 C548.533,811.345 544.633,810.445 544.633,808.195 C544.633,805.845 548.533,804.995 553.833,804.995 C559.183,804.995 563.083,805.845 563.083,808.195 M561.483,794.895 L561.483,791.745 L546.433,791.745 L546.433,794.895 L561.483,794.895 "/>
<path class="Lyrics" d="M518.887,826.895 C518.887,821.695 513.537,818.545 503.987,818.545 C494.487,818.545 489.137,821.695 489.137,826.895 C489.137,831.945 494.487,835.195 503.987,835.195 C513.537,835.195 518.887,831.945 518.887,826.895 M507.087,811.295 L515.037,811.295 L515.037,818.445 L518.837,818.445 L518.837,791.395 L515.037,791.395 L515.037,797.195 L507.087,797.195 L507.087,800.445 L515.037,800.445 L515.037,808.045 L507.087,808.045 L507.087,811.295 M514.987,826.895 C514.987,830.095 510.937,831.945 503.987,831.945 C497.187,831.945 493.087,830.095 493.087,826.895 C493.087,823.645 497.187,821.745 503.987,821.745 C510.937,821.745 514.987,823.645 514.987,826.895 M494.737,794.045 C488.587,794.045 483.487,798.245 483.487,804.545 C483.487,810.895 488.637,814.895 494.737,814.895 C500.887,814.895 505.937,810.895 505.937,804.495 C505.937,798.145 500.887,794.045 494.737,794.045 M494.737,797.295 C499.237,797.295 502.137,800.195 502.137,804.545 C502.137,808.945 499.187,811.795 494.737,811.795 C490.437,811.795 487.287,808.945 487.287,804.495 C487.287,800.145 490.437,797.295 494.737,797.295"/>
<path class="Lyrics" d="M1462.74,1188.06 L1462.74,1184.86 L1455.64,1184.86 L1455.64,1166.41 L1451.84,1166.41 L1451.84,1210.11 L1455.64,1210.11 L1455.64,1188.06 L1462.74,1188.06 M1441.19,1172.66 L1441.19,1169.41 L1428.34,1169.41 L1428.34,1172.66 L1441.19,1172.66 M1447.64,1180.06 L1447.64,1176.91 L1421.84,1176.91 L1421.84,1180.06 L1447.64,1180.06 M1445.04,1191.91 C1445.04,1186.76 1440.94,1182.86 1434.84,1182.86 C1428.74,1182.86 1424.64,1186.81 1424.64,1191.91 C1424.64,1197.01 1428.74,1200.91 1434.84,1200.91 C1440.94,1200.91 1445.04,1196.96 1445.04,1191.91 M1441.24,1191.91 C1441.24,1195.31 1438.59,1197.76 1434.84,1197.76 C1431.19,1197.76 1428.44,1195.31 1428.44,1191.91 C1428.44,1188.46 1431.19,1186.06 1434.84,1186.06 C1438.54,1186.06 1441.24,1188.46 1441.24,1191.91"/>
<path class="Lyrics" d="M466.04,835.095 L466.04,791.395 L462.29,791.395 L462.29,808.795 L456.54,808.795 L456.54,792.445 L452.84,792.445 L452.84,832.845 L456.54,832.845 L456.54,811.995 L462.29,811.995 L462.29,835.095 L466.04,835.095 M449.89,818.895 C446.69,819.745 439.44,820.345 434.89,820.245 L434.89,796.195 L431.09,796.195 L431.09,823.545 L434.44,823.545 C439.99,823.545 446.69,822.945 450.34,822.095 L449.89,818.895 "/>
<path class="Lyrics" d="M290.058,791.395 L286.308,791.395 L286.308,835.095 L290.058,835.095 L290.058,812.195 L297.108,812.195 L297.108,808.995 L290.058,808.995 L290.058,791.395 M282.458,819.995 C276.608,821.095 268.858,821.545 261.908,821.495 L261.908,810.945 L278.208,810.945 L278.208,795.445 L258.008,795.445 L258.008,798.595 L274.408,798.595 L274.408,807.795 L258.108,807.795 L258.108,824.695 L261.808,824.695 C268.958,824.695 278.058,824.045 282.958,823.045 L282.458,819.995 "/>
<path class="Lyrics" d="M1520.77,1166.41 L1520.77,1210.11 L1524.57,1210.11 L1524.57,1166.41 L1520.77,1166.41 M1516.77,1195.06 C1511.47,1196.01 1502.82,1196.41 1495.87,1196.41 L1494.82,1196.41 L1494.82,1185.96 L1511.42,1185.96 L1511.42,1170.46 L1490.82,1170.46 L1490.82,1173.61 L1507.57,1173.61 L1507.57,1182.81 L1491.02,1182.81 L1491.02,1199.66 L1495.47,1199.66 C1505.07,1199.66 1512.57,1198.91 1517.12,1198.21 L1516.77,1195.06 "/>
<path class="Lyrics" d="M1981.41,439.225 L1981.41,482.925 L1985.21,482.925 L1985.21,439.225 L1981.41,439.225 M1977.41,467.875 C1972.11,468.825 1963.46,469.225 1956.51,469.225 L1955.46,469.225 L1955.46,458.775 L1972.06,458.775 L1972.06,443.275 L1951.46,443.275 L1951.46,446.425 L1968.21,446.425 L1968.21,455.625 L1951.66,455.625 L1951.66,472.475 L1956.11,472.475 C1965.71,472.475 1973.21,471.725 1977.76,471.025 L1977.41,467.875 "/>
<path class="Lyrics" d="M1915.08,460.875 L1915.08,457.675 L1907.98,457.675 L1907.98,439.225 L1904.18,439.225 L1904.18,482.925 L1907.98,482.925 L1907.98,460.875 L1915.08,460.875 M1893.53,445.475 L1893.53,442.225 L1880.68,442.225 L1880.68,445.475 L1893.53,445.475 M1899.98,452.875 L1899.98,449.725 L1874.18,449.725 L1874.18,452.875 L1899.98,452.875 M1897.38,464.725 C1897.38,459.575 1893.28,455.675 1887.18,455.675 C1881.08,455.675 1876.98,459.625 1876.98,464.725 C1876.98,469.825 1881.08,473.725 1887.18,473.725 C1893.28,473.725 1897.38,469.775 1897.38,464.725 M1893.58,464.725 C1893.58,468.125 1890.93,470.575 1887.18,470.575 C1883.53,470.575 1880.78,468.125 1880.78,464.725 C1880.78,461.275 1883.53,458.875 1887.18,458.875 C1890.88,458.875 1893.58,461.275 1893.58,464.725"/>
<path class="Lyrics" d="M1796.47,439.225 L1792.67,439.225 L1792.67,482.925 L1796.47,482.925 L1796.47,459.775 L1803.57,459.775 L1803.57,456.575 L1796.47,456.575 L1796.47,439.225 M1768.32,468.975 L1768.32,446.975 L1785.22,446.975 L1785.22,443.775 L1764.47,443.775 L1764.47,472.225 L1768.77,472.225 C1776.37,472.225 1785.02,471.625 1789.72,470.725 L1789.32,467.575 C1785.12,468.475 1776.47,468.975 1770.82,468.975 L1768.32,468.975 "/>
<path class="Lyrics" d="M1721.54,472.675 L1721.19,469.625 C1718.39,470.025 1713.29,470.375 1708.44,470.575 L1708.44,461.425 L1718.39,461.425 L1718.39,458.275 L1699.34,458.275 L1699.34,446.775 L1718.24,446.775 L1718.24,443.625 L1695.54,443.625 L1695.54,461.425 L1704.64,461.425 L1704.64,470.725 C1700.04,470.875 1695.64,470.925 1692.29,470.925 L1692.94,474.275 C1695.79,474.275 1702.39,474.075 1707.24,473.825 C1712.59,473.525 1718.09,473.125 1721.54,472.675 M1728.34,482.925 L1728.34,439.225 L1724.59,439.225 L1724.59,482.925 L1728.34,482.925 "/>
<path class="Lyrics" d="M697.922,464.975 L697.922,461.775 L658.472,461.775 L658.472,464.975 L697.922,464.975 M693.722,481.975 L693.722,478.825 L667.422,478.825 L667.422,469.075 L663.622,469.075 L663.622,481.975 L693.722,481.975 M693.522,456.325 L693.522,453.175 L667.572,453.175 L667.572,441.075 L663.772,441.075 L663.772,456.325 L693.522,456.325 "/>
<path class="Lyrics" d="M1629.77,1166.41 L1626.02,1166.41 L1626.02,1210.11 L1629.77,1210.11 L1629.77,1187.21 L1636.82,1187.21 L1636.82,1184.01 L1629.77,1184.01 L1629.77,1166.41 M1622.17,1195.01 C1616.32,1196.11 1608.57,1196.56 1601.62,1196.51 L1601.62,1185.96 L1617.92,1185.96 L1617.92,1170.46 L1597.72,1170.46 L1597.72,1173.61 L1614.12,1173.61 L1614.12,1182.81 L1597.82,1182.81 L1597.82,1199.71 L1601.52,1199.71 C1608.67,1199.71 1617.77,1199.06 1622.67,1198.06 L1622.17,1195.01 "/>
<path class="Lyrics" d="M1584.89,456.825 L1584.89,440.275 L1581.04,440.275 L1581.04,445.575 L1559.19,445.575 L1559.19,440.275 L1555.39,440.275 L1555.39,456.825 L1568.14,456.825 L1568.14,461.525 L1550.39,461.525 L1550.39,464.675 L1589.84,464.675 L1589.84,461.525 L1571.94,461.525 L1571.94,456.825 L1584.89,456.825 M1554.69,469.025 L1554.69,472.175 L1581.19,472.175 L1581.19,483.225 L1584.99,483.225 L1584.99,469.025 L1554.69,469.025 M1581.04,453.675 L1559.19,453.675 L1559.19,448.725 L1581.04,448.725 L1581.04,453.675 "/>
<path class="Lyrics" d="M1925.08,1184.01 C1918.38,1183.26 1909.43,1178.81 1909.23,1172.66 L1923.28,1172.66 L1923.28,1169.51 L1891.08,1169.51 L1891.08,1172.66 L1905.23,1172.66 C1905.03,1178.76 1896.58,1183.36 1889.43,1184.11 L1891.18,1187.31 C1898.63,1186.06 1905.43,1181.56 1907.18,1177.46 C1909.18,1181.56 1916.13,1185.96 1923.28,1187.21 L1925.08,1184.01 M1909.03,1210.11 L1909.03,1194.46 L1926.93,1194.46 L1926.93,1191.26 L1887.48,1191.26 L1887.48,1194.46 L1905.23,1194.46 L1905.23,1210.11 L1909.03,1210.11 "/>
<path class="Lyrics" d="M1479.41,462.525 L1479.41,459.575 L1439.96,459.575 L1439.96,462.525 L1479.41,462.525 M1476.11,482.125 L1476.11,479.125 L1448.31,479.125 L1448.31,475.125 L1474.76,475.125 L1474.76,465.975 L1444.56,465.975 L1444.56,468.775 L1470.96,468.775 L1470.96,472.425 L1444.51,472.425 L1444.51,482.125 L1476.11,482.125 M1475.36,456.125 L1475.36,453.275 L1448.76,453.275 L1448.76,449.825 L1474.51,449.825 L1474.51,440.675 L1444.91,440.675 L1444.91,443.675 L1470.71,443.675 L1470.71,447.075 L1444.96,447.075 L1444.96,456.125 L1475.36,456.125 "/>
<path class="Lyrics" d="M1390.93,466.675 C1386.18,467.825 1377.63,468.475 1370.13,468.525 L1370.13,443.575 L1366.33,443.575 L1366.33,471.875 L1368.98,471.875 C1375.63,471.875 1386.13,471.125 1391.48,469.875 L1390.93,466.675 M1398.43,439.225 L1394.63,439.225 L1394.63,482.925 L1398.43,482.925 L1398.43,459.825 L1405.58,459.825 L1405.58,456.575 L1398.43,456.575 L1398.43,439.225 "/>
<path class="Lyrics" d="M1192.92,482.925 L1192.92,439.225 L1189.12,439.225 L1189.12,482.925 L1192.92,482.925 M1158.42,457.925 C1158.42,467.225 1162.52,473.425 1169.67,473.425 C1176.92,473.425 1180.97,467.225 1180.97,457.975 C1180.97,448.725 1176.92,442.525 1169.67,442.525 C1162.52,442.525 1158.42,448.725 1158.42,457.925 M1177.37,457.975 C1177.37,465.125 1174.32,470.125 1169.67,470.125 C1165.07,470.125 1162.02,465.125 1162.02,457.975 C1162.02,450.775 1165.07,445.825 1169.67,445.825 C1174.32,445.825 1177.37,450.775 1177.37,457.975"/>
<path class="Lyrics" d="M919.122,463.325 L919.122,443.075 L898.422,443.075 L898.422,463.325 L919.122,463.325 M915.322,460.175 L902.222,460.175 L902.222,446.225 L915.322,446.225 L915.322,460.175 M937.172,455.475 L937.172,452.275 L930.522,452.275 L930.522,439.225 L926.722,439.225 L926.722,470.975 L930.522,470.975 L930.522,455.475 L937.172,455.475 M932.222,481.425 L932.222,478.275 L906.972,478.275 L906.972,467.975 L903.172,467.975 L903.172,481.425 L932.222,481.425 "/>
<path class="Lyrics" d="M1079.35,452.425 L1079.35,466.375 L1083.15,466.375 L1083.15,439.225 L1079.35,439.225 L1079.35,449.275 L1069.95,449.275 L1069.95,452.425 L1079.35,452.425 M1083.6,474.625 C1083.6,469.525 1078.35,466.375 1068.95,466.375 C1059.6,466.375 1054.35,469.525 1054.35,474.625 C1054.35,479.725 1059.6,482.875 1068.95,482.875 C1078.35,482.875 1083.6,479.725 1083.6,474.625 M1068.95,469.475 C1075.75,469.475 1079.75,471.375 1079.75,474.625 C1079.75,477.925 1075.75,479.775 1068.95,479.775 C1062.25,479.775 1058.2,477.925 1058.2,474.625 C1058.2,471.375 1062.25,469.475 1068.95,469.475 M1072.3,460.025 C1067.35,458.225 1061.6,452.975 1061.6,445.975 L1061.6,441.725 L1057.75,441.725 L1057.75,446.075 C1057.75,453.025 1053.2,458.625 1046.9,461.525 L1049.25,464.475 C1054.3,461.925 1058.45,457.325 1059.8,452.825 C1061.5,457.175 1065.85,460.975 1070.05,462.975 L1072.3,460.025 "/>
<path class="Lyrics" d="M991.437,462.575 L991.437,442.125 L987.737,442.125 L987.737,448.875 L977.587,448.875 L977.587,442.125 L973.887,442.125 L973.887,462.575 L991.437,462.575 M1009.14,465.175 L1009.14,439.225 L1005.34,439.225 L1005.34,450.375 L999.937,450.375 L999.937,440.025 L996.287,440.025 L996.287,464.875 L999.937,464.875 L999.937,453.525 L1005.34,453.525 L1005.34,465.175 L1009.14,465.175 M1009.14,482.925 L1009.14,467.525 L979.587,467.525 L979.587,470.675 L1005.24,470.675 L1005.24,482.925 L1009.14,482.925 M987.737,459.425 L977.587,459.425 L977.587,452.025 L987.737,452.025 L987.737,459.425 "/>
<polyline class="LyricsLineSegment" fill="none" stroke="#000000" stroke-width="2.48" stroke-linejoin="bevel" points="839.301,1192.64 859.141,1192.64"/>
<polyline class="LyricsLineSegment" fill="none" stroke="#000000" stroke-width="2.48" stroke-linejoin="bevel" points="1752.22,1192.64 1772.06,1192.64"/>
<path class="NoteDot" transform="matrix(0.992001,0,0,0.992001,1204.18,340)" d="M0,0 C0,2.8 2.2,5 5,5 C7.8,5 10,2.8 10,0 C10,-2.8 7.8,-5 5,-5 C2.2,-5 0,-2.8 0,0"/>
<path class="NoteDot" transform="matrix(0.992001,0,0,0.992001,1598.62,315.2)" d="M0,0 C0,2.8 2.2,5 5,5 C7.8,5 10,2.8 10,0 C10,-2.8 7.8,-5 5,-5 C2.2,-5 0,-2.8 0,0"/>
<path class="NoteDot" transform="matrix(0.992001,0,0,0.992001,1642.34,1067.2)" d="M0,0 C0,2.8 2.2,5 5,5 C7.8,5 10,2.8 10,0 C10,-2.8 7.8,-5 5,-5 C2.2,-5 0,-2.8 0,0"/>
<path class="NoteDot" transform="matrix(0.992001,0,0,0.992001,1085.46,703.6)" d="M0,0 C0,2.8 2.2,5 5,5 C7.8,5 10,2.8 10,0 C10,-2.8 7.8,-5 5,-5 C2.2,-5 0,-2.8 0,0"/>
<path class="NoteDot" transform="matrix(0.992001,0,0,0.992001,1182.81,1067.2)" d="M0,0 C0,2.8 2.2,5 5,5 C7.8,5 10,2.8 10,0 C10,-2.8 7.8,-5 5,-5 C2.2,-5 0,-2.8 0,0"/>
<path class="NoteDot" transform="matrix(0.992001,0,0,0.992001,1408.08,678.8)" d="M0,0 C0,2.8 2.2,5 5,5 C7.8,5 10,2.8 10,0 C10,-2.8 7.8,-5 5,-5 C2.2,-5 0,-2.8 0,0"/>
<path class="NoteDot" transform="matrix(0.992001,0,0,0.992001,1798.44,678.8)" d="M0,0 C0,2.8 2.2,5 5,5 C7.8,5 10,2.8 10,0 C10,-2.8 7.8,-5 5,-5 C2.2,-5 0,-2.8 0,0"/>
<path class="NoteDot" transform="matrix(0.992001,0,0,0.992001,302.047,340)" d="M0,0 C0,2.8 2.2,5 5,5 C7.8,5 10,2.8 10,0 C10,-2.8 7.8,-5 5,-5 C2.2,-5 0,-2.8 0,0"/>
</svg>
