<?xml version="1.0" encoding="UTF-8" standalone="no"?>
<svg
   width="2098.8px"
   height="1418.4px"
   viewBox="0 0 2098.8 1418.4"
   version="1.2"
   id="svg138"
   sodipodi:docname="마니피캇-4.svg"
   inkscape:version="1.3.2 (091e20e, 2023-11-25)"
   xmlns:inkscape="http://www.inkscape.org/namespaces/inkscape"
   xmlns:sodipodi="http://sodipodi.sourceforge.net/DTD/sodipodi-0.dtd"
   xmlns="http://www.w3.org/2000/svg"
   xmlns:svg="http://www.w3.org/2000/svg">
  <defs
     id="defs138" />
  <sodipodi:namedview
     id="namedview138"
     pagecolor="#ffffff"
     bordercolor="#000000"
     borderopacity="0.25"
     inkscape:showpageshadow="2"
     inkscape:pageopacity="0.0"
     inkscape:pagecheckerboard="0"
     inkscape:deskcolor="#d1d1d1"
     inkscape:zoom="0.16638466"
     inkscape:cx="429.72713"
     inkscape:cy="901.52544"
     inkscape:window-width="1312"
     inkscape:window-height="449"
     inkscape:window-x="0"
     inkscape:window-y="25"
     inkscape:window-maximized="0"
     inkscape:current-layer="svg138" />
  <title
     id="title1">529 마니피캇-수정 (4)</title>
  <desc
     id="desc1">Generated by MuseScore 4.2.1</desc>
  <polyline
     class="StaffLines"
     fill="none"
     stroke="#000000"
     stroke-width="2.73"
     stroke-linejoin="bevel"
     points="68.4,278 2030.4,278"
     id="polyline1"
     transform="translate(0,56)" />
  <polyline
     class="StaffLines"
     fill="none"
     stroke="#000000"
     stroke-width="2.73"
     stroke-linejoin="bevel"
     points="68.4,302.8 2030.4,302.8"
     id="polyline2"
     transform="translate(0,56)" />
  <polyline
     class="StaffLines"
     fill="none"
     stroke="#000000"
     stroke-width="2.73"
     stroke-linejoin="bevel"
     points="68.4,327.6 2030.4,327.6"
     id="polyline3"
     transform="translate(0,56)" />
  <polyline
     class="StaffLines"
     fill="none"
     stroke="#000000"
     stroke-width="2.73"
     stroke-linejoin="bevel"
     points="68.4,352.4 2030.4,352.4"
     id="polyline4"
     transform="translate(0,56)" />
  <polyline
     class="StaffLines"
     fill="none"
     stroke="#000000"
     stroke-width="2.73"
     stroke-linejoin="bevel"
     points="68.4,377.2 2030.4,377.2"
     id="polyline5"
     transform="translate(0,56)" />
  <polyline
     class="StaffLines"
     fill="none"
     stroke="#000000"
     stroke-width="2.73"
     stroke-linejoin="bevel"
     points="68.4,885.601 2030.4,885.601"
     id="polyline6"
     transform="translate(0,-138)" />
  <polyline
     class="StaffLines"
     fill="none"
     stroke="#000000"
     stroke-width="2.73"
     stroke-linejoin="bevel"
     points="68.4,910.401 2030.4,910.401"
     id="polyline7"
     transform="translate(0,-138)" />
  <polyline
     class="StaffLines"
     fill="none"
     stroke="#000000"
     stroke-width="2.73"
     stroke-linejoin="bevel"
     points="68.4,935.201 2030.4,935.201"
     id="polyline8"
     transform="translate(0,-138)" />
  <polyline
     class="StaffLines"
     fill="none"
     stroke="#000000"
     stroke-width="2.73"
     stroke-linejoin="bevel"
     points="68.4,960.001 2030.4,960.001"
     id="polyline9"
     transform="translate(0,-138)" />
  <polyline
     class="StaffLines"
     fill="none"
     stroke="#000000"
     stroke-width="2.73"
     stroke-linejoin="bevel"
     points="68.4,984.801 2030.4,984.801"
     id="polyline10"
     transform="translate(0,-138)" />
  <path
     class="MeasureNumber"
     d="m 82.0781,269.84 c 1.88,-0.6 2.64,-0.92 3.6,-1.56 1.88,-1.24 3.04,-3.44 3.04,-5.68 0,-3.8 -3.04,-6.36 -7.52,-6.36 -4.36,0 -8.04,2.72 -8.04,6 0,1.64 1,2.76 2.52,2.76 1.32,0 2.28,-0.96 2.28,-2.28 0,-0.68 -0.2,-1.16 -0.84,-1.8 -0.4,-0.36 -0.56,-0.64 -0.56,-0.92 0,-0.96 2,-1.96 3.88,-1.96 2.68,0 4.28,1.48 4.28,3.96 0,3.56 -2.52,6.92 -5.2,6.92 -0.12,0 -0.48,-0.04 -0.92,-0.08 -1.16,-0.08 -1.16,-0.08 -1.4,-0.08 -0.88,0 -1.36,0.4 -1.36,1.12 0,0.64 0.44,1.04 1.16,1.04 0.2,0 0.48,-0.04 0.8,-0.08 0.56,-0.12 1.16,-0.16 1.52,-0.16 1.88,0 3.16,1.68 3.16,4.16 0,4.32 -2.12,8.48 -6.96,8.48 -2.24,0 -4.16,-1.12 -4.16,-2.4 0,-0.44 0.16,-0.6 0.8,-0.88 1.16,-0.52 1.64,-1.24 1.64,-2.32 0,-1.4 -1.12,-2.48 -2.56,-2.48 -1.72,0 -2.84,1.36 -2.84,3.44 0,3.88 2.96,6.32 7.76,6.32 6.04,0 10.64,-4.04 10.64,-9.4 0,-3.12 -1.92,-4.88 -4.72,-5.76 m 29.1149,-13.76 h -2.161 l -18.6395,19.28 v 1.68 h 11.2805 l -0.641,2.44 c -0.799,3.04 -0.799,3.04 -4.2795,3.04 h -0.72 l -0.24,1.88 h 12.4405 l 0.2,-1.88 h -0.72 c -2.64,0 -3.2,-0.2 -3.2,-1.08 0,-0.32 0.08,-0.72 0.4,-1.96 l 0.68,-2.44 h 4.56 l 0.599,-2.16 h -4.599 l 5.04,-18.8 m -8.92,18.8 h -8.9605 l 12.3605,-12.72 -3.4,12.72"
     id="path10" />
  <path
     class="MeasureNumber"
     d="m 82.0781,683.441 c 1.88,-0.6 2.64,-0.92 3.6,-1.56 1.88,-1.24 3.04,-3.44 3.04,-5.68 0,-3.8 -3.04,-6.36 -7.52,-6.36 -4.36,0 -8.04,2.72 -8.04,6 0,1.64 1,2.76 2.52,2.76 1.32,0 2.28,-0.96 2.28,-2.28 0,-0.68 -0.2,-1.16 -0.84,-1.8 -0.4,-0.36 -0.56,-0.64 -0.56,-0.92 0,-0.96 2,-1.96 3.88,-1.96 2.68,0 4.28,1.48 4.28,3.96 0,3.56 -2.52,6.92 -5.2,6.92 -0.12,0 -0.48,-0.04 -0.92,-0.08 -1.16,-0.08 -1.16,-0.08 -1.4,-0.08 -0.88,0 -1.36,0.4 -1.36,1.12 0,0.64 0.44,1.04 1.16,1.04 0.2,0 0.48,-0.04 0.8,-0.08 0.56,-0.12 1.16,-0.16 1.52,-0.16 1.88,0 3.16,1.68 3.16,4.16 0,4.32 -2.12,8.48 -6.96,8.48 -2.24,0 -4.16,-1.12 -4.16,-2.4 0,-0.44 0.16,-0.6 0.8,-0.88 1.16,-0.52 1.64,-1.24 1.64,-2.32 0,-1.4 -1.12,-2.48 -2.56,-2.48 -1.72,0 -2.84,1.36 -2.84,3.44 0,3.88 2.96,6.32 7.76,6.32 6.04,0 10.64,-4.04 10.64,-9.4 0,-3.12 -1.92,-4.88 -4.72,-5.76 m 23.6739,-0.24 c 3.121,-1.48 6.041,-3.12 6.041,-7.12 0,-3.64 -3.08,-6.24 -7.36,-6.24 -5.1605,0 -9.1605,3.72 -9.1605,8.56 0,2.44 0.84,4 3,5.56 -4.72,1.8 -7.24,4.72 -7.24,8.36 0,3.88 3.2,6.28 8.32,6.28 6.1605,0 10.5605,-3.76 10.5605,-8.96 0,-3.16 -1.72,-4.84 -4.161,-6.44 m -1.72,-0.96 c -4.0795,-1.92 -5.5595,-3.48 -5.5595,-5.76 0,-2.76 2.4805,-4.92 5.6405,-4.92 2.76,0 4.68,1.76 4.68,4.28 0,3 -2.08,5.36 -4.761,6.4 m -4.2395,2.8 c 1.9205,0.88 2.5605,1.2 3.5605,1.8 2,1.2 3.08,2.8 3.08,4.6 0,3.08 -2.88,5.4 -6.6405,5.4 -3.4,0 -5.52,-1.92 -5.52,-5 0,-3 1.92,-5.36 5.52,-6.8"
     id="path11" />
  <path
     class="TieSegment"
     stroke="#000000"
     stroke-width="1.24"
     stroke-linecap="round"
     stroke-linejoin="round"
     fill-rule="evenodd"
     d="m 298.622,791.4 c 31.293,-38.247 125.173,-38.247 156.466,0 -31.293,-30.311 -125.173,-30.311 -156.466,0"
     id="path12" />
  <polyline
     class="BarLine"
     fill="none"
     stroke="#000000"
     stroke-width="4.46"
     stroke-linejoin="bevel"
     points="1576.06,276.636 1576.06,378.564"
     id="polyline12"
     transform="translate(0,56)" />
  <polyline
     class="BarLine"
     fill="none"
     stroke="#000000"
     stroke-width="4.46"
     stroke-linejoin="bevel"
     points="2005.35,884.237 2005.35,986.165"
     id="polyline13"
     transform="translate(0,-138)" />
  <polyline
     class="BarLine"
     fill="none"
     stroke="#000000"
     stroke-width="13.64"
     stroke-linejoin="bevel"
     points="2023.58,884.237 2023.58,986.165"
     id="polyline14"
     transform="translate(0,-138)" />
  <polyline
     class="BarLine"
     fill="none"
     stroke="#000000"
     stroke-width="4.46"
     stroke-linejoin="bevel"
     points="2028.17,276.636 2028.17,378.564"
     id="polyline15"
     transform="translate(0,56)" />
  <polyline
     class="BarLine"
     fill="none"
     stroke="#000000"
     stroke-width="4.46"
     stroke-linejoin="bevel"
     points="1104.51,276.636 1104.51,378.564"
     id="polyline16"
     transform="translate(0,56)" />
  <polyline
     class="BarLine"
     fill="none"
     stroke="#000000"
     stroke-width="4.46"
     stroke-linejoin="bevel"
     points="758.34,884.237 758.34,986.165"
     id="polyline17"
     transform="translate(0,-138)" />
  <polyline
     class="BarLine"
     fill="none"
     stroke="#000000"
     stroke-width="4.46"
     stroke-linejoin="bevel"
     points="1179.09,884.237 1179.09,986.165"
     id="polyline18"
     transform="translate(0,-138)" />
  <polyline
     class="BarLine"
     fill="none"
     stroke="#000000"
     stroke-width="4.46"
     stroke-linejoin="bevel"
     points="1732.68,884.237 1732.68,986.165"
     id="polyline19"
     transform="translate(0,-138)" />
  <polyline
     class="BarLine"
     fill="none"
     stroke="#000000"
     stroke-width="4.46"
     stroke-linejoin="bevel"
     points="680.459,276.636 680.459,378.564"
     id="polyline20"
     transform="translate(0,56)" />
  <path
     class="Accidental"
     d="m 1606.314,417.82398 c -4.96,0 -7.8368,3.07521 -8.3328,3.67041 l 0.3968,-31.84323 c 0,-0.7936 -0.5952,-1.38881 -1.3888,-1.38881 h -1.1904 c -0.7936,0 -1.3888,0.59521 -1.3888,1.38881 l 0.496,59.61926 c 0,0.7936 0.5952,1.3888 1.3888,1.3888 0.1984,0 0.5952,-0.0992 0.7936,-0.1984 8.5312,-4.26561 17.4592,-12.40002 17.4592,-22.61763 0,-5.1584 -2.3808,-10.01921 -8.2336,-10.01921 m -8.6304,27.97443 0.2976,-19.34402 c 0.1984,-0.8928 1.6864,-3.7696 5.6544,-3.7696 3.5712,0 3.8688,3.3728 3.8688,5.456 0,8.82881 -3.2736,12.49922 -9.8208,17.65762"
     id="path20"
     style="stroke-width:0.992001" />
  <path
     class="Accidental"
     d="m 1251.814,380.62398 c -4.96,0 -7.8368,3.07521 -8.3328,3.67041 l 0.3968,-31.84323 c 0,-0.7936 -0.5952,-1.38881 -1.3888,-1.38881 h -1.1904 c -0.7936,0 -1.3888,0.59521 -1.3888,1.38881 l 0.496,59.61926 c 0,0.7936 0.5952,1.3888 1.3888,1.3888 0.1984,0 0.5952,-0.0992 0.7936,-0.1984 8.5312,-4.26561 17.4592,-12.40002 17.4592,-22.61763 0,-5.1584 -2.3808,-10.01921 -8.2336,-10.01921 m -8.6304,27.97443 0.2976,-19.34402 c 0.1984,-0.8928 1.6864,-3.7696 5.6544,-3.7696 3.5712,0 3.8688,3.3728 3.8688,5.456 0,8.82881 -3.2736,12.49922 -9.8208,17.65762"
     id="path21"
     style="stroke-width:0.992001" />
  <path
     class="Accidental"
     d="m 1762.934,831.42498 c -4.96,0 -7.8368,3.07521 -8.3328,3.67041 l 0.3968,-31.84323 c 0,-0.7936 -0.5952,-1.38881 -1.3888,-1.38881 h -1.1904 c -0.7936,0 -1.3888,0.59521 -1.3888,1.38881 l 0.496,59.61926 c 0,0.7936 0.5952,1.38878 1.3888,1.38878 0.1984,0 0.5952,-0.099 0.7936,-0.1984 8.5312,-4.26559 17.4592,-12.4 17.4592,-22.61761 0,-5.1584 -2.3808,-10.01921 -8.2336,-10.01921 m -8.6304,27.97443 0.2976,-19.34402 c 0.1984,-0.8928 1.6864,-3.7696 5.6544,-3.7696 3.5712,0 3.8688,3.3728 3.8688,5.456 0,8.82881 -3.2736,12.49922 -9.8208,17.65762"
     id="path22"
     style="stroke-width:0.992001" />
  <path
     class="Accidental"
     d="m 1209.344,794.22498 c -4.96,0 -7.8368,3.07521 -8.3328,3.67041 l 0.3968,-31.84323 c 0,-0.7936 -0.5952,-1.38881 -1.3888,-1.38881 h -1.1904 c -0.7936,0 -1.3888,0.59521 -1.3888,1.38881 l 0.496,59.61926 c 0,0.7936 0.5952,1.3888 1.3888,1.3888 0.1984,0 0.5952,-0.0992 0.7936,-0.1984 8.5312,-4.26561 17.4592,-12.40002 17.4592,-22.61763 0,-5.1584 -2.3808,-10.01921 -8.2336,-10.01921 m -8.6304,27.97443 0.2976,-19.34402 c 0.1984,-0.8928 1.6864,-3.7696 5.6544,-3.7696 3.5712,0 3.8688,3.3728 3.8688,5.456 0,8.82881 -3.2736,12.49922 -9.8208,17.65762"
     id="path23"
     style="stroke-width:0.992001" />
  <path
     class="Accidental"
     d="m 246.99901,794.22498 c -4.96,0 -7.83681,3.07521 -8.33281,3.67041 l 0.3968,-31.84323 c 0,-0.7936 -0.5952,-1.38881 -1.3888,-1.38881 h -1.1904 c -0.7936,0 -1.3888,0.59521 -1.3888,1.38881 l 0.496,59.61926 c 0,0.7936 0.5952,1.3888 1.3888,1.3888 0.1984,0 0.5952,-0.0992 0.7936,-0.1984 8.53121,-4.26561 17.45922,-12.40002 17.45922,-22.61763 0,-5.1584 -2.3808,-10.01921 -8.23361,-10.01921 m -8.63041,27.97443 0.2976,-19.34402 c 0.1984,-0.8928 1.68641,-3.7696 5.65441,-3.7696 3.5712,0 3.8688,3.3728 3.8688,5.456 0,8.82881 -3.2736,12.49922 -9.82081,17.65762"
     id="path24"
     style="stroke-width:0.992001" />
  <path
     class="Accidental"
     d="m 460.50501,331.02398 c -4.96,0 -7.83681,3.07521 -8.33281,3.67041 l 0.3968,-31.84323 c 0,-0.7936 -0.5952,-1.38881 -1.3888,-1.38881 h -1.1904 c -0.7936,0 -1.3888,0.59521 -1.3888,1.38881 l 0.496,59.61926 c 0,0.7936 0.5952,1.3888 1.3888,1.3888 0.1984,0 0.5952,-0.0992 0.7936,-0.1984 8.53121,-4.26561 17.45922,-12.40002 17.45922,-22.61763 0,-5.1584 -2.3808,-10.01921 -8.23361,-10.01921 m -8.63041,27.97443 0.2976,-19.34402 c 0.1984,-0.8928 1.68641,-3.7696 5.65441,-3.7696 3.5712,0 3.8688,3.3728 3.8688,5.456 0,8.82881 -3.2736,12.49922 -9.82081,17.65762"
     id="path25"
     style="stroke-width:0.992001" />
  <polyline
     class="Stem"
     fill="none"
     stroke="#000000"
     stroke-width="2.48"
     stroke-linejoin="bevel"
     points="1098.95,939.367 1098.95,1003.4"
     id="polyline25"
     transform="translate(0,-138)" />
  <polyline
     class="Stem"
     fill="none"
     stroke="#000000"
     stroke-width="2.48"
     stroke-linejoin="bevel"
     points="1019.8,939.367 1019.8,1003.4"
     id="polyline26"
     transform="translate(0,-138)" />
  <polyline
     class="Stem"
     fill="none"
     stroke="#000000"
     stroke-width="2.48"
     stroke-linejoin="bevel"
     points="967.156,331.767 967.156,395.8"
     id="polyline27"
     transform="translate(0,56)" />
  <polyline
     class="Stem"
     fill="none"
     stroke="#000000"
     stroke-width="2.48"
     stroke-linejoin="bevel"
     points="1682.29,993.233 1682.29,916.413"
     id="polyline28"
     transform="translate(0,-138)" />
  <polyline
     class="Stem"
     fill="none"
     stroke="#000000"
     stroke-width="2.48"
     stroke-linejoin="bevel"
     points="896.514,348.432 896.514,265.6"
     id="polyline29"
     transform="translate(0,56)" />
  <polyline
     class="Stem"
     fill="none"
     stroke="#000000"
     stroke-width="2.48"
     stroke-linejoin="bevel"
     points="476.176,294.567 476.176,371.113"
     id="polyline30"
     transform="translate(0,56)" />
  <polyline
     class="Stem"
     fill="none"
     stroke="#000000"
     stroke-width="2.48"
     stroke-linejoin="bevel"
     points="1034.09,331.767 1034.09,395.8"
     id="polyline31"
     transform="translate(0,56)" />
  <polyline
     class="Stem"
     fill="none"
     stroke="#000000"
     stroke-width="2.48"
     stroke-linejoin="bevel"
     points="678.199,951.767 678.199,1015.8"
     id="polyline32"
     transform="translate(0,-138)" />
  <polyline
     class="Stem"
     fill="none"
     stroke="#000000"
     stroke-width="2.48"
     stroke-linejoin="bevel"
     points="599.051,939.367 599.051,1015.8"
     id="polyline33"
     transform="translate(0,-138)" />
  <polyline
     class="Stem"
     fill="none"
     stroke="#000000"
     stroke-width="2.48"
     stroke-linejoin="bevel"
     points="1808.36,980.833 1808.36,898.001"
     id="polyline34"
     transform="translate(0,-138)" />
  <polyline
     class="Stem"
     fill="none"
     stroke="#000000"
     stroke-width="2.48"
     stroke-linejoin="bevel"
     points="716.171,331.767 716.171,402"
     id="polyline35"
     transform="translate(0,56)" />
  <polyline
     class="Stem"
     fill="none"
     stroke="#000000"
     stroke-width="2.48"
     stroke-linejoin="bevel"
     points="1140.22,331.767 1140.22,402"
     id="polyline36"
     transform="translate(0,56)" />
  <polyline
     class="Stem"
     fill="none"
     stroke="#000000"
     stroke-width="2.48"
     stroke-linejoin="bevel"
     points="519.902,926.967 519.902,1015.8"
     id="polyline37"
     transform="translate(0,-138)" />
  <polyline
     class="Stem"
     fill="none"
     stroke="#000000"
     stroke-width="2.48"
     stroke-linejoin="bevel"
     points="440.754,951.767 440.754,1015.8"
     id="polyline38"
     transform="translate(0,-138)" />
  <polyline
     class="Stem"
     fill="none"
     stroke="#000000"
     stroke-width="2.48"
     stroke-linejoin="bevel"
     points="1254.77,943.633 1254.77,867.001"
     id="polyline39"
     transform="translate(0,-138)" />
  <polyline
     class="Stem"
     fill="none"
     stroke="#000000"
     stroke-width="2.48"
     stroke-linejoin="bevel"
     points="292.422,943.633 292.422,867.001"
     id="polyline40"
     transform="translate(0,-138)" />
  <polyline
     class="Stem"
     fill="none"
     stroke="#000000"
     stroke-width="2.48"
     stroke-linejoin="bevel"
     points="1297.24,336.032 1297.24,259.599"
     id="polyline41"
     transform="translate(0,56)" />
  <polyline
     class="Stem"
     fill="none"
     stroke="#000000"
     stroke-width="2.48"
     stroke-linejoin="bevel"
     points="610.035,319.367 610.035,383.288"
     id="polyline42"
     transform="translate(0,56)" />
  <polyline
     class="Stem"
     fill="none"
     stroke="#000000"
     stroke-width="2.48"
     stroke-linejoin="bevel"
     points="1405.27,956.033 1405.27,873.399"
     id="polyline43"
     transform="translate(0,-138)" />
  <polyline
     class="Stem"
     fill="none"
     stroke="#000000"
     stroke-width="2.48"
     stroke-linejoin="bevel"
     points="1484.42,968.433 1484.42,885.601"
     id="polyline44"
     transform="translate(0,-138)" />
  <polyline
     class="Stem"
     fill="none"
     stroke="#000000"
     stroke-width="2.48"
     stroke-linejoin="bevel"
     points="1368.06,348.432 1368.06,265.6"
     id="polyline45"
     transform="translate(0,56)" />
  <polyline
     class="Stem"
     fill="none"
     stroke="#000000"
     stroke-width="2.48"
     stroke-linejoin="bevel"
     points="258.655,319.367 258.655,395.8"
     id="polyline46"
     transform="translate(0,56)" />
  <polyline
     class="Stem"
     fill="none"
     stroke="#000000"
     stroke-width="2.48"
     stroke-linejoin="bevel"
     points="1987.5,348.432 1987.5,278"
     id="polyline47"
     transform="translate(0,56)" />
  <polyline
     class="Stem"
     fill="none"
     stroke="#000000"
     stroke-width="2.48"
     stroke-linejoin="bevel"
     points="1468.46,360.832 1468.46,296.711"
     id="polyline48"
     transform="translate(0,56)" />
  <polyline
     class="Stem"
     fill="none"
     stroke="#000000"
     stroke-width="2.48"
     stroke-linejoin="bevel"
     points="1939.05,348.432 1939.05,278"
     id="polyline49"
     transform="translate(0,56)" />
  <polyline
     class="Stem"
     fill="none"
     stroke="#000000"
     stroke-width="2.48"
     stroke-linejoin="bevel"
     points="1891.1,348.432 1891.1,278"
     id="polyline50"
     transform="translate(0,56)" />
  <polyline
     class="Stem"
     fill="none"
     stroke="#000000"
     stroke-width="2.48"
     stroke-linejoin="bevel"
     points="1842.64,348.432 1842.64,278"
     id="polyline51"
     transform="translate(0,56)" />
  <polyline
     class="Stem"
     fill="none"
     stroke="#000000"
     stroke-width="2.48"
     stroke-linejoin="bevel"
     points="1535.38,385.632 1535.38,302.689"
     id="polyline52"
     transform="translate(0,56)" />
  <polyline
     class="Stem"
     fill="none"
     stroke="#000000"
     stroke-width="2.48"
     stroke-linejoin="bevel"
     points="543.105,306.967 543.105,377.2"
     id="polyline53"
     transform="translate(0,56)" />
  <polyline
     class="Stem"
     fill="none"
     stroke="#000000"
     stroke-width="2.48"
     stroke-linejoin="bevel"
     points="1651.74,373.232 1651.74,290.4"
     id="polyline54"
     transform="translate(0,56)" />
  <polyline
     class="Stem"
     fill="none"
     stroke="#000000"
     stroke-width="2.48"
     stroke-linejoin="bevel"
     points="1603.14,968.433 1603.14,904.389"
     id="polyline55"
     transform="translate(0,-138)" />
  <polyline
     class="Stem"
     fill="none"
     stroke="#000000"
     stroke-width="2.48"
     stroke-linejoin="bevel"
     points="823.804,956.033 823.804,873.201"
     id="polyline56"
     transform="translate(0,-138)" />
  <path
     class="Note"
     d="m 1908.06,412.5664 c 0,4.26561 3.0752,9.02721 11.1104,9.02721 10.3168,0 21.1296,-8.43201 21.1296,-17.16161 0,-5.85281 -4.96,-9.12641 -11.1104,-9.12641 -9.6224,0 -21.1296,8.1344 -21.1296,17.26081"
     id="path56"
     style="stroke-width:0.992001" />
  <path
     class="Note"
     d="m 1641.8696,420.10559 c -9.6224,0 -21.1296,8.0352 -21.1296,17.26081 0,4.26561 3.0752,9.02721 11.1104,9.02721 10.3168,0 21.1296,-8.43201 21.1296,-17.16161 0,-5.85281 -4.96,-9.12641 -11.1104,-9.12641 m -13.6896,21.62562 c -3.2736,0 -3.968,-2.6784 -3.968,-3.57121 0,-4.8608 16.6656,-13.39201 21.328,-13.39201 2.3808,0 3.968,1.3888 3.968,3.57121 0,4.96 -16.7648,13.39201 -21.328,13.39201"
     id="path57"
     style="stroke-width:0.992001" />
  <path
     class="Note"
     d="m 1504.39,449.7664 c 0,4.26561 3.0752,9.02721 11.1104,9.02721 10.3168,0 21.1296,-8.43201 21.1296,-17.16161 0,-5.85281 -4.96,-9.12641 -11.1104,-9.12641 -9.6224,0 -21.1296,8.1344 -21.1296,17.26081"
     id="path58"
     style="stroke-width:0.992001" />
  <path
     class="Note"
     d="m 278.54462,358.10559 c -9.62241,0 -21.12962,8.0352 -21.12962,17.26081 0,4.26561 3.0752,9.02721 11.11041,9.02721 10.31681,0 21.12962,-8.43201 21.12962,-17.16161 0,-5.85281 -4.96,-9.12641 -11.11041,-9.12641 m -13.68961,21.62562 c -3.27361,0 -3.96801,-2.6784 -3.96801,-3.57121 0,-4.8608 16.66562,-13.39201 21.32803,-13.39201 2.3808,0 3.968,1.3888 3.968,3.57121 0,4.96 -16.76482,13.39201 -21.32802,13.39201"
     id="path59"
     style="stroke-width:0.992001" />
  <path
     class="Note"
     d="m 1798.4996,833.70659 c -9.6224,0 -21.1296,8.0352 -21.1296,17.26081 0,4.26561 3.0752,9.02721 11.1104,9.02721 10.3168,0 21.1296,-8.43201 21.1296,-17.16161 0,-5.85281 -4.96,-9.12641 -11.1104,-9.12641 m -13.6896,21.62562 c -3.2736,0 -3.968,-2.6784 -3.968,-3.5712 0,-4.86081 16.6656,-13.39202 21.328,-13.39202 2.3808,0 3.968,1.3888 3.968,3.57121 0,4.96 -16.7648,13.39201 -21.328,13.39201"
     id="path60"
     style="stroke-width:0.992001" />
  <path
     class="Note"
     d="m 474.936,350.5664 c 0,4.26561 3.0752,9.02721 11.11041,9.02721 10.31681,0 21.12962,-8.43201 21.12962,-17.16161 0,-5.85281 -4.96,-9.12641 -11.11041,-9.12641 -9.62241,0 -21.12962,8.1344 -21.12962,17.26081"
     id="path61"
     style="stroke-width:0.992001" />
  <path
     class="Note"
     d="m 1811.64,412.5664 c 0,4.26561 3.0752,9.02721 11.1104,9.02721 10.3168,0 21.1296,-8.43201 21.1296,-17.16161 0,-5.85281 -4.96,-9.12641 -11.1104,-9.12641 -9.6224,0 -21.1296,8.1344 -21.1296,17.26081"
     id="path62"
     style="stroke-width:0.992001" />
  <path
     class="Note"
     d="m 1651.3,863.3674 c 0,4.2656 3.0752,9.0272 11.1104,9.0272 10.3168,0 21.1296,-8.432 21.1296,-17.1616 0,-5.85281 -4.96,-9.12641 -11.1104,-9.12641 -9.6224,0 -21.1296,8.1344 -21.1296,17.26081"
     id="path63"
     style="stroke-width:0.992001" />
  <path
     class="Note"
     d="m 1572.15,838.5674 c 0,4.26561 3.0752,9.02721 11.1104,9.02721 10.3168,0 21.1296,-8.43201 21.1296,-17.16161 0,-5.85281 -4.96,-9.12641 -11.1104,-9.12641 -9.6224,0 -21.1296,8.1344 -21.1296,17.26081"
     id="path64"
     style="stroke-width:0.992001" />
  <path
     class="Note"
     d="m 1453.43,838.5674 c 0,4.26561 3.0752,9.02721 11.1104,9.02721 10.3168,0 21.1296,-8.43201 21.1296,-17.16161 0,-5.85281 -4.96,-9.12641 -11.1104,-9.12641 -9.6224,0 -21.1296,8.1344 -21.1296,17.26081"
     id="path65"
     style="stroke-width:0.992001" />
  <path
     class="Note"
     d="m 1860.11,412.5664 c 0,4.26561 3.0752,9.02721 11.1104,9.02721 10.3168,0 21.1296,-8.43201 21.1296,-17.16161 0,-5.85281 -4.96,-9.12641 -11.1104,-9.12641 -9.6224,0 -21.1296,8.1344 -21.1296,17.26081"
     id="path66"
     style="stroke-width:0.992001" />
  <path
     class="Note"
     d="m 541.865,362.9664 c 0,4.26561 3.0752,9.02721 11.11041,9.02721 10.31681,0 21.12962,-8.43201 21.12962,-17.16161 0,-5.85281 -4.96,-9.12641 -11.11041,-9.12641 -9.62241,0 -21.12962,8.1344 -21.12962,17.26081"
     id="path67"
     style="stroke-width:0.992001" />
  <path
     class="Note"
     d="m 1437.46,424.9664 c 0,4.26561 3.0752,9.02721 11.1104,9.02721 10.3168,0 21.1296,-8.43201 21.1296,-17.16161 0,-5.85281 -4.96,-9.12641 -11.1104,-9.12641 -9.6224,0 -21.1296,8.1344 -21.1296,17.26081"
     id="path68"
     style="stroke-width:0.992001" />
  <path
     class="Note"
     d="m 1374.28,826.1674 c 0,4.26561 3.0752,9.02721 11.1104,9.02721 10.3168,0 21.1296,-8.43201 21.1296,-17.16161 0,-5.85281 -4.96,-9.12641 -11.1104,-9.12641 -9.6224,0 -21.1296,8.1344 -21.1296,17.26081"
     id="path69"
     style="stroke-width:0.992001" />
  <path
     class="Note"
     d="m 608.795,375.3664 c 0,4.26561 3.0752,9.02721 11.11041,9.02721 10.31681,0 21.12962,-8.43201 21.12962,-17.16161 0,-5.85281 -4.96,-9.12641 -11.11041,-9.12641 -9.62241,0 -21.12962,8.1344 -21.12962,17.26081"
     id="path70"
     style="stroke-width:0.992001" />
  <path
     class="Note"
     d="m 1223.78,813.7674 c 0,4.26561 3.0752,9.02721 11.1104,9.02721 10.3168,0 21.1296,-8.43201 21.1296,-17.16161 0,-5.85281 -4.96,-9.12641 -11.1104,-9.12641 -9.6224,0 -21.1296,8.1344 -21.1296,17.26081"
     id="path71"
     style="stroke-width:0.992001" />
  <path
     class="Note"
     d="m 1956.5,412.5664 c 0,4.26561 3.0752,9.02721 11.1104,9.02721 10.3168,0 21.1296,-8.43201 21.1296,-17.16161 0,-5.85281 -4.96,-9.12641 -11.1104,-9.12641 -9.6224,0 -21.1296,8.1344 -21.1296,17.26081"
     id="path72"
     style="stroke-width:0.992001" />
  <path
     class="Note"
     d="m 736.06062,370.50559 c -9.62241,0 -21.12962,8.0352 -21.12962,17.26081 0,4.26561 3.0752,9.02721 11.11041,9.02721 10.31681,0 21.12962,-8.43201 21.12962,-17.16161 0,-5.85281 -4.96,-9.12641 -11.11041,-9.12641 m -13.68961,21.62562 c -3.27361,0 -3.96801,-2.6784 -3.96801,-3.5712 0,-4.86081 16.66562,-13.39202 21.32803,-13.39202 2.3808,0 3.968,1.3888 3.968,3.57121 0,4.96 -16.76482,13.39201 -21.32802,13.39201"
     id="path73"
     style="stroke-width:0.992001" />
  <path
     class="Note"
     d="m 1337.07,412.5664 c 0,4.26561 3.0752,9.02721 11.1104,9.02721 10.3168,0 21.1296,-8.43201 21.1296,-17.16161 0,-5.85281 -4.96,-9.12641 -11.1104,-9.12641 -9.6224,0 -21.1296,8.1344 -21.1296,17.26081"
     id="path74"
     style="stroke-width:0.992001" />
  <path
     class="Note"
     d="m 1097.71,801.3674 c 0,4.26561 3.0752,9.02721 11.1104,9.02721 10.3168,0 21.1296,-8.43201 21.1296,-17.16161 0,-5.85281 -4.96,-9.12641 -11.1104,-9.12641 -9.6224,0 -21.1296,8.1344 -21.1296,17.26081"
     id="path75"
     style="stroke-width:0.992001" />
  <path
     class="Note"
     d="m 1266.25,400.1664 c 0,4.26561 3.0752,9.02721 11.1104,9.02721 10.3168,0 21.1296,-8.43201 21.1296,-17.16161 0,-5.85281 -4.96,-9.12641 -11.1104,-9.12641 -9.6224,0 -21.1296,8.1344 -21.1296,17.26081"
     id="path76"
     style="stroke-width:0.992001" />
  <path
     class="Note"
     d="m 865.522,412.5664 c 0,4.26561 3.0752,9.02721 11.11041,9.02721 10.31681,0 21.12962,-8.43201 21.12962,-17.16161 0,-5.85281 -4.96,-9.12641 -11.11041,-9.12641 -9.62241,0 -21.12962,8.1344 -21.12962,17.26081"
     id="path77"
     style="stroke-width:0.992001" />
  <path
     class="Note"
     d="m 1018.56,801.3674 c 0,4.26561 3.0752,9.02721 11.1104,9.02721 10.3168,0 21.1296,-8.43201 21.1296,-17.16161 0,-5.85281 -4.96,-9.12641 -11.1104,-9.12641 -9.6224,0 -21.1296,8.1344 -21.1296,17.26081"
     id="path78"
     style="stroke-width:0.992001" />
  <path
     class="Note"
     d="m 813.94162,808.90659 c -9.62241,0 -21.12962,8.0352 -21.12962,17.26081 0,4.26561 3.0752,9.02721 11.11041,9.02721 10.31681,0 21.12962,-8.43201 21.12962,-17.16161 0,-5.85281 -4.96,-9.12641 -11.11041,-9.12641 m -13.68961,21.62562 c -3.27361,0 -3.96801,-2.6784 -3.96801,-3.57121 0,-4.8608 16.66562,-13.39201 21.32803,-13.39201 2.3808,0 3.968,1.3888 3.968,3.57121 0,4.96 -16.76482,13.39201 -21.32802,13.39201"
     id="path79"
     style="stroke-width:0.992001" />
  <path
     class="Note"
     d="m 282.55862,796.50659 c -9.62241,0 -21.12962,8.0352 -21.12962,17.26081 0,4.26561 3.0752,9.02721 11.11041,9.02721 10.31681,0 21.12962,-8.43201 21.12962,-17.16161 0,-5.85281 -4.96,-9.12641 -11.11041,-9.12641 m -13.68961,21.62562 c -3.27361,0 -3.96801,-2.6784 -3.96801,-3.5712 0,-4.86081 16.66562,-13.39202 21.32802,-13.39202 2.38081,0 3.96801,1.3888 3.96801,3.57121 0,4.96 -16.76482,13.39201 -21.32802,13.39201"
     id="path80"
     style="stroke-width:0.992001" />
  <path
     class="Note"
     d="m 965.916,387.7664 c 0,4.26561 3.0752,9.02721 11.11041,9.02721 10.31681,0 21.12962,-8.43201 21.12962,-17.16161 0,-5.85281 -4.96,-9.12641 -11.11041,-9.12641 -9.62241,0 -21.12962,8.1344 -21.12962,17.26081"
     id="path81"
     style="stroke-width:0.992001" />
  <path
     class="Note"
     d="m 676.959,813.7674 c 0,4.26561 3.0752,9.02721 11.11041,9.02721 10.31681,0 21.12962,-8.43201 21.12962,-17.16161 0,-5.85281 -4.96,-9.12641 -11.11041,-9.12641 -9.62241,0 -21.12962,8.1344 -21.12962,17.26081"
     id="path82"
     style="stroke-width:0.992001" />
  <path
     class="Note"
     d="m 1032.85,387.7664 c 0,4.26561 3.0752,9.02721 11.1104,9.02721 10.3168,0 21.1296,-8.43201 21.1296,-17.16161 0,-5.85281 -4.96,-9.12641 -11.1104,-9.12641 -9.6224,0 -21.1296,8.1344 -21.1296,17.26081"
     id="path83"
     style="stroke-width:0.992001" />
  <path
     class="Note"
     d="m 439.514,813.7674 c 0,4.26561 3.0752,9.02721 11.11041,9.02721 10.31681,0 21.12962,-8.43201 21.12962,-17.16161 0,-5.85281 -4.96,-9.12641 -11.11041,-9.12641 -9.62241,0 -21.12962,8.1344 -21.12962,17.26081"
     id="path84"
     style="stroke-width:0.992001" />
  <path
     class="Note"
     d="m 597.811,801.3674 c 0,4.26561 3.0752,9.02721 11.11041,9.02721 10.31681,0 21.12962,-8.43201 21.12962,-17.16161 0,-5.85281 -4.96,-9.12641 -11.11041,-9.12641 -9.62241,0 -21.12962,8.1344 -21.12962,17.26081"
     id="path85"
     style="stroke-width:0.992001" />
  <path
     class="Note"
     d="m 1138.98,387.7664 c 0,4.26561 3.0752,9.02721 11.1104,9.02721 10.3168,0 21.1296,-8.43201 21.1296,-17.16161 0,-5.85281 -4.96,-9.12641 -11.1104,-9.12641 -9.6224,0 -21.1296,8.1344 -21.1296,17.26081"
     id="path86"
     style="stroke-width:0.992001" />
  <path
     class="Note"
     d="m 518.662,788.9674 c 0,4.26561 3.0752,9.02721 11.11041,9.02721 10.31681,0 21.12962,-8.43201 21.12962,-17.16161 0,-5.85281 -4.96,-9.12641 -11.11041,-9.12641 -9.62241,0 -21.12962,8.13441 -21.12962,17.26081"
     id="path87"
     style="stroke-width:0.992001" />
  <path
     class="Clef"
     d="m 99.201612,459.28965 c 0,6.54721 4.960008,15.17762 18.352018,15.17762 4.66241,0 8.72961,-1.1904 12.30081,-3.37281 5.35681,-3.7696 6.74561,-10.31681 6.74561,-16.56641 0,-3.86881 -0.5952,-8.33281 -1.5872,-13.98722 -0.2976,-1.984 -0.8928,-4.96 -1.488,-8.82881 9.72161,-3.1744 16.96321,-13.29281 16.96321,-23.51042 0,-14.97922 -10.61441,-25.09763 -25.09762,-25.09763 -0.992,-5.952 -1.984,-11.80481 -2.7776,-17.36001 10.41601,-11.01121 17.65761,-23.41123 17.65761,-39.18404 0,-9.02721 -2.7776,-16.36802 -4.3648,-19.93922 -2.3808,-5.05921 -5.25761,-8.53121 -7.04321,-8.53121 -0.6944,0 -3.7696,1.1904 -7.0432,5.0592 -6.34881,7.53921 -8.13441,20.23682 -8.13441,28.56963 0,5.35681 0.496,10.21761 2.1824,21.32802 -0.0992,0.0992 -5.25761,5.35681 -7.34081,7.04321 C 99.499213,368.42236 87,380.52477 87,400.36479 c 0,18.55042 16.16962,33.13284 34.62083,33.13284 2.87681,0 5.55521,-0.29761 7.83681,-0.69441 1.8848,9.52321 3.07521,16.46722 3.07521,21.72483 0,10.31681 -5.35681,15.77281 -15.37602,15.77281 -2.3808,0 -4.464,-0.496 -4.6624,-0.496 -0.0992,-0.0992 -0.2976,-0.1984 -0.2976,-0.2976 0,-0.1984 0.1984,-0.2976 0.496,-0.2976 4.6624,-0.7936 9.32481,-4.7616 9.32481,-11.11041 0,-5.35681 -4.06721,-11.01121 -11.50722,-11.01121 -6.944,0 -11.308808,5.6544 -11.308808,12.20161 M 119.93443,326.85752 c 0.8928,-3.96801 5.45601,-14.38402 10.61441,-14.38402 1.48801,0 3.86881,4.76161 3.86881,11.70562 0,10.31681 -7.63841,18.05441 -14.48322,24.80002 -0.5952,-3.968 -1.0912,-7.83681 -1.0912,-12.00321 0,-3.67041 0.2976,-7.04321 1.0912,-10.11841 m 8.72961,101.9777 c -1.984,0.3968 -3.8688,0.5952 -5.7536,0.5952 -14.18562,0 -26.28803,-9.92001 -26.28803,-24.89922 0,-12.10242 8.53121,-22.91523 17.26082,-30.45443 1.6864,-1.48801 3.2736,-2.87681 4.7616,-4.36481 0.8928,5.35681 1.5872,10.01921 2.2816,14.08642 -9.0272,2.6784 -15.17761,12.20161 -15.17761,21.52642 0,6.944 5.456,16.46721 13.39201,16.46721 0.7936,0 1.6864,-0.3968 1.6864,-1.2896 0,-0.8928 -0.992,-1.3888 -2.1824,-2.1824 -3.8688,-2.3808 -6.0512,-4.96001 -6.0512,-9.82081 0,-6.05121 4.5632,-10.91201 10.31681,-12.30081 l 5.7536,32.63683 m 14.08642,-18.35202 c 0,7.04321 -2.87681,14.28482 -9.92001,17.16162 -2.08321,-11.90401 -4.76161,-27.67683 -5.45601,-32.04163 8.92801,0 15.37602,6.0512 15.37602,14.88001"
     id="path88"
     style="stroke-width:0.992001" />
  <path
     class="Clef"
     d="m 99.201612,872.8907 c 0,6.5472 4.960008,15.1776 18.352018,15.1776 4.66241,0 8.72961,-1.1904 12.30081,-3.3728 5.35681,-3.7696 6.74561,-10.3168 6.74561,-16.5665 0,-3.8688 -0.5952,-8.33276 -1.5872,-13.98717 -0.2976,-1.984 -0.8928,-4.96 -1.488,-8.82881 9.72161,-3.1744 16.96321,-13.29281 16.96321,-23.51042 0,-14.97922 -10.61441,-25.09763 -25.09762,-25.09763 -0.992,-5.952 -1.984,-11.80481 -2.7776,-17.36001 10.41601,-11.01121 17.65761,-23.41123 17.65761,-39.18404 0,-9.02721 -2.7776,-16.36802 -4.3648,-19.93922 -2.3808,-5.05921 -5.25761,-8.53121 -7.04321,-8.53121 -0.6944,0 -3.7696,1.1904 -7.0432,5.0592 -6.34881,7.53921 -8.13441,20.23682 -8.13441,28.56963 0,5.35681 0.496,10.21761 2.1824,21.32802 -0.0992,0.0992 -5.25761,5.35681 -7.34081,7.04321 C 99.499213,782.02336 87,794.12577 87,813.96579 c 0,18.55042 16.16962,33.13284 34.62083,33.13284 2.87681,0 5.55521,-0.29761 7.83681,-0.69441 1.8848,9.52321 3.07521,16.46722 3.07521,21.72478 0,10.3169 -5.35681,15.7729 -15.37602,15.7729 -2.3808,0 -4.464,-0.496 -4.6624,-0.496 -0.0992,-0.099 -0.2976,-0.1984 -0.2976,-0.2976 0,-0.1984 0.1984,-0.2976 0.496,-0.2976 4.6624,-0.7936 9.32481,-4.7616 9.32481,-11.1104 0,-5.3569 -4.06721,-11.01126 -11.50722,-11.01126 -6.944,0 -11.308808,5.65436 -11.308808,12.20166 M 119.93443,740.45852 c 0.8928,-3.96801 5.45601,-14.38402 10.61441,-14.38402 1.48801,0 3.86881,4.76161 3.86881,11.70562 0,10.31681 -7.63841,18.05441 -14.48322,24.80002 -0.5952,-3.968 -1.0912,-7.83681 -1.0912,-12.00321 0,-3.67041 0.2976,-7.04321 1.0912,-10.11841 m 8.72961,101.9777 c -1.984,0.3968 -3.8688,0.5952 -5.7536,0.5952 -14.18562,0 -26.28803,-9.92001 -26.28803,-24.89922 0,-12.10242 8.53121,-22.91523 17.26082,-30.45443 1.6864,-1.48801 3.2736,-2.87681 4.7616,-4.36481 0.8928,5.35681 1.5872,10.01921 2.2816,14.08642 -9.0272,2.6784 -15.17761,12.20161 -15.17761,21.52642 0,6.944 5.456,16.46721 13.39201,16.46721 0.7936,0 1.6864,-0.3968 1.6864,-1.2896 0,-0.8928 -0.992,-1.3888 -2.1824,-2.1824 -3.8688,-2.3808 -6.0512,-4.96001 -6.0512,-9.82081 0,-6.05121 4.5632,-10.91201 10.31681,-12.30081 l 5.7536,32.63683 m 14.08642,-18.35202 c 0,7.04321 -2.87681,14.28482 -9.92001,17.16162 -2.08321,-11.90401 -4.76161,-27.67683 -5.45601,-32.04163 8.92801,0 15.37602,6.0512 15.37602,14.88001"
     id="path89"
     style="stroke-width:0.992001" />
  <path
     class="KeySig"
     d="m 187.18401,368.22398 c -4.96,0 -7.83681,3.07521 -8.33281,3.67041 l 0.3968,-31.84323 c 0,-0.7936 -0.5952,-1.38881 -1.3888,-1.38881 h -1.1904 c -0.7936,0 -1.3888,0.59521 -1.3888,1.38881 l 0.496,59.61926 c 0,0.7936 0.5952,1.3888 1.3888,1.3888 0.1984,0 0.5952,-0.0992 0.7936,-0.1984 8.53121,-4.26561 17.45922,-12.40002 17.45922,-22.61763 0,-5.1584 -2.3808,-10.01921 -8.23361,-10.01921 m -8.63041,27.97443 0.2976,-19.34402 c 0.1984,-0.8928 1.68641,-3.7696 5.65441,-3.7696 3.5712,0 3.8688,3.3728 3.8688,5.456 0,8.82881 -3.2736,12.49922 -9.82081,17.65762"
     id="path90"
     style="stroke-width:0.992001" />
  <path
     class="KeySig"
     d="m 187.18401,781.82498 c -4.96,0 -7.83681,3.07521 -8.33281,3.67041 l 0.3968,-31.84323 c 0,-0.7936 -0.5952,-1.38881 -1.3888,-1.38881 h -1.1904 c -0.7936,0 -1.3888,0.59521 -1.3888,1.38881 l 0.496,59.61926 c 0,0.7936 0.5952,1.3888 1.3888,1.3888 0.1984,0 0.5952,-0.0992 0.7936,-0.1984 8.53121,-4.26561 17.45922,-12.40002 17.45922,-22.61763 0,-5.1584 -2.3808,-10.01921 -8.23361,-10.01921 m -8.63041,27.97443 0.2976,-19.34402 c 0.1984,-0.8928 1.68641,-3.7696 5.65441,-3.7696 3.5712,0 3.8688,3.3728 3.8688,5.456 0,8.82881 -3.2736,12.49922 -9.82081,17.65762"
     id="path91"
     style="stroke-width:0.992001" />
  <path
     class="Rest"
     d="m 434.49243,363.46238 c -0.0992,0 -0.2976,-0.0992 -0.3968,-0.0992 -0.5952,0 -1.0912,0.2976 -1.28961,0.7936 -2.2816,4.5632 -7.0432,10.71361 -12.40001,11.70561 1.0912,-1.2896 1.7856,-2.8768 1.7856,-4.7616 0,-3.86881 -3.1744,-7.04321 -7.0432,-7.04321 -3.96801,0 -7.14241,3.1744 -7.14241,7.04321 0,5.3568 5.25761,7.83681 9.92001,7.83681 5.25761,0 8.72961,-2.48001 12.10241,-6.15041 l -11.30881,35.31523 2.6784,0.79361 13.88802,-43.74725 c 0.0992,-0.0992 0.0992,-0.2976 0.0992,-0.496 0,-0.496 -0.2976,-0.8928 -0.8928,-1.1904"
     id="path92"
     style="stroke-width:0.992001" />
  <path
     class="Beam"
     fill-rule="evenodd"
     d="M 439.514,871.6 H 679.439 V 884 H 439.514 v -12.4"
     id="path93" />
  <path
     class="Beam"
     fill-rule="evenodd"
     d="m 1841.4,327.8 h 147.34 v 12.4 H 1841.4 v -12.4"
     id="path94" />
  <path
     class="Beam"
     fill-rule="evenodd"
     d="m 1841.4,346.4 h 147.34 v 12.4 H 1841.4 v -12.4"
     id="path95" />
  <path
     class="Beam"
     fill-rule="evenodd"
     d="m 474.936,420.775 136.339,12.4 v 12.451 l -136.339,-12.4 v -12.451"
     id="path96" />
  <path
     class="Beam"
     fill-rule="evenodd"
     d="m 1601.9,759.93 81.63,12.4 v 12.542 l -81.63,-12.4 V 759.93"
     id="path97" />
  <path
     class="Beam"
     fill-rule="evenodd"
     d="m 1467.22,346.376 69.4,6.2 v 12.449 l -69.4,-6.2 v -12.449"
     id="path98" />
  <path
     class="Beam"
     fill-rule="evenodd"
     d="m 965.916,445.6 h 69.414 V 458 h -69.414 v -12.4"
     id="path99" />
  <path
     class="Beam"
     fill-rule="evenodd"
     d="m 1018.56,859.201 h 81.63 V 871.6 h -81.63 v -12.399"
     id="path100" />
  <path
     class="Hook"
     d="m 1404.03,757.71942 c 0,0.2976 0.099,0.8928 0.7936,1.0912 4.2656,1.38881 12.7968,6.74561 19.2448,17.75682 1.7856,3.0752 4.6624,7.34081 4.6624,15.57442 0,7.1424 -1.7856,14.48321 -4.464,21.62562 -0.1984,0.5952 -0.2976,1.0912 -0.2976,1.488 0,0.6944 0.3968,0.992 1.0912,0.992 0.5952,0 1.0912,-0.3968 1.488,-1.0912 4.464,-7.93601 6.1504,-17.16162 6.1504,-26.18883 -0.496,-12.79681 -7.8368,-22.22082 -7.8368,-22.22082 0.2976,0 -9.1264,-12.20161 -11.8048,-16.36801 -3.6704,-5.65441 -5.3568,-11.30882 -5.5552,-11.70562 -0.099,-0.2976 -0.992,-3.8688 -0.992,-3.8688 -0.099,-0.3968 -0.5952,-0.7936 -1.1904,-0.7936 -0.6944,0 -1.2896,0.5952 -1.2896,1.2896 v 22.41922"
     id="path101"
     style="stroke-width:0.992001" />
  <path
     class="Hook"
     d="m 1296,337.91842 c 0,0.2976 0.099,0.8928 0.7936,1.0912 4.2656,1.38881 12.7968,6.74561 19.2448,17.75682 1.7856,3.0752 4.6624,7.34081 4.6624,15.57442 0,7.1424 -1.7856,14.48321 -4.464,21.62562 -0.1984,0.5952 -0.2976,1.0912 -0.2976,1.488 0,0.6944 0.3968,0.992 1.0912,0.992 0.5952,0 1.0912,-0.3968 1.488,-1.0912 4.464,-7.93601 6.1504,-17.16162 6.1504,-26.18883 -0.496,-12.79681 -7.8368,-22.22082 -7.8368,-22.22082 0.2976,0 -9.1264,-12.20161 -11.8048,-16.36801 -3.6704,-5.65441 -5.3568,-11.30882 -5.5552,-11.70562 -0.099,-0.2976 -0.992,-3.8688 -0.992,-3.8688 -0.099,-0.3968 -0.5952,-0.7936 -1.1904,-0.7936 -0.6944,0 -1.2896,0.5952 -1.2896,1.2896 v 22.41922"
     id="path102"
     style="stroke-width:0.992001" />
  <path
     class="Lyrics"
     d="m 901.379,506.104 v -2.95 h -39.45 v 2.95 h 39.45 m -3.3,19.6 v -3 h -27.8 v -4 h 26.45 v -9.15 h -30.2 v 2.8 h 26.4 v 3.65 h -26.45 v 9.7 h 31.6 m -0.75,-26 v -2.85 h -26.6 v -3.45 h 25.75 v -9.15 h -29.6 v 3 h 25.8 v 3.4 h -25.75 v 9.05 h 30.4"
     id="path103" />
  <path
     class="Lyrics"
     d="m 828.668,930.25 v -3.2 h -39.45 v 3.2 h 39.45 m -4.4,-13.9 c 0,-4.8 -5.8,-7.6 -15.3,-7.6 -9.4,0 -15.2,2.8 -15.2,7.6 0,4.8 5.8,7.55 15.2,7.55 9.5,0 15.3,-2.75 15.3,-7.55 m -15.3,-4.5 c 6.95,0 11.45,1.75 11.45,4.5 0,2.7 -4.5,4.4 -11.45,4.4 -6.85,0 -11.3,-1.7 -11.3,-4.4 0,-2.75 4.45,-4.5 11.3,-4.5 m 16.2,39.6 v -3.1 h -27.55 v -4.4 h 26.1 v -9.8 h -30 v 3.05 h 26.2 v 3.85 h -26.1 v 10.4 h 31.35"
     id="path104" />
  <path
     class="Lyrics"
     d="m 1049.67,923.5 v -3.1 h -26.05 v -7.3 h 25.95 v -3.15 h -29.75 v 13.55 h 12.95 v 4.15 h -17.8 v 3.1 h 39.45 v -3.1 h -17.85 v -4.15 h 13.1 m 1.45,27.55 v -3.15 h -27.75 V 944 h 26.1 v -9.8 h -29.95 v 3.15 h 26.15 v 3.8 h -26.1 v 9.9 h 31.55"
     id="path105" />
  <path
     class="Lyrics"
     d="m 554.519,945.4 v -3.2 h -39.45 v 3.2 h 39.45 m -5.65,-32.35 h -29.7 v 3.15 h 25.8 c 0,7.15 -0.65,16.65 -1.85,22.2 l 3.8,0.5 c 1.35,-6.7 1.95,-15.8 1.95,-25.85"
     id="path106" />
  <path
     class="Lyrics"
     d="m 1302.11,507.104 v -3.2 h -39.45 v 3.2 h 39.45 m -4.8,18.8 v -14.25 h -29.8 v 14.25 h 29.8 m -3.8,-3.15 h -22.2 v -8 h 22.2 v 8 m 4.15,-30.6 c 0,-4.95 -5.7,-8.2 -15.3,-8.2 -9.55,0 -15.2,3.25 -15.2,8.2 0,4.95 5.65,8.2 15.2,8.2 9.6,0 15.3,-3.25 15.3,-8.2 m -3.7,0 c 0,3.2 -4.6,5.15 -11.6,5.15 -7,0 -11.5,-1.95 -11.5,-5.15 0,-3.25 4.5,-5.15 11.5,-5.15 7,0 11.6,1.9 11.6,5.15"
     id="path107" />
  <path
     class="Lyrics"
     d="m 1128.77,934.3 v -23.15 h -3.8 v 8.05 h -22.25 v -8.05 h -3.85 v 23.15 h 13 v 8.9 h -17.75 v 3.2 h 39.45 v -3.2 h -17.9 v -8.9 h 13.1 m -3.8,-3.15 h -22.25 v -8.8 h 22.25 v 8.8"
     id="path108" />
  <path
     class="Lyrics"
     d="m 750.041,526.504 v -43.7 h -3.75 v 43.7 h 3.75 m -8.65,-2.2 v -40.45 h -3.7 v 14.7 h -7.75 v 3.2 h 7.75 v 22.55 h 3.7 m -6.35,-11.6 c -4.75,-3.15 -9.85,-9.5 -9.85,-18 v -7.85 h -3.75 v 7.95 c 0,8.55 -4.4,16 -9.35,19.15 l 2.35,2.85 c 4.35,-3.15 7.95,-8.85 8.9,-13.85 1.4,4.95 6,10.15 9.35,12.55 l 2.35,-2.8"
     id="path109" />
  <path
     class="Lyrics"
     d="m 1992.86,498.854 v -3.2 h -6.65 v -12.85 h -3.8 v 27.2 h 3.8 v -11.15 h 6.65 m -6.65,27.05 v -13.65 h -27.65 v 13.65 h 27.65 m -3.8,-3.15 h -20.05 v -7.4 h 20.05 v 7.4 m -11.15,-35.8 v -3.2 h -12.25 v 3.2 h 12.25 m 6.6,6.25 v -3.15 h -25.45 v 3.15 h 25.45 m -2.6,9.1 c 0,-4.5 -4.4,-7.2 -10.15,-7.2 -5.85,0 -10.15,2.7 -10.15,7.2 0,4.4 4.35,7.2 10.15,7.2 5.75,0 10.15,-2.85 10.15,-7.2 m -3.75,0 c 0,2.65 -3,4.25 -6.4,4.25 -3.35,0 -6.5,-1.6 -6.5,-4.25 0,-2.7 3.1,-4.25 6.5,-4.25 3.4,0 6.4,1.55 6.4,4.25"
     id="path110" />
  <path
     class="Lyrics"
     d="m 642.276,514.554 v -31.75 h -3.8 v 31.75 h 3.8 m -9.3,-9.95 c -5.2,-1.85 -11.1,-7.25 -11.1,-14.55 v -4.75 h -3.85 v 4.85 c 0,7 -5.65,13.4 -11.4,15.95 l 2.3,3 c 4.75,-2.4 9.8,-7.45 11.1,-12.15 1.8,4.6 6.3,8.75 10.8,10.7 l 2.15,-3.05 m 10.25,20.55 v -3.15 h -25.35 v -10.3 h -3.8 v 13.45 h 29.15"
     id="path111" />
  <path
     class="Lyrics"
     d="m 1370.44,526.504 v -43.7 h -3.8 v 43.7 h 3.8 m -34.5,-25 c 0,9.3 4.1,15.5 11.25,15.5 7.25,0 11.3,-6.2 11.3,-15.45 0,-9.25 -4.05,-15.45 -11.3,-15.45 -7.15,0 -11.25,6.2 -11.25,15.4 m 18.95,0.05 c 0,7.15 -3.05,12.15 -7.7,12.15 -4.6,0 -7.65,-5 -7.65,-12.15 0,-7.2 3.05,-12.15 7.65,-12.15 4.65,0 7.7,4.95 7.7,12.15"
     id="path112" />
  <path
     class="Lyrics"
     d="m 1936.69,482.804 h -3.75 v 43.7 h 3.75 v -22.9 h 7.05 v -3.2 h -7.05 v -17.6 m -7.6,28.6 c -5.85,1.1 -13.6,1.55 -20.55,1.5 v -10.55 h 16.3 v -15.5 h -20.2 v 3.15 h 16.4 v 9.2 h -16.3 v 16.9 h 3.7 c 7.15,0 16.25,-0.65 21.15,-1.65 l -0.5,-3.05"
     id="path113" />
  <path
     class="Lyrics"
     d="m 1063.9,508.954 v -23.15 h -3.8 v 8.05 h -22.25 v -8.05 H 1034 v 23.15 h 13 v 8.9 h -17.75 v 3.2 h 39.45 v -3.2 h -17.9 v -8.9 h 13.1 m -3.8,-3.15 h -22.25 v -8.8 h 22.25 v 8.8"
     id="path114" />
  <path
     class="Lyrics"
     d="m 1245.33,929.55 c -4.9,-1.8 -10.65,-7.25 -10.65,-14.25 v -5 h -3.85 v 5.15 c 0,6.95 -4.85,12.55 -11,15.3 0.75,1 1.55,2 2.35,3 5.5,-3.1 9.35,-7.05 10.65,-11.65 1.8,4.5 6.1,8.4 10.25,10.4 l 2.25,-2.95 m -1.05,-12.7 h 7.85 v 5.7 h -7.85 v 3.2 h 7.85 v 7.45 h 3.8 v -25.05 h -3.8 v 5.5 h -7.85 v 3.2 m 13.3,35.1 h 0.05 c 0.75,-0.9 1.6,-1.75 2.35,-2.7 -4.15,-1.55 -8.55,-6.35 -8.55,-11.75 v -2.55 h -3.75 v 2.75 c 0,5.25 -4.05,10 -8.75,12.25 l 2.4,2.6 c 3.5,-1.75 7.15,-5.75 8.25,-9 1.1,3.15 5.05,6.95 8,8.4 m -18.55,-3.4 2.6,-2.65 c -3.35,-1.25 -6.45,-4.3 -6.45,-8.9 v -2.05 h -3.8 v 2.35 c 0,5.3 -4.4,10.05 -8.85,12.05 0.8,0.9 1.5,1.8 2.3,2.7 3.75,-1.8 7.6,-6.05 8.65,-9.3 1,2.4 3.35,4.6 5.55,5.8"
     id="path115" />
  <path
     class="Lyrics"
     d="m 1160.54,504.204 c -4.9,-1.8 -10.65,-7.25 -10.65,-14.25 v -5 h -3.85 v 5.15 c 0,6.95 -4.85,12.55 -11,15.3 0.75,1 1.55,2 2.35,3 5.5,-3.1 9.35,-7.05 10.65,-11.65 1.8,4.5 6.1,8.4 10.25,10.4 l 2.25,-2.95 m -1.05,-12.7 h 7.85 v 5.7 h -7.85 v 3.2 h 7.85 v 7.45 h 3.8 v -25.05 h -3.8 v 5.5 h -7.85 v 3.2 m 13.3,35.1 h 0.05 c 0.75,-0.9 1.6,-1.75 2.35,-2.7 -4.15,-1.55 -8.55,-6.35 -8.55,-11.75 v -2.55 h -3.75 v 2.75 c 0,5.25 -4.05,10 -8.75,12.25 l 2.4,2.6 c 3.5,-1.75 7.15,-5.75 8.25,-9 1.1,3.15 5.05,6.95 8,8.4 m -18.55,-3.4 2.6,-2.65 c -3.35,-1.25 -6.45,-4.3 -6.45,-8.9 v -2.05 h -3.8 v 2.35 c 0,5.3 -4.4,10.05 -8.85,12.05 0.8,0.9 1.5,1.8 2.3,2.7 3.75,-1.8 7.6,-6.05 8.65,-9.3 1,2.4 3.35,4.6 5.55,5.8"
     id="path116" />
  <path
     class="Lyrics"
     d="m 572.122,482.804 v 43.7 h 3.8 v -43.7 h -3.8 m -6.9,13.8 c 0,-6.4 -4.9,-10.4 -11.35,-10.4 -6.35,0 -11.4,4.25 -11.4,10.4 0,5.85 4.95,10.15 11.4,10.15 6.3,0 11.35,-3.95 11.35,-10.15 m -3.7,0 c 0,4.1 -3.5,6.95 -7.65,6.95 -4.25,0 -7.7,-2.9 -7.7,-6.95 0,-4.1 3.5,-7.15 7.7,-7.15 4.25,0 7.65,2.75 7.65,7.15 m 8.05,18.8 -0.35,-3.1 c -3.2,0.4 -8.85,0.75 -14.95,0.95 -5.3,0.3 -10.45,0.4 -14.2,0.35 l 0.7,3.35 c 3.3,-0.05 8.1,-0.2 13.25,-0.45 5.55,-0.25 11.8,-0.65 15.55,-1.1"
     id="path117" />
  <path
     class="Lyrics"
     d="m 1540.25,520.954 v -3.2 h -17.9 v -7.45 h 14.25 v -3.2 h -27.15 v -7.3 h 25.9 v -13.35 h -29.75 v 3.2 h 25.95 v 7 h -25.9 v 13.65 h 12.9 v 7.45 h -17.75 v 3.2 h 39.45"
     id="path118" />
  <path
     class="Lyrics"
     d="m 1410.14,932.45 v -3.2 h -39.45 v 3.2 h 39.45 m -4.8,18.8 V 937 h -29.8 v 14.25 h 29.8 m -3.8,-3.15 h -22.2 v -8 h 22.2 v 8 m 4.15,-30.6 c 0,-4.95 -5.7,-8.2 -15.3,-8.2 -9.55,0 -15.2,3.25 -15.2,8.2 0,4.95 5.65,8.2 15.2,8.2 9.6,0 15.3,-3.25 15.3,-8.2 m -3.7,0 c 0,3.2 -4.6,5.15 -11.6,5.15 -7,0 -11.5,-1.95 -11.5,-5.15 0,-3.25 4.5,-5.15 11.5,-5.15 7,0 11.6,1.9 11.6,5.15"
     id="path119" />
  <path
     class="Lyrics"
     d="m 1895.97,520.554 v -3.2 h -39.45 v 3.2 h 39.45 m -4.9,-11.9 v -22 h -3.8 v 7.95 h -22.1 v -7.9 h -3.8 v 21.95 h 29.7 m -3.8,-3.15 h -22.1 v -7.8 h 22.1 v 7.8"
     id="path120" />
  <path
     class="Lyrics"
     d="m 997.023,498.154 v -3.1 h -26.05 v -7.3 h 25.95 v -3.15 h -29.75 v 13.55 h 12.95 v 4.15 h -17.8 v 3.1 h 39.447 v -3.1 h -17.847 v -4.15 h 13.1 m 1.45,27.55 v -3.15 h -27.75 v -3.9 h 26.1 v -9.8 h -29.95 v 3.15 h 26.15 v 3.8 h -26.1 v 9.9 h 31.55"
     id="path121" />
  <path
     class="Lyrics"
     d="m 1486.8,951.85 v -43.7 h -3.8 v 43.7 h 3.8 m -34.5,-25 c 0,9.3 4.1,15.5 11.25,15.5 7.25,0 11.3,-6.2 11.3,-15.45 0,-9.25 -4.05,-15.45 -11.3,-15.45 -7.15,0 -11.25,6.2 -11.25,15.4 m 18.95,0.05 c 0,7.15 -3.05,12.15 -7.7,12.15 -4.6,0 -7.65,-5 -7.65,-12.15 0,-7.2 3.05,-12.15 7.65,-12.15 4.65,0 7.7,4.95 7.7,12.15"
     id="path122" />
  <path
     class="Lyrics"
     d="m 496.033,510.254 c -4.75,1.15 -13.3,1.8 -20.8,1.85 v -24.95 h -3.8 v 28.3 h 2.65 c 6.65,0 17.15,-0.75 22.5,-2 l -0.55,-3.2 m 7.5,-27.45 h -3.8 v 43.7 h 3.8 v -23.1 h 7.15 v -3.25 h -7.15 v -17.35"
     id="path123" />
  <path
     class="Lyrics"
     d="m 1847.85,503.604 v -3.2 h -7.15 v -17.6 h -3.8 v 43.7 h 3.8 v -22.9 h 7.15 m -40.15,-2.1 c 0,9.3 4.1,15.5 11.2,15.5 7.1,0 11.15,-6.2 11.15,-15.45 0,-9.25 -4.05,-15.45 -11.15,-15.45 -7.1,0 -11.2,6.2 -11.2,15.4 m 18.65,0.05 c 0,7.15 -2.9,12.15 -7.45,12.15 -4.55,0 -7.5,-5 -7.5,-12.15 0,-7.2 2.95,-12.15 7.5,-12.15 4.55,0 7.45,4.95 7.45,12.15"
     id="path124" />
  <path
     class="Lyrics"
     d="m 712.816,934.55 v -3.15 h -17.85 v -7.15 h -3.8 v 7.15 h -17.8 v 3.15 h 39.45 m -1.9,-10.85 c -6.85,-0.6 -15.8,-6.25 -15.8,-12.35 v -1.8 h -3.95 v 1.8 c 0,6.05 -8.25,11.6 -15.75,12.4 l 1.8,3.2 c 7.5,-1.35 14.15,-6.45 15.85,-10.6 2,4.2 8.8,9.3 16.05,10.6 l 1.8,-3.25 m -2.3,26.8 v -3.2 h -26.6 v -9.25 h -3.8 v 12.45 h 30.4"
     id="path125" />
  <path
     class="Lyrics"
     d="m 1601.35,908.15 v 43.7 h 3.8 v -43.7 h -3.8 m -4,28.65 c -5.3,0.95 -13.95,1.35 -20.9,1.35 h -1.05 V 927.7 h 16.6 v -15.5 h -20.6 v 3.15 h 16.75 v 9.2 h -16.55 v 16.85 h 4.45 c 9.6,0 17.1,-0.75 21.65,-1.45 l -0.35,-3.15"
     id="path126" />
  <path
     class="Lyrics"
     d="m 303.186,929.65 v -3.25 h -7.1 v -18.25 h -3.8 v 43.7 h 3.8 v -22.2 h 7.1 m -13.4,11.15 -0.3,-3.15 c -3.9,0.6 -9.4,1 -14.65,1.25 v -13.7 h -3.85 V 939 c -3.25,0.1 -7.15,0.05 -9.55,0.05 l 0.55,3.35 c 3.65,0 8.5,-0.15 12.9,-0.35 4.25,-0.25 10.7,-0.7 14.9,-1.25 m -3.3,-28.05 h -22.85 v 3.2 h 19 c 0.2,4.9 -0.4,12.1 -1.35,16.35 l 3.65,0.5 c 0.95,-4.25 1.65,-13.35 1.55,-20.05"
     id="path127" />
  <path
     class="Lyrics"
     d="m 1805.94,908.15 h -3.8 v 43.7 h 3.8 V 928.7 h 7.1 v -3.2 h -7.1 v -17.35 m -28.15,29.75 v -22 h 16.9 v -3.2 h -20.75 v 28.45 h 4.3 c 7.6,0 16.25,-0.6 20.95,-1.5 l -0.4,-3.15 c -4.2,0.9 -12.85,1.4 -18.5,1.4 h -2.5"
     id="path128" />
  <path
     class="Lyrics"
     d="m 1687.16,946.3 v -3.2 h -17.9 v -7.45 h 14.25 v -3.2 h -27.15 v -7.3 h 25.9 V 911.8 h -29.75 v 3.2 h 25.95 v 7 h -25.9 v 13.65 h 12.9 v 7.45 h -17.75 v 3.2 h 39.45"
     id="path129" />
  <path
     class="Lyrics"
     d="m 1466.66,482.804 v 43.7 h 3.8 v -43.7 h -3.8 m -4,28.65 c -5.3,0.95 -13.95,1.35 -20.9,1.35 h -1.05 v -10.45 h 16.6 v -15.5 h -20.6 v 3.15 h 16.75 v 9.2 h -16.55 v 16.85 h 4.45 c 9.6,0 17.1,-0.75 21.65,-1.45 l -0.35,-3.15"
     id="path130" />
  <path
     class="Lyrics"
     d="m 627.417,927.15 c 0,-4.6 -5.7,-6.7 -13.45,-6.7 -7.7,0 -13.45,2.1 -13.45,6.7 0,4.5 5.75,6.65 13.45,6.65 7.75,0 13.45,-2.15 13.45,-6.65 m -11.6,24.75 v -12.5 h 17.85 v -3.2 h -39.45 v 3.2 h 17.8 v 12.5 h 3.8 m 15.75,-33.35 v -3.2 h -35.1 v 3.2 h 35.1 m -8.1,8.6 c 0,2.55 -5.1,3.5 -9.5,3.5 -4.3,0 -9.5,-0.95 -9.5,-3.5 0,-2.7 5.2,-3.55 9.5,-3.55 4.4,0 9.5,0.85 9.5,3.55 m -2.2,-15.1 v -3.25 h -14.6 v 3.25 h 14.6"
     id="path131" />
  <path
     class="Lyrics"
     d="m 291.656,526.504 v -43.7 h -3.8 v 15.6 h -10.2 v 3.2 h 10.2 v 24.9 h 3.8 m -9.7,-13.35 c -6,-3.5 -11.2,-10.6 -11.2,-18.6 v -7.95 h -3.95 v 8.1 c 0,7.75 -5.05,15.5 -11.4,19.5 l 2.5,2.85 c 5.05,-3.65 9.35,-9.05 10.9,-14.5 1.75,5.25 6.8,10.8 10.8,13.5 l 2.35,-2.9"
     id="path132" />
  <path
     class="Lyrics"
     d="m 1649.32,482.804 h -3.8 v 43.7 h 3.8 v -23.15 h 7.1 v -3.2 h -7.1 v -17.35 m -28.15,29.75 v -22 h 16.9 v -3.2 h -20.75 v 28.45 h 4.3 c 7.6,0 16.25,-0.6 20.95,-1.5 l -0.4,-3.15 c -4.2,0.9 -12.85,1.4 -18.5,1.4 h -2.5"
     id="path133" />
  <polyline
     class="LyricsLineSegment"
     fill="none"
     stroke="#000000"
     stroke-width="2.48"
     stroke-linejoin="bevel"
     points="399.199,1072.37 419.04,1072.37"
     id="polyline133"
     transform="translate(0,-138)" />
  <path
     class="NoteDot"
     d="m 1665.38,420.8 c 0,2.7776 2.1824,4.96001 4.96,4.96001 2.7776,0 4.96,-2.18241 4.96,-4.96001 0,-2.7776 -2.1824,-4.96001 -4.96,-4.96001 -2.7776,0 -4.96,2.18241 -4.96,4.96001"
     id="path134"
     style="stroke-width:0.992001" />
  <path
     class="NoteDot"
     d="m 1822,834.401 c 0,2.7776 2.1824,4.96 4.96,4.96 2.7776,0 4.96,-2.1824 4.96,-4.96 0,-2.7776 -2.1824,-4.96001 -4.96,-4.96001 -2.7776,0 -4.96,2.18241 -4.96,4.96001"
     id="path135"
     style="stroke-width:0.992001" />
  <path
     class="NoteDot"
     d="m 1183.61,371.2 c 0,2.7776 2.1824,4.96 4.96,4.96 2.7776,0 4.96,-2.1824 4.96,-4.96 0,-2.7776 -2.1824,-4.96001 -4.96,-4.96001 -2.7776,0 -4.96,2.18241 -4.96,4.96001"
     id="path136"
     style="stroke-width:0.992001" />
  <path
     class="NoteDot"
     d="m 1268.41,809.601 c 0,2.7776 2.1824,4.96001 4.96,4.96001 2.7776,0 4.96,-2.18241 4.96,-4.96001 0,-2.7776 -2.1824,-4.96001 -4.96,-4.96001 -2.7776,0 -4.96,2.18241 -4.96,4.96001"
     id="path137"
     style="stroke-width:0.992001" />
  <path
     class="NoteDot"
     d="m 837.444,809.601 c 0,2.7776 2.1824,4.96001 4.96,4.96001 2.77761,0 4.96001,-2.18241 4.96001,-4.96001 0,-2.7776 -2.1824,-4.96001 -4.96001,-4.96001 -2.7776,0 -4.96,2.18241 -4.96,4.96001"
     id="path138"
     style="stroke-width:0.992001" />
</svg>
