<?xml version="1.0" encoding="UTF-8" standalone="no"?>
<svg
   width="1818.0029"
   height="264.56299"
   viewBox="0 0 1818.0029 264.56298"
   version="1.2"
   id="svg68"
   sodipodi:docname="보편지향기도응답.svg"
   inkscape:version="1.3.2 (091e20e, 2023-11-25)"
   xmlns:inkscape="http://www.inkscape.org/namespaces/inkscape"
   xmlns:sodipodi="http://sodipodi.sourceforge.net/DTD/sodipodi-0.dtd"
   xmlns="http://www.w3.org/2000/svg"
   xmlns:svg="http://www.w3.org/2000/svg">
  <defs
     id="defs68" />
  <sodipodi:namedview
     id="namedview68"
     pagecolor="#ffffff"
     bordercolor="#000000"
     borderopacity="0.25"
     inkscape:showpageshadow="2"
     inkscape:pageopacity="0.0"
     inkscape:pagecheckerboard="0"
     inkscape:deskcolor="#d1d1d1"
     inkscape:zoom="0.29922944"
     inkscape:cx="907.33051"
     inkscape:cy="133.67669"
     inkscape:window-width="1312"
     inkscape:window-height="449"
     inkscape:window-x="0"
     inkscape:window-y="25"
     inkscape:window-maximized="0"
     inkscape:current-layer="svg68" />
  <title
     id="title1">039 보편 지향 기도 응답.mscz</title>
  <desc
     id="desc1">Generated by MuseScore 4.2.1</desc>
  <polyline
     class="StaffLines"
     fill="none"
     stroke="#000000"
     stroke-width="2.75"
     stroke-linejoin="bevel"
     points="141.732,243.4 1959.73,243.4"
     id="polyline1"
     transform="translate(-141.732,-205.87101)" />
  <polyline
     class="StaffLines"
     fill="none"
     stroke="#000000"
     stroke-width="2.75"
     stroke-linejoin="bevel"
     points="141.732,268.4 1959.73,268.4"
     id="polyline2"
     transform="translate(-141.732,-205.87101)" />
  <polyline
     class="StaffLines"
     fill="none"
     stroke="#000000"
     stroke-width="2.75"
     stroke-linejoin="bevel"
     points="141.732,293.4 1959.73,293.4"
     id="polyline3"
     transform="translate(-141.732,-205.87101)" />
  <polyline
     class="StaffLines"
     fill="none"
     stroke="#000000"
     stroke-width="2.75"
     stroke-linejoin="bevel"
     points="141.732,318.4 1959.73,318.4"
     id="polyline4"
     transform="translate(-141.732,-205.87101)" />
  <polyline
     class="StaffLines"
     fill="none"
     stroke="#000000"
     stroke-width="2.75"
     stroke-linejoin="bevel"
     points="141.732,343.4 1959.73,343.4"
     id="polyline5"
     transform="translate(-141.732,-205.87101)" />
  <polyline
     class="BarLine"
     fill="none"
     stroke="#000000"
     stroke-width="4.5"
     stroke-linejoin="bevel"
     points="1934.48,242.025 1934.48,344.775"
     id="polyline6"
     transform="translate(-141.732,-205.87101)" />
  <polyline
     class="BarLine"
     fill="none"
     stroke="#000000"
     stroke-width="13.75"
     stroke-linejoin="bevel"
     points="1952.86,242.025 1952.86,344.775"
     id="polyline7"
     transform="translate(-141.732,-205.87101)" />
  <polyline
     class="BarLine"
     fill="none"
     stroke="#000000"
     stroke-width="4.5"
     stroke-linejoin="bevel"
     points="1635.73,242.025 1635.73,344.775"
     id="polyline8"
     transform="translate(-141.732,-205.87101)" />
  <polyline
     class="BarLine"
     fill="none"
     stroke="#000000"
     stroke-width="4.5"
     stroke-linejoin="bevel"
     points="1173.19,242.025 1173.19,344.775"
     id="polyline9"
     transform="translate(-141.732,-205.87101)" />
  <polyline
     class="BarLine"
     fill="none"
     stroke="#000000"
     stroke-width="4.5"
     stroke-linejoin="bevel"
     points="815.468,242.025 815.468,344.775"
     id="polyline10"
     transform="translate(-141.732,-205.87101)" />
  <polyline
     class="Stem"
     fill="none"
     stroke="#000000"
     stroke-width="2.5"
     stroke-linejoin="bevel"
     points="473.276,301.9 473.276,237.271"
     id="polyline11"
     transform="translate(-141.732,-205.87101)" />
  <polyline
     class="Stem"
     fill="none"
     stroke="#000000"
     stroke-width="2.5"
     stroke-linejoin="bevel"
     points="411.412,314.4 411.412,243.279"
     id="polyline12"
     transform="translate(-141.732,-205.87101)" />
  <polyline
     class="Stem"
     fill="none"
     stroke="#000000"
     stroke-width="2.5"
     stroke-linejoin="bevel"
     points="1694.23,314.4 1694.23,230.9"
     id="polyline13"
     transform="translate(-141.732,-205.87101)" />
  <polyline
     class="Stem"
     fill="none"
     stroke="#000000"
     stroke-width="2.5"
     stroke-linejoin="bevel"
     points="535.14,289.4 535.14,218.4"
     id="polyline14"
     transform="translate(-141.732,-205.87101)" />
  <polyline
     class="Stem"
     fill="none"
     stroke="#000000"
     stroke-width="2.5"
     stroke-linejoin="bevel"
     points="1571.93,301.9 1571.93,224.65"
     id="polyline15"
     transform="translate(-141.732,-205.87101)" />
  <polyline
     class="Stem"
     fill="none"
     stroke="#000000"
     stroke-width="2.5"
     stroke-linejoin="bevel"
     points="1479.13,301.9 1479.13,224.65"
     id="polyline16"
     transform="translate(-141.732,-205.87101)" />
  <polyline
     class="Stem"
     fill="none"
     stroke="#000000"
     stroke-width="2.5"
     stroke-linejoin="bevel"
     points="627.936,326.9 627.936,249.529"
     id="polyline17"
     transform="translate(-141.732,-205.87101)" />
  <polyline
     class="Stem"
     fill="none"
     stroke="#000000"
     stroke-width="2.5"
     stroke-linejoin="bevel"
     points="1417.27,314.4 1417.27,243.279"
     id="polyline18"
     transform="translate(-141.732,-205.87101)" />
  <polyline
     class="Stem"
     fill="none"
     stroke="#000000"
     stroke-width="2.5"
     stroke-linejoin="bevel"
     points="1355.41,301.9 1355.41,237.271"
     id="polyline19"
     transform="translate(-141.732,-205.87101)" />
  <polyline
     class="Stem"
     fill="none"
     stroke="#000000"
     stroke-width="2.5"
     stroke-linejoin="bevel"
     points="1293.54,289.4 1293.54,218.279"
     id="polyline20"
     transform="translate(-141.732,-205.87101)" />
  <polyline
     class="Stem"
     fill="none"
     stroke="#000000"
     stroke-width="2.5"
     stroke-linejoin="bevel"
     points="689.8,314.4 689.8,243.521"
     id="polyline21"
     transform="translate(-141.732,-205.87101)" />
  <polyline
     class="Stem"
     fill="none"
     stroke="#000000"
     stroke-width="2.5"
     stroke-linejoin="bevel"
     points="1231.68,276.9 1231.68,212.271"
     id="polyline22"
     transform="translate(-141.732,-205.87101)" />
  <polyline
     class="Stem"
     fill="none"
     stroke="#000000"
     stroke-width="2.5"
     stroke-linejoin="bevel"
     points="1062.99,289.4 1062.99,218.4"
     id="polyline23"
     transform="translate(-141.732,-205.87101)" />
  <polyline
     class="Stem"
     fill="none"
     stroke="#000000"
     stroke-width="2.5"
     stroke-linejoin="bevel"
     points="751.664,301.9 751.664,224.65"
     id="polyline24"
     transform="translate(-141.732,-205.87101)" />
  <polyline
     class="Stem"
     fill="none"
     stroke="#000000"
     stroke-width="2.5"
     stroke-linejoin="bevel"
     points="991.594,301.9 991.594,224.85"
     id="polyline25"
     transform="translate(-141.732,-205.87101)" />
  <polyline
     class="Stem"
     fill="none"
     stroke="#000000"
     stroke-width="2.5"
     stroke-linejoin="bevel"
     points="873.96,314.4 873.96,230.9"
     id="polyline26"
     transform="translate(-141.732,-205.87101)" />
  <path
     class="Note"
     d="m 300.302,104.22899 c 0,4.3 3.1,9.1 11.2,9.1 10.4,0 21.3,-8.5 21.3,-17.299996 0,-5.9 -5,-9.2 -11.2,-9.2 -9.7,0 -21.3,8.2 -21.3,17.399996"
     id="path26" />
  <path
     class="Note"
     d="m 700.986,116.72899 c 0,4.3 3.1,9.1 11.2,9.1 10.4,0 21.3,-8.5 21.3,-17.3 0,-5.9 -5,-9.199996 -11.2,-9.199996 -9.7,0 -21.3,8.199996 -21.3,17.399996"
     id="path27" />
  <path
     class="Note"
     d="m 1542.548,99.328994 c -9.7,0 -21.3,8.099996 -21.3,17.399996 0,4.3 3.1,9.1 11.2,9.1 10.4,0 21.3,-8.5 21.3,-17.3 0,-5.9 -5,-9.199996 -11.2,-9.199996 m -13.8,21.799996 c -3.3,0 -4,-2.7 -4,-3.6 0,-4.9 16.8,-13.5 21.5,-13.5 2.4,0 4,1.4 4,3.6 0,5 -16.9,13.5 -21.5,13.5"
     id="path28" />
  <path
     class="Note"
     d="m 578.69,104.22899 c 0,4.3 3.1,9.1 11.2,9.1 10.4,0 21.3,-8.5 21.3,-17.299996 0,-5.9 -5,-9.2 -11.2,-9.2 -9.7,0 -21.3,8.2 -21.3,17.399996"
     id="path29" />
  <path
     class="Note"
     d="m 818.62,104.22899 c 0,4.3 3.1,9.1 11.2,9.1 10.4,0 21.3,-8.5 21.3,-17.299996 0,-5.9 -5,-9.2 -11.2,-9.2 -9.7,0 -21.3,8.2 -21.3,17.399996"
     id="path30" />
  <path
     class="Note"
     d="m 1398.958,104.22899 c 0,4.3 3.1,9.1 11.2,9.1 10.4,0 21.3,-8.5 21.3,-17.299996 0,-5.9 -5,-9.2 -11.2,-9.2 -9.7,0 -21.3,8.2 -21.3,17.399996"
     id="path31" />
  <path
     class="Note"
     d="m 362.166,91.728994 c 0,4.3 3.1,9.099996 11.2,9.099996 10.4,0 21.3,-8.499996 21.3,-17.299996 0,-5.9 -5,-9.2 -11.2,-9.2 -9.7,0 -21.3,8.2 -21.3,17.4"
     id="path32" />
  <path
     class="Note"
     d="m 911.308,74.328994 c -9.7,0 -21.3,8.1 -21.3,17.4 0,4.3 3.1,9.099996 11.2,9.099996 10.4,0 21.3,-8.499996 21.3,-17.299996 0,-5.9 -5,-9.2 -11.2,-9.2 m -13.8,21.8 c -3.3,0 -4,-2.7 -4,-3.6 0,-4.9 16.8,-13.5 21.5,-13.5 2.4,0 4,1.4 4,3.6 0,5 -16.9,13.5 -21.5,13.5"
     id="path33" />
  <path
     class="Note"
     d="m 1306.158,104.22899 c 0,4.3 3.1,9.1 11.2,9.1 10.4,0 21.3,-8.5 21.3,-17.299996 0,-5.9 -5,-9.2 -11.2,-9.2 -9.7,0 -21.3,8.2 -21.3,17.399996"
     id="path34" />
  <path
     class="Note"
     d="m 238.438,116.72899 c 0,4.3 3.1,9.1 11.2,9.1 10.4,0 21.3,-8.5 21.3,-17.3 0,-5.9 -5,-9.199996 -11.2,-9.199996 -9.7,0 -21.3,8.199996 -21.3,17.399996"
     id="path35" />
  <path
     class="Note"
     d="m 1244.298,116.72899 c 0,4.3 3.1,9.1 11.2,9.1 10.4,0 21.3,-8.5 21.3,-17.3 0,-5.9 -5,-9.199996 -11.2,-9.199996 -9.7,0 -21.3,8.199996 -21.3,17.399996"
     id="path36" />
  <path
     class="Note"
     d="m 516.826,116.72899 c 0,4.3 3.1,9.1 11.2,9.1 10.4,0 21.3,-8.5 21.3,-17.3 0,-5.9 -5,-9.199996 -11.2,-9.199996 -9.7,0 -21.3,8.199996 -21.3,17.399996"
     id="path37" />
  <path
     class="Note"
     d="m 1058.708,79.228994 c 0,4.3 3.1,9.1 11.2,9.1 10.4,0 21.3,-8.5 21.3,-17.3 0,-5.9 -5,-9.2 -11.2,-9.2 -9.7,0 -21.3,8.2 -21.3,17.4"
     id="path38" />
  <path
     class="Note"
     d="m 454.962,129.22899 c 0,4.3 3.1,9.1 11.2,9.1 10.4,0 21.3,-8.5 21.3,-17.3 0,-5.9 -5,-9.2 -11.2,-9.2 -9.7,0 -21.3,8.2 -21.3,17.4"
     id="path39" />
  <path
     class="Note"
     d="m 1182.428,104.22899 c 0,4.3 3.1,9.1 11.2,9.1 10.4,0 21.3,-8.5 21.3,-17.299996 0,-5.9 -5,-9.2 -11.2,-9.2 -9.7,0 -21.3,8.2 -21.3,17.399996"
     id="path40" />
  <path
     class="Note"
     d="m 1120.568,91.728994 c 0,4.3 3.1,9.099996 11.2,9.099996 10.4,0 21.3,-8.499996 21.3,-17.299996 0,-5.9 -5,-9.2 -11.2,-9.2 -9.7,0 -21.3,8.2 -21.3,17.4"
     id="path41" />
  <path
     class="Clef"
     d="m 32.300002,163.82899 c 0,6.6 5,15.3 18.5,15.3 4.7,0 8.8,-1.2 12.4,-3.4 5.4,-3.8 6.8,-10.4 6.8,-16.7 0,-3.9 -0.6,-8.4 -1.6,-14.1 -0.3,-2 -0.9,-5 -1.5,-8.9 9.8,-3.2 17.1,-13.4 17.1,-23.7 0,-15.099996 -10.7,-25.299996 -25.3,-25.299996 -1,-6 -2,-11.9 -2.8,-17.5 10.5,-11.1 17.8,-23.6 17.8,-39.5 0,-9.1 -2.8,-16.5 -4.4,-20.0999997 -2.4,-5.1 -5.3,-8.6 -7.1,-8.6 -0.7,0 -3.8,1.2 -7.1,5.1 -6.4,7.5999997 -8.2,20.3999997 -8.2,28.7999997 0,5.4 0.5,10.3 2.2,21.5 -0.1,0.1 -5.3,5.4 -7.4,7.1 -9.1,8.4 -21.7,20.6 -21.7,40.599996 0,18.7 16.3,33.4 34.9,33.4 2.9,0 5.6,-0.3 7.9,-0.7 1.9,9.6 3.1,16.6 3.1,21.9 0,10.4 -5.4,15.9 -15.5,15.9 -2.4,0 -4.5,-0.5 -4.7,-0.5 -0.1,-0.1 -0.3,-0.2 -0.3,-0.3 0,-0.2 0.2,-0.3 0.5,-0.3 4.7,-0.8 9.4,-4.8 9.4,-11.2 0,-5.4 -4.1,-11.1 -11.6,-11.1 -7,0 -11.4,5.7 -11.4,12.3 m 20.9,-133.499996 c 0.9,-4 5.5,-14.5 10.7,-14.5 1.5,0 3.9,4.8 3.9,11.8 0,10.4 -7.7,18.2 -14.6,25 -0.6,-4 -1.1,-7.9 -1.1,-12.1 0,-3.7 0.3,-7.1 1.1,-10.2 m 8.8,102.799996 c -2,0.4 -3.9,0.6 -5.8,0.6 -14.3,0 -26.5,-10 -26.5,-25.1 0,-12.199996 8.6,-23.099996 17.4,-30.699996 1.7,-1.5 3.3,-2.9 4.8,-4.4 0.9,5.4 1.6,10.1 2.3,14.2 -9.1,2.7 -15.3,12.299996 -15.3,21.699996 0,7 5.5,16.6 13.5,16.6 0.8,0 1.7,-0.4 1.7,-1.3 0,-0.9 -1,-1.4 -2.2,-2.2 -3.9,-2.4 -6.1,-5 -6.1,-9.9 0,-6.1 4.6,-11 10.4,-12.4 l 5.8,32.9 m 14.2,-18.5 c 0,7.1 -2.9,14.4 -10,17.3 -2.1,-12 -4.8,-27.9 -5.5,-32.299996 9,0 15.5,6.099996 15.5,14.999996"
     id="path42" />
  <path
     class="KeySig"
     d="m 132.293,27.028994 c 0.6,-0.1 1.1,-0.8 1.1,-1.4 v -5.9 c 0,-1 -0.7,-1.4 -1.6,-1.4 l -3.3,0.7 V 4.1289943 h -2.8 V 19.628994 l -8.9,1.8 V 7.3289943 h -2.8 V 22.028994 l -3.9,0.8 c -0.6,0.1 -1.1,0.8 -1.1,1.4 v 5.8 c 0,1.1 0.8,1.4 1.7,1.4 l 3.3,-0.7 v 16.5 l -3.9,0.8 c -0.6,0.1 -1.1,0.8 -1.1,1.4 v 5.8 c 0,1.1 0.8,1.4 1.7,1.4 l 3.3,-0.7 v 14.9 h 2.8 v -15.5 l 8.9,-1.8 v 14.1 h 2.8 v -14.7 l 3.8,-0.7 c 0.6,-0.1 1.1,-0.8 1.1,-1.4 v -5.9 c 0,-1 -0.7,-1.4 -1.6,-1.4 l -3.3,0.7 v -16.5 l 3.8,-0.7 m -15.5,3.1 8.9,-1.8 v 16.5 l -8.9,1.9 v -16.6"
     id="path43" />
  <path
     class="TimeSig"
     d="m 190.891,69.628994 c -2.5,1.6 -4.3,4.5 -4.3,7.7 0,0.4 0,0.8 0.1,1.2 0.5,4.1 3.8,7.3 7.9,7.8 0.3,0 0.8,0 1.1,0 5,0 9,-4 9,-9 0,-0.7 0,-1.4 -0.2,-2.1 -0.9,-4.3 -4.8,-13.5 -21.8,-13.5 -21.8,0 -24.3,18.1 -24.3,24.6 0,11.9 1.5,26.799996 26.5,26.799996 9.9,0 17.6,-5.8 18,-16.499996 0,-0.5 -0.3,-0.8 -0.8,-0.8 h -1.3 c -0.4,0 -0.8,0.4 -0.8,0.8 -0.4,8.299996 -6.3,13.299996 -15.1,13.299996 -8.7,0 -12.9,-4.7 -12.9,-13.499996 v -19.1 c 0,-5.6 2.2,-12 11.1,-12 4.7,0 6.8,1.7 7.9,3.4 0.1,0.2 0.1,0.3 0.1,0.5 0,0.1 0,0.3 -0.2,0.4"
     id="path44" />
  <path
     class="Rest"
     d="m 1720.708,104.12899 c -0.1,-0.1 -0.3,-0.3 -0.6,-0.7 l -11.5,-14.199996 c -0.1,-0.1 -0.2,-0.4 -0.2,-0.6 0,-0.3 0.1,-0.7 0.2,-0.9 l 10.2,-15.4 c 0.1,-0.2 0.2,-0.5 0.2,-0.7 v -0.9 c 0,-0.3 -0.1,-0.6 -0.3,-0.8 l -16.2,-21.9 c 0,0 -0.4,-0.6 -1,-0.6 -0.3,0 -0.5,0 -0.8,0.3 -0.4,0.3 -0.5,0.7 -0.5,1 0,0.6 0.3,1.1 0.3,1.1 l 7.6,10.4 c 0.2,0.3 0.3,0.7 0.3,1.2 0,0.4 -0.1,0.9 -0.3,1.2 l -10.1,15.4 c -0.1,0.2 -0.2,0.6 -0.2,0.8 v 0.9 c 0,0.3 0.1,0.6 0.3,0.8 l 11.2,13.9 c -0.4,-0.1 -1.3,-0.3 -2.5,-0.3 -5.1,0 -9.1,4.2 -9.1,9.299996 0,1.4 0.3,2.8 1.1,3.9 2.1,3.2 9.6,12.7 9.6,12.7 0,0 0.5,0.6 1.2,0.6 0.2,0 0.4,0 0.6,-0.2 0.5,-0.4 0.7,-0.8 0.7,-1.2 0,-0.4 -0.2,-0.7 -0.3,-0.9 -0.3,-0.5 -3.5,-6.3 -3.5,-6.3 0,0 -0.7,-1.4 -0.7,-3.2 0,-3.2 2.4,-5.8 5.6,-5.8 1.3,0 2.4,0.4 3.2,0.9 l 3.9,2.5 c 0,0 0.4,0.2 0.8,0.2 0.4,0 0.7,-0.1 1,-0.5 0.2,-0.3 0.3,-0.6 0.3,-0.9 0,-0.3 -0.1,-0.5 -0.3,-0.8 l -0.2,-0.3"
     id="path45" />
  <path
     class="Beam"
     fill-rule="evenodd"
     d="m 484.954,37.499994 64.364,-6.25 v 12.559 l -64.364,6.25 v -12.559"
     id="path46" />
  <path
     class="Beam"
     fill-rule="evenodd"
     d="m 1212.428,24.999994 64.36,6.25 v 12.559 l -64.36,-6.25 v -12.559"
     id="path47" />
  <path
     class="Beam"
     fill-rule="evenodd"
     d="M 1088.698,-5.7407988e-6 1153.058,6.2499943 V 18.807994 l -64.36,-6.25 V -5.7407988e-6"
     id="path48" />
  <path
     class="Beam"
     fill-rule="evenodd"
     d="m 268.43,31.249994 64.364,-6.25 v 12.559 l -64.364,6.25 v -12.559"
     id="path49" />
  <path
     class="Hook"
     d="m 848.612,41.478994 c 0,0.3 0.1,0.9 0.8,1.1 4.3,1.4 12.896,6.8 19.396,17.9 1.8,3.1 4.7,7.4 4.7,15.7 0,7.2 -1.8,14.6 -4.5,21.8 -0.2,0.6 -0.3,1.1 -0.3,1.5 0,0.699996 0.4,0.999996 1.1,0.999996 0.6,0 1.1,-0.4 1.5,-1.099996 4.5,-8 6.2,-17.3 6.2,-26.4 -0.5,-12.9 -7.9,-22.4 -7.9,-22.4 0.3,0 -9.2,-12.3 -11.896,-16.5 -3.7,-5.7 -5.4,-11.4 -5.6,-11.8 -0.1,-0.3 -1,-3.9 -1,-3.9 -0.1,-0.4 -0.6,-0.8 -1.2,-0.8 -0.7,0 -1.3,0.6 -1.3,1.3 v 22.6"
     id="path50" />
  <path
     class="Lyrics"
     d="m 1130.068,198.39399 h 13.53 v 3.465 h -13.53 v -3.465"
     id="path51" />
  <path
     class="Lyrics"
     d="m 479.413,203.08499 -0.161,0.054 c -0.501,0 -1.503,-0.984 -3.005,-2.951 -0.644,-0.823 -1.288,-1.664 -1.932,-2.522 -1.395,-1.825 -2.665,-3.56 -3.81,-5.205 -0.429,-0.608 -0.948,-1.359 -1.556,-2.254 -0.93,1.038 -1.717,1.896 -2.361,2.576 -1.967,1.967 -4.024,3.792 -6.17,5.473 -2.505,2.003 -4.436,3.47 -5.796,4.4 -1.788,1.252 -2.933,1.878 -3.434,1.878 l -0.268,-0.215 c 0,-0.107 1.538,-1.502 4.615,-4.185 2.074,-1.789 4.435,-4.078 7.083,-6.868 2.217,-2.29 4.274,-4.829 6.17,-7.62 1.324,-1.931 2.486,-3.863 3.488,-5.795 0.358,-0.751 0.733,-1.52 1.127,-2.307 l -6.117,0.375 -5.312,0.537 c -0.358,0.143 -0.698,0.268 -1.02,0.376 -0.68,0.25 -1.198,0.375 -1.556,0.375 -0.537,0 -1.61,-0.384 -3.219,-1.153 -1.61,-0.769 -2.415,-1.351 -2.415,-1.744 0,-0.108 0.125,-0.179 0.376,-0.215 0.071,0 0.196,-0.018 0.375,-0.054 0.644,0 1.628,0.072 2.951,0.215 1.324,0.143 2.308,0.215 2.952,0.215 1.824,0 4.364,-0.09 7.619,-0.269 1.073,-0.035 2.522,-0.125 4.346,-0.268 0.215,0 0.501,-0.098 0.859,-0.295 0.358,-0.197 0.751,-0.402 1.18,-0.617 0.537,0 1.297,0.179 2.281,0.536 0.984,0.358 1.476,0.734 1.476,1.127 0,0.215 -0.17,0.465 -0.51,0.752 -0.34,0.286 -0.528,0.465 -0.564,0.536 -0.5,0.93 -0.894,1.664 -1.18,2.2 -0.787,1.395 -1.574,2.701 -2.361,3.917 -0.179,0.286 -1.073,1.503 -2.683,3.649 -0.537,0.715 -0.805,1.109 -0.805,1.18 l 2.629,3.274 c 0.287,0.357 0.832,0.813 1.637,1.368 0.805,0.554 1.637,1.118 2.495,1.69 1.109,1.538 1.941,2.835 2.495,3.89 0.555,1.056 0.832,1.941 0.832,2.657 0,0.608 -0.251,1.037 -0.751,1.287 m 12.127,-32.463 -0.161,41.424 c 0,1.717 -0.206,3.238 -0.618,4.561 -0.411,1.324 -0.849,1.986 -1.314,1.986 -0.322,0 -0.581,-0.403 -0.778,-1.208 -0.197,-0.805 -0.295,-2.066 -0.295,-3.783 l -0.322,-24.575 -6.547,0.697 c -0.286,0.143 -0.536,0.251 -0.751,0.322 -0.501,0.215 -0.93,0.322 -1.288,0.322 -0.536,0 -1.484,-0.331 -2.844,-0.992 -1.359,-0.662 -2.039,-1.172 -2.039,-1.53 0,-0.214 0.233,-0.322 0.698,-0.322 0.393,0 1.055,0.045 1.985,0.134 0.93,0.09 1.467,0.135 1.61,0.135 l 9.068,-0.376 v -15.561 c 0,-0.501 -0.742,-1.118 -2.226,-1.851 -1.485,-0.734 -2.996,-1.476 -4.535,-2.227 0,-0.215 0.233,-0.411 0.698,-0.59 0.465,-0.179 0.966,-0.269 1.502,-0.269 1.396,0 2.97,0.251 4.722,0.752 2.29,0.644 3.435,1.466 3.435,2.468 v 0.483"
     id="path52" />
  <path
     class="Lyrics"
     d="m 1089.598,182.26599 c -0.11,0.572 -0.76,0.912 -1.96,1.019 -1.2,0.108 -2.19,0.161 -2.98,0.161 -2,0 -5.95,0.125 -11.86,0.376 -3.36,0.143 -5.74,0.215 -7.13,0.215 -3.26,0 -4.89,-1.521 -4.89,-4.561 l -0.16,-5.42 c -0.07,-0.393 -0.84,-0.787 -2.3,-1.18 -1.47,-0.394 -2.2,-0.734 -2.2,-1.02 0,-0.537 0.26,-0.876 0.77,-1.019 0.52,-0.144 1.07,-0.215 1.64,-0.215 0.64,0 2.09,0.232 4.35,0.697 1.03,0.215 1.84,0.322 2.41,0.322 h 1.24 c 4.72,0 9.44,-0.268 14.16,-0.804 0.9,-0.322 1.62,-0.6 2.17,-0.832 0.56,-0.233 1,-0.349 1.32,-0.349 1.72,0 3,0.125 3.86,0.376 0.86,0.25 1.29,0.679 1.29,1.287 -0.07,0.68 -0.79,1.109 -2.15,1.288 -0.57,0.072 -1.21,0.108 -1.93,0.108 -2.61,0 -5.22,0.053 -7.83,0.161 -7.87,0.322 -12.25,0.482 -13.15,0.482 v 5.903 c 0,1.073 0.09,1.789 0.27,2.146 0.32,0.644 0.97,0.966 1.93,0.966 1.29,-0.036 2.95,-0.071 4.99,-0.107 2.04,-0.036 3.08,-0.054 3.11,-0.054 1.47,0 3.03,-0.089 4.67,-0.268 0.54,-0.036 1.22,-0.125 2.04,-0.268 0.29,0 0.86,-0.224 1.72,-0.671 0.86,-0.447 1.47,-0.671 1.82,-0.671 1.29,0 2.41,0.098 3.36,0.295 0.94,0.197 1.42,0.671 1.42,1.422 v 0.215 m 6.81,9.122 c -1.32,0 -2.65,-0.018 -3.99,-0.054 -1.35,-0.036 -2.64,-0.071 -3.89,-0.107 h -2.79 c -1.36,0 -3.57,0.044 -6.63,0.134 -3.06,0.089 -5.22,0.134 -6.47,0.134 -2.86,0 -5.7,0.143 -8.53,0.429 -0.93,0.072 -2.06,0.215 -3.38,0.43 -1.11,0.393 -2.22,0.787 -3.33,1.18 -0.68,0 -1.96,-0.465 -3.86,-1.395 -1.9,-0.93 -2.84,-1.628 -2.84,-2.093 0,-0.25 0.23,-0.375 0.69,-0.375 1.04,0.143 2.3,0.259 3.79,0.348 1.48,0.09 3.21,0.135 5.17,0.135 4.98,0 9.82,-0.09 14.55,-0.269 4.72,-0.179 9.35,-0.483 13.89,-0.912 0.93,-0.071 1.77,-0.25 2.5,-0.536 0.73,-0.287 1.33,-0.43 1.8,-0.43 2,0 3.53,0.152 4.58,0.456 1.06,0.304 1.59,0.85 1.59,1.637 -0.04,0.501 -0.3,0.841 -0.78,1.019 -0.48,0.179 -1.17,0.269 -2.07,0.269 m -4.07,21.463 c -0.11,0.537 -0.58,0.903 -1.4,1.1 -0.82,0.197 -1.75,0.295 -2.79,0.295 -1,0 -3.17,0.027 -6.49,0.081 -3.33,0.053 -5.08,0.08 -5.26,0.08 l -8.16,0.108 c -1.5,0 -2.72,-0.269 -3.65,-0.805 -1.18,-0.68 -1.77,-1.717 -1.77,-3.112 l -0.16,-3.005 c 0,-0.358 -0.39,-0.68 -1.18,-0.966 -1.72,-0.644 -2.57,-1.038 -2.57,-1.181 0,-0.25 0.19,-0.438 0.59,-0.563 0.39,-0.125 0.84,-0.188 1.34,-0.188 0.86,0 1.85,0.098 2.98,0.295 1.12,0.197 1.9,0.331 2.33,0.403 l 2.79,0.053 c 0.57,0 1.71,-0.035 3.41,-0.107 1.7,-0.072 2.74,-0.107 3.14,-0.107 1.57,0 3.45,-0.108 5.63,-0.322 0.75,-0.072 1.77,-0.197 3.06,-0.376 l 0.11,-2.897 v -2.469 c -1.33,0.072 -2.78,0.125 -4.38,0.161 -1.59,0.036 -3.06,0.054 -4.42,0.054 l -7.73,0.536 c -0.72,0 -1.29,0.161 -1.72,0.483 -0.43,0.322 -0.73,0.483 -0.91,0.483 -0.61,0 -1.73,-0.357 -3.38,-1.073 -1.65,-0.715 -2.47,-1.288 -2.47,-1.717 0,-0.322 0.29,-0.483 0.86,-0.483 0.18,0 1.06,0.072 2.63,0.215 1.57,0.143 3.09,0.214 4.56,0.214 1.86,0 3.74,-0.053 5.63,-0.161 5.66,-0.322 8.79,-0.482 9.39,-0.482 0.47,0 0.93,-0.072 1.37,-0.215 0.45,-0.143 0.91,-0.304 1.37,-0.483 0.5,0 1.26,0.179 2.28,0.537 1.02,0.357 1.53,0.697 1.53,1.019 0,0.286 -0.16,0.59 -0.48,0.912 -0.32,0.322 -0.5,0.537 -0.54,0.644 l -1.29,4.4 c 0.29,0.036 0.59,0.054 0.92,0.054 0.71,0.107 1.07,0.465 1.07,1.073 0,0.429 -0.19,0.724 -0.56,0.885 -0.38,0.161 -0.89,0.242 -1.53,0.242 l -20.34,0.644 v 3.595 c 0,1.001 0.16,1.627 0.48,1.878 0.32,0.25 0.97,0.375 1.93,0.375 h 7.52 c 0.82,0 1.8,-0.017 2.95,-0.053 1.14,-0.036 2.22,-0.09 3.22,-0.161 0.68,0 1.63,-0.295 2.84,-0.886 1.22,-0.59 2.04,-0.885 2.47,-0.885 3.22,0 4.83,0.537 4.83,1.61 l -0.05,0.268"
     id="path53" />
  <path
     class="Lyrics"
     d="m 1218.178,170.13899 c 0,0.179 -0.04,0.483 -0.11,0.912 -0.07,0.429 -0.11,0.662 -0.11,0.698 l -0.32,36.649 c 0,2.611 -0.09,4.56 -0.27,5.848 -0.36,2.54 -1.04,3.882 -2.04,4.025 -0.43,0 -0.71,-0.555 -0.86,-1.664 -0.14,-1.109 -0.21,-2.504 -0.21,-4.185 v -22.698 l -7.41,0.376 c -0.17,0 -0.53,0.107 -1.07,0.322 -0.54,0.215 -0.96,0.322 -1.29,0.322 -0.25,0 -0.52,-0.045 -0.8,-0.134 -0.29,-0.09 -0.56,-0.224 -0.81,-0.403 -0.5,2.647 -1.83,4.83 -3.99,6.547 -2.17,1.717 -4.72,2.575 -7.65,2.575 -3.47,0 -6.28,-0.858 -8.42,-2.575 -2.4,-1.896 -3.6,-4.633 -3.6,-8.21 0,-3.041 1.16,-5.563 3.49,-7.566 2.14,-1.86 4.65,-2.79 7.51,-2.79 0.14,-0.108 0.21,-0.376 0.21,-0.805 v -0.268 c 0,-0.036 -0.06,-0.242 -0.18,-0.617 -0.13,-0.376 -0.19,-0.653 -0.19,-0.832 0,-0.215 0.11,-0.322 0.32,-0.322 0.68,0 1.35,0.331 2.01,0.993 0.66,0.661 1,1.332 1,2.012 2.14,0.536 3.73,1.109 4.77,1.717 3.19,1.86 4.78,4.543 4.78,8.049 l 11.32,-0.376 -0.11,-15.615 c 0,-0.608 -1.14,-1.359 -3.43,-2.253 -2.29,-0.895 -3.44,-1.485 -3.44,-1.771 0.04,-0.286 0.35,-0.555 0.94,-0.805 0.59,-0.25 1.21,-0.376 1.85,-0.376 2.04,0.358 3.58,0.68 4.62,0.966 2.32,0.644 3.49,1.395 3.49,2.254 m -18.52,18.459 c 0,-2.683 -1.16,-4.901 -3.48,-6.654 -0.76,-0.573 -1.92,-1.181 -3.49,-1.825 -2.47,0.716 -4.94,1.431 -7.41,2.147 -1.86,1.288 -2.79,3.398 -2.79,6.332 0,2.647 0.81,4.668 2.42,6.063 1.61,1.395 3.72,2.093 6.33,2.093 2.47,0 4.52,-0.877 6.17,-2.63 1.5,-1.609 2.25,-3.452 2.25,-5.526"
     id="path54" />
  <path
     class="Lyrics"
     d="m 274.172,184.41199 c -0.143,0.465 -0.626,0.698 -1.449,0.698 -0.751,0 -1.824,-0.197 -3.219,-0.591 -1.395,-0.393 -2.737,-0.787 -4.025,-1.18 -3.076,-0.787 -5.544,-1.413 -7.405,-1.878 -2.253,-0.572 -3.416,-0.859 -3.487,-0.859 -0.966,0.465 -2.2,1.047 -3.703,1.744 -1.502,0.698 -2.987,1.333 -4.454,1.905 -1.824,0.716 -4.221,1.494 -7.19,2.334 -2.969,0.841 -4.954,1.261 -5.956,1.261 -0.179,0 -0.304,0 -0.375,0 -0.251,-0.035 -0.376,-0.143 -0.376,-0.322 2.039,-0.751 4.704,-1.735 7.995,-2.951 3.541,-1.323 7.119,-3.023 10.732,-5.097 2.683,-1.539 5.205,-3.291 7.566,-5.259 0.787,-0.644 1.699,-1.467 2.736,-2.468 l -7.566,0.322 c -2.074,0 -3.944,0.062 -5.607,0.187 -1.663,0.126 -2.692,0.242 -3.085,0.349 -0.072,0 -0.313,0.125 -0.725,0.376 -0.411,0.25 -0.814,0.375 -1.207,0.375 -0.644,0 -1.932,-0.42 -3.863,-1.26 -1.932,-0.841 -2.898,-1.405 -2.898,-1.691 0,-0.143 0.143,-0.232 0.429,-0.268 0.036,0 0.125,0 0.269,0 0.858,0 2.164,0.063 3.917,0.188 1.752,0.125 2.951,0.188 3.595,0.188 3.219,0 6.832,-0.09 10.839,-0.269 1.395,-0.035 3.237,-0.143 5.527,-0.322 0.25,0 0.626,-0.107 1.126,-0.322 0.501,-0.214 0.787,-0.322 0.859,-0.322 0.715,0 1.753,0.305 3.112,0.913 0.823,0.357 1.234,0.661 1.234,0.912 0,0.322 -0.268,0.626 -0.805,0.912 -0.357,0.179 -0.697,0.34 -1.019,0.483 -0.501,0.501 -0.93,0.912 -1.288,1.234 -0.93,0.859 -2.128,1.842 -3.595,2.951 -0.859,0.68 -1.95,1.413 -3.273,2.2 -0.215,0.143 -0.537,0.322 -0.966,0.537 l 6.976,1.556 c 0.25,0 0.795,-0.063 1.636,-0.188 0.841,-0.125 1.422,-0.188 1.744,-0.188 0.894,0 2.334,0.385 4.32,1.154 1.985,0.769 2.978,1.547 2.978,2.334 l -0.054,0.322 m 5.366,8.425 c 0,0.643 -0.367,1.091 -1.1,1.341 -0.734,0.25 -1.78,0.376 -3.139,0.376 l -5.366,-0.161 -13.093,0.322 -0.268,17.331 c 0,1.682 -0.215,3.175 -0.644,4.481 -0.429,1.305 -0.876,1.958 -1.341,1.958 -0.358,0 -0.653,-0.456 -0.886,-1.368 -0.232,-0.912 -0.349,-2.352 -0.349,-4.319 l -0.268,-17.922 c -2.075,0 -4.552,0.098 -7.432,0.295 -2.879,0.196 -4.945,0.456 -6.197,0.778 -0.286,0.179 -0.555,0.331 -0.805,0.456 -0.25,0.125 -0.537,0.188 -0.859,0.188 -0.894,0 -2.441,-0.43 -4.641,-1.288 -2.2,-0.859 -3.3,-1.556 -3.3,-2.093 0,-0.214 0.197,-0.322 0.59,-0.322 0.036,0 1.27,0.125 3.703,0.376 1.395,0.143 2.468,0.214 3.219,0.214 5.223,0 10.142,-0.098 14.756,-0.295 4.615,-0.196 7.951,-0.375 10.008,-0.536 2.056,-0.161 3.747,-0.313 5.07,-0.456 0.43,0 1.109,-0.135 2.039,-0.403 0.93,-0.268 1.896,-0.545 2.898,-0.832 h 0.215 c 1.86,0 3.255,0.072 4.185,0.215 2.003,0.286 3.005,0.841 3.005,1.664"
     id="path55" />
  <path
     class="Lyrics"
     d="m 1253.798,198.39399 h 13.53 v 3.465 h -13.53 v -3.465"
     id="path56" />
  <path
     class="Lyrics"
     d="m 398.148,170.40699 -0.108,2.469 -0.107,16.473 c 0,1.574 -0.206,2.906 -0.617,3.997 -0.411,1.091 -0.939,1.637 -1.583,1.637 -0.286,0 -0.554,-0.492 -0.805,-1.476 -0.25,-0.983 -0.375,-1.958 -0.375,-2.924 l -0.108,-18.298 c 0,-0.572 -0.742,-1.234 -2.226,-1.985 -1.485,-0.751 -2.996,-1.52 -4.535,-2.307 0,-0.322 0.188,-0.564 0.564,-0.725 0.375,-0.161 0.885,-0.241 1.529,-0.241 1.61,0 3.255,0.232 4.937,0.697 2.289,0.644 3.434,1.539 3.434,2.683 m -4.561,14.166 c 0,0.751 -1.968,1.789 -5.903,3.112 -3.362,1.145 -7.333,2.236 -11.912,3.273 -4.579,1.038 -7.673,1.557 -9.283,1.557 -0.644,0 -1.234,-0.403 -1.77,-1.208 -0.537,-0.805 -0.805,-1.511 -0.805,-2.119 l -0.161,-11.483 c 0,-0.465 -0.93,-0.966 -2.791,-1.503 -1.86,-0.536 -2.808,-0.912 -2.843,-1.126 0,-0.43 0.348,-0.778 1.046,-1.047 0.697,-0.268 1.493,-0.402 2.388,-0.402 h 0.268 c 1.61,0 2.772,0.071 3.488,0.214 1.431,0.287 2.146,0.841 2.146,1.664 0,0.214 -0.054,0.644 -0.161,1.288 -0.107,0.644 -0.161,1.198 -0.161,1.663 v 8.102 c 0,0.966 0.099,1.583 0.295,1.852 0.197,0.268 0.743,0.402 1.637,0.402 1.431,0 2.71,-0.062 3.836,-0.188 1.127,-0.125 2.657,-0.348 4.588,-0.67 3.47,-0.609 6.895,-1.342 10.276,-2.2 3.38,-0.859 5.214,-1.288 5.5,-1.288 l 0.322,0.107 m 5.151,14.22 c 0,0.214 -0.107,0.447 -0.322,0.697 -0.536,0.644 -0.805,1.002 -0.805,1.073 l -1.663,10.464 c 0.536,0.036 0.93,0.089 1.18,0.161 0.787,0.286 1.181,0.805 1.181,1.556 -0.072,0.25 -0.269,0.447 -0.59,0.59 -0.322,0.143 -0.877,0.215 -1.664,0.215 l -2.844,-0.161 c -1.86,0 -4.963,0.036 -9.31,0.107 -4.346,0.072 -6.662,0.107 -6.948,0.107 0,0.501 -0.126,1.056 -0.376,1.664 -0.358,0.894 -0.858,1.341 -1.502,1.341 -0.322,0 -0.582,-0.402 -0.778,-1.207 -0.197,-0.805 -0.313,-1.476 -0.349,-2.012 l -0.751,-12.342 c 0,-0.393 -0.412,-0.805 -1.235,-1.234 -1.001,-0.429 -1.985,-0.858 -2.951,-1.288 0,-0.322 0.206,-0.599 0.617,-0.831 0.412,-0.233 1.047,-0.349 1.905,-0.349 0.608,0 1.52,0.143 2.737,0.429 1.216,0.286 2.057,0.429 2.522,0.429 l 6.653,-0.053 8.317,-0.376 c 0.394,0 0.823,-0.08 1.288,-0.241 0.465,-0.161 0.948,-0.331 1.449,-0.51 0.537,0 1.377,0.197 2.522,0.59 1.145,0.394 1.717,0.787 1.717,1.181 m -4.937,0.697 -16.902,0.537 0.161,11.751 16.473,-0.429 0.268,-11.859"
     id="path57" />
  <path
     class="Lyrics"
     d="m 921.518,184.51899 c 0,0.537 -0.3,0.948 -0.91,1.235 -0.61,0.286 -1.73,0.429 -3.38,0.429 l -10.14,0.429 c -1.54,0 -3,0.036 -4.37,0.107 -1.38,0.072 -3.04,0.144 -4.97,0.215 -1.5,0 -2.54,-0.143 -3.11,-0.429 -0.89,-0.429 -1.34,-1.306 -1.34,-2.629 l -0.11,-2.844 c 0,-0.394 -0.74,-0.913 -2.23,-1.556 -1.48,-0.644 -2.22,-1.127 -2.22,-1.449 0,-0.215 0.18,-0.376 0.53,-0.483 0.36,-0.107 0.86,-0.161 1.51,-0.161 l 2.3,0.107 c 1.04,0.108 1.86,0.224 2.45,0.349 0.59,0.125 1.1,0.224 1.52,0.295 l 9.18,-0.429 c 2.04,0 4.15,-0.107 6.33,-0.322 0.72,-0.072 1.59,-0.179 2.63,-0.322 0.07,-0.322 0.14,-0.707 0.22,-1.154 0.07,-0.447 0.1,-1.028 0.1,-1.744 v -2.522 l -7.99,0.108 c -3.22,0 -6.28,0.161 -9.18,0.483 -0.53,0.035 -1.18,0.125 -1.93,0.268 -0.14,0 -0.44,0.098 -0.88,0.295 -0.45,0.197 -0.85,0.295 -1.21,0.295 -0.93,0 -2.2,-0.447 -3.81,-1.341 -0.93,-0.501 -1.4,-0.93 -1.4,-1.288 0,-0.25 0.25,-0.376 0.75,-0.376 0.11,0 0.88,0.054 2.31,0.161 1.43,0.108 2.81,0.161 4.13,0.161 1.83,0 4.08,-0.071 6.76,-0.214 6.05,-0.322 9.79,-0.483 11.22,-0.483 0.11,0 0.36,-0.072 0.75,-0.215 0.89,-0.322 1.4,-0.483 1.5,-0.483 0.43,0 1.17,0.206 2.23,0.617 1.05,0.412 1.58,0.778 1.58,1.1 0,0.251 -0.25,0.537 -0.75,0.859 -0.29,0.179 -0.45,0.34 -0.48,0.483 l -1.61,4.561 c 0.57,0.071 1,0.143 1.29,0.214 0.85,0.251 1.28,0.591 1.28,1.02 0,0.429 -0.21,0.706 -0.64,0.832 -0.43,0.125 -1,0.187 -1.72,0.187 h -1.23 c -0.14,0.036 -1.36,0.108 -3.65,0.215 -2.29,0.107 -4.38,0.161 -6.28,0.161 -2.75,0 -5.17,0.107 -7.24,0.322 -0.72,0.071 -1.56,0.197 -2.52,0.375 v 3.757 c 0,0.608 0.09,1.046 0.26,1.314 0.18,0.269 0.54,0.403 1.08,0.403 l 7.83,-0.322 7.41,-0.537 c 0.14,0 0.56,-0.179 1.26,-0.536 0.7,-0.358 1.12,-0.555 1.26,-0.591 l 2.25,-0.107 c 0.93,0 1.71,0.08 2.34,0.241 0.62,0.161 0.97,0.474 1.04,0.939 m 9.45,6.708 c 0,0.572 -0.35,0.975 -1.05,1.207 -0.7,0.233 -1.67,0.349 -2.92,0.349 l -5.53,-0.107 c -1.07,0.035 -1.97,0.071 -2.68,0.107 -5.23,0.25 -9.16,0.375 -11.81,0.375 -3.5,0 -7.14,0.197 -10.89,0.591 -1.25,0.107 -2.77,0.304 -4.56,0.59 -0.47,0.25 -0.91,0.465 -1.32,0.644 -0.41,0.179 -0.79,0.268 -1.15,0.268 -0.72,0 -2.14,-0.438 -4.27,-1.314 -2.12,-0.877 -3.19,-1.512 -3.19,-1.905 0,-0.251 0.3,-0.376 0.91,-0.376 1.43,0.143 2.92,0.277 4.46,0.402 1.53,0.126 2.75,0.188 3.65,0.188 3.22,0 6.8,-0.098 10.75,-0.295 3.96,-0.197 8.14,-0.447 12.56,-0.751 4.42,-0.304 6.68,-0.474 6.79,-0.51 0.25,-0.036 0.67,-0.179 1.26,-0.429 0.59,-0.25 1.22,-0.537 1.9,-0.859 2.51,0 4.31,0.152 5.42,0.456 1.11,0.305 1.67,0.761 1.67,1.369 m -7.35,21.088 c 0,0.643 -0.26,1.073 -0.78,1.287 -0.52,0.215 -1.25,0.322 -2.18,0.322 h -1.82 c -0.11,0.036 -1.54,0.099 -4.29,0.188 -2.76,0.09 -4.76,0.134 -6.01,0.134 -2.4,0 -4.76,0.054 -7.09,0.161 -0.42,0 -0.98,0.036 -1.66,0.108 l -1.23,0.053 c -1.36,0 -2.4,-0.232 -3.12,-0.697 -0.89,-0.573 -1.34,-1.485 -1.34,-2.737 l -0.16,-2.844 c 0,-0.501 -0.63,-0.966 -1.9,-1.395 -1.27,-0.429 -1.91,-0.769 -1.91,-1.019 0,-0.287 0.26,-0.474 0.78,-0.564 0.52,-0.089 1.01,-0.134 1.48,-0.134 l 1.61,0.054 c 0.71,0 1.36,0.071 1.93,0.214 0.57,0.143 1.16,0.286 1.77,0.43 1.07,-0.108 1.97,-0.179 2.68,-0.215 2.22,-0.143 4.4,-0.215 6.55,-0.215 l 8.85,-0.644 0.22,-2.897 -0.11,-2.468 -7.84,0.429 c -2.64,0 -5.04,0.161 -7.19,0.483 -0.71,0.107 -1.52,0.268 -2.41,0.483 -0.14,0 -0.46,0.134 -0.94,0.402 -0.48,0.268 -0.9,0.403 -1.26,0.403 -0.86,0 -2.18,-0.466 -3.97,-1.396 -1,-0.536 -1.5,-0.948 -1.5,-1.234 0,-0.214 0.26,-0.322 0.8,-0.322 h 0.22 c 0.25,0 0.93,0.036 2.04,0.108 1.1,0.071 2.05,0.107 2.84,0.107 h 0.43 c 3.75,0 7.81,-0.197 12.18,-0.59 1.43,-0.108 3.24,-0.304 5.42,-0.591 0.43,-0.107 0.82,-0.214 1.18,-0.321 0.36,-0.108 0.62,-0.161 0.8,-0.161 0.5,0 1.26,0.178 2.26,0.536 1,0.358 1.5,0.716 1.5,1.073 0,0.251 -0.15,0.492 -0.46,0.725 -0.3,0.232 -0.47,0.42 -0.51,0.563 l -0.53,2.093 -0.81,2.253 c 0.43,0.036 0.84,0.099 1.24,0.188 0.39,0.09 0.59,0.313 0.59,0.671 0,0.465 -0.24,0.778 -0.73,0.939 -0.48,0.161 -0.99,0.241 -1.53,0.241 -0.14,0 -1.97,0.081 -5.5,0.242 -3.52,0.161 -6.83,0.313 -9.92,0.456 -3.1,0.143 -4.66,0.215 -4.7,0.215 v 4.078 c 0,0.93 0.61,1.395 1.83,1.395 l 7.56,-0.268 c 1.36,0 2.73,-0.045 4.11,-0.135 1.37,-0.089 2.62,-0.187 3.73,-0.295 0.17,0 0.84,-0.214 1.98,-0.644 1.15,-0.429 2.17,-0.644 3.06,-0.644 1.04,0 1.92,0.108 2.66,0.322 0.73,0.215 1.1,0.573 1.1,1.074"
     id="path58" />
  <path
     class="Lyrics"
     d="m 1341.898,184.41199 c -0.15,0.465 -0.63,0.698 -1.45,0.698 -0.75,0 -1.83,-0.197 -3.22,-0.591 -1.4,-0.393 -2.74,-0.787 -4.03,-1.18 -3.07,-0.787 -5.54,-1.413 -7.4,-1.878 -2.25,-0.572 -3.42,-0.859 -3.49,-0.859 -0.96,0.465 -2.2,1.047 -3.7,1.744 -1.5,0.698 -2.99,1.333 -4.46,1.905 -1.82,0.716 -4.22,1.494 -7.19,2.334 -2.96,0.841 -4.95,1.261 -5.95,1.261 -0.18,0 -0.31,0 -0.38,0 -0.25,-0.035 -0.37,-0.143 -0.37,-0.322 2.04,-0.751 4.7,-1.735 7.99,-2.951 3.54,-1.323 7.12,-3.023 10.73,-5.097 2.69,-1.539 5.21,-3.291 7.57,-5.259 0.79,-0.644 1.7,-1.467 2.74,-2.468 l -7.57,0.322 c -2.07,0 -3.94,0.062 -5.61,0.187 -1.66,0.126 -2.69,0.242 -3.08,0.349 -0.07,0 -0.31,0.125 -0.73,0.376 -0.41,0.25 -0.81,0.375 -1.2,0.375 -0.65,0 -1.94,-0.42 -3.87,-1.26 -1.93,-0.841 -2.89,-1.405 -2.89,-1.691 0,-0.143 0.14,-0.232 0.42,-0.268 0.04,0 0.13,0 0.27,0 0.86,0 2.17,0.063 3.92,0.188 1.75,0.125 2.95,0.188 3.6,0.188 3.21,0 6.83,-0.09 10.83,-0.269 1.4,-0.035 3.24,-0.143 5.53,-0.322 0.25,0 0.63,-0.107 1.13,-0.322 0.5,-0.214 0.78,-0.322 0.86,-0.322 0.71,0 1.75,0.305 3.11,0.913 0.82,0.357 1.23,0.661 1.23,0.912 0,0.322 -0.27,0.626 -0.8,0.912 -0.36,0.179 -0.7,0.34 -1.02,0.483 -0.5,0.501 -0.93,0.912 -1.29,1.234 -0.93,0.859 -2.13,1.842 -3.59,2.951 -0.86,0.68 -1.95,1.413 -3.28,2.2 -0.21,0.143 -0.53,0.322 -0.96,0.537 l 6.97,1.556 c 0.25,0 0.8,-0.063 1.64,-0.188 0.84,-0.125 1.42,-0.188 1.74,-0.188 0.9,0 2.34,0.385 4.32,1.154 1.99,0.769 2.98,1.547 2.98,2.334 l -0.05,0.322 m 5.36,8.425 c 0,0.643 -0.36,1.091 -1.1,1.341 -0.73,0.25 -1.78,0.376 -3.14,0.376 l -5.36,-0.161 -13.1,0.322 -0.26,17.331 c 0,1.682 -0.22,3.175 -0.65,4.481 -0.43,1.305 -0.87,1.958 -1.34,1.958 -0.36,0 -0.65,-0.456 -0.88,-1.368 -0.24,-0.912 -0.35,-2.352 -0.35,-4.319 l -0.27,-17.922 c -2.08,0 -4.55,0.098 -7.43,0.295 -2.88,0.196 -4.95,0.456 -6.2,0.778 -0.29,0.179 -0.56,0.331 -0.81,0.456 -0.25,0.125 -0.53,0.188 -0.85,0.188 -0.9,0 -2.45,-0.43 -4.65,-1.288 -2.2,-0.859 -3.3,-1.556 -3.3,-2.093 0,-0.214 0.2,-0.322 0.59,-0.322 0.04,0 1.27,0.125 3.71,0.376 1.39,0.143 2.47,0.214 3.22,0.214 5.22,0 10.14,-0.098 14.75,-0.295 4.62,-0.196 7.95,-0.375 10.01,-0.536 2.06,-0.161 3.75,-0.313 5.07,-0.456 0.43,0 1.11,-0.135 2.04,-0.403 0.93,-0.268 1.9,-0.545 2.9,-0.832 h 0.21 c 1.86,0 3.26,0.072 4.19,0.215 2,0.286 3,0.841 3,1.664"
     id="path59" />
  <path
     class="Lyrics"
     d="m 538.073,190.85099 c 0,-1.502 -0.536,-2.808 -1.609,-3.917 -1.431,-1.467 -2.665,-2.2 -3.703,-2.2 -0.25,0.394 -1.788,1.02 -4.614,1.878 -2.361,0.716 -3.542,2.218 -3.542,4.507 0,1.61 0.671,2.934 2.012,3.971 1.342,1.038 2.871,1.556 4.588,1.556 2.075,0 3.738,-0.474 4.99,-1.422 1.252,-0.948 1.878,-2.298 1.878,-4.051 v -0.322 m 15.025,-18.673 -0.161,38.205 c 0,2.361 -0.197,4.275 -0.59,5.741 -0.394,1.467 -0.966,2.2 -1.718,2.2 -0.429,0 -0.706,-0.357 -0.831,-1.073 -0.125,-0.715 -0.188,-1.735 -0.188,-3.058 l -0.107,-13.844 -10.41,2.897 c -1.503,0.394 -3.649,0.859 -6.439,1.395 -1.145,0.215 -3.309,0.609 -6.493,1.181 -1.001,0.179 -2.003,0.358 -3.005,0.536 -0.858,0.287 -1.699,0.573 -2.522,0.859 -0.751,0 -2.235,-0.563 -4.453,-1.69 -2.218,-1.127 -3.327,-1.905 -3.327,-2.334 0,-0.251 0.143,-0.376 0.429,-0.376 1.073,0.179 2.209,0.349 3.407,0.51 1.199,0.161 2.352,0.241 3.461,0.241 2.218,0 4.311,-0.107 6.278,-0.322 1.968,-0.214 5.903,-0.805 11.805,-1.77 3.077,-0.501 5.831,-1.074 8.264,-1.718 0.822,-0.214 1.806,-0.5 2.951,-0.858 v -27.366 c 0,-0.536 -0.948,-1.252 -2.844,-2.146 -1.896,-0.895 -2.844,-1.503 -2.844,-1.825 0,-0.322 0.134,-0.527 0.403,-0.617 0.268,-0.089 0.617,-0.134 1.046,-0.134 0.751,0 1.806,0.152 3.166,0.456 1.359,0.304 2.388,0.537 3.085,0.698 0.698,0.161 1.181,0.375 1.449,0.644 0.268,0.268 0.402,0.653 0.402,1.153 0,0.179 -0.035,0.537 -0.107,1.074 -0.072,0.536 -0.107,0.983 -0.107,1.341 m -12.181,19.049 v 0.214 c 0,2.361 -0.867,4.248 -2.602,5.661 -1.735,1.413 -4.069,2.12 -7.003,2.12 -2.468,0 -4.704,-0.716 -6.707,-2.146 -2.254,-1.61 -3.38,-3.613 -3.38,-6.01 0,-2.934 1.359,-5.044 4.078,-6.332 1.43,-0.393 2.861,-0.805 4.292,-1.234 0.143,-0.143 0.304,-0.25 0.483,-0.322 0.143,-0.072 0.215,-0.161 0.215,-0.268 0,-0.143 -0.054,-0.358 -0.161,-0.644 -0.107,-0.286 -0.161,-0.465 -0.161,-0.537 0,-0.214 0.179,-0.322 0.536,-0.322 0.537,0 1.047,0.17 1.53,0.51 0.483,0.34 0.724,0.778 0.724,1.315 1.825,0.536 3.184,1.055 4.078,1.556 2.719,1.574 4.078,3.72 4.078,6.439 m 4.883,-12.556 c -0.107,0.465 -0.465,0.796 -1.073,0.992 -0.608,0.197 -1.467,0.295 -2.576,0.295 l -2.146,-0.053 -6.922,0.268 -8.693,0.805 c -0.787,0.215 -1.556,0.429 -2.307,0.644 -0.93,0 -2.271,-0.465 -4.024,-1.395 -1.002,-0.537 -1.503,-0.966 -1.503,-1.288 0,-0.25 0.233,-0.376 0.698,-0.376 0.751,0 1.896,0.072 3.434,0.215 1.538,0.143 2.683,0.215 3.434,0.215 1.359,0 2.611,-0.027 3.756,-0.081 1.145,-0.054 2.522,-0.134 4.132,-0.241 l 5.741,-0.537 c 0.322,-0.036 0.805,-0.232 1.449,-0.59 0.644,-0.358 1.36,-0.537 2.147,-0.537 1.609,0 2.754,0.117 3.434,0.349 0.679,0.233 1.019,0.599 1.019,1.1 v 0.215 m -9.658,-4.4 c -0.93,0 -2.317,0.062 -4.159,0.187 -1.842,0.126 -2.853,0.188 -3.032,0.188 -0.751,0 -1.752,-0.411 -3.004,-1.234 -1.253,-0.823 -1.879,-1.431 -1.879,-1.824 0,-0.251 0.197,-0.376 0.591,-0.376 0.143,0 0.733,0.107 1.77,0.322 0.501,0.107 0.931,0.161 1.288,0.161 l 7.888,-0.161 c 0.859,0.215 1.467,0.447 1.824,0.698 0.358,0.25 0.537,0.518 0.537,0.805 0,0.321 -0.179,0.608 -0.537,0.858 -0.357,0.25 -0.787,0.376 -1.287,0.376"
     id="path60" />
  <path
     class="Lyrics"
     d="m 852.668,192.03199 c -0.143,0.572 -0.608,0.957 -1.395,1.153 -0.787,0.197 -1.878,0.295 -3.274,0.295 h -6.224 c -1.896,0 -4.579,0.072 -8.049,0.215 -3.47,0.143 -5.58,0.215 -6.331,0.215 l -1.235,-0.054 c -2.11,0 -3.613,-0.34 -4.507,-1.019 -1.037,-0.787 -1.556,-2.2 -1.556,-4.239 l -0.322,-10.303 c 0,-0.608 -0.867,-1.216 -2.602,-1.824 -1.735,-0.608 -2.603,-1.073 -2.603,-1.395 0.036,-0.322 0.26,-0.546 0.671,-0.671 0.411,-0.125 0.993,-0.188 1.744,-0.188 l 1.61,0.054 c 1.323,0 2.432,0.116 3.326,0.348 0.895,0.233 1.807,0.474 2.737,0.725 1.252,0 4.069,-0.09 8.451,-0.268 4.382,-0.179 6.699,-0.322 6.949,-0.43 0.93,0 1.753,-0.161 2.468,-0.483 0.716,-0.322 1.449,-0.679 2.2,-1.073 l 2.791,-0.161 c 1.144,0 2.03,0.125 2.656,0.376 0.626,0.25 0.939,0.769 0.939,1.556 -0.072,0.644 -0.662,1.055 -1.771,1.234 -1.109,0.179 -2.558,0.268 -4.346,0.268 l -10.893,0.483 -10.678,0.322 -0.054,11.483 c 0,1.324 0.188,2.236 0.564,2.737 0.375,0.501 1.189,0.751 2.441,0.751 3.935,0 7.208,-0.054 9.82,-0.161 2.611,-0.107 4.274,-0.25 4.99,-0.429 0.608,0 2.003,-0.412 4.185,-1.234 1.038,-0.394 2.003,-0.591 2.898,-0.591 1.431,0 2.522,0.17 3.273,0.51 0.751,0.34 1.127,0.939 1.127,1.798 m 7.08,15.4 c 0,1.144 -1.09,1.717 -3.27,1.717 -1.253,0 -3.131,-0.072 -5.635,-0.215 -2.504,-0.143 -4.4,-0.215 -5.687,-0.215 l -10.518,0.215 c -2.682,0 -5.652,0.143 -8.907,0.429 -1.109,0.072 -2.54,0.233 -4.293,0.483 -0.608,0 -1.252,0.197 -1.931,0.591 -0.68,0.393 -1.216,0.59 -1.61,0.59 -0.823,0 -2.343,-0.483 -4.561,-1.449 -2.218,-0.966 -3.327,-1.735 -3.327,-2.307 0.143,-0.322 0.537,-0.483 1.181,-0.483 1.466,0.179 2.978,0.349 4.534,0.51 1.556,0.16 2.96,0.241 4.212,0.241 2.039,0 4.257,-0.036 6.654,-0.107 2.396,-0.072 4.614,-0.143 6.653,-0.215 l -0.214,-8.371 c 0,-0.572 -0.573,-1.109 -1.717,-1.609 -1.145,-0.501 -1.717,-0.859 -1.717,-1.074 0.035,-0.25 0.223,-0.438 0.563,-0.563 0.34,-0.125 0.796,-0.188 1.368,-0.188 1.825,0 3.166,0.152 4.025,0.456 0.858,0.304 1.287,0.76 1.287,1.369 0,0.178 -0.035,0.536 -0.107,1.073 -0.071,0.536 -0.107,1.001 -0.107,1.395 v 7.297 c 1.145,0 2.486,-0.053 4.024,-0.161 3.613,-0.25 5.867,-0.375 6.761,-0.375 0.68,-0.072 1.601,-0.34 2.764,-0.805 1.162,-0.465 1.922,-0.698 2.28,-0.698 2.433,0 4.257,0.224 5.473,0.671 1.212,0.447 1.822,1.046 1.822,1.798"
     id="path61" />
  <path
     class="Lyrics"
     d="m 1435.348,191.87099 c -0.11,0.214 -0.34,0.322 -0.7,0.322 -0.86,0 -3.13,-0.913 -6.82,-2.737 -2.47,-1.216 -5.72,-2.933 -9.76,-5.151 -1.68,-0.93 -3.35,-1.86 -4.99,-2.79 -0.4,0.429 -0.74,0.804 -1.02,1.126 -1.76,1.789 -3.94,3.649 -6.55,5.581 -2.25,1.681 -4.77,3.255 -7.54,4.722 -2.77,1.467 -4.55,2.2 -5.34,2.2 l -0.32,-0.215 c 0,-0.143 1.32,-1.037 3.97,-2.683 1.86,-1.144 3.83,-2.575 5.9,-4.292 2.58,-2.111 4.9,-4.383 6.98,-6.815 3,-3.506 4.51,-5.616 4.51,-6.332 0,-0.429 -0.52,-1.037 -1.56,-1.824 -1.22,-0.823 -2.41,-1.664 -3.59,-2.522 0,-0.215 0.26,-0.367 0.77,-0.456 0.52,-0.09 0.93,-0.134 1.21,-0.134 1.18,0 2.76,0.393 4.72,1.18 2.29,0.93 3.44,1.842 3.44,2.737 0,0.322 -0.09,0.644 -0.27,0.966 -0.04,0.071 -0.25,0.375 -0.64,0.912 l -3.49,4.561 3.81,1.878 4.29,1.824 c 0.29,0.143 1.05,0.251 2.28,0.322 1.23,0.072 1.96,0.161 2.17,0.268 2.44,1.217 4.33,2.272 5.69,3.166 2.04,1.36 3.06,2.522 3.06,3.488 0,0.179 -0.07,0.412 -0.21,0.698 m 4.34,14.38 c 0,0.716 -0.35,1.207 -1.04,1.476 -0.7,0.268 -1.66,0.402 -2.88,0.402 l -7.51,-0.214 c -1.71,0 -4.17,0.044 -7.35,0.134 -3.18,0.089 -5.01,0.134 -5.47,0.134 -3.47,0 -6.69,0.107 -9.66,0.322 -2.97,0.214 -4.7,0.393 -5.21,0.536 -0.1,0 -0.62,0.233 -1.55,0.698 -0.5,0.25 -0.91,0.376 -1.24,0.376 -0.64,0 -1.97,-0.51 -3.99,-1.53 -2.02,-1.019 -3.04,-1.726 -3.04,-2.119 0,-0.286 0.27,-0.429 0.81,-0.429 1.22,0.143 2.47,0.259 3.76,0.348 1.28,0.09 2.63,0.134 4.02,0.134 l 3.65,0.054 c 2.11,0 4.06,-0.018 5.85,-0.054 1.79,-0.035 3.36,-0.089 4.72,-0.161 l -0.16,-9.014 c 0,-0.322 -0.75,-0.769 -2.25,-1.342 -1.51,-0.572 -2.26,-0.965 -2.26,-1.18 0,-0.286 0.23,-0.51 0.67,-0.671 0.45,-0.161 0.83,-0.241 1.16,-0.241 h 1.07 c 1.5,0 2.83,0.116 3.97,0.348 1.14,0.233 1.72,0.689 1.72,1.369 l -0.16,1.449 -0.17,9.175 11.06,-0.644 c 0.5,0 1.06,-0.152 1.69,-0.456 0.62,-0.304 1.26,-0.635 1.9,-0.993 2.11,0 3.96,0.161 5.53,0.483 1.57,0.322 2.36,0.859 2.36,1.61"
     id="path62" />
  <path
     class="Lyrics"
     d="m 737.184,171.53399 -0.375,37.937 c 0,2.182 -0.17,4.024 -0.51,5.527 -0.34,1.502 -0.832,2.253 -1.476,2.253 -0.536,0 -0.894,-0.51 -1.073,-1.529 -0.179,-1.02 -0.268,-2.191 -0.268,-3.515 l -0.108,-40.619 c 0,-0.537 -1.064,-1.27 -3.192,-2.2 -2.129,-0.93 -3.193,-1.521 -3.193,-1.771 0,-0.25 0.179,-0.474 0.537,-0.671 0.357,-0.196 0.822,-0.295 1.395,-0.295 0.644,0 1.94,0.251 3.89,0.751 1.95,0.501 3.202,0.886 3.756,1.154 0.555,0.268 0.832,0.707 0.832,1.315 0,0.179 -0.036,0.465 -0.108,0.858 -0.071,0.394 -0.107,0.662 -0.107,0.805 m -14.058,6.278 c 0.536,0.251 0.805,0.537 0.805,0.859 0,0.25 -0.17,0.554 -0.51,0.912 -0.34,0.358 -0.635,0.68 -0.886,0.966 -0.322,0.715 -0.626,1.431 -0.912,2.146 -0.894,1.824 -1.914,3.613 -3.058,5.366 -1.574,2.397 -3.452,4.74 -5.634,7.029 -2.97,3.184 -6.055,6.037 -9.257,8.559 -3.201,2.522 -5.267,3.783 -6.197,3.783 -0.251,-0.143 -0.376,-0.251 -0.376,-0.322 1.324,-1.109 3.077,-2.647 5.259,-4.615 2.361,-2.11 4.74,-4.579 7.136,-7.405 2.254,-2.647 4.204,-5.366 5.849,-8.156 1.109,-1.896 2.039,-3.792 2.79,-5.688 0.072,-0.214 0.322,-0.948 0.752,-2.2 l -12.127,0.322 c -0.179,0 -0.734,0.233 -1.664,0.698 -0.5,0.25 -0.894,0.375 -1.18,0.375 -0.501,0 -1.565,-0.42 -3.193,-1.261 -1.627,-0.84 -2.441,-1.457 -2.441,-1.851 0,-0.25 0.161,-0.375 0.483,-0.375 0.93,0.143 1.896,0.259 2.897,0.348 1.002,0.09 2.057,0.135 3.166,0.135 l 4.239,0.053 8.8,-0.268 c 0.215,0 0.555,-0.125 1.02,-0.376 0.465,-0.25 0.787,-0.375 0.965,-0.375 0.287,0 0.805,0.161 1.557,0.483 0.393,0.178 0.965,0.465 1.717,0.858"
     id="path63" />
  <path
     class="Lyrics"
     d="m 309.802,198.39399 h 13.53 v 3.465 h -13.53 v -3.465"
     id="path64" />
  <path
     class="Lyrics"
     d="m 1543.848,200.77799 -0.38,0.107 c -0.86,0 -2.93,-2.092 -6.22,-6.278 -3.29,-4.185 -4.96,-6.278 -4.99,-6.278 -0.65,0.895 -1.2,1.628 -1.66,2.2 -1.44,1.789 -3.04,3.515 -4.81,5.178 -1.77,1.664 -3.49,3.121 -5.18,4.373 -1.93,1.467 -3.2,2.2 -3.8,2.2 l -0.27,-0.214 c 0,-0.143 1.16,-1.324 3.48,-3.542 1.58,-1.502 3.17,-3.166 4.78,-4.99 1.75,-2.003 3.42,-4.418 4.99,-7.244 2.29,-4.114 3.43,-6.6 3.43,-7.458 0,-0.465 -0.85,-1.234 -2.57,-2.308 -1.72,-1.073 -2.58,-1.717 -2.58,-1.931 0,-0.251 0.19,-0.43 0.57,-0.537 0.37,-0.107 0.69,-0.161 0.94,-0.161 0.96,0 2.56,0.519 4.8,1.556 2.23,1.038 3.35,1.932 3.35,2.683 0,0.251 -0.07,0.555 -0.21,0.912 -0.04,0.108 -0.11,0.269 -0.22,0.483 0,0.501 -0.68,1.896 -2.04,4.186 -0.43,0.751 -1.12,1.86 -2.09,3.326 l 2.42,2.63 c 0.68,0.751 1.75,1.592 3.22,2.522 0.71,0.465 1.44,0.912 2.2,1.341 1,1.181 1.77,2.2 2.3,3.059 0.75,1.216 1.13,2.218 1.13,3.005 0,0.536 -0.2,0.93 -0.59,1.18 m 14.54,-29.351 -0.32,39.492 c 0,1.932 -0.07,3.399 -0.22,4.4 -0.28,2.111 -0.84,3.166 -1.66,3.166 -0.36,0 -0.63,-0.635 -0.83,-1.905 -0.2,-1.269 -0.3,-2.548 -0.3,-3.836 l -0.43,-24.951 -6.54,0.59 c -0.11,0 -0.4,0.116 -0.89,0.349 -0.48,0.232 -0.88,0.348 -1.2,0.348 -0.54,0 -1.51,-0.313 -2.9,-0.939 -1.4,-0.626 -2.09,-1.1 -2.09,-1.422 0,-0.214 0.23,-0.321 0.69,-0.321 l 3.76,0.107 c 1.25,0 2.38,-0.036 3.38,-0.107 3.54,-0.251 5.44,-0.376 5.69,-0.376 l 0.05,-14.273 c 0,-0.43 -0.71,-0.993 -2.15,-1.691 -1.43,-0.697 -2.88,-1.421 -4.34,-2.173 0,-0.322 0.27,-0.581 0.8,-0.778 0.54,-0.196 1,-0.295 1.4,-0.295 h 0.27 c 1.53,0.286 3.07,0.555 4.61,0.805 2.22,0.572 3.33,1.359 3.33,2.361 l -0.11,1.449"
     id="path65" />
  <path
     class="Lyrics"
     d="m 607.819,185.02699 v 0.322 c 0,2.432 -0.992,4.552 -2.978,6.358 -1.985,1.807 -4.57,2.71 -7.753,2.71 -2.969,0 -5.563,-0.751 -7.781,-2.254 -2.575,-1.752 -3.863,-4.042 -3.863,-6.868 0,-3.47 1.627,-6.099 4.883,-7.888 1.073,-0.572 2.7,-1.127 4.883,-1.663 0.178,-0.179 0.268,-0.394 0.268,-0.644 0,-0.179 -0.054,-0.411 -0.161,-0.698 -0.107,-0.286 -0.161,-0.465 -0.161,-0.536 l 0.376,-0.215 c 0.572,0 1.153,0.215 1.743,0.644 0.591,0.429 0.886,0.912 0.886,1.449 2.146,0.572 3.756,1.145 4.829,1.717 3.22,1.789 4.829,4.31 4.829,7.566 m 12.556,-12.664 -0.214,34.02 c 0,3.935 -0.188,6.949 -0.564,9.041 -0.375,2.093 -0.921,3.139 -1.636,3.139 -0.573,0 -0.921,-0.867 -1.047,-2.602 -0.125,-1.735 -0.187,-3.193 -0.187,-4.373 l -0.054,-39.386 c 0,-0.429 -0.975,-1.082 -2.924,-1.958 -1.95,-0.877 -2.925,-1.404 -2.925,-1.583 0,-0.322 0.277,-0.563 0.832,-0.724 0.554,-0.161 1.028,-0.242 1.422,-0.242 1.359,0 2.808,0.233 4.346,0.698 2.075,0.644 3.112,1.448 3.112,2.414 l -0.161,1.556 m -1.663,24.683 c 0,0.465 -1.592,1.181 -4.776,2.147 -2.253,0.679 -4.203,1.252 -5.848,1.717 -2.576,0.715 -5.438,1.377 -8.586,1.985 -2.325,0.465 -4.686,0.876 -7.083,1.234 -1.037,0.143 -2.057,0.286 -3.058,0.429 -0.894,0.322 -1.771,0.627 -2.629,0.913 -0.644,0 -1.959,-0.483 -3.944,-1.449 -1.986,-0.966 -2.978,-1.681 -2.978,-2.146 0,-0.251 0.196,-0.376 0.59,-0.376 0.143,0 0.751,0.054 1.824,0.161 1.073,0.107 2.075,0.161 3.005,0.161 3.148,0 6.153,-0.17 9.015,-0.51 2.862,-0.34 6.26,-0.867 10.195,-1.583 2.289,-0.429 5.348,-1.055 9.175,-1.878 2.791,-0.608 4.4,-0.912 4.83,-0.912 l 0.268,0.107 m -20.873,-19.853 c -0.072,0.286 -1.556,0.983 -4.454,2.092 -2.897,1.109 -4.346,3.166 -4.346,6.171 0,1.86 0.894,3.398 2.683,4.615 1.574,1.073 3.327,1.609 5.258,1.609 2.576,0 4.615,-0.769 6.117,-2.307 1.217,-1.252 1.825,-2.629 1.825,-4.132 0,-2.539 -1.181,-4.65 -3.542,-6.331 -0.787,-0.537 -1.967,-1.109 -3.541,-1.717"
     id="path66" />
  <path
     class="NoteDot"
     d="m 742.228,100.02899 c 0,2.8 2.2,5 5,5 2.8,0 5,-2.2 5,-5 0,-2.799996 -2.2,-4.999996 -5,-4.999996 -2.8,0 -5,2.2 -5,4.999996"
     id="path67" />
  <path
     class="NoteDot"
     d="m 1562.498,100.02899 c 0,2.8 2.2,5 5,5 2.8,0 5,-2.2 5,-5 0,-2.799996 -2.2,-4.999996 -5,-4.999996 -2.8,0 -5,2.2 -5,4.999996"
     id="path68" />
</svg>
