<?xml version="1.0" encoding="UTF-8" standalone="no"?>
<svg
   width="2098.8px"
   height="1418.4px"
   viewBox="0 0 2098.8 1418.4"
   version="1.2"
   id="svg121"
   sodipodi:docname="복음환호송-1.svg"
   inkscape:version="1.3.2 (091e20e, 2023-11-25)"
   xmlns:inkscape="http://www.inkscape.org/namespaces/inkscape"
   xmlns:sodipodi="http://sodipodi.sourceforge.net/DTD/sodipodi-0.dtd"
   xmlns="http://www.w3.org/2000/svg"
   xmlns:svg="http://www.w3.org/2000/svg">
  <defs
     id="defs121" />
  <sodipodi:namedview
     id="namedview121"
     pagecolor="#ffffff"
     bordercolor="#000000"
     borderopacity="0.25"
     inkscape:showpageshadow="2"
     inkscape:pageopacity="0.0"
     inkscape:pagecheckerboard="0"
     inkscape:deskcolor="#d1d1d1"
     inkscape:zoom="0.16638466"
     inkscape:cx="1048.7746"
     inkscape:cy="709.20001"
     inkscape:window-width="1312"
     inkscape:window-height="449"
     inkscape:window-x="0"
     inkscape:window-y="25"
     inkscape:window-maximized="0"
     inkscape:current-layer="svg121" />
  <title
     id="title1">3 알렐루야.musicxml (1)</title>
  <desc
     id="desc1">Generated by MuseScore 4.2.1</desc>
  <polyline
     class="StaffLines"
     fill="none"
     stroke="#000000"
     stroke-width="2.73"
     stroke-linejoin="bevel"
     points="336.598,562 1886.6,562"
     id="polyline1"
     transform="translate(0,-86)" />
  <polyline
     class="StaffLines"
     fill="none"
     stroke="#000000"
     stroke-width="2.73"
     stroke-linejoin="bevel"
     points="336.598,586.8 1886.6,586.8"
     id="polyline2"
     transform="translate(0,-86)" />
  <polyline
     class="StaffLines"
     fill="none"
     stroke="#000000"
     stroke-width="2.73"
     stroke-linejoin="bevel"
     points="336.598,611.6 1886.6,611.6"
     id="polyline3"
     transform="translate(0,-86)" />
  <polyline
     class="StaffLines"
     fill="none"
     stroke="#000000"
     stroke-width="2.73"
     stroke-linejoin="bevel"
     points="336.598,636.4 1886.6,636.4"
     id="polyline4"
     transform="translate(0,-86)" />
  <polyline
     class="StaffLines"
     fill="none"
     stroke="#000000"
     stroke-width="2.73"
     stroke-linejoin="bevel"
     points="336.598,661.2 1886.6,661.2"
     id="polyline5"
     transform="translate(0,-86)" />
  <polyline
     class="StaffLines"
     fill="none"
     stroke="#000000"
     stroke-width="2.73"
     stroke-linejoin="bevel"
     points="212.598,1005.2 1886.6,1005.2"
     id="polyline6"
     transform="translate(0,-86)" />
  <polyline
     class="StaffLines"
     fill="none"
     stroke="#000000"
     stroke-width="2.73"
     stroke-linejoin="bevel"
     points="212.598,1030 1886.6,1030"
     id="polyline7"
     transform="translate(0,-86)" />
  <polyline
     class="StaffLines"
     fill="none"
     stroke="#000000"
     stroke-width="2.73"
     stroke-linejoin="bevel"
     points="212.598,1054.8 1886.6,1054.8"
     id="polyline8"
     transform="translate(0,-86)" />
  <polyline
     class="StaffLines"
     fill="none"
     stroke="#000000"
     stroke-width="2.73"
     stroke-linejoin="bevel"
     points="212.598,1079.6 1886.6,1079.6"
     id="polyline9"
     transform="translate(0,-86)" />
  <polyline
     class="StaffLines"
     fill="none"
     stroke="#000000"
     stroke-width="2.73"
     stroke-linejoin="bevel"
     points="212.598,1104.4 1886.6,1104.4"
     id="polyline10"
     transform="translate(0,-86)" />
  <path
     class="MeasureNumber"
     d="m 233.391,841.28 h -2.16 l -18.64,19.28 v 1.68 h 11.28 l -0.64,2.44 c -0.8,3.04 -0.8,3.04 -4.28,3.04 h -0.72 l -0.24,1.88 h 12.44 l 0.2,-1.88 h -0.72 c -2.64,0 -3.2,-0.2 -3.2,-1.08 0,-0.32 0.08,-0.72 0.4,-1.96 l 0.68,-2.44 h 4.56 l 0.6,-2.16 h -4.6 l 5.04,-18.8 m -8.92,18.8 h -8.96 l 12.36,-12.72 -3.4,12.72"
     id="path10" />
  <polyline
     class="BarLine"
     fill="none"
     stroke="#000000"
     stroke-width="4.46"
     stroke-linejoin="bevel"
     points="1884.37,1003.84 1884.37,1105.76"
     id="polyline11"
     transform="translate(0,-86)" />
  <polyline
     class="BarLine"
     fill="none"
     stroke="#000000"
     stroke-width="4.46"
     stroke-linejoin="bevel"
     points="1884.37,560.636 1884.37,662.564"
     id="polyline12"
     transform="translate(0,-86)" />
  <polyline
     class="BarLine"
     fill="none"
     stroke="#000000"
     stroke-width="4.46"
     stroke-linejoin="bevel"
     points="998.613,1003.84 998.613,1105.76"
     id="polyline13"
     transform="translate(0,-86)" />
  <polyline
     class="BarLine"
     fill="none"
     stroke="#000000"
     stroke-width="4.46"
     stroke-linejoin="bevel"
     points="1289.24,560.636 1289.24,662.564"
     id="polyline14"
     transform="translate(0,-86)" />
  <polyline
     class="BarLine"
     fill="none"
     stroke="#000000"
     stroke-width="4.46"
     stroke-linejoin="bevel"
     points="1407.1,1003.84 1407.1,1105.76"
     id="polyline15"
     transform="translate(0,-86)" />
  <polyline
     class="BarLine"
     fill="none"
     stroke="#000000"
     stroke-width="4.46"
     stroke-linejoin="bevel"
     points="789.525,560.636 789.525,662.564"
     id="polyline16"
     transform="translate(0,-86)" />
  <polyline
     class="LedgerLine"
     fill="none"
     stroke="#000000"
     stroke-width="3.97"
     stroke-linejoin="bevel"
     points="618.063,686 666.663,686"
     id="polyline17"
     transform="translate(0,-86)" />
  <polyline
     class="LedgerLine"
     fill="none"
     stroke="#000000"
     stroke-width="3.97"
     stroke-linejoin="bevel"
     points="1243.44,1129.2 1292.04,1129.2"
     id="polyline18"
     transform="translate(0,-86)" />
  <polyline
     class="Stem"
     fill="none"
     stroke="#000000"
     stroke-width="2.48"
     stroke-linejoin="bevel"
     points="854.989,657.232 854.989,574.4"
     id="polyline19"
     transform="translate(0,-86)" />
  <polyline
     class="Stem"
     fill="none"
     stroke="#000000"
     stroke-width="2.48"
     stroke-linejoin="bevel"
     points="1515.75,620.032 1515.75,545.477"
     id="polyline20"
     transform="translate(0,-86)" />
  <polyline
     class="Stem"
     fill="none"
     stroke="#000000"
     stroke-width="2.48"
     stroke-linejoin="bevel"
     points="691.141,1046.57 691.141,1135.4"
     id="polyline21"
     transform="translate(0,-86)" />
  <polyline
     class="Stem"
     fill="none"
     stroke="#000000"
     stroke-width="2.48"
     stroke-linejoin="bevel"
     points="1472.56,1100.43 1472.56,1017.6"
     id="polyline22"
     transform="translate(0,-86)" />
  <polyline
     class="Stem"
     fill="none"
     stroke="#000000"
     stroke-width="2.48"
     stroke-linejoin="bevel"
     points="1036.17,657.232 1036.17,574.4"
     id="polyline23"
     transform="translate(0,-86)" />
  <polyline
     class="Stem"
     fill="none"
     stroke="#000000"
     stroke-width="2.48"
     stroke-linejoin="bevel"
     points="461.28,1034.17 461.28,1116.8"
     id="polyline24"
     transform="translate(0,-86)" />
  <polyline
     class="Stem"
     fill="none"
     stroke="#000000"
     stroke-width="2.48"
     stroke-linejoin="bevel"
     points="1644.96,1100.43 1644.96,1017.6"
     id="polyline25"
     transform="translate(0,-86)" />
  <polyline
     class="Stem"
     fill="none"
     stroke="#000000"
     stroke-width="2.48"
     stroke-linejoin="bevel"
     points="1156.95,644.832 1156.95,568.107"
     id="polyline26"
     transform="translate(0,-86)" />
  <polyline
     class="Stem"
     fill="none"
     stroke="#000000"
     stroke-width="2.48"
     stroke-linejoin="bevel"
     points="767.761,1058.97 767.761,1135.4"
     id="polyline27"
     transform="translate(0,-86)" />
  <polyline
     class="Stem"
     fill="none"
     stroke="#000000"
     stroke-width="2.48"
     stroke-linejoin="bevel"
     points="1836.51,1075.63 1836.51,1005.3"
     id="polyline28"
     transform="translate(0,-86)" />
  <polyline
     class="Stem"
     fill="none"
     stroke="#000000"
     stroke-width="2.48"
     stroke-linejoin="bevel"
     points="1829.91,620.032 1829.91,543.598"
     id="polyline29"
     transform="translate(0,-86)" />
  <polyline
     class="Stem"
     fill="none"
     stroke="#000000"
     stroke-width="2.48"
     stroke-linejoin="bevel"
     points="1359.24,1112.83 1359.24,1048.7"
     id="polyline30"
     transform="translate(0,-86)" />
  <polyline
     class="Stem"
     fill="none"
     stroke="#000000"
     stroke-width="2.48"
     stroke-linejoin="bevel"
     points="1237.47,632.432 1237.47,562.093"
     id="polyline31"
     transform="translate(0,-86)" />
  <polyline
     class="Stem"
     fill="none"
     stroke="#000000"
     stroke-width="2.48"
     stroke-linejoin="bevel"
     points="844.381,1071.37 844.381,1135.4"
     id="polyline32"
     transform="translate(0,-86)" />
  <polyline
     class="Stem"
     fill="none"
     stroke="#000000"
     stroke-width="2.48"
     stroke-linejoin="bevel"
     points="921.001,1058.97 921.001,1135.4"
     id="polyline33"
     transform="translate(0,-86)" />
  <polyline
     class="Stem"
     fill="none"
     stroke="#000000"
     stroke-width="2.48"
     stroke-linejoin="bevel"
     points="737.762,669.632 737.762,605.493"
     id="polyline34"
     transform="translate(0,-86)" />
  <polyline
     class="Stem"
     fill="none"
     stroke="#000000"
     stroke-width="2.48"
     stroke-linejoin="bevel"
     points="1647.04,603.366 1647.04,679.8"
     id="polyline35"
     transform="translate(0,-86)" />
  <polyline
     class="Stem"
     fill="none"
     stroke="#000000"
     stroke-width="2.48"
     stroke-linejoin="bevel"
     points="1354.7,620.032 1354.7,549.568"
     id="polyline36"
     transform="translate(0,-86)" />
  <polyline
     class="Stem"
     fill="none"
     stroke="#000000"
     stroke-width="2.48"
     stroke-linejoin="bevel"
     points="657.239,682.032 657.239,611.507"
     id="polyline37"
     transform="translate(0,-86)" />
  <polyline
     class="Stem"
     fill="none"
     stroke="#000000"
     stroke-width="2.48"
     stroke-linejoin="bevel"
     points="1759.89,1088.03 1759.89,1011.3"
     id="polyline38"
     transform="translate(0,-86)" />
  <polyline
     class="Stem"
     fill="none"
     stroke="#000000"
     stroke-width="2.48"
     stroke-linejoin="bevel"
     points="1282.62,1125.23 1282.62,1054.7"
     id="polyline39"
     transform="translate(0,-86)" />
  <polyline
     class="Stem"
     fill="none"
     stroke="#000000"
     stroke-width="2.48"
     stroke-linejoin="bevel"
     points="1596.27,607.632 1596.27,543.432"
     id="polyline40"
     transform="translate(0,-86)" />
  <polyline
     class="Stem"
     fill="none"
     stroke="#000000"
     stroke-width="2.48"
     stroke-linejoin="bevel"
     points="1435.22,632.432 1435.22,547.523"
     id="polyline41"
     transform="translate(0,-86)" />
  <polyline
     class="Stem"
     fill="none"
     stroke="#000000"
     stroke-width="2.48"
     stroke-linejoin="bevel"
     points="576.21,1034.17 576.21,1116.8"
     id="polyline42"
     transform="translate(0,-86)" />
  <polyline
     class="Stem"
     fill="none"
     stroke="#000000"
     stroke-width="2.48"
     stroke-linejoin="bevel"
     points="1034.32,1046.57 1034.32,1123"
     id="polyline43"
     transform="translate(0,-86)" />
  <path
     class="Note"
     d="m 1404.23,554.5664 c 0,4.2656 3.0752,9.0272 11.1104,9.0272 10.3168,0 21.1296,-8.432 21.1296,-17.1616 0,-5.8528 -4.96,-9.1264 -11.1104,-9.1264 -9.6224,0 -21.1296,8.1344 -21.1296,17.2608"
     id="path43"
     style="stroke-width:0.992" />
  <path
     class="Note"
     d="m 1484.75,542.1664 c 0,4.2656 3.0752,9.0272 11.1104,9.0272 10.3168,0 21.1296,-8.432 21.1296,-17.1616 0,-5.8528 -4.96,-9.1264 -11.1104,-9.1264 -9.6224,0 -21.1296,8.1344 -21.1296,17.2608"
     id="path44"
     style="stroke-width:0.992" />
  <path
     class="Note"
     d="m 626.247,604.1664 c 0,4.2656 3.0752,9.0272 11.1104,9.0272 10.3168,0 21.1296,-8.432 21.1296,-17.1616 0,-5.8528 -4.96,-9.1264 -11.1104,-9.1264 -9.6224,0 -21.1296,8.1344 -21.1296,17.2608"
     id="path45"
     style="stroke-width:0.992" />
  <path
     class="Note"
     d="m 1054.2096,943.3056 c -9.6224,0 -21.1296,8.0352 -21.1296,17.2608 0,4.2656 3.0752,9.0272 11.1104,9.0272 10.3168,0 21.1296,-8.432 21.1296,-17.1616 0,-5.8528 -4.96,-9.1264 -11.1104,-9.1264 m -13.6896,21.6256 c -3.2736,0 -3.968,-2.6784 -3.968,-3.5712 0,-4.8608 16.6656,-13.392 21.328,-13.392 2.3808,0 3.968,1.3888 3.968,3.5712 0,4.96 -16.7648,13.392 -21.328,13.392"
     id="path46"
     style="stroke-width:0.992" />
  <path
     class="Note"
     d="m 1565.28,529.7664 c 0,4.2656 3.0752,9.0272 11.1104,9.0272 10.3168,0 21.1296,-8.432 21.1296,-17.1616 0,-5.8528 -4.96,-9.1264 -11.1104,-9.1264 -9.6224,0 -21.1296,8.1344 -21.1296,17.2608"
     id="path47"
     style="stroke-width:0.992" />
  <path
     class="Note"
     d="m 1323.71,542.1664 c 0,4.2656 3.0752,9.0272 11.1104,9.0272 10.3168,0 21.1296,-8.432 21.1296,-17.1616 0,-5.8528 -4.96,-9.1264 -11.1104,-9.1264 -9.6224,0 -21.1296,8.1344 -21.1296,17.2608"
     id="path48"
     style="stroke-width:0.992" />
  <path
     class="Note"
     d="m 1613.96,1022.5664 c 0,4.2656 3.0752,9.0272 11.1104,9.0272 10.3168,0 21.1296,-8.432 21.1296,-17.1616 0,-5.8528 -4.96,-9.1264 -11.1104,-9.1264 -9.6224,0 -21.1296,8.1344 -21.1296,17.2608"
     id="path49"
     style="stroke-width:0.992" />
  <path
     class="Note"
     d="m 1645.8,517.3664 c 0,4.2656 3.0752,9.0272 11.1104,9.0272 10.3168,0 21.1296,-8.432 21.1296,-17.1616 0,-5.8528 -4.96,-9.1264 -11.1104,-9.1264 -9.6224,0 -21.1296,8.1344 -21.1296,17.2608"
     id="path50"
     style="stroke-width:0.992" />
  <path
     class="Note"
     d="m 919.761,972.9664 c 0,4.2656 3.0752,9.0272 11.1104,9.0272 10.3168,0 21.1296,-8.432 21.1296,-17.1616 0,-5.8528 -4.96,-9.1264 -11.1104,-9.1264 -9.6224,0 -21.1296,8.1344 -21.1296,17.2608"
     id="path51"
     style="stroke-width:0.992" />
  <path
     class="Note"
     d="m 1251.63,1047.3664 c 0,4.2656 3.0752,9.0272 11.1104,9.0272 10.3168,0 21.1296,-8.432 21.1296,-17.1616 0,-5.8528 -4.96,-9.1264 -11.1104,-9.1264 -9.6224,0 -21.1296,8.1344 -21.1296,17.2608"
     id="path52"
     style="stroke-width:0.992" />
  <path
     class="Note"
     d="m 843.141,985.3664 c 0,4.2656 3.0752,9.0272 11.1104,9.0272 10.3168,0 21.1296,-8.432 21.1296,-17.1616 0,-5.8528 -4.96,-9.1264 -11.1104,-9.1264 -9.6224,0 -21.1296,8.1344 -21.1296,17.2608"
     id="path53"
     style="stroke-width:0.992" />
  <path
     class="Note"
     d="m 1206.48,554.5664 c 0,4.2656 3.0752,9.0272 11.1104,9.0272 10.3168,0 21.1296,-8.432 21.1296,-17.1616 0,-5.8528 -4.96,-9.1264 -11.1104,-9.1264 -9.6224,0 -21.1296,8.1344 -21.1296,17.2608"
     id="path54"
     style="stroke-width:0.992" />
  <path
     class="Note"
     d="m 1328.25,1034.9664 c 0,4.2656 3.0752,9.0272 11.1104,9.0272 10.3168,0 21.1296,-8.432 21.1296,-17.1616 0,-5.8528 -4.96,-9.1264 -11.1104,-9.1264 -9.6224,0 -21.1296,8.1344 -21.1296,17.2608"
     id="path55"
     style="stroke-width:0.992" />
  <path
     class="Note"
     d="m 1798.91,542.1664 c 0,4.2656 3.0752,9.0272 11.1104,9.0272 10.3168,0 21.1296,-8.432 21.1296,-17.1616 0,-5.8528 -4.96,-9.1264 -11.1104,-9.1264 -9.6224,0 -21.1296,8.1344 -21.1296,17.2608"
     id="path56"
     style="stroke-width:0.992" />
  <path
     class="Note"
     d="m 766.521,972.9664 c 0,4.2656 3.0752,9.0272 11.1104,9.0272 10.3168,0 21.1296,-8.432 21.1296,-17.1616 0,-5.8528 -4.96,-9.1264 -11.1104,-9.1264 -9.6224,0 -21.1296,8.1344 -21.1296,17.2608"
     id="path57"
     style="stroke-width:0.992" />
  <path
     class="Note"
     d="m 1728.89,1010.1664 c 0,4.2656 3.0752,9.0272 11.1104,9.0272 10.3168,0 21.1296,-8.432 21.1296,-17.1616 0,-5.8528 -4.96,-9.1264 -11.1104,-9.1264 -9.6224,0 -21.1296,8.1344 -21.1296,17.2608"
     id="path58"
     style="stroke-width:0.992" />
  <path
     class="Note"
     d="m 706.77,591.7664 c 0,4.2656 3.0752,9.0272 11.1104,9.0272 10.3168,0 21.1296,-8.432 21.1296,-17.1616 0,-5.8528 -4.96,-9.1264 -11.1104,-9.1264 -9.6224,0 -21.1296,8.1344 -21.1296,17.2608"
     id="path59"
     style="stroke-width:0.992" />
  <path
     class="Note"
     d="m 1125.96,566.9664 c 0,4.2656 3.0752,9.0272 11.1104,9.0272 10.3168,0 21.1296,-8.432 21.1296,-17.1616 0,-5.8528 -4.96,-9.1264 -11.1104,-9.1264 -9.6224,0 -21.1296,8.1344 -21.1296,17.2608"
     id="path60"
     style="stroke-width:0.992" />
  <path
     class="Note"
     d="m 1805.51,997.7664 c 0,4.2656 3.0752,9.0272 11.1104,9.0272 10.3168,0 21.1296,-8.432 21.1296,-17.1616 0,-5.8528 -4.96,-9.1264 -11.1104,-9.1264 -9.6224,0 -21.1296,8.1344 -21.1296,17.2608"
     id="path61"
     style="stroke-width:0.992" />
  <path
     class="Note"
     d="m 689.901,960.5664 c 0,4.2656 3.0752,9.0272 11.1104,9.0272 10.3168,0 21.1296,-8.432 21.1296,-17.1616 0,-5.8528 -4.96,-9.1264 -11.1104,-9.1264 -9.6224,0 -21.1296,8.1344 -21.1296,17.2608"
     id="path62"
     style="stroke-width:0.992" />
  <path
     class="Note"
     d="m 1005.17,579.3664 c 0,4.2656 3.0752,9.0272 11.1104,9.0272 10.3168,0 21.1296,-8.432 21.1296,-17.1616 0,-5.8528 -4.96,-9.1264 -11.1104,-9.1264 -9.6224,0 -21.1296,8.1344 -21.1296,17.2608"
     id="path63"
     style="stroke-width:0.992" />
  <path
     class="Note"
     d="m 460.04,948.1664 c 0,4.2656 3.0752,9.0272 11.1104,9.0272 10.3168,0 21.1296,-8.432 21.1296,-17.1616 0,-5.8528 -4.96,-9.1264 -11.1104,-9.1264 -9.6224,0 -21.1296,8.1344 -21.1296,17.2608"
     id="path64"
     style="stroke-width:0.992" />
  <path
     class="Note"
     d="m 1462.6996,1005.3056 c -9.6224,0 -21.1296,8.0352 -21.1296,17.2608 0,4.2656 3.0752,9.0272 11.1104,9.0272 10.3168,0 21.1296,-8.432 21.1296,-17.1616 0,-5.8528 -4.96,-9.1264 -11.1104,-9.1264 m -13.6896,21.6256 c -3.2736,0 -3.968,-2.6784 -3.968,-3.5712 0,-4.8608 16.6656,-13.392 21.328,-13.392 2.3808,0 3.968,1.3888 3.968,3.5712 0,4.96 -16.7648,13.392 -21.328,13.392"
     id="path65"
     style="stroke-width:0.992" />
  <path
     class="Note"
     d="m 574.97,948.1664 c 0,4.2656 3.0752,9.0272 11.1104,9.0272 10.3168,0 21.1296,-8.432 21.1296,-17.1616 0,-5.8528 -4.96,-9.1264 -11.1104,-9.1264 -9.6224,0 -21.1296,8.1344 -21.1296,17.2608"
     id="path66"
     style="stroke-width:0.992" />
  <path
     class="Note"
     d="m 845.1266,562.1056 c -9.6224,0 -21.1296,8.0352 -21.1296,17.2608 0,4.2656 3.0752,9.0272 11.1104,9.0272 10.3168,0 21.1296,-8.432 21.1296,-17.1616 0,-5.8528 -4.96,-9.1264 -11.1104,-9.1264 m -13.6896,21.6256 c -3.2736,0 -3.968,-2.6784 -3.968,-3.5712 0,-4.8608 16.6656,-13.392 21.328,-13.392 2.3808,0 3.968,1.3888 3.968,3.5712 0,4.96 -16.7648,13.392 -21.328,13.392"
     id="path67"
     style="stroke-width:0.992" />
  <path
     class="Clef"
     d="m 243.3996,1044.4896 c 0,6.5472 4.96,15.1776 18.352,15.1776 4.6624,0 8.7296,-1.1904 12.3008,-3.3728 5.3568,-3.7696 6.7456,-10.3168 6.7456,-16.5664 0,-3.8688 -0.5952,-8.3328 -1.5872,-13.9872 -0.2976,-1.984 -0.8928,-4.96 -1.488,-8.8288 9.7216,-3.1744 16.9632,-13.2928 16.9632,-23.5104 0,-14.9792 -10.6144,-25.0976 -25.0976,-25.0976 -0.992,-5.952 -1.984,-11.8048 -2.7776,-17.36 10.416,-11.0112 17.6576,-23.4112 17.6576,-39.184 0,-9.0272 -2.7776,-16.368 -4.3648,-19.9392 -2.3808,-5.0592 -5.2576,-8.5312 -7.0432,-8.5312 -0.6944,0 -3.7696,1.1904 -7.0432,5.0592 -6.3488,7.5392 -8.1344,20.2368 -8.1344,28.5696 0,5.3568 0.496,10.2176 2.1824,21.328 -0.0992,0.099 -5.2576,5.3568 -7.3408,7.0432 -9.0272,8.3328 -21.5264,20.4352 -21.5264,40.2752 0,18.5504 16.1696,33.1328 34.6208,33.1328 2.8768,0 5.5552,-0.2976 7.8368,-0.6944 1.8848,9.5232 3.0752,16.4672 3.0752,21.7248 0,10.3168 -5.3568,15.7728 -15.376,15.7728 -2.3808,0 -4.464,-0.496 -4.6624,-0.496 -0.0992,-0.099 -0.2976,-0.1984 -0.2976,-0.2976 0,-0.1984 0.1984,-0.2976 0.496,-0.2976 4.6624,-0.7936 9.3248,-4.7616 9.3248,-11.1104 0,-5.3568 -4.0672,-11.0112 -11.5072,-11.0112 -6.944,0 -11.3088,5.6544 -11.3088,12.2016 m 20.7328,-132.432 c 0.8928,-3.968 5.456,-14.384 10.6144,-14.384 1.488,0 3.8688,4.7616 3.8688,11.7056 0,10.3168 -7.6384,18.0544 -14.4832,24.8 -0.5952,-3.968 -1.0912,-7.8368 -1.0912,-12.0032 0,-3.6704 0.2976,-7.0432 1.0912,-10.1184 m 8.7296,101.9776 c -1.984,0.3968 -3.8688,0.5952 -5.7536,0.5952 -14.1856,0 -26.288,-9.92 -26.288,-24.8992 0,-12.1024 8.5312,-22.9152 17.2608,-30.4544 1.6864,-1.488 3.2736,-2.8768 4.7616,-4.3648 0.8928,5.3568 1.5872,10.0192 2.2816,14.0864 -9.0272,2.6784 -15.1776,12.2016 -15.1776,21.5264 0,6.944 5.456,16.4672 13.392,16.4672 0.7936,0 1.6864,-0.3968 1.6864,-1.2896 0,-0.8928 -0.992,-1.3888 -2.1824,-2.1824 -3.8688,-2.3808 -6.0512,-4.96 -6.0512,-9.8208 0,-6.0512 4.5632,-10.912 10.3168,-12.3008 l 5.7536,32.6368 m 14.0864,-18.352 c 0,7.0432 -2.8768,14.2848 -9.92,17.1616 -2.0832,-11.904 -4.7616,-27.6768 -5.456,-32.0416 8.928,0 15.376,6.0512 15.376,14.88"
     id="path68"
     style="stroke-width:0.992" />
  <path
     class="Clef"
     d="m 367.3996,601.2896 c 0,6.5472 4.96,15.1776 18.352,15.1776 4.6624,0 8.7296,-1.1904 12.3008,-3.3728 5.3568,-3.7696 6.7456,-10.3168 6.7456,-16.5664 0,-3.8688 -0.5952,-8.3328 -1.5872,-13.9872 -0.2976,-1.984 -0.8928,-4.96 -1.488,-8.8288 9.7216,-3.1744 16.9632,-13.2928 16.9632,-23.5104 0,-14.9792 -10.6144,-25.0976 -25.0976,-25.0976 -0.992,-5.952 -1.984,-11.8048 -2.7776,-17.36 10.416,-11.0112 17.6576,-23.4112 17.6576,-39.184 0,-9.0272 -2.7776,-16.368 -4.3648,-19.9392 -2.3808,-5.0592 -5.2576,-8.5312 -7.0432,-8.5312 -0.6944,0 -3.7696,1.1904 -7.0432,5.0592 -6.3488,7.5392 -8.1344,20.2368 -8.1344,28.5696 0,5.3568 0.496,10.2176 2.1824,21.328 -0.0992,0.0992 -5.2576,5.3568 -7.3408,7.0432 -9.0272,8.3328 -21.5264,20.4352 -21.5264,40.2752 0,18.5504 16.1696,33.1328 34.6208,33.1328 2.8768,0 5.5552,-0.2976 7.8368,-0.6944 1.8848,9.5232 3.0752,16.4672 3.0752,21.7248 0,10.3168 -5.3568,15.7728 -15.376,15.7728 -2.3808,0 -4.464,-0.496 -4.6624,-0.496 -0.0992,-0.0992 -0.2976,-0.1984 -0.2976,-0.2976 0,-0.1984 0.1984,-0.2976 0.496,-0.2976 4.6624,-0.7936 9.3248,-4.7616 9.3248,-11.1104 0,-5.3568 -4.0672,-11.0112 -11.5072,-11.0112 -6.944,0 -11.3088,5.6544 -11.3088,12.2016 m 20.7328,-132.432 c 0.8928,-3.968 5.456,-14.384 10.6144,-14.384 1.488,0 3.8688,4.7616 3.8688,11.7056 0,10.3168 -7.6384,18.0544 -14.4832,24.8 -0.5952,-3.968 -1.0912,-7.8368 -1.0912,-12.0032 0,-3.6704 0.2976,-7.0432 1.0912,-10.1184 m 8.7296,101.9776 c -1.984,0.3968 -3.8688,0.5952 -5.7536,0.5952 -14.1856,0 -26.288,-9.92 -26.288,-24.8992 0,-12.1024 8.5312,-22.9152 17.2608,-30.4544 1.6864,-1.488 3.2736,-2.8768 4.7616,-4.3648 0.8928,5.3568 1.5872,10.0192 2.2816,14.0864 -9.0272,2.6784 -15.1776,12.2016 -15.1776,21.5264 0,6.944 5.456,16.4672 13.392,16.4672 0.7936,0 1.6864,-0.3968 1.6864,-1.2896 0,-0.8928 -0.992,-1.3888 -2.1824,-2.1824 -3.8688,-2.3808 -6.0512,-4.96 -6.0512,-9.8208 0,-6.0512 4.5632,-10.912 10.3168,-12.3008 l 5.7536,32.6368 m 14.0864,-18.352 c 0,7.0432 -2.8768,14.2848 -9.92,17.1616 -2.0832,-11.904 -4.7616,-27.6768 -5.456,-32.0416 8.928,0 15.376,6.0512 15.376,14.88"
     id="path69"
     style="stroke-width:0.992" />
  <path
     class="KeySig"
     d="m 466.5926,465.584 c 0.5952,-0.0992 1.0912,-0.7936 1.0912,-1.3888 v -5.8528 c 0,-0.992 -0.6944,-1.3888 -1.5872,-1.3888 l -3.2736,0.6944 v -14.7808 h -2.7776 v 15.376 l -8.8288,1.7856 v -13.9872 h -2.7776 v 14.5824 l -3.8688,0.7936 c -0.5952,0.0992 -1.0912,0.7936 -1.0912,1.3888 v 5.7536 c 0,1.0912 0.7936,1.3888 1.6864,1.3888 l 3.2736,-0.6944 v 16.368 l -3.8688,0.7936 c -0.5952,0.0992 -1.0912,0.7936 -1.0912,1.3888 v 5.7536 c 0,1.0912 0.7936,1.3888 1.6864,1.3888 l 3.2736,-0.6944 v 14.7808 h 2.7776 v -15.376 l 8.8288,-1.7856 v 13.9872 h 2.7776 v -14.5824 l 3.7696,-0.6944 c 0.5952,-0.0992 1.0912,-0.7936 1.0912,-1.3888 v -5.8528 c 0,-0.992 -0.6944,-1.3888 -1.5872,-1.3888 l -3.2736,0.6944 v -16.368 l 3.7696,-0.6944 m -15.376,3.0752 8.8288,-1.7856 v 16.368 l -8.8288,1.8848 v -16.4672"
     id="path70"
     style="stroke-width:0.992" />
  <path
     class="KeySig"
     d="m 493.7636,502.784 c 0.5952,-0.0992 1.0912,-0.7936 1.0912,-1.3888 v -5.8528 c 0,-0.992 -0.6944,-1.3888 -1.5872,-1.3888 l -3.2736,0.6944 v -14.7808 h -2.7776 v 15.376 l -8.8288,1.7856 V 483.2416 H 475.61 v 14.5824 l -3.8688,0.7936 c -0.5952,0.0992 -1.0912,0.7936 -1.0912,1.3888 v 5.7536 c 0,1.0912 0.7936,1.3888 1.6864,1.3888 l 3.2736,-0.6944 v 16.368 l -3.8688,0.7936 c -0.5952,0.0992 -1.0912,0.7936 -1.0912,1.3888 v 5.7536 c 0,1.0912 0.7936,1.3888 1.6864,1.3888 l 3.2736,-0.6944 v 14.7808 h 2.7776 v -15.376 l 8.8288,-1.7856 v 13.9872 h 2.7776 v -14.5824 l 3.7696,-0.6944 c 0.5952,-0.0992 1.0912,-0.7936 1.0912,-1.3888 v -5.8528 c 0,-0.992 -0.6944,-1.3888 -1.5872,-1.3888 l -3.2736,0.6944 v -16.368 l 3.7696,-0.6944 m -15.376,3.0752 8.8288,-1.7856 v 16.368 l -8.8288,1.8848 v -16.4672"
     id="path71"
     style="stroke-width:0.992" />
  <path
     class="KeySig"
     d="m 520.9356,453.184 c 0.5952,-0.0992 1.0912,-0.7936 1.0912,-1.3888 v -5.8528 c 0,-0.992 -0.6944,-1.3888 -1.5872,-1.3888 l -3.2736,0.6944 v -14.7808 h -2.7776 v 15.376 l -8.8288,1.7856 v -13.9872 h -2.7776 v 14.5824 l -3.8688,0.7936 c -0.5952,0.0992 -1.0912,0.7936 -1.0912,1.3888 v 5.7536 c 0,1.0912 0.7936,1.3888 1.6864,1.3888 l 3.2736,-0.6944 v 16.368 l -3.8688,0.7936 c -0.5952,0.0992 -1.0912,0.7936 -1.0912,1.3888 v 5.7536 c 0,1.0912 0.7936,1.3888 1.6864,1.3888 l 3.2736,-0.6944 v 14.7808 h 2.7776 v -15.376 l 8.8288,-1.7856 v 13.9872 h 2.7776 v -14.5824 l 3.7696,-0.6944 c 0.5952,-0.0992 1.0912,-0.7936 1.0912,-1.3888 v -5.8528 c 0,-0.992 -0.6944,-1.3888 -1.5872,-1.3888 l -3.2736,0.6944 v -16.368 l 3.7696,-0.6944 m -15.376,3.0752 8.8288,-1.7856 v 16.368 l -8.8288,1.8848 v -16.4672"
     id="path72"
     style="stroke-width:0.992" />
  <path
     class="KeySig"
     d="m 342.5926,908.784 c 0.5952,-0.0992 1.0912,-0.7936 1.0912,-1.3888 v -5.8528 c 0,-0.992 -0.6944,-1.3888 -1.5872,-1.3888 l -3.2736,0.6944 v -14.7808 h -2.7776 v 15.376 l -8.8288,1.7856 v -13.9872 h -2.7776 v 14.5824 l -3.8688,0.7936 c -0.5952,0.0992 -1.0912,0.7936 -1.0912,1.3888 v 5.7536 c 0,1.0912 0.7936,1.3888 1.6864,1.3888 l 3.2736,-0.6944 v 16.368 l -3.8688,0.7936 c -0.5952,0.099 -1.0912,0.7936 -1.0912,1.3888 v 5.7536 c 0,1.0912 0.7936,1.3888 1.6864,1.3888 l 3.2736,-0.6944 v 14.7808 h 2.7776 v -15.376 l 8.8288,-1.7856 v 13.9872 h 2.7776 v -14.5824 l 3.7696,-0.6944 c 0.5952,-0.099 1.0912,-0.7936 1.0912,-1.3888 v -5.8528 c 0,-0.992 -0.6944,-1.3888 -1.5872,-1.3888 l -3.2736,0.6944 v -16.368 l 3.7696,-0.6944 m -15.376,3.0752 8.8288,-1.7856 v 16.368 l -8.8288,1.8848 v -16.4672"
     id="path73"
     style="stroke-width:0.992" />
  <path
     class="KeySig"
     d="m 369.7636,945.984 c 0.5952,-0.099 1.0912,-0.7936 1.0912,-1.3888 v -5.8528 c 0,-0.992 -0.6944,-1.3888 -1.5872,-1.3888 l -3.2736,0.6944 v -14.7808 h -2.7776 v 15.376 l -8.8288,1.7856 V 926.4416 H 351.61 v 14.5824 l -3.8688,0.7936 c -0.5952,0.099 -1.0912,0.7936 -1.0912,1.3888 v 5.7536 c 0,1.0912 0.7936,1.3888 1.6864,1.3888 l 3.2736,-0.6944 v 16.368 l -3.8688,0.7936 c -0.5952,0.099 -1.0912,0.7936 -1.0912,1.3888 v 5.7536 c 0,1.0912 0.7936,1.3888 1.6864,1.3888 l 3.2736,-0.6944 v 14.7808 h 2.7776 v -15.376 l 8.8288,-1.7856 v 13.9872 h 2.7776 v -14.5824 l 3.7696,-0.6944 c 0.5952,-0.099 1.0912,-0.7936 1.0912,-1.3888 v -5.8528 c 0,-0.992 -0.6944,-1.3888 -1.5872,-1.3888 l -3.2736,0.6944 v -16.368 l 3.7696,-0.6944 m -15.376,3.0752 8.8288,-1.7856 v 16.368 l -8.8288,1.8848 v -16.4672"
     id="path74"
     style="stroke-width:0.992" />
  <path
     class="KeySig"
     d="m 396.9356,896.384 c 0.5952,-0.0992 1.0912,-0.7936 1.0912,-1.3888 v -5.8528 c 0,-0.992 -0.6944,-1.3888 -1.5872,-1.3888 l -3.2736,0.6944 v -14.7808 h -2.7776 v 15.376 l -8.8288,1.7856 v -13.9872 h -2.7776 v 14.5824 l -3.8688,0.7936 c -0.5952,0.0992 -1.0912,0.7936 -1.0912,1.3888 v 5.7536 c 0,1.0912 0.7936,1.3888 1.6864,1.3888 l 3.2736,-0.6944 v 16.368 l -3.8688,0.7936 c -0.5952,0.099 -1.0912,0.7936 -1.0912,1.3888 v 5.7536 c 0,1.0912 0.7936,1.3888 1.6864,1.3888 l 3.2736,-0.6944 v 14.7808 h 2.7776 v -15.376 l 8.8288,-1.7856 v 13.9872 h 2.7776 v -14.5824 l 3.7696,-0.6944 c 0.5952,-0.099 1.0912,-0.7936 1.0912,-1.3888 v -5.8528 c 0,-0.992 -0.6944,-1.3888 -1.5872,-1.3888 l -3.2736,0.6944 v -16.368 l 3.7696,-0.6944 m -15.376,3.0752 8.8288,-1.7856 v 16.368 l -8.8288,1.8848 v -16.4672"
     id="path75"
     style="stroke-width:0.992" />
  <path
     class="TimeSig"
     d="m 579.08,507.8432 c -2.48,1.5872 -4.2656,4.464 -4.2656,7.6384 0,0.3968 0,0.7936 0.0992,1.1904 0.496,4.0672 3.7696,7.2416 7.8368,7.7376 0.2976,0 0.7936,0 1.0912,0 4.96,0 8.928,-3.968 8.928,-8.928 0,-0.6944 0,-1.3888 -0.1984,-2.0832 -0.8928,-4.2656 -4.7616,-13.392 -21.6256,-13.392 -21.6256,0 -24.1056,17.9552 -24.1056,24.4032 0,11.8048 1.488,26.5856 26.288,26.5856 9.8208,0 17.4592,-5.7536 17.856,-16.368 0,-0.496 -0.2976,-0.7936 -0.7936,-0.7936 h -1.2896 c -0.3968,0 -0.7936,0.3968 -0.7936,0.7936 -0.3968,8.2336 -6.2496,13.1936 -14.9792,13.1936 -8.6304,0 -12.7968,-4.6624 -12.7968,-13.392 v -18.9472 c 0,-5.5552 2.1824,-11.904 11.0112,-11.904 4.6624,0 6.7456,1.6864 7.8368,3.3728 0.0992,0.1984 0.0992,0.2976 0.0992,0.496 0,0.0992 0,0.2976 -0.1984,0.3968"
     id="path76"
     style="stroke-width:0.992" />
  <path
     class="Beam"
     fill-rule="evenodd"
     d="m 689.901,1043.2 h 232.34 v 12.4 h -232.34 v -12.4"
     id="path77" />
  <path
     class="Beam"
     fill-rule="evenodd"
     d="m 1758.65,919.18 79.1,-6.199 v 12.439 l -79.1,6.2 v -12.44"
     id="path78" />
  <path
     class="Beam"
     fill-rule="evenodd"
     d="m 655.999,519.383 83.003,-6.2 v 12.434 l -83.003,6.2 v -12.434"
     id="path79" />
  <path
     class="Beam"
     fill-rule="evenodd"
     d="m 1155.71,475.983 83,-6.2 v 12.434 l -83,6.2 v -12.434"
     id="path80" />
  <path
     class="Beam"
     fill-rule="evenodd"
     d="m 1281.38,962.58 79.1,-6.2 v 12.44 l -79.1,6.2 v -12.44"
     id="path81" />
  <path
     class="Beam"
     fill-rule="evenodd"
     d="m 1353.46,457.398 244.05,-6.2 v 12.404 l -244.05,6.2 v -12.404"
     id="path82" />
  <path
     class="Hook"
     d="m 1828.67,479.9184 c 0,0.2976 0.099,0.8928 0.7936,1.0912 4.2656,1.3888 12.7968,6.7456 19.2448,17.7568 1.7856,3.0752 4.6624,7.3408 4.6624,15.5744 0,7.1424 -1.7856,14.4832 -4.464,21.6256 -0.1984,0.5952 -0.2976,1.0912 -0.2976,1.488 0,0.6944 0.3968,0.992 1.0912,0.992 0.5952,0 1.0912,-0.3968 1.488,-1.0912 4.464,-7.936 6.1504,-17.1616 6.1504,-26.1888 -0.496,-12.7968 -7.8368,-22.2208 -7.8368,-22.2208 0.2976,0 -9.1264,-12.2016 -11.8048,-16.368 -3.6704,-5.6544 -5.3568,-11.3088 -5.5552,-11.7056 -0.099,-0.2976 -0.992,-3.8688 -0.992,-3.8688 -0.099,-0.3968 -0.5952,-0.7936 -1.1904,-0.7936 -0.6944,0 -1.2896,0.5952 -1.2896,1.2896 v 22.4192"
     id="path83"
     style="stroke-width:0.992" />
  <path
     class="Lyrics"
     d="m 879.501,1096.95 v -3.2 h -6.65 v -12.35 h -3.8 v 25.35 h 3.8 v -9.8 h 6.65 m -6.65,27.85 v -15.95 h -3.8 v 4.7 h -19.9 v -4.65 h -3.8 v 15.9 h 27.5 m -3.8,-3.2 h -19.9 v -4.9 h 19.9 v 4.9 m -10.95,-36.4 v -3.2 h -12.6 v 3.2 h 12.6 m 6.4,6.15 v -3.1 h -25.45 v 3.1 h 25.45 m -2.55,8.85 c 0,-4.4 -4.25,-7.1 -10.15,-7.1 -6.05,0 -10.15,2.7 -10.15,7.1 0,4.3 4.2,7.05 10.15,7.05 5.9,0 10.15,-2.75 10.15,-7.05 m -3.85,0 c 0,2.5 -2.9,4.05 -6.3,4.05 -3.35,0 -6.4,-1.55 -6.4,-4.05 0,-2.55 3,-4.05 6.4,-4.05 3.4,0 6.3,1.5 6.3,4.05"
     id="path84" />
  <path
     class="Lyrics"
     d="m 1641.87,656.895 c 0,9.3 4.1,15.5 11.2,15.5 7.1,0 11.15,-6.2 11.15,-15.45 0,-9.25 -4.05,-15.45 -11.15,-15.45 -7.1,0 -11.2,6.2 -11.2,15.4 m 18.65,0.05 c 0,7.15 -2.9,12.15 -7.45,12.15 -4.55,0 -7.5,-5 -7.5,-12.15 0,-7.2 2.95,-12.15 7.5,-12.15 4.55,0 7.45,4.95 7.45,12.15 m 21.45,-7.75 h -7.65 v -11 h -3.8 v 43.7 h 3.8 v -16.15 h 7.65 v -3.2 h -7.65 v -10.15 h 7.65 v -3.2"
     id="path85" />
  <path
     class="Lyrics"
     d="m 1838.38,1104.5 v -23.1 h -3.8 v 23.1 h 3.8 m -11.75,-9.95 v 9.55 h 3.7 v -21.9 h -3.7 v 9.2 h -5.15 v 3.15 h 5.15 m 13.35,30.1 v -3.2 h -26.65 V 1117 h 25.05 v -10.25 h -28.95 v 3.15 h 25.1 v 4.2 h -25.05 v 10.55 h 30.5 m -17.8,-25.6 c -4.15,0.95 -10.1,1.3 -15.05,1.3 v -5.4 h 12.75 v -10.85 h -16.5 v 3.15 h 12.7 v 4.65 h -12.75 v 11.55 h 2.85 c 5.85,0 11.85,-0.45 16.5,-1.35 l -0.5,-3.05"
     id="path86" />
  <path
     class="Lyrics"
     d="m 952.364,1081.4 h -3.75 v 43.7 h 3.75 v -43.7 m -8.2,27.65 c -5.2,1.15 -15.3,1.95 -20.9,1.95 v -25.05 h -3.85 v 28.4 h 1.95 c 6.7,0 18.1,-0.85 23.15,-2 l -0.35,-3.3"
     id="path87" />
  <path
     class="Lyrics"
     d="m 1597.43,659.845 v -3.2 h -27.1 v -5.4 h 25.9 v -11.25 h -29.8 v 3.2 h 26 v 4.9 h -25.9 v 11.75 h 30.9 m -14.2,21.7 v -13.9 h 17.9 v -3.2 h -39.45 v 3.2 h 17.75 v 13.9 h 3.8"
     id="path88" />
  <path
     class="Lyrics"
     d="m 1517.62,661.295 v -23.1 h -3.8 v 23.1 h 3.8 m -11.75,-9.95 v 9.55 h 3.7 v -21.9 h -3.7 v 9.2 h -5.15 v 3.15 h 5.15 m 13.35,30.1 v -3.2 h -26.65 v -4.45 h 25.05 v -10.25 h -28.95 v 3.15 h 25.1 v 4.2 h -25.05 v 10.55 h 30.5 m -17.8,-25.6 c -4.15,0.95 -10.1,1.3 -15.05,1.3 v -5.4 h 12.75 v -10.85 h -16.5 v 3.15 h 12.7 v 4.65 h -12.75 v 11.55 h 2.85 c 5.85,0 11.85,-0.45 16.5,-1.35 l -0.5,-3.05"
     id="path89" />
  <path
     class="Lyrics"
     d="m 1440.15,651.095 v -3.2 h -6.65 v -9.7 h -3.8 v 22.35 h 3.8 v -9.45 h 6.65 m -5.05,30.45 v -3.2 h -25.55 v -4.85 h 23.95 v -10.45 h -27.75 v 3.15 h 23.95 v 4.4 h -23.95 v 10.95 h 29.35 m -23.3,-41.85 c -6.25,0 -11.25,4.1 -11.25,10 0,6.05 5.1,9.9 11.25,9.9 6.2,0 11.25,-3.9 11.25,-9.9 0,-5.95 -5.05,-10 -11.25,-10 m 0,3.4 c 4.55,0 7.55,2.7 7.55,6.6 0,3.95 -3,6.5 -7.55,6.5 -4.25,0 -7.55,-2.55 -7.55,-6.5 0,-3.95 3.35,-6.6 7.55,-6.6"
     id="path90" />
  <path
     class="Lyrics"
     d="m 610.827,1103.5 v -3.2 h -39.45 v 3.2 h 39.45 m -4.4,-13.9 c 0,-4.8 -5.8,-7.6 -15.3,-7.6 -9.4,0 -15.2,2.8 -15.2,7.6 0,4.8 5.8,7.55 15.2,7.55 9.5,0 15.3,-2.75 15.3,-7.55 m -15.3,-4.5 c 6.95,0 11.45,1.75 11.45,4.5 0,2.7 -4.5,4.4 -11.45,4.4 -6.85,0 -11.3,-1.7 -11.3,-4.4 0,-2.75 4.45,-4.5 11.3,-4.5 m 16.2,39.6 v -3.1 h -27.55 v -4.4 h 26.1 v -9.8 h -30 v 3.05 h 26.2 v 3.85 h -26.1 v 10.4 h 31.35"
     id="path91" />
  <path
     class="Lyrics"
     d="m 492.897,1124.45 v -16 h -28.65 v 16 h 28.65 m -3.8,-3.15 h -21.05 v -9.75 h 21.05 v 9.75 m 0,-39.9 v 24.3 h 3.8 v -24.3 h -3.8 m -4.1,16.1 c -5.6,1.15 -15.4,2.15 -21.75,1.9 v -15.75 h -3.8 v 19.1 h 2.5 c 7.6,0 18.65,-0.95 23.5,-2 l -0.45,-3.25"
     id="path92" />
  <path
     class="Lyrics"
     d="m 1061.66,1081.4 h -3.8 v 43.7 h 3.8 v -23.15 h 7.1 v -3.2 h -7.1 v -17.35 m -28.15,29.75 v -22 h 16.9 v -3.2 h -20.75 v 28.45 h 4.3 c 7.6,0 16.25,-0.6 20.95,-1.5 l -0.4,-3.15 c -4.2,0.9 -12.85,1.4 -18.5,1.4 h -2.5"
     id="path93" />
  <path
     class="Lyrics"
     d="m 1764.82,1094.3 v -3.2 h -6.65 v -9.7 h -3.8 v 22.35 h 3.8 v -9.45 h 6.65 m -5.05,30.45 v -3.2 h -25.55 v -4.85 h 23.95 v -10.45 h -27.75 v 3.15 h 23.95 v 4.4 h -23.95 v 10.95 h 29.35 m -23.3,-41.85 c -6.25,0 -11.25,4.1 -11.25,10 0,6.05 5.1,9.9 11.25,9.9 6.2,0 11.25,-3.9 11.25,-9.9 0,-5.95 -5.05,-10 -11.25,-10 m 0,3.4 c 4.55,0 7.55,2.7 7.55,6.6 0,3.95 -3,6.5 -7.55,6.5 -4.25,0 -7.55,-2.55 -7.55,-6.5 0,-3.95 3.35,-6.6 7.55,-6.6"
     id="path94" />
  <path
     class="Lyrics"
     d="m 1355.86,659.845 v -3.2 h -27.1 v -5.4 h 25.9 v -11.25 h -29.8 v 3.2 h 26 v 4.9 h -25.9 v 11.75 h 30.9 m -14.2,21.7 v -13.9 h 17.9 v -3.2 h -39.45 v 3.2 h 17.75 v 13.9 h 3.8"
     id="path95" />
  <path
     class="Lyrics"
     d="m 686.829,1094.05 h 9.8 v 0.3 c 0,5.55 -5.2,10.85 -11.05,12.6 l 2.1,2.9 c 5,-1.75 9.55,-6.1 11,-10 2.05,3.95 6.65,7.55 10.5,8.75 l 1.95,-3 c -5.15,-1.25 -10.5,-5.85 -10.5,-11.35 v -0.2 h 9.65 v -3.1 h -23.45 v 3.1 m 39.65,4.2 v -3.2 h -6.65 v -13.65 h -3.8 v 31.75 h 3.8 v -14.9 h 6.65 m -4.95,25.45 v -3.2 h -25.25 v -9.45 h -3.8 v 12.65 h 29.05 m -29,-37 h 12.2 v -3.25 h -12.2 v 3.25"
     id="path96" />
  <path
     class="Lyrics"
     d="m 1239.35,661.295 v -23.1 h -3.8 v 23.1 h 3.8 m -11.75,-9.95 v 9.55 h 3.7 v -21.9 h -3.7 v 9.2 h -5.15 v 3.15 h 5.15 m 13.35,30.1 v -3.2 h -26.65 v -4.45 h 25.05 v -10.25 h -28.95 v 3.15 h 25.1 v 4.2 h -25.05 v 10.55 h 30.5 m -17.8,-25.6 c -4.15,0.95 -10.1,1.3 -15.05,1.3 v -5.4 h 12.75 v -10.85 h -16.5 v 3.15 h 12.7 v 4.65 h -12.75 v 11.55 h 2.85 c 5.85,0 11.85,-0.45 16.5,-1.35 l -0.5,-3.05"
     id="path97" />
  <path
     class="Lyrics"
     d="m 802.552,1097.6 h -6.65 v -6.25 h 6.65 v -3.2 h -6.65 v -6.75 h -3.8 v 26.35 h 3.8 v -7 h 6.65 v -3.15 m -6.3,19 c 0,-4.95 -4.95,-8.4 -14.5,-8.4 -9.5,0 -14.4,3.35 -14.4,8.4 0,5 4.9,8.4 14.4,8.4 9.55,0 14.5,-3.4 14.5,-8.4 m -14.5,-5.25 c 6.6,0 10.6,2.05 10.6,5.25 0,3.25 -4,5.25 -10.6,5.25 -6.6,0 -10.5,-2.1 -10.5,-5.25 0,-3.15 3.9,-5.25 10.5,-5.25 m -7.65,-27.55 c -6.25,0 -11.35,4.2 -11.35,10.55 0,6.4 5.1,10.35 11.35,10.35 6.2,0 11.3,-3.95 11.3,-10.4 0,-6.3 -5.1,-10.5 -11.3,-10.5 m 0,3.1 c 4.6,0 7.65,3.1 7.65,7.45 0,4.3 -3.1,7.25 -7.65,7.25 -4.4,0 -7.65,-2.95 -7.65,-7.3 0,-4.3 3.25,-7.4 7.65,-7.4"
     id="path98" />
  <path
     class="Lyrics"
     d="m 1287.55,1094.3 v -3.2 h -6.65 v -9.7 h -3.8 v 22.35 h 3.8 v -9.45 h 6.65 m -5.05,30.45 v -3.2 h -25.55 v -4.85 h 23.95 v -10.45 h -27.75 v 3.15 h 23.95 v 4.4 h -23.95 v 10.95 h 29.35 m -23.3,-41.85 c -6.25,0 -11.25,4.1 -11.25,10 0,6.05 5.1,9.9 11.25,9.9 6.2,0 11.25,-3.9 11.25,-9.9 0,-5.95 -5.05,-10 -11.25,-10 m 0,3.4 c 4.55,0 7.55,2.7 7.55,6.6 0,3.95 -3,6.5 -7.55,6.5 -4.25,0 -7.55,-2.55 -7.55,-6.5 0,-3.95 3.35,-6.6 7.55,-6.6"
     id="path99" />
  <path
     class="Lyrics"
     d="m 1610.03,1100.1 c 0,9.3 4.1,15.5 11.2,15.5 7.1,0 11.15,-6.2 11.15,-15.45 0,-9.25 -4.05,-15.45 -11.15,-15.45 -7.1,0 -11.2,6.2 -11.2,15.4 m 18.65,0.05 c 0,7.15 -2.9,12.15 -7.45,12.15 -4.55,0 -7.5,-5 -7.5,-12.15 0,-7.2 2.95,-12.15 7.5,-12.15 4.55,0 7.45,4.95 7.45,12.15 m 21.45,-7.75 h -7.65 v -11 h -3.8 v 43.7 h 3.8 v -16.15 h 7.65 v -3.2 h -7.65 v -10.15 h 7.65 v -3.2"
     id="path100" />
  <path
     class="Lyrics"
     d="m 662.169,651.095 v -3.2 h -6.65 v -9.7 h -3.8 v 22.35 h 3.8 v -9.45 h 6.65 m -5.05,30.45 v -3.2 h -25.55 v -4.85 h 23.95 v -10.45 h -27.75 v 3.15 h 23.95 v 4.4 h -23.95 v 10.95 h 29.35 m -23.3,-41.85 c -6.25,0 -11.25,4.1 -11.25,10 0,6.05 5.1,9.9 11.25,9.9 6.2,0 11.25,-3.9 11.25,-9.9 0,-5.95 -5.05,-10 -11.25,-10 m 0,3.4 c 4.55,0 7.55,2.7 7.55,6.6 0,3.95 -3,6.5 -7.55,6.5 -4.25,0 -7.55,-2.55 -7.55,-6.5 0,-3.95 3.35,-6.6 7.55,-6.6"
     id="path101" />
  <path
     class="Lyrics"
     d="m 739.636,661.295 v -23.1 h -3.8 v 23.1 h 3.8 m -11.75,-9.95 v 9.55 h 3.7 v -21.9 h -3.7 v 9.2 h -5.15 v 3.15 h 5.15 m 13.35,30.1 v -3.2 h -26.65 v -4.45 h 25.05 v -10.25 h -28.95 v 3.15 h 25.1 v 4.2 h -25.05 v 10.55 h 30.5 m -17.8,-25.6 c -4.15,0.95 -10.1,1.3 -15.05,1.3 v -5.4 h 12.75 v -10.85 h -16.5 v 3.15 h 12.7 v 4.65 h -12.75 v 11.55 h 2.85 c 5.85,0 11.85,-0.45 16.5,-1.35 l -0.5,-3.05"
     id="path102" />
  <path
     class="Lyrics"
     d="m 1161.88,651.095 v -3.2 h -6.65 v -9.7 h -3.8 v 22.35 h 3.8 v -9.45 h 6.65 m -5.05,30.45 v -3.2 h -25.55 v -4.85 h 23.95 v -10.45 h -27.75 v 3.15 h 23.95 v 4.4 h -23.95 v 10.95 h 29.35 m -23.3,-41.85 c -6.25,0 -11.25,4.1 -11.25,10 0,6.05 5.1,9.9 11.25,9.9 6.2,0 11.25,-3.9 11.25,-9.9 0,-5.95 -5.05,-10 -11.25,-10 m 0,3.4 c 4.55,0 7.55,2.7 7.55,6.6 0,3.95 -3,6.5 -7.55,6.5 -4.25,0 -7.55,-2.55 -7.55,-6.5 0,-3.95 3.35,-6.6 7.55,-6.6"
     id="path103" />
  <path
     class="Lyrics"
     d="m 1361.11,1104.5 v -23.1 h -3.8 v 23.1 h 3.8 m -11.75,-9.95 v 9.55 h 3.7 v -21.9 h -3.7 v 9.2 h -5.15 v 3.15 h 5.15 m 13.35,30.1 v -3.2 h -26.65 V 1117 h 25.05 v -10.25 h -28.95 v 3.15 h 25.1 v 4.2 h -25.05 v 10.55 h 30.5 m -17.8,-25.6 c -4.15,0.95 -10.1,1.3 -15.05,1.3 v -5.4 h 12.75 v -10.85 h -16.5 v 3.15 h 12.7 v 4.65 h -12.75 v 11.55 h 2.85 c 5.85,0 11.85,-0.45 16.5,-1.35 l -0.5,-3.05"
     id="path104" />
  <path
     class="Lyrics"
     d="m 1832.92,655.795 c -6.7,-0.75 -15.65,-5.2 -15.85,-11.35 h 14.05 v -3.15 h -32.2 v 3.15 h 14.15 c -0.2,6.1 -8.65,10.7 -15.8,11.45 l 1.75,3.2 c 7.45,-1.25 14.25,-5.75 16,-9.85 2,4.1 8.95,8.5 16.1,9.75 l 1.8,-3.2 m -16.05,26.1 v -15.65 h 17.9 v -3.2 h -39.45 v 3.2 h 17.75 v 15.65 h 3.8"
     id="path105" />
  <path
     class="Lyrics"
     d="m 1001.24,656.895 c 0,9.3 4.1,15.5 11.2,15.5 7.1,0 11.15,-6.2 11.15,-15.45 0,-9.25 -4.05,-15.45 -11.15,-15.45 -7.1,0 -11.2,6.2 -11.2,15.4 m 18.65,0.05 c 0,7.15 -2.9,12.15 -7.45,12.15 -4.55,0 -7.5,-5 -7.5,-12.15 0,-7.2 2.95,-12.15 7.5,-12.15 4.55,0 7.45,4.95 7.45,12.15 m 21.45,-7.75 h -7.65 v -11 h -3.8 v 43.7 h 3.8 v -16.15 h 7.65 v -3.2 h -7.65 v -10.15 h 7.65 v -3.2"
     id="path106" />
  <path
     class="Lyrics"
     d="m 1473.73,1103.05 v -3.2 h -27.1 v -5.4 h 25.9 v -11.25 h -29.8 v 3.2 h 26 v 4.9 h -25.9 v 11.75 h 30.9 m -14.2,21.7 v -13.9 h 17.9 v -3.2 h -39.45 v 3.2 h 17.75 v 13.9 h 3.8"
     id="path107" />
  <path
     class="Lyrics"
     d="m 856.154,659.845 v -3.2 h -27.1 v -5.4 h 25.9 v -11.25 h -29.8 v 3.2 h 26 v 4.9 h -25.9 v 11.75 h 30.9 m -14.2,21.7 v -13.9 h 17.9 v -3.2 h -39.45 v 3.2 h 17.75 v 13.9 h 3.8"
     id="path108" />
  <path
     class="StaffText"
     d="m 843.288,414.4 h -2.1 l -11.5,29.15 c -1.35,3.9 -2.65,5.1 -5.5,5.3 h -0.2 v 2.35 h 13.25 v -2.35 h -1 c -2.7,0 -4.05,-0.95 -4.05,-2.85 0,-0.65 0.15,-1.25 0.45,-2.1 l 1.65,-4.4 h 13.25 l 2.7,6.7 c 0.3,0.8 0.4,1.1 0.4,1.35 0,0.8 -1.25,1.3 -3.1,1.3 h -2.1 v 2.35 h 15.5 v -2.35 h -0.7 c -2.6,-0.05 -3.05,-0.35 -4.2,-3.2 l -12.75,-31.25 m -2.45,8.2 5.65,14.2 h -11.2 l 5.55,-14.2"
     id="path109" />
  <path
     class="StaffText"
     d="m 1460.86,857.6 h -2.1 l -11.5,29.15 c -1.35,3.9 -2.65,5.1 -5.5,5.3 h -0.2 v 2.35 h 13.25 v -2.35 h -1 c -2.7,0 -4.05,-0.95 -4.05,-2.85 0,-0.65 0.15,-1.25 0.45,-2.1 l 1.65,-4.4 h 13.25 l 2.7,6.7 c 0.3,0.8 0.4,1.1 0.4,1.35 0,0.8 -1.25,1.3 -3.1,1.3 h -2.1 v 2.35 h 15.5 v -2.35 h -0.7 c -2.6,-0.05 -3.05,-0.35 -4.2,-3.2 l -12.75,-31.25 m -2.45,8.2 5.65,14.2 h -11.2 l 5.55,-14.2"
     id="path110" />
  <path
     class="StaffText"
     d="m 1156.02,415.1 h -30.05 v 2.35 h 0.9 c 2.85,0.05 3.8,0.2 4.2,0.7 0.3,0.45 0.3,0.55 0.3,3.1 v 23.8 c 0,2.55 0,2.65 -0.3,3.1 -0.4,0.5 -1.35,0.7 -4.2,0.7 h -0.9 v 2.35 h 30.7 l 1,-13.35 h -2.2 c -1.9,8.9 -3.95,10.8 -11.6,11 h -3.3 c -3,-0.1 -3.75,-0.6 -3.6,-2.4 V 433.7 h 1 c 5.15,-0.2 7,1.65 7.2,7.2 h 2.35 v -16.4 h -2.35 c -0.3,4.9 -2.25,6.85 -7,6.85 h -1.2 v -11.4 c -0.05,-2.1 0.45,-2.45 3.15,-2.5 h 2.6 c 8.2,-0.05 10.25,1.75 11.85,10.4 h 2.15 l -0.7,-12.75 m 16.79,-0.7 -13.35,37.5 h 2.9 l 13.35,-37.5 h -2.9 m 34.19,0.35 h -1.9 l -1.95,3 c -3.25,-2.55 -5.45,-3.4 -9.1,-3.4 -3.95,0 -7.05,1.1 -10.2,3.65 -4.95,4 -7.25,9.05 -7.25,15.8 0,5.1 1.45,9.35 4.4,12.6 3.1,3.5 7.7,5.55 12.5,5.55 4.2,0 7.15,-1.3 10.4,-4.55 l 1.85,4.5 h 2.1 v -11 c 0,-2.55 0,-2.65 0.3,-3.1 0.45,-0.55 1.35,-0.7 4.2,-0.7 h 0.75 v -2.35 h -15.9 v 2.35 h 0.95 c 4.2,0 4.55,0.25 4.55,3.05 0,2.15 -0.35,4.1 -1,5.3 -1.25,2.45 -4.45,4.15 -7.7,4.15 -3.25,0 -6.45,-1.65 -8.15,-4.15 -1.85,-2.8 -2.65,-6.3 -2.65,-11.65 0,-11.15 3.7,-17.1 10.65,-17.1 5.7,0 9.65,4.1 11.7,12.1 h 2.15 l -0.7,-14.05 m 13.15,25.05 -1.65,11.4 h 3.25 l 1.65,-11.4 h 6.15 l -1.65,11.4 h 3.25 l 1.65,-11.4 h 5.45 V 437 h -5.05 l 0.95,-6.6 h 5.45 v -2.8 h -5.05 l 1.55,-10.7 h -3.25 l -1.55,10.7 h -6.15 l 1.55,-10.7 h -3.25 l -1.55,10.7 h -5.5 v 2.8 h 5.1 l -0.95,6.6 h -5.5 v 2.8 h 5.1 m 4.6,-9.4 h 6.15 l -0.95,6.6 h -6.15 l 0.95,-6.6"
     id="path111" />
  <path
     class="StaffText"
     d="m 1281.69,809.119 h -30.05 v 2.35 h 0.9 c 2.85,0.05 3.8,0.2 4.2,0.7 0.3,0.45 0.3,0.55 0.3,3.1 v 23.8 c 0,2.55 0,2.65 -0.3,3.1 -0.4,0.5 -1.35,0.7 -4.2,0.7 h -0.9 v 2.35 h 30.7 l 1,-13.35 h -2.2 c -1.9,8.9 -3.95,10.8 -11.6,11 h -3.3 c -3,-0.1 -3.75,-0.6 -3.6,-2.4 v -12.75 h 1 c 5.15,-0.2 7,1.65 7.2,7.2 h 2.35 v -16.4 h -2.35 c -0.3,4.9 -2.25,6.85 -7,6.85 h -1.2 v -11.4 c -0.05,-2.1 0.45,-2.45 3.15,-2.5 h 2.6 c 8.2,-0.05 10.25,1.75 11.85,10.4 h 2.15 l -0.7,-12.75 m 7.54,13 2.2,0.35 0.9,-3.95 c 0.75,-3.3 1.1,-3.8 2.55,-3.8 0.25,0 0.65,0 1.1,0.05 6.15,0.3 6.15,0.3 8.45,0.3 0.65,0 1.8,0 3.2,-0.05 l -3.4,6.85 c -3.7,7.35 -4.15,8.25 -5.4,11.35 -1.55,3.75 -2.35,6.9 -2.35,9 0,2.3 1.2,3.7 3.15,3.7 2.4,0 3.35,-1.6 3.3,-5.95 -0.25,-7.2 0.65,-10.7 6,-22.4 0.9,-1.95 1.85,-3.95 2.75,-5.9 v -1.45 c -3,0.25 -4.6,0.35 -7.7,0.35 -4.35,0 -7.8,-0.15 -13.2,-0.55 l -1.55,12.1"
     id="path112" />
  <path
     class="StaffText"
     d="m 1251.64,894.4 h 16.8 c 4.45,0 7.85,-0.7 10.5,-2.2 5.05,-2.85 7.85,-8.55 7.85,-16.05 0,-6.9 -2.5,-12.3 -7.1,-15.3 -2.75,-1.75 -6.45,-2.55 -12.15,-2.55 h -15.9 v 2.35 h 0.95 c 2.8,0.05 3.75,0.2 4.15,0.7 0.3,0.45 0.3,0.55 0.3,3.1 v 23.8 c 0,2.55 0,2.65 -0.3,3.1 -0.4,0.5 -1.35,0.65 -4.15,0.7 h -0.95 v 2.35 m 13.85,-2.35 c -2.55,0 -2.85,-0.3 -2.85,-2.75 v -25.85 c 0,-2.45 0.35,-2.8 2.85,-2.8 h 2.6 c 8.55,0 12.1,4.65 12.1,15.7 0,11.2 -3.2,15.7 -11.3,15.7 h -3.4"
     id="path113" />
  <path
     class="StaffText"
     d="m 1644.03,858.3 h -30.05 v 2.35 h 0.9 c 2.85,0.05 3.8,0.2 4.2,0.7 0.3,0.45 0.3,0.55 0.3,3.1 v 23.8 c 0,2.55 0,2.65 -0.3,3.1 -0.4,0.5 -1.35,0.7 -4.2,0.7 h -0.9 v 2.35 h 30.7 l 1,-13.35 h -2.2 c -1.9,8.9 -3.95,10.8 -11.6,11 h -3.3 c -3,-0.1 -3.75,-0.6 -3.6,-2.4 V 876.9 h 1 c 5.15,-0.2 7,1.65 7.2,7.2 h 2.35 v -16.4 h -2.35 c -0.3,4.9 -2.25,6.85 -7,6.85 h -1.2 v -11.4 c -0.05,-2.1 0.45,-2.45 3.15,-2.5 h 2.6 c 8.2,-0.05 10.25,1.75 11.85,10.4 h 2.15 l -0.7,-12.75 m 16.79,-0.7 -13.35,37.5 h 2.9 l 13.35,-37.5 h -2.9 m 34.19,0.35 h -1.9 l -1.95,3 c -3.25,-2.55 -5.45,-3.4 -9.1,-3.4 -3.95,0 -7.05,1.1 -10.2,3.65 -4.95,4 -7.25,9.05 -7.25,15.8 0,5.1 1.45,9.35 4.4,12.6 3.1,3.5 7.7,5.55 12.5,5.55 4.2,0 7.15,-1.3 10.4,-4.55 l 1.85,4.5 h 2.1 v -11 c 0,-2.55 0,-2.65 0.3,-3.1 0.45,-0.55 1.35,-0.7 4.2,-0.7 h 0.75 v -2.35 h -15.9 v 2.35 h 0.95 c 4.2,0 4.55,0.25 4.55,3.05 0,2.15 -0.35,4.1 -1,5.3 -1.25,2.45 -4.45,4.15 -7.7,4.15 -3.25,0 -6.45,-1.65 -8.15,-4.15 -1.85,-2.8 -2.65,-6.3 -2.65,-11.65 0,-11.15 3.7,-17.1 10.65,-17.1 5.7,0 9.65,4.1 11.7,12.1 h 2.15 l -0.7,-14.05 m 13.14,25.05 -1.65,11.4 h 3.25 l 1.65,-11.4 h 6.15 l -1.65,11.4 h 3.25 l 1.65,-11.4 h 5.45 v -2.8 h -5.05 l 0.95,-6.6 h 5.45 v -2.8 h -5.05 l 1.55,-10.7 h -3.25 l -1.55,10.7 h -6.15 l 1.55,-10.7 h -3.25 l -1.55,10.7 h -5.5 v 2.8 h 5.1 l -0.95,6.6 h -5.5 v 2.8 h 5.1 m 4.6,-9.4 h 6.15 l -0.95,6.6 h -6.15 l 0.95,-6.6"
     id="path114" />
  <path
     class="StaffText"
     d="m 460.053,894.4 h 16.8 c 4.45,0 7.85,-0.7 10.5,-2.2 5.05,-2.85 7.85,-8.55 7.85,-16.05 0,-6.9 -2.5,-12.3 -7.1,-15.3 -2.75,-1.75 -6.45,-2.55 -12.15,-2.55 h -15.9 v 2.35 h 0.95 c 2.8,0.05 3.75,0.2 4.15,0.7 0.3,0.45 0.3,0.55 0.3,3.1 v 23.8 c 0,2.55 0,2.65 -0.3,3.1 -0.4,0.5 -1.35,0.65 -4.15,0.7 h -0.95 v 2.35 m 13.85,-2.35 c -2.55,0 -2.85,-0.3 -2.85,-2.75 v -25.85 c 0,-2.45 0.35,-2.8 2.85,-2.8 h 2.6 c 8.55,0 12.1,4.65 12.1,15.7 0,11.2 -3.2,15.7 -11.3,15.7 h -3.4"
     id="path115" />
  <path
     class="StaffText"
     d="m 719.963,858.3 h -30.05 v 2.35 h 0.9 c 2.85,0.05 3.8,0.2 4.2,0.7 0.3,0.45 0.3,0.55 0.3,3.1 v 23.8 c 0,2.55 0,2.65 -0.3,3.1 -0.4,0.5 -1.35,0.7 -4.2,0.7 h -0.9 v 2.35 h 30.7 l 1,-13.35 h -2.2 c -1.9,8.9 -3.95,10.8 -11.6,11 h -3.3 c -3,-0.1 -3.75,-0.6 -3.6,-2.4 V 876.9 h 1 c 5.15,-0.2 7,1.65 7.2,7.2 h 2.35 v -16.4 h -2.35 c -0.3,4.9 -2.25,6.85 -7,6.85 h -1.2 v -11.4 c -0.05,-2.1 0.45,-2.45 3.15,-2.5 h 2.6 c 8.2,-0.05 10.25,1.75 11.85,10.4 h 2.15 l -0.7,-12.75"
     id="path116" />
  <path
     class="StaffText"
     d="m 1665.09,414.4 h -2.1 l -11.5,29.15 c -1.35,3.9 -2.65,5.1 -5.5,5.3 h -0.2 v 2.35 h 13.25 v -2.35 h -1 c -2.7,0 -4.05,-0.95 -4.05,-2.85 0,-0.65 0.15,-1.25 0.45,-2.1 l 1.65,-4.4 h 13.25 l 2.7,6.7 c 0.3,0.8 0.4,1.1 0.4,1.35 0,0.8 -1.25,1.3 -3.1,1.3 h -2.1 v 2.35 h 15.5 v -2.35 h -0.7 c -2.6,-0.05 -3.05,-0.35 -4.2,-3.2 l -12.75,-31.25 m -2.45,8.2 5.65,14.2 h -11.2 l 5.55,-14.2 m 31.84,-8.2 -13.35,37.5 h 2.9 l 13.35,-37.5 h -2.9 m 35.29,0.7 h -30.05 v 2.35 h 0.9 c 2.85,0.05 3.8,0.2 4.2,0.7 0.3,0.45 0.3,0.55 0.3,3.1 v 23.8 c 0,2.55 0,2.65 -0.3,3.1 -0.4,0.5 -1.35,0.7 -4.2,0.7 h -0.9 v 2.35 h 30.7 l 1,-13.35 h -2.2 c -1.9,8.9 -3.95,10.8 -11.6,11 h -3.3 c -3,-0.1 -3.75,-0.6 -3.6,-2.4 V 433.7 h 1 c 5.15,-0.2 7,1.65 7.2,7.2 h 2.35 v -16.4 h -2.35 c -0.3,4.9 -2.25,6.85 -7,6.85 h -1.2 v -11.4 c -0.05,-2.1 0.45,-2.45 3.15,-2.5 h 2.6 c 8.2,-0.05 10.25,1.75 11.85,10.4 h 2.15 l -0.7,-12.75"
     id="path117" />
  <path
     class="StaffText"
     d="m 1052.38,857.6 h -2.1 l -11.5,29.15 c -1.35,3.9 -2.65,5.1 -5.5,5.3 h -0.2 v 2.35 h 13.25 v -2.35 h -1 c -2.7,0 -4.05,-0.95 -4.05,-2.85 0,-0.65 0.15,-1.25 0.45,-2.1 l 1.65,-4.4 h 13.25 l 2.7,6.7 c 0.3,0.8 0.4,1.1 0.4,1.35 0,0.8 -1.25,1.3 -3.1,1.3 h -2.1 v 2.35 h 15.5 v -2.35 h -0.7 c -2.6,-0.05 -3.05,-0.35 -4.2,-3.2 l -12.75,-31.25 m -2.45,8.2 5.65,14.2 h -11.2 l 5.55,-14.2"
     id="path118" />
  <path
     class="StaffText"
     d="m 1353.47,406.418 h -29.75 v 2.35 h 0.9 c 2.85,0.05 3.8,0.2 4.2,0.7 0.3,0.45 0.3,0.55 0.3,3.1 v 23.8 c 0,2.55 0,2.65 -0.3,3.1 -0.4,0.5 -1.35,0.7 -4.2,0.7 h -0.9 v 2.35 h 17.15 v -2.35 h -1.65 c -2.85,0 -3.8,-0.2 -4.2,-0.7 -0.3,-0.45 -0.3,-0.6 -0.3,-3.1 v -11.35 h 1 c 5.15,-0.2 7,1.65 7.2,7.2 h 2.35 v -16.4 h -2.35 c -0.3,4.9 -2.25,6.8 -7,6.85 h -1.2 v -11.4 c -0.05,-2.1 0.45,-2.45 3.15,-2.5 h 2.3 c 8.2,-0.05 10.25,1.8 11.8,10.4 h 2.2 l -0.7,-12.75 m 8.89,24.7 -1.65,11.4 h 3.25 l 1.65,-11.4 h 6.15 l -1.65,11.4 h 3.25 l 1.65,-11.4 h 5.45 v -2.8 h -5.05 l 0.95,-6.6 h 5.45 v -2.8 h -5.05 l 1.55,-10.7 h -3.25 l -1.55,10.7 h -6.15 l 1.55,-10.7 h -3.25 l -1.55,10.7 h -5.5 v 2.8 h 5.1 l -0.95,6.6 h -5.5 v 2.8 h 5.1 m 4.6,-9.4 h 6.15 l -0.95,6.6 h -6.15 l 0.95,-6.6 m 26.5,-2.5 -8.9,0.55 v 2.15 h 2.05 c 1.9,0.05 2.15,0.35 2.15,2.5 v 14.3 c -0.05,0.75 -0.1,1.05 -0.3,1.3 -0.35,0.45 -1.3,0.65 -3.45,0.7 h -0.2 v 1.8 h 12.6 v -1.8 h -0.2 c -3.3,-0.1 -3.75,-0.35 -3.75,-2.2 v -9.25 c 0,-4.45 2.45,-7.75 5.7,-7.75 2.85,0 4.3,2.05 4.3,6.1 v 11.15 c -0.05,0.65 -0.1,1 -0.35,1.25 -0.3,0.45 -1.3,0.65 -3.45,0.7 h -0.2 v 1.8 h 12.65 v -1.8 h -0.2 c -3.3,-0.1 -3.75,-0.35 -3.75,-2.15 v -8.85 c 0,-5 2.25,-8.2 5.75,-8.2 2.85,0 4.25,2.15 4.25,6.65 v 10.55 c -0.05,0.7 -0.1,1.05 -0.35,1.3 -0.3,0.45 -1.3,0.65 -3.45,0.7 h -0.2 v 1.8 h 12.65 v -1.8 h -0.2 c -3.3,-0.1 -3.75,-0.35 -3.75,-2.2 v -11.35 c 0,-3.1 -0.3,-4.15 -1.6,-5.85 -1.45,-1.85 -3.5,-2.85 -5.9,-2.85 -3.25,0 -5.65,1.55 -7.8,5 -0.85,-3 -3.55,-5 -6.9,-5 -3.05,0 -5.25,1.45 -7.2,4.6 v -3.85"
     id="path119" />
  <path
     class="NoteDot"
     d="m 1077.72,956.4 c 0,2.7776 2.1824,4.96 4.96,4.96 2.7776,0 4.96,-2.1824 4.96,-4.96 0,-2.7776 -2.1824,-4.96 -4.96,-4.96 -2.7776,0 -4.96,2.1824 -4.96,4.96"
     id="path120"
     style="stroke-width:0.992" />
  <path
     class="NoteDot"
     d="m 1690.43,513.2 c 0,2.7776 2.1824,4.96 4.96,4.96 2.7776,0 4.96,-2.1824 4.96,-4.96 0,-2.7776 -2.1824,-4.96 -4.96,-4.96 -2.7776,0 -4.96,2.1824 -4.96,4.96"
     id="path121"
     style="stroke-width:0.992" />
</svg>
