<?xml version="1.0" encoding="UTF-8" standalone="no"?>
<svg
   width="2098.8px"
   height="1418.4px"
   viewBox="0 0 2098.8 1418.4"
   version="1.2"
   id="svg122"
   sodipodi:docname="복음환호송-2.svg"
   inkscape:version="1.3.2 (091e20e, 2023-11-25)"
   xmlns:inkscape="http://www.inkscape.org/namespaces/inkscape"
   xmlns:sodipodi="http://sodipodi.sourceforge.net/DTD/sodipodi-0.dtd"
   xmlns="http://www.w3.org/2000/svg"
   xmlns:svg="http://www.w3.org/2000/svg">
  <defs
     id="defs122" />
  <sodipodi:namedview
     id="namedview122"
     pagecolor="#ffffff"
     bordercolor="#000000"
     borderopacity="0.25"
     inkscape:showpageshadow="2"
     inkscape:pageopacity="0.0"
     inkscape:pagecheckerboard="0"
     inkscape:deskcolor="#d1d1d1"
     inkscape:zoom="0.16638466"
     inkscape:cx="1301.2017"
     inkscape:cy="841.42374"
     inkscape:window-width="1312"
     inkscape:window-height="449"
     inkscape:window-x="0"
     inkscape:window-y="25"
     inkscape:window-maximized="0"
     inkscape:current-layer="svg122" />
  <title
     id="title1">3 알렐루야.musicxml (2)</title>
  <desc
     id="desc1">Generated by MuseScore 4.2.1</desc>
  <polyline
     class="StaffLines"
     fill="none"
     stroke="#000000"
     stroke-width="2.73"
     stroke-linejoin="bevel"
     points="212.598,314 1886.6,314"
     id="polyline1"
     transform="translate(0,42)" />
  <polyline
     class="StaffLines"
     fill="none"
     stroke="#000000"
     stroke-width="2.73"
     stroke-linejoin="bevel"
     points="212.598,338.8 1886.6,338.8"
     id="polyline2"
     transform="translate(0,42)" />
  <polyline
     class="StaffLines"
     fill="none"
     stroke="#000000"
     stroke-width="2.73"
     stroke-linejoin="bevel"
     points="212.598,363.6 1886.6,363.6"
     id="polyline3"
     transform="translate(0,42)" />
  <polyline
     class="StaffLines"
     fill="none"
     stroke="#000000"
     stroke-width="2.73"
     stroke-linejoin="bevel"
     points="212.598,388.4 1886.6,388.4"
     id="polyline4"
     transform="translate(0,42)" />
  <polyline
     class="StaffLines"
     fill="none"
     stroke="#000000"
     stroke-width="2.73"
     stroke-linejoin="bevel"
     points="212.598,413.2 1886.6,413.2"
     id="polyline5"
     transform="translate(0,42)" />
  <polyline
     class="StaffLines"
     fill="none"
     stroke="#000000"
     stroke-width="2.73"
     stroke-linejoin="bevel"
     points="212.598,921.6 1886.6,921.6"
     id="polyline6"
     transform="translate(0,-78)" />
  <polyline
     class="StaffLines"
     fill="none"
     stroke="#000000"
     stroke-width="2.73"
     stroke-linejoin="bevel"
     points="212.598,946.4 1886.6,946.4"
     id="polyline7"
     transform="translate(0,-78)" />
  <polyline
     class="StaffLines"
     fill="none"
     stroke="#000000"
     stroke-width="2.73"
     stroke-linejoin="bevel"
     points="212.598,971.2 1886.6,971.2"
     id="polyline8"
     transform="translate(0,-78)" />
  <polyline
     class="StaffLines"
     fill="none"
     stroke="#000000"
     stroke-width="2.73"
     stroke-linejoin="bevel"
     points="212.598,996 1886.6,996"
     id="polyline9"
     transform="translate(0,-78)" />
  <polyline
     class="StaffLines"
     fill="none"
     stroke="#000000"
     stroke-width="2.73"
     stroke-linejoin="bevel"
     points="212.598,1020.8 1886.6,1020.8"
     id="polyline10"
     transform="translate(0,-78)" />
  <path
     class="MeasureNumber"
     d="m 232.288,278.24 c -2.12,0.24 -4.72,0.4 -6.96,0.4 -1.12,0 -2.4,-0.04 -3.84,-0.12 -1.32,-0.08 -2.64,-0.16 -4,-0.24 l -1,-0.04 -3.88,8.44 1.48,0.48 0.96,-1.6 c 1.88,-3.12 2.76,-3.56 6.84,-3.52 h 6.76 l -4.36,6.24 c -5.12,7.2 -5.12,7.2 -7.08,10.4 -1.76,2.84 -2.48,4.6 -2.48,6.04 0,1.4 0.88,2.28 2.28,2.28 1.48,0 2.24,-0.72 2.76,-2.6 2,-7.52 3.2,-10.12 8.76,-19.12 l 3.76,-5.84 v -1.2"
     id="path10" />
  <path
     class="MeasureNumber"
     d="m 228.958,765.68 h -1.16 c -2.2,1.64 -6.44,3.04 -9.32,3.04 l -0.48,1.76 h 2.76 c 2.44,0 2.72,0.08 2.72,0.8 0,0.36 0,0.36 -0.4,1.8 l -4.28,16 c -0.52,2 -0.56,2.12 -0.92,2.48 -0.4,0.4 -1.24,0.52 -3.36,0.56 h -1.72 l -0.2,1.88 h 14.8 l 0.24,-1.88 h -2.16 c -2.6,0 -3.16,-0.2 -3.16,-1.08 0,-0.28 0.16,-1.2 0.36,-1.96 l 6.28,-23.4 m 17.915,0.16 c -8.6,0 -12.88,11.84 -12.88,18.88 0,5.8 2.88,9.88 6.96,9.88 6.84,0 12.96,-8.88 12.96,-18.8 0,-5.96 -2.84,-9.96 -7.04,-9.96 m -0.04,1.6 c 2.08,0 3.2,1.84 3.2,5.28 0,3.92 -1,9 -2.64,13.12 -1.92,5 -3.84,7.16 -6.24,7.16 -2.16,0 -3.36,-1.92 -3.36,-5.32 0,-5.2 1.84,-12.16 4.4,-16.8 1.24,-2.24 2.84,-3.44 4.64,-3.44"
     id="path11" />
  <polyline
     class="BarLine"
     fill="none"
     stroke="#000000"
     stroke-width="4.46"
     stroke-linejoin="bevel"
     points="1884.37,312.636 1884.37,414.564"
     id="polyline11"
     transform="translate(0,42)" />
  <polyline
     class="BarLine"
     fill="none"
     stroke="#000000"
     stroke-width="4.46"
     stroke-linejoin="bevel"
     points="1861.55,920.236 1861.55,1022.16"
     id="polyline12"
     transform="translate(0,-78)" />
  <polyline
     class="BarLine"
     fill="none"
     stroke="#000000"
     stroke-width="13.64"
     stroke-linejoin="bevel"
     points="1879.78,920.236 1879.78,1022.16"
     id="polyline13"
     transform="translate(0,-78)" />
  <polyline
     class="BarLine"
     fill="none"
     stroke="#000000"
     stroke-width="4.46"
     stroke-linejoin="bevel"
     points="1492.6,312.636 1492.6,414.564"
     id="polyline14"
     transform="translate(0,42)" />
  <polyline
     class="BarLine"
     fill="none"
     stroke="#000000"
     stroke-width="4.46"
     stroke-linejoin="bevel"
     points="1205.49,920.236 1205.49,1022.16"
     id="polyline15"
     transform="translate(0,-78)" />
  <polyline
     class="BarLine"
     fill="none"
     stroke="#000000"
     stroke-width="4.46"
     stroke-linejoin="bevel"
     points="961.938,312.636 961.938,414.564"
     id="polyline16"
     transform="translate(0,42)" />
  <polyline
     class="Stem"
     fill="none"
     stroke="#000000"
     stroke-width="2.48"
     stroke-linejoin="bevel"
     points="632.165,372.032 632.165,297.479"
     id="polyline17"
     transform="translate(0,42)" />
  <polyline
     class="Stem"
     fill="none"
     stroke="#000000"
     stroke-width="2.48"
     stroke-linejoin="bevel"
     points="491.033,372.032 491.033,301.564"
     id="polyline18"
     transform="translate(0,42)" />
  <polyline
     class="Stem"
     fill="none"
     stroke="#000000"
     stroke-width="2.48"
     stroke-linejoin="bevel"
     points="1648.21,962.966 1648.21,1039.54"
     id="polyline19"
     transform="translate(0,-78)" />
  <polyline
     class="Stem"
     fill="none"
     stroke="#000000"
     stroke-width="2.48"
     stroke-linejoin="bevel"
     points="702.731,359.632 702.731,295.436"
     id="polyline20"
     transform="translate(0,42)" />
  <polyline
     class="Stem"
     fill="none"
     stroke="#000000"
     stroke-width="2.48"
     stroke-linejoin="bevel"
     points="1829.91,372.032 1829.91,295.598"
     id="polyline21"
     transform="translate(0,42)" />
  <polyline
     class="Stem"
     fill="none"
     stroke="#000000"
     stroke-width="2.48"
     stroke-linejoin="bevel"
     points="461.28,950.566 461.28,1033.2"
     id="polyline22"
     transform="translate(0,-78)" />
  <polyline
     class="Stem"
     fill="none"
     stroke="#000000"
     stroke-width="2.48"
     stroke-linejoin="bevel"
     points="743.545,355.366 743.545,431.8"
     id="polyline23"
     transform="translate(0,42)" />
  <polyline
     class="Stem"
     fill="none"
     stroke="#000000"
     stroke-width="2.48"
     stroke-linejoin="bevel"
     points="620.542,950.566 620.542,1033.2"
     id="polyline24"
     transform="translate(0,-78)" />
  <polyline
     class="Stem"
     fill="none"
     stroke="#000000"
     stroke-width="2.48"
     stroke-linejoin="bevel"
     points="1607.18,1016.83 1607.18,946.4"
     id="polyline25"
     transform="translate(0,-78)" />
  <polyline
     class="Stem"
     fill="none"
     stroke="#000000"
     stroke-width="2.48"
     stroke-linejoin="bevel"
     points="809.556,954.832 809.556,890.672"
     id="polyline26"
     transform="translate(0,-78)" />
  <polyline
     class="Stem"
     fill="none"
     stroke="#000000"
     stroke-width="2.48"
     stroke-linejoin="bevel"
     points="1536.4,1016.83 1536.4,946.4"
     id="polyline27"
     transform="translate(0,-78)" />
  <polyline
     class="Stem"
     fill="none"
     stroke="#000000"
     stroke-width="2.48"
     stroke-linejoin="bevel"
     points="1558.07,372.032 1558.07,295.4"
     id="polyline28"
     transform="translate(0,42)" />
  <polyline
     class="Stem"
     fill="none"
     stroke="#000000"
     stroke-width="2.48"
     stroke-linejoin="bevel"
     points="907.479,372.032 907.479,295.598"
     id="polyline29"
     transform="translate(0,42)" />
  <polyline
     class="Stem"
     fill="none"
     stroke="#000000"
     stroke-width="2.48"
     stroke-linejoin="bevel"
     points="1450.8,384.432 1450.8,301.492"
     id="polyline30"
     transform="translate(0,42)" />
  <polyline
     class="Stem"
     fill="none"
     stroke="#000000"
     stroke-width="2.48"
     stroke-linejoin="bevel"
     points="1270.96,979.632 1270.96,903"
     id="polyline31"
     transform="translate(0,-78)" />
  <polyline
     class="Stem"
     fill="none"
     stroke="#000000"
     stroke-width="2.48"
     stroke-linejoin="bevel"
     points="915.731,967.232 915.731,896.824"
     id="polyline32"
     transform="translate(0,-78)" />
  <polyline
     class="Stem"
     fill="none"
     stroke="#000000"
     stroke-width="2.48"
     stroke-linejoin="bevel"
     points="1380.23,372.032 1380.23,295.364"
     id="polyline33"
     transform="translate(0,42)" />
  <polyline
     class="Stem"
     fill="none"
     stroke="#000000"
     stroke-width="2.48"
     stroke-linejoin="bevel"
     points="997.65,342.966 997.65,425.6"
     id="polyline34"
     transform="translate(0,42)" />
  <polyline
     class="Stem"
     fill="none"
     stroke="#000000"
     stroke-width="2.48"
     stroke-linejoin="bevel"
     points="1309.67,359.632 1309.67,289.236"
     id="polyline35"
     transform="translate(0,42)" />
  <polyline
     class="Stem"
     fill="none"
     stroke="#000000"
     stroke-width="2.48"
     stroke-linejoin="bevel"
     points="561.599,384.432 561.599,299.521"
     id="polyline36"
     transform="translate(0,42)" />
  <polyline
     class="Stem"
     fill="none"
     stroke="#000000"
     stroke-width="2.48"
     stroke-linejoin="bevel"
     points="1754.38,987.766 1754.38,1051.66"
     id="polyline37"
     transform="translate(0,-78)" />
  <polyline
     class="Stem"
     fill="none"
     stroke="#000000"
     stroke-width="2.48"
     stroke-linejoin="bevel"
     points="1103.5,342.966 1103.5,425.6"
     id="polyline38"
     transform="translate(0,42)" />
  <polyline
     class="Stem"
     fill="none"
     stroke="#000000"
     stroke-width="2.48"
     stroke-linejoin="bevel"
     points="1021.91,979.632 1021.91,902.976"
     id="polyline39"
     transform="translate(0,-78)" />
  <polyline
     class="Stem"
     fill="none"
     stroke="#000000"
     stroke-width="2.48"
     stroke-linejoin="bevel"
     points="1128.08,992.032 1128.08,909.128"
     id="polyline40"
     transform="translate(0,-78)" />
  <polyline
     class="Stem"
     fill="none"
     stroke="#000000"
     stroke-width="2.48"
     stroke-linejoin="bevel"
     points="1239.1,347.232 1239.1,283.108"
     id="polyline41"
     transform="translate(0,42)" />
  <path
     class="Note"
     d="m 1208.11,397.3664 c 0,4.2656 3.0752,9.0272 11.1104,9.0272 10.3168,0 21.1296,-8.432 21.1296,-17.1616 0,-5.8528 -4.96,-9.1264 -11.1104,-9.1264 -9.6224,0 -21.1296,8.1344 -21.1296,17.2608"
     id="path41"
     style="stroke-width:0.992" />
  <path
     class="Note"
     d="m 1097.09,922.1664 c 0,4.2656 3.0752,9.0272 11.1104,9.0272 10.3168,0 21.1296,-8.432 21.1296,-17.1616 0,-5.8528 -4.96,-9.1264 -11.1104,-9.1264 -9.6224,0 -21.1296,8.1344 -21.1296,17.2608"
     id="path42"
     style="stroke-width:0.992" />
  <path
     class="Note"
     d="m 990.913,909.7664 c 0,4.2656 3.0752,9.0272 11.1104,9.0272 10.3168,0 21.1296,-8.432 21.1296,-17.1616 0,-5.8528 -4.96,-9.1264 -11.1104,-9.1264 -9.6224,0 -21.1296,8.1344 -21.1296,17.2608"
     id="path43"
     style="stroke-width:0.992" />
  <path
     class="Note"
     d="m 1102.26,384.9664 c 0,4.2656 3.0752,9.0272 11.1104,9.0272 10.3168,0 21.1296,-8.432 21.1296,-17.1616 0,-5.8528 -4.96,-9.1264 -11.1104,-9.1264 -9.6224,0 -21.1296,8.1344 -21.1296,17.2608"
     id="path44"
     style="stroke-width:0.992" />
  <path
     class="Note"
     d="m 996.41,384.9664 c 0,4.2656 3.0752,9.0272 11.1104,9.0272 10.3168,0 21.1296,-8.432 21.1296,-17.1616 0,-5.8528 -4.96,-9.1264 -11.1104,-9.1264 -9.6224,0 -21.1296,8.1344 -21.1296,17.2608"
     id="path45"
     style="stroke-width:0.992" />
  <path
     class="Note"
     d="m 1278.67,409.7664 c 0,4.2656 3.0752,9.0272 11.1104,9.0272 10.3168,0 21.1296,-8.432 21.1296,-17.1616 0,-5.8528 -4.96,-9.1264 -11.1104,-9.1264 -9.6224,0 -21.1296,8.1344 -21.1296,17.2608"
     id="path46"
     style="stroke-width:0.992" />
  <path
     class="Note"
     d="m 884.739,897.3664 c 0,4.2656 3.0752,9.0272 11.1104,9.0272 10.3168,0 21.1296,-8.432 21.1296,-17.1616 0,-5.8528 -4.96,-9.1264 -11.1104,-9.1264 -9.6224,0 -21.1296,8.1344 -21.1296,17.2608"
     id="path47"
     style="stroke-width:0.992" />
  <path
     class="Note"
     d="m 530.606,434.5664 c 0,4.2656 3.0752,9.0272 11.1104,9.0272 10.3168,0 21.1296,-8.432 21.1296,-17.1616 0,-5.8528 -4.96,-9.1264 -11.1104,-9.1264 -9.6224,0 -21.1296,8.1344 -21.1296,17.2608"
     id="path48"
     style="stroke-width:0.992" />
  <path
     class="Note"
     d="m 1349.24,422.1664 c 0,4.2656 3.0752,9.0272 11.1104,9.0272 10.3168,0 21.1296,-8.432 21.1296,-17.1616 0,-5.8528 -4.96,-9.1264 -11.1104,-9.1264 -9.6224,0 -21.1296,8.1344 -21.1296,17.2608"
     id="path49"
     style="stroke-width:0.992" />
  <path
     class="Note"
     d="m 1646.97,884.9664 c 0,4.2656 3.0752,9.0272 11.1104,9.0272 10.3168,0 21.1296,-8.432 21.1296,-17.1616 0,-5.8528 -4.96,-9.1264 -11.1104,-9.1264 -9.6224,0 -21.1296,8.1344 -21.1296,17.2608"
     id="path50"
     style="stroke-width:0.992" />
  <path
     class="Note"
     d="m 876.486,422.1664 c 0,4.2656 3.0752,9.0272 11.1104,9.0272 10.3168,0 21.1296,-8.432 21.1296,-17.1616 0,-5.8528 -4.96,-9.1264 -11.1104,-9.1264 -9.6224,0 -21.1296,8.1344 -21.1296,17.2608"
     id="path51"
     style="stroke-width:0.992" />
  <path
     class="Note"
     d="m 1419.81,434.5664 c 0,4.2656 3.0752,9.0272 11.1104,9.0272 10.3168,0 21.1296,-8.432 21.1296,-17.1616 0,-5.8528 -4.96,-9.1264 -11.1104,-9.1264 -9.6224,0 -21.1296,8.1344 -21.1296,17.2608"
     id="path52"
     style="stroke-width:0.992" />
  <path
     class="Note"
     d="m 778.564,884.9664 c 0,4.2656 3.0752,9.0272 11.1104,9.0272 10.3168,0 21.1296,-8.432 21.1296,-17.1616 0,-5.8528 -4.96,-9.1264 -11.1104,-9.1264 -9.6224,0 -21.1296,8.1344 -21.1296,17.2608"
     id="path53"
     style="stroke-width:0.992" />
  <path
     class="Note"
     d="m 1753.14,909.7664 c 0,4.2656 3.0752,9.0272 11.1104,9.0272 10.3168,0 21.1296,-8.432 21.1296,-17.1616 0,-5.8528 -4.96,-9.1264 -11.1104,-9.1264 -9.6224,0 -21.1296,8.1344 -21.1296,17.2608"
     id="path54"
     style="stroke-width:0.992" />
  <path
     class="Note"
     d="m 460.04,422.1664 c 0,4.2656 3.0752,9.0272 11.1104,9.0272 10.3168,0 21.1296,-8.432 21.1296,-17.1616 0,-5.8528 -4.96,-9.1264 -11.1104,-9.1264 -9.6224,0 -21.1296,8.1344 -21.1296,17.2608"
     id="path55"
     style="stroke-width:0.992" />
  <path
     class="Note"
     d="m 1239.97,909.7664 c 0,4.2656 3.0752,9.0272 11.1104,9.0272 10.3168,0 21.1296,-8.432 21.1296,-17.1616 0,-5.8528 -4.96,-9.1264 -11.1104,-9.1264 -9.6224,0 -21.1296,8.1344 -21.1296,17.2608"
     id="path56"
     style="stroke-width:0.992" />
  <path
     class="Note"
     d="m 1548.2096,404.9056 c -9.6224,0 -21.1296,8.0352 -21.1296,17.2608 0,4.2656 3.0752,9.0272 11.1104,9.0272 10.3168,0 21.1296,-8.432 21.1296,-17.1616 0,-5.8528 -4.96,-9.1264 -11.1104,-9.1264 m -13.6896,21.6256 c -3.2736,0 -3.968,-2.6784 -3.968,-3.5712 0,-4.8608 16.6656,-13.392 21.328,-13.392 2.3808,0 3.968,1.3888 3.968,3.5712 0,4.96 -16.7648,13.392 -21.328,13.392"
     id="path57"
     style="stroke-width:0.992" />
  <path
     class="Note"
     d="m 1505.4,946.9664 c 0,4.2656 3.0752,9.0272 11.1104,9.0272 10.3168,0 21.1296,-8.432 21.1296,-17.1616 0,-5.8528 -4.96,-9.1264 -11.1104,-9.1264 -9.6224,0 -21.1296,8.1344 -21.1296,17.2608"
     id="path58"
     style="stroke-width:0.992" />
  <path
     class="Note"
     d="m 619.302,872.5664 c 0,4.2656 3.0752,9.0272 11.1104,9.0272 10.3168,0 21.1296,-8.432 21.1296,-17.1616 0,-5.8528 -4.96,-9.1264 -11.1104,-9.1264 -9.6224,0 -21.1296,8.1344 -21.1296,17.2608"
     id="path59"
     style="stroke-width:0.992" />
  <path
     class="Note"
     d="m 742.305,397.3664 c 0,4.2656 3.0752,9.0272 11.1104,9.0272 10.3168,0 21.1296,-8.432 21.1296,-17.1616 0,-5.8528 -4.96,-9.1264 -11.1104,-9.1264 -9.6224,0 -21.1296,8.1344 -21.1296,17.2608"
     id="path60"
     style="stroke-width:0.992" />
  <path
     class="Note"
     d="m 460.04,872.5664 c 0,4.2656 3.0752,9.0272 11.1104,9.0272 10.3168,0 21.1296,-8.432 21.1296,-17.1616 0,-5.8528 -4.96,-9.1264 -11.1104,-9.1264 -9.6224,0 -21.1296,8.1344 -21.1296,17.2608"
     id="path61"
     style="stroke-width:0.992" />
  <path
     class="Note"
     d="m 1576.19,946.9664 c 0,4.2656 3.0752,9.0272 11.1104,9.0272 10.3168,0 21.1296,-8.432 21.1296,-17.1616 0,-5.8528 -4.96,-9.1264 -11.1104,-9.1264 -9.6224,0 -21.1296,8.1344 -21.1296,17.2608"
     id="path62"
     style="stroke-width:0.992" />
  <path
     class="Note"
     d="m 671.739,409.7664 c 0,4.2656 3.0752,9.0272 11.1104,9.0272 10.3168,0 21.1296,-8.432 21.1296,-17.1616 0,-5.8528 -4.96,-9.1264 -11.1104,-9.1264 -9.6224,0 -21.1296,8.1344 -21.1296,17.2608"
     id="path63"
     style="stroke-width:0.992" />
  <path
     class="Note"
     d="m 1798.91,422.1664 c 0,4.2656 3.0752,9.0272 11.1104,9.0272 10.3168,0 21.1296,-8.432 21.1296,-17.1616 0,-5.8528 -4.96,-9.1264 -11.1104,-9.1264 -9.6224,0 -21.1296,8.1344 -21.1296,17.2608"
     id="path64"
     style="stroke-width:0.992" />
  <path
     class="Note"
     d="m 601.172,422.1664 c 0,4.2656 3.0752,9.0272 11.1104,9.0272 10.3168,0 21.1296,-8.432 21.1296,-17.1616 0,-5.8528 -4.96,-9.1264 -11.1104,-9.1264 -9.6224,0 -21.1296,8.1344 -21.1296,17.2608"
     id="path65"
     style="stroke-width:0.992" />
  <path
     class="Clef"
     d="m 243.3996,481.2896 c 0,6.5472 4.96,15.1776 18.352,15.1776 4.6624,0 8.7296,-1.1904 12.3008,-3.3728 5.3568,-3.7696 6.7456,-10.3168 6.7456,-16.5664 0,-3.8688 -0.5952,-8.3328 -1.5872,-13.9872 -0.2976,-1.984 -0.8928,-4.96 -1.488,-8.8288 9.7216,-3.1744 16.9632,-13.2928 16.9632,-23.5104 0,-14.9792 -10.6144,-25.0976 -25.0976,-25.0976 -0.992,-5.952 -1.984,-11.8048 -2.7776,-17.36 10.416,-11.0112 17.6576,-23.4112 17.6576,-39.184 0,-9.0272 -2.7776,-16.368 -4.3648,-19.9392 -2.3808,-5.0592 -5.2576,-8.5312 -7.0432,-8.5312 -0.6944,0 -3.7696,1.1904 -7.0432,5.0592 -6.3488,7.5392 -8.1344,20.2368 -8.1344,28.5696 0,5.3568 0.496,10.2176 2.1824,21.328 -0.0992,0.0992 -5.2576,5.3568 -7.3408,7.0432 -9.0272,8.3328 -21.5264,20.4352 -21.5264,40.2752 0,18.5504 16.1696,33.1328 34.6208,33.1328 2.8768,0 5.5552,-0.2976 7.8368,-0.6944 1.8848,9.5232 3.0752,16.4672 3.0752,21.7248 0,10.3168 -5.3568,15.7728 -15.376,15.7728 -2.3808,0 -4.464,-0.496 -4.6624,-0.496 -0.0992,-0.0992 -0.2976,-0.1984 -0.2976,-0.2976 0,-0.1984 0.1984,-0.2976 0.496,-0.2976 4.6624,-0.7936 9.3248,-4.7616 9.3248,-11.1104 0,-5.3568 -4.0672,-11.0112 -11.5072,-11.0112 -6.944,0 -11.3088,5.6544 -11.3088,12.2016 m 20.7328,-132.432 c 0.8928,-3.968 5.456,-14.384 10.6144,-14.384 1.488,0 3.8688,4.7616 3.8688,11.7056 0,10.3168 -7.6384,18.0544 -14.4832,24.8 -0.5952,-3.968 -1.0912,-7.8368 -1.0912,-12.0032 0,-3.6704 0.2976,-7.0432 1.0912,-10.1184 m 8.7296,101.9776 c -1.984,0.3968 -3.8688,0.5952 -5.7536,0.5952 -14.1856,0 -26.288,-9.92 -26.288,-24.8992 0,-12.1024 8.5312,-22.9152 17.2608,-30.4544 1.6864,-1.488 3.2736,-2.8768 4.7616,-4.3648 0.8928,5.3568 1.5872,10.0192 2.2816,14.0864 -9.0272,2.6784 -15.1776,12.2016 -15.1776,21.5264 0,6.944 5.456,16.4672 13.392,16.4672 0.7936,0 1.6864,-0.3968 1.6864,-1.2896 0,-0.8928 -0.992,-1.3888 -2.1824,-2.1824 -3.8688,-2.3808 -6.0512,-4.96 -6.0512,-9.8208 0,-6.0512 4.5632,-10.912 10.3168,-12.3008 l 5.7536,32.6368 m 14.0864,-18.352 c 0,7.0432 -2.8768,14.2848 -9.92,17.1616 -2.0832,-11.904 -4.7616,-27.6768 -5.456,-32.0416 8.928,0 15.376,6.0512 15.376,14.88"
     id="path66"
     style="stroke-width:0.992" />
  <path
     class="Clef"
     d="m 243.3996,968.8896 c 0,6.5472 4.96,15.1776 18.352,15.1776 4.6624,0 8.7296,-1.1904 12.3008,-3.3728 5.3568,-3.7696 6.7456,-10.3168 6.7456,-16.5664 0,-3.8688 -0.5952,-8.3328 -1.5872,-13.9872 -0.2976,-1.984 -0.8928,-4.96 -1.488,-8.8288 9.7216,-3.1744 16.9632,-13.2928 16.9632,-23.5104 0,-14.9792 -10.6144,-25.0976 -25.0976,-25.0976 -0.992,-5.952 -1.984,-11.8048 -2.7776,-17.36 10.416,-11.0112 17.6576,-23.4112 17.6576,-39.184 0,-9.0272 -2.7776,-16.368 -4.3648,-19.9392 -2.3808,-5.0592 -5.2576,-8.5312 -7.0432,-8.5312 -0.6944,0 -3.7696,1.1904 -7.0432,5.0592 -6.3488,7.5392 -8.1344,20.2368 -8.1344,28.5696 0,5.3568 0.496,10.2176 2.1824,21.328 -0.0992,0.0992 -5.2576,5.3568 -7.3408,7.0432 -9.0272,8.3328 -21.5264,20.4352 -21.5264,40.2752 0,18.5504 16.1696,33.1328 34.6208,33.1328 2.8768,0 5.5552,-0.2976 7.8368,-0.6944 1.8848,9.5232 3.0752,16.4672 3.0752,21.7248 0,10.3168 -5.3568,15.7728 -15.376,15.7728 -2.3808,0 -4.464,-0.496 -4.6624,-0.496 -0.0992,-0.099 -0.2976,-0.1984 -0.2976,-0.2976 0,-0.1984 0.1984,-0.2976 0.496,-0.2976 4.6624,-0.7936 9.3248,-4.7616 9.3248,-11.1104 0,-5.3568 -4.0672,-11.0112 -11.5072,-11.0112 -6.944,0 -11.3088,5.6544 -11.3088,12.2016 m 20.7328,-132.432 c 0.8928,-3.968 5.456,-14.384 10.6144,-14.384 1.488,0 3.8688,4.7616 3.8688,11.7056 0,10.3168 -7.6384,18.0544 -14.4832,24.8 -0.5952,-3.968 -1.0912,-7.8368 -1.0912,-12.0032 0,-3.6704 0.2976,-7.0432 1.0912,-10.1184 m 8.7296,101.9776 c -1.984,0.3968 -3.8688,0.5952 -5.7536,0.5952 -14.1856,0 -26.288,-9.92 -26.288,-24.8992 0,-12.1024 8.5312,-22.9152 17.2608,-30.4544 1.6864,-1.488 3.2736,-2.8768 4.7616,-4.3648 0.8928,5.3568 1.5872,10.0192 2.2816,14.0864 -9.0272,2.6784 -15.1776,12.2016 -15.1776,21.5264 0,6.944 5.456,16.4672 13.392,16.4672 0.7936,0 1.6864,-0.3968 1.6864,-1.2896 0,-0.8928 -0.992,-1.3888 -2.1824,-2.1824 -3.8688,-2.3808 -6.0512,-4.96 -6.0512,-9.8208 0,-6.0512 4.5632,-10.912 10.3168,-12.3008 l 5.7536,32.6368 m 14.0864,-18.352 c 0,7.0432 -2.8768,14.2848 -9.92,17.1616 -2.0832,-11.904 -4.7616,-27.6768 -5.456,-32.0416 8.928,0 15.376,6.0512 15.376,14.88"
     id="path67"
     style="stroke-width:0.992" />
  <path
     class="KeySig"
     d="m 342.5926,833.184 c 0.5952,-0.0992 1.0912,-0.7936 1.0912,-1.3888 v -5.8528 c 0,-0.992 -0.6944,-1.3888 -1.5872,-1.3888 l -3.2736,0.6944 v -14.7808 h -2.7776 v 15.376 l -8.8288,1.7856 v -13.9872 h -2.7776 v 14.5824 l -3.8688,0.7936 c -0.5952,0.0992 -1.0912,0.7936 -1.0912,1.3888 v 5.7536 c 0,1.0912 0.7936,1.3888 1.6864,1.3888 l 3.2736,-0.6944 v 16.368 l -3.8688,0.7936 c -0.5952,0.0992 -1.0912,0.7936 -1.0912,1.3888 v 5.7536 c 0,1.0912 0.7936,1.3888 1.6864,1.3888 l 3.2736,-0.6944 v 14.7808 h 2.7776 v -15.376 l 8.8288,-1.7856 v 13.9872 h 2.7776 v -14.5824 l 3.7696,-0.6944 c 0.5952,-0.0992 1.0912,-0.7936 1.0912,-1.3888 v -5.8528 c 0,-0.992 -0.6944,-1.3888 -1.5872,-1.3888 l -3.2736,0.6944 v -16.368 l 3.7696,-0.6944 m -15.376,3.0752 8.8288,-1.7856 v 16.368 l -8.8288,1.8848 v -16.4672"
     id="path68"
     style="stroke-width:0.992" />
  <path
     class="KeySig"
     d="m 369.7636,870.384 c 0.5952,-0.0992 1.0912,-0.7936 1.0912,-1.3888 v -5.8528 c 0,-0.992 -0.6944,-1.3888 -1.5872,-1.3888 l -3.2736,0.6944 v -14.7808 h -2.7776 v 15.376 l -8.8288,1.7856 V 850.8416 H 351.61 v 14.5824 l -3.8688,0.7936 c -0.5952,0.0992 -1.0912,0.7936 -1.0912,1.3888 v 5.7536 c 0,1.0912 0.7936,1.3888 1.6864,1.3888 l 3.2736,-0.6944 v 16.368 l -3.8688,0.7936 c -0.5952,0.0992 -1.0912,0.7936 -1.0912,1.3888 v 5.7536 c 0,1.0912 0.7936,1.3888 1.6864,1.3888 l 3.2736,-0.6944 v 14.7808 h 2.7776 v -15.376 l 8.8288,-1.7856 v 13.9872 h 2.7776 v -14.5824 l 3.7696,-0.6944 c 0.5952,-0.0992 1.0912,-0.7936 1.0912,-1.3888 v -5.8528 c 0,-0.992 -0.6944,-1.3888 -1.5872,-1.3888 l -3.2736,0.6944 v -16.368 l 3.7696,-0.6944 m -15.376,3.0752 8.8288,-1.7856 v 16.368 l -8.8288,1.8848 v -16.4672"
     id="path69"
     style="stroke-width:0.992" />
  <path
     class="KeySig"
     d="m 396.9356,820.784 c 0.5952,-0.0992 1.0912,-0.7936 1.0912,-1.3888 v -5.8528 c 0,-0.992 -0.6944,-1.3888 -1.5872,-1.3888 l -3.2736,0.6944 v -14.7808 h -2.7776 v 15.376 l -8.8288,1.7856 v -13.9872 h -2.7776 v 14.5824 l -3.8688,0.7936 c -0.5952,0.0992 -1.0912,0.7936 -1.0912,1.3888 v 5.7536 c 0,1.0912 0.7936,1.3888 1.6864,1.3888 l 3.2736,-0.6944 v 16.368 l -3.8688,0.7936 c -0.5952,0.0992 -1.0912,0.7936 -1.0912,1.3888 v 5.7536 c 0,1.0912 0.7936,1.3888 1.6864,1.3888 l 3.2736,-0.6944 v 14.7808 h 2.7776 v -15.376 l 8.8288,-1.7856 v 13.9872 h 2.7776 v -14.5824 l 3.7696,-0.6944 c 0.5952,-0.0992 1.0912,-0.7936 1.0912,-1.3888 v -5.8528 c 0,-0.992 -0.6944,-1.3888 -1.5872,-1.3888 l -3.2736,0.6944 v -16.368 l 3.7696,-0.6944 m -15.376,3.0752 8.8288,-1.7856 v 16.368 l -8.8288,1.8848 v -16.4672"
     id="path70"
     style="stroke-width:0.992" />
  <path
     class="KeySig"
     d="m 342.5926,345.584 c 0.5952,-0.0992 1.0912,-0.7936 1.0912,-1.3888 v -5.8528 c 0,-0.992 -0.6944,-1.3888 -1.5872,-1.3888 l -3.2736,0.6944 v -14.7808 h -2.7776 v 15.376 l -8.8288,1.7856 v -13.9872 h -2.7776 v 14.5824 l -3.8688,0.7936 c -0.5952,0.0992 -1.0912,0.7936 -1.0912,1.3888 v 5.7536 c 0,1.0912 0.7936,1.3888 1.6864,1.3888 l 3.2736,-0.6944 v 16.368 l -3.8688,0.7936 c -0.5952,0.0992 -1.0912,0.7936 -1.0912,1.3888 v 5.7536 c 0,1.0912 0.7936,1.3888 1.6864,1.3888 l 3.2736,-0.6944 v 14.7808 h 2.7776 v -15.376 l 8.8288,-1.7856 v 13.9872 h 2.7776 v -14.5824 l 3.7696,-0.6944 c 0.5952,-0.0992 1.0912,-0.7936 1.0912,-1.3888 v -5.8528 c 0,-0.992 -0.6944,-1.3888 -1.5872,-1.3888 l -3.2736,0.6944 v -16.368 l 3.7696,-0.6944 m -15.376,3.0752 8.8288,-1.7856 v 16.368 l -8.8288,1.8848 v -16.4672"
     id="path71"
     style="stroke-width:0.992" />
  <path
     class="KeySig"
     d="m 369.7636,382.784 c 0.5952,-0.0992 1.0912,-0.7936 1.0912,-1.3888 v -5.8528 c 0,-0.992 -0.6944,-1.3888 -1.5872,-1.3888 l -3.2736,0.6944 v -14.7808 h -2.7776 v 15.376 l -8.8288,1.7856 V 363.2416 H 351.61 v 14.5824 l -3.8688,0.7936 c -0.5952,0.0992 -1.0912,0.7936 -1.0912,1.3888 v 5.7536 c 0,1.0912 0.7936,1.3888 1.6864,1.3888 l 3.2736,-0.6944 v 16.368 l -3.8688,0.7936 c -0.5952,0.0992 -1.0912,0.7936 -1.0912,1.3888 v 5.7536 c 0,1.0912 0.7936,1.3888 1.6864,1.3888 l 3.2736,-0.6944 v 14.7808 h 2.7776 v -15.376 l 8.8288,-1.7856 v 13.9872 h 2.7776 v -14.5824 l 3.7696,-0.6944 c 0.5952,-0.0992 1.0912,-0.7936 1.0912,-1.3888 v -5.8528 c 0,-0.992 -0.6944,-1.3888 -1.5872,-1.3888 l -3.2736,0.6944 v -16.368 l 3.7696,-0.6944 m -15.376,3.0752 8.8288,-1.7856 v 16.368 l -8.8288,1.8848 v -16.4672"
     id="path72"
     style="stroke-width:0.992" />
  <path
     class="KeySig"
     d="m 396.9356,333.184 c 0.5952,-0.0992 1.0912,-0.7936 1.0912,-1.3888 v -5.8528 c 0,-0.992 -0.6944,-1.3888 -1.5872,-1.3888 l -3.2736,0.6944 v -14.7808 h -2.7776 v 15.376 l -8.8288,1.7856 v -13.9872 h -2.7776 v 14.5824 l -3.8688,0.7936 c -0.5952,0.0992 -1.0912,0.7936 -1.0912,1.3888 v 5.7536 c 0,1.0912 0.7936,1.3888 1.6864,1.3888 l 3.2736,-0.6944 v 16.368 l -3.8688,0.7936 c -0.5952,0.0992 -1.0912,0.7936 -1.0912,1.3888 v 5.7536 c 0,1.0912 0.7936,1.3888 1.6864,1.3888 l 3.2736,-0.6944 v 14.7808 h 2.7776 v -15.376 l 8.8288,-1.7856 v 13.9872 h 2.7776 v -14.5824 l 3.7696,-0.6944 c 0.5952,-0.0992 1.0912,-0.7936 1.0912,-1.3888 v -5.8528 c 0,-0.992 -0.6944,-1.3888 -1.5872,-1.3888 l -3.2736,0.6944 v -16.368 l 3.7696,-0.6944 m -15.376,3.0752 8.8288,-1.7856 v 16.368 l -8.8288,1.8848 v -16.4672"
     id="path73"
     style="stroke-width:0.992" />
  <path
     class="Rest"
     d="m 1754.8364,385.4624 c -0.099,0 -0.2976,-0.0992 -0.3968,-0.0992 -0.5952,0 -1.0912,0.2976 -1.2896,0.7936 -2.2816,4.5632 -7.0432,10.7136 -12.4,11.7056 1.0912,-1.2896 1.7856,-2.8768 1.7856,-4.7616 0,-3.8688 -3.1744,-7.0432 -7.0432,-7.0432 -3.968,0 -7.1424,3.1744 -7.1424,7.0432 0,5.3568 5.2576,7.8368 9.92,7.8368 5.2576,0 8.7296,-2.48 12.1024,-6.1504 l -11.3088,35.3152 2.6784,0.7936 13.888,-43.7472 c 0.099,-0.0992 0.099,-0.2976 0.099,-0.496 0,-0.496 -0.2976,-0.8928 -0.8928,-1.1904"
     id="path74"
     style="stroke-width:0.992" />
  <path
     class="Rest"
     d="m 1425.7164,873.0624 c -0.099,0 -0.2976,-0.0992 -0.3968,-0.0992 -0.5952,0 -1.0912,0.2976 -1.2896,0.7936 -2.2816,4.5632 -7.0432,10.7136 -12.4,11.7056 1.0912,-1.2896 1.7856,-2.8768 1.7856,-4.7616 0,-3.8688 -3.1744,-7.0432 -7.0432,-7.0432 -3.968,0 -7.1424,3.1744 -7.1424,7.0432 0,5.3568 5.2576,7.8368 9.92,7.8368 5.2576,0 8.7296,-2.48 12.1024,-6.1504 l -11.3088,35.3152 2.6784,0.7936 13.888,-43.7472 c 0.099,-0.0992 0.099,-0.2976 0.099,-0.496 0,-0.496 -0.2976,-0.8928 -0.8928,-1.1904"
     id="path75"
     style="stroke-width:0.992" />
  <path
     class="Articulation"
     d="m 1646.9656,809.0022 c 0,0 -0.099,0 -0.099,0 l -0.1984,-0.0992 c -0.8928,0 -1.488,0.5952 -1.488,1.3888 v 2.2816 c 0,0.5952 0.496,1.0912 0.992,1.2896 l 21.2288,6.6464 -21.2288,6.7456 c -0.496,0.1984 -0.992,0.6944 -0.992,1.2896 v 2.2816 c 0,0.7936 0.5952,1.3888 1.488,1.3888 l 0.1984,-0.0992 c 0,0 0.099,0 0.099,0 l 33.0336,-10.2176 c 0.496,-0.1984 0.992,-0.7936 0.992,-1.3888 0,-0.5952 -0.496,-1.0912 -0.992,-1.2896 l -33.0336,-10.2176"
     id="path76"
     style="stroke-width:0.992" />
  <path
     class="Beam"
     fill-rule="evenodd"
     d="m 489.793,337.397 214.178,-6.2 v 12.406 l -214.178,6.2 v -12.406"
     id="path77" />
  <path
     class="Beam"
     fill-rule="evenodd"
     d="m 1646.97,955.16 108.65,12.4 v 12.48 l -108.65,-12.4 v -12.48"
     id="path78" />
  <path
     class="Beam"
     fill-rule="evenodd"
     d="m 1535.16,862.2 h 73.26 v 12.4 h -73.26 v -12.4"
     id="path79" />
  <path
     class="Beam"
     fill-rule="evenodd"
     d="m 1535.16,880.8 h 73.26 v 12.4 h -73.26 v -12.4"
     id="path80" />
  <path
     class="Beam"
     fill-rule="evenodd"
     d="m 1237.86,318.777 214.18,18.6 v 12.446 l -214.18,-18.6 v -12.446"
     id="path81" />
  <path
     class="Beam"
     fill-rule="evenodd"
     d="m 808.316,806.39 321.004,18.6 v 12.42 l -321.004,-18.6 v -12.42"
     id="path82" />
  <path
     class="Hook"
     d="m 1828.67,359.9184 c 0,0.2976 0.099,0.8928 0.7936,1.0912 4.2656,1.3888 12.7968,6.7456 19.2448,17.7568 1.7856,3.0752 4.6624,7.3408 4.6624,15.5744 0,7.1424 -1.7856,14.4832 -4.464,21.6256 -0.1984,0.5952 -0.2976,1.0912 -0.2976,1.488 0,0.6944 0.3968,0.992 1.0912,0.992 0.5952,0 1.0912,-0.3968 1.488,-1.0912 4.464,-7.936 6.1504,-17.1616 6.1504,-26.1888 -0.496,-12.7968 -7.8368,-22.2208 -7.8368,-22.2208 0.2976,0 -9.1264,-12.2016 -11.8048,-16.368 -3.6704,-5.6544 -5.3568,-11.3088 -5.5552,-11.7056 -0.099,-0.2976 -0.992,-3.8688 -0.992,-3.8688 -0.099,-0.3968 -0.5952,-0.7936 -1.1904,-0.7936 -0.6944,0 -1.2896,0.5952 -1.2896,1.2896 v 22.4192"
     id="path83"
     style="stroke-width:0.992" />
  <path
     class="Hook"
     d="m 906.239,359.9184 c 0,0.2976 0.0992,0.8928 0.7936,1.0912 4.2656,1.3888 12.7968,6.7456 19.2448,17.7568 1.7856,3.0752 4.6624,7.3408 4.6624,15.5744 0,7.1424 -1.7856,14.4832 -4.464,21.6256 -0.1984,0.5952 -0.2976,1.0912 -0.2976,1.488 0,0.6944 0.3968,0.992 1.0912,0.992 0.5952,0 1.0912,-0.3968 1.488,-1.0912 4.464,-7.936 6.1504,-17.1616 6.1504,-26.1888 -0.496,-12.7968 -7.8368,-22.2208 -7.8368,-22.2208 0.2976,0 -9.1264,-12.2016 -11.8048,-16.368 -3.6704,-5.6544 -5.3568,-11.3088 -5.5552,-11.7056 -0.0992,-0.2976 -0.992,-3.8688 -0.992,-3.8688 -0.0992,-0.3968 -0.5952,-0.7936 -1.1904,-0.7936 -0.6944,0 -1.2896,0.5952 -1.2896,1.2896 v 22.4192"
     id="path84"
     style="stroke-width:0.992" />
  <path
     class="Lyrics"
     d="m 1452.41,498.588 h -3.75 v 43.7 h 3.75 v -43.7 m -8.2,27.65 c -5.2,1.15 -15.3,1.95 -20.9,1.95 v -25.05 h -3.85 v 28.4 h 1.95 c 6.7,0 18.1,-0.85 23.15,-2 l -0.35,-3.3"
     id="path85" />
  <path
     class="Lyrics"
     d="m 775.493,1017.48 h 9.8 v 0.3 c 0,5.55 -5.2,10.85 -11.05,12.6 l 2.1,2.9 c 5,-1.75 9.55,-6.1 11,-10 2.05,3.95 6.65,7.55 10.5,8.75 l 1.95,-3 c -5.15,-1.25 -10.5,-5.85 -10.5,-11.35 v -0.2 h 9.65 v -3.1 h -23.45 v 3.1 m 39.65,4.2 v -3.2 h -6.65 v -13.65 h -3.8 v 31.75 h 3.8 v -14.9 h 6.65 m -4.95,25.45 v -3.2 h -25.25 v -9.45 h -3.8 v 12.65 h 29.05 m -29,-37 h 12.2 v -3.25 h -12.2 v 3.25"
     id="path86" />
  <path
     class="Lyrics"
     d="m 1832.92,516.188 c -6.7,-0.75 -15.65,-5.2 -15.85,-11.35 h 14.05 v -3.15 h -32.2 v 3.15 h 14.15 c -0.2,6.1 -8.65,10.7 -15.8,11.45 l 1.75,3.2 c 7.45,-1.25 14.25,-5.75 16,-9.85 2,4.1 8.95,8.5 16.1,9.75 l 1.8,-3.2 m -16.05,26.1 v -15.65 h 17.9 v -3.2 h -39.45 v 3.2 h 17.75 v 15.65 h 3.8"
     id="path87" />
  <path
     class="Lyrics"
     d="m 1385.6,514.138 v -3.2 h -6.65 v -12.35 h -3.8 v 25.35 h 3.8 v -9.8 h 6.65 m -6.65,27.85 v -15.95 h -3.8 v 4.7 h -19.9 v -4.65 h -3.8 v 15.9 h 27.5 m -3.8,-3.2 h -19.9 v -4.9 h 19.9 v 4.9 m -10.95,-36.4 v -3.2 h -12.6 v 3.2 h 12.6 m 6.4,6.15 v -3.1 h -25.45 v 3.1 h 25.45 m -2.55,8.85 c 0,-4.4 -4.25,-7.1 -10.15,-7.1 -6.05,0 -10.15,2.7 -10.15,7.1 0,4.3 4.2,7.05 10.15,7.05 5.9,0 10.15,-2.75 10.15,-7.05 m -3.85,0 c 0,2.5 -2.9,4.05 -6.3,4.05 -3.35,0 -6.4,-1.55 -6.4,-4.05 0,-2.55 3,-4.05 6.4,-4.05 3.4,0 6.3,1.5 6.3,4.05"
     id="path88" />
  <path
     class="Lyrics"
     d="m 1314.71,514.788 h -6.65 v -6.25 h 6.65 v -3.2 h -6.65 v -6.75 h -3.8 v 26.35 h 3.8 v -7 h 6.65 v -3.15 m -6.3,19 c 0,-4.95 -4.95,-8.4 -14.5,-8.4 -9.5,0 -14.4,3.35 -14.4,8.4 0,5 4.9,8.4 14.4,8.4 9.55,0 14.5,-3.4 14.5,-8.4 m -14.5,-5.25 c 6.6,0 10.6,2.05 10.6,5.25 0,3.25 -4,5.25 -10.6,5.25 -6.6,0 -10.5,-2.1 -10.5,-5.25 0,-3.15 3.9,-5.25 10.5,-5.25 m -7.65,-27.55 c -6.25,0 -11.35,4.2 -11.35,10.55 0,6.4 5.1,10.35 11.35,10.35 6.2,0 11.3,-3.95 11.3,-10.4 0,-6.3 -5.1,-10.5 -11.3,-10.5 m 0,3.1 c 4.6,0 7.65,3.1 7.65,7.45 0,4.3 -3.1,7.25 -7.65,7.25 -4.4,0 -7.65,-2.95 -7.65,-7.3 0,-4.3 3.25,-7.4 7.65,-7.4"
     id="path89" />
  <path
     class="Lyrics"
     d="m 920.771,1021.03 h -6.65 v -6.25 h 6.65 v -3.2 h -6.65 v -6.75 h -3.8 v 26.35 h 3.8 v -7 h 6.65 v -3.15 m -6.3,19 c 0,-4.95 -4.95,-8.4 -14.5,-8.4 -9.5,0 -14.4,3.35 -14.4,8.4 0,5 4.9,8.4 14.4,8.4 9.55,0 14.5,-3.4 14.5,-8.4 m -14.5,-5.25 c 6.6,0 10.6,2.05 10.6,5.25 0,3.25 -4,5.25 -10.6,5.25 -6.6,0 -10.5,-2.1 -10.5,-5.25 0,-3.15 3.9,-5.25 10.5,-5.25 m -7.65,-27.55 c -6.25,0 -11.35,4.2 -11.35,10.55 0,6.4 5.1,10.35 11.35,10.35 6.2,0 11.3,-3.95 11.3,-10.4 0,-6.3 -5.1,-10.5 -11.3,-10.5 m 0,3.1 c 4.6,0 7.65,3.1 7.65,7.45 0,4.3 -3.1,7.25 -7.65,7.25 -4.4,0 -7.65,-2.95 -7.65,-7.3 0,-4.3 3.25,-7.4 7.65,-7.4"
     id="path90" />
  <path
     class="Lyrics"
     d="m 1749.21,1023.53 c 0,9.3 4.1,15.5 11.2,15.5 7.1,0 11.15,-6.2 11.15,-15.45 0,-9.25 -4.05,-15.45 -11.15,-15.45 -7.1,0 -11.2,6.2 -11.2,15.4 m 18.65,0.05 c 0,7.15 -2.9,12.15 -7.45,12.15 -4.55,0 -7.5,-5 -7.5,-12.15 0,-7.2 2.95,-12.15 7.5,-12.15 4.55,0 7.45,4.95 7.45,12.15 m 21.45,-7.75 h -7.65 v -11 h -3.8 v 43.7 h 3.8 v -16.15 h 7.65 v -3.2 h -7.65 v -10.15 h 7.65 v -3.2"
     id="path91" />
  <path
     class="Lyrics"
     d="m 1205.04,511.238 h 9.8 v 0.3 c 0,5.55 -5.2,10.85 -11.05,12.6 l 2.1,2.9 c 5,-1.75 9.55,-6.1 11,-10 2.05,3.95 6.65,7.55 10.5,8.75 l 1.95,-3 c -5.15,-1.25 -10.5,-5.85 -10.5,-11.35 v -0.2 h 9.65 v -3.1 h -23.45 v 3.1 m 39.65,4.2 v -3.2 h -6.65 v -13.65 h -3.8 v 31.75 h 3.8 v -14.9 h 6.65 m -4.95,25.45 v -3.2 h -25.25 v -9.45 h -3.8 v 12.65 h 29.05 m -29,-37 h 12.2 v -3.25 h -12.2 v 3.25"
     id="path92" />
  <path
     class="Lyrics"
     d="m 1027.27,1020.38 v -3.2 h -6.65 v -12.35 h -3.8 v 25.35 h 3.8 v -9.8 h 6.65 m -6.65,27.85 v -15.95 h -3.8 v 4.7 h -19.897 v -4.65 h -3.8 v 15.9 h 27.497 m -3.8,-3.2 h -19.897 v -4.9 h 19.897 v 4.9 m -10.95,-36.4 v -3.2 h -12.597 v 3.2 h 12.597 m 6.4,6.15 v -3.1 h -25.447 v 3.1 h 25.447 m -2.55,8.85 c 0,-4.4 -4.25,-7.1 -10.147,-7.1 -6.05,0 -10.15,2.7 -10.15,7.1 0,4.3 4.2,7.05 10.15,7.05 5.897,0 10.147,-2.75 10.147,-7.05 m -3.85,0 c 0,2.5 -2.9,4.05 -6.297,4.05 -3.35,0 -6.4,-1.55 -6.4,-4.05 0,-2.55 3,-4.05 6.4,-4.05 3.397,0 6.297,1.5 6.297,4.05"
     id="path93" />
  <path
     class="Lyrics"
     d="m 492.197,520.238 v -3.2 h -27.1 v -5.4 h 25.9 v -11.25 h -29.8 v 3.2 h 26 v 4.9 h -25.9 v 11.75 h 30.9 m -14.2,21.7 v -13.9 h 17.9 v -3.2 h -39.45 v 3.2 h 17.75 v 13.9 h 3.8"
     id="path94" />
  <path
     class="Lyrics"
     d="m 1138.12,520.688 v -3.2 h -39.45 v 3.2 h 39.45 m -4.4,-13.9 c 0,-4.8 -5.8,-7.6 -15.3,-7.6 -9.4,0 -15.2,2.8 -15.2,7.6 0,4.8 5.8,7.55 15.2,7.55 9.5,0 15.3,-2.75 15.3,-7.55 m -15.3,-4.5 c 6.95,0 11.45,1.75 11.45,4.5 0,2.7 -4.5,4.4 -11.45,4.4 -6.85,0 -11.3,-1.7 -11.3,-4.4 0,-2.75 4.45,-4.5 11.3,-4.5 m 16.2,39.6 v -3.1 h -27.55 v -4.4 h 26.1 v -9.8 h -30 v 3.05 h 26.2 v 3.85 h -26.1 v 10.4 h 31.35"
     id="path95" />
  <path
     class="Lyrics"
     d="m 1129.69,1004.83 h -3.75 v 43.7 h 3.75 v -43.7 m -8.2,27.65 c -5.2,1.15 -15.3,1.95 -20.9,1.95 v -25.05 h -3.85 v 28.4 h 1.95 c 6.7,0 18.1,-0.85 23.15,-2 l -0.35,-3.3"
     id="path96" />
  <path
     class="Lyrics"
     d="m 1679.13,1026.48 v -3.2 h -27.1 v -5.4 h 25.9 v -11.25 h -29.8 v 3.2 h 26 v 4.9 h -25.9 v 11.75 h 30.9 m -14.2,21.7 v -13.9 h 17.9 v -3.2 h -39.45 v 3.2 h 17.75 v 13.9 h 3.8"
     id="path97" />
  <path
     class="Lyrics"
     d="m 1029.27,541.638 v -16 h -28.65 v 16 h 28.65 m -3.8,-3.15 h -21.05 v -9.75 h 21.05 v 9.75 m 0,-39.9 v 24.3 h 3.8 v -24.3 h -3.8 m -4.1,16.1 c -5.6,1.15 -15.4,2.15 -21.753,1.9 v -15.75 h -3.8 v 19.1 h 2.5 c 7.603,0 18.653,-0.95 23.503,-2 l -0.45,-3.25"
     id="path98" />
  <path
     class="Lyrics"
     d="m 910.493,516.188 c -6.7,-0.75 -15.65,-5.2 -15.85,-11.35 h 14.05 v -3.15 h -32.2 v 3.15 h 14.15 c -0.2,6.1 -8.65,10.7 -15.8,11.45 l 1.75,3.2 c 7.45,-1.25 14.25,-5.75 16,-9.85 2,4.1 8.95,8.5 16.1,9.75 l 1.8,-3.2 m -16.05,26.1 v -15.65 h 17.9 v -3.2 h -39.45 v 3.2 h 17.75 v 15.65 h 3.8"
     id="path99" />
  <path
     class="Lyrics"
     d="m 655.159,1026.93 v -3.2 h -39.45 v 3.2 h 39.45 m -4.4,-13.9 c 0,-4.8 -5.8,-7.6 -15.3,-7.6 -9.4,0 -15.2,2.8 -15.2,7.6 0,4.8 5.8,7.55 15.2,7.55 9.5,0 15.3,-2.75 15.3,-7.55 m -15.3,-4.5 c 6.95,0 11.45,1.75 11.45,4.5 0,2.7 -4.5,4.4 -11.45,4.4 -6.85,0 -11.3,-1.7 -11.3,-4.4 0,-2.75 4.45,-4.5 11.3,-4.5 m 16.2,39.6 v -3.1 h -27.55 v -4.4 h 26.1 v -9.8 h -30 v 3.05 h 26.2 v 3.85 h -26.1 v 10.4 h 31.35"
     id="path100" />
  <path
     class="Lyrics"
     d="m 1270.06,1004.83 h -3.8 v 43.7 h 3.8 v -23.15 h 7.1 v -3.2 h -7.1 v -17.35 m -28.15,29.75 v -22 h 16.9 v -3.2 h -20.75 v 28.45 h 4.3 c 7.6,0 16.25,-0.6 20.95,-1.5 l -0.4,-3.15 c -4.2,0.9 -12.85,1.4 -18.5,1.4 h -2.5"
     id="path101" />
  <path
     class="Lyrics"
     d="m 1284.56,1039.48 c -1.75,0 -3.15,1.4 -3.15,3.1 0,1.75 1.4,3.15 3.1,3.15 1.75,0 3.15,-1.4 3.15,-3.15 0,-1.7 -1.4,-3.1 -3.1,-3.1"
     id="path102" />
  <path
     class="Lyrics"
     d="m 492.897,1047.88 v -16 h -28.65 v 16 h 28.65 m -3.8,-3.15 h -21.05 v -9.75 h 21.05 v 9.75 m 0,-39.9 v 24.3 h 3.8 v -24.3 h -3.8 m -4.1,16.1 c -5.6,1.15 -15.4,2.15 -21.75,1.9 v -15.75 h -3.8 v 19.1 h 2.5 c 7.6,0 18.65,-0.95 23.5,-2 l -0.45,-3.25"
     id="path103" />
  <path
     class="Lyrics"
     d="m 1555.65,498.588 h -3.8 v 43.7 h 3.8 v -23.15 h 7.1 v -3.2 h -7.1 v -17.35 m -28.15,29.75 v -22 h 16.9 v -3.2 h -20.75 v 28.45 h 4.3 c 7.6,0 16.25,-0.6 20.95,-1.5 l -0.4,-3.15 c -4.2,0.9 -12.85,1.4 -18.5,1.4 h -2.5"
     id="path104" />
  <path
     class="Lyrics"
     d="m 566.529,511.488 v -3.2 h -6.65 v -9.7 h -3.8 v 22.35 h 3.8 v -9.45 h 6.65 m -5.05,30.45 v -3.2 h -25.55 v -4.85 h 23.95 v -10.45 h -27.75 v 3.15 h 23.95 v 4.4 h -23.95 v 10.95 h 29.35 m -23.3,-41.85 c -6.25,0 -11.25,4.1 -11.25,10 0,6.05 5.1,9.9 11.25,9.9 6.2,0 11.25,-3.9 11.25,-9.9 0,-5.95 -5.05,-10 -11.25,-10 m 0,3.4 c 4.55,0 7.55,2.7 7.55,6.6 0,3.95 -3,6.5 -7.55,6.5 -4.25,0 -7.55,-2.55 -7.55,-6.5 0,-3.95 3.35,-6.6 7.55,-6.6"
     id="path105" />
  <path
     class="Lyrics"
     d="m 634.039,521.688 v -23.1 h -3.8 v 23.1 h 3.8 m -11.75,-9.95 v 9.55 h 3.7 v -21.9 h -3.7 v 9.2 h -5.15 v 3.15 h 5.15 m 13.35,30.1 v -3.2 h -26.65 v -4.45 h 25.05 v -10.25 h -28.95 v 3.15 h 25.1 v 4.2 h -25.05 v 10.55 h 30.5 m -17.8,-25.6 c -4.15,0.95 -10.1,1.3 -15.05,1.3 v -5.4 h 12.75 v -10.85 h -16.5 v 3.15 h 12.7 v 4.65 h -12.75 v 11.55 h 2.85 c 5.85,0 11.85,-0.45 16.5,-1.35 l -0.5,-3.05"
     id="path106" />
  <path
     class="Lyrics"
     d="m 738.374,517.288 c 0,9.3 4.1,15.5 11.2,15.5 7.1,0 11.15,-6.2 11.15,-15.45 0,-9.25 -4.05,-15.45 -11.15,-15.45 -7.1,0 -11.2,6.2 -11.2,15.4 m 18.65,0.05 c 0,7.15 -2.9,12.15 -7.45,12.15 -4.55,0 -7.5,-5 -7.5,-12.15 0,-7.2 2.95,-12.15 7.5,-12.15 4.55,0 7.45,4.95 7.45,12.15 m 21.45,-7.75 h -7.65 v -11 h -3.8 v 43.7 h 3.8 v -16.15 h 7.65 v -3.2 h -7.65 v -10.15 h 7.65 v -3.2"
     id="path107" />
  <path
     class="Lyrics"
     d="m 1609.05,1027.93 v -23.1 h -3.8 v 23.1 h 3.8 m -11.75,-9.95 v 9.55 h 3.7 v -21.9 h -3.7 v 9.2 h -5.15 v 3.15 h 5.15 m 13.35,30.1 v -3.2 H 1584 v -4.45 h 25.05 v -10.25 h -28.95 v 3.15 h 25.1 v 4.2 h -25.05 v 10.55 h 30.5 m -17.8,-25.6 c -4.15,0.95 -10.1,1.3 -15.05,1.3 v -5.4 h 12.75 v -10.85 h -16.5 v 3.15 h 12.7 v 4.65 H 1574 v 11.55 h 2.85 c 5.85,0 11.85,-0.45 16.5,-1.35 l -0.5,-3.05"
     id="path108" />
  <path
     class="Lyrics"
     d="m 1541.33,1017.73 v -3.2 h -6.65 v -9.7 h -3.8 v 22.35 h 3.8 v -9.45 h 6.65 m -5.05,30.45 v -3.2 h -25.55 v -4.85 h 23.95 v -10.45 h -27.75 v 3.15 h 23.95 v 4.4 h -23.95 v 10.95 h 29.35 m -23.3,-41.85 c -6.25,0 -11.25,4.1 -11.25,10 0,6.05 5.1,9.9 11.25,9.9 6.2,0 11.25,-3.9 11.25,-9.9 0,-5.95 -5.05,-10 -11.25,-10 m 0,3.4 c 4.55,0 7.55,2.7 7.55,6.6 0,3.95 -3,6.5 -7.55,6.5 -4.25,0 -7.55,-2.55 -7.55,-6.5 0,-3.95 3.35,-6.6 7.55,-6.6"
     id="path109" />
  <path
     class="Lyrics"
     d="m 703.895,520.238 v -3.2 h -27.1 v -5.4 h 25.9 v -11.25 h -29.8 v 3.2 h 26 v 4.9 h -25.9 v 11.75 h 30.9 m -14.2,21.7 v -13.9 h 17.9 v -3.2 h -39.45 v 3.2 h 17.75 v 13.9 h 3.8"
     id="path110" />
  <path
     class="StaffText"
     d="m 1429.29,782.7 h -30.05 v 2.35 h 0.9 c 2.85,0.05 3.8,0.2 4.2,0.7 0.3,0.45 0.3,0.55 0.3,3.1 v 23.8 c 0,2.55 0,2.65 -0.3,3.1 -0.4,0.5 -1.35,0.7 -4.2,0.7 h -0.9 v 2.35 h 30.7 l 1,-13.35 h -2.2 c -1.9,8.9 -3.95,10.8 -11.6,11 h -3.3 c -3,-0.1 -3.75,-0.6 -3.6,-2.4 V 801.3 h 1 c 5.15,-0.2 7,1.65 7.2,7.2 h 2.35 v -16.4 h -2.35 c -0.3,4.9 -2.25,6.85 -7,6.85 h -1.2 v -11.4 c -0.05,-2.1 0.45,-2.45 3.15,-2.5 h 2.6 c 8.2,-0.05 10.25,1.75 11.85,10.4 h 2.15 l -0.7,-12.75"
     id="path111" />
  <path
     class="StaffText"
     d="m 1546.37,288.2 h -2.1 l -11.5,29.15 c -1.35,3.9 -2.65,5.1 -5.5,5.3 h -0.2 V 325 h 13.25 v -2.35 h -1 c -2.7,0 -4.05,-0.95 -4.05,-2.85 0,-0.65 0.15,-1.25 0.45,-2.1 l 1.65,-4.4 h 13.25 l 2.7,6.7 c 0.3,0.8 0.4,1.1 0.4,1.35 0,0.8 -1.25,1.3 -3.1,1.3 h -2.1 V 325 h 15.5 v -2.35 h -0.7 c -2.6,-0.05 -3.05,-0.35 -4.2,-3.2 l -12.75,-31.25 m -2.45,8.2 5.65,14.2 h -11.2 l 5.55,-14.2"
     id="path112" />
  <path
     class="StaffText"
     d="m 460.053,818.8 h 16.8 c 4.45,0 7.85,-0.7 10.5,-2.2 5.05,-2.85 7.85,-8.55 7.85,-16.05 0,-6.9 -2.5,-12.3 -7.1,-15.3 -2.75,-1.75 -6.45,-2.55 -12.15,-2.55 h -15.9 v 2.35 h 0.95 c 2.8,0.05 3.75,0.2 4.15,0.7 0.3,0.45 0.3,0.55 0.3,3.1 v 23.8 c 0,2.55 0,2.65 -0.3,3.1 -0.4,0.5 -1.35,0.65 -4.15,0.7 h -0.95 v 2.35 m 13.85,-2.35 c -2.55,0 -2.85,-0.3 -2.85,-2.75 v -25.85 c 0,-2.45 0.35,-2.8 2.85,-2.8 h 2.6 c 8.55,0 12.1,4.65 12.1,15.7 0,11.2 -3.2,15.7 -11.3,15.7 h -3.4"
     id="path113" />
  <path
     class="StaffText"
     d="m 761.595,294.4 h -2.1 l -11.5,29.15 c -1.35,3.9 -2.65,5.1 -5.5,5.3 h -0.2 v 2.35 h 13.25 v -2.35 h -1 c -2.7,0 -4.05,-0.95 -4.05,-2.85 0,-0.65 0.15,-1.25 0.45,-2.1 l 1.65,-4.4 h 13.25 l 2.7,6.7 c 0.3,0.8 0.4,1.1 0.4,1.35 0,0.8 -1.25,1.3 -3.1,1.3 h -2.1 v 2.35 h 15.5 v -2.35 h -0.7 c -2.6,-0.05 -3.05,-0.35 -4.2,-3.2 l -12.75,-31.25 m -2.45,8.2 5.65,14.2 h -11.2 l 5.55,-14.2 m 31.844,-8.2 -13.35,37.5 h 2.9 l 13.35,-37.5 h -2.9 m 35.284,0.7 h -30.05 v 2.35 h 0.9 c 2.85,0.05 3.8,0.2 4.2,0.7 0.3,0.45 0.3,0.55 0.3,3.1 v 23.8 c 0,2.55 0,2.65 -0.3,3.1 -0.4,0.5 -1.35,0.7 -4.2,0.7 h -0.9 v 2.35 h 30.7 l 1,-13.35 h -2.2 c -1.9,8.9 -3.95,10.8 -11.6,11 h -3.3 c -3,-0.1 -3.75,-0.6 -3.6,-2.4 V 313.7 h 1 c 5.15,-0.2 7,1.65 7.2,7.2 h 2.35 v -16.4 h -2.35 c -0.3,4.9 -2.25,6.85 -7,6.85 h -1.2 v -11.4 c -0.05,-2.1 0.45,-2.45 3.15,-2.5 h 2.6 c 8.2,-0.05 10.25,1.75 11.85,10.4 h 2.15 l -0.7,-12.75"
     id="path114" />
  <path
     class="StaffText"
     d="m 1259.26,775.8 h -2.1 l -11.5,29.15 c -1.35,3.9 -2.65,5.1 -5.5,5.3 h -0.2 v 2.35 h 13.25 v -2.35 h -1 c -2.7,0 -4.05,-0.95 -4.05,-2.85 0,-0.65 0.15,-1.25 0.45,-2.1 l 1.65,-4.4 h 13.25 l 2.7,6.7 c 0.3,0.8 0.4,1.1 0.4,1.35 0,0.8 -1.25,1.3 -3.1,1.3 h -2.1 v 2.35 h 15.5 v -2.35 h -0.7 c -2.6,-0.05 -3.05,-0.35 -4.2,-3.2 l -12.75,-31.25 m -2.45,8.2 5.65,14.2 h -11.2 l 5.55,-14.2"
     id="path115" />
  <path
     class="StaffText"
     d="m 996.422,331.2 h 16.798 c 4.45,0 7.85,-0.7 10.5,-2.2 5.05,-2.85 7.85,-8.55 7.85,-16.05 0,-6.9 -2.5,-12.3 -7.1,-15.3 -2.75,-1.75 -6.45,-2.55 -12.15,-2.55 h -15.898 v 2.35 h 0.95 c 2.798,0.05 3.748,0.2 4.148,0.7 0.3,0.45 0.3,0.55 0.3,3.1 v 23.8 c 0,2.55 0,2.65 -0.3,3.1 -0.4,0.5 -1.35,0.65 -4.148,0.7 h -0.95 v 2.35 m 13.848,-2.35 c -2.55,0 -2.85,-0.3 -2.85,-2.75 v -25.85 c 0,-2.45 0.35,-2.8 2.85,-2.8 h 2.6 c 8.55,0 12.1,4.65 12.1,15.7 0,11.2 -3.2,15.7 -11.3,15.7 h -3.4"
     id="path116" />
  <path
     class="StaffText"
     d="m 1666.26,759.804 h -2.1 l -11.5,29.15 c -1.35,3.9 -2.65,5.1 -5.5,5.3 h -0.2 v 2.35 h 13.25 v -2.35 h -1 c -2.7,0 -4.05,-0.95 -4.05,-2.85 0,-0.65 0.15,-1.25 0.45,-2.1 l 1.65,-4.4 h 13.25 l 2.7,6.7 c 0.3,0.8 0.4,1.1 0.4,1.35 0,0.8 -1.25,1.3 -3.1,1.3 h -2.1 v 2.35 h 15.5 v -2.35 h -0.7 c -2.6,-0.05 -3.05,-0.35 -4.2,-3.2 l -12.75,-31.25 m -2.45,8.2 5.65,14.2 h -11.2 l 5.55,-14.2"
     id="path117" />
  <path
     class="StaffText"
     d="m 489.803,286.142 h -29.75 v 2.35 h 0.9 c 2.85,0.05 3.8,0.2 4.2,0.7 0.3,0.45 0.3,0.55 0.3,3.1 v 23.8 c 0,2.55 0,2.65 -0.3,3.1 -0.4,0.5 -1.35,0.7 -4.2,0.7 h -0.9 v 2.35 h 17.15 v -2.35 h -1.65 c -2.85,0 -3.8,-0.2 -4.2,-0.7 -0.3,-0.45 -0.3,-0.6 -0.3,-3.1 v -11.35 h 1 c 5.15,-0.2 7,1.65 7.2,7.2 h 2.35 v -16.4 h -2.35 c -0.3,4.9 -2.25,6.8 -7,6.85 h -1.2 v -11.4 c -0.05,-2.1 0.45,-2.45 3.15,-2.5 h 2.3 c 8.2,-0.05 10.25,1.8 11.8,10.4 h 2.2 l -0.7,-12.75 m 8.894,24.7 -1.65,11.4 h 3.25 l 1.65,-11.4 h 6.15 l -1.65,11.4 h 3.25 l 1.65,-11.4 h 5.45 v -2.8 h -5.05 l 0.95,-6.6 h 5.45 v -2.8 h -5.05 l 1.55,-10.7 h -3.25 l -1.55,10.7 h -6.15 l 1.55,-10.7 h -3.25 l -1.55,10.7 h -5.5 v 2.8 h 5.1 l -0.95,6.6 h -5.5 v 2.8 h 5.1 m 4.6,-9.4 h 6.15 l -0.95,6.6 h -6.15 l 0.95,-6.6 m 26.497,-2.5 -8.9,0.55 v 2.15 h 2.05 c 1.9,0.05 2.15,0.35 2.15,2.5 v 14.3 c -0.05,0.75 -0.1,1.05 -0.3,1.3 -0.35,0.45 -1.3,0.65 -3.45,0.7 h -0.2 v 1.8 h 12.6 v -1.8 h -0.2 c -3.3,-0.1 -3.75,-0.35 -3.75,-2.2 v -9.25 c 0,-4.45 2.45,-7.75 5.7,-7.75 2.85,0 4.3,2.05 4.3,6.1 v 11.15 c -0.05,0.65 -0.1,1 -0.35,1.25 -0.3,0.45 -1.3,0.65 -3.45,0.7 h -0.2 v 1.8 h 12.65 v -1.8 h -0.2 c -3.3,-0.1 -3.75,-0.35 -3.75,-2.15 v -8.85 c 0,-5 2.25,-8.2 5.75,-8.2 2.85,0 4.25,2.15 4.25,6.65 v 10.55 c -0.05,0.7 -0.1,1.05 -0.35,1.3 -0.3,0.45 -1.3,0.65 -3.45,0.7 h -0.2 v 1.8 h 12.65 v -1.8 h -0.2 c -3.3,-0.1 -3.75,-0.35 -3.75,-2.2 v -11.35 c 0,-3.1 -0.3,-4.15 -1.6,-5.85 -1.45,-1.85 -3.5,-2.85 -5.9,-2.85 -3.25,0 -5.65,1.55 -7.8,5 -0.85,-3 -3.55,-5 -6.9,-5 -3.05,0 -5.25,1.45 -7.2,4.6 v -3.85"
     id="path118" />
  <path
     class="StaffText"
     d="m 1238.17,270.277 h -30.05 v 2.35 h 0.9 c 2.85,0.05 3.8,0.2 4.2,0.7 0.3,0.45 0.3,0.55 0.3,3.1 v 23.8 c 0,2.55 0,2.65 -0.3,3.1 -0.4,0.5 -1.35,0.7 -4.2,0.7 h -0.9 v 2.35 h 30.7 l 1,-13.35 h -2.2 c -1.9,8.9 -3.95,10.8 -11.6,11 h -3.3 c -3,-0.1 -3.75,-0.6 -3.6,-2.4 v -12.75 h 1 c 5.15,-0.2 7,1.65 7.2,7.2 h 2.35 v -16.4 h -2.35 c -0.3,4.9 -2.25,6.85 -7,6.85 h -1.2 v -11.4 c -0.05,-2.1 0.45,-2.45 3.15,-2.5 h 2.6 c 8.2,-0.05 10.25,1.75 11.85,10.4 h 2.15 l -0.7,-12.75"
     id="path119" />
  <path
     class="StaffText"
     d="m 808.627,757.89 h -30.05 v 2.35 h 0.9 c 2.85,0.05 3.8,0.2 4.2,0.7 0.3,0.45 0.3,0.55 0.3,3.1 v 23.8 c 0,2.55 0,2.65 -0.3,3.1 -0.4,0.5 -1.35,0.7 -4.2,0.7 h -0.9 v 2.35 h 30.7 l 1,-13.35 h -2.2 c -1.9,8.9 -3.95,10.8 -11.6,11 h -3.3 c -3,-0.1 -3.75,-0.6 -3.6,-2.4 v -12.75 h 1 c 5.15,-0.2 7,1.65 7.2,7.2 h 2.35 v -16.4 h -2.35 c -0.3,4.9 -2.25,6.85 -7,6.85 h -1.2 v -11.4 c -0.05,-2.1 0.45,-2.45 3.15,-2.5 h 2.6 c 8.2,-0.05 10.25,1.75 11.85,10.4 h 2.15 l -0.7,-12.75"
     id="path120" />
  <path
     class="NoteDot"
     d="m 786.937,393.2 c 0,2.7776 2.1824,4.96 4.96,4.96 2.7776,0 4.96,-2.1824 4.96,-4.96 0,-2.7776 -2.1824,-4.96 -4.96,-4.96 -2.7776,0 -4.96,2.1824 -4.96,4.96"
     id="path121"
     style="stroke-width:0.992" />
  <path
     class="NoteDot"
     d="m 1571.71,418 c 0,2.7776 2.1824,4.96 4.96,4.96 2.7776,0 4.96,-2.1824 4.96,-4.96 0,-2.7776 -2.1824,-4.96 -4.96,-4.96 -2.7776,0 -4.96,2.1824 -4.96,4.96"
     id="path122"
     style="stroke-width:0.992" />
</svg>
