<?xml version="1.0" encoding="UTF-8" standalone="no"?>
<svg
   width="2098.8px"
   height="1418.4px"
   viewBox="0 0 2098.8 1418.4"
   version="1.2"
   id="svg171"
   sodipodi:docname="주님의기도신상옥-1.svg"
   inkscape:version="1.3.2 (091e20e, 2023-11-25)"
   xmlns:inkscape="http://www.inkscape.org/namespaces/inkscape"
   xmlns:sodipodi="http://sodipodi.sourceforge.net/DTD/sodipodi-0.dtd"
   xmlns="http://www.w3.org/2000/svg"
   xmlns:svg="http://www.w3.org/2000/svg">
  <defs
     id="defs171" />
  <sodipodi:namedview
     id="namedview171"
     pagecolor="#ffffff"
     bordercolor="#000000"
     borderopacity="0.25"
     inkscape:showpageshadow="2"
     inkscape:pageopacity="0.0"
     inkscape:pagecheckerboard="0"
     inkscape:deskcolor="#d1d1d1"
     inkscape:zoom="0.16638466"
     inkscape:cx="1048.7746"
     inkscape:cy="709.20001"
     inkscape:window-width="1312"
     inkscape:window-height="449"
     inkscape:window-x="0"
     inkscape:window-y="25"
     inkscape:window-maximized="0"
     inkscape:current-layer="svg171" />
  <title
     id="title1">전례미사_08주님의_기도(신상옥곡) (1)</title>
  <desc
     id="desc1">Generated by MuseScore 4.2.1</desc>
  <polyline
     class="StaffLines"
     fill="none"
     stroke="#000000"
     stroke-width="2.73"
     stroke-linejoin="bevel"
     points="196,497.805 2026.8,497.805"
     id="polyline1"
     transform="translate(0,-38)" />
  <polyline
     class="StaffLines"
     fill="none"
     stroke="#000000"
     stroke-width="2.73"
     stroke-linejoin="bevel"
     points="196,522.605 2026.8,522.605"
     id="polyline2"
     transform="translate(0,-38)" />
  <polyline
     class="StaffLines"
     fill="none"
     stroke="#000000"
     stroke-width="2.73"
     stroke-linejoin="bevel"
     points="196,547.405 2026.8,547.405"
     id="polyline3"
     transform="translate(0,-38)" />
  <polyline
     class="StaffLines"
     fill="none"
     stroke="#000000"
     stroke-width="2.73"
     stroke-linejoin="bevel"
     points="196,572.206 2026.8,572.206"
     id="polyline4"
     transform="translate(0,-38)" />
  <polyline
     class="StaffLines"
     fill="none"
     stroke="#000000"
     stroke-width="2.73"
     stroke-linejoin="bevel"
     points="196,597.006 2026.8,597.006"
     id="polyline5"
     transform="translate(0,-38)" />
  <polyline
     class="StaffLines"
     fill="none"
     stroke="#000000"
     stroke-width="2.73"
     stroke-linejoin="bevel"
     points="72,947.471 2026.8,947.471"
     id="polyline6"
     transform="translate(0,-82)" />
  <polyline
     class="StaffLines"
     fill="none"
     stroke="#000000"
     stroke-width="2.73"
     stroke-linejoin="bevel"
     points="72,972.271 2026.8,972.271"
     id="polyline7"
     transform="translate(0,-82)" />
  <polyline
     class="StaffLines"
     fill="none"
     stroke="#000000"
     stroke-width="2.73"
     stroke-linejoin="bevel"
     points="72,997.071 2026.8,997.071"
     id="polyline8"
     transform="translate(0,-82)" />
  <polyline
     class="StaffLines"
     fill="none"
     stroke="#000000"
     stroke-width="2.73"
     stroke-linejoin="bevel"
     points="72,1021.87 2026.8,1021.87"
     id="polyline9"
     transform="translate(0,-82)" />
  <polyline
     class="StaffLines"
     fill="none"
     stroke="#000000"
     stroke-width="2.73"
     stroke-linejoin="bevel"
     points="72,1046.67 2026.8,1046.67"
     id="polyline10"
     transform="translate(0,-82)" />
  <path
     class="MeasureNumber"
     d="m 92.7925,787.551 h -2.16 l -18.64,19.28 v 1.68 h 11.28 l -0.64,2.44 c -0.8,3.04 -0.8,3.04 -4.28,3.04 h -0.72 l -0.24,1.88 h 12.44 l 0.2,-1.88 h -0.72 c -2.64,0 -3.2,-0.2 -3.2,-1.08 0,-0.32 0.08,-0.72 0.4,-1.96 l 0.68,-2.44 h 4.56 l 0.6,-2.16 h -4.6 l 5.04,-18.8 m -8.92,18.8 h -8.96 l 12.36,-12.72 -3.4,12.72"
     id="path10" />
  <path
     class="TieSegment"
     stroke="#000000"
     stroke-width="1.24"
     stroke-linecap="round"
     stroke-linejoin="round"
     fill-rule="evenodd"
     d="m 406.477,934.17 c 9.562,-17.547 38.251,-17.547 47.814,0 -9.563,-11.67 -38.252,-11.67 -47.814,0"
     id="path11" />
  <path
     class="TieSegment"
     stroke="#000000"
     stroke-width="1.24"
     stroke-linecap="round"
     stroke-linejoin="round"
     fill-rule="evenodd"
     d="m 1514.75,909.371 c 9.56,-17.548 38.25,-17.548 47.82,0 -9.57,-11.667 -38.26,-11.667 -47.82,0"
     id="path12" />
  <polyline
     class="BarLine"
     fill="none"
     stroke="#000000"
     stroke-width="4.46"
     stroke-linejoin="bevel"
     points="2024.57,946.107 2024.57,1048.03"
     id="polyline12"
     transform="translate(0,-82)" />
  <polyline
     class="BarLine"
     fill="none"
     stroke="#000000"
     stroke-width="4.46"
     stroke-linejoin="bevel"
     points="1329.51,946.107 1329.51,1048.03"
     id="polyline13"
     transform="translate(0,-82)" />
  <polyline
     class="BarLine"
     fill="none"
     stroke="#000000"
     stroke-width="4.46"
     stroke-linejoin="bevel"
     points="874.605,946.107 874.605,1048.03"
     id="polyline14"
     transform="translate(0,-82)" />
  <polyline
     class="BarLine"
     fill="none"
     stroke="#000000"
     stroke-width="4.46"
     stroke-linejoin="bevel"
     points="678.385,496.441 678.385,598.37"
     id="polyline15"
     transform="translate(0,-38)" />
  <polyline
     class="BarLine"
     fill="none"
     stroke="#000000"
     stroke-width="4.46"
     stroke-linejoin="bevel"
     points="2024.57,496.441 2024.57,598.37"
     id="polyline16"
     transform="translate(0,-38)" />
  <polyline
     class="BarLine"
     fill="none"
     stroke="#000000"
     stroke-width="4.46"
     stroke-linejoin="bevel"
     points="1354.99,496.441 1354.99,598.37"
     id="polyline17"
     transform="translate(0,-38)" />
  <path
     class="Accidental"
     d="m 1479.784,912.09398 c -4.96,0 -7.8368,3.07521 -8.3328,3.67041 l 0.3968,-31.84323 c 0,-0.7936 -0.5952,-1.38881 -1.3888,-1.38881 h -1.1904 c -0.7936,0 -1.3888,0.59521 -1.3888,1.38881 l 0.496,59.61924 c 0,0.7936 0.5952,1.3888 1.3888,1.3888 0.1984,0 0.5952,-0.099 0.7936,-0.1984 8.5312,-4.2656 17.4592,-12.4 17.4592,-22.6176 0,-5.15841 -2.3808,-10.01922 -8.2336,-10.01922 m -8.6304,27.97442 0.2976,-19.344 c 0.1984,-0.89281 1.6864,-3.76961 5.6544,-3.76961 3.5712,0 3.8688,3.37281 3.8688,5.45601 0,8.8288 -3.2736,12.4992 -9.8208,17.6576"
     id="path17"
     style="stroke-width:0.992001" />
  <path
     class="Accidental"
     d="m 1359.764,899.69498 c -4.96,0 -7.8368,3.07521 -8.3328,3.67041 l 0.3968,-31.84323 c 0,-0.7936 -0.5952,-1.38881 -1.3888,-1.38881 h -1.1904 c -0.7936,0 -1.3888,0.59521 -1.3888,1.38881 l 0.496,59.61924 c 0,0.7936 0.5952,1.3888 1.3888,1.3888 0.1984,0 0.5952,-0.099 0.7936,-0.1984 8.5312,-4.2656 17.4592,-12.4 17.4592,-22.61761 0,-5.1584 -2.3808,-10.01921 -8.2336,-10.01921 m -8.6304,27.97442 0.2976,-19.34401 c 0.1984,-0.8928 1.6864,-3.7696 5.6544,-3.7696 3.5712,0 3.8688,3.3728 3.8688,5.456 0,8.82881 -3.2736,12.49921 -9.8208,17.65761"
     id="path18"
     style="stroke-width:0.992001" />
  <path
     class="Accidental"
     d="m 1243.414,899.69498 c -4.96,0 -7.8368,3.07521 -8.3328,3.67041 l 0.3968,-31.84323 c 0,-0.7936 -0.5952,-1.38881 -1.3888,-1.38881 h -1.1904 c -0.7936,0 -1.3888,0.59521 -1.3888,1.38881 l 0.496,59.61924 c 0,0.7936 0.5952,1.3888 1.3888,1.3888 0.1984,0 0.5952,-0.099 0.7936,-0.1984 8.5312,-4.2656 17.4592,-12.4 17.4592,-22.61761 0,-5.1584 -2.3808,-10.01921 -8.2336,-10.01921 m -8.6304,27.97442 0.2976,-19.34401 c 0.1984,-0.8928 1.6864,-3.7696 5.6544,-3.7696 3.5712,0 3.8688,3.3728 3.8688,5.456 0,8.82881 -3.2736,12.49921 -9.8208,17.65761"
     id="path19"
     style="stroke-width:0.992001" />
  <path
     class="Accidental"
     d="m 1085.464,949.294 c -4.96,0 -7.8368,3.0752 -8.3328,3.6704 l 0.3968,-31.8432 c 0,-0.7936 -0.5952,-1.38885 -1.3888,-1.38885 h -1.1904 c -0.7936,0 -1.3888,0.59525 -1.3888,1.38885 l 0.496,59.6192 c 0,0.7936 0.5952,1.3888 1.3888,1.3888 0.1984,0 0.5952,-0.099 0.7936,-0.1984 8.5312,-4.2656 17.4592,-12.4 17.4592,-22.6176 0,-5.1584 -2.3808,-10.0192 -8.2336,-10.0192 m -8.6304,27.9744 0.2976,-19.344 c 0.1984,-0.8928 1.6864,-3.7696 5.6544,-3.7696 3.5712,0 3.8688,3.3728 3.8688,5.456 0,8.8288 -3.2736,12.4992 -9.8208,17.6576"
     id="path20"
     style="stroke-width:0.992001" />
  <path
     class="Accidental"
     d="m 498.48101,506.42898 c -4.96,0 -7.83681,3.07521 -8.33281,3.67041 l 0.3968,-31.84323 c 0,-0.7936 -0.5952,-1.38881 -1.3888,-1.38881 h -1.1904 c -0.7936,0 -1.3888,0.59521 -1.3888,1.38881 l 0.496,59.61926 c 0,0.7936 0.5952,1.3888 1.3888,1.3888 0.1984,0 0.5952,-0.0992 0.7936,-0.1984 8.53121,-4.26561 17.45922,-12.40002 17.45922,-22.61763 0,-5.1584 -2.3808,-10.01921 -8.23361,-10.01921 m -8.63041,27.97443 0.2976,-19.34402 c 0.1984,-0.8928 1.68641,-3.7696 5.65441,-3.7696 3.5712,0 3.8688,3.3728 3.8688,5.456 0,8.82881 -3.2736,12.49922 -9.82081,17.65762"
     id="path21"
     style="stroke-width:0.992001" />
  <path
     class="Accidental"
     d="m 379.25222,934.1164 c -0.1984,-0.1984 -0.496,-0.2976 -0.8928,-0.2976 l -0.1984,0.099 c 0,0 -0.0992,0 -0.0992,0 l -12.49922,3.472 v -17.36 h -2.7776 v 49.104 c 0,1.0912 0.8928,1.2896 1.7856,1.2896 l 12.49921,-3.472 v 17.36 h 2.67841 c 0,-16.4672 0,-32.1408 0,-49.104 0,-0.3968 -0.1984,-0.8928 -0.496,-1.0912 m -13.68962,27.776 v -16.2688 l 11.50721,-3.2736 v 16.368 l -11.50721,3.1744"
     id="path22"
     style="stroke-width:0.992001" />
  <path
     class="Accidental"
     d="m 254.66801,912.09398 c -4.96,0 -7.83681,3.07521 -8.33281,3.67041 l 0.3968,-31.84323 c 0,-0.7936 -0.5952,-1.38881 -1.3888,-1.38881 h -1.1904 c -0.7936,0 -1.3888,0.59521 -1.3888,1.38881 l 0.496,59.61924 c 0,0.7936 0.5952,1.3888 1.3888,1.3888 0.1984,0 0.5952,-0.099 0.7936,-0.1984 8.53121,-4.2656 17.45922,-12.4 17.45922,-22.6176 0,-5.15841 -2.3808,-10.01922 -8.23361,-10.01922 m -8.63041,27.97442 0.2976,-19.344 c 0.1984,-0.89281 1.68641,-3.76961 5.65441,-3.76961 3.5712,0 3.8688,3.37281 3.8688,5.45601 0,8.8288 -3.2736,12.4992 -9.82081,17.6576"
     id="path23"
     style="stroke-width:0.992001" />
  <path
     class="Accidental"
     d="m 1926.284,506.42898 c -4.96,0 -7.8368,3.07521 -8.3328,3.67041 l 0.3968,-31.84323 c 0,-0.7936 -0.5952,-1.38881 -1.3888,-1.38881 h -1.1904 c -0.7936,0 -1.3888,0.59521 -1.3888,1.38881 l 0.496,59.61926 c 0,0.7936 0.5952,1.3888 1.3888,1.3888 0.1984,0 0.5952,-0.0992 0.7936,-0.1984 8.5312,-4.26561 17.4592,-12.40002 17.4592,-22.61763 0,-5.1584 -2.3808,-10.01921 -8.2336,-10.01921 m -8.6304,27.97443 0.2976,-19.34402 c 0.1984,-0.8928 1.6864,-3.7696 5.6544,-3.7696 3.5712,0 3.8688,3.3728 3.8688,5.456 0,8.82881 -3.2736,12.49922 -9.8208,17.65762"
     id="path24"
     style="stroke-width:0.992001" />
  <path
     class="Accidental"
     d="m 713.20422,528.45238 c -0.1984,-0.1984 -0.496,-0.2976 -0.8928,-0.2976 l -0.1984,0.0992 c 0,0 -0.0992,0 -0.0992,0 l -12.49922,3.47201 v -17.36002 h -2.7776 v 49.10405 c 0,1.0912 0.8928,1.2896 1.7856,1.2896 l 12.49921,-3.47201 v 17.36002 h 2.67841 c 0,-16.46721 0,-32.14083 0,-49.10405 0,-0.3968 -0.1984,-0.8928 -0.496,-1.0912 m -13.68962,27.77603 v -16.26882 l 11.50721,-3.2736 v 16.36802 l -11.50721,3.1744"
     id="path25"
     style="stroke-width:0.992001" />
  <path
     class="Accidental"
     d="m 1537.9772,528.45238 c -0.1984,-0.1984 -0.496,-0.2976 -0.8928,-0.2976 l -0.1984,0.0992 c 0,0 -0.099,0 -0.099,0 l -12.4992,3.47201 v -17.36002 h -2.7776 v 49.10405 c 0,1.0912 0.8928,1.2896 1.7856,1.2896 l 12.4992,-3.47201 v 17.36002 h 2.6784 c 0,-16.46721 0,-32.14083 0,-49.10405 0,-0.3968 -0.1984,-0.8928 -0.496,-1.0912 m -13.6896,27.77603 v -16.26882 l 11.5072,-3.2736 v 16.36802 l -11.5072,3.1744"
     id="path26"
     style="stroke-width:0.992001" />
  <path
     class="Accidental"
     d="m 860.66601,543.62998 c -4.96,0 -7.83681,3.07521 -8.33281,3.67041 l 0.3968,-31.84323 c 0,-0.7936 -0.5952,-1.38881 -1.3888,-1.38881 h -1.1904 c -0.7936,0 -1.3888,0.59521 -1.3888,1.38881 l 0.496,59.61926 c 0,0.7936 0.5952,1.3888 1.3888,1.3888 0.1984,0 0.5952,-0.0992 0.7936,-0.1984 8.53121,-4.26561 17.45922,-12.40002 17.45922,-22.61763 0,-5.1584 -2.3808,-10.01921 -8.23361,-10.01921 m -8.63041,27.97443 0.2976,-19.34402 c 0.1984,-0.8928 1.68641,-3.7696 5.65441,-3.7696 3.5712,0 3.8688,3.3728 3.8688,5.456 0,8.82881 -3.2736,12.49922 -9.82081,17.65762"
     id="path27"
     style="stroke-width:0.992001" />
  <polyline
     class="Stem"
     fill="none"
     stroke="#000000"
     stroke-width="2.48"
     stroke-linejoin="bevel"
     points="593.082,1026.04 593.082,1090.07"
     id="polyline27"
     transform="translate(0,-82)" />
  <polyline
     class="Stem"
     fill="none"
     stroke="#000000"
     stroke-width="2.48"
     stroke-linejoin="bevel"
     points="1138.89,593.038 1138.89,503.959"
     id="polyline28"
     transform="translate(0,-38)" />
  <polyline
     class="Stem"
     fill="none"
     stroke="#000000"
     stroke-width="2.48"
     stroke-linejoin="bevel"
     points="1954.14,988.837 1954.14,1065.41"
     id="polyline29"
     transform="translate(0,-82)" />
  <polyline
     class="Stem"
     fill="none"
     stroke="#000000"
     stroke-width="2.48"
     stroke-linejoin="bevel"
     points="1901.37,1001.24 1901.37,1071.47"
     id="polyline30"
     transform="translate(0,-82)" />
  <polyline
     class="Stem"
     fill="none"
     stroke="#000000"
     stroke-width="2.48"
     stroke-linejoin="bevel"
     points="1848.59,1013.64 1848.59,1077.53"
     id="polyline31"
     transform="translate(0,-82)" />
  <polyline
     class="Stem"
     fill="none"
     stroke="#000000"
     stroke-width="2.48"
     stroke-linejoin="bevel"
     points="1795.82,1013.64 1795.82,1089.97"
     id="polyline32"
     transform="translate(0,-82)" />
  <polyline
     class="Stem"
     fill="none"
     stroke="#000000"
     stroke-width="2.48"
     stroke-linejoin="bevel"
     points="1220.51,580.638 1220.51,500.905"
     id="polyline33"
     transform="translate(0,-38)" />
  <polyline
     class="Stem"
     fill="none"
     stroke="#000000"
     stroke-width="2.48"
     stroke-linejoin="bevel"
     points="1716.66,1001.24 1716.66,1071.47"
     id="polyline34"
     transform="translate(0,-82)" />
  <polyline
     class="Stem"
     fill="none"
     stroke="#000000"
     stroke-width="2.48"
     stroke-linejoin="bevel"
     points="1672.03,1026.04 1672.03,1096.11"
     id="polyline35"
     transform="translate(0,-82)" />
  <polyline
     class="Stem"
     fill="none"
     stroke="#000000"
     stroke-width="2.48"
     stroke-linejoin="bevel"
     points="1302.13,568.238 1302.13,497.852"
     id="polyline36"
     transform="translate(0,-38)" />
  <polyline
     class="Stem"
     fill="none"
     stroke="#000000"
     stroke-width="2.48"
     stroke-linejoin="bevel"
     points="1627.39,1013.64 1627.39,1090.23"
     id="polyline37"
     transform="translate(0,-82)" />
  <polyline
     class="Stem"
     fill="none"
     stroke="#000000"
     stroke-width="2.48"
     stroke-linejoin="bevel"
     points="1548.23,1013.64 1548.23,1077.67"
     id="polyline38"
     transform="translate(0,-82)" />
  <polyline
     class="Stem"
     fill="none"
     stroke="#000000"
     stroke-width="2.48"
     stroke-linejoin="bevel"
     points="1495.46,1013.64 1495.46,1077.61"
     id="polyline39"
     transform="translate(0,-82)" />
  <polyline
     class="Stem"
     fill="none"
     stroke="#000000"
     stroke-width="2.48"
     stroke-linejoin="bevel"
     points="906.089,593.038 906.089,510.205"
     id="polyline40"
     transform="translate(0,-38)" />
  <polyline
     class="Stem"
     fill="none"
     stroke="#000000"
     stroke-width="2.48"
     stroke-linejoin="bevel"
     points="1420.46,568.238 1420.46,485.405"
     id="polyline41"
     transform="translate(0,-38)" />
  <polyline
     class="Stem"
     fill="none"
     stroke="#000000"
     stroke-width="2.48"
     stroke-linejoin="bevel"
     points="1428.21,1001.24 1428.21,1074.2"
     id="polyline42"
     transform="translate(0,-82)" />
  <polyline
     class="Stem"
     fill="none"
     stroke="#000000"
     stroke-width="2.48"
     stroke-linejoin="bevel"
     points="1375.44,1001.24 1375.44,1071.53"
     id="polyline43"
     transform="translate(0,-82)" />
  <polyline
     class="Stem"
     fill="none"
     stroke="#000000"
     stroke-width="2.48"
     stroke-linejoin="bevel"
     points="1575.66,580.638 1575.66,497.805"
     id="polyline44"
     transform="translate(0,-38)" />
  <polyline
     class="Stem"
     fill="none"
     stroke="#000000"
     stroke-width="2.48"
     stroke-linejoin="bevel"
     points="432.53,576.372 432.53,634.206"
     id="polyline45"
     transform="translate(0,-38)" />
  <polyline
     class="Stem"
     fill="none"
     stroke="#000000"
     stroke-width="2.48"
     stroke-linejoin="bevel"
     points="1259.09,1001.24 1259.09,1114.92"
     id="polyline46"
     transform="translate(0,-82)" />
  <polyline
     class="Stem"
     fill="none"
     stroke="#000000"
     stroke-width="2.48"
     stroke-linejoin="bevel"
     points="1191.84,1026.04 1191.84,1117.52"
     id="polyline47"
     transform="translate(0,-82)" />
  <polyline
     class="Stem"
     fill="none"
     stroke="#000000"
     stroke-width="2.48"
     stroke-linejoin="bevel"
     points="1778.71,588.772 1778.71,646.513"
     id="polyline48"
     transform="translate(0,-38)" />
  <polyline
     class="Stem"
     fill="none"
     stroke="#000000"
     stroke-width="2.48"
     stroke-linejoin="bevel"
     points="1147.21,1050.84 1147.21,1119.24"
     id="polyline49"
     transform="translate(0,-82)" />
  <polyline
     class="Stem"
     fill="none"
     stroke="#000000"
     stroke-width="2.48"
     stroke-linejoin="bevel"
     points="1101.14,1050.84 1101.14,1121.02"
     id="polyline50"
     transform="translate(0,-82)" />
  <polyline
     class="Stem"
     fill="none"
     stroke="#000000"
     stroke-width="2.48"
     stroke-linejoin="bevel"
     points="940.069,1017.9 940.069,935.071"
     id="polyline51"
     transform="translate(0,-82)" />
  <polyline
     class="Stem"
     fill="none"
     stroke="#000000"
     stroke-width="2.48"
     stroke-linejoin="bevel"
     points="514.151,563.972 514.151,634.206"
     id="polyline52"
     transform="translate(0,-38)" />
  <polyline
     class="Stem"
     fill="none"
     stroke="#000000"
     stroke-width="2.48"
     stroke-linejoin="bevel"
     points="1860.33,576.372 1860.33,640.406"
     id="polyline53"
     transform="translate(0,-38)" />
  <polyline
     class="Stem"
     fill="none"
     stroke="#000000"
     stroke-width="2.48"
     stroke-linejoin="bevel"
     points="804.18,1013.64 804.18,1084.01"
     id="polyline54"
     transform="translate(0,-82)" />
  <polyline
     class="Stem"
     fill="none"
     stroke="#000000"
     stroke-width="2.48"
     stroke-linejoin="bevel"
     points="751.406,1026.04 751.406,1090.07"
     id="polyline55"
     transform="translate(0,-82)" />
  <polyline
     class="Stem"
     fill="none"
     stroke="#000000"
     stroke-width="2.48"
     stroke-linejoin="bevel"
     points="1941.96,563.972 1941.96,634.298"
     id="polyline56"
     transform="translate(0,-38)" />
  <polyline
     class="Stem"
     fill="none"
     stroke="#000000"
     stroke-width="2.48"
     stroke-linejoin="bevel"
     points="698.631,1038.44 698.631,1096.13"
     id="polyline57"
     transform="translate(0,-82)" />
  <polyline
     class="Stem"
     fill="none"
     stroke="#000000"
     stroke-width="2.48"
     stroke-linejoin="bevel"
     points="645.857,1038.44 645.857,1096.13"
     id="polyline58"
     transform="translate(0,-82)" />
  <polyline
     class="Stem"
     fill="none"
     stroke="#000000"
     stroke-width="2.48"
     stroke-linejoin="bevel"
     points="540.308,1013.64 540.308,1084.01"
     id="polyline59"
     transform="translate(0,-82)" />
  <polyline
     class="Stem"
     fill="none"
     stroke="#000000"
     stroke-width="2.48"
     stroke-linejoin="bevel"
     points="750.886,580.638 750.886,497.805"
     id="polyline60"
     transform="translate(0,-38)" />
  <polyline
     class="Stem"
     fill="none"
     stroke="#000000"
     stroke-width="2.48"
     stroke-linejoin="bevel"
     points="469.709,1030.3 469.709,947.471"
     id="polyline61"
     transform="translate(0,-82)" />
  <polyline
     class="Stem"
     fill="none"
     stroke="#000000"
     stroke-width="2.48"
     stroke-linejoin="bevel"
     points="387.182,1038.44 387.182,1096.14"
     id="polyline62"
     transform="translate(0,-82)" />
  <polyline
     class="Stem"
     fill="none"
     stroke="#000000"
     stroke-width="2.48"
     stroke-linejoin="bevel"
     points="323.113,1026.04 323.113,1089.48"
     id="polyline63"
     transform="translate(0,-82)" />
  <polyline
     class="Stem"
     fill="none"
     stroke="#000000"
     stroke-width="2.48"
     stroke-linejoin="bevel"
     points="595.772,576.372 595.772,634.206"
     id="polyline64"
     transform="translate(0,-38)" />
  <polyline
     class="Stem"
     fill="none"
     stroke="#000000"
     stroke-width="2.48"
     stroke-linejoin="bevel"
     points="270.338,1013.64 270.338,1084"
     id="polyline65"
     transform="translate(0,-82)" />
  <path
     class="Note"
     d="m 269.098,931.6364 c 0,4.2656 3.0752,9.0272 11.11041,9.0272 10.31681,0 21.12962,-8.432 21.12962,-17.1616 0,-5.85281 -4.96,-9.12641 -11.11041,-9.12641 -9.62241,0 -21.12962,8.13441 -21.12962,17.26081"
     id="path65"
     style="stroke-width:0.992001" />
  <path
     class="Note"
     d="m 591.842,944.0364 c 0,4.2656 3.0752,9.0272 11.11041,9.0272 10.31681,0 21.12962,-8.432 21.12962,-17.1616 0,-5.8528 -4.96,-9.1264 -11.11041,-9.1264 -9.62241,0 -21.12962,8.1344 -21.12962,17.2608"
     id="path66"
     style="stroke-width:0.992001" />
  <path
     class="Note"
     d="m 1952.9,906.8374 c 0,4.26561 3.0752,9.02721 11.1104,9.02721 10.3168,0 21.1296,-8.43201 21.1296,-17.16161 0,-5.85281 -4.96,-9.12641 -11.1104,-9.12641 -9.6224,0 -21.1296,8.13441 -21.1296,17.26081"
     id="path67"
     style="stroke-width:0.992001" />
  <path
     class="Note"
     d="m 1107.9,563.1724 c 0,4.26561 3.0752,9.02721 11.1104,9.02721 10.3168,0 21.1296,-8.43201 21.1296,-17.16161 0,-5.85281 -4.96,-9.12641 -11.1104,-9.12641 -9.6224,0 -21.1296,8.1344 -21.1296,17.26081"
     id="path68"
     style="stroke-width:0.992001" />
  <path
     class="Note"
     d="m 1900.13,919.2374 c 0,4.2656 3.0752,9.0272 11.1104,9.0272 10.3168,0 21.1296,-8.432 21.1296,-17.1616 0,-5.85281 -4.96,-9.12641 -11.1104,-9.12641 -9.6224,0 -21.1296,8.1344 -21.1296,17.26081"
     id="path69"
     style="stroke-width:0.992001" />
  <path
     class="Note"
     d="m 1847.35,931.6364 c 0,4.2656 3.0752,9.0272 11.1104,9.0272 10.3168,0 21.1296,-8.432 21.1296,-17.1616 0,-5.85281 -4.96,-9.12641 -11.1104,-9.12641 -9.6224,0 -21.1296,8.13441 -21.1296,17.26081"
     id="path70"
     style="stroke-width:0.992001" />
  <path
     class="Note"
     d="m 321.873,944.0364 c 0,4.2656 3.0752,9.0272 11.11041,9.0272 10.31681,0 21.12962,-8.432 21.12962,-17.1616 0,-5.8528 -4.96,-9.1264 -11.11041,-9.1264 -9.62241,0 -21.12962,8.1344 -21.12962,17.2608"
     id="path71"
     style="stroke-width:0.992001" />
  <path
     class="Note"
     d="m 1794.58,931.6364 c 0,4.2656 3.0752,9.0272 11.1104,9.0272 10.3168,0 21.1296,-8.432 21.1296,-17.1616 0,-5.85281 -4.96,-9.12641 -11.1104,-9.12641 -9.6224,0 -21.1296,8.13441 -21.1296,17.26081"
     id="path72"
     style="stroke-width:0.992001" />
  <path
     class="Note"
     d="m 594.532,538.3724 c 0,4.26561 3.0752,9.02721 11.11041,9.02721 10.31681,0 21.12962,-8.43201 21.12962,-17.16161 0,-5.85281 -4.96,-9.12641 -11.11041,-9.12641 -9.62241,0 -21.12962,8.1344 -21.12962,17.26081"
     id="path73"
     style="stroke-width:0.992001" />
  <path
     class="Note"
     d="m 385.942,956.4364 c 0,4.2656 3.0752,9.0272 11.11041,9.0272 10.31681,0 21.12962,-8.432 21.12962,-17.1616 0,-5.8528 -4.96,-9.1264 -11.11041,-9.1264 -9.62241,0 -21.12962,8.1344 -21.12962,17.2608"
     id="path74"
     style="stroke-width:0.992001" />
  <path
     class="Note"
     d="m 1715.42,919.2374 c 0,4.2656 3.0752,9.0272 11.1104,9.0272 10.3168,0 21.1296,-8.432 21.1296,-17.1616 0,-5.85281 -4.96,-9.12641 -11.1104,-9.12641 -9.6224,0 -21.1296,8.1344 -21.1296,17.26081"
     id="path75"
     style="stroke-width:0.992001" />
  <path
     class="Note"
     d="m 1189.52,550.7724 c 0,4.26561 3.0752,9.02721 11.1104,9.02721 10.3168,0 21.1296,-8.43201 21.1296,-17.16161 0,-5.85281 -4.96,-9.12641 -11.1104,-9.12641 -9.6224,0 -21.1296,8.1344 -21.1296,17.26081"
     id="path76"
     style="stroke-width:0.992001" />
  <path
     class="Note"
     d="m 1670.79,944.0364 c 0,4.2656 3.0752,9.0272 11.1104,9.0272 10.3168,0 21.1296,-8.432 21.1296,-17.1616 0,-5.8528 -4.96,-9.1264 -11.1104,-9.1264 -9.6224,0 -21.1296,8.1344 -21.1296,17.2608"
     id="path77"
     style="stroke-width:0.992001" />
  <path
     class="Note"
     d="m 438.717,956.4364 c 0,4.2656 3.0752,9.0272 11.11041,9.0272 10.31681,0 21.12962,-8.432 21.12962,-17.1616 0,-5.8528 -4.96,-9.1264 -11.11041,-9.1264 -9.62241,0 -21.12962,8.1344 -21.12962,17.2608"
     id="path78"
     style="stroke-width:0.992001" />
  <path
     class="Note"
     d="m 1626.15,931.6364 c 0,4.2656 3.0752,9.0272 11.1104,9.0272 10.3168,0 21.1296,-8.432 21.1296,-17.1616 0,-5.85281 -4.96,-9.12641 -11.1104,-9.12641 -9.6224,0 -21.1296,8.13441 -21.1296,17.26081"
     id="path79"
     style="stroke-width:0.992001" />
  <path
     class="Note"
     d="m 539.068,931.6364 c 0,4.2656 3.0752,9.0272 11.11041,9.0272 10.31681,0 21.12962,-8.432 21.12962,-17.1616 0,-5.85281 -4.96,-9.12641 -11.11041,-9.12641 -9.62241,0 -21.12962,8.13441 -21.12962,17.26081"
     id="path80"
     style="stroke-width:0.992001" />
  <path
     class="Note"
     d="m 1271.14,538.3724 c 0,4.26561 3.0752,9.02721 11.1104,9.02721 10.3168,0 21.1296,-8.43201 21.1296,-17.16161 0,-5.85281 -4.96,-9.12641 -11.1104,-9.12641 -9.6224,0 -21.1296,8.1344 -21.1296,17.26081"
     id="path81"
     style="stroke-width:0.992001" />
  <path
     class="Note"
     d="m 1546.99,931.6364 c 0,4.2656 3.0752,9.0272 11.1104,9.0272 10.3168,0 21.1296,-8.432 21.1296,-17.1616 0,-5.85281 -4.96,-9.12641 -11.1104,-9.12641 -9.6224,0 -21.1296,8.13441 -21.1296,17.26081"
     id="path82"
     style="stroke-width:0.992001" />
  <path
     class="Note"
     d="m 1494.22,931.6364 c 0,4.2656 3.0752,9.0272 11.1104,9.0272 10.3168,0 21.1296,-8.432 21.1296,-17.1616 0,-5.85281 -4.96,-9.12641 -11.1104,-9.12641 -9.6224,0 -21.1296,8.13441 -21.1296,17.26081"
     id="path83"
     style="stroke-width:0.992001" />
  <path
     class="Note"
     d="m 896.22662,545.91159 c -9.62241,0 -21.12962,8.0352 -21.12962,17.26081 0,4.26561 3.0752,9.02721 11.11041,9.02721 10.31681,0 21.12962,-8.43201 21.12962,-17.16161 0,-5.85281 -4.96,-9.12641 -11.11041,-9.12641 m -13.68961,21.62562 c -3.27361,0 -3.96801,-2.6784 -3.96801,-3.57121 0,-4.8608 16.66562,-13.39201 21.32802,-13.39201 2.38081,0 3.96801,1.3888 3.96801,3.57121 0,4.96 -16.76482,13.39201 -21.32802,13.39201"
     id="path84"
     style="stroke-width:0.992001" />
  <path
     class="Note"
     d="m 512.911,525.9714 c 0,4.26561 3.0752,9.02721 11.11041,9.02721 10.31681,0 21.12962,-8.43201 21.12962,-17.16161 0,-5.85281 -4.96,-9.12641 -11.11041,-9.12641 -9.62241,0 -21.12962,8.1344 -21.12962,17.26081"
     id="path85"
     style="stroke-width:0.992001" />
  <path
     class="Note"
     d="m 1426.97,919.2374 c 0,4.2656 3.0752,9.0272 11.1104,9.0272 10.3168,0 21.1296,-8.432 21.1296,-17.1616 0,-5.85281 -4.96,-9.12641 -11.1104,-9.12641 -9.6224,0 -21.1296,8.1344 -21.1296,17.26081"
     id="path86"
     style="stroke-width:0.992001" />
  <path
     class="Note"
     d="m 719.894,550.7724 c 0,4.26561 3.0752,9.02721 11.11041,9.02721 10.31681,0 21.12962,-8.43201 21.12962,-17.16161 0,-5.85281 -4.96,-9.12641 -11.11041,-9.12641 -9.62241,0 -21.12962,8.1344 -21.12962,17.26081"
     id="path87"
     style="stroke-width:0.992001" />
  <path
     class="Note"
     d="m 644.617,956.4364 c 0,4.2656 3.0752,9.0272 11.11041,9.0272 10.31681,0 21.12962,-8.432 21.12962,-17.1616 0,-5.8528 -4.96,-9.1264 -11.11041,-9.1264 -9.62241,0 -21.12962,8.1344 -21.12962,17.2608"
     id="path88"
     style="stroke-width:0.992001" />
  <path
     class="Note"
     d="m 1389.47,538.3724 c 0,4.26561 3.0752,9.02721 11.1104,9.02721 10.3168,0 21.1296,-8.43201 21.1296,-17.16161 0,-5.85281 -4.96,-9.12641 -11.1104,-9.12641 -9.6224,0 -21.1296,8.1344 -21.1296,17.26081"
     id="path89"
     style="stroke-width:0.992001" />
  <path
     class="Note"
     d="m 1940.72,525.9714 c 0,4.26561 3.0752,9.02721 11.1104,9.02721 10.3168,0 21.1296,-8.43201 21.1296,-17.16161 0,-5.85281 -4.96,-9.12641 -11.1104,-9.12641 -9.6224,0 -21.1296,8.1344 -21.1296,17.26081"
     id="path90"
     style="stroke-width:0.992001" />
  <path
     class="Note"
     d="m 697.391,956.4364 c 0,4.2656 3.0752,9.0272 11.11041,9.0272 10.31681,0 21.12962,-8.432 21.12962,-17.1616 0,-5.8528 -4.96,-9.1264 -11.11041,-9.1264 -9.62241,0 -21.12962,8.1344 -21.12962,17.2608"
     id="path91"
     style="stroke-width:0.992001" />
  <path
     class="Note"
     d="m 1374.2,919.2374 c 0,4.2656 3.0752,9.0272 11.1104,9.0272 10.3168,0 21.1296,-8.432 21.1296,-17.1616 0,-5.85281 -4.96,-9.12641 -11.1104,-9.12641 -9.6224,0 -21.1296,8.1344 -21.1296,17.26081"
     id="path92"
     style="stroke-width:0.992001" />
  <path
     class="Note"
     d="m 1565.7996,533.51159 c -9.6224,0 -21.1296,8.0352 -21.1296,17.26081 0,4.26561 3.0752,9.02721 11.1104,9.02721 10.3168,0 21.1296,-8.43201 21.1296,-17.16161 0,-5.85281 -4.96,-9.12641 -11.1104,-9.12641 m -13.6896,21.62562 c -3.2736,0 -3.968,-2.6784 -3.968,-3.5712 0,-4.86081 16.6656,-13.39202 21.328,-13.39202 2.3808,0 3.968,1.3888 3.968,3.57121 0,4.96 -16.7648,13.39201 -21.328,13.39201"
     id="path93"
     style="stroke-width:0.992001" />
  <path
     class="Note"
     d="m 431.29,538.3724 c 0,4.26561 3.0752,9.02721 11.11041,9.02721 10.31681,0 21.12962,-8.43201 21.12962,-17.16161 0,-5.85281 -4.96,-9.12641 -11.11041,-9.12641 -9.62241,0 -21.12962,8.1344 -21.12962,17.26081"
     id="path94"
     style="stroke-width:0.992001" />
  <path
     class="Note"
     d="m 1257.85,919.2374 c 0,4.2656 3.0752,9.0272 11.1104,9.0272 10.3168,0 21.1296,-8.432 21.1296,-17.1616 0,-5.85281 -4.96,-9.12641 -11.1104,-9.12641 -9.6224,0 -21.1296,8.1344 -21.1296,17.26081"
     id="path95"
     style="stroke-width:0.992001" />
  <path
     class="Note"
     d="m 750.166,944.0364 c 0,4.2656 3.0752,9.0272 11.11041,9.0272 10.31681,0 21.12962,-8.432 21.12962,-17.1616 0,-5.8528 -4.96,-9.1264 -11.11041,-9.1264 -9.62241,0 -21.12962,8.1344 -21.12962,17.2608"
     id="path96"
     style="stroke-width:0.992001" />
  <path
     class="Note"
     d="m 1190.6,944.0364 c 0,4.2656 3.0752,9.0272 11.1104,9.0272 10.3168,0 21.1296,-8.432 21.1296,-17.1616 0,-5.8528 -4.96,-9.1264 -11.1104,-9.1264 -9.6224,0 -21.1296,8.1344 -21.1296,17.2608"
     id="path97"
     style="stroke-width:0.992001" />
  <path
     class="Note"
     d="m 1859.09,538.3724 c 0,4.26561 3.0752,9.02721 11.1104,9.02721 10.3168,0 21.1296,-8.43201 21.1296,-17.16161 0,-5.85281 -4.96,-9.12641 -11.1104,-9.12641 -9.6224,0 -21.1296,8.1344 -21.1296,17.26081"
     id="path98"
     style="stroke-width:0.992001" />
  <path
     class="Note"
     d="m 802.94,931.6364 c 0,4.2656 3.0752,9.0272 11.11041,9.0272 10.31681,0 21.12962,-8.432 21.12962,-17.1616 0,-5.85281 -4.96,-9.12641 -11.11041,-9.12641 -9.62241,0 -21.12962,8.13441 -21.12962,17.26081"
     id="path99"
     style="stroke-width:0.992001" />
  <path
     class="Note"
     d="m 1145.97,968.8364 c 0,4.2656 3.0752,9.0272 11.1104,9.0272 10.3168,0 21.1296,-8.432 21.1296,-17.1616 0,-5.8528 -4.96,-9.1264 -11.1104,-9.1264 -9.6224,0 -21.1296,8.1344 -21.1296,17.2608"
     id="path100"
     style="stroke-width:0.992001" />
  <path
     class="Note"
     d="m 1777.47,550.7724 c 0,4.26561 3.0752,9.02721 11.1104,9.02721 10.3168,0 21.1296,-8.43201 21.1296,-17.16161 0,-5.85281 -4.96,-9.12641 -11.1104,-9.12641 -9.6224,0 -21.1296,8.1344 -21.1296,17.26081"
     id="path101"
     style="stroke-width:0.992001" />
  <path
     class="Note"
     d="m 1099.9,968.8364 c 0,4.2656 3.0752,9.0272 11.1104,9.0272 10.3168,0 21.1296,-8.432 21.1296,-17.1616 0,-5.8528 -4.96,-9.1264 -11.1104,-9.1264 -9.6224,0 -21.1296,8.1344 -21.1296,17.2608"
     id="path102"
     style="stroke-width:0.992001" />
  <path
     class="Note"
     d="m 930.20662,926.7756 c -9.62241,0 -21.12962,8.0352 -21.12962,17.2608 0,4.2656 3.0752,9.0272 11.11041,9.0272 10.31681,0 21.12962,-8.432 21.12962,-17.1616 0,-5.8528 -4.96,-9.1264 -11.11041,-9.1264 m -13.68961,21.6256 c -3.27361,0 -3.96801,-2.6784 -3.96801,-3.5712 0,-4.8608 16.66562,-13.392 21.32802,-13.392 2.38081,0 3.96801,1.3888 3.96801,3.5712 0,4.96 -16.76482,13.392 -21.32802,13.392"
     id="path103"
     style="stroke-width:0.992001" />
  <path
     class="Clef"
     d="m 226.80161,585.09565 c 0,6.54721 4.96001,15.17762 18.35202,15.17762 4.66241,0 8.72961,-1.1904 12.30081,-3.37281 5.35681,-3.7696 6.74561,-10.31681 6.74561,-16.56641 0,-3.86881 -0.5952,-8.33281 -1.5872,-13.98722 -0.2976,-1.984 -0.8928,-4.96 -1.488,-8.82881 9.72161,-3.1744 16.96321,-13.29281 16.96321,-23.51042 0,-14.97922 -10.61441,-25.09763 -25.09762,-25.09763 -0.992,-5.952 -1.984,-11.80481 -2.7776,-17.36001 10.41601,-11.01121 17.65761,-23.41123 17.65761,-39.18404 0,-9.02721 -2.7776,-16.36802 -4.3648,-19.93922 -2.3808,-5.05921 -5.25761,-8.53121 -7.04321,-8.53121 -0.6944,0 -3.7696,1.1904 -7.0432,5.0592 -6.34881,7.53921 -8.13441,20.23682 -8.13441,28.56963 0,5.35681 0.496,10.21761 2.1824,21.32802 -0.0992,0.0992 -5.25761,5.35681 -7.34081,7.04321 -9.02721,8.33281 -21.52642,20.43522 -21.52642,40.27524 0,18.55042 16.16962,33.13284 34.62083,33.13284 2.87681,0 5.55521,-0.2976 7.83681,-0.69441 1.8848,9.52321 3.07521,16.46722 3.07521,21.72483 0,10.31681 -5.35681,15.77281 -15.37602,15.77281 -2.3808,0 -4.464,-0.496 -4.6624,-0.496 -0.0992,-0.0992 -0.2976,-0.1984 -0.2976,-0.2976 0,-0.1984 0.1984,-0.2976 0.496,-0.2976 4.6624,-0.7936 9.32481,-4.7616 9.32481,-11.11041 0,-5.35681 -4.06721,-11.01121 -11.50722,-11.01121 -6.944,0 -11.30881,5.6544 -11.30881,12.20161 m 20.73282,-132.43213 c 0.8928,-3.96801 5.45601,-14.38402 10.61441,-14.38402 1.48801,0 3.86881,4.76161 3.86881,11.70562 0,10.31681 -7.63841,18.05441 -14.48322,24.80002 -0.5952,-3.968 -1.0912,-7.83681 -1.0912,-12.00321 0,-3.67041 0.2976,-7.04321 1.0912,-10.11841 m 8.72961,101.9777 c -1.984,0.3968 -3.8688,0.5952 -5.7536,0.5952 -14.18562,0 -26.28803,-9.92001 -26.28803,-24.89922 0,-12.10242 8.53121,-22.91523 17.26082,-30.45443 1.6864,-1.48801 3.2736,-2.87681 4.7616,-4.36481 0.8928,5.35681 1.5872,10.01921 2.2816,14.08642 -9.0272,2.6784 -15.17761,12.20161 -15.17761,21.52642 0,6.944 5.456,16.46721 13.39201,16.46721 0.7936,0 1.6864,-0.3968 1.6864,-1.2896 0,-0.8928 -0.992,-1.3888 -2.1824,-2.1824 -3.8688,-2.3808 -6.0512,-4.96 -6.0512,-9.82081 0,-6.05121 4.5632,-10.91201 10.31681,-12.30081 l 5.7536,32.63683 m 14.08642,-18.35202 c 0,7.04321 -2.87681,14.28482 -9.92001,17.16162 -2.08321,-11.90401 -4.76161,-27.67683 -5.45601,-32.04163 8.92801,0 15.37602,6.0512 15.37602,14.88001"
     id="path104"
     style="stroke-width:0.992001" />
  <path
     class="Clef"
     d="m 102.80161,990.7597 c 0,6.5472 4.96001,15.1776 18.35202,15.1776 4.66241,0 8.72961,-1.1904 12.30081,-3.3728 5.35681,-3.7696 6.74561,-10.3168 6.74561,-16.5665 0,-3.8688 -0.5952,-8.3328 -1.5872,-13.9872 -0.2976,-1.984 -0.8928,-4.96 -1.488,-8.8288 9.72161,-3.1744 16.96321,-13.2928 16.96321,-23.5104 0,-14.9792 -10.61441,-25.09763 -25.09762,-25.09763 -0.992,-5.952 -1.984,-11.80481 -2.7776,-17.36001 10.41601,-11.01121 17.65761,-23.41123 17.65761,-39.18404 0,-9.02721 -2.7776,-16.36802 -4.3648,-19.93922 -2.3808,-5.05921 -5.25761,-8.53121 -7.04321,-8.53121 -0.6944,0 -3.7696,1.1904 -7.0432,5.0592 -6.34881,7.53921 -8.13441,20.23682 -8.13441,28.56963 0,5.35681 0.496,10.21761 2.1824,21.32802 -0.0992,0.0992 -5.25761,5.35681 -7.34081,7.04321 C 103.09921,899.89236 90.6,911.99477 90.6,931.8348 c 0,18.5504 16.16962,33.1328 34.62083,33.1328 2.87681,0 5.55521,-0.2976 7.83681,-0.6944 1.8848,9.5232 3.07521,16.4672 3.07521,21.7248 0,10.3169 -5.35681,15.7729 -15.37602,15.7729 -2.3808,0 -4.464,-0.496 -4.6624,-0.496 -0.0992,-0.099 -0.2976,-0.1984 -0.2976,-0.2976 0,-0.1984 0.1984,-0.2976 0.496,-0.2976 4.6624,-0.7936 9.32481,-4.7616 9.32481,-11.1104 0,-5.3569 -4.06721,-11.0113 -11.50722,-11.0113 -6.944,0 -11.30881,5.6544 -11.30881,12.2017 m 20.73282,-132.43218 c 0.8928,-3.96801 5.45601,-14.38402 10.61441,-14.38402 1.48801,0 3.86881,4.76161 3.86881,11.70562 0,10.31681 -7.63841,18.05441 -14.48322,24.80002 -0.5952,-3.968 -1.0912,-7.83681 -1.0912,-12.00321 0,-3.67041 0.2976,-7.04321 1.0912,-10.11841 m 8.72961,101.97768 c -1.984,0.3968 -3.8688,0.5952 -5.7536,0.5952 -14.18562,0 -26.28803,-9.92 -26.28803,-24.8992 0,-12.1024 8.53121,-22.91523 17.26082,-30.45443 1.6864,-1.48801 3.2736,-2.87681 4.7616,-4.36481 0.8928,5.35681 1.5872,10.01921 2.2816,14.08642 -9.0272,2.6784 -15.17761,12.20162 -15.17761,21.52642 0,6.944 5.456,16.4672 13.39201,16.4672 0.7936,0 1.6864,-0.3968 1.6864,-1.2896 0,-0.8928 -0.992,-1.3888 -2.1824,-2.1824 -3.8688,-2.3808 -6.0512,-4.96 -6.0512,-9.8208 0,-6.0512 4.5632,-10.912 10.31681,-12.3008 l 5.7536,32.6368 m 14.08642,-18.352 c 0,7.0432 -2.87681,14.2848 -9.92001,17.1616 -2.08321,-11.904 -4.76161,-27.6768 -5.45601,-32.0416 8.92801,0 15.37602,6.0512 15.37602,14.88"
     id="path105"
     style="stroke-width:0.992001" />
  <path
     class="KeySig"
     d="m 201.99362,855.05499 c 0.5952,-0.0992 1.0912,-0.7936 1.0912,-1.3888 v -5.85281 c 0,-0.992 -0.6944,-1.3888 -1.5872,-1.3888 l -3.2736,0.6944 v -14.78081 h -2.7776 v 15.37601 l -8.82881,1.7856 V 835.51257 H 183.84 v 14.58241 l -3.8688,0.79361 c -0.5952,0.0992 -1.0912,0.7936 -1.0912,1.3888 v 5.7536 c 0,1.0912 0.7936,1.3888 1.6864,1.3888 l 3.2736,-0.6944 v 16.36802 l -3.8688,0.7936 c -0.5952,0.0992 -1.0912,0.7936 -1.0912,1.3888 v 5.75361 c 0,1.0912 0.7936,1.3888 1.6864,1.3888 l 3.2736,-0.6944 v 14.78081 h 2.77761 v -15.37601 l 8.82881,-1.7856 v 13.98721 h 2.7776 v -14.58241 l 3.7696,-0.69441 c 0.5952,-0.0992 1.0912,-0.7936 1.0912,-1.3888 v -5.8528 c 0,-0.992 -0.6944,-1.3888 -1.5872,-1.3888 l -3.2736,0.6944 v -16.36802 l 3.7696,-0.6944 m -15.37601,3.0752 8.82881,-1.7856 v 16.36802 l -8.82881,1.8848 v -16.46722"
     id="path106"
     style="stroke-width:0.992001" />
  <path
     class="KeySig"
     d="m 325.99462,449.38899 c 0.5952,-0.0992 1.0912,-0.7936 1.0912,-1.3888 v -5.85281 c 0,-0.992 -0.6944,-1.3888 -1.5872,-1.3888 l -3.2736,0.6944 v -14.78081 h -2.7776 v 15.37601 l -8.82881,1.7856 V 429.84657 H 307.841 v 14.58241 l -3.8688,0.79361 c -0.5952,0.0992 -1.0912,0.7936 -1.0912,1.3888 v 5.7536 c 0,1.0912 0.7936,1.3888 1.6864,1.3888 l 3.2736,-0.6944 v 16.36802 l -3.8688,0.7936 c -0.5952,0.0992 -1.0912,0.7936 -1.0912,1.3888 v 5.75361 c 0,1.0912 0.7936,1.3888 1.6864,1.3888 l 3.2736,-0.6944 v 14.78081 h 2.77761 v -15.37601 l 8.82881,-1.7856 v 13.98721 h 2.7776 v -14.58241 l 3.7696,-0.69441 c 0.5952,-0.0992 1.0912,-0.7936 1.0912,-1.3888 v -5.8528 c 0,-0.992 -0.6944,-1.3888 -1.5872,-1.3888 l -3.2736,0.6944 v -16.36802 l 3.7696,-0.6944 m -15.37601,3.0752 8.82881,-1.7856 v 16.36802 l -8.82881,1.8848 v -16.46722"
     id="path107"
     style="stroke-width:0.992001" />
  <path
     class="TimeSig"
     d="m 384.12403,491.64818 c -2.48,1.5872 -4.2656,4.46401 -4.2656,7.63841 0,0.3968 0,0.7936 0.0992,1.1904 0.496,4.06721 3.7696,7.24161 7.83681,7.73761 0.2976,0 0.7936,0 1.0912,0 4.96,0 8.92801,-3.96801 8.92801,-8.92801 0,-0.6944 0,-1.3888 -0.1984,-2.0832 -0.8928,-4.26561 -4.76161,-13.39202 -21.62563,-13.39202 -21.62562,0 -24.10562,17.95522 -24.10562,24.40323 0,11.80481 1.488,26.58563 26.28803,26.58563 9.82081,0 17.45921,-5.75361 17.85601,-16.36802 0,-0.496 -0.2976,-0.7936 -0.7936,-0.7936 h -1.2896 c -0.3968,0 -0.7936,0.3968 -0.7936,0.7936 -0.3968,8.23361 -6.2496,13.19361 -14.97921,13.19361 -8.63041,0 -12.79682,-4.6624 -12.79682,-13.39201 v -18.94722 c 0,-5.55521 2.18241,-11.90401 11.01121,-11.90401 4.66241,0 6.74561,1.6864 7.83681,3.3728 0.0992,0.1984 0.0992,0.2976 0.0992,0.496 0,0.0992 0,0.2976 -0.1984,0.3968"
     id="path108"
     style="stroke-width:0.992001" />
  <path
     class="Beam"
     fill-rule="evenodd"
     d="m 1777.47,602.388 165.73,-12.4 v 12.435 l -165.73,12.4 v -12.435"
     id="path109" />
  <path
     class="Beam"
     fill-rule="evenodd"
     d="m 269.098,995.64 119.324,12.4 v 12.46 l -119.324,-12.4 v -12.46"
     id="path110" />
  <path
     class="Beam"
     fill-rule="evenodd"
     d="m 1099.9,1032.87 160.43,-6.2 v 12.41 l -160.43,6.2 v -12.41"
     id="path111" />
  <path
     class="Beam"
     fill-rule="evenodd"
     d="m 1099.9,1014.27 48.55,-1.88 v 12.41 l -48.55,1.88 v -12.41"
     id="path112" />
  <path
     class="Beam"
     fill-rule="evenodd"
     d="m 1137.65,459.801 165.72,-6.2 v 12.409 l -165.72,6.2 v -12.409"
     id="path113" />
  <path
     class="Beam"
     fill-rule="evenodd"
     d="m 1847.35,989.43 108.03,-12.4 v 12.48 l -108.03,12.4 v -12.48"
     id="path114" />
  <path
     class="Beam"
     fill-rule="evenodd"
     d="m 1626.15,1001.82 47.12,6.2 v 12.5 l -47.12,-6.2 v -12.5"
     id="path115" />
  <path
     class="Beam"
     fill-rule="evenodd"
     d="m 1626.15,983.22 47.12,6.2 v 12.5 l -47.12,-6.2 v -12.5"
     id="path116" />
  <path
     class="Beam"
     fill-rule="evenodd"
     d="m 539.068,995.63 108.029,12.4 v 12.48 l -108.029,-12.4 v -12.48"
     id="path117" />
  <path
     class="Beam"
     fill-rule="evenodd"
     d="m 1374.2,983.26 122.5,6.2 v 12.42 l -122.5,-6.2 v -12.42"
     id="path118" />
  <path
     class="Beam"
     fill-rule="evenodd"
     d="m 697.391,1008.03 108.029,-12.4 v 12.48 l -108.029,12.4 v -12.48"
     id="path119" />
  <path
     class="Beam"
     fill-rule="evenodd"
     d="m 431.29,590.006 h 165.722 v 12.4 H 431.29 v -12.4"
     id="path120" />
  <path
     class="Hook"
     d="m 1794.58,1007.9708 c 0,0.6944 0.5952,1.2896 1.2896,1.2896 0.496,0 1.0912,-0.3968 1.1904,-0.7936 0,-0.099 0.8928,-3.5712 0.992,-3.8688 0.099,-0.3968 0.992,-4.1664 4.5632,-10.0192 3.8688,-6.448 9.8208,-11.1104 14.7808,-18.0544 4.96,-6.944 7.8368,-13.4912 7.8368,-22.2209 0,-9.0272 -1.984,-16.5664 -7.3408,-26.1888 -0.2976,-0.6944 -0.8928,-1.0912 -1.488,-1.0912 -0.1984,0 -0.3968,0 -0.496,0.099 -0.496,0.1984 -0.6944,0.5952 -0.6944,1.1904 0,0.2976 0.099,0.6944 0.2976,1.1904 3.968,9.2256 5.5552,14.4832 5.5552,21.6256 0,8.2337 -2.8768,12.4993 -4.6624,15.5745 -6.448,11.0112 -16.864,16.368 -21.0304,17.7568 -0.6944,0.1984 -0.7936,0.7936 -0.7936,1.0912 v 22.4192"
     id="path121"
     style="stroke-width:0.992001" />
  <path
     class="Lyrics"
     d="m 1888.76,700.161 v 24.35 h 3.8 v -43.7 h -3.8 v 16.1 h -8.5 v 3.25 h 8.5 m -10.3,13.2 v -28.9 h -3.8 v 11.15 h -12.95 v -11.15 h -3.8 v 28.9 h 20.55 m -3.8,-3.2 h -12.95 v -11.4 h 12.95 v 11.4"
     id="path122" />
  <path
     class="Lyrics"
     d="m 746.304,722.311 v -40.45 h -3.7 v 10.95 h -6.45 v 3.2 h 6.45 v 8 h -7.45 v 3.15 h 7.45 v 15.15 h 3.7 m 8.3,2.2 v -43.7 h -3.75 v 43.7 h 3.75 m -18.95,-38.25 h -16.55 v 3.2 h 12.75 c -0.6,9.1 -5.3,17.9 -14.4,22.85 l 2.5,2.85 c 10.1,-6.45 15.4,-15.55 15.7,-28.9"
     id="path123" />
  <path
     class="Lyrics"
     d="m 1288.1,1114.3 v 43.7 h 3.8 v -43.7 h -3.8 m -6.9,13.8 c 0,-6.4 -4.9,-10.4 -11.35,-10.4 -6.35,0 -11.4,4.25 -11.4,10.4 0,5.85 4.95,10.15 11.4,10.15 6.3,0 11.35,-3.95 11.35,-10.15 m -3.7,0 c 0,4.1 -3.5,6.95 -7.65,6.95 -4.25,0 -7.7,-2.9 -7.7,-6.95 0,-4.1 3.5,-7.15 7.7,-7.15 4.25,0 7.65,2.75 7.65,7.15 m 8.05,18.8 -0.35,-3.1 c -3.2,0.4 -8.85,0.75 -14.95,0.95 -5.3,0.3 -10.45,0.4 -14.2,0.35 l 0.7,3.35 c 3.3,-0.05 8.1,-0.2 13.25,-0.45 5.55,-0.25 11.8,-0.65 15.55,-1.1"
     id="path124" />
  <path
     class="Lyrics"
     d="m 1813.68,701.611 v -3.2 h -7.15 v -17.6 h -3.8 v 43.7 h 3.8 v -22.9 h 7.15 m -40.15,-2.1 c 0,9.3 4.1,15.5 11.2,15.5 7.1,0 11.15,-6.2 11.15,-15.45 0,-9.25 -4.05,-15.45 -11.15,-15.45 -7.1,0 -11.2,6.2 -11.2,15.4 m 18.65,0.05 c 0,7.15 -2.9,12.15 -7.45,12.15 -4.55,0 -7.5,-5 -7.5,-12.15 0,-7.2 2.95,-12.15 7.5,-12.15 4.55,0 7.45,4.95 7.45,12.15"
     id="path125" />
  <path
     class="Lyrics"
     d="m 715.701,1135.45 v -19.15 h -3.8 v 6.3 h -12.85 v -6.2 h -3.8 v 19.05 h 20.45 m 16.1,20.35 c -5.6,-0.55 -13.2,-4.3 -14.3,-8.45 h 12.75 v -3.1 h -29.9 v 3.1 h 12.9 c -1.05,4.15 -8.2,7.9 -14.5,8.4 l 1.65,3 c 6.2,-0.8 13,-4.35 14.95,-8.1 2.25,3.8 8.1,7.2 14.6,8.15 l 1.85,-3 m -2.85,-17.8 v -23.7 h -3.8 v 23.7 h 3.8 m -17.05,-5.75 h -12.85 v -6.5 h 12.85 v 6.5 m 10.2,9.25 v -3.25 h -13.55 v 3.25 h 13.55"
     id="path126" />
  <path
     class="Lyrics"
     d="m 1419.13,700.161 v 24.35 h 3.8 v -43.7 h -3.8 v 16.1 h -8.5 v 3.25 h 8.5 m -10.3,13.2 v -28.9 h -3.8 v 11.15 h -12.95 v -11.15 h -3.8 v 28.9 h 20.55 m -3.8,-3.2 h -12.95 v -11.4 h 12.95 v 11.4"
     id="path127" />
  <path
     class="Lyrics"
     d="m 1215.86,1144.75 c -6,-3.25 -11.55,-10.3 -11.55,-18.45 v -4.45 h 10.2 v -3.15 h -24.35 v 3.15 h 10.2 v 4.5 c 0,8.25 -5.25,15.7 -11.65,19.45 l 2.35,2.8 c 5.05,-3.25 9.85,-8.85 11.3,-14.3 1.5,5.15 7.05,10.65 11.15,13.3 l 2.35,-2.85 m 5.05,-30.45 v 43.7 h 3.8 v -43.7 h -3.8"
     id="path128" />
  <path
     class="Lyrics"
     d="m 771.263,1141.75 c -4.75,1.15 -13.3,1.8 -20.8,1.85 v -24.95 h -3.8 v 28.3 h 2.65 c 6.65,0 17.15,-0.75 22.5,-2 l -0.55,-3.2 m 7.5,-27.45 h -3.8 v 43.7 h 3.8 v -23.1 h 7.15 v -3.25 h -7.15 v -17.35"
     id="path129" />
  <path
     class="Lyrics"
     d="m 1569.94,711.261 c -6,-3.25 -11.55,-10.3 -11.55,-18.45 v -4.45 h 10.2 v -3.15 h -24.35 v 3.15 h 10.2 v 4.5 c 0,8.25 -5.25,15.7 -11.65,19.45 l 2.35,2.8 c 5.05,-3.25 9.85,-8.85 11.3,-14.3 1.5,5.15 7.05,10.65 11.15,13.3 l 2.35,-2.85 m 5.05,-30.45 v 43.7 h 3.8 v -43.7 h -3.8"
     id="path130" />
  <path
     class="Lyrics"
     d="m 1395.29,1141.75 c -4.75,1.15 -13.3,1.8 -20.8,1.85 v -24.95 h -3.8 v 28.3 h 2.65 c 6.65,0 17.15,-0.75 22.5,-2 l -0.55,-3.2 m 7.5,-27.45 h -3.8 v 43.7 h 3.8 v -23.1 h 7.15 v -3.25 h -7.15 v -17.35"
     id="path131" />
  <path
     class="Lyrics"
     d="m 1978.17,1144.75 c -6,-3.25 -11.55,-10.3 -11.55,-18.45 v -4.45 h 10.2 v -3.15 h -24.35 v 3.15 h 10.2 v 4.5 c 0,8.25 -5.25,15.7 -11.65,19.45 l 2.35,2.8 c 5.05,-3.25 9.85,-8.85 11.3,-14.3 1.5,5.15 7.05,10.65 11.15,13.3 l 2.35,-2.85 m 5.05,-30.45 v 43.7 h 3.8 v -43.7 h -3.8"
     id="path132" />
  <path
     class="Lyrics"
     d="m 678.286,1158 v -43.7 h -3.8 v 43.7 h 3.8 m -15.9,-37.6 v -3.2 h -12.75 v 3.2 h 12.75 m 6.75,7.55 v -3.15 h -25.95 v 3.15 h 25.95 m -2.6,11.85 c 0,-5.15 -4.1,-9.05 -10.2,-9.05 -6.1,0 -10.2,3.95 -10.2,9.05 0,5.1 4.1,9 10.2,9 6.1,0 10.2,-3.95 10.2,-9 m -3.8,0 c 0,3.45 -2.6,5.9 -6.4,5.9 -3.75,0 -6.45,-2.45 -6.45,-5.9 0,-3.5 2.7,-5.9 6.45,-5.9 3.7,0 6.4,2.4 6.4,5.9"
     id="path133" />
  <path
     class="Lyrics"
     d="m 623.299,1133.35 v -3.05 h -26 v -4.5 h 25.15 v -10.25 h -29.05 v 3.05 h 25.25 v 4.25 h -25.15 v 10.5 h 29.8 m -30.55,11.65 v 3.15 h 25.95 v 10.15 h 3.8 V 1145 h -12.7 v -4.35 h 17.9 v -3.2 h -39.45 v 3.2 h 17.75 v 4.35 h -13.25"
     id="path134" />
  <path
     class="Lyrics"
     d="m 1455.6,1114.3 h -3.75 v 43.7 h 3.75 v -22.9 h 7.05 v -3.2 h -7.05 v -17.6 m -7.6,28.6 c -5.85,1.1 -13.6,1.55 -20.55,1.5 v -10.55 h 16.3 v -15.5 h -20.2 v 3.15 h 16.4 v 9.2 h -16.3 v 16.9 h 3.7 c 7.15,0 16.25,-0.65 21.15,-1.65 l -0.5,-3.05"
     id="path135" />
  <path
     class="Lyrics"
     d="m 908.578,712.561 v -31.75 h -3.8 v 31.75 h 3.8 m -9.3,-9.95 c -5.2,-1.85 -11.1,-7.25 -11.1,-14.55 v -4.75 h -3.85 v 4.85 c 0,7 -5.65,13.4 -11.4,15.95 l 2.3,3 c 4.75,-2.4 9.8,-7.45 11.1,-12.15 1.8,4.6 6.3,8.75 10.8,10.7 l 2.15,-3.05 m 10.25,20.55 v -3.15 h -25.35 v -10.3 h -3.8 v 13.45 h 29.15"
     id="path136" />
  <path
     class="Lyrics"
     d="m 467.882,702.461 v -3.2 h -7.1 v -18.45 h -3.8 v 43.7 h 3.8 v -22.05 h 7.1 m -21.55,-15.4 v -3.25 h -12.85 v 3.25 h 12.85 m 6.45,7.4 v -3.15 h -25.8 v 3.15 h 25.8 m -2.6,11.85 c 0,-5.15 -4.1,-9.05 -10.2,-9.05 -6.1,0 -10.2,3.95 -10.2,9.05 0,5.1 4.1,9 10.2,9 6.1,0 10.2,-3.95 10.2,-9 m -3.8,0 c 0,3.4 -2.65,5.85 -6.4,5.85 -3.65,0 -6.4,-2.45 -6.4,-5.85 0,-3.45 2.75,-5.85 6.4,-5.85 3.7,0 6.4,2.4 6.4,5.85"
     id="path137" />
  <path
     class="Lyrics"
     d="m 930.271,1127.65 h 8.3 v 9.1 h -8.3 v 3.15 h 8.3 v 18.1 h 3.8 v -43.7 h -3.8 v 10.2 h -8.3 v 3.15 m -2.45,19.3 v -28.25 h -19.8 v 28.25 h 19.8 m -3.8,-3.15 h -12.2 v -21.95 h 12.2 v 21.95"
     id="path138" />
  <path
     class="Lyrics"
     d="m 1523.47,1114.3 h -3.8 v 43.7 h 3.8 v -22.25 h 7.15 v -3.25 h -7.15 v -18.2 m -11.35,4.7 h -20.55 v 3.2 h 16.45 c -0.8,9.85 -7.05,19.05 -17.95,24.1 l 2.35,3 c 11.25,-5.85 19.45,-16.1 19.7,-30.3"
     id="path139" />
  <path
     class="Lyrics"
     d="m 1307.35,701.611 v -3.2 h -7.15 v -17.6 h -3.8 v 43.7 h 3.8 v -22.9 h 7.15 m -40.15,-2.1 c 0,9.3 4.1,15.5 11.2,15.5 7.1,0 11.15,-6.2 11.15,-15.45 0,-9.25 -4.05,-15.45 -11.15,-15.45 -7.1,0 -11.2,6.2 -11.2,15.4 m 18.65,0.05 c 0,7.15 -2.9,12.15 -7.45,12.15 -4.55,0 -7.5,-5 -7.5,-12.15 0,-7.2 2.95,-12.15 7.5,-12.15 4.55,0 7.45,4.95 7.45,12.15"
     id="path140" />
  <path
     class="Lyrics"
     d="m 569.265,1135 v 23 h 3.8 v -43.7 h -3.8 v 17.45 h -9.9 v 3.25 h 9.9 m -9.75,-16.05 h -20.6 v 3.2 h 16.5 c -0.75,9.85 -7.05,19.35 -18.1,24.2 l 2.2,3 c 11.25,-5.35 19.8,-16.2 20,-30.4"
     id="path141" />
  <path
     class="Lyrics"
     d="m 302.471,1158 v -43.7 h -3.8 v 43.7 h 3.8 m -34.5,-25 c 0,9.3 4.1,15.5 11.25,15.5 7.25,0 11.3,-6.2 11.3,-15.45 0,-9.25 -4.05,-15.45 -11.3,-15.45 -7.15,0 -11.25,6.2 -11.25,15.4 m 18.95,0.05 c 0,7.15 -3.05,12.15 -7.7,12.15 -4.6,0 -7.65,-5 -7.65,-12.15 0,-7.2 3.05,-12.15 7.65,-12.15 4.65,0 7.7,4.95 7.7,12.15"
     id="path142" />
  <path
     class="Lyrics"
     d="M 1175.63,1133.65 V 1158 h 3.8 v -43.7 h -3.8 v 16.1 h -8.5 v 3.25 h 8.5 m -10.3,13.2 v -28.9 h -3.8 v 11.15 h -12.95 v -11.15 h -3.8 v 28.9 h 20.55 m -3.8,-3.2 h -12.95 v -11.4 h 12.95 v 11.4"
     id="path143" />
  <path
     class="Lyrics"
     d="m 1965.98,711.261 c -6,-3.25 -11.55,-10.3 -11.55,-18.45 v -4.45 h 10.2 v -3.15 h -24.35 v 3.15 h 10.2 v 4.5 c 0,8.25 -5.25,15.7 -11.65,19.45 l 2.35,2.8 c 5.05,-3.25 9.85,-8.85 11.3,-14.3 1.5,5.15 7.05,10.65 11.15,13.3 l 2.35,-2.85 m 5.05,-30.45 v 43.7 h 3.8 v -43.7 h -3.8"
     id="path144" />
  <path
     class="Lyrics"
     d="m 837.191,1158 v -43.7 h -3.85 v 43.7 h 3.85 m -9.4,-13.4 c -6.05,-3.6 -11.35,-10.75 -11.35,-18.75 v -7.75 h -3.85 v 7.9 c 0,7.75 -5.25,15.7 -11.65,19.7 l 2.5,2.85 c 5.05,-3.6 9.55,-8.95 11.15,-14.4 1.7,5.25 6.85,10.65 10.8,13.35 l 2.4,-2.9"
     id="path145" />
  <path
     class="Lyrics"
     d="m 1658.01,1128.95 c 0,-7.2 -6.25,-11.9 -15.8,-11.9 -9.4,0 -15.7,4.7 -15.7,11.9 0,6.7 5.45,11.2 13.8,11.8 v 8.3 h -17.75 v 3.2 h 39.45 v -3.2 h -17.9 v -8.3 c 8.4,-0.55 13.9,-5.1 13.9,-11.8 m -3.65,0.05 c 0,5.25 -4.8,8.7 -12.15,8.7 -7.25,0 -12,-3.45 -12,-8.7 0,-5.25 4.75,-8.75 12,-8.75 7.4,0 12.15,3.5 12.15,8.75"
     id="path146" />
  <path
     class="Lyrics"
     d="m 1218.72,680.811 v 43.7 h 3.8 v -43.7 h -3.8 m -4,28.65 c -5.3,0.95 -13.95,1.35 -20.9,1.35 h -1.05 v -10.45 h 16.6 v -15.5 h -20.6 v 3.15 h 16.75 v 9.2 h -16.55 v 16.85 h 4.45 c 9.6,0 17.1,-0.75 21.65,-1.45 l -0.35,-3.15"
     id="path147" />
  <path
     class="Lyrics"
     d="m 602.192,684.611 c -6.35,0 -9.6,6.2 -9.6,14.95 0,8.8 3.25,14.95 9.6,14.95 6,0 9.2,-5.35 9.6,-13.25 h 4.7 v 21.15 h 3.7 v -40.75 h -3.7 v 16.45 h -4.7 c -0.3,-7.95 -3.55,-13.5 -9.6,-13.5 m 5.85,14.95 c 0,7.1 -2.3,11.6 -5.85,11.6 -3.5,0 -5.75,-4.5 -5.75,-11.6 0,-7.05 2.25,-11.6 5.75,-11.6 3.55,0 5.85,4.55 5.85,11.6 m 20.7,24.95 v -43.7 h -3.75 v 43.7 h 3.75"
     id="path148" />
  <path
     class="Lyrics"
     d="m 1680.69,1140.6 v 4.15 h 12.45 v -4.15 h -12.45"
     id="path149" />
  <path
     class="Lyrics"
     d="m 419.315,1158 v -43.7 h -3.8 v 43.7 h 3.8 m -34.5,-25 c 0,9.3 4.1,15.5 11.25,15.5 7.25,0 11.3,-6.2 11.3,-15.45 0,-9.25 -4.05,-15.45 -11.3,-15.45 -7.15,0 -11.25,6.2 -11.25,15.4 m 18.95,0.05 c 0,7.15 -3.05,12.15 -7.7,12.15 -4.6,0 -7.65,-5 -7.65,-12.15 0,-7.2 3.05,-12.15 7.65,-12.15 4.65,0 7.7,4.95 7.7,12.15"
     id="path150" />
  <path
     class="Lyrics"
     d="m 548.768,702.161 v -3.15 h -39.45 v 3.15 h 39.45 m -3.4,21.8 v -3.1 h -27.45 v -4.65 h 25.75 v -10.2 h -29.6 v 3.05 h 25.8 v 4.25 h -25.8 v 10.65 h 31.3 m -1.2,-28.8 v -3.15 h -25.85 v -10.15 h -3.8 v 13.3 h 29.65"
     id="path151" />
  <path
     class="Lyrics"
     d="m 1749.67,1158 v -43.7 h -3.85 v 43.7 h 3.85 m -9.4,-13.4 c -6.05,-3.6 -11.35,-10.75 -11.35,-18.75 v -7.75 h -3.85 v 7.9 c 0,7.75 -5.25,15.7 -11.65,19.7 l 2.5,2.85 c 5.05,-3.6 9.55,-8.95 11.15,-14.4 1.7,5.25 6.85,10.65 10.8,13.35 l 2.4,-2.9"
     id="path152" />
  <path
     class="Lyrics"
     d="M 1929.8,1133.65 V 1158 h 3.8 v -43.7 h -3.8 v 16.1 h -8.5 v 3.25 h 8.5 m -10.3,13.2 v -28.9 h -3.8 v 11.15 h -12.95 v -11.15 h -3.8 v 28.9 h 20.55 m -3.8,-3.2 h -12.95 v -11.4 h 12.95 v 11.4"
     id="path153" />
  <path
     class="Lyrics"
     d="m 1136.1,1135.1 v -3.2 h -7.15 v -17.6 h -3.8 v 43.7 h 3.8 v -22.9 h 7.15 m -40.15,-2.1 c 0,9.3 4.1,15.5 11.2,15.5 7.1,0 11.15,-6.2 11.15,-15.45 0,-9.25 -4.05,-15.45 -11.15,-15.45 -7.1,0 -11.2,6.2 -11.2,15.4 m 18.65,0.05 c 0,7.15 -2.9,12.15 -7.45,12.15 -4.55,0 -7.5,-5 -7.5,-12.15 0,-7.2 2.95,-12.15 7.5,-12.15 4.55,0 7.45,4.95 7.45,12.15"
     id="path154" />
  <path
     class="Lyrics"
     d="m 1883.56,1135.1 v -3.2 h -7.15 v -17.6 h -3.8 v 43.7 h 3.8 v -22.9 h 7.15 m -40.15,-2.1 c 0,9.3 4.1,15.5 11.2,15.5 7.1,0 11.15,-6.2 11.15,-15.45 0,-9.25 -4.05,-15.45 -11.15,-15.45 -7.1,0 -11.2,6.2 -11.2,15.4 m 18.65,0.05 c 0,7.15 -2.9,12.15 -7.45,12.15 -4.55,0 -7.5,-5 -7.5,-12.15 0,-7.2 2.95,-12.15 7.5,-12.15 4.55,0 7.45,4.95 7.45,12.15"
     id="path155" />
  <path
     class="Lyrics"
     d="m 353.28,1133.45 v -3 h -25.95 v -4.5 h 25.1 v -10.1 h -29.1 v 3 h 25.3 v 4.25 h -25.1 v 10.35 h 29.75 m 4.45,6.95 v -3.1 h -39.45 v 3.1 h 39.45 m -5.05,17 v -13.05 h -29.35 v 13.05 h 29.35 m -3.8,-3 h -21.75 v -7.05 h 21.75 v 7.05"
     id="path156" />
  <path
     class="Lyrics"
     d="m 1815.77,1127.65 h 8.3 v 9.1 h -8.3 v 3.15 h 8.3 v 18.1 h 3.8 v -43.7 h -3.8 v 10.2 h -8.3 v 3.15 m -2.45,19.3 v -28.25 h -19.8 v 28.25 h 19.8 m -3.8,-3.15 h -12.2 v -21.95 h 12.2 v 21.95"
     id="path157" />
  <path
     class="Lyrics"
     d="m 1139.47,692.411 c 0,-5.8 -5.85,-9.75 -15.65,-9.75 -9.75,0 -15.65,3.95 -15.65,9.75 0,5.85 5.9,9.8 15.65,9.8 9.8,0 15.65,-4 15.65,-9.8 m -15.65,-6.45 c 7.45,0 11.95,2.45 11.95,6.45 0,4.05 -4.5,6.5 -11.95,6.5 -7.35,0 -11.85,-2.45 -11.85,-6.5 0,-4 4.5,-6.45 11.85,-6.45 m 1.9,38.6 v -15.2 h 18.05 v -3.2 h -39.5 v 3.2 h 17.65 v 15.2 h 3.8"
     id="path158" />
  <path
     class="Tuplet"
     d="m 1182.83,1072.46 c 2.11,-0.67 2.97,-1.03 4.05,-1.75 2.11,-1.4 3.42,-3.87 3.42,-6.39 0,-4.28 -3.42,-7.16 -8.46,-7.16 -4.91,0 -9.05,3.06 -9.05,6.75 0,1.85 1.13,3.11 2.84,3.11 1.48,0 2.56,-1.08 2.56,-2.57 0,-0.76 -0.22,-1.3 -0.94,-2.02 -0.45,-0.41 -0.63,-0.72 -0.63,-1.04 0,-1.08 2.25,-2.2 4.36,-2.2 3.02,0 4.82,1.66 4.82,4.45 0,4.01 -2.84,7.79 -5.85,7.79 -0.14,0 -0.54,-0.05 -1.04,-0.09 -1.3,-0.09 -1.3,-0.09 -1.57,-0.09 -0.99,0 -1.53,0.45 -1.53,1.26 0,0.72 0.49,1.17 1.3,1.17 0.23,0 0.54,-0.05 0.9,-0.09 0.63,-0.14 1.31,-0.18 1.71,-0.18 2.12,0 3.56,1.89 3.56,4.68 0,4.86 -2.39,9.54 -7.83,9.54 -2.52,0 -4.68,-1.26 -4.68,-2.7 0,-0.5 0.18,-0.68 0.9,-0.99 1.3,-0.59 1.84,-1.4 1.84,-2.61 0,-1.58 -1.26,-2.79 -2.88,-2.79 -1.93,0 -3.19,1.53 -3.19,3.87 0,4.36 3.33,7.11 8.73,7.11 6.79,0 11.97,-4.55 11.97,-10.58 0,-3.51 -2.16,-5.49 -5.31,-6.48"
     id="path159" />
  <path
     class="Tuplet"
     d="m 1223.23,424.825 c 2.11,-0.675 2.97,-1.035 4.05,-1.755 2.11,-1.395 3.42,-3.87 3.42,-6.39 0,-4.275 -3.42,-7.155 -8.46,-7.155 -4.91,0 -9.05,3.06 -9.05,6.75 0,1.845 1.13,3.105 2.84,3.105 1.48,0 2.56,-1.08 2.56,-2.565 0,-0.765 -0.22,-1.305 -0.94,-2.025 -0.45,-0.405 -0.63,-0.72 -0.63,-1.035 0,-1.08 2.25,-2.205 4.36,-2.205 3.02,0 4.82,1.665 4.82,4.455 0,4.005 -2.84,7.785 -5.85,7.785 -0.14,0 -0.54,-0.045 -1.04,-0.09 -1.3,-0.09 -1.3,-0.09 -1.57,-0.09 -0.99,0 -1.53,0.45 -1.53,1.26 0,0.72 0.49,1.17 1.3,1.17 0.23,0 0.54,-0.045 0.9,-0.09 0.63,-0.135 1.31,-0.18 1.71,-0.18 2.12,0 3.56,1.89 3.56,4.68 0,4.86 -2.39,9.54 -7.83,9.54 -2.52,0 -4.68,-1.26 -4.68,-2.7 0,-0.495 0.18,-0.675 0.9,-0.99 1.3,-0.585 1.84,-1.395 1.84,-2.61 0,-1.575 -1.26,-2.79 -2.88,-2.79 -1.93,0 -3.19,1.53 -3.19,3.87 0,4.365 3.33,7.11 8.73,7.11 6.79,0 11.97,-4.545 11.97,-10.575 0,-3.51 -2.16,-5.49 -5.31,-6.48"
     id="path160" />
  <path
     class="Tuplet"
     d="m 1904.09,1027.12 c 2.11,-0.67 2.97,-1.03 4.05,-1.75 2.11,-1.4 3.42,-3.87 3.42,-6.39 0,-4.28 -3.42,-7.16 -8.46,-7.16 -4.91,0 -9.05,3.06 -9.05,6.75 0,1.85 1.13,3.11 2.84,3.11 1.48,0 2.56,-1.08 2.56,-2.57 0,-0.76 -0.22,-1.3 -0.94,-2.02 -0.45,-0.41 -0.63,-0.72 -0.63,-1.04 0,-1.08 2.25,-2.2 4.36,-2.2 3.02,0 4.82,1.66 4.82,4.45 0,4.01 -2.84,7.79 -5.85,7.79 -0.14,0 -0.54,-0.05 -1.04,-0.09 -1.3,-0.09 -1.3,-0.09 -1.57,-0.09 -0.99,0 -1.53,0.45 -1.53,1.26 0,0.72 0.49,1.17 1.3,1.17 0.23,0 0.54,-0.05 0.9,-0.09 0.63,-0.14 1.31,-0.18 1.71,-0.18 2.12,0 3.56,1.89 3.56,4.68 0,4.86 -2.39,9.54 -7.83,9.54 -2.52,0 -4.68,-1.26 -4.68,-2.7 0,-0.5 0.18,-0.68 0.9,-0.99 1.3,-0.59 1.84,-1.4 1.84,-2.61 0,-1.58 -1.26,-2.79 -2.88,-2.79 -1.93,0 -3.19,1.53 -3.19,3.87 0,4.36 3.33,7.11 8.73,7.11 6.79,0 11.97,-4.55 11.97,-10.58 0,-3.51 -2.16,-5.49 -5.31,-6.48"
     id="path161" />
  <path
     class="Tuplet"
     d="m 1863.05,638.972 c 2.12,-0.675 2.97,-1.035 4.05,-1.755 2.12,-1.395 3.42,-3.87 3.42,-6.39 0,-4.275 -3.42,-7.155 -8.46,-7.155 -4.9,0 -9.04,3.06 -9.04,6.75 0,1.845 1.12,3.105 2.83,3.105 1.49,0 2.57,-1.08 2.57,-2.565 0,-0.765 -0.23,-1.305 -0.95,-2.025 -0.45,-0.405 -0.63,-0.72 -0.63,-1.035 0,-1.08 2.25,-2.205 4.37,-2.205 3.01,0 4.81,1.665 4.81,4.455 0,4.005 -2.83,7.785 -5.85,7.785 -0.13,0 -0.54,-0.045 -1.03,-0.09 -1.31,-0.09 -1.31,-0.09 -1.58,-0.09 -0.99,0 -1.53,0.45 -1.53,1.26 0,0.72 0.5,1.17 1.31,1.17 0.22,0 0.54,-0.045 0.9,-0.09 0.63,-0.135 1.3,-0.18 1.71,-0.18 2.11,0 3.55,1.89 3.55,4.68 0,4.86 -2.38,9.54 -7.83,9.54 -2.52,0 -4.68,-1.26 -4.68,-2.7 0,-0.495 0.18,-0.675 0.9,-0.99 1.31,-0.585 1.85,-1.395 1.85,-2.61 0,-1.575 -1.26,-2.79 -2.88,-2.79 -1.94,0 -3.2,1.53 -3.2,3.87 0,4.365 3.33,7.11 8.73,7.11 6.8,0 11.97,-4.545 11.97,-10.575 0,-3.51 -2.16,-5.49 -5.31,-6.48"
     id="path162" />
  <path
     class="Tuplet"
     d="m 331.476,1044.39 c 2.115,-0.67 2.97,-1.03 4.05,-1.75 2.115,-1.4 3.42,-3.87 3.42,-6.39 0,-4.28 -3.42,-7.16 -8.46,-7.16 -4.905,0 -9.045,3.06 -9.045,6.75 0,1.85 1.125,3.11 2.835,3.11 1.485,0 2.565,-1.08 2.565,-2.57 0,-0.76 -0.225,-1.3 -0.945,-2.02 -0.45,-0.41 -0.63,-0.72 -0.63,-1.04 0,-1.08 2.25,-2.2 4.365,-2.2 3.015,0 4.815,1.66 4.815,4.45 0,4.01 -2.835,7.79 -5.85,7.79 -0.135,0 -0.54,-0.05 -1.035,-0.09 -1.305,-0.09 -1.305,-0.09 -1.575,-0.09 -0.99,0 -1.53,0.45 -1.53,1.26 0,0.72 0.495,1.17 1.305,1.17 0.225,0 0.54,-0.05 0.9,-0.09 0.63,-0.14 1.305,-0.18 1.71,-0.18 2.115,0 3.555,1.89 3.555,4.68 0,4.86 -2.385,9.54 -7.83,9.54 -2.52,0 -4.68,-1.26 -4.68,-2.7 0,-0.5 0.18,-0.68 0.9,-0.99 1.305,-0.59 1.845,-1.4 1.845,-2.61 0,-1.58 -1.26,-2.79 -2.88,-2.79 -1.935,0 -3.195,1.53 -3.195,3.87 0,4.36 3.33,7.11 8.73,7.11 6.795,0 11.97,-4.55 11.97,-10.58 0,-3.51 -2.16,-5.49 -5.31,-6.48"
     id="path163" />
  <path
     class="Tuplet"
     d="m 1760.2,1031.17 c 2.11,-0.67 2.97,-1.03 4.05,-1.75 2.11,-1.4 3.42,-3.87 3.42,-6.39 0,-4.28 -3.42,-7.16 -8.46,-7.16 -4.91,0 -9.05,3.06 -9.05,6.75 0,1.85 1.13,3.11 2.84,3.11 1.48,0 2.56,-1.08 2.56,-2.57 0,-0.76 -0.22,-1.3 -0.94,-2.02 -0.45,-0.41 -0.63,-0.72 -0.63,-1.04 0,-1.08 2.25,-2.2 4.36,-2.2 3.02,0 4.82,1.66 4.82,4.45 0,4.01 -2.84,7.79 -5.85,7.79 -0.14,0 -0.54,-0.05 -1.04,-0.09 -1.3,-0.09 -1.3,-0.09 -1.57,-0.09 -0.99,0 -1.53,0.45 -1.53,1.26 0,0.72 0.49,1.17 1.3,1.17 0.23,0 0.54,-0.05 0.9,-0.09 0.63,-0.14 1.31,-0.18 1.71,-0.18 2.12,0 3.56,1.89 3.56,4.68 0,4.86 -2.39,9.54 -7.83,9.54 -2.52,0 -4.68,-1.26 -4.68,-2.7 0,-0.5 0.18,-0.68 0.9,-0.99 1.3,-0.59 1.84,-1.4 1.84,-2.61 0,-1.58 -1.26,-2.79 -2.88,-2.79 -1.93,0 -3.19,1.53 -3.19,3.87 0,4.36 3.33,7.11 8.73,7.11 6.79,0 11.97,-4.55 11.97,-10.58 0,-3.51 -2.16,-5.49 -5.31,-6.48"
     id="path164" />
  <polyline
     class="Tuplet"
     fill="none"
     stroke="#000000"
     stroke-width="2.48"
     stroke-linejoin="miter"
     stroke-miterlimit="2"
     points="1704.26,1086.2 1704.26,1104.8 1732.41,1109.81"
     id="polyline164"
     transform="translate(0,-82)" />
  <polyline
     class="Tuplet"
     fill="none"
     stroke="#000000"
     stroke-width="2.48"
     stroke-linejoin="miter"
     stroke-miterlimit="2"
     points="1780.07,1118.29 1808.22,1123.3 1808.22,1104.7"
     id="polyline165"
     transform="translate(0,-82)" />
  <path
     class="Tuplet"
     d="m 1614.09,1041.69 c 2.11,-0.67 2.97,-1.03 4.05,-1.75 2.11,-1.4 3.42,-3.87 3.42,-6.39 0,-4.28 -3.42,-7.16 -8.46,-7.16 -4.91,0 -9.05,3.06 -9.05,6.75 0,1.85 1.13,3.11 2.84,3.11 1.48,0 2.56,-1.08 2.56,-2.57 0,-0.76 -0.22,-1.3 -0.94,-2.02 -0.45,-0.41 -0.63,-0.72 -0.63,-1.04 0,-1.08 2.25,-2.2 4.36,-2.2 3.02,0 4.82,1.66 4.82,4.45 0,4.01 -2.84,7.79 -5.85,7.79 -0.14,0 -0.54,-0.05 -1.04,-0.09 -1.3,-0.09 -1.3,-0.09 -1.57,-0.09 -0.99,0 -1.53,0.45 -1.53,1.26 0,0.72 0.49,1.17 1.3,1.17 0.23,0 0.54,-0.05 0.9,-0.09 0.63,-0.14 1.31,-0.18 1.71,-0.18 2.12,0 3.56,1.89 3.56,4.68 0,4.86 -2.39,9.54 -7.83,9.54 -2.52,0 -4.68,-1.26 -4.68,-2.7 0,-0.5 0.18,-0.68 0.9,-0.99 1.3,-0.59 1.84,-1.4 1.84,-2.61 0,-1.58 -1.26,-2.79 -2.88,-2.79 -1.93,0 -3.19,1.53 -3.19,3.87 0,4.36 3.33,7.11 8.73,7.11 6.79,0 11.97,-4.55 11.97,-10.58 0,-3.51 -2.16,-5.49 -5.31,-6.48"
     id="path165" />
  <polyline
     class="Tuplet"
     fill="none"
     stroke="#000000"
     stroke-width="2.48"
     stroke-linejoin="miter"
     stroke-miterlimit="2"
     points="1535.83,1093.65 1535.83,1112.25 1586.3,1120.62"
     id="polyline166"
     transform="translate(0,-82)" />
  <polyline
     class="Tuplet"
     fill="none"
     stroke="#000000"
     stroke-width="2.48"
     stroke-linejoin="miter"
     stroke-miterlimit="2"
     points="1633.96,1128.52 1684.43,1136.89 1684.43,1118.29"
     id="polyline167"
     transform="translate(0,-82)" />
  <path
     class="Tuplet"
     d="m 595.799,1044.39 c 2.115,-0.67 2.97,-1.03 4.05,-1.75 2.115,-1.4 3.42,-3.87 3.42,-6.39 0,-4.28 -3.42,-7.16 -8.46,-7.16 -4.905,0 -9.045,3.06 -9.045,6.75 0,1.85 1.125,3.11 2.835,3.11 1.485,0 2.565,-1.08 2.565,-2.57 0,-0.76 -0.225,-1.3 -0.945,-2.02 -0.45,-0.41 -0.63,-0.72 -0.63,-1.04 0,-1.08 2.25,-2.2 4.365,-2.2 3.015,0 4.815,1.66 4.815,4.45 0,4.01 -2.835,7.79 -5.85,7.79 -0.135,0 -0.54,-0.05 -1.035,-0.09 -1.305,-0.09 -1.305,-0.09 -1.575,-0.09 -0.99,0 -1.53,0.45 -1.53,1.26 0,0.72 0.495,1.17 1.305,1.17 0.225,0 0.54,-0.05 0.9,-0.09 0.63,-0.14 1.305,-0.18 1.71,-0.18 2.115,0 3.555,1.89 3.555,4.68 0,4.86 -2.385,9.54 -7.83,9.54 -2.52,0 -4.68,-1.26 -4.68,-2.7 0,-0.5 0.18,-0.68 0.9,-0.99 1.305,-0.59 1.845,-1.4 1.845,-2.61 0,-1.58 -1.26,-2.79 -2.88,-2.79 -1.935,0 -3.195,1.53 -3.195,3.87 0,4.36 3.33,7.11 8.73,7.11 6.795,0 11.97,-4.55 11.97,-10.58 0,-3.51 -2.16,-5.49 -5.31,-6.48"
     id="path167" />
  <path
     class="Tuplet"
     d="m 1438.16,1028.89 c 2.12,-0.67 2.97,-1.03 4.05,-1.75 2.12,-1.4 3.42,-3.87 3.42,-6.39 0,-4.28 -3.42,-7.16 -8.46,-7.16 -4.9,0 -9.04,3.06 -9.04,6.75 0,1.85 1.12,3.11 2.83,3.11 1.49,0 2.57,-1.08 2.57,-2.57 0,-0.76 -0.23,-1.3 -0.95,-2.02 -0.45,-0.41 -0.63,-0.72 -0.63,-1.04 0,-1.08 2.25,-2.2 4.37,-2.2 3.01,0 4.81,1.66 4.81,4.45 0,4.01 -2.83,7.79 -5.85,7.79 -0.13,0 -0.54,-0.05 -1.03,-0.09 -1.31,-0.09 -1.31,-0.09 -1.58,-0.09 -0.99,0 -1.53,0.45 -1.53,1.26 0,0.72 0.5,1.17 1.31,1.17 0.22,0 0.54,-0.05 0.9,-0.09 0.63,-0.14 1.3,-0.18 1.71,-0.18 2.11,0 3.55,1.89 3.55,4.68 0,4.86 -2.38,9.54 -7.83,9.54 -2.52,0 -4.68,-1.26 -4.68,-2.7 0,-0.5 0.18,-0.68 0.9,-0.99 1.31,-0.59 1.85,-1.4 1.85,-2.61 0,-1.58 -1.26,-2.79 -2.88,-2.79 -1.94,0 -3.2,1.53 -3.2,3.87 0,4.36 3.33,7.11 8.73,7.11 6.8,0 11.97,-4.55 11.97,-10.58 0,-3.51 -2.16,-5.49 -5.31,-6.48"
     id="path168" />
  <path
     class="Tuplet"
     d="m 516.868,632.526 c 2.115,-0.675 2.97,-1.035 4.05,-1.755 2.115,-1.395 3.42,-3.87 3.42,-6.39 0,-4.275 -3.42,-7.155 -8.46,-7.155 -4.905,0 -9.045,3.06 -9.045,6.75 0,1.845 1.125,3.105 2.835,3.105 1.485,0 2.565,-1.08 2.565,-2.565 0,-0.765 -0.225,-1.305 -0.945,-2.025 -0.45,-0.405 -0.63,-0.72 -0.63,-1.035 0,-1.08 2.25,-2.205 4.365,-2.205 3.015,0 4.815,1.665 4.815,4.455 0,4.005 -2.835,7.785 -5.85,7.785 -0.135,0 -0.54,-0.045 -1.035,-0.09 -1.305,-0.09 -1.305,-0.09 -1.575,-0.09 -0.99,0 -1.53,0.45 -1.53,1.26 0,0.72 0.495,1.17 1.305,1.17 0.225,0 0.54,-0.045 0.9,-0.09 0.63,-0.135 1.305,-0.18 1.71,-0.18 2.115,0 3.555,1.89 3.555,4.68 0,4.86 -2.385,9.54 -7.83,9.54 -2.52,0 -4.68,-1.26 -4.68,-2.7 0,-0.495 0.18,-0.675 0.9,-0.99 1.305,-0.585 1.845,-1.395 1.845,-2.61 0,-1.575 -1.26,-2.79 -2.88,-2.79 -1.935,0 -3.195,1.53 -3.195,3.87 0,4.365 3.33,7.11 8.73,7.11 6.795,0 11.97,-4.545 11.97,-10.575 0,-3.51 -2.16,-5.49 -5.31,-6.48"
     id="path169" />
  <path
     class="Tuplet"
     d="m 754.122,1045.72 c 2.115,-0.67 2.97,-1.03 4.05,-1.75 2.115,-1.4 3.42,-3.87 3.42,-6.39 0,-4.28 -3.42,-7.16 -8.46,-7.16 -4.905,0 -9.045,3.06 -9.045,6.75 0,1.85 1.125,3.11 2.835,3.11 1.485,0 2.565,-1.08 2.565,-2.57 0,-0.76 -0.225,-1.3 -0.945,-2.02 -0.45,-0.41 -0.63,-0.72 -0.63,-1.04 0,-1.08 2.25,-2.2 4.365,-2.2 3.015,0 4.815,1.66 4.815,4.45 0,4.01 -2.835,7.79 -5.85,7.79 -0.135,0 -0.54,-0.05 -1.035,-0.09 -1.305,-0.09 -1.305,-0.09 -1.575,-0.09 -0.99,0 -1.53,0.45 -1.53,1.26 0,0.72 0.495,1.17 1.305,1.17 0.225,0 0.54,-0.05 0.9,-0.09 0.63,-0.14 1.305,-0.18 1.71,-0.18 2.115,0 3.555,1.89 3.555,4.68 0,4.86 -2.385,9.54 -7.83,9.54 -2.52,0 -4.68,-1.26 -4.68,-2.7 0,-0.5 0.18,-0.68 0.9,-0.99 1.305,-0.59 1.845,-1.4 1.845,-2.61 0,-1.58 -1.26,-2.79 -2.88,-2.79 -1.935,0 -3.195,1.53 -3.195,3.87 0,4.36 3.33,7.11 8.73,7.11 6.795,0 11.97,-4.55 11.97,-10.58 0,-3.51 -2.16,-5.49 -5.31,-6.48"
     id="path170" />
  <path
     class="NoteDot"
     d="m 953.709,927.47 c 0,2.7776 2.1824,4.96 4.96,4.96 2.77761,0 4.96001,-2.1824 4.96001,-4.96 0,-2.7776 -2.1824,-4.96 -4.96001,-4.96 -2.7776,0 -4.96,2.1824 -4.96,4.96"
     id="path171"
     style="stroke-width:0.992001" />
</svg>
