<?xml version="1.0" encoding="UTF-8" standalone="no"?>
<svg width="2098.8px" height="1418.4px" viewBox="0 0 2098.8 1418.4"
 xmlns="http://www.w3.org/2000/svg" xmlns:xlink="http://www.w3.org/1999/xlink" version="1.2" baseProfile="tiny">
<title>전례미사_08주님의_기도(신상옥곡) (3)</title>
<desc>Generated by MuseScore 4.2.1</desc>
<polyline class="StaffLines" fill="none" stroke="#000000" stroke-width="2.73" stroke-linejoin="bevel" points="72,242 2026.8,242"/>
<polyline class="StaffLines" fill="none" stroke="#000000" stroke-width="2.73" stroke-linejoin="bevel" points="72,266.8 2026.8,266.8"/>
<polyline class="StaffLines" fill="none" stroke="#000000" stroke-width="2.73" stroke-linejoin="bevel" points="72,291.6 2026.8,291.6"/>
<polyline class="StaffLines" fill="none" stroke="#000000" stroke-width="2.73" stroke-linejoin="bevel" points="72,316.4 2026.8,316.4"/>
<polyline class="StaffLines" fill="none" stroke="#000000" stroke-width="2.73" stroke-linejoin="bevel" points="72,341.2 2026.8,341.2"/>
<polyline class="StaffLines" fill="none" stroke="#000000" stroke-width="2.73" stroke-linejoin="bevel" points="72,635.017 2026.8,635.017"/>
<polyline class="StaffLines" fill="none" stroke="#000000" stroke-width="2.73" stroke-linejoin="bevel" points="72,659.817 2026.8,659.817"/>
<polyline class="StaffLines" fill="none" stroke="#000000" stroke-width="2.73" stroke-linejoin="bevel" points="72,684.617 2026.8,684.617"/>
<polyline class="StaffLines" fill="none" stroke="#000000" stroke-width="2.73" stroke-linejoin="bevel" points="72,709.417 2026.8,709.417"/>
<polyline class="StaffLines" fill="none" stroke="#000000" stroke-width="2.73" stroke-linejoin="bevel" points="72,734.217 2026.8,734.217"/>
<polyline class="StaffLines" fill="none" stroke="#000000" stroke-width="2.73" stroke-linejoin="bevel" points="72,1002.64 2026.8,1002.64"/>
<polyline class="StaffLines" fill="none" stroke="#000000" stroke-width="2.73" stroke-linejoin="bevel" points="72,1027.44 2026.8,1027.44"/>
<polyline class="StaffLines" fill="none" stroke="#000000" stroke-width="2.73" stroke-linejoin="bevel" points="72,1052.24 2026.8,1052.24"/>
<polyline class="StaffLines" fill="none" stroke="#000000" stroke-width="2.73" stroke-linejoin="bevel" points="72,1077.04 2026.8,1077.04"/>
<polyline class="StaffLines" fill="none" stroke="#000000" stroke-width="2.73" stroke-linejoin="bevel" points="72,1101.84 2026.8,1101.84"/>
<path class="MeasureNumber" d="M88.36,164.08 L87.2,164.08 C85,165.72 80.76,167.12 77.88,167.12 L77.4,168.88 L80.16,168.88 C82.6,168.88 82.88,168.96 82.88,169.68 C82.88,170.04 82.88,170.04 82.48,171.48 L78.2,187.48 C77.68,189.48 77.64,189.6 77.28,189.96 C76.88,190.36 76.04,190.48 73.92,190.52 L72.2,190.52 L72,192.4 L86.8,192.4 L87.04,190.52 L84.88,190.52 C82.28,190.52 81.72,190.32 81.72,189.44 C81.72,189.16 81.88,188.24 82.08,187.48 L88.36,164.08 M98.5544,179 C99.2344,175.48 100.034,173.28 101.554,170.6 C103.354,167.44 105.514,165.84 107.914,165.84 C109.154,165.84 109.914,166.32 109.914,167.08 C109.914,167.36 109.834,167.52 109.554,168.04 C109.194,168.72 109.034,169.2 109.034,169.8 C109.034,171.08 109.994,171.96 111.354,171.96 C112.994,171.96 114.114,170.76 114.114,168.96 C114.114,166.24 111.554,164.24 107.994,164.24 C99.0744,164.24 93.6744,175.88 93.6744,183.56 C93.6744,189.44 96.5944,193 101.474,193 C107.474,193 111.914,188.04 111.914,182.16 C111.914,178.08 109.154,175.24 105.154,175.24 C102.354,175.24 100.194,176.44 98.5544,179 M103.874,177.56 C106.354,177.56 107.714,179.28 107.714,182.4 C107.714,187.48 105.034,191.36 101.474,191.36 C98.9144,191.36 97.3944,189.48 97.3944,186.28 C97.3944,181.28 100.154,177.56 103.874,177.56"/>
<path class="MeasureNumber" d="M90.7906,944.757 L89.7506,946.597 C88.1506,949.357 87.8306,949.597 85.7906,949.637 L76.5106,949.637 C77.4706,948.357 79.2306,946.877 82.4306,944.637 C87.7106,940.997 88.0706,940.757 89.1906,939.877 C92.3906,937.397 93.7106,935.037 93.7106,931.877 C93.7106,927.677 90.5906,924.877 85.9906,924.877 C80.8706,924.877 76.4306,928.637 76.4306,932.997 C76.4306,935.237 77.6306,936.677 79.5506,936.677 C80.9906,936.677 82.1106,935.597 82.1106,934.117 C82.1106,933.077 81.5906,932.397 80.2706,931.677 C79.3106,931.197 79.1506,930.997 79.1506,930.517 C79.1506,928.797 82.1106,926.877 84.8306,926.877 C87.6306,926.877 89.5106,928.757 89.5106,931.557 C89.5106,934.557 88.1906,936.757 84.5906,939.877 C73.9506,949.117 72.3506,950.797 71.9906,953.037 L89.1506,953.037 L92.2306,945.317 L90.7906,944.757 M113.025,944.757 L111.985,946.597 C110.385,949.357 110.065,949.597 108.025,949.637 L98.745,949.637 C99.705,948.357 101.465,946.877 104.665,944.637 C109.945,940.997 110.305,940.757 111.425,939.877 C114.625,937.397 115.945,935.037 115.945,931.877 C115.945,927.677 112.825,924.877 108.225,924.877 C103.105,924.877 98.665,928.637 98.665,932.997 C98.665,935.237 99.865,936.677 101.785,936.677 C103.225,936.677 104.345,935.597 104.345,934.117 C104.345,933.077 103.825,932.397 102.505,931.677 C101.545,931.197 101.385,930.997 101.385,930.517 C101.385,928.797 104.345,926.877 107.065,926.877 C109.865,926.877 111.745,928.757 111.745,931.557 C111.745,934.557 110.425,936.757 106.825,939.877 C96.185,949.117 94.585,950.797 94.225,953.037 L111.385,953.037 L114.465,945.317 L113.025,944.757 "/>
<path class="MeasureNumber" d="M88.36,557.097 L87.2,557.097 C85,558.737 80.76,560.137 77.88,560.137 L77.4,561.897 L80.16,561.897 C82.6,561.897 82.88,561.977 82.88,562.697 C82.88,563.057 82.88,563.057 82.48,564.497 L78.2,580.497 C77.68,582.497 77.64,582.617 77.28,582.977 C76.88,583.377 76.04,583.497 73.92,583.537 L72.2,583.537 L72,585.417 L86.8,585.417 L87.04,583.537 L84.88,583.537 C82.28,583.537 81.72,583.337 81.72,582.457 C81.72,582.177 81.88,581.257 82.08,580.497 L88.36,557.097 M107.954,571.737 C106.954,576.377 104.274,584.337 98.5544,584.337 C97.3944,584.337 96.6344,583.857 96.6344,583.137 C96.6344,582.857 96.7144,582.737 97.0344,582.257 C97.4344,581.737 97.6344,581.257 97.6344,580.697 C97.6344,579.377 96.5944,578.377 95.2344,578.377 C93.6344,578.377 92.5144,579.577 92.5144,581.337 C92.5144,584.057 95.0744,586.017 98.6344,586.017 C107.394,586.017 112.994,574.817 112.994,567.217 C112.994,560.977 109.994,557.257 105.034,557.257 C99.0744,557.257 94.6344,562.737 94.6344,568.457 C94.6344,572.257 97.5544,575.137 101.434,575.137 C104.074,575.137 106.114,574.057 107.954,571.737 M104.994,558.937 C107.554,558.937 109.194,560.977 109.194,564.177 C109.194,569.137 106.474,572.777 102.794,572.777 C100.274,572.777 98.8744,571.057 98.8744,568.057 C98.8744,564.457 100.594,558.937 104.994,558.937"/>
<path class="SlurSegment" stroke="#000000" stroke-width="1.24" stroke-linecap="round" stroke-linejoin="round" fill-rule="evenodd" d="M1538.95,363.52 C1563.95,384.448 1613.93,384.448 1638.92,363.52 C1613.93,392.384 1563.95,392.384 1538.95,363.52"/>
<path class="SlurSegment" stroke="#000000" stroke-width="1.24" stroke-linecap="round" stroke-linejoin="round" fill-rule="evenodd" d="M1302.78,351.12 C1316.58,370.567 1350.2,376.767 1370.03,363.52 C1348.76,384.572 1315.14,378.371 1302.78,351.12"/>
<path class="SlurSegment" stroke="#000000" stroke-width="1.24" stroke-linecap="round" stroke-linejoin="round" fill-rule="evenodd" d="M1145.06,261.096 C1166.47,245.125 1192.76,255.417 1197.63,281.68 C1189.86,262.807 1163.58,252.515 1145.06,261.096"/>
<path class="TieSegment" stroke="#000000" stroke-width="1.24" stroke-linecap="round" stroke-linejoin="round" fill-rule="evenodd" d="M1115.94,1120.29 C1197.71,1153.04 1443.03,1153.04 1524.8,1120.29 C1443.03,1160.97 1197.71,1160.97 1115.94,1120.29"/>
<path class="TieSegment" stroke="#000000" stroke-width="1.24" stroke-linecap="round" stroke-linejoin="round" fill-rule="evenodd" d="M944.913,678.917 C955.419,660.575 986.938,660.575 997.444,678.917 C986.938,666.644 955.419,666.644 944.913,678.917"/>
<polyline class="BarLine" fill="none" stroke="#000000" stroke-width="4.46" stroke-linejoin="bevel" points="1494.02,633.653 1494.02,735.581"/>
<polyline class="BarLine" fill="none" stroke="#000000" stroke-width="4.46" stroke-linejoin="bevel" points="2024.57,633.653 2024.57,735.581"/>
<polyline class="BarLine" fill="none" stroke="#000000" stroke-width="4.46" stroke-linejoin="bevel" points="793.456,633.653 793.456,735.581"/>
<polyline class="BarLine" fill="none" stroke="#000000" stroke-width="4.46" stroke-linejoin="bevel" points="2001.75,1001.27 2001.75,1103.2"/>
<polyline class="BarLine" fill="none" stroke="#000000" stroke-width="13.64" stroke-linejoin="bevel" points="2019.98,1001.27 2019.98,1103.2"/>
<polyline class="BarLine" fill="none" stroke="#000000" stroke-width="4.46" stroke-linejoin="bevel" points="2024.57,240.636 2024.57,342.564"/>
<polyline class="BarLine" fill="none" stroke="#000000" stroke-width="4.46" stroke-linejoin="bevel" points="1478.15,240.636 1478.15,342.564"/>
<polyline class="BarLine" fill="none" stroke="#000000" stroke-width="4.46" stroke-linejoin="bevel" points="1050.27,1001.27 1050.27,1103.2"/>
<polyline class="BarLine" fill="none" stroke="#000000" stroke-width="4.46" stroke-linejoin="bevel" points="757.317,240.636 757.317,342.564"/>
<polyline class="BarLine" fill="none" stroke="#000000" stroke-width="4.46" stroke-linejoin="bevel" points="1477.58,1001.27 1477.58,1103.2"/>
<path class="Accidental" transform="matrix(0.992001,0,0,0.992001,1512.38,684.617)" d="M12,-15.5 C7,-15.5 4.1,-12.4 3.6,-11.8 L4,-43.9 C4,-44.7 3.4,-45.3 2.6,-45.3 L1.4,-45.3 C0.6,-45.3 0,-44.7 0,-43.9 L0.5,16.2 C0.5,17 1.1,17.6 1.9,17.6 C2.1,17.6 2.5,17.5 2.7,17.4 C11.3,13.1 20.3,4.9 20.3,-5.4 C20.3,-10.6 17.9,-15.5 12,-15.5 M3.3,12.7 L3.6,-6.8 C3.8,-7.7 5.3,-10.6 9.3,-10.6 C12.9,-10.6 13.2,-7.2 13.2,-5.1 C13.2,3.8 9.9,7.5 3.3,12.7"/>
<path class="Accidental" transform="matrix(0.992001,0,0,0.992001,1731.01,647.417)" d="M12,-15.5 C7,-15.5 4.1,-12.4 3.6,-11.8 L4,-43.9 C4,-44.7 3.4,-45.3 2.6,-45.3 L1.4,-45.3 C0.6,-45.3 0,-44.7 0,-43.9 L0.5,16.2 C0.5,17 1.1,17.6 1.9,17.6 C2.1,17.6 2.5,17.5 2.7,17.4 C11.3,13.1 20.3,4.9 20.3,-5.4 C20.3,-10.6 17.9,-15.5 12,-15.5 M3.3,12.7 L3.6,-6.8 C3.8,-7.7 5.3,-10.6 9.3,-10.6 C12.9,-10.6 13.2,-7.2 13.2,-5.1 C13.2,3.8 9.9,7.5 3.3,12.7"/>
<path class="Accidental" transform="matrix(0.992001,0,0,0.992001,609.921,328.8)" d="M16.6,-18.3 C16.4,-18.5 16.1,-18.6 15.7,-18.6 L15.5,-18.5 C15.5,-18.5 15.4,-18.5 15.4,-18.5 L2.8,-15 L2.8,-32.5 L0,-32.5 L0,17 C0,18.1 0.9,18.3 1.8,18.3 L14.4,14.8 L14.4,32.3 L17.1,32.3 C17.1,15.7 17.1,-0.1 17.1,-17.2 C17.1,-17.6 16.9,-18.1 16.6,-18.3 M2.8,9.7 L2.8,-6.7 L14.4,-10 L14.4,6.5 L2.8,9.7 "/>
<path class="Accidental" transform="matrix(0.992001,0,0,0.992001,1840.33,697.017)" d="M12,-15.5 C7,-15.5 4.1,-12.4 3.6,-11.8 L4,-43.9 C4,-44.7 3.4,-45.3 2.6,-45.3 L1.4,-45.3 C0.6,-45.3 0,-44.7 0,-43.9 L0.5,16.2 C0.5,17 1.1,17.6 1.9,17.6 C2.1,17.6 2.5,17.5 2.7,17.4 C11.3,13.1 20.3,4.9 20.3,-5.4 C20.3,-10.6 17.9,-15.5 12,-15.5 M3.3,12.7 L3.6,-6.8 C3.8,-7.7 5.3,-10.6 9.3,-10.6 C12.9,-10.6 13.2,-7.2 13.2,-5.1 C13.2,3.8 9.9,7.5 3.3,12.7"/>
<path class="Accidental" transform="matrix(0.992001,0,0,0.992001,898.044,697.017)" d="M12,-15.5 C7,-15.5 4.1,-12.4 3.6,-11.8 L4,-43.9 C4,-44.7 3.4,-45.3 2.6,-45.3 L1.4,-45.3 C0.6,-45.3 0,-44.7 0,-43.9 L0.5,16.2 C0.5,17 1.1,17.6 1.9,17.6 C2.1,17.6 2.5,17.5 2.7,17.4 C11.3,13.1 20.3,4.9 20.3,-5.4 C20.3,-10.6 17.9,-15.5 12,-15.5 M3.3,12.7 L3.6,-6.8 C3.8,-7.7 5.3,-10.6 9.3,-10.6 C12.9,-10.6 13.2,-7.2 13.2,-5.1 C13.2,3.8 9.9,7.5 3.3,12.7"/>
<path class="Accidental" transform="matrix(0.992001,0,0,0.992001,775.669,304)" d="M12,-15.5 C7,-15.5 4.1,-12.4 3.6,-11.8 L4,-43.9 C4,-44.7 3.4,-45.3 2.6,-45.3 L1.4,-45.3 C0.6,-45.3 0,-44.7 0,-43.9 L0.5,16.2 C0.5,17 1.1,17.6 1.9,17.6 C2.1,17.6 2.5,17.5 2.7,17.4 C11.3,13.1 20.3,4.9 20.3,-5.4 C20.3,-10.6 17.9,-15.5 12,-15.5 M3.3,12.7 L3.6,-6.8 C3.8,-7.7 5.3,-10.6 9.3,-10.6 C12.9,-10.6 13.2,-7.2 13.2,-5.1 C13.2,3.8 9.9,7.5 3.3,12.7"/>
<path class="Accidental" transform="matrix(0.992001,0,0,0.992001,811.808,684.617)" d="M12,-15.5 C7,-15.5 4.1,-12.4 3.6,-11.8 L4,-43.9 C4,-44.7 3.4,-45.3 2.6,-45.3 L1.4,-45.3 C0.6,-45.3 0,-44.7 0,-43.9 L0.5,16.2 C0.5,17 1.1,17.6 1.9,17.6 C2.1,17.6 2.5,17.5 2.7,17.4 C11.3,13.1 20.3,4.9 20.3,-5.4 C20.3,-10.6 17.9,-15.5 12,-15.5 M3.3,12.7 L3.6,-6.8 C3.8,-7.7 5.3,-10.6 9.3,-10.6 C12.9,-10.6 13.2,-7.2 13.2,-5.1 C13.2,3.8 9.9,7.5 3.3,12.7"/>
<path class="Accidental" transform="matrix(0.992001,0,0,0.992001,1068.63,1101.84)" d="M12,-15.5 C7,-15.5 4.1,-12.4 3.6,-11.8 L4,-43.9 C4,-44.7 3.4,-45.3 2.6,-45.3 L1.4,-45.3 C0.6,-45.3 0,-44.7 0,-43.9 L0.5,16.2 C0.5,17 1.1,17.6 1.9,17.6 C2.1,17.6 2.5,17.5 2.7,17.4 C11.3,13.1 20.3,4.9 20.3,-5.4 C20.3,-10.6 17.9,-15.5 12,-15.5 M3.3,12.7 L3.6,-6.8 C3.8,-7.7 5.3,-10.6 9.3,-10.6 C12.9,-10.6 13.2,-7.2 13.2,-5.1 C13.2,3.8 9.9,7.5 3.3,12.7"/>
<path class="Accidental" transform="matrix(0.992001,0,0,0.992001,242.764,291.6)" d="M12,-15.5 C7,-15.5 4.1,-12.4 3.6,-11.8 L4,-43.9 C4,-44.7 3.4,-45.3 2.6,-45.3 L1.4,-45.3 C0.6,-45.3 0,-44.7 0,-43.9 L0.5,16.2 C0.5,17 1.1,17.6 1.9,17.6 C2.1,17.6 2.5,17.5 2.7,17.4 C11.3,13.1 20.3,4.9 20.3,-5.4 C20.3,-10.6 17.9,-15.5 12,-15.5 M3.3,12.7 L3.6,-6.8 C3.8,-7.7 5.3,-10.6 9.3,-10.6 C12.9,-10.6 13.2,-7.2 13.2,-5.1 C13.2,3.8 9.9,7.5 3.3,12.7"/>
<path class="Accidental" transform="matrix(0.992001,0,0,0.992001,695.458,684.617)" d="M12,-15.5 C7,-15.5 4.1,-12.4 3.6,-11.8 L4,-43.9 C4,-44.7 3.4,-45.3 2.6,-45.3 L1.4,-45.3 C0.6,-45.3 0,-44.7 0,-43.9 L0.5,16.2 C0.5,17 1.1,17.6 1.9,17.6 C2.1,17.6 2.5,17.5 2.7,17.4 C11.3,13.1 20.3,4.9 20.3,-5.4 C20.3,-10.6 17.9,-15.5 12,-15.5 M3.3,12.7 L3.6,-6.8 C3.8,-7.7 5.3,-10.6 9.3,-10.6 C12.9,-10.6 13.2,-7.2 13.2,-5.1 C13.2,3.8 9.9,7.5 3.3,12.7"/>
<path class="Accidental" transform="matrix(0.992001,0,0,0.992001,242.764,734.217)" d="M12,-15.5 C7,-15.5 4.1,-12.4 3.6,-11.8 L4,-43.9 C4,-44.7 3.4,-45.3 2.6,-45.3 L1.4,-45.3 C0.6,-45.3 0,-44.7 0,-43.9 L0.5,16.2 C0.5,17 1.1,17.6 1.9,17.6 C2.1,17.6 2.5,17.5 2.7,17.4 C11.3,13.1 20.3,4.9 20.3,-5.4 C20.3,-10.6 17.9,-15.5 12,-15.5 M3.3,12.7 L3.6,-6.8 C3.8,-7.7 5.3,-10.6 9.3,-10.6 C12.9,-10.6 13.2,-7.2 13.2,-5.1 C13.2,3.8 9.9,7.5 3.3,12.7"/>
<path class="Accidental" transform="matrix(0.992001,0,0,0.992001,442.704,341.2)" d="M12,-15.5 C7,-15.5 4.1,-12.4 3.6,-11.8 L4,-43.9 C4,-44.7 3.4,-45.3 2.6,-45.3 L1.4,-45.3 C0.6,-45.3 0,-44.7 0,-43.9 L0.5,16.2 C0.5,17 1.1,17.6 1.9,17.6 C2.1,17.6 2.5,17.5 2.7,17.4 C11.3,13.1 20.3,4.9 20.3,-5.4 C20.3,-10.6 17.9,-15.5 12,-15.5 M3.3,12.7 L3.6,-6.8 C3.8,-7.7 5.3,-10.6 9.3,-10.6 C12.9,-10.6 13.2,-7.2 13.2,-5.1 C13.2,3.8 9.9,7.5 3.3,12.7"/>
<path class="Accidental" transform="matrix(0.992001,0,0,0.992001,242.764,1089.44)" d="M16.6,-18.3 C16.4,-18.5 16.1,-18.6 15.7,-18.6 L15.5,-18.5 C15.5,-18.5 15.4,-18.5 15.4,-18.5 L2.8,-15 L2.8,-32.5 L0,-32.5 L0,17 C0,18.1 0.9,18.3 1.8,18.3 L14.4,14.8 L14.4,32.3 L17.1,32.3 C17.1,15.7 17.1,-0.1 17.1,-17.2 C17.1,-17.6 16.9,-18.1 16.6,-18.3 M2.8,9.7 L2.8,-6.7 L14.4,-10 L14.4,6.5 L2.8,9.7 "/>
<path class="Accidental" transform="matrix(0.992001,0,0,0.992001,1789.23,328.8)" d="M16.6,-18.3 C16.4,-18.5 16.1,-18.6 15.7,-18.6 L15.5,-18.5 C15.5,-18.5 15.4,-18.5 15.4,-18.5 L2.8,-15 L2.8,-32.5 L0,-32.5 L0,17 C0,18.1 0.9,18.3 1.8,18.3 L14.4,14.8 L14.4,32.3 L17.1,32.3 C17.1,15.7 17.1,-0.1 17.1,-17.2 C17.1,-17.6 16.9,-18.1 16.6,-18.3 M2.8,9.7 L2.8,-6.7 L14.4,-10 L14.4,6.5 L2.8,9.7 "/>
<path class="Accidental" transform="matrix(0.992001,0,0,0.992001,895.49,328.8)" d="M16.6,-18.3 C16.4,-18.5 16.1,-18.6 15.7,-18.6 L15.5,-18.5 C15.5,-18.5 15.4,-18.5 15.4,-18.5 L2.8,-15 L2.8,-32.5 L0,-32.5 L0,17 C0,18.1 0.9,18.3 1.8,18.3 L14.4,14.8 L14.4,32.3 L17.1,32.3 C17.1,15.7 17.1,-0.1 17.1,-17.2 C17.1,-17.6 16.9,-18.1 16.6,-18.3 M2.8,9.7 L2.8,-6.7 L14.4,-10 L14.4,6.5 L2.8,9.7 "/>
<path class="Accidental" transform="matrix(0.992001,0,0,0.992001,1496.5,341.2)" d="M12,-15.5 C7,-15.5 4.1,-12.4 3.6,-11.8 L4,-43.9 C4,-44.7 3.4,-45.3 2.6,-45.3 L1.4,-45.3 C0.6,-45.3 0,-44.7 0,-43.9 L0.5,16.2 C0.5,17 1.1,17.6 1.9,17.6 C2.1,17.6 2.5,17.5 2.7,17.4 C11.3,13.1 20.3,4.9 20.3,-5.4 C20.3,-10.6 17.9,-15.5 12,-15.5 M3.3,12.7 L3.6,-6.8 C3.8,-7.7 5.3,-10.6 9.3,-10.6 C12.9,-10.6 13.2,-7.2 13.2,-5.1 C13.2,3.8 9.9,7.5 3.3,12.7"/>
<path class="Accidental" transform="matrix(0.992001,0,0,0.992001,1327.58,341.2)" d="M12,-15.5 C7,-15.5 4.1,-12.4 3.6,-11.8 L4,-43.9 C4,-44.7 3.4,-45.3 2.6,-45.3 L1.4,-45.3 C0.6,-45.3 0,-44.7 0,-43.9 L0.5,16.2 C0.5,17 1.1,17.6 1.9,17.6 C2.1,17.6 2.5,17.5 2.7,17.4 C11.3,13.1 20.3,4.9 20.3,-5.4 C20.3,-10.6 17.9,-15.5 12,-15.5 M3.3,12.7 L3.6,-6.8 C3.8,-7.7 5.3,-10.6 9.3,-10.6 C12.9,-10.6 13.2,-7.2 13.2,-5.1 C13.2,3.8 9.9,7.5 3.3,12.7"/>
<path class="Accidental" transform="matrix(0.992001,0,0,0.992001,668.297,1064.64)" d="M12,-15.5 C7,-15.5 4.1,-12.4 3.6,-11.8 L4,-43.9 C4,-44.7 3.4,-45.3 2.6,-45.3 L1.4,-45.3 C0.6,-45.3 0,-44.7 0,-43.9 L0.5,16.2 C0.5,17 1.1,17.6 1.9,17.6 C2.1,17.6 2.5,17.5 2.7,17.4 C11.3,13.1 20.3,4.9 20.3,-5.4 C20.3,-10.6 17.9,-15.5 12,-15.5 M3.3,12.7 L3.6,-6.8 C3.8,-7.7 5.3,-10.6 9.3,-10.6 C12.9,-10.6 13.2,-7.2 13.2,-5.1 C13.2,3.8 9.9,7.5 3.3,12.7"/>
<path class="Accidental" transform="matrix(0.992001,0,0,0.992001,1102.61,291.6)" d="M12,-15.5 C7,-15.5 4.1,-12.4 3.6,-11.8 L4,-43.9 C4,-44.7 3.4,-45.3 2.6,-45.3 L1.4,-45.3 C0.6,-45.3 0,-44.7 0,-43.9 L0.5,16.2 C0.5,17 1.1,17.6 1.9,17.6 C2.1,17.6 2.5,17.5 2.7,17.4 C11.3,13.1 20.3,4.9 20.3,-5.4 C20.3,-10.6 17.9,-15.5 12,-15.5 M3.3,12.7 L3.6,-6.8 C3.8,-7.7 5.3,-10.6 9.3,-10.6 C12.9,-10.6 13.2,-7.2 13.2,-5.1 C13.2,3.8 9.9,7.5 3.3,12.7"/>
<path class="Accidental" transform="matrix(0.992001,0,0,0.992001,845.003,1101.84)" d="M12,-15.5 C7,-15.5 4.1,-12.4 3.6,-11.8 L4,-43.9 C4,-44.7 3.4,-45.3 2.6,-45.3 L1.4,-45.3 C0.6,-45.3 0,-44.7 0,-43.9 L0.5,16.2 C0.5,17 1.1,17.6 1.9,17.6 C2.1,17.6 2.5,17.5 2.7,17.4 C11.3,13.1 20.3,4.9 20.3,-5.4 C20.3,-10.6 17.9,-15.5 12,-15.5 M3.3,12.7 L3.6,-6.8 C3.8,-7.7 5.3,-10.6 9.3,-10.6 C12.9,-10.6 13.2,-7.2 13.2,-5.1 C13.2,3.8 9.9,7.5 3.3,12.7"/>
<polyline class="Stem" fill="none" stroke="#000000" stroke-width="2.48" stroke-linejoin="bevel" points="990.682,1085.47 990.682,1021.32"/>
<polyline class="Stem" fill="none" stroke="#000000" stroke-width="2.48" stroke-linejoin="bevel" points="1025.03,320.567 1025.03,384.6"/>
<polyline class="Stem" fill="none" stroke="#000000" stroke-width="2.48" stroke-linejoin="bevel" points="1539.95,688.784 1539.95,759.017"/>
<polyline class="Stem" fill="none" stroke="#000000" stroke-width="2.48" stroke-linejoin="bevel" points="1649.27,663.983 1649.27,746.617"/>
<polyline class="Stem" fill="none" stroke="#000000" stroke-width="2.48" stroke-linejoin="bevel" points="1077.61,332.967 1077.61,390.658"/>
<polyline class="Stem" fill="none" stroke="#000000" stroke-width="2.48" stroke-linejoin="bevel" points="1423.6,676.384 1423.6,752.948"/>
<polyline class="Stem" fill="none" stroke="#000000" stroke-width="2.48" stroke-linejoin="bevel" points="1366.11,688.784 1366.11,759.017"/>
<polyline class="Stem" fill="none" stroke="#000000" stroke-width="2.48" stroke-linejoin="bevel" points="1130.18,295.767 1130.18,366.143"/>
<polyline class="Stem" fill="none" stroke="#000000" stroke-width="2.48" stroke-linejoin="bevel" points="1758.59,651.583 1758.59,734.217"/>
<polyline class="Stem" fill="none" stroke="#000000" stroke-width="2.48" stroke-linejoin="bevel" points="1308.62,701.184 1308.62,765.086"/>
<polyline class="Stem" fill="none" stroke="#000000" stroke-width="2.48" stroke-linejoin="bevel" points="716.644,312.432 716.644,242.065"/>
<polyline class="Stem" fill="none" stroke="#000000" stroke-width="2.48" stroke-linejoin="bevel" points="902.33,1097.87 902.33,1027.44"/>
<polyline class="Stem" fill="none" stroke="#000000" stroke-width="2.48" stroke-linejoin="bevel" points="1251.13,701.184 1251.13,777.518"/>
<polyline class="Stem" fill="none" stroke="#000000" stroke-width="2.48" stroke-linejoin="bevel" points="1182.76,308.167 1182.76,372.2"/>
<polyline class="Stem" fill="none" stroke="#000000" stroke-width="2.48" stroke-linejoin="bevel" points="1867.91,701.184 1867.91,765.217"/>
<polyline class="Stem" fill="none" stroke="#000000" stroke-width="2.48" stroke-linejoin="bevel" points="1235.33,320.567 1235.33,378.258"/>
<polyline class="Stem" fill="none" stroke="#000000" stroke-width="2.48" stroke-linejoin="bevel" points="1164.89,688.784 1164.89,759.017"/>
<polyline class="Stem" fill="none" stroke="#000000" stroke-width="2.48" stroke-linejoin="bevel" points="1117.12,713.584 1117.12,790.91"/>
<polyline class="Stem" fill="none" stroke="#000000" stroke-width="2.48" stroke-linejoin="bevel" points="1317.66,324.832 1317.66,260.726"/>
<polyline class="Stem" fill="none" stroke="#000000" stroke-width="2.48" stroke-linejoin="bevel" points="803.243,308.167 803.243,378.529"/>
<polyline class="Stem" fill="none" stroke="#000000" stroke-width="2.48" stroke-linejoin="bevel" points="1069.35,701.184 1069.35,778.51"/>
<polyline class="Stem" fill="none" stroke="#000000" stroke-width="2.48" stroke-linejoin="bevel" points="813.977,1110.27 813.977,1033.55"/>
<polyline class="Stem" fill="none" stroke="#000000" stroke-width="2.48" stroke-linejoin="bevel" points="983.109,701.184 983.109,765.217"/>
<polyline class="Stem" fill="none" stroke="#000000" stroke-width="2.48" stroke-linejoin="bevel" points="1384.9,337.232 1384.9,267.544"/>
<polyline class="Stem" fill="none" stroke="#000000" stroke-width="2.48" stroke-linejoin="bevel" points="1954.14,713.584 1954.14,789.918"/>
<polyline class="Stem" fill="none" stroke="#000000" stroke-width="2.48" stroke-linejoin="bevel" points="972.461,308.167 972.461,378.543"/>
<polyline class="Stem" fill="none" stroke="#000000" stroke-width="2.48" stroke-linejoin="bevel" points="1437.48,349.632 1437.48,272.875"/>
<polyline class="Stem" fill="none" stroke="#000000" stroke-width="2.48" stroke-linejoin="bevel" points="925.619,701.184 925.619,777.518"/>
<polyline class="Stem" fill="none" stroke="#000000" stroke-width="2.48" stroke-linejoin="bevel" points="270.338,295.767 270.338,366"/>
<polyline class="Stem" fill="none" stroke="#000000" stroke-width="2.48" stroke-linejoin="bevel" points="1543.05,1097.87 1543.05,1015.04"/>
<polyline class="Stem" fill="none" stroke="#000000" stroke-width="2.48" stroke-linejoin="bevel" points="839.383,688.784 839.383,759.017"/>
<polyline class="Stem" fill="none" stroke="#000000" stroke-width="2.48" stroke-linejoin="bevel" points="1553.83,337.232 1553.83,254.4"/>
<polyline class="Stem" fill="none" stroke="#000000" stroke-width="2.48" stroke-linejoin="bevel" points="400.061,312.432 400.061,229.6"/>
<polyline class="Stem" fill="none" stroke="#000000" stroke-width="2.48" stroke-linejoin="bevel" points="664.07,324.832 664.07,244.801"/>
<polyline class="Stem" fill="none" stroke="#000000" stroke-width="2.48" stroke-linejoin="bevel" points="695.872,1068.8 695.872,1139.12"/>
<polyline class="Stem" fill="none" stroke="#000000" stroke-width="2.48" stroke-linejoin="bevel" points="1653.8,337.232 1653.8,254.4"/>
<polyline class="Stem" fill="none" stroke="#000000" stroke-width="2.48" stroke-linejoin="bevel" points="855.817,320.567 855.817,384.002"/>
<polyline class="Stem" fill="none" stroke="#000000" stroke-width="2.48" stroke-linejoin="bevel" points="723.032,688.784 723.032,783.938"/>
<polyline class="Stem" fill="none" stroke="#000000" stroke-width="2.48" stroke-linejoin="bevel" points="1732.66,337.232 1732.66,266.8"/>
<polyline class="Stem" fill="none" stroke="#000000" stroke-width="2.48" stroke-linejoin="bevel" points="655.785,713.584 655.785,790.493"/>
<polyline class="Stem" fill="none" stroke="#000000" stroke-width="2.48" stroke-linejoin="bevel" points="500.031,337.232 500.031,254.4"/>
<polyline class="Stem" fill="none" stroke="#000000" stroke-width="2.48" stroke-linejoin="bevel" points="607.519,1081.2 607.519,1145.24"/>
<polyline class="Stem" fill="none" stroke="#000000" stroke-width="2.48" stroke-linejoin="bevel" points="1779.31,337.232 1779.31,266.8"/>
<polyline class="Stem" fill="none" stroke="#000000" stroke-width="2.48" stroke-linejoin="bevel" points="598.295,738.384 598.295,796.096"/>
<polyline class="Stem" fill="none" stroke="#000000" stroke-width="2.48" stroke-linejoin="bevel" points="518.728,730.249 518.728,647.417"/>
<polyline class="Stem" fill="none" stroke="#000000" stroke-width="2.48" stroke-linejoin="bevel" points="1843.38,324.832 1843.38,242"/>
<polyline class="Stem" fill="none" stroke="#000000" stroke-width="2.48" stroke-linejoin="bevel" points="296.913,1085.47 296.913,1002.64"/>
<polyline class="Stem" fill="none" stroke="#000000" stroke-width="2.48" stroke-linejoin="bevel" points="409.409,742.649 409.409,659.817"/>
<polyline class="Stem" fill="none" stroke="#000000" stroke-width="2.48" stroke-linejoin="bevel" points="300.091,730.249 300.091,647.417"/>
<polyline class="Stem" fill="none" stroke="#000000" stroke-width="2.48" stroke-linejoin="bevel" points="519.166,1093.6 519.166,1151.35"/>
<polyline class="Stem" fill="none" stroke="#000000" stroke-width="2.48" stroke-linejoin="bevel" points="600.001,337.232 600.001,248.136"/>
<polyline class="Stem" fill="none" stroke="#000000" stroke-width="2.48" stroke-linejoin="bevel" points="1970.11,324.832 1970.11,242.199"/>
<polyline class="Stem" fill="none" stroke="#000000" stroke-width="2.48" stroke-linejoin="bevel" points="919.887,332.967 919.887,390.671"/>
<path class="Note" transform="matrix(0.992001,0,0,0.992001,1939.12,328.8)" d="M0,4.2 C0,8.5 3.1,13.3 11.2,13.3 C21.6,13.3 32.5,4.8 32.5,-4 C32.5,-9.9 27.5,-13.2 21.3,-13.2 C11.6,-13.2 0,-5 0,4.2"/>
<path class="Note" transform="matrix(0.992001,0,0,0.992001,1538.71,684.617)" d="M0,4.2 C0,8.5 3.1,13.3 11.2,13.3 C21.6,13.3 32.5,4.8 32.5,-4 C32.5,-9.9 27.5,-13.2 21.3,-13.2 C11.6,-13.2 0,-5 0,4.2"/>
<path class="Note" transform="matrix(0.992001,0,0,0.992001,569.009,341.2)" d="M0,4.2 C0,8.5 3.1,13.3 11.2,13.3 C21.6,13.3 32.5,4.8 32.5,-4 C32.5,-9.9 27.5,-13.2 21.3,-13.2 C11.6,-13.2 0,-5 0,4.2"/>
<path class="Note" transform="matrix(0.992001,0,0,0.992001,1023.79,316.4)" d="M0,4.2 C0,8.5 3.1,13.3 11.2,13.3 C21.6,13.3 32.5,4.8 32.5,-4 C32.5,-9.9 27.5,-13.2 21.3,-13.2 C11.6,-13.2 0,-5 0,4.2"/>
<path class="Note" transform="matrix(0.992001,0,0,0.992001,959.69,1089.44)" d="M0,4.2 C0,8.5 3.1,13.3 11.2,13.3 C21.6,13.3 32.5,4.8 32.5,-4 C32.5,-9.9 27.5,-13.2 21.3,-13.2 C11.6,-13.2 0,-5 0,4.2"/>
<path class="Note" transform="matrix(0.992001,0,0,0.992001,633.078,328.8)" d="M0,4.2 C0,8.5 3.1,13.3 11.2,13.3 C21.6,13.3 32.5,4.8 32.5,-4 C32.5,-9.9 27.5,-13.2 21.3,-13.2 C11.6,-13.2 0,-5 0,4.2"/>
<path class="Note" transform="matrix(0.992001,0,0,0.992001,469.039,341.2)" d="M0,4.2 C0,8.5 3.1,13.3 11.2,13.3 C21.6,13.3 32.5,4.8 32.5,-4 C32.5,-9.9 27.5,-13.2 21.3,-13.2 C11.6,-13.2 0,-5 0,4.2"/>
<path class="Note" transform="matrix(0.992001,0,0,0.992001,1422.36,672.217)" d="M0,4.2 C0,8.5 3.1,13.3 11.2,13.3 C21.6,13.3 32.5,4.8 32.5,-4 C32.5,-9.9 27.5,-13.2 21.3,-13.2 C11.6,-13.2 0,-5 0,4.2"/>
<path class="Note" transform="matrix(0.992001,0,0,0.992001,1076.37,328.8)" d="M0,4.2 C0,8.5 3.1,13.3 11.2,13.3 C21.6,13.3 32.5,4.8 32.5,-4 C32.5,-9.9 27.5,-13.2 21.3,-13.2 C11.6,-13.2 0,-5 0,4.2"/>
<path class="Note" transform="matrix(0.992001,0,0,0.992001,517.926,1089.44)" d="M0,4.2 C0,8.5 3.1,13.3 11.2,13.3 C21.6,13.3 32.5,4.8 32.5,-4 C32.5,-9.9 27.5,-13.2 21.3,-13.2 C11.6,-13.2 0,-5 0,4.2"/>
<path class="Note" transform="matrix(0.992001,0,0,0.992001,269.098,734.217)" d="M0,4.2 C0,8.5 3.1,13.3 11.2,13.3 C21.6,13.3 32.5,4.8 32.5,-4 C32.5,-9.9 27.5,-13.2 21.3,-13.2 C11.6,-13.2 0,-5 0,4.2"/>
<path class="Note" transform="matrix(0.992001,0,0,0.992001,854.577,316.4)" d="M0,4.2 C0,8.5 3.1,13.3 11.2,13.3 C21.6,13.3 32.5,4.8 32.5,-4 C32.5,-9.9 27.5,-13.2 21.3,-13.2 C11.6,-13.2 0,-5 0,4.2"/>
<path class="Note" transform="matrix(0.992001,0,0,0.992001,265.921,1089.44)" d="M21.3,-13.2 C11.6,-13.2 0,-5.1 0,4.2 C0,8.5 3.1,13.3 11.2,13.3 C21.6,13.3 32.5,4.8 32.5,-4 C32.5,-9.9 27.5,-13.2 21.3,-13.2 M7.5,8.6 C4.2,8.6 3.5,5.9 3.5,5 C3.5,0.1 20.3,-8.5 25,-8.5 C27.4,-8.5 29,-7.1 29,-4.9 C29,0.1 12.1,8.6 7.5,8.6"/>
<path class="Note" transform="matrix(0.992001,0,0,0.992001,918.647,328.8)" d="M0,4.2 C0,8.5 3.1,13.3 11.2,13.3 C21.6,13.3 32.5,4.8 32.5,-4 C32.5,-9.9 27.5,-13.2 21.3,-13.2 C11.6,-13.2 0,-5 0,4.2"/>
<path class="Note" transform="matrix(0.992001,0,0,0.992001,378.417,746.617)" d="M0,4.2 C0,8.5 3.1,13.3 11.2,13.3 C21.6,13.3 32.5,4.8 32.5,-4 C32.5,-9.9 27.5,-13.2 21.3,-13.2 C11.6,-13.2 0,-5 0,4.2"/>
<path class="Note" transform="matrix(0.992001,0,0,0.992001,1812.39,328.8)" d="M0,4.2 C0,8.5 3.1,13.3 11.2,13.3 C21.6,13.3 32.5,4.8 32.5,-4 C32.5,-9.9 27.5,-13.2 21.3,-13.2 C11.6,-13.2 0,-5 0,4.2"/>
<path class="Note" transform="matrix(0.992001,0,0,0.992001,1648.03,659.817)" d="M0,4.2 C0,8.5 3.1,13.3 11.2,13.3 C21.6,13.3 32.5,4.8 32.5,-4 C32.5,-9.9 27.5,-13.2 21.3,-13.2 C11.6,-13.2 0,-5 0,4.2"/>
<path class="Note" transform="matrix(0.992001,0,0,0.992001,487.736,734.217)" d="M0,4.2 C0,8.5 3.1,13.3 11.2,13.3 C21.6,13.3 32.5,4.8 32.5,-4 C32.5,-9.9 27.5,-13.2 21.3,-13.2 C11.6,-13.2 0,-5 0,4.2"/>
<path class="Note" transform="matrix(0.992001,0,0,0.992001,1364.87,684.617)" d="M0,4.2 C0,8.5 3.1,13.3 11.2,13.3 C21.6,13.3 32.5,4.8 32.5,-4 C32.5,-9.9 27.5,-13.2 21.3,-13.2 C11.6,-13.2 0,-5 0,4.2"/>
<path class="Note" transform="matrix(0.992001,0,0,0.992001,871.337,1101.84)" d="M0,4.2 C0,8.5 3.1,13.3 11.2,13.3 C21.6,13.3 32.5,4.8 32.5,-4 C32.5,-9.9 27.5,-13.2 21.3,-13.2 C11.6,-13.2 0,-5 0,4.2"/>
<path class="Note" transform="matrix(0.992001,0,0,0.992001,685.652,316.4)" d="M0,4.2 C0,8.5 3.1,13.3 11.2,13.3 C21.6,13.3 32.5,4.8 32.5,-4 C32.5,-9.9 27.5,-13.2 21.3,-13.2 C11.6,-13.2 0,-5 0,4.2"/>
<path class="Note" transform="matrix(0.992001,0,0,0.992001,597.055,734.217)" d="M0,4.2 C0,8.5 3.1,13.3 11.2,13.3 C21.6,13.3 32.5,4.8 32.5,-4 C32.5,-9.9 27.5,-13.2 21.3,-13.2 C11.6,-13.2 0,-5 0,4.2"/>
<path class="Note" transform="matrix(0.992001,0,0,0.992001,1128.94,291.6)" d="M0,4.2 C0,8.5 3.1,13.3 11.2,13.3 C21.6,13.3 32.5,4.8 32.5,-4 C32.5,-9.9 27.5,-13.2 21.3,-13.2 C11.6,-13.2 0,-5 0,4.2"/>
<path class="Note" transform="matrix(0.992001,0,0,0.992001,1757.35,647.417)" d="M0,4.2 C0,8.5 3.1,13.3 11.2,13.3 C21.6,13.3 32.5,4.8 32.5,-4 C32.5,-9.9 27.5,-13.2 21.3,-13.2 C11.6,-13.2 0,-5 0,4.2"/>
<path class="Note" transform="matrix(0.992001,0,0,0.992001,1307.38,697.017)" d="M0,4.2 C0,8.5 3.1,13.3 11.2,13.3 C21.6,13.3 32.5,4.8 32.5,-4 C32.5,-9.9 27.5,-13.2 21.3,-13.2 C11.6,-13.2 0,-5 0,4.2"/>
<path class="Note" transform="matrix(0.992001,0,0,0.992001,1701.67,341.2)" d="M0,4.2 C0,8.5 3.1,13.3 11.2,13.3 C21.6,13.3 32.5,4.8 32.5,-4 C32.5,-9.9 27.5,-13.2 21.3,-13.2 C11.6,-13.2 0,-5 0,4.2"/>
<path class="Note" transform="matrix(0.992001,0,0,0.992001,654.545,709.417)" d="M0,4.2 C0,8.5 3.1,13.3 11.2,13.3 C21.6,13.3 32.5,4.8 32.5,-4 C32.5,-9.9 27.5,-13.2 21.3,-13.2 C11.6,-13.2 0,-5 0,4.2"/>
<path class="Note" transform="matrix(0.992001,0,0,0.992001,369.068,316.4)" d="M0,4.2 C0,8.5 3.1,13.3 11.2,13.3 C21.6,13.3 32.5,4.8 32.5,-4 C32.5,-9.9 27.5,-13.2 21.3,-13.2 C11.6,-13.2 0,-5 0,4.2"/>
<path class="Note" transform="matrix(0.992001,0,0,0.992001,606.279,1077.04)" d="M0,4.2 C0,8.5 3.1,13.3 11.2,13.3 C21.6,13.3 32.5,4.8 32.5,-4 C32.5,-9.9 27.5,-13.2 21.3,-13.2 C11.6,-13.2 0,-5 0,4.2"/>
<path class="Note" transform="matrix(0.992001,0,0,0.992001,721.792,684.617)" d="M0,4.2 C0,8.5 3.1,13.3 11.2,13.3 C21.6,13.3 32.5,4.8 32.5,-4 C32.5,-9.9 27.5,-13.2 21.3,-13.2 C11.6,-13.2 0,-5 0,4.2"/>
<path class="Note" transform="matrix(0.992001,0,0,0.992001,1622.81,341.2)" d="M0,4.2 C0,8.5 3.1,13.3 11.2,13.3 C21.6,13.3 32.5,4.8 32.5,-4 C32.5,-9.9 27.5,-13.2 21.3,-13.2 C11.6,-13.2 0,-5 0,4.2"/>
<path class="Note" transform="matrix(0.992001,0,0,0.992001,1522.84,341.2)" d="M0,4.2 C0,8.5 3.1,13.3 11.2,13.3 C21.6,13.3 32.5,4.8 32.5,-4 C32.5,-9.9 27.5,-13.2 21.3,-13.2 C11.6,-13.2 0,-5 0,4.2"/>
<path class="Note" transform="matrix(0.992001,0,0,0.992001,1094.96,1101.84)" d="M18.7,-13.6 C4.9,-13.6 0,-6.6 0,-0.1 C0,6.4 4.9,13.4 18.7,13.4 C32.5,13.4 37.3,6.4 37.3,-0.1 C37.3,-6.6 32.5,-13.6 18.7,-13.6 M19.5,10.2 C16.7,10.2 14.8,9.4 13.5,6.9 C12.2,4.4 10.4,-2.1 10.3,-4.7 C10.1,-7.4 11.1,-9 13.5,-9.8 C14.7,-10.2 16.3,-10.4 17.9,-10.4 C20.6,-10.4 22.4,-9.8 23.8,-7.1 C25.2,-4.5 27.1,2 27.1,4.5 C27.1,9.4 23.5,10.2 19.5,10.2"/>
<path class="Note" transform="matrix(0.992001,0,0,0.992001,269.098,291.6)" d="M0,4.2 C0,8.5 3.1,13.3 11.2,13.3 C21.6,13.3 32.5,4.8 32.5,-4 C32.5,-9.9 27.5,-13.2 21.3,-13.2 C11.6,-13.2 0,-5 0,4.2"/>
<path class="Note" transform="matrix(0.992001,0,0,0.992001,1512.06,1101.84)" d="M21.3,-13.2 C11.6,-13.2 0,-5.1 0,4.2 C0,8.5 3.1,13.3 11.2,13.3 C21.6,13.3 32.5,4.8 32.5,-4 C32.5,-9.9 27.5,-13.2 21.3,-13.2 M7.5,8.6 C4.2,8.6 3.5,5.9 3.5,5 C3.5,0.1 20.3,-8.5 25,-8.5 C27.4,-8.5 29,-7.1 29,-4.9 C29,0.1 12.1,8.6 7.5,8.6"/>
<path class="Note" transform="matrix(0.992001,0,0,0.992001,838.143,684.617)" d="M0,4.2 C0,8.5 3.1,13.3 11.2,13.3 C21.6,13.3 32.5,4.8 32.5,-4 C32.5,-9.9 27.5,-13.2 21.3,-13.2 C11.6,-13.2 0,-5 0,4.2"/>
<path class="Note" transform="matrix(0.992001,0,0,0.992001,1249.89,697.017)" d="M0,4.2 C0,8.5 3.1,13.3 11.2,13.3 C21.6,13.3 32.5,4.8 32.5,-4 C32.5,-9.9 27.5,-13.2 21.3,-13.2 C11.6,-13.2 0,-5 0,4.2"/>
<path class="Note" transform="matrix(0.992001,0,0,0.992001,694.632,1064.64)" d="M0,4.2 C0,8.5 3.1,13.3 11.2,13.3 C21.6,13.3 32.5,4.8 32.5,-4 C32.5,-9.9 27.5,-13.2 21.3,-13.2 C11.6,-13.2 0,-5 0,4.2"/>
<path class="Note" transform="matrix(0.992001,0,0,0.992001,1952.9,709.417)" d="M0,4.2 C0,8.5 3.1,13.3 11.2,13.3 C21.6,13.3 32.5,4.8 32.5,-4 C32.5,-9.9 27.5,-13.2 21.3,-13.2 C11.6,-13.2 0,-5 0,4.2"/>
<path class="Note" transform="matrix(0.992001,0,0,0.992001,1748.32,341.2)" d="M0,4.2 C0,8.5 3.1,13.3 11.2,13.3 C21.6,13.3 32.5,4.8 32.5,-4 C32.5,-9.9 27.5,-13.2 21.3,-13.2 C11.6,-13.2 0,-5 0,4.2"/>
<path class="Note" transform="matrix(0.992001,0,0,0.992001,1406.49,353.6)" d="M0,4.2 C0,8.5 3.1,13.3 11.2,13.3 C21.6,13.3 32.5,4.8 32.5,-4 C32.5,-9.9 27.5,-13.2 21.3,-13.2 C11.6,-13.2 0,-5 0,4.2"/>
<path class="Note" transform="matrix(0.992001,0,0,0.992001,924.379,697.017)" d="M0,4.2 C0,8.5 3.1,13.3 11.2,13.3 C21.6,13.3 32.5,4.8 32.5,-4 C32.5,-9.9 27.5,-13.2 21.3,-13.2 C11.6,-13.2 0,-5 0,4.2"/>
<path class="Note" transform="matrix(0.992001,0,0,0.992001,802.003,304)" d="M0,4.2 C0,8.5 3.1,13.3 11.2,13.3 C21.6,13.3 32.5,4.8 32.5,-4 C32.5,-9.9 27.5,-13.2 21.3,-13.2 C11.6,-13.2 0,-5 0,4.2"/>
<path class="Note" transform="matrix(0.992001,0,0,0.992001,1353.91,341.2)" d="M0,4.2 C0,8.5 3.1,13.3 11.2,13.3 C21.6,13.3 32.5,4.8 32.5,-4 C32.5,-9.9 27.5,-13.2 21.3,-13.2 C11.6,-13.2 0,-5 0,4.2"/>
<path class="Note" transform="matrix(0.992001,0,0,0.992001,971.221,304)" d="M0,4.2 C0,8.5 3.1,13.3 11.2,13.3 C21.6,13.3 32.5,4.8 32.5,-4 C32.5,-9.9 27.5,-13.2 21.3,-13.2 C11.6,-13.2 0,-5 0,4.2"/>
<path class="Note" transform="matrix(0.992001,0,0,0.992001,981.869,697.017)" d="M0,4.2 C0,8.5 3.1,13.3 11.2,13.3 C21.6,13.3 32.5,4.8 32.5,-4 C32.5,-9.9 27.5,-13.2 21.3,-13.2 C11.6,-13.2 0,-5 0,4.2"/>
<path class="Note" transform="matrix(0.992001,0,0,0.992001,1181.52,304)" d="M0,4.2 C0,8.5 3.1,13.3 11.2,13.3 C21.6,13.3 32.5,4.8 32.5,-4 C32.5,-9.9 27.5,-13.2 21.3,-13.2 C11.6,-13.2 0,-5 0,4.2"/>
<path class="Note" transform="matrix(0.992001,0,0,0.992001,1163.65,684.617)" d="M0,4.2 C0,8.5 3.1,13.3 11.2,13.3 C21.6,13.3 32.5,4.8 32.5,-4 C32.5,-9.9 27.5,-13.2 21.3,-13.2 C11.6,-13.2 0,-5 0,4.2"/>
<path class="Note" transform="matrix(0.992001,0,0,0.992001,1234.09,316.4)" d="M0,4.2 C0,8.5 3.1,13.3 11.2,13.3 C21.6,13.3 32.5,4.8 32.5,-4 C32.5,-9.9 27.5,-13.2 21.3,-13.2 C11.6,-13.2 0,-5 0,4.2"/>
<path class="Note" transform="matrix(0.992001,0,0,0.992001,1068.11,697.017)" d="M0,4.2 C0,8.5 3.1,13.3 11.2,13.3 C21.6,13.3 32.5,4.8 32.5,-4 C32.5,-9.9 27.5,-13.2 21.3,-13.2 C11.6,-13.2 0,-5 0,4.2"/>
<path class="Note" transform="matrix(0.992001,0,0,0.992001,1286.67,328.8)" d="M0,4.2 C0,8.5 3.1,13.3 11.2,13.3 C21.6,13.3 32.5,4.8 32.5,-4 C32.5,-9.9 27.5,-13.2 21.3,-13.2 C11.6,-13.2 0,-5 0,4.2"/>
<path class="Note" transform="matrix(0.992001,0,0,0.992001,1866.67,697.017)" d="M0,4.2 C0,8.5 3.1,13.3 11.2,13.3 C21.6,13.3 32.5,4.8 32.5,-4 C32.5,-9.9 27.5,-13.2 21.3,-13.2 C11.6,-13.2 0,-5 0,4.2"/>
<path class="Note" transform="matrix(0.992001,0,0,0.992001,782.984,1114.24)" d="M0,4.2 C0,8.5 3.1,13.3 11.2,13.3 C21.6,13.3 32.5,4.8 32.5,-4 C32.5,-9.9 27.5,-13.2 21.3,-13.2 C11.6,-13.2 0,-5 0,4.2"/>
<path class="Note" transform="matrix(0.992001,0,0,0.992001,1115.88,709.417)" d="M0,4.2 C0,8.5 3.1,13.3 11.2,13.3 C21.6,13.3 32.5,4.8 32.5,-4 C32.5,-9.9 27.5,-13.2 21.3,-13.2 C11.6,-13.2 0,-5 0,4.2"/>
<path class="Clef" transform="matrix(0.992001,0,0,0.992001,90.6,1077.04)" d="M12.3,51.3 C12.3,57.9 17.3,66.6 30.8,66.6 C35.5,66.6 39.6,65.4 43.2,63.2 C48.6,59.4 50,52.8 50,46.5 C50,42.6 49.4,38.1 48.4,32.4 C48.1,30.4 47.5,27.4 46.9,23.5 C56.7,20.3 64,10.1 64,-0.2 C64,-15.3 53.3,-25.5 38.7,-25.5 C37.7,-31.5 36.7,-37.4 35.9,-43 C46.4,-54.1 53.7,-66.6 53.7,-82.5 C53.7,-91.6 50.9,-99 49.3,-102.6 C46.9,-107.7 44,-111.2 42.2,-111.2 C41.5,-111.2 38.4,-110 35.1,-106.1 C28.7,-98.5 26.9,-85.7 26.9,-77.3 C26.9,-71.9 27.4,-67 29.1,-55.8 C29,-55.7 23.8,-50.4 21.7,-48.7 C12.6,-40.3 0,-28.1 0,-8.1 C0,10.6 16.3,25.3 34.9,25.3 C37.8,25.3 40.5,25 42.8,24.6 C44.7,34.2 45.9,41.2 45.9,46.5 C45.9,56.9 40.5,62.4 30.4,62.4 C28,62.4 25.9,61.9 25.7,61.9 C25.6,61.8 25.4,61.7 25.4,61.6 C25.4,61.4 25.6,61.3 25.9,61.3 C30.6,60.5 35.3,56.5 35.3,50.1 C35.3,44.7 31.2,39 23.7,39 C16.7,39 12.3,44.7 12.3,51.3 M33.2,-82.2 C34.1,-86.2 38.7,-96.7 43.9,-96.7 C45.4,-96.7 47.8,-91.9 47.8,-84.9 C47.8,-74.5 40.1,-66.7 33.2,-59.9 C32.6,-63.9 32.1,-67.8 32.1,-72 C32.1,-75.7 32.4,-79.1 33.2,-82.2 M42,20.6 C40,21 38.1,21.2 36.2,21.2 C21.9,21.2 9.7,11.2 9.7,-3.9 C9.7,-16.1 18.3,-27 27.1,-34.6 C28.8,-36.1 30.4,-37.5 31.9,-39 C32.8,-33.6 33.5,-28.9 34.2,-24.8 C25.1,-22.1 18.9,-12.5 18.9,-3.1 C18.9,3.9 24.4,13.5 32.4,13.5 C33.2,13.5 34.1,13.1 34.1,12.2 C34.1,11.3 33.1,10.8 31.9,10 C28,7.6 25.8,5 25.8,0.1 C25.8,-6 30.4,-10.9 36.2,-12.3 L42,20.6 M56.2,2.1 C56.2,9.2 53.3,16.5 46.2,19.4 C44.1,7.4 41.4,-8.5 40.7,-12.9 C49.7,-12.9 56.2,-6.8 56.2,2.1"/>
<path class="Clef" transform="matrix(0.992001,0,0,0.992001,90.6,709.417)" d="M12.3,51.3 C12.3,57.9 17.3,66.6 30.8,66.6 C35.5,66.6 39.6,65.4 43.2,63.2 C48.6,59.4 50,52.8 50,46.5 C50,42.6 49.4,38.1 48.4,32.4 C48.1,30.4 47.5,27.4 46.9,23.5 C56.7,20.3 64,10.1 64,-0.2 C64,-15.3 53.3,-25.5 38.7,-25.5 C37.7,-31.5 36.7,-37.4 35.9,-43 C46.4,-54.1 53.7,-66.6 53.7,-82.5 C53.7,-91.6 50.9,-99 49.3,-102.6 C46.9,-107.7 44,-111.2 42.2,-111.2 C41.5,-111.2 38.4,-110 35.1,-106.1 C28.7,-98.5 26.9,-85.7 26.9,-77.3 C26.9,-71.9 27.4,-67 29.1,-55.8 C29,-55.7 23.8,-50.4 21.7,-48.7 C12.6,-40.3 0,-28.1 0,-8.1 C0,10.6 16.3,25.3 34.9,25.3 C37.8,25.3 40.5,25 42.8,24.6 C44.7,34.2 45.9,41.2 45.9,46.5 C45.9,56.9 40.5,62.4 30.4,62.4 C28,62.4 25.9,61.9 25.7,61.9 C25.6,61.8 25.4,61.7 25.4,61.6 C25.4,61.4 25.6,61.3 25.9,61.3 C30.6,60.5 35.3,56.5 35.3,50.1 C35.3,44.7 31.2,39 23.7,39 C16.7,39 12.3,44.7 12.3,51.3 M33.2,-82.2 C34.1,-86.2 38.7,-96.7 43.9,-96.7 C45.4,-96.7 47.8,-91.9 47.8,-84.9 C47.8,-74.5 40.1,-66.7 33.2,-59.9 C32.6,-63.9 32.1,-67.8 32.1,-72 C32.1,-75.7 32.4,-79.1 33.2,-82.2 M42,20.6 C40,21 38.1,21.2 36.2,21.2 C21.9,21.2 9.7,11.2 9.7,-3.9 C9.7,-16.1 18.3,-27 27.1,-34.6 C28.8,-36.1 30.4,-37.5 31.9,-39 C32.8,-33.6 33.5,-28.9 34.2,-24.8 C25.1,-22.1 18.9,-12.5 18.9,-3.1 C18.9,3.9 24.4,13.5 32.4,13.5 C33.2,13.5 34.1,13.1 34.1,12.2 C34.1,11.3 33.1,10.8 31.9,10 C28,7.6 25.8,5 25.8,0.1 C25.8,-6 30.4,-10.9 36.2,-12.3 L42,20.6 M56.2,2.1 C56.2,9.2 53.3,16.5 46.2,19.4 C44.1,7.4 41.4,-8.5 40.7,-12.9 C49.7,-12.9 56.2,-6.8 56.2,2.1"/>
<path class="Clef" transform="matrix(0.992001,0,0,0.992001,90.6,316.4)" d="M12.3,51.3 C12.3,57.9 17.3,66.6 30.8,66.6 C35.5,66.6 39.6,65.4 43.2,63.2 C48.6,59.4 50,52.8 50,46.5 C50,42.6 49.4,38.1 48.4,32.4 C48.1,30.4 47.5,27.4 46.9,23.5 C56.7,20.3 64,10.1 64,-0.2 C64,-15.3 53.3,-25.5 38.7,-25.5 C37.7,-31.5 36.7,-37.4 35.9,-43 C46.4,-54.1 53.7,-66.6 53.7,-82.5 C53.7,-91.6 50.9,-99 49.3,-102.6 C46.9,-107.7 44,-111.2 42.2,-111.2 C41.5,-111.2 38.4,-110 35.1,-106.1 C28.7,-98.5 26.9,-85.7 26.9,-77.3 C26.9,-71.9 27.4,-67 29.1,-55.8 C29,-55.7 23.8,-50.4 21.7,-48.7 C12.6,-40.3 0,-28.1 0,-8.1 C0,10.6 16.3,25.3 34.9,25.3 C37.8,25.3 40.5,25 42.8,24.6 C44.7,34.2 45.9,41.2 45.9,46.5 C45.9,56.9 40.5,62.4 30.4,62.4 C28,62.4 25.9,61.9 25.7,61.9 C25.6,61.8 25.4,61.7 25.4,61.6 C25.4,61.4 25.6,61.3 25.9,61.3 C30.6,60.5 35.3,56.5 35.3,50.1 C35.3,44.7 31.2,39 23.7,39 C16.7,39 12.3,44.7 12.3,51.3 M33.2,-82.2 C34.1,-86.2 38.7,-96.7 43.9,-96.7 C45.4,-96.7 47.8,-91.9 47.8,-84.9 C47.8,-74.5 40.1,-66.7 33.2,-59.9 C32.6,-63.9 32.1,-67.8 32.1,-72 C32.1,-75.7 32.4,-79.1 33.2,-82.2 M42,20.6 C40,21 38.1,21.2 36.2,21.2 C21.9,21.2 9.7,11.2 9.7,-3.9 C9.7,-16.1 18.3,-27 27.1,-34.6 C28.8,-36.1 30.4,-37.5 31.9,-39 C32.8,-33.6 33.5,-28.9 34.2,-24.8 C25.1,-22.1 18.9,-12.5 18.9,-3.1 C18.9,3.9 24.4,13.5 32.4,13.5 C33.2,13.5 34.1,13.1 34.1,12.2 C34.1,11.3 33.1,10.8 31.9,10 C28,7.6 25.8,5 25.8,0.1 C25.8,-6 30.4,-10.9 36.2,-12.3 L42,20.6 M56.2,2.1 C56.2,9.2 53.3,16.5 46.2,19.4 C44.1,7.4 41.4,-8.5 40.7,-12.9 C49.7,-12.9 56.2,-6.8 56.2,2.1"/>
<path class="KeySig" transform="matrix(0.992001,0,0,0.992001,178.88,1002.64)" d="M23.3,-10.5 C23.9,-10.6 24.4,-11.3 24.4,-11.9 L24.4,-17.8 C24.4,-18.8 23.7,-19.2 22.8,-19.2 L19.5,-18.5 L19.5,-33.4 L16.7,-33.4 L16.7,-17.9 L7.8,-16.1 L7.8,-30.2 L5,-30.2 L5,-15.5 L1.1,-14.7 C0.5,-14.6 0,-13.9 0,-13.3 L0,-7.5 C0,-6.4 0.8,-6.1 1.7,-6.1 L5,-6.8 L5,9.7 L1.1,10.5 C0.5,10.6 0,11.3 0,11.9 L0,17.7 C0,18.8 0.8,19.1 1.7,19.1 L5,18.4 L5,33.3 L7.8,33.3 L7.8,17.8 L16.7,16 L16.7,30.1 L19.5,30.1 L19.5,15.4 L23.3,14.7 C23.9,14.6 24.4,13.9 24.4,13.3 L24.4,7.4 C24.4,6.4 23.7,6 22.8,6 L19.5,6.7 L19.5,-9.8 L23.3,-10.5 M7.8,-7.4 L16.7,-9.2 L16.7,7.3 L7.8,9.2 L7.8,-7.4 "/>
<path class="KeySig" transform="matrix(0.992001,0,0,0.992001,178.88,635.017)" d="M23.3,-10.5 C23.9,-10.6 24.4,-11.3 24.4,-11.9 L24.4,-17.8 C24.4,-18.8 23.7,-19.2 22.8,-19.2 L19.5,-18.5 L19.5,-33.4 L16.7,-33.4 L16.7,-17.9 L7.8,-16.1 L7.8,-30.2 L5,-30.2 L5,-15.5 L1.1,-14.7 C0.5,-14.6 0,-13.9 0,-13.3 L0,-7.5 C0,-6.4 0.8,-6.1 1.7,-6.1 L5,-6.8 L5,9.7 L1.1,10.5 C0.5,10.6 0,11.3 0,11.9 L0,17.7 C0,18.8 0.8,19.1 1.7,19.1 L5,18.4 L5,33.3 L7.8,33.3 L7.8,17.8 L16.7,16 L16.7,30.1 L19.5,30.1 L19.5,15.4 L23.3,14.7 C23.9,14.6 24.4,13.9 24.4,13.3 L24.4,7.4 C24.4,6.4 23.7,6 22.8,6 L19.5,6.7 L19.5,-9.8 L23.3,-10.5 M7.8,-7.4 L16.7,-9.2 L16.7,7.3 L7.8,9.2 L7.8,-7.4 "/>
<path class="KeySig" transform="matrix(0.992001,0,0,0.992001,178.88,242)" d="M23.3,-10.5 C23.9,-10.6 24.4,-11.3 24.4,-11.9 L24.4,-17.8 C24.4,-18.8 23.7,-19.2 22.8,-19.2 L19.5,-18.5 L19.5,-33.4 L16.7,-33.4 L16.7,-17.9 L7.8,-16.1 L7.8,-30.2 L5,-30.2 L5,-15.5 L1.1,-14.7 C0.5,-14.6 0,-13.9 0,-13.3 L0,-7.5 C0,-6.4 0.8,-6.1 1.7,-6.1 L5,-6.8 L5,9.7 L1.1,10.5 C0.5,10.6 0,11.3 0,11.9 L0,17.7 C0,18.8 0.8,19.1 1.7,19.1 L5,18.4 L5,33.3 L7.8,33.3 L7.8,17.8 L16.7,16 L16.7,30.1 L19.5,30.1 L19.5,15.4 L23.3,14.7 C23.9,14.6 24.4,13.9 24.4,13.3 L24.4,7.4 C24.4,6.4 23.7,6 22.8,6 L19.5,6.7 L19.5,-9.8 L23.3,-10.5 M7.8,-7.4 L16.7,-9.2 L16.7,7.3 L7.8,9.2 L7.8,-7.4 "/>
<path class="Rest" transform="matrix(0.992001,0,0,0.992001,1831.52,1052.24)" d="M23,16.6 C22.9,16.5 22.7,16.3 22.4,15.9 L10.9,1.7 C10.8,1.6 10.7,1.3 10.7,1.1 C10.7,0.8 10.8,0.4 10.9,0.2 L21.1,-15.2 C21.2,-15.4 21.3,-15.7 21.3,-15.9 L21.3,-16.8 C21.3,-17.1 21.2,-17.4 21,-17.6 L4.8,-39.5 C4.8,-39.5 4.4,-40.1 3.8,-40.1 C3.5,-40.1 3.3,-40.1 3,-39.8 C2.6,-39.5 2.5,-39.1 2.5,-38.8 C2.5,-38.2 2.8,-37.7 2.8,-37.7 L10.4,-27.3 C10.6,-27 10.7,-26.6 10.7,-26.1 C10.7,-25.7 10.6,-25.2 10.4,-24.9 L0.3,-9.5 C0.2,-9.3 0.1,-8.9 0.1,-8.7 L0.1,-7.8 C0.1,-7.5 0.2,-7.2 0.4,-7 L11.6,6.9 C11.2,6.8 10.3,6.6 9.1,6.6 C4,6.6 0,10.8 0,15.9 C0,17.3 0.3,18.7 1.1,19.8 C3.2,23 10.7,32.5 10.7,32.5 C10.7,32.5 11.2,33.1 11.9,33.1 C12.1,33.1 12.3,33.1 12.5,32.9 C13,32.5 13.2,32.1 13.2,31.7 C13.2,31.3 13,31 12.9,30.8 C12.6,30.3 9.4,24.5 9.4,24.5 C9.4,24.5 8.7,23.1 8.7,21.3 C8.7,18.1 11.1,15.5 14.3,15.5 C15.6,15.5 16.7,15.9 17.5,16.4 L21.4,18.9 C21.4,18.9 21.8,19.1 22.2,19.1 C22.6,19.1 22.9,19 23.2,18.6 C23.4,18.3 23.5,18 23.5,17.7 C23.5,17.4 23.4,17.2 23.2,16.9 L23,16.6 "/>
<path class="Fermata" transform="matrix(0.992001,0,0,0.992001,1742.62,592.663)" d="M54,-26 C44.6,-36.2 36.3,-36.8 31.1,-36.8 C25.9,-36.8 17.7,-36.2 8.3,-26 C3.4,-20.6 0,-9.9 0,-4.5 C0,-2.6 0.4,-1.3 1.4,-1.3 C4.2,-1.3 2.8,-9.9 11.2,-18.4 C18.6,-25.8 28.5,-25.9 30.9,-25.9 L31.3,-25.9 C33.7,-25.9 43.6,-25.8 51,-18.4 C59.4,-9.9 58,-1.3 60.8,-1.3 C61.8,-1.3 62.2,-2.5 62.2,-4.5 C62.2,-9.9 58.9,-20.7 54,-26 M24.2,-6.9 C24.2,-3.1 27.3,0 31.1,0 C34.9,0 38,-3.1 38,-6.9 C38,-10.7 34.9,-13.8 31.1,-13.8 C27.3,-13.8 24.2,-10.7 24.2,-6.9"/>
<path class="Fermata" transform="matrix(0.992001,0,0,0.992001,473.007,622.617)" d="M54,-26 C44.6,-36.2 36.3,-36.8 31.1,-36.8 C25.9,-36.8 17.7,-36.2 8.3,-26 C3.4,-20.6 0,-9.9 0,-4.5 C0,-2.6 0.4,-1.3 1.4,-1.3 C4.2,-1.3 2.8,-9.9 11.2,-18.4 C18.6,-25.8 28.5,-25.9 30.9,-25.9 L31.3,-25.9 C33.7,-25.9 43.6,-25.8 51,-18.4 C59.4,-9.9 58,-1.3 60.8,-1.3 C61.8,-1.3 62.2,-2.5 62.2,-4.5 C62.2,-9.9 58.9,-20.7 54,-26 M24.2,-6.9 C24.2,-3.1 27.3,0 31.1,0 C34.9,0 38,-3.1 38,-6.9 C38,-10.7 34.9,-13.8 31.1,-13.8 C27.3,-13.8 24.2,-10.7 24.2,-6.9"/>
<path class="Beam" fill-rule="evenodd" d="M1316.42,254.368 L1438.72,266.768 L1438.72,279.232 L1316.42,266.832 L1316.42,254.368 "/>
<path class="Beam" fill-rule="evenodd" d="M812.737,1027.42 L991.922,1015.02 L991.922,1027.45 L812.737,1039.85 L812.737,1027.42 "/>
<path class="Beam" fill-rule="evenodd" d="M802.003,372.167 L921.127,384.567 L921.127,397.034 L802.003,384.634 L802.003,372.167 "/>
<path class="Beam" fill-rule="evenodd" d="M1128.94,359.759 L1236.57,372.159 L1236.57,384.641 L1128.94,372.241 L1128.94,359.759 "/>
<path class="Beam" fill-rule="evenodd" d="M971.221,372.159 L1078.85,384.559 L1078.85,397.041 L971.221,384.641 L971.221,372.159 "/>
<path class="Beam" fill-rule="evenodd" d="M1731.42,260.6 L1780.55,260.6 L1780.55,273 L1731.42,273 L1731.42,260.6 "/>
<path class="Beam" fill-rule="evenodd" d="M1731.42,279.2 L1780.55,279.2 L1780.55,291.6 L1731.42,291.6 L1731.42,279.2 "/>
<path class="Beam" fill-rule="evenodd" d="M1307.38,758.983 L1424.84,746.583 L1424.84,759.052 L1307.38,771.452 L1307.38,758.983 "/>
<path class="Beam" fill-rule="evenodd" d="M597.055,789.988 L724.272,777.588 L724.272,790.047 L597.055,802.447 L597.055,789.988 "/>
<path class="Beam" fill-rule="evenodd" d="M517.926,1145.22 L697.112,1132.82 L697.112,1145.25 L517.926,1157.65 L517.926,1145.22 "/>
<path class="Beam" fill-rule="evenodd" d="M598.761,241.992 L717.884,235.792 L717.884,248.209 L598.761,254.409 L598.761,241.992 "/>
<path class="Hook" transform="matrix(0.992001,0,0,0.992001,1115.88,790.017)" d="M0,1 C0,1.8 0.7,2.6 1.5,2.6 C2.3,2.6 2.8,1.8 3,1 C4.5,-9.3 7.6,-12.3 11.6,-16.1 C17,-21.2 30.9,-28.9 30.9,-47.4 C30.9,-50.7 30.6,-54.4 30.1,-58.1 C30.4,-59.4 30.6,-61.2 30.6,-63.8 C30.6,-71.7 26,-77.2 22.7,-79.8 C22.3,-80.1 21.7,-80.3 21.1,-80.3 C20.7,-80.3 19.4,-80 19.4,-79.5 C19.4,-79.2 20,-78.8 20.4,-78.4 C23.9,-74.7 26.5,-71.3 26.5,-64.6 C26.5,-63.3 26.4,-62 26.1,-60.8 L25.9,-60.5 C23.8,-52.1 9.2,-43.2 1.5,-41.5 C0.8,-41.2 0,-39 0,-38.8 L0,1 M3.7,-24 C3.8,-24.5 3.9,-24.9 4,-25.2 C4.6,-27.7 5.5,-31.4 11.3,-35.9 C17.1,-40.4 24,-46 26.7,-50.8 C26.5,-43.1 24.7,-38.3 22,-34.9 C15.9,-27.4 8.5,-25.3 3.7,-24"/>
<path class="Hook" transform="matrix(0.992001,0,0,0.992001,1068.11,777.617)" d="M0,1 C0,1.8 0.7,2.6 1.5,2.6 C2.3,2.6 2.8,1.8 3,1 C4.5,-9.3 7.6,-12.3 11.6,-16.1 C17,-21.2 30.9,-28.9 30.9,-47.4 C30.9,-50.7 30.6,-54.4 30.1,-58.1 C30.4,-59.4 30.6,-61.2 30.6,-63.8 C30.6,-71.7 26,-77.2 22.7,-79.8 C22.3,-80.1 21.7,-80.3 21.1,-80.3 C20.7,-80.3 19.4,-80 19.4,-79.5 C19.4,-79.2 20,-78.8 20.4,-78.4 C23.9,-74.7 26.5,-71.3 26.5,-64.6 C26.5,-63.3 26.4,-62 26.1,-60.8 L25.9,-60.5 C23.8,-52.1 9.2,-43.2 1.5,-41.5 C0.8,-41.2 0,-39 0,-38.8 L0,1 M3.7,-24 C3.8,-24.5 3.9,-24.9 4,-25.2 C4.6,-27.7 5.5,-31.4 11.3,-35.9 C17.1,-40.4 24,-46 26.7,-50.8 C26.5,-43.1 24.7,-38.3 22,-34.9 C15.9,-27.4 8.5,-25.3 3.7,-24"/>
<path class="Hook" transform="matrix(0.992001,0,0,0.992001,1952.9,790.017)" d="M0,-0.1 C0,0.6 0.6,1.2 1.3,1.2 C1.8,1.2 2.4,0.8 2.5,0.4 C2.5,0.3 3.4,-3.2 3.5,-3.5 C3.6,-3.9 4.5,-7.7 8.1,-13.6 C12,-20.1 18,-24.8 23,-31.8 C28,-38.8 30.9,-45.4 30.9,-54.2 C30.9,-63.3 28.9,-70.9 23.5,-80.6 C23.2,-81.3 22.6,-81.7 22,-81.7 C21.8,-81.7 21.6,-81.7 21.5,-81.6 C21,-81.4 20.8,-81 20.8,-80.4 C20.8,-80.1 20.9,-79.7 21.1,-79.2 C25.1,-69.9 26.7,-64.6 26.7,-57.4 C26.7,-49.1 23.8,-44.8 22,-41.7 C15.5,-30.6 5,-25.2 0.8,-23.8 C0.1,-23.6 0,-23 0,-22.7 L0,-0.1 "/>
<path class="Hook" transform="matrix(0.992001,0,0,0.992001,1249.89,777.617)" d="M0,-0.1 C0,0.6 0.6,1.2 1.3,1.2 C1.8,1.2 2.4,0.8 2.5,0.4 C2.5,0.3 3.4,-3.2 3.5,-3.5 C3.6,-3.9 4.5,-7.7 8.1,-13.6 C12,-20.1 18,-24.8 23,-31.8 C28,-38.8 30.9,-45.4 30.9,-54.2 C30.9,-63.3 28.9,-70.9 23.5,-80.6 C23.2,-81.3 22.6,-81.7 22,-81.7 C21.8,-81.7 21.6,-81.7 21.5,-81.6 C21,-81.4 20.8,-81 20.8,-80.4 C20.8,-80.1 20.9,-79.7 21.1,-79.2 C25.1,-69.9 26.7,-64.6 26.7,-57.4 C26.7,-49.1 23.8,-44.8 22,-41.7 C15.5,-30.6 5,-25.2 0.8,-23.8 C0.1,-23.6 0,-23 0,-22.7 L0,-0.1 "/>
<path class="Hook" transform="matrix(0.992001,0,0,0.992001,1968.87,242)" d="M0,22.7 C0,23 0.1,23.6 0.8,23.8 C5.1,25.2 13.7,30.6 20.2,41.7 C22,44.8 24.9,49.1 24.9,57.4 C24.9,64.6 23.1,72 20.4,79.2 C20.2,79.8 20.1,80.3 20.1,80.7 C20.1,81.4 20.5,81.7 21.2,81.7 C21.8,81.7 22.3,81.3 22.7,80.6 C27.2,72.6 28.9,63.3 28.9,54.2 C28.4,41.3 21,31.8 21,31.8 C21.3,31.8 11.8,19.5 9.1,15.3 C5.4,9.6 3.7,3.9 3.5,3.5 C3.4,3.2 2.5,-0.4 2.5,-0.4 C2.4,-0.8 1.9,-1.2 1.3,-1.2 C0.6,-1.2 0,-0.6 0,0.1 L0,22.7 "/>
<path class="Hook" transform="matrix(0.992001,0,0,0.992001,924.379,777.617)" d="M0,-0.1 C0,0.6 0.6,1.2 1.3,1.2 C1.8,1.2 2.4,0.8 2.5,0.4 C2.5,0.3 3.4,-3.2 3.5,-3.5 C3.6,-3.9 4.5,-7.7 8.1,-13.6 C12,-20.1 18,-24.8 23,-31.8 C28,-38.8 30.9,-45.4 30.9,-54.2 C30.9,-63.3 28.9,-70.9 23.5,-80.6 C23.2,-81.3 22.6,-81.7 22,-81.7 C21.8,-81.7 21.6,-81.7 21.5,-81.6 C21,-81.4 20.8,-81 20.8,-80.4 C20.8,-80.1 20.9,-79.7 21.1,-79.2 C25.1,-69.9 26.7,-64.6 26.7,-57.4 C26.7,-49.1 23.8,-44.8 22,-41.7 C15.5,-30.6 5,-25.2 0.8,-23.8 C0.1,-23.6 0,-23 0,-22.7 L0,-0.1 "/>
<path class="Lyrics" d="M1567.34,868.256 L1563.59,868.256 L1563.59,911.956 L1567.34,911.956 L1567.34,889.056 L1574.39,889.056 L1574.39,885.856 L1567.34,885.856 L1567.34,868.256 M1559.74,896.856 C1553.89,897.956 1546.14,898.406 1539.19,898.356 L1539.19,887.806 L1555.49,887.806 L1555.49,872.306 L1535.29,872.306 L1535.29,875.456 L1551.69,875.456 L1551.69,884.656 L1535.39,884.656 L1535.39,901.556 L1539.09,901.556 C1546.24,901.556 1555.34,900.906 1560.24,899.906 L1559.74,896.856 "/>
<path class="Lyrics" d="M1450.99,868.256 L1447.24,868.256 L1447.24,911.956 L1450.99,911.956 L1450.99,889.056 L1458.04,889.056 L1458.04,885.856 L1450.99,885.856 L1450.99,868.256 M1443.39,896.856 C1437.54,897.956 1429.79,898.406 1422.84,898.356 L1422.84,887.806 L1439.14,887.806 L1439.14,872.306 L1418.94,872.306 L1418.94,875.456 L1435.34,875.456 L1435.34,884.656 L1419.04,884.656 L1419.04,901.556 L1422.74,901.556 C1429.89,901.556 1438.99,900.906 1443.89,899.906 L1443.39,896.856 "/>
<path class="Lyrics" d="M1393.5,868.256 L1389.75,868.256 L1389.75,911.956 L1393.5,911.956 L1393.5,889.056 L1400.55,889.056 L1400.55,885.856 L1393.5,885.856 L1393.5,868.256 M1385.9,896.856 C1380.05,897.956 1372.3,898.406 1365.35,898.356 L1365.35,887.806 L1381.65,887.806 L1381.65,872.306 L1361.45,872.306 L1361.45,875.456 L1377.85,875.456 L1377.85,884.656 L1361.55,884.656 L1361.55,901.556 L1365.25,901.556 C1372.4,901.556 1381.5,900.906 1386.4,899.906 L1385.9,896.856 "/>
<path class="Lyrics" d="M1676.66,868.256 L1672.91,868.256 L1672.91,911.956 L1676.66,911.956 L1676.66,889.056 L1683.71,889.056 L1683.71,885.856 L1676.66,885.856 L1676.66,868.256 M1669.06,896.856 C1663.21,897.956 1655.46,898.406 1648.51,898.356 L1648.51,887.806 L1664.81,887.806 L1664.81,872.306 L1644.61,872.306 L1644.61,875.456 L1661.01,875.456 L1661.01,884.656 L1644.71,884.656 L1644.71,901.556 L1648.41,901.556 C1655.56,901.556 1664.66,900.906 1669.56,899.906 L1669.06,896.856 "/>
<path class="Lyrics" d="M305.689,484.41 L305.689,481.21 L298.589,481.21 L298.589,462.76 L294.789,462.76 L294.789,506.46 L298.589,506.46 L298.589,484.41 L305.689,484.41 M284.139,469.01 L284.139,465.76 L271.289,465.76 L271.289,469.01 L284.139,469.01 M290.589,476.41 L290.589,473.26 L264.789,473.26 L264.789,476.41 L290.589,476.41 M287.989,488.26 C287.989,483.11 283.889,479.21 277.789,479.21 C271.689,479.21 267.589,483.16 267.589,488.26 C267.589,493.36 271.689,497.26 277.789,497.26 C283.889,497.26 287.989,493.31 287.989,488.26 M284.189,488.26 C284.189,491.66 281.539,494.11 277.789,494.11 C274.139,494.11 271.389,491.66 271.389,488.26 C271.389,484.81 274.139,482.41 277.789,482.41 C281.489,482.41 284.189,484.81 284.189,488.26"/>
<path class="Lyrics" d="M1336.01,868.256 L1332.26,868.256 L1332.26,911.956 L1336.01,911.956 L1336.01,889.056 L1343.06,889.056 L1343.06,885.856 L1336.01,885.856 L1336.01,868.256 M1328.41,896.856 C1322.56,897.956 1314.81,898.406 1307.86,898.356 L1307.86,887.806 L1324.16,887.806 L1324.16,872.306 L1303.96,872.306 L1303.96,875.456 L1320.36,875.456 L1320.36,884.656 L1304.06,884.656 L1304.06,901.556 L1307.76,901.556 C1314.91,901.556 1324.01,900.906 1328.91,899.906 L1328.41,896.856 "/>
<path class="Lyrics" d="M1278.52,868.256 L1274.77,868.256 L1274.77,911.956 L1278.52,911.956 L1278.52,889.056 L1285.57,889.056 L1285.57,885.856 L1278.52,885.856 L1278.52,868.256 M1270.92,896.856 C1265.07,897.956 1257.32,898.406 1250.37,898.356 L1250.37,887.806 L1266.67,887.806 L1266.67,872.306 L1246.47,872.306 L1246.47,875.456 L1262.87,875.456 L1262.87,884.656 L1246.57,884.656 L1246.57,901.556 L1250.27,901.556 C1257.42,901.556 1266.52,900.906 1271.42,899.906 L1270.92,896.856 "/>
<path class="Lyrics" d="M1785.98,868.256 L1782.23,868.256 L1782.23,911.956 L1785.98,911.956 L1785.98,889.056 L1793.03,889.056 L1793.03,885.856 L1785.98,885.856 L1785.98,868.256 M1778.38,896.856 C1772.53,897.956 1764.78,898.406 1757.83,898.356 L1757.83,887.806 L1774.13,887.806 L1774.13,872.306 L1753.93,872.306 L1753.93,875.456 L1770.33,875.456 L1770.33,884.656 L1754.03,884.656 L1754.03,901.556 L1757.73,901.556 C1764.88,901.556 1773.98,900.906 1778.88,899.906 L1778.38,896.856 "/>
<path class="Lyrics" d="M403.319,506.46 L403.319,462.76 L399.469,462.76 L399.469,506.46 L403.319,506.46 M393.919,493.06 C387.869,489.46 382.569,482.31 382.569,474.31 L382.569,466.56 L378.719,466.56 L378.719,474.46 C378.719,482.21 373.469,490.16 367.069,494.16 L369.569,497.01 C374.619,493.41 379.119,488.06 380.719,482.61 C382.419,487.86 387.569,493.26 391.519,495.96 L393.919,493.06 "/>
<path class="Lyrics" d="M1192.28,868.256 L1188.53,868.256 L1188.53,911.956 L1192.28,911.956 L1192.28,889.056 L1199.33,889.056 L1199.33,885.856 L1192.28,885.856 L1192.28,868.256 M1184.68,896.856 C1178.83,897.956 1171.08,898.406 1164.13,898.356 L1164.13,887.806 L1180.43,887.806 L1180.43,872.306 L1160.23,872.306 L1160.23,875.456 L1176.63,875.456 L1176.63,884.656 L1160.33,884.656 L1160.33,901.556 L1164.03,901.556 C1171.18,901.556 1180.28,900.906 1185.18,899.906 L1184.68,896.856 "/>
<path class="Lyrics" d="M1144.51,868.256 L1140.76,868.256 L1140.76,911.956 L1144.51,911.956 L1144.51,889.056 L1151.56,889.056 L1151.56,885.856 L1144.51,885.856 L1144.51,868.256 M1136.91,896.856 C1131.06,897.956 1123.31,898.406 1116.36,898.356 L1116.36,887.806 L1132.66,887.806 L1132.66,872.306 L1112.46,872.306 L1112.46,875.456 L1128.86,875.456 L1128.86,884.656 L1112.56,884.656 L1112.56,901.556 L1116.26,901.556 C1123.41,901.556 1132.51,900.906 1137.41,899.906 L1136.91,896.856 "/>
<path class="Lyrics" d="M1096.73,868.256 L1092.98,868.256 L1092.98,911.956 L1096.73,911.956 L1096.73,889.056 L1103.78,889.056 L1103.78,885.856 L1096.73,885.856 L1096.73,868.256 M1089.13,896.856 C1083.28,897.956 1075.53,898.406 1068.58,898.356 L1068.58,887.806 L1084.88,887.806 L1084.88,872.306 L1064.68,872.306 L1064.68,875.456 L1081.08,875.456 L1081.08,884.656 L1064.78,884.656 L1064.78,901.556 L1068.48,901.556 C1075.63,901.556 1084.73,900.906 1089.63,899.906 L1089.13,896.856 "/>
<path class="Lyrics" d="M1900.5,903.756 C1900.5,898.556 1895.15,895.406 1885.6,895.406 C1876.1,895.406 1870.75,898.556 1870.75,903.756 C1870.75,908.806 1876.1,912.056 1885.6,912.056 C1895.15,912.056 1900.5,908.806 1900.5,903.756 M1888.7,888.156 L1896.65,888.156 L1896.65,895.306 L1900.45,895.306 L1900.45,868.256 L1896.65,868.256 L1896.65,874.056 L1888.7,874.056 L1888.7,877.306 L1896.65,877.306 L1896.65,884.906 L1888.7,884.906 L1888.7,888.156 M1896.6,903.756 C1896.6,906.956 1892.55,908.806 1885.6,908.806 C1878.8,908.806 1874.7,906.956 1874.7,903.756 C1874.7,900.506 1878.8,898.606 1885.6,898.606 C1892.55,898.606 1896.6,900.506 1896.6,903.756 M1876.35,870.906 C1870.2,870.906 1865.1,875.106 1865.1,881.406 C1865.1,887.756 1870.25,891.756 1876.35,891.756 C1882.5,891.756 1887.55,887.756 1887.55,881.356 C1887.55,875.006 1882.5,870.906 1876.35,870.906 M1876.35,874.156 C1880.85,874.156 1883.75,877.056 1883.75,881.406 C1883.75,885.806 1880.8,888.656 1876.35,888.656 C1872.05,888.656 1868.9,885.806 1868.9,881.356 C1868.9,877.006 1872.05,874.156 1876.35,874.156"/>
<path class="Lyrics" d="M504.895,500.16 L504.895,496.96 L484.295,496.96 L484.295,481.16 L480.495,481.16 L480.495,496.96 L465.445,496.96 L465.445,500.16 L504.895,500.16 M499.595,467.31 L469.495,467.31 L469.495,470.51 L495.645,470.51 L495.645,474.76 C495.645,480.51 495.095,487.11 494.095,491.21 L497.845,491.81 C499.145,486.26 499.545,479.46 499.595,472.81 L499.595,467.31 "/>
<path class="Lyrics" d="M594.253,493.96 C588.203,490.66 582.653,483.71 582.653,475.56 L582.653,470.56 L592.703,470.56 L592.703,467.36 L568.453,467.36 L568.453,470.56 L578.703,470.56 L578.703,475.66 C578.703,483.56 573.403,491.16 566.953,494.96 L569.503,497.81 C574.703,494.21 579.253,488.81 580.703,483.51 C582.403,488.71 587.753,494.26 591.903,496.96 L594.253,493.96 M599.503,481.76 L599.503,506.46 L603.303,506.46 L603.303,462.76 L599.503,462.76 L599.503,478.51 L590.353,478.51 L590.353,481.76 L599.503,481.76 "/>
<path class="Lyrics" d="M953.007,868.256 L949.257,868.256 L949.257,911.956 L953.007,911.956 L953.007,889.056 L960.057,889.056 L960.057,885.856 L953.007,885.856 L953.007,868.256 M945.407,896.856 C939.557,897.956 931.807,898.406 924.857,898.356 L924.857,887.806 L941.157,887.806 L941.157,872.306 L920.957,872.306 L920.957,875.456 L937.357,875.456 L937.357,884.656 L921.057,884.656 L921.057,901.556 L924.757,901.556 C931.907,901.556 941.007,900.906 945.907,899.906 L945.407,896.856 "/>
<path class="Lyrics" d="M667.038,506.46 L667.038,462.76 L663.288,462.76 L663.288,506.46 L667.038,506.46 M652.188,468.26 L652.188,465.01 L639.438,465.01 L639.438,468.26 L652.188,468.26 M658.788,474.81 L658.788,471.66 L632.838,471.66 L632.838,474.81 L658.788,474.81 M656.088,484.21 C656.088,479.66 651.938,476.86 645.838,476.86 C639.688,476.86 635.488,479.71 635.488,484.21 C635.488,488.66 639.688,491.61 645.838,491.61 C651.938,491.61 656.088,488.71 656.088,484.21 M652.238,484.21 C652.238,486.81 649.638,488.51 645.838,488.51 C642.038,488.51 639.338,486.81 639.338,484.21 C639.338,481.61 642.038,479.96 645.838,479.96 C649.638,479.96 652.238,481.61 652.238,484.21 M660.938,497.16 L660.588,494.01 C657.238,494.46 651.238,494.86 645.238,495.11 C640.288,495.31 635.138,495.31 631.388,495.26 L632.038,498.56 C635.988,498.56 640.638,498.56 645.438,498.31 C651.038,498.01 657.788,497.56 660.938,497.16"/>
<path class="Lyrics" d="M1983.3,903.656 C1983.3,898.656 1977.45,895.856 1968.75,895.856 C1960.15,895.856 1954.4,898.556 1954.4,903.656 C1954.4,908.706 1960.05,911.406 1968.85,911.406 C1977.55,911.406 1983.3,908.706 1983.3,903.656 M1968.85,898.956 C1975.2,898.956 1979.35,900.656 1979.35,903.656 C1979.35,906.706 1975.3,908.306 1968.85,908.306 C1962.55,908.306 1958.35,906.606 1958.35,903.656 C1958.35,900.756 1962.5,898.956 1968.85,898.956 M1989.5,883.756 L1989.5,880.556 L1982.9,880.556 L1982.9,868.256 L1979.05,868.256 L1979.05,895.906 L1982.9,895.906 L1982.9,883.756 L1989.5,883.756 M1976.35,891.006 L1975.95,887.906 C1972.35,888.456 1966.95,888.956 1961.75,889.156 L1961.75,880.356 L1957.95,880.356 L1957.95,889.206 C1954.75,889.256 1950.95,889.256 1948.55,889.256 L1949.1,892.656 C1952.65,892.656 1957.8,892.506 1962.3,892.306 C1966.45,892.106 1972.65,891.556 1976.35,891.006 M1972.5,870.906 L1951.35,870.906 L1951.35,874.056 L1968.6,874.056 C1968.6,878.056 1968.1,882.256 1967.5,884.756 L1971.25,885.256 C1972,882.106 1972.5,877.056 1972.5,870.906"/>
<path class="Lyrics" d="M866.772,868.256 L863.022,868.256 L863.022,911.956 L866.772,911.956 L866.772,889.056 L873.822,889.056 L873.822,885.856 L866.772,885.856 L866.772,868.256 M859.172,896.856 C853.322,897.956 845.572,898.406 838.622,898.356 L838.622,887.806 L854.922,887.806 L854.922,872.306 L834.722,872.306 L834.722,875.456 L851.122,875.456 L851.122,884.656 L834.822,884.656 L834.822,901.556 L838.522,901.556 C845.672,901.556 854.772,900.906 859.672,899.906 L859.172,896.856 "/>
<path class="Lyrics" d="M750.421,868.256 L746.671,868.256 L746.671,911.956 L750.421,911.956 L750.421,889.056 L757.471,889.056 L757.471,885.856 L750.421,885.856 L750.421,868.256 M742.821,896.856 C736.971,897.956 729.221,898.406 722.271,898.356 L722.271,887.806 L738.571,887.806 L738.571,872.306 L718.371,872.306 L718.371,875.456 L734.771,875.456 L734.771,884.656 L718.471,884.656 L718.471,901.556 L722.171,901.556 C729.321,901.556 738.421,900.906 743.321,899.906 L742.821,896.856 "/>
<path class="Lyrics" d="M683.174,868.256 L679.424,868.256 L679.424,911.956 L683.174,911.956 L683.174,889.056 L690.224,889.056 L690.224,885.856 L683.174,885.856 L683.174,868.256 M675.574,896.856 C669.724,897.956 661.974,898.406 655.024,898.356 L655.024,887.806 L671.324,887.806 L671.324,872.306 L651.124,872.306 L651.124,875.456 L667.524,875.456 L667.524,884.656 L651.224,884.656 L651.224,901.556 L654.924,901.556 C662.074,901.556 671.174,900.906 676.074,899.906 L675.574,896.856 "/>
<path class="Lyrics" d="M721.509,486.06 L721.509,483.11 L682.059,483.11 L682.059,486.06 L721.509,486.06 M718.209,505.66 L718.209,502.66 L690.409,502.66 L690.409,498.66 L716.859,498.66 L716.859,489.51 L686.659,489.51 L686.659,492.31 L713.059,492.31 L713.059,495.96 L686.609,495.96 L686.609,505.66 L718.209,505.66 M717.459,479.66 L717.459,476.81 L690.859,476.81 L690.859,473.36 L716.609,473.36 L716.609,464.21 L687.009,464.21 L687.009,467.21 L712.809,467.21 L712.809,470.61 L687.059,470.61 L687.059,479.66 L717.459,479.66 "/>
<path class="Lyrics" d="M625.683,868.256 L621.933,868.256 L621.933,911.956 L625.683,911.956 L625.683,889.056 L632.733,889.056 L632.733,885.856 L625.683,885.856 L625.683,868.256 M618.083,896.856 C612.233,897.956 604.483,898.406 597.533,898.356 L597.533,887.806 L613.833,887.806 L613.833,872.306 L593.633,872.306 L593.633,875.456 L610.033,875.456 L610.033,884.656 L593.733,884.656 L593.733,901.556 L597.433,901.556 C604.583,901.556 613.683,900.906 618.583,899.906 L618.083,896.856 "/>
<path class="Lyrics" d="M521.977,911.956 L521.977,868.256 L518.177,868.256 L518.177,883.856 L507.977,883.856 L507.977,887.056 L518.177,887.056 L518.177,911.956 L521.977,911.956 M512.277,898.606 C506.277,895.106 501.077,888.006 501.077,880.006 L501.077,872.056 L497.127,872.056 L497.127,880.156 C497.127,887.906 492.077,895.656 485.727,899.656 L488.227,902.506 C493.277,898.856 497.577,893.456 499.127,888.006 C500.877,893.256 505.927,898.806 509.927,901.506 L512.277,898.606 "/>
<path class="Lyrics" d="M412.724,889.856 C405.524,888.456 396.524,882.156 396.524,874.656 L396.524,871.506 L392.574,871.506 L392.574,874.656 C392.574,882.156 384.074,888.406 376.424,889.856 L378.424,892.906 C386.074,890.806 392.824,885.406 394.474,880.406 C396.374,885.306 402.974,890.756 410.624,892.906 L412.724,889.856 M414.274,906.406 L414.274,903.206 L396.374,903.206 L396.374,892.006 L392.574,892.006 L392.574,903.206 L374.824,903.206 L374.824,906.406 L414.274,906.406 "/>
<path class="Lyrics" d="M305.689,889.906 L305.689,886.706 L298.589,886.706 L298.589,868.256 L294.789,868.256 L294.789,911.956 L298.589,911.956 L298.589,889.906 L305.689,889.906 M284.139,874.506 L284.139,871.256 L271.289,871.256 L271.289,874.506 L284.139,874.506 M290.589,881.906 L290.589,878.756 L264.789,878.756 L264.789,881.906 L290.589,881.906 M287.989,893.756 C287.989,888.606 283.889,884.706 277.789,884.706 C271.689,884.706 267.589,888.656 267.589,893.756 C267.589,898.856 271.689,902.756 277.789,902.756 C283.889,902.756 287.989,898.806 287.989,893.756 M284.189,893.756 C284.189,897.156 281.539,899.606 277.789,899.606 C274.139,899.606 271.389,897.156 271.389,893.756 C271.389,890.306 274.139,887.906 277.789,887.906 C281.489,887.906 284.189,890.306 284.189,893.756"/>
<path class="Lyrics" d="M1969.82,466.01 L1940.17,466.01 L1940.17,469.16 L1965.87,469.16 C1965.87,473.46 1965.62,480.66 1964.42,485.36 L1935.52,485.36 L1935.52,488.56 L1953.32,488.56 L1953.32,506.46 L1957.12,506.46 L1957.12,488.56 L1974.97,488.56 L1974.97,485.36 L1968.22,485.36 C1969.67,478.61 1969.82,471.96 1969.82,466.01"/>
<path class="Lyrics" d="M299.293,1240.8 L299.293,1197.1 L295.493,1197.1 L295.493,1240.8 L299.293,1240.8 M264.793,1215.8 C264.793,1225.1 268.893,1231.3 276.043,1231.3 C283.293,1231.3 287.343,1225.1 287.343,1215.85 C287.343,1206.6 283.293,1200.4 276.043,1200.4 C268.893,1200.4 264.793,1206.6 264.793,1215.8 M283.743,1215.85 C283.743,1223 280.693,1228 276.043,1228 C271.443,1228 268.393,1223 268.393,1215.85 C268.393,1208.65 271.443,1203.7 276.043,1203.7 C280.693,1203.7 283.743,1208.65 283.743,1215.85"/>
<path class="Lyrics" d="M1846.63,506.46 L1846.63,462.76 L1842.83,462.76 L1842.83,478.36 L1832.63,478.36 L1832.63,481.56 L1842.83,481.56 L1842.83,506.46 L1846.63,506.46 M1836.93,493.11 C1830.93,489.61 1825.73,482.51 1825.73,474.51 L1825.73,466.56 L1821.78,466.56 L1821.78,474.66 C1821.78,482.41 1816.73,490.16 1810.38,494.16 L1812.88,497.01 C1817.93,493.36 1822.23,487.96 1823.78,482.51 C1825.53,487.76 1830.58,493.31 1834.58,496.01 L1836.93,493.11 "/>
<path class="Lyrics" d="M1113.04,1220.8 L1113.04,1212.55 L1118.64,1212.55 L1118.64,1228.5 L1122.34,1228.5 L1122.34,1198 L1118.64,1198 L1118.64,1209.4 L1113.04,1209.4 L1113.04,1200.9 L1095.59,1200.9 L1095.59,1220.8 L1113.04,1220.8 M1109.34,1217.7 L1099.29,1217.7 L1099.29,1204 L1109.34,1204 L1109.34,1217.7 M1131.74,1239.4 L1131.74,1236.2 L1105.69,1236.2 L1105.69,1225.85 L1101.89,1225.85 L1101.89,1239.4 L1131.74,1239.4 M1130.59,1229.7 L1130.59,1197.1 L1126.79,1197.1 L1126.79,1229.7 L1130.59,1229.7 "/>
<path class="Lyrics" d="M1137.19,1223.4 L1137.19,1227.55 L1149.64,1227.55 L1149.64,1223.4 L1137.19,1223.4 "/>
<path class="Lyrics" d="M1755.98,466.56 C1749.63,466.56 1746.38,472.76 1746.38,481.51 C1746.38,490.31 1749.63,496.46 1755.98,496.46 C1761.98,496.46 1765.18,491.11 1765.58,483.21 L1770.28,483.21 L1770.28,504.36 L1773.98,504.36 L1773.98,463.61 L1770.28,463.61 L1770.28,480.06 L1765.58,480.06 C1765.28,472.11 1762.03,466.56 1755.98,466.56 M1761.83,481.51 C1761.83,488.61 1759.53,493.11 1755.98,493.11 C1752.48,493.11 1750.23,488.61 1750.23,481.51 C1750.23,474.46 1752.48,469.91 1755.98,469.91 C1759.53,469.91 1761.83,474.46 1761.83,481.51 M1782.53,506.46 L1782.53,462.76 L1778.78,462.76 L1778.78,506.46 L1782.53,506.46 "/>
<path class="Lyrics" d="M554.13,1217.9 L554.13,1214.7 L546.98,1214.7 L546.98,1197.1 L543.18,1197.1 L543.18,1240.8 L546.98,1240.8 L546.98,1217.9 L554.13,1217.9 M513.98,1215.8 C513.98,1225.1 518.08,1231.3 525.18,1231.3 C532.28,1231.3 536.33,1225.1 536.33,1215.85 C536.33,1206.6 532.28,1200.4 525.18,1200.4 C518.08,1200.4 513.98,1206.6 513.98,1215.8 M532.63,1215.85 C532.63,1223 529.73,1228 525.18,1228 C520.63,1228 517.68,1223 517.68,1215.85 C517.68,1208.65 520.63,1203.7 525.18,1203.7 C529.73,1203.7 532.63,1208.65 532.63,1215.85"/>
<path class="Lyrics" d="M833.66,474.26 C833.66,468.56 827.81,464.76 818.11,464.76 C808.46,464.76 802.61,468.56 802.61,474.26 C802.61,479.91 808.46,483.71 818.11,483.71 C827.81,483.71 833.66,479.86 833.66,474.26 M812.41,506.46 L812.41,490.96 L823.71,490.96 L823.71,506.46 L827.51,506.46 L827.51,490.96 L837.86,490.96 L837.86,487.76 L798.41,487.76 L798.41,490.96 L808.61,490.96 L808.61,506.46 L812.41,506.46 M818.11,468.11 C825.46,468.11 829.91,470.51 829.91,474.26 C829.91,477.96 825.46,480.36 818.11,480.36 C810.86,480.36 806.36,477.96 806.36,474.26 C806.36,470.51 810.86,468.11 818.11,468.11"/>
<path class="Lyrics" d="M1737.7,477.51 L1737.7,474.31 L1731.05,474.31 L1731.05,462.76 L1727.25,462.76 L1727.25,488.46 L1731.05,488.46 L1731.05,477.51 L1737.7,477.51 M1709.25,465.16 C1703,465.16 1697.9,469.36 1697.9,475.71 C1697.9,482.11 1703,486.06 1709.25,486.06 C1715.45,486.06 1720.55,482.11 1720.55,475.66 C1720.55,469.36 1715.45,465.16 1709.25,465.16 M1709.25,468.26 C1713.85,468.26 1716.9,471.36 1716.9,475.71 C1716.9,480.01 1713.8,482.96 1709.25,482.96 C1704.85,482.96 1701.6,480.01 1701.6,475.66 C1701.6,471.36 1704.85,468.26 1709.25,468.26 M1731.1,506.46 L1731.1,490.76 L1702.9,490.76 L1702.9,493.91 L1727.25,493.91 L1727.25,506.46 L1731.1,506.46 "/>
<path class="Lyrics" d="M883.934,478.71 C883.934,474.81 879.184,472.76 870.734,472.76 C862.284,472.76 857.584,474.81 857.584,478.71 C857.584,482.31 861.534,484.36 868.734,484.66 L868.734,488.16 L850.984,488.16 L850.984,491.31 L890.434,491.31 L890.434,488.16 L872.534,488.16 L872.534,484.66 C879.834,484.41 883.934,482.31 883.934,478.71 M855.484,494.26 L855.484,497.41 L881.584,497.41 L881.584,506.76 L885.384,506.76 L885.384,494.26 L855.484,494.26 M887.984,471.21 L887.984,468.11 L853.434,468.11 L853.434,471.21 L887.984,471.21 M879.984,478.71 C879.984,480.86 876.084,481.66 870.734,481.66 C865.434,481.66 861.484,480.86 861.484,478.71 C861.484,476.56 865.434,475.76 870.734,475.76 C876.084,475.76 879.984,476.56 879.984,478.71 M878.384,465.96 L878.384,462.81 L863.334,462.81 L863.334,465.96 L878.384,465.96 "/>
<path class="Lyrics" d="M616.182,1223.4 L616.182,1227.55 L628.632,1227.55 L628.632,1223.4 L616.182,1223.4 "/>
<path class="Lyrics" d="M1558.69,500.16 L1558.69,496.96 L1538.09,496.96 L1538.09,481.16 L1534.29,481.16 L1534.29,496.96 L1519.24,496.96 L1519.24,500.16 L1558.69,500.16 M1553.39,467.31 L1523.29,467.31 L1523.29,470.51 L1549.44,470.51 L1549.44,474.76 C1549.44,480.51 1548.89,487.11 1547.89,491.21 L1551.64,491.81 C1552.94,486.26 1553.34,479.46 1553.39,472.81 L1553.39,467.31 "/>
<path class="Lyrics" d="M1440.74,506.46 L1440.74,462.76 L1436.89,462.76 L1436.89,506.46 L1440.74,506.46 M1431.34,493.06 C1425.29,489.46 1419.99,482.31 1419.99,474.31 L1419.99,466.56 L1416.14,466.56 L1416.14,474.46 C1416.14,482.21 1410.89,490.16 1404.49,494.16 L1406.99,497.01 C1412.04,493.41 1416.54,488.06 1418.14,482.61 C1419.84,487.86 1424.99,493.26 1428.94,495.96 L1431.34,493.06 "/>
<path class="Lyrics" d="M926.306,466.56 C919.956,466.56 916.706,472.76 916.706,481.51 C916.706,490.31 919.956,496.46 926.306,496.46 C932.306,496.46 935.506,491.11 935.906,483.21 L940.606,483.21 L940.606,504.36 L944.306,504.36 L944.306,463.61 L940.606,463.61 L940.606,480.06 L935.906,480.06 C935.606,472.11 932.356,466.56 926.306,466.56 M932.156,481.51 C932.156,488.61 929.856,493.11 926.306,493.11 C922.806,493.11 920.556,488.61 920.556,481.51 C920.556,474.46 922.806,469.91 926.306,469.91 C929.856,469.91 932.156,474.46 932.156,481.51 M952.856,506.46 L952.856,462.76 L949.106,462.76 L949.106,506.46 L952.856,506.46 "/>
<path class="Lyrics" d="M704.535,1223.4 L704.535,1227.55 L716.985,1227.55 L716.985,1223.4 L704.535,1223.4 "/>
<path class="Lyrics" d="M1323.26,484.41 L1323.26,481.21 L1316.16,481.21 L1316.16,462.76 L1312.36,462.76 L1312.36,506.46 L1316.16,506.46 L1316.16,484.41 L1323.26,484.41 M1301.71,469.01 L1301.71,465.76 L1288.86,465.76 L1288.86,469.01 L1301.71,469.01 M1308.16,476.41 L1308.16,473.26 L1282.36,473.26 L1282.36,476.41 L1308.16,476.41 M1305.56,488.26 C1305.56,483.11 1301.46,479.21 1295.36,479.21 C1289.26,479.21 1285.16,483.16 1285.16,488.26 C1285.16,493.36 1289.26,497.26 1295.36,497.26 C1301.46,497.26 1305.56,493.31 1305.56,488.26 M1301.76,488.26 C1301.76,491.66 1299.11,494.11 1295.36,494.11 C1291.71,494.11 1288.96,491.66 1288.96,488.26 C1288.96,484.81 1291.71,482.41 1295.36,482.41 C1299.06,482.41 1301.76,484.81 1301.76,488.26"/>
<path class="Lyrics" d="M1268.88,506.46 L1268.88,462.76 L1265.13,462.76 L1265.13,506.46 L1268.88,506.46 M1260.38,504.26 L1260.38,463.81 L1256.73,463.81 L1256.73,479.76 L1249.38,479.76 L1249.38,482.96 L1256.73,482.96 L1256.73,504.26 L1260.38,504.26 M1250.48,467.86 L1233.28,467.86 L1233.28,471.06 L1246.58,471.06 C1246.13,479.96 1240.73,489.16 1231.58,494.31 L1234.18,497.11 C1244.48,490.46 1250.18,480.86 1250.48,467.86"/>
<path class="Lyrics" d="M969.594,1223.4 L969.594,1227.55 L982.044,1227.55 L982.044,1223.4 L969.594,1223.4 "/>
<path class="Lyrics" d="M792.888,1223.4 L792.888,1227.55 L805.338,1227.55 L805.338,1223.4 L792.888,1223.4 "/>
<path class="Lyrics" d="M1000.8,462.76 L997.153,462.76 L997.153,506.46 L1000.8,506.46 L1000.8,483.06 L1007.05,483.06 L1007.05,479.86 L1000.8,479.86 L1000.8,462.76 M978.903,495.66 L978.903,466.91 L975.553,466.91 L975.553,478.21 L971.003,478.21 L971.003,466.91 L967.653,466.91 L967.653,495.66 L978.903,495.66 M975.553,492.51 L971.003,492.51 L971.003,481.36 L975.553,481.36 L975.553,492.51 M993.203,495.66 L993.203,466.91 L989.803,466.91 L989.803,478.21 L985.303,478.21 L985.303,466.91 L981.953,466.91 L981.953,495.66 L993.203,495.66 M989.803,492.51 L985.303,492.51 L985.303,481.36 L989.803,481.36 L989.803,492.51 "/>
<path class="Lyrics" d="M1164.97,475.96 L1164.97,472.76 L1158.32,472.76 L1158.32,462.76 L1154.52,462.76 L1154.52,483.71 L1158.32,483.71 L1158.32,475.96 L1164.97,475.96 M1156.77,488.76 L1156.77,485.66 L1146.72,485.66 L1146.72,488.76 L1156.77,488.76 M1162.52,493.91 L1162.52,490.86 L1140.67,490.86 L1140.67,493.91 L1162.52,493.91 M1159.82,501.11 C1159.82,497.46 1156.12,495.26 1151.52,495.26 C1147.02,495.26 1143.32,497.46 1143.32,501.11 C1143.32,504.66 1147.02,507.01 1151.52,507.01 C1156.12,507.01 1159.82,504.66 1159.82,501.11 M1156.12,501.11 C1156.12,502.86 1154.07,504.01 1151.52,504.01 C1149.07,504.01 1147.02,502.86 1147.02,501.11 C1147.02,499.41 1149.07,498.26 1151.52,498.26 C1154.07,498.26 1156.12,499.36 1156.12,501.11 M1141.92,503.61 L1141.27,500.51 C1138.87,501.26 1134.92,502.01 1132.47,501.96 L1132.47,489.51 L1128.72,489.51 L1128.72,505.26 C1134.27,505.31 1138.82,504.51 1141.92,503.61 M1136.52,464.91 C1130.27,464.91 1125.17,469.06 1125.17,475.26 C1125.17,481.51 1130.27,485.46 1136.52,485.46 C1142.72,485.46 1147.82,481.51 1147.82,475.21 C1147.82,469.06 1142.72,464.91 1136.52,464.91 M1136.52,468.16 C1141.12,468.16 1144.17,471.16 1144.17,475.26 C1144.17,479.41 1141.07,482.21 1136.52,482.21 C1132.12,482.21 1128.87,479.41 1128.87,475.21 C1128.87,471.16 1132.12,468.16 1136.52,468.16"/>
<path class="Lyrics" d="M1101.64,493.21 C1095.64,489.96 1090.09,482.91 1090.09,474.76 L1090.09,470.31 L1100.29,470.31 L1100.29,467.16 L1075.94,467.16 L1075.94,470.31 L1086.14,470.31 L1086.14,474.81 C1086.14,483.06 1080.89,490.51 1074.49,494.26 L1076.84,497.06 C1081.89,493.81 1086.69,488.21 1088.14,482.76 C1089.64,487.91 1095.19,493.41 1099.29,496.06 L1101.64,493.21 M1106.69,462.76 L1106.69,506.46 L1110.49,506.46 L1110.49,462.76 L1106.69,462.76 "/>
<path class="Lyrics" d="M1049.06,493.21 C1043.06,489.96 1037.51,482.91 1037.51,474.76 L1037.51,470.31 L1047.71,470.31 L1047.71,467.16 L1023.36,467.16 L1023.36,470.31 L1033.56,470.31 L1033.56,474.81 C1033.56,483.06 1028.31,490.51 1021.91,494.26 L1024.26,497.06 C1029.31,493.81 1034.11,488.21 1035.56,482.76 C1037.06,487.91 1042.61,493.41 1046.71,496.06 L1049.06,493.21 M1054.11,462.76 L1054.11,506.46 L1057.91,506.46 L1057.91,462.76 L1054.11,462.76 "/>
<path class="Lyrics" d="M881.241,1223.4 L881.241,1227.55 L893.691,1227.55 L893.691,1223.4 L881.241,1223.4 "/>
<path class="Tuplet" d="M1027.75,420.92 C1029.87,420.245 1030.72,419.885 1031.8,419.165 C1033.92,417.77 1035.22,415.295 1035.22,412.775 C1035.22,408.5 1031.8,405.62 1026.76,405.62 C1021.86,405.62 1017.72,408.68 1017.72,412.37 C1017.72,414.215 1018.84,415.475 1020.55,415.475 C1022.04,415.475 1023.12,414.395 1023.12,412.91 C1023.12,412.145 1022.89,411.605 1022.17,410.885 C1021.72,410.48 1021.54,410.165 1021.54,409.85 C1021.54,408.77 1023.79,407.645 1025.91,407.645 C1028.92,407.645 1030.72,409.31 1030.72,412.1 C1030.72,416.105 1027.89,419.885 1024.87,419.885 C1024.74,419.885 1024.33,419.84 1023.84,419.795 C1022.53,419.705 1022.53,419.705 1022.26,419.705 C1021.27,419.705 1020.73,420.155 1020.73,420.965 C1020.73,421.685 1021.23,422.135 1022.04,422.135 C1022.26,422.135 1022.58,422.09 1022.94,422.045 C1023.57,421.91 1024.24,421.865 1024.65,421.865 C1026.76,421.865 1028.2,423.755 1028.2,426.545 C1028.2,431.405 1025.82,436.085 1020.37,436.085 C1017.85,436.085 1015.69,434.825 1015.69,433.385 C1015.69,432.89 1015.87,432.71 1016.59,432.395 C1017.9,431.81 1018.44,431 1018.44,429.785 C1018.44,428.21 1017.18,426.995 1015.56,426.995 C1013.62,426.995 1012.36,428.525 1012.36,430.865 C1012.36,435.23 1015.69,437.975 1021.09,437.975 C1027.89,437.975 1033.06,433.43 1033.06,427.4 C1033.06,423.89 1030.9,421.91 1027.75,420.92"/>
<path class="Tuplet" d="M905.046,970.757 C907.161,970.082 908.016,969.722 909.096,969.002 C911.211,967.607 912.516,965.132 912.516,962.612 C912.516,958.337 909.096,955.457 904.056,955.457 C899.151,955.457 895.011,958.517 895.011,962.207 C895.011,964.052 896.136,965.312 897.846,965.312 C899.331,965.312 900.411,964.232 900.411,962.747 C900.411,961.982 900.186,961.442 899.466,960.722 C899.016,960.317 898.836,960.002 898.836,959.687 C898.836,958.607 901.086,957.482 903.201,957.482 C906.216,957.482 908.016,959.147 908.016,961.937 C908.016,965.942 905.181,969.722 902.166,969.722 C902.031,969.722 901.626,969.677 901.131,969.632 C899.826,969.542 899.826,969.542 899.556,969.542 C898.566,969.542 898.026,969.992 898.026,970.802 C898.026,971.522 898.521,971.972 899.331,971.972 C899.556,971.972 899.871,971.927 900.231,971.882 C900.861,971.747 901.536,971.702 901.941,971.702 C904.056,971.702 905.496,973.592 905.496,976.382 C905.496,981.242 903.111,985.922 897.666,985.922 C895.146,985.922 892.986,984.662 892.986,983.222 C892.986,982.727 893.166,982.547 893.886,982.232 C895.191,981.647 895.731,980.837 895.731,979.622 C895.731,978.047 894.471,976.832 892.851,976.832 C890.916,976.832 889.656,978.362 889.656,980.702 C889.656,985.067 892.986,987.812 898.386,987.812 C905.181,987.812 910.356,983.267 910.356,977.237 C910.356,973.727 908.196,971.747 905.046,970.757"/>
<path class="Tuplet" d="M1185.47,408.52 C1187.59,407.845 1188.44,407.485 1189.52,406.765 C1191.64,405.37 1192.94,402.895 1192.94,400.375 C1192.94,396.1 1189.52,393.22 1184.48,393.22 C1179.58,393.22 1175.44,396.28 1175.44,399.97 C1175.44,401.815 1176.56,403.075 1178.27,403.075 C1179.76,403.075 1180.84,401.995 1180.84,400.51 C1180.84,399.745 1180.61,399.205 1179.89,398.485 C1179.44,398.08 1179.26,397.765 1179.26,397.45 C1179.26,396.37 1181.51,395.245 1183.63,395.245 C1186.64,395.245 1188.44,396.91 1188.44,399.7 C1188.44,403.705 1185.61,407.485 1182.59,407.485 C1182.46,407.485 1182.05,407.44 1181.56,407.395 C1180.25,407.305 1180.25,407.305 1179.98,407.305 C1178.99,407.305 1178.45,407.755 1178.45,408.565 C1178.45,409.285 1178.95,409.735 1179.76,409.735 C1179.98,409.735 1180.3,409.69 1180.66,409.645 C1181.29,409.51 1181.96,409.465 1182.37,409.465 C1184.48,409.465 1185.92,411.355 1185.92,414.145 C1185.92,419.005 1183.54,423.685 1178.09,423.685 C1175.57,423.685 1173.41,422.425 1173.41,420.985 C1173.41,420.49 1173.59,420.31 1174.31,419.995 C1175.62,419.41 1176.16,418.6 1176.16,417.385 C1176.16,415.81 1174.9,414.595 1173.28,414.595 C1171.34,414.595 1170.08,416.125 1170.08,418.465 C1170.08,422.83 1173.41,425.575 1178.81,425.575 C1185.61,425.575 1190.78,421.03 1190.78,415 C1190.78,411.49 1188.62,409.51 1185.47,408.52"/>
<path class="Tuplet" d="M1380.28,210.12 C1382.4,209.445 1383.25,209.085 1384.33,208.365 C1386.45,206.97 1387.75,204.495 1387.75,201.975 C1387.75,197.7 1384.33,194.82 1379.29,194.82 C1374.39,194.82 1370.25,197.88 1370.25,201.57 C1370.25,203.415 1371.37,204.675 1373.08,204.675 C1374.57,204.675 1375.65,203.595 1375.65,202.11 C1375.65,201.345 1375.42,200.805 1374.7,200.085 C1374.25,199.68 1374.07,199.365 1374.07,199.05 C1374.07,197.97 1376.32,196.845 1378.44,196.845 C1381.45,196.845 1383.25,198.51 1383.25,201.3 C1383.25,205.305 1380.42,209.085 1377.4,209.085 C1377.27,209.085 1376.86,209.04 1376.37,208.995 C1375.06,208.905 1375.06,208.905 1374.79,208.905 C1373.8,208.905 1373.26,209.355 1373.26,210.165 C1373.26,210.885 1373.76,211.335 1374.57,211.335 C1374.79,211.335 1375.11,211.29 1375.47,211.245 C1376.1,211.11 1376.77,211.065 1377.18,211.065 C1379.29,211.065 1380.73,212.955 1380.73,215.745 C1380.73,220.605 1378.35,225.285 1372.9,225.285 C1370.38,225.285 1368.22,224.025 1368.22,222.585 C1368.22,222.09 1368.4,221.91 1369.12,221.595 C1370.43,221.01 1370.97,220.2 1370.97,218.985 C1370.97,217.41 1369.71,216.195 1368.09,216.195 C1366.15,216.195 1364.89,217.725 1364.89,220.065 C1364.89,224.43 1368.22,227.175 1373.62,227.175 C1380.42,227.175 1385.59,222.63 1385.59,216.6 C1385.59,213.09 1383.43,211.11 1380.28,210.12"/>
<path class="Tuplet" d="M1720.51,207.516 C1722.63,206.841 1723.48,206.481 1724.56,205.761 C1726.68,204.366 1727.98,201.891 1727.98,199.371 C1727.98,195.096 1724.56,192.216 1719.52,192.216 C1714.62,192.216 1710.48,195.276 1710.48,198.966 C1710.48,200.811 1711.6,202.071 1713.31,202.071 C1714.8,202.071 1715.88,200.991 1715.88,199.506 C1715.88,198.741 1715.65,198.201 1714.93,197.481 C1714.48,197.076 1714.3,196.761 1714.3,196.446 C1714.3,195.366 1716.55,194.241 1718.67,194.241 C1721.68,194.241 1723.48,195.906 1723.48,198.696 C1723.48,202.701 1720.65,206.481 1717.63,206.481 C1717.5,206.481 1717.09,206.436 1716.6,206.391 C1715.29,206.301 1715.29,206.301 1715.02,206.301 C1714.03,206.301 1713.49,206.751 1713.49,207.561 C1713.49,208.281 1713.99,208.731 1714.8,208.731 C1715.02,208.731 1715.34,208.686 1715.7,208.641 C1716.33,208.506 1717,208.461 1717.41,208.461 C1719.52,208.461 1720.96,210.351 1720.96,213.141 C1720.96,218.001 1718.58,222.681 1713.13,222.681 C1710.61,222.681 1708.45,221.421 1708.45,219.981 C1708.45,219.486 1708.63,219.306 1709.35,218.991 C1710.66,218.406 1711.2,217.596 1711.2,216.381 C1711.2,214.806 1709.94,213.591 1708.32,213.591 C1706.38,213.591 1705.12,215.121 1705.12,217.461 C1705.12,221.826 1708.45,224.571 1713.85,224.571 C1720.65,224.571 1725.82,220.026 1725.82,213.996 C1725.82,210.486 1723.66,208.506 1720.51,207.516"/>
<polyline class="Tuplet" fill="none" stroke="#000000" stroke-width="2.48" stroke-linejoin="miter" stroke-miterlimit="2" points="1641.4,226.996 1641.4,208.396 1692.73,208.396"/>
<polyline class="Tuplet" fill="none" stroke="#000000" stroke-width="2.48" stroke-linejoin="miter" stroke-miterlimit="2" points="1740.38,208.396 1791.71,208.396 1791.71,226.996"/>
<path class="Tuplet" d="M864.281,420.92 C866.396,420.245 867.251,419.885 868.331,419.165 C870.446,417.77 871.751,415.295 871.751,412.775 C871.751,408.5 868.331,405.62 863.291,405.62 C858.386,405.62 854.246,408.68 854.246,412.37 C854.246,414.215 855.371,415.475 857.081,415.475 C858.566,415.475 859.646,414.395 859.646,412.91 C859.646,412.145 859.421,411.605 858.701,410.885 C858.251,410.48 858.071,410.165 858.071,409.85 C858.071,408.77 860.321,407.645 862.436,407.645 C865.451,407.645 867.251,409.31 867.251,412.1 C867.251,416.105 864.416,419.885 861.401,419.885 C861.266,419.885 860.861,419.84 860.366,419.795 C859.061,419.705 859.061,419.705 858.791,419.705 C857.801,419.705 857.261,420.155 857.261,420.965 C857.261,421.685 857.756,422.135 858.566,422.135 C858.791,422.135 859.106,422.09 859.466,422.045 C860.096,421.91 860.771,421.865 861.176,421.865 C863.291,421.865 864.731,423.755 864.731,426.545 C864.731,431.405 862.346,436.085 856.901,436.085 C854.381,436.085 852.221,434.825 852.221,433.385 C852.221,432.89 852.401,432.71 853.121,432.395 C854.426,431.81 854.966,431 854.966,429.785 C854.966,428.21 853.706,426.995 852.086,426.995 C850.151,426.995 848.891,428.525 848.891,430.865 C848.891,435.23 852.221,437.975 857.621,437.975 C864.416,437.975 869.591,433.43 869.591,427.4 C869.591,423.89 867.431,421.91 864.281,420.92"/>
<path class="Tuplet" d="M610.235,1181.56 C612.35,1180.88 613.205,1180.52 614.285,1179.8 C616.4,1178.41 617.705,1175.93 617.705,1173.41 C617.705,1169.14 614.285,1166.26 609.245,1166.26 C604.34,1166.26 600.2,1169.32 600.2,1173.01 C600.2,1174.85 601.325,1176.11 603.035,1176.11 C604.52,1176.11 605.6,1175.03 605.6,1173.55 C605.6,1172.78 605.375,1172.24 604.655,1171.52 C604.205,1171.12 604.025,1170.8 604.025,1170.49 C604.025,1169.41 606.275,1168.28 608.39,1168.28 C611.405,1168.28 613.205,1169.95 613.205,1172.74 C613.205,1176.74 610.37,1180.52 607.355,1180.52 C607.22,1180.52 606.815,1180.48 606.32,1180.43 C605.015,1180.34 605.015,1180.34 604.745,1180.34 C603.755,1180.34 603.215,1180.79 603.215,1181.6 C603.215,1182.32 603.71,1182.77 604.52,1182.77 C604.745,1182.77 605.06,1182.73 605.42,1182.68 C606.05,1182.55 606.725,1182.5 607.13,1182.5 C609.245,1182.5 610.685,1184.39 610.685,1187.18 C610.685,1192.04 608.3,1196.72 602.855,1196.72 C600.335,1196.72 598.175,1195.46 598.175,1194.02 C598.175,1193.53 598.355,1193.35 599.075,1193.03 C600.38,1192.45 600.92,1191.64 600.92,1190.42 C600.92,1188.85 599.66,1187.63 598.04,1187.63 C596.105,1187.63 594.845,1189.16 594.845,1191.5 C594.845,1195.87 598.175,1198.61 603.575,1198.61 C610.37,1198.61 615.545,1194.07 615.545,1188.04 C615.545,1184.53 613.385,1182.55 610.235,1181.56"/>
<path class="Tuplet" d="M663.38,826.416 C665.495,825.741 666.35,825.381 667.43,824.661 C669.545,823.266 670.85,820.791 670.85,818.271 C670.85,813.996 667.43,811.116 662.39,811.116 C657.485,811.116 653.345,814.176 653.345,817.866 C653.345,819.711 654.47,820.971 656.18,820.971 C657.665,820.971 658.745,819.891 658.745,818.406 C658.745,817.641 658.52,817.101 657.8,816.381 C657.35,815.976 657.17,815.661 657.17,815.346 C657.17,814.266 659.42,813.141 661.535,813.141 C664.55,813.141 666.35,814.806 666.35,817.596 C666.35,821.601 663.515,825.381 660.5,825.381 C660.365,825.381 659.96,825.336 659.465,825.291 C658.16,825.201 658.16,825.201 657.89,825.201 C656.9,825.201 656.36,825.651 656.36,826.461 C656.36,827.181 656.855,827.631 657.665,827.631 C657.89,827.631 658.205,827.586 658.565,827.541 C659.195,827.406 659.87,827.361 660.275,827.361 C662.39,827.361 663.83,829.251 663.83,832.041 C663.83,836.901 661.445,841.581 656,841.581 C653.48,841.581 651.32,840.321 651.32,838.881 C651.32,838.386 651.5,838.206 652.22,837.891 C653.525,837.306 654.065,836.496 654.065,835.281 C654.065,833.706 652.805,832.491 651.185,832.491 C649.25,832.491 647.99,834.021 647.99,836.361 C647.99,840.726 651.32,843.471 656.72,843.471 C663.515,843.471 668.69,838.926 668.69,832.896 C668.69,829.386 666.53,827.406 663.38,826.416"/>
<path class="Tuplet" d="M886.457,800.719 C888.572,800.044 889.427,799.684 890.507,798.964 C892.622,797.569 893.927,795.094 893.927,792.574 C893.927,788.299 890.507,785.419 885.467,785.419 C880.562,785.419 876.422,788.479 876.422,792.169 C876.422,794.014 877.547,795.274 879.257,795.274 C880.742,795.274 881.822,794.194 881.822,792.709 C881.822,791.944 881.597,791.404 880.877,790.684 C880.427,790.279 880.247,789.964 880.247,789.649 C880.247,788.569 882.497,787.444 884.612,787.444 C887.627,787.444 889.427,789.109 889.427,791.899 C889.427,795.904 886.592,799.684 883.577,799.684 C883.442,799.684 883.037,799.639 882.542,799.594 C881.237,799.504 881.237,799.504 880.967,799.504 C879.977,799.504 879.437,799.954 879.437,800.764 C879.437,801.484 879.932,801.934 880.742,801.934 C880.967,801.934 881.282,801.889 881.642,801.844 C882.272,801.709 882.947,801.664 883.352,801.664 C885.467,801.664 886.907,803.554 886.907,806.344 C886.907,811.204 884.522,815.884 879.077,815.884 C876.557,815.884 874.397,814.624 874.397,813.184 C874.397,812.689 874.577,812.509 875.297,812.194 C876.602,811.609 877.142,810.799 877.142,809.584 C877.142,808.009 875.882,806.794 874.262,806.794 C872.327,806.794 871.067,808.324 871.067,810.664 C871.067,815.029 874.397,817.774 879.797,817.774 C886.592,817.774 891.767,813.229 891.767,807.199 C891.767,803.689 889.607,801.709 886.457,800.719"/>
<polyline class="Tuplet" fill="none" stroke="#000000" stroke-width="2.48" stroke-linejoin="miter" stroke-miterlimit="2" points="826.983,773.748 826.983,792.348 858.671,797.628"/>
<polyline class="Tuplet" fill="none" stroke="#000000" stroke-width="2.48" stroke-linejoin="miter" stroke-miterlimit="2" points="906.331,805.569 938.019,810.849 938.019,792.249"/>
<path class="Tuplet" d="M661.039,206.968 C663.154,206.293 664.009,205.933 665.089,205.213 C667.204,203.818 668.509,201.343 668.509,198.823 C668.509,194.548 665.089,191.668 660.049,191.668 C655.144,191.668 651.004,194.728 651.004,198.418 C651.004,200.263 652.129,201.523 653.839,201.523 C655.324,201.523 656.404,200.443 656.404,198.958 C656.404,198.193 656.179,197.653 655.459,196.933 C655.009,196.528 654.829,196.213 654.829,195.898 C654.829,194.818 657.079,193.693 659.194,193.693 C662.209,193.693 664.009,195.358 664.009,198.148 C664.009,202.153 661.174,205.933 658.159,205.933 C658.024,205.933 657.619,205.888 657.124,205.843 C655.819,205.753 655.819,205.753 655.549,205.753 C654.559,205.753 654.019,206.203 654.019,207.013 C654.019,207.733 654.514,208.183 655.324,208.183 C655.549,208.183 655.864,208.138 656.224,208.093 C656.854,207.958 657.529,207.913 657.934,207.913 C660.049,207.913 661.489,209.803 661.489,212.593 C661.489,217.453 659.104,222.133 653.659,222.133 C651.139,222.133 648.979,220.873 648.979,219.433 C648.979,218.938 649.159,218.758 649.879,218.443 C651.184,217.858 651.724,217.048 651.724,215.833 C651.724,214.258 650.464,213.043 648.844,213.043 C646.909,213.043 645.649,214.573 645.649,216.913 C645.649,221.278 648.979,224.023 654.379,224.023 C661.174,224.023 666.349,219.478 666.349,213.448 C666.349,209.938 664.189,207.958 661.039,206.968"/>
<path class="Tuplet" d="M1054.07,811.112 C1056.19,810.437 1057.04,810.077 1058.12,809.357 C1060.24,807.962 1061.54,805.487 1061.54,802.967 C1061.54,798.692 1058.12,795.812 1053.08,795.812 C1048.18,795.812 1044.04,798.872 1044.04,802.562 C1044.04,804.407 1045.16,805.667 1046.87,805.667 C1048.36,805.667 1049.44,804.587 1049.44,803.102 C1049.44,802.337 1049.21,801.797 1048.49,801.077 C1048.04,800.672 1047.86,800.357 1047.86,800.042 C1047.86,798.962 1050.11,797.837 1052.23,797.837 C1055.24,797.837 1057.04,799.502 1057.04,802.292 C1057.04,806.297 1054.21,810.077 1051.19,810.077 C1051.06,810.077 1050.65,810.032 1050.16,809.987 C1048.85,809.897 1048.85,809.897 1048.58,809.897 C1047.59,809.897 1047.05,810.347 1047.05,811.157 C1047.05,811.877 1047.55,812.327 1048.36,812.327 C1048.58,812.327 1048.9,812.282 1049.26,812.237 C1049.89,812.102 1050.56,812.057 1050.97,812.057 C1053.08,812.057 1054.52,813.947 1054.52,816.737 C1054.52,821.597 1052.14,826.277 1046.69,826.277 C1044.17,826.277 1042.01,825.017 1042.01,823.577 C1042.01,823.082 1042.19,822.902 1042.91,822.587 C1044.22,822.002 1044.76,821.192 1044.76,819.977 C1044.76,818.402 1043.5,817.187 1041.88,817.187 C1039.94,817.187 1038.68,818.717 1038.68,821.057 C1038.68,825.422 1042.01,828.167 1047.41,828.167 C1054.21,828.167 1059.38,823.622 1059.38,817.592 C1059.38,814.082 1057.22,812.102 1054.07,811.112"/>
<polyline class="Tuplet" fill="none" stroke="#000000" stroke-width="2.48" stroke-linejoin="miter" stroke-miterlimit="2" points="970.709,780.545 970.709,799.145 1026.28,808.136"/>
<polyline class="Tuplet" fill="none" stroke="#000000" stroke-width="2.48" stroke-linejoin="miter" stroke-miterlimit="2" points="1073.94,815.847 1129.52,824.838 1129.52,806.238"/>
<path class="Tuplet" d="M1914.98,810.019 C1917.1,809.344 1917.95,808.984 1919.03,808.264 C1921.15,806.869 1922.45,804.394 1922.45,801.874 C1922.45,797.599 1919.03,794.719 1913.99,794.719 C1909.09,794.719 1904.95,797.779 1904.95,801.469 C1904.95,803.314 1906.07,804.574 1907.78,804.574 C1909.27,804.574 1910.35,803.494 1910.35,802.009 C1910.35,801.244 1910.12,800.704 1909.4,799.984 C1908.95,799.579 1908.77,799.264 1908.77,798.949 C1908.77,797.869 1911.02,796.744 1913.14,796.744 C1916.15,796.744 1917.95,798.409 1917.95,801.199 C1917.95,805.204 1915.12,808.984 1912.1,808.984 C1911.97,808.984 1911.56,808.939 1911.07,808.894 C1909.76,808.804 1909.76,808.804 1909.49,808.804 C1908.5,808.804 1907.96,809.254 1907.96,810.064 C1907.96,810.784 1908.46,811.234 1909.27,811.234 C1909.49,811.234 1909.81,811.189 1910.17,811.144 C1910.8,811.009 1911.47,810.964 1911.88,810.964 C1913.99,810.964 1915.43,812.854 1915.43,815.644 C1915.43,820.504 1913.05,825.184 1907.6,825.184 C1905.08,825.184 1902.92,823.924 1902.92,822.484 C1902.92,821.989 1903.1,821.809 1903.82,821.494 C1905.13,820.909 1905.67,820.099 1905.67,818.884 C1905.67,817.309 1904.41,816.094 1902.79,816.094 C1900.85,816.094 1899.59,817.624 1899.59,819.964 C1899.59,824.329 1902.92,827.074 1908.32,827.074 C1915.12,827.074 1920.29,822.529 1920.29,816.499 C1920.29,812.989 1918.13,811.009 1914.98,810.019"/>
<polyline class="Tuplet" fill="none" stroke="#000000" stroke-width="2.48" stroke-linejoin="miter" stroke-miterlimit="2" points="1855.51,779.948 1855.51,798.548 1887.2,805.598"/>
<polyline class="Tuplet" fill="none" stroke="#000000" stroke-width="2.48" stroke-linejoin="miter" stroke-miterlimit="2" points="1934.86,816.2 1966.54,823.249 1966.54,804.649"/>
<path class="Tuplet" d="M1211.97,800.719 C1214.08,800.044 1214.94,799.684 1216.02,798.964 C1218.13,797.569 1219.44,795.094 1219.44,792.574 C1219.44,788.299 1216.02,785.419 1210.98,785.419 C1206.07,785.419 1201.93,788.479 1201.93,792.169 C1201.93,794.014 1203.06,795.274 1204.77,795.274 C1206.25,795.274 1207.33,794.194 1207.33,792.709 C1207.33,791.944 1207.11,791.404 1206.39,790.684 C1205.94,790.279 1205.76,789.964 1205.76,789.649 C1205.76,788.569 1208.01,787.444 1210.12,787.444 C1213.14,787.444 1214.94,789.109 1214.94,791.899 C1214.94,795.904 1212.1,799.684 1209.09,799.684 C1208.95,799.684 1208.55,799.639 1208.05,799.594 C1206.75,799.504 1206.75,799.504 1206.48,799.504 C1205.49,799.504 1204.95,799.954 1204.95,800.764 C1204.95,801.484 1205.44,801.934 1206.25,801.934 C1206.48,801.934 1206.79,801.889 1207.15,801.844 C1207.78,801.709 1208.46,801.664 1208.86,801.664 C1210.98,801.664 1212.42,803.554 1212.42,806.344 C1212.42,811.204 1210.03,815.884 1204.59,815.884 C1202.07,815.884 1199.91,814.624 1199.91,813.184 C1199.91,812.689 1200.09,812.509 1200.81,812.194 C1202.11,811.609 1202.65,810.799 1202.65,809.584 C1202.65,808.009 1201.39,806.794 1199.77,806.794 C1197.84,806.794 1196.58,808.324 1196.58,810.664 C1196.58,815.029 1199.91,817.774 1205.31,817.774 C1212.1,817.774 1217.28,813.229 1217.28,807.199 C1217.28,803.689 1215.12,801.709 1211.97,800.719"/>
<polyline class="Tuplet" fill="none" stroke="#000000" stroke-width="2.48" stroke-linejoin="miter" stroke-miterlimit="2" points="1152.49,773.748 1152.49,792.348 1184.18,797.628"/>
<polyline class="Tuplet" fill="none" stroke="#000000" stroke-width="2.48" stroke-linejoin="miter" stroke-miterlimit="2" points="1231.84,805.569 1263.53,810.849 1263.53,792.249"/>
<path class="Tuplet" d="M1368.83,796.664 C1370.94,795.989 1371.8,795.629 1372.88,794.909 C1374.99,793.514 1376.3,791.039 1376.3,788.519 C1376.3,784.244 1372.88,781.364 1367.84,781.364 C1362.93,781.364 1358.79,784.424 1358.79,788.114 C1358.79,789.959 1359.92,791.219 1361.63,791.219 C1363.11,791.219 1364.19,790.139 1364.19,788.654 C1364.19,787.889 1363.97,787.349 1363.25,786.629 C1362.8,786.224 1362.62,785.909 1362.62,785.594 C1362.62,784.514 1364.87,783.389 1366.98,783.389 C1370,783.389 1371.8,785.054 1371.8,787.844 C1371.8,791.849 1368.96,795.629 1365.95,795.629 C1365.81,795.629 1365.41,795.584 1364.91,795.539 C1363.61,795.449 1363.61,795.449 1363.34,795.449 C1362.35,795.449 1361.81,795.899 1361.81,796.709 C1361.81,797.429 1362.3,797.879 1363.11,797.879 C1363.34,797.879 1363.65,797.834 1364.01,797.789 C1364.64,797.654 1365.32,797.609 1365.72,797.609 C1367.84,797.609 1369.28,799.499 1369.28,802.289 C1369.28,807.149 1366.89,811.829 1361.45,811.829 C1358.93,811.829 1356.77,810.569 1356.77,809.129 C1356.77,808.634 1356.95,808.454 1357.67,808.139 C1358.97,807.554 1359.51,806.744 1359.51,805.529 C1359.51,803.954 1358.25,802.739 1356.63,802.739 C1354.7,802.739 1353.44,804.269 1353.44,806.609 C1353.44,810.974 1356.77,813.719 1362.17,813.719 C1368.96,813.719 1374.14,809.174 1374.14,803.144 C1374.14,799.634 1371.98,797.654 1368.83,796.664"/>
<path class="NoteDot" transform="matrix(0.992001,0,0,0.992001,1857.02,328.8)" d="M0,0 C0,2.8 2.2,5 5,5 C7.8,5 10,2.8 10,0 C10,-2.8 7.8,-5 5,-5 C2.2,-5 0,-2.8 0,0"/>
<path class="NoteDot" transform="matrix(0.992001,0,0,0.992001,1556.69,1089.44)" d="M0,0 C0,2.8 2.2,5 5,5 C7.8,5 10,2.8 10,0 C10,-2.8 7.8,-5 5,-5 C2.2,-5 0,-2.8 0,0"/>
</svg>
