<?xml version="1.0" encoding="UTF-8" standalone="no"?>
<svg width="2098.8px" height="1418.4px" viewBox="0 0 2098.8 1418.4"
 xmlns="http://www.w3.org/2000/svg" xmlns:xlink="http://www.w3.org/1999/xlink" version="1.2" baseProfile="tiny">
<title>259 태양의 찬가.musicxml (2)</title>
<desc>Generated by MuseScore 4.2.1</desc>
<polyline class="StaffLines" fill="none" stroke="#000000" stroke-width="2.73" stroke-linejoin="bevel" points="104.4,278 1994.4,278"/>
<polyline class="StaffLines" fill="none" stroke="#000000" stroke-width="2.73" stroke-linejoin="bevel" points="104.4,302.8 1994.4,302.8"/>
<polyline class="StaffLines" fill="none" stroke="#000000" stroke-width="2.73" stroke-linejoin="bevel" points="104.4,327.6 1994.4,327.6"/>
<polyline class="StaffLines" fill="none" stroke="#000000" stroke-width="2.73" stroke-linejoin="bevel" points="104.4,352.4 1994.4,352.4"/>
<polyline class="StaffLines" fill="none" stroke="#000000" stroke-width="2.73" stroke-linejoin="bevel" points="104.4,377.2 1994.4,377.2"/>
<polyline class="StaffLines" fill="none" stroke="#000000" stroke-width="2.73" stroke-linejoin="bevel" points="104.4,659.6 1994.4,659.6"/>
<polyline class="StaffLines" fill="none" stroke="#000000" stroke-width="2.73" stroke-linejoin="bevel" points="104.4,684.4 1994.4,684.4"/>
<polyline class="StaffLines" fill="none" stroke="#000000" stroke-width="2.73" stroke-linejoin="bevel" points="104.4,709.2 1994.4,709.2"/>
<polyline class="StaffLines" fill="none" stroke="#000000" stroke-width="2.73" stroke-linejoin="bevel" points="104.4,734 1994.4,734"/>
<polyline class="StaffLines" fill="none" stroke="#000000" stroke-width="2.73" stroke-linejoin="bevel" points="104.4,758.8 1994.4,758.8"/>
<polyline class="StaffLines" fill="none" stroke="#000000" stroke-width="2.73" stroke-linejoin="bevel" points="104.4,1041.2 1994.4,1041.2"/>
<polyline class="StaffLines" fill="none" stroke="#000000" stroke-width="2.73" stroke-linejoin="bevel" points="104.4,1066 1994.4,1066"/>
<polyline class="StaffLines" fill="none" stroke="#000000" stroke-width="2.73" stroke-linejoin="bevel" points="104.4,1090.8 1994.4,1090.8"/>
<polyline class="StaffLines" fill="none" stroke="#000000" stroke-width="2.73" stroke-linejoin="bevel" points="104.4,1115.6 1994.4,1115.6"/>
<polyline class="StaffLines" fill="none" stroke="#000000" stroke-width="2.73" stroke-linejoin="bevel" points="104.4,1140.4 1994.4,1140.4"/>
<path class="MeasureNumber" d="M120.76,200.08 L119.6,200.08 C117.4,201.72 113.16,203.12 110.28,203.12 L109.8,204.88 L112.56,204.88 C115,204.88 115.28,204.96 115.28,205.68 C115.28,206.04 115.28,206.04 114.88,207.48 L110.6,223.48 C110.08,225.48 110.04,225.6 109.68,225.96 C109.28,226.36 108.44,226.48 106.32,226.52 L104.6,226.52 L104.4,228.4 L119.2,228.4 L119.44,226.52 L117.28,226.52 C114.68,226.52 114.12,226.32 114.12,225.44 C114.12,225.16 114.28,224.24 114.48,223.48 L120.76,200.08 M142.994,200.08 L141.834,200.08 C139.634,201.72 135.394,203.12 132.514,203.12 L132.034,204.88 L134.794,204.88 C137.234,204.88 137.514,204.96 137.514,205.68 C137.514,206.04 137.514,206.04 137.114,207.48 L132.834,223.48 C132.314,225.48 132.274,225.6 131.914,225.96 C131.514,226.36 130.674,226.48 128.554,226.52 L126.834,226.52 L126.634,228.4 L141.434,228.4 L141.674,226.52 L139.514,226.52 C136.914,226.52 136.354,226.32 136.354,225.44 C136.354,225.16 136.514,224.24 136.714,223.48 L142.994,200.08 "/>
<path class="MeasureNumber" d="M123.191,983.32 L122.151,985.16 C120.551,987.92 120.231,988.16 118.191,988.2 L108.911,988.2 C109.871,986.92 111.631,985.44 114.831,983.2 C120.111,979.56 120.471,979.32 121.591,978.44 C124.791,975.96 126.111,973.6 126.111,970.44 C126.111,966.24 122.991,963.44 118.391,963.44 C113.271,963.44 108.831,967.2 108.831,971.56 C108.831,973.8 110.031,975.24 111.951,975.24 C113.391,975.24 114.511,974.16 114.511,972.68 C114.511,971.64 113.991,970.96 112.671,970.24 C111.711,969.76 111.551,969.56 111.551,969.08 C111.551,967.36 114.511,965.44 117.231,965.44 C120.031,965.44 121.911,967.32 121.911,970.12 C121.911,973.12 120.591,975.32 116.991,978.44 C106.351,987.68 104.751,989.36 104.391,991.6 L121.551,991.6 L124.631,983.88 L123.191,983.32 M142.065,963.44 C133.465,963.44 129.185,975.28 129.185,982.32 C129.185,988.12 132.065,992.2 136.145,992.2 C142.985,992.2 149.105,983.32 149.105,973.4 C149.105,967.44 146.265,963.44 142.065,963.44 M142.025,965.04 C144.105,965.04 145.225,966.88 145.225,970.32 C145.225,974.24 144.225,979.32 142.585,983.44 C140.665,988.44 138.745,990.6 136.345,990.6 C134.185,990.6 132.985,988.68 132.985,985.28 C132.985,980.08 134.825,973.12 137.385,968.48 C138.625,966.24 140.225,965.04 142.025,965.04"/>
<path class="MeasureNumber" d="M120.76,581.68 L119.6,581.68 C117.4,583.32 113.16,584.72 110.28,584.72 L109.8,586.48 L112.56,586.48 C115,586.48 115.28,586.56 115.28,587.28 C115.28,587.64 115.28,587.64 114.88,589.08 L110.6,605.08 C110.08,607.08 110.04,607.2 109.68,607.56 C109.28,607.96 108.44,608.08 106.32,608.12 L104.6,608.12 L104.4,610 L119.2,610 L119.44,608.12 L117.28,608.12 C114.68,608.12 114.12,607.92 114.12,607.04 C114.12,606.76 114.28,605.84 114.48,605.08 L120.76,581.68 M130.954,596.6 C131.634,593.08 132.434,590.88 133.954,588.2 C135.754,585.04 137.914,583.44 140.314,583.44 C141.554,583.44 142.314,583.92 142.314,584.68 C142.314,584.96 142.234,585.12 141.954,585.64 C141.594,586.32 141.434,586.8 141.434,587.4 C141.434,588.68 142.394,589.56 143.754,589.56 C145.394,589.56 146.514,588.36 146.514,586.56 C146.514,583.84 143.954,581.84 140.394,581.84 C131.474,581.84 126.074,593.48 126.074,601.16 C126.074,607.04 128.994,610.6 133.874,610.6 C139.874,610.6 144.314,605.64 144.314,599.76 C144.314,595.68 141.554,592.84 137.554,592.84 C134.754,592.84 132.594,594.04 130.954,596.6 M136.274,595.16 C138.754,595.16 140.114,596.88 140.114,600 C140.114,605.08 137.434,608.96 133.874,608.96 C131.314,608.96 129.794,607.08 129.794,603.88 C129.794,598.88 132.554,595.16 136.274,595.16"/>
<path class="SlurSegment" stroke="#000000" stroke-width="1.24" stroke-linecap="round" stroke-linejoin="round" fill-rule="evenodd" d="M1661.98,1162.72 C1679.11,1184.01 1719.03,1190.21 1741.81,1175.12 C1717.81,1198.06 1677.9,1191.86 1661.98,1162.72"/>
<polyline class="BarLine" fill="none" stroke="#000000" stroke-width="4.46" stroke-linejoin="bevel" points="1039.27,276.636 1039.27,378.564"/>
<polyline class="BarLine" fill="none" stroke="#000000" stroke-width="4.46" stroke-linejoin="bevel" points="646.203,1039.84 646.203,1141.76"/>
<polyline class="BarLine" fill="none" stroke="#000000" stroke-width="4.46" stroke-linejoin="bevel" points="1342.12,276.636 1342.12,378.564"/>
<polyline class="BarLine" fill="none" stroke="#000000" stroke-width="4.46" stroke-linejoin="bevel" points="1611.4,1039.84 1611.4,1141.76"/>
<polyline class="BarLine" fill="none" stroke="#000000" stroke-width="4.46" stroke-linejoin="bevel" points="1992.17,1039.84 1992.17,1141.76"/>
<polyline class="BarLine" fill="none" stroke="#000000" stroke-width="4.46" stroke-linejoin="bevel" points="1992.17,658.236 1992.17,760.164"/>
<polyline class="BarLine" fill="none" stroke="#000000" stroke-width="4.46" stroke-linejoin="bevel" points="914.525,1039.84 914.525,1141.76"/>
<polyline class="BarLine" fill="none" stroke="#000000" stroke-width="4.46" stroke-linejoin="bevel" points="1689.32,276.636 1689.32,378.564"/>
<polyline class="BarLine" fill="none" stroke="#000000" stroke-width="4.46" stroke-linejoin="bevel" points="1992.17,276.636 1992.17,378.564"/>
<polyline class="BarLine" fill="none" stroke="#000000" stroke-width="4.46" stroke-linejoin="bevel" points="1538.42,658.236 1538.42,760.164"/>
<polyline class="BarLine" fill="none" stroke="#000000" stroke-width="4.46" stroke-linejoin="bevel" points="1086.78,658.236 1086.78,760.164"/>
<polyline class="BarLine" fill="none" stroke="#000000" stroke-width="4.46" stroke-linejoin="bevel" points="643.246,276.636 643.246,378.564"/>
<polyline class="BarLine" fill="none" stroke="#000000" stroke-width="4.46" stroke-linejoin="bevel" points="749.086,658.236 749.086,760.164"/>
<polyline class="BarLine" fill="none" stroke="#000000" stroke-width="4.46" stroke-linejoin="bevel" points="1270.54,1039.84 1270.54,1141.76"/>
<polyline class="Stem" fill="none" stroke="#000000" stroke-width="2.48" stroke-linejoin="bevel" points="1756.69,1148.83 1756.69,1066"/>
<polyline class="Stem" fill="none" stroke="#000000" stroke-width="2.48" stroke-linejoin="bevel" points="1104.74,336.032 1104.74,259.4"/>
<polyline class="Stem" fill="none" stroke="#000000" stroke-width="2.48" stroke-linejoin="bevel" points="595.136,1124.03 595.136,1041.2"/>
<polyline class="Stem" fill="none" stroke="#000000" stroke-width="2.48" stroke-linejoin="bevel" points="515.309,1136.43 515.309,1053.6"/>
<polyline class="Stem" fill="none" stroke="#000000" stroke-width="2.48" stroke-linejoin="bevel" points="1237.81,336.032 1237.81,259.4"/>
<polyline class="Stem" fill="none" stroke="#000000" stroke-width="2.48" stroke-linejoin="bevel" points="435.482,1148.83 435.482,1066"/>
<polyline class="Stem" fill="none" stroke="#000000" stroke-width="2.48" stroke-linejoin="bevel" points="1676.86,1136.43 1676.86,1053.6"/>
<polyline class="Stem" fill="none" stroke="#000000" stroke-width="2.48" stroke-linejoin="bevel" points="711.667,1124.03 711.667,1041.2"/>
<polyline class="Stem" fill="none" stroke="#000000" stroke-width="2.48" stroke-linejoin="bevel" points="968.847,331.766 968.847,408.101"/>
<polyline class="Stem" fill="none" stroke="#000000" stroke-width="2.48" stroke-linejoin="bevel" points="1377.83,306.966 1377.83,389.6"/>
<polyline class="Stem" fill="none" stroke="#000000" stroke-width="2.48" stroke-linejoin="bevel" points="355.655,1136.43 355.655,1053.6"/>
<polyline class="Stem" fill="none" stroke="#000000" stroke-width="2.48" stroke-linejoin="bevel" points="355.655,336.032 355.655,259.4"/>
<polyline class="Stem" fill="none" stroke="#000000" stroke-width="2.48" stroke-linejoin="bevel" points="1510.9,319.366 1510.9,395.8"/>
<polyline class="Stem" fill="none" stroke="#000000" stroke-width="2.48" stroke-linejoin="bevel" points="1937.71,742.432 1937.71,659.798"/>
<polyline class="Stem" fill="none" stroke="#000000" stroke-width="2.48" stroke-linejoin="bevel" points="468.115,336.032 468.115,259.598"/>
<polyline class="Stem" fill="none" stroke="#000000" stroke-width="2.48" stroke-linejoin="bevel" points="1599.62,331.766 1599.62,402"/>
<polyline class="Stem" fill="none" stroke="#000000" stroke-width="2.48" stroke-linejoin="bevel" points="1806.21,730.032 1806.21,647.2"/>
<polyline class="Stem" fill="none" stroke="#000000" stroke-width="2.48" stroke-linejoin="bevel" points="1735.39,742.432 1735.39,659.798"/>
<polyline class="Stem" fill="none" stroke="#000000" stroke-width="2.48" stroke-linejoin="bevel" points="1836.51,1136.43 1836.51,1053.6"/>
<polyline class="Stem" fill="none" stroke="#000000" stroke-width="2.48" stroke-linejoin="bevel" points="1059.82,1124.03 1059.82,1041.2"/>
<polyline class="Stem" fill="none" stroke="#000000" stroke-width="2.48" stroke-linejoin="bevel" points="1754.79,336.032 1754.79,259.4"/>
<polyline class="Stem" fill="none" stroke="#000000" stroke-width="2.48" stroke-linejoin="bevel" points="1603.89,742.432 1603.89,659.6"/>
<polyline class="Stem" fill="none" stroke="#000000" stroke-width="2.48" stroke-linejoin="bevel" points="1556.94,1124.03 1556.94,1041.4"/>
<polyline class="Stem" fill="none" stroke="#000000" stroke-width="2.48" stroke-linejoin="bevel" points="1887.86,360.832 1887.86,278"/>
<polyline class="Stem" fill="none" stroke="#000000" stroke-width="2.48" stroke-linejoin="bevel" points="538.935,336.032 538.935,259.4"/>
<polyline class="Stem" fill="none" stroke="#000000" stroke-width="2.48" stroke-linejoin="bevel" points="1463.45,717.632 1463.45,641"/>
<polyline class="Stem" fill="none" stroke="#000000" stroke-width="2.48" stroke-linejoin="bevel" points="886.139,348.432 886.139,265.6"/>
<polyline class="Stem" fill="none" stroke="#000000" stroke-width="2.48" stroke-linejoin="bevel" points="1139.64,1111.63 1139.64,1028.8"/>
<polyline class="Stem" fill="none" stroke="#000000" stroke-width="2.48" stroke-linejoin="bevel" points="1359.71,730.032 1359.71,647.2"/>
<polyline class="Stem" fill="none" stroke="#000000" stroke-width="2.48" stroke-linejoin="bevel" points="1255.98,742.432 1255.98,659.6"/>
<polyline class="Stem" fill="none" stroke="#000000" stroke-width="2.48" stroke-linejoin="bevel" points="1937.71,1148.83 1937.71,1066.2"/>
<polyline class="Stem" fill="none" stroke="#000000" stroke-width="2.48" stroke-linejoin="bevel" points="355.655,742.432 355.655,659.6"/>
<polyline class="Stem" fill="none" stroke="#000000" stroke-width="2.48" stroke-linejoin="bevel" points="1219.47,1099.23 1219.47,1022.6"/>
<polyline class="Stem" fill="none" stroke="#000000" stroke-width="2.48" stroke-linejoin="bevel" points="918.285,767.232 918.285,684.4"/>
<polyline class="Stem" fill="none" stroke="#000000" stroke-width="2.48" stroke-linejoin="bevel" points="459.39,730.032 459.39,647.2"/>
<polyline class="Stem" fill="none" stroke="#000000" stroke-width="2.48" stroke-linejoin="bevel" points="678.958,331.766 678.958,402"/>
<polyline class="Stem" fill="none" stroke="#000000" stroke-width="2.48" stroke-linejoin="bevel" points="1455.74,1111.63 1455.74,1028.8"/>
<polyline class="Stem" fill="none" stroke="#000000" stroke-width="2.48" stroke-linejoin="bevel" points="563.125,742.432 563.125,659.6"/>
<polyline class="Stem" fill="none" stroke="#000000" stroke-width="2.48" stroke-linejoin="bevel" points="814.55,767.232 814.55,684.4"/>
<polyline class="Stem" fill="none" stroke="#000000" stroke-width="2.48" stroke-linejoin="bevel" points="797.424,336.032 797.424,259.4"/>
<polyline class="Stem" fill="none" stroke="#000000" stroke-width="2.48" stroke-linejoin="bevel" points="1336,1124.03 1336,1041.2"/>
<polyline class="Stem" fill="none" stroke="#000000" stroke-width="2.48" stroke-linejoin="bevel" points="694.627,754.832 694.627,672.198"/>
<path class="Note" transform="matrix(0.992,0,0,0.992,564.144,1128)" d="M0,4.2 C0,8.5 3.1,13.3 11.2,13.3 C21.6,13.3 32.5,4.8 32.5,-4 C32.5,-9.9 27.5,-13.2 21.3,-13.2 C11.6,-13.2 0,-5 0,4.2"/>
<path class="Note" transform="matrix(0.992,0,0,0.992,663.634,758.8)" d="M0,4.2 C0,8.5 3.1,13.3 11.2,13.3 C21.6,13.3 32.5,4.8 32.5,-4 C32.5,-9.9 27.5,-13.2 21.3,-13.2 C11.6,-13.2 0,-5 0,4.2"/>
<path class="Note" transform="matrix(0.992,0,0,0.992,1305.01,1128)" d="M21.3,-13.2 C11.6,-13.2 0,-5.1 0,4.2 C0,8.5 3.1,13.3 11.2,13.3 C21.6,13.3 32.5,4.8 32.5,-4 C32.5,-9.9 27.5,-13.2 21.3,-13.2 M7.5,8.6 C4.2,8.6 3.5,5.9 3.5,5 C3.5,0.1 20.3,-8.5 25,-8.5 C27.4,-8.5 29,-7.1 29,-4.9 C29,0.1 12.1,8.6 7.5,8.6"/>
<path class="Note" transform="matrix(0.992,0,0,0.992,1073.74,340)" d="M21.3,-13.2 C11.6,-13.2 0,-5.1 0,4.2 C0,8.5 3.1,13.3 11.2,13.3 C21.6,13.3 32.5,4.8 32.5,-4 C32.5,-9.9 27.5,-13.2 21.3,-13.2 M7.5,8.6 C4.2,8.6 3.5,5.9 3.5,5 C3.5,0.1 20.3,-8.5 25,-8.5 C27.4,-8.5 29,-7.1 29,-4.9 C29,0.1 12.1,8.6 7.5,8.6"/>
<path class="Note" transform="matrix(0.992,0,0,0.992,677.718,327.6)" d="M0,4.2 C0,8.5 3.1,13.3 11.2,13.3 C21.6,13.3 32.5,4.8 32.5,-4 C32.5,-9.9 27.5,-13.2 21.3,-13.2 C11.6,-13.2 0,-5 0,4.2"/>
<path class="Note" transform="matrix(0.992,0,0,0.992,532.133,746.4)" d="M0,4.2 C0,8.5 3.1,13.3 11.2,13.3 C21.6,13.3 32.5,4.8 32.5,-4 C32.5,-9.9 27.5,-13.2 21.3,-13.2 C11.6,-13.2 0,-5 0,4.2"/>
<path class="Note" transform="matrix(0.992,0,0,0.992,783.558,771.2)" d="M0,4.2 C0,8.5 3.1,13.3 11.2,13.3 C21.6,13.3 32.5,4.8 32.5,-4 C32.5,-9.9 27.5,-13.2 21.3,-13.2 C11.6,-13.2 0,-5 0,4.2"/>
<path class="Note" transform="matrix(0.992,0,0,0.992,428.398,734)" d="M0,4.2 C0,8.5 3.1,13.3 11.2,13.3 C21.6,13.3 32.5,4.8 32.5,-4 C32.5,-9.9 27.5,-13.2 21.3,-13.2 C11.6,-13.2 0,-5 0,4.2"/>
<path class="Note" transform="matrix(0.992,0,0,0.992,1424.75,1115.6)" d="M0,4.2 C0,8.5 3.1,13.3 11.2,13.3 C21.6,13.3 32.5,4.8 32.5,-4 C32.5,-9.9 27.5,-13.2 21.3,-13.2 C11.6,-13.2 0,-5 0,4.2"/>
<path class="Note" transform="matrix(0.992,0,0,0.992,887.293,771.2)" d="M21.3,-13.2 C11.6,-13.2 0,-5.1 0,4.2 C0,8.5 3.1,13.3 11.2,13.3 C21.6,13.3 32.5,4.8 32.5,-4 C32.5,-9.9 27.5,-13.2 21.3,-13.2 M7.5,8.6 C4.2,8.6 3.5,5.9 3.5,5 C3.5,0.1 20.3,-8.5 25,-8.5 C27.4,-8.5 29,-7.1 29,-4.9 C29,0.1 12.1,8.6 7.5,8.6"/>
<path class="Note" transform="matrix(0.992,0,0,0.992,1188.48,1103.2)" d="M0,4.2 C0,8.5 3.1,13.3 11.2,13.3 C21.6,13.3 32.5,4.8 32.5,-4 C32.5,-9.9 27.5,-13.2 21.3,-13.2 C11.6,-13.2 0,-5 0,4.2"/>
<path class="Note" transform="matrix(0.992,0,0,0.992,324.663,746.4)" d="M0,4.2 C0,8.5 3.1,13.3 11.2,13.3 C21.6,13.3 32.5,4.8 32.5,-4 C32.5,-9.9 27.5,-13.2 21.3,-13.2 C11.6,-13.2 0,-5 0,4.2"/>
<path class="Note" transform="matrix(0.992,0,0,0.992,1376.59,302.8)" d="M21.3,-13.2 C11.6,-13.2 0,-5.1 0,4.2 C0,8.5 3.1,13.3 11.2,13.3 C21.6,13.3 32.5,4.8 32.5,-4 C32.5,-9.9 27.5,-13.2 21.3,-13.2 M7.5,8.6 C4.2,8.6 3.5,5.9 3.5,5 C3.5,0.1 20.3,-8.5 25,-8.5 C27.4,-8.5 29,-7.1 29,-4.9 C29,0.1 12.1,8.6 7.5,8.6"/>
<path class="Note" transform="matrix(0.992,0,0,0.992,507.943,340)" d="M21.3,-13.2 C11.6,-13.2 0,-5.1 0,4.2 C0,8.5 3.1,13.3 11.2,13.3 C21.6,13.3 32.5,4.8 32.5,-4 C32.5,-9.9 27.5,-13.2 21.3,-13.2 M7.5,8.6 C4.2,8.6 3.5,5.9 3.5,5 C3.5,0.1 20.3,-8.5 25,-8.5 C27.4,-8.5 29,-7.1 29,-4.9 C29,0.1 12.1,8.6 7.5,8.6"/>
<path class="Note" transform="matrix(0.992,0,0,0.992,324.663,1140.4)" d="M0,4.2 C0,8.5 3.1,13.3 11.2,13.3 C21.6,13.3 32.5,4.8 32.5,-4 C32.5,-9.9 27.5,-13.2 21.3,-13.2 C11.6,-13.2 0,-5 0,4.2"/>
<path class="Note" transform="matrix(0.992,0,0,0.992,324.663,340)" d="M0,4.2 C0,8.5 3.1,13.3 11.2,13.3 C21.6,13.3 32.5,4.8 32.5,-4 C32.5,-9.9 27.5,-13.2 21.3,-13.2 C11.6,-13.2 0,-5 0,4.2"/>
<path class="Note" transform="matrix(0.992,0,0,0.992,1224.98,746.4)" d="M0,4.2 C0,8.5 3.1,13.3 11.2,13.3 C21.6,13.3 32.5,4.8 32.5,-4 C32.5,-9.9 27.5,-13.2 21.3,-13.2 C11.6,-13.2 0,-5 0,4.2"/>
<path class="Note" transform="matrix(0.992,0,0,0.992,1108.65,1115.6)" d="M0,4.2 C0,8.5 3.1,13.3 11.2,13.3 C21.6,13.3 32.5,4.8 32.5,-4 C32.5,-9.9 27.5,-13.2 21.3,-13.2 C11.6,-13.2 0,-5 0,4.2"/>
<path class="Note" transform="matrix(0.992,0,0,0.992,766.432,340)" d="M0,4.2 C0,8.5 3.1,13.3 11.2,13.3 C21.6,13.3 32.5,4.8 32.5,-4 C32.5,-9.9 27.5,-13.2 21.3,-13.2 C11.6,-13.2 0,-5 0,4.2"/>
<path class="Note" transform="matrix(0.992,0,0,0.992,1328.72,734)" d="M0,4.2 C0,8.5 3.1,13.3 11.2,13.3 C21.6,13.3 32.5,4.8 32.5,-4 C32.5,-9.9 27.5,-13.2 21.3,-13.2 C11.6,-13.2 0,-5 0,4.2"/>
<path class="Note" transform="matrix(0.992,0,0,0.992,1805.52,1140.4)" d="M0,4.2 C0,8.5 3.1,13.3 11.2,13.3 C21.6,13.3 32.5,4.8 32.5,-4 C32.5,-9.9 27.5,-13.2 21.3,-13.2 C11.6,-13.2 0,-5 0,4.2"/>
<path class="Note" transform="matrix(0.992,0,0,0.992,484.317,1140.4)" d="M0,4.2 C0,8.5 3.1,13.3 11.2,13.3 C21.6,13.3 32.5,4.8 32.5,-4 C32.5,-9.9 27.5,-13.2 21.3,-13.2 C11.6,-13.2 0,-5 0,4.2"/>
<path class="Note" transform="matrix(0.992,0,0,0.992,1432.45,721.6)" d="M0,4.2 C0,8.5 3.1,13.3 11.2,13.3 C21.6,13.3 32.5,4.8 32.5,-4 C32.5,-9.9 27.5,-13.2 21.3,-13.2 C11.6,-13.2 0,-5 0,4.2"/>
<path class="Note" transform="matrix(0.992,0,0,0.992,1028.82,1128)" d="M0,4.2 C0,8.5 3.1,13.3 11.2,13.3 C21.6,13.3 32.5,4.8 32.5,-4 C32.5,-9.9 27.5,-13.2 21.3,-13.2 C11.6,-13.2 0,-5 0,4.2"/>
<path class="Note" transform="matrix(0.992,0,0,0.992,1856.86,364.8)" d="M21.3,-13.2 C11.6,-13.2 0,-5.1 0,4.2 C0,8.5 3.1,13.3 11.2,13.3 C21.6,13.3 32.5,4.8 32.5,-4 C32.5,-9.9 27.5,-13.2 21.3,-13.2 M7.5,8.6 C4.2,8.6 3.5,5.9 3.5,5 C3.5,0.1 20.3,-8.5 25,-8.5 C27.4,-8.5 29,-7.1 29,-4.9 C29,0.1 12.1,8.6 7.5,8.6"/>
<path class="Note" transform="matrix(0.992,0,0,0.992,1906.72,1152.8)" d="M0,4.2 C0,8.5 3.1,13.3 11.2,13.3 C21.6,13.3 32.5,4.8 32.5,-4 C32.5,-9.9 27.5,-13.2 21.3,-13.2 C11.6,-13.2 0,-5 0,4.2"/>
<path class="Note" transform="matrix(0.992,0,0,0.992,1723.79,340)" d="M21.3,-13.2 C11.6,-13.2 0,-5.1 0,4.2 C0,8.5 3.1,13.3 11.2,13.3 C21.6,13.3 32.5,4.8 32.5,-4 C32.5,-9.9 27.5,-13.2 21.3,-13.2 M7.5,8.6 C4.2,8.6 3.5,5.9 3.5,5 C3.5,0.1 20.3,-8.5 25,-8.5 C27.4,-8.5 29,-7.1 29,-4.9 C29,0.1 12.1,8.6 7.5,8.6"/>
<path class="Note" transform="matrix(0.992,0,0,0.992,1572.89,746.4)" d="M0,4.2 C0,8.5 3.1,13.3 11.2,13.3 C21.6,13.3 32.5,4.8 32.5,-4 C32.5,-9.9 27.5,-13.2 21.3,-13.2 C11.6,-13.2 0,-5 0,4.2"/>
<path class="Note" transform="matrix(0.992,0,0,0.992,855.146,352.4)" d="M0,4.2 C0,8.5 3.1,13.3 11.2,13.3 C21.6,13.3 32.5,4.8 32.5,-4 C32.5,-9.9 27.5,-13.2 21.3,-13.2 C11.6,-13.2 0,-5 0,4.2"/>
<path class="Note" transform="matrix(0.992,0,0,0.992,1645.87,1140.4)" d="M0,4.2 C0,8.5 3.1,13.3 11.2,13.3 C21.6,13.3 32.5,4.8 32.5,-4 C32.5,-9.9 27.5,-13.2 21.3,-13.2 C11.6,-13.2 0,-5 0,4.2"/>
<path class="Note" transform="matrix(0.992,0,0,0.992,967.607,327.6)" d="M0,4.2 C0,8.5 3.1,13.3 11.2,13.3 C21.6,13.3 32.5,4.8 32.5,-4 C32.5,-9.9 27.5,-13.2 21.3,-13.2 C11.6,-13.2 0,-5 0,4.2"/>
<path class="Note" transform="matrix(0.992,0,0,0.992,1525.94,1128)" d="M0,4.2 C0,8.5 3.1,13.3 11.2,13.3 C21.6,13.3 32.5,4.8 32.5,-4 C32.5,-9.9 27.5,-13.2 21.3,-13.2 C11.6,-13.2 0,-5 0,4.2"/>
<path class="Note" transform="matrix(0.992,0,0,0.992,1704.4,746.4)" d="M0,4.2 C0,8.5 3.1,13.3 11.2,13.3 C21.6,13.3 32.5,4.8 32.5,-4 C32.5,-9.9 27.5,-13.2 21.3,-13.2 C11.6,-13.2 0,-5 0,4.2"/>
<path class="Note" transform="matrix(0.992,0,0,0.992,437.123,340)" d="M0,4.2 C0,8.5 3.1,13.3 11.2,13.3 C21.6,13.3 32.5,4.8 32.5,-4 C32.5,-9.9 27.5,-13.2 21.3,-13.2 C11.6,-13.2 0,-5 0,4.2"/>
<path class="Note" transform="matrix(0.992,0,0,0.992,1598.38,327.6)" d="M0,4.2 C0,8.5 3.1,13.3 11.2,13.3 C21.6,13.3 32.5,4.8 32.5,-4 C32.5,-9.9 27.5,-13.2 21.3,-13.2 C11.6,-13.2 0,-5 0,4.2"/>
<path class="Note" transform="matrix(0.992,0,0,0.992,1775.21,734)" d="M0,4.2 C0,8.5 3.1,13.3 11.2,13.3 C21.6,13.3 32.5,4.8 32.5,-4 C32.5,-9.9 27.5,-13.2 21.3,-13.2 C11.6,-13.2 0,-5 0,4.2"/>
<path class="Note" transform="matrix(0.992,0,0,0.992,1725.7,1152.8)" d="M0,4.2 C0,8.5 3.1,13.3 11.2,13.3 C21.6,13.3 32.5,4.8 32.5,-4 C32.5,-9.9 27.5,-13.2 21.3,-13.2 C11.6,-13.2 0,-5 0,4.2"/>
<path class="Note" transform="matrix(0.992,0,0,0.992,404.49,1152.8)" d="M0,4.2 C0,8.5 3.1,13.3 11.2,13.3 C21.6,13.3 32.5,4.8 32.5,-4 C32.5,-9.9 27.5,-13.2 21.3,-13.2 C11.6,-13.2 0,-5 0,4.2"/>
<path class="Note" transform="matrix(0.992,0,0,0.992,1206.81,340)" d="M21.3,-13.2 C11.6,-13.2 0,-5.1 0,4.2 C0,8.5 3.1,13.3 11.2,13.3 C21.6,13.3 32.5,4.8 32.5,-4 C32.5,-9.9 27.5,-13.2 21.3,-13.2 M7.5,8.6 C4.2,8.6 3.5,5.9 3.5,5 C3.5,0.1 20.3,-8.5 25,-8.5 C27.4,-8.5 29,-7.1 29,-4.9 C29,0.1 12.1,8.6 7.5,8.6"/>
<path class="Note" transform="matrix(0.992,0,0,0.992,1509.66,315.2)" d="M0,4.2 C0,8.5 3.1,13.3 11.2,13.3 C21.6,13.3 32.5,4.8 32.5,-4 C32.5,-9.9 27.5,-13.2 21.3,-13.2 C11.6,-13.2 0,-5 0,4.2"/>
<path class="Note" transform="matrix(0.992,0,0,0.992,1906.72,746.4)" d="M0,4.2 C0,8.5 3.1,13.3 11.2,13.3 C21.6,13.3 32.5,4.8 32.5,-4 C32.5,-9.9 27.5,-13.2 21.3,-13.2 C11.6,-13.2 0,-5 0,4.2"/>
<path class="Note" transform="matrix(0.992,0,0,0.992,680.675,1128)" d="M21.3,-13.2 C11.6,-13.2 0,-5.1 0,4.2 C0,8.5 3.1,13.3 11.2,13.3 C21.6,13.3 32.5,4.8 32.5,-4 C32.5,-9.9 27.5,-13.2 21.3,-13.2 M7.5,8.6 C4.2,8.6 3.5,5.9 3.5,5 C3.5,0.1 20.3,-8.5 25,-8.5 C27.4,-8.5 29,-7.1 29,-4.9 C29,0.1 12.1,8.6 7.5,8.6"/>
<path class="Clef" transform="matrix(0.992,0,0,0.992,123,734)" d="M12.3,51.3 C12.3,57.9 17.3,66.6 30.8,66.6 C35.5,66.6 39.6,65.4 43.2,63.2 C48.6,59.4 50,52.8 50,46.5 C50,42.6 49.4,38.1 48.4,32.4 C48.1,30.4 47.5,27.4 46.9,23.5 C56.7,20.3 64,10.1 64,-0.2 C64,-15.3 53.3,-25.5 38.7,-25.5 C37.7,-31.5 36.7,-37.4 35.9,-43 C46.4,-54.1 53.7,-66.6 53.7,-82.5 C53.7,-91.6 50.9,-99 49.3,-102.6 C46.9,-107.7 44,-111.2 42.2,-111.2 C41.5,-111.2 38.4,-110 35.1,-106.1 C28.7,-98.5 26.9,-85.7 26.9,-77.3 C26.9,-71.9 27.4,-67 29.1,-55.8 C29,-55.7 23.8,-50.4 21.7,-48.7 C12.6,-40.3 0,-28.1 0,-8.1 C0,10.6 16.3,25.3 34.9,25.3 C37.8,25.3 40.5,25 42.8,24.6 C44.7,34.2 45.9,41.2 45.9,46.5 C45.9,56.9 40.5,62.4 30.4,62.4 C28,62.4 25.9,61.9 25.7,61.9 C25.6,61.8 25.4,61.7 25.4,61.6 C25.4,61.4 25.6,61.3 25.9,61.3 C30.6,60.5 35.3,56.5 35.3,50.1 C35.3,44.7 31.2,39 23.7,39 C16.7,39 12.3,44.7 12.3,51.3 M33.2,-82.2 C34.1,-86.2 38.7,-96.7 43.9,-96.7 C45.4,-96.7 47.8,-91.9 47.8,-84.9 C47.8,-74.5 40.1,-66.7 33.2,-59.9 C32.6,-63.9 32.1,-67.8 32.1,-72 C32.1,-75.7 32.4,-79.1 33.2,-82.2 M42,20.6 C40,21 38.1,21.2 36.2,21.2 C21.9,21.2 9.7,11.2 9.7,-3.9 C9.7,-16.1 18.3,-27 27.1,-34.6 C28.8,-36.1 30.4,-37.5 31.9,-39 C32.8,-33.6 33.5,-28.9 34.2,-24.8 C25.1,-22.1 18.9,-12.5 18.9,-3.1 C18.9,3.9 24.4,13.5 32.4,13.5 C33.2,13.5 34.1,13.1 34.1,12.2 C34.1,11.3 33.1,10.8 31.9,10 C28,7.6 25.8,5 25.8,0.1 C25.8,-6 30.4,-10.9 36.2,-12.3 L42,20.6 M56.2,2.1 C56.2,9.2 53.3,16.5 46.2,19.4 C44.1,7.4 41.4,-8.5 40.7,-12.9 C49.7,-12.9 56.2,-6.8 56.2,2.1"/>
<path class="Clef" transform="matrix(0.992,0,0,0.992,123,352.4)" d="M12.3,51.3 C12.3,57.9 17.3,66.6 30.8,66.6 C35.5,66.6 39.6,65.4 43.2,63.2 C48.6,59.4 50,52.8 50,46.5 C50,42.6 49.4,38.1 48.4,32.4 C48.1,30.4 47.5,27.4 46.9,23.5 C56.7,20.3 64,10.1 64,-0.2 C64,-15.3 53.3,-25.5 38.7,-25.5 C37.7,-31.5 36.7,-37.4 35.9,-43 C46.4,-54.1 53.7,-66.6 53.7,-82.5 C53.7,-91.6 50.9,-99 49.3,-102.6 C46.9,-107.7 44,-111.2 42.2,-111.2 C41.5,-111.2 38.4,-110 35.1,-106.1 C28.7,-98.5 26.9,-85.7 26.9,-77.3 C26.9,-71.9 27.4,-67 29.1,-55.8 C29,-55.7 23.8,-50.4 21.7,-48.7 C12.6,-40.3 0,-28.1 0,-8.1 C0,10.6 16.3,25.3 34.9,25.3 C37.8,25.3 40.5,25 42.8,24.6 C44.7,34.2 45.9,41.2 45.9,46.5 C45.9,56.9 40.5,62.4 30.4,62.4 C28,62.4 25.9,61.9 25.7,61.9 C25.6,61.8 25.4,61.7 25.4,61.6 C25.4,61.4 25.6,61.3 25.9,61.3 C30.6,60.5 35.3,56.5 35.3,50.1 C35.3,44.7 31.2,39 23.7,39 C16.7,39 12.3,44.7 12.3,51.3 M33.2,-82.2 C34.1,-86.2 38.7,-96.7 43.9,-96.7 C45.4,-96.7 47.8,-91.9 47.8,-84.9 C47.8,-74.5 40.1,-66.7 33.2,-59.9 C32.6,-63.9 32.1,-67.8 32.1,-72 C32.1,-75.7 32.4,-79.1 33.2,-82.2 M42,20.6 C40,21 38.1,21.2 36.2,21.2 C21.9,21.2 9.7,11.2 9.7,-3.9 C9.7,-16.1 18.3,-27 27.1,-34.6 C28.8,-36.1 30.4,-37.5 31.9,-39 C32.8,-33.6 33.5,-28.9 34.2,-24.8 C25.1,-22.1 18.9,-12.5 18.9,-3.1 C18.9,3.9 24.4,13.5 32.4,13.5 C33.2,13.5 34.1,13.1 34.1,12.2 C34.1,11.3 33.1,10.8 31.9,10 C28,7.6 25.8,5 25.8,0.1 C25.8,-6 30.4,-10.9 36.2,-12.3 L42,20.6 M56.2,2.1 C56.2,9.2 53.3,16.5 46.2,19.4 C44.1,7.4 41.4,-8.5 40.7,-12.9 C49.7,-12.9 56.2,-6.8 56.2,2.1"/>
<path class="Clef" transform="matrix(0.992,0,0,0.992,123,1115.6)" d="M12.3,51.3 C12.3,57.9 17.3,66.6 30.8,66.6 C35.5,66.6 39.6,65.4 43.2,63.2 C48.6,59.4 50,52.8 50,46.5 C50,42.6 49.4,38.1 48.4,32.4 C48.1,30.4 47.5,27.4 46.9,23.5 C56.7,20.3 64,10.1 64,-0.2 C64,-15.3 53.3,-25.5 38.7,-25.5 C37.7,-31.5 36.7,-37.4 35.9,-43 C46.4,-54.1 53.7,-66.6 53.7,-82.5 C53.7,-91.6 50.9,-99 49.3,-102.6 C46.9,-107.7 44,-111.2 42.2,-111.2 C41.5,-111.2 38.4,-110 35.1,-106.1 C28.7,-98.5 26.9,-85.7 26.9,-77.3 C26.9,-71.9 27.4,-67 29.1,-55.8 C29,-55.7 23.8,-50.4 21.7,-48.7 C12.6,-40.3 0,-28.1 0,-8.1 C0,10.6 16.3,25.3 34.9,25.3 C37.8,25.3 40.5,25 42.8,24.6 C44.7,34.2 45.9,41.2 45.9,46.5 C45.9,56.9 40.5,62.4 30.4,62.4 C28,62.4 25.9,61.9 25.7,61.9 C25.6,61.8 25.4,61.7 25.4,61.6 C25.4,61.4 25.6,61.3 25.9,61.3 C30.6,60.5 35.3,56.5 35.3,50.1 C35.3,44.7 31.2,39 23.7,39 C16.7,39 12.3,44.7 12.3,51.3 M33.2,-82.2 C34.1,-86.2 38.7,-96.7 43.9,-96.7 C45.4,-96.7 47.8,-91.9 47.8,-84.9 C47.8,-74.5 40.1,-66.7 33.2,-59.9 C32.6,-63.9 32.1,-67.8 32.1,-72 C32.1,-75.7 32.4,-79.1 33.2,-82.2 M42,20.6 C40,21 38.1,21.2 36.2,21.2 C21.9,21.2 9.7,11.2 9.7,-3.9 C9.7,-16.1 18.3,-27 27.1,-34.6 C28.8,-36.1 30.4,-37.5 31.9,-39 C32.8,-33.6 33.5,-28.9 34.2,-24.8 C25.1,-22.1 18.9,-12.5 18.9,-3.1 C18.9,3.9 24.4,13.5 32.4,13.5 C33.2,13.5 34.1,13.1 34.1,12.2 C34.1,11.3 33.1,10.8 31.9,10 C28,7.6 25.8,5 25.8,0.1 C25.8,-6 30.4,-10.9 36.2,-12.3 L42,20.6 M56.2,2.1 C56.2,9.2 53.3,16.5 46.2,19.4 C44.1,7.4 41.4,-8.5 40.7,-12.9 C49.7,-12.9 56.2,-6.8 56.2,2.1"/>
<path class="KeySig" transform="matrix(0.992,0,0,0.992,211.28,278)" d="M23.3,-10.5 C23.9,-10.6 24.4,-11.3 24.4,-11.9 L24.4,-17.8 C24.4,-18.8 23.7,-19.2 22.8,-19.2 L19.5,-18.5 L19.5,-33.4 L16.7,-33.4 L16.7,-17.9 L7.8,-16.1 L7.8,-30.2 L5,-30.2 L5,-15.5 L1.1,-14.7 C0.5,-14.6 0,-13.9 0,-13.3 L0,-7.5 C0,-6.4 0.8,-6.1 1.7,-6.1 L5,-6.8 L5,9.7 L1.1,10.5 C0.5,10.6 0,11.3 0,11.9 L0,17.7 C0,18.8 0.8,19.1 1.7,19.1 L5,18.4 L5,33.3 L7.8,33.3 L7.8,17.8 L16.7,16 L16.7,30.1 L19.5,30.1 L19.5,15.4 L23.3,14.7 C23.9,14.6 24.4,13.9 24.4,13.3 L24.4,7.4 C24.4,6.4 23.7,6 22.8,6 L19.5,6.7 L19.5,-9.8 L23.3,-10.5 M7.8,-7.4 L16.7,-9.2 L16.7,7.3 L7.8,9.2 L7.8,-7.4 "/>
<path class="KeySig" transform="matrix(0.992,0,0,0.992,238.452,315.2)" d="M23.3,-10.5 C23.9,-10.6 24.4,-11.3 24.4,-11.9 L24.4,-17.8 C24.4,-18.8 23.7,-19.2 22.8,-19.2 L19.5,-18.5 L19.5,-33.4 L16.7,-33.4 L16.7,-17.9 L7.8,-16.1 L7.8,-30.2 L5,-30.2 L5,-15.5 L1.1,-14.7 C0.5,-14.6 0,-13.9 0,-13.3 L0,-7.5 C0,-6.4 0.8,-6.1 1.7,-6.1 L5,-6.8 L5,9.7 L1.1,10.5 C0.5,10.6 0,11.3 0,11.9 L0,17.7 C0,18.8 0.8,19.1 1.7,19.1 L5,18.4 L5,33.3 L7.8,33.3 L7.8,17.8 L16.7,16 L16.7,30.1 L19.5,30.1 L19.5,15.4 L23.3,14.7 C23.9,14.6 24.4,13.9 24.4,13.3 L24.4,7.4 C24.4,6.4 23.7,6 22.8,6 L19.5,6.7 L19.5,-9.8 L23.3,-10.5 M7.8,-7.4 L16.7,-9.2 L16.7,7.3 L7.8,9.2 L7.8,-7.4 "/>
<path class="KeySig" transform="matrix(0.992,0,0,0.992,211.28,1041.2)" d="M23.3,-10.5 C23.9,-10.6 24.4,-11.3 24.4,-11.9 L24.4,-17.8 C24.4,-18.8 23.7,-19.2 22.8,-19.2 L19.5,-18.5 L19.5,-33.4 L16.7,-33.4 L16.7,-17.9 L7.8,-16.1 L7.8,-30.2 L5,-30.2 L5,-15.5 L1.1,-14.7 C0.5,-14.6 0,-13.9 0,-13.3 L0,-7.5 C0,-6.4 0.8,-6.1 1.7,-6.1 L5,-6.8 L5,9.7 L1.1,10.5 C0.5,10.6 0,11.3 0,11.9 L0,17.7 C0,18.8 0.8,19.1 1.7,19.1 L5,18.4 L5,33.3 L7.8,33.3 L7.8,17.8 L16.7,16 L16.7,30.1 L19.5,30.1 L19.5,15.4 L23.3,14.7 C23.9,14.6 24.4,13.9 24.4,13.3 L24.4,7.4 C24.4,6.4 23.7,6 22.8,6 L19.5,6.7 L19.5,-9.8 L23.3,-10.5 M7.8,-7.4 L16.7,-9.2 L16.7,7.3 L7.8,9.2 L7.8,-7.4 "/>
<path class="KeySig" transform="matrix(0.992,0,0,0.992,238.452,1078.4)" d="M23.3,-10.5 C23.9,-10.6 24.4,-11.3 24.4,-11.9 L24.4,-17.8 C24.4,-18.8 23.7,-19.2 22.8,-19.2 L19.5,-18.5 L19.5,-33.4 L16.7,-33.4 L16.7,-17.9 L7.8,-16.1 L7.8,-30.2 L5,-30.2 L5,-15.5 L1.1,-14.7 C0.5,-14.6 0,-13.9 0,-13.3 L0,-7.5 C0,-6.4 0.8,-6.1 1.7,-6.1 L5,-6.8 L5,9.7 L1.1,10.5 C0.5,10.6 0,11.3 0,11.9 L0,17.7 C0,18.8 0.8,19.1 1.7,19.1 L5,18.4 L5,33.3 L7.8,33.3 L7.8,17.8 L16.7,16 L16.7,30.1 L19.5,30.1 L19.5,15.4 L23.3,14.7 C23.9,14.6 24.4,13.9 24.4,13.3 L24.4,7.4 C24.4,6.4 23.7,6 22.8,6 L19.5,6.7 L19.5,-9.8 L23.3,-10.5 M7.8,-7.4 L16.7,-9.2 L16.7,7.3 L7.8,9.2 L7.8,-7.4 "/>
<path class="KeySig" transform="matrix(0.992,0,0,0.992,211.28,659.6)" d="M23.3,-10.5 C23.9,-10.6 24.4,-11.3 24.4,-11.9 L24.4,-17.8 C24.4,-18.8 23.7,-19.2 22.8,-19.2 L19.5,-18.5 L19.5,-33.4 L16.7,-33.4 L16.7,-17.9 L7.8,-16.1 L7.8,-30.2 L5,-30.2 L5,-15.5 L1.1,-14.7 C0.5,-14.6 0,-13.9 0,-13.3 L0,-7.5 C0,-6.4 0.8,-6.1 1.7,-6.1 L5,-6.8 L5,9.7 L1.1,10.5 C0.5,10.6 0,11.3 0,11.9 L0,17.7 C0,18.8 0.8,19.1 1.7,19.1 L5,18.4 L5,33.3 L7.8,33.3 L7.8,17.8 L16.7,16 L16.7,30.1 L19.5,30.1 L19.5,15.4 L23.3,14.7 C23.9,14.6 24.4,13.9 24.4,13.3 L24.4,7.4 C24.4,6.4 23.7,6 22.8,6 L19.5,6.7 L19.5,-9.8 L23.3,-10.5 M7.8,-7.4 L16.7,-9.2 L16.7,7.3 L7.8,9.2 L7.8,-7.4 "/>
<path class="KeySig" transform="matrix(0.992,0,0,0.992,238.452,696.8)" d="M23.3,-10.5 C23.9,-10.6 24.4,-11.3 24.4,-11.9 L24.4,-17.8 C24.4,-18.8 23.7,-19.2 22.8,-19.2 L19.5,-18.5 L19.5,-33.4 L16.7,-33.4 L16.7,-17.9 L7.8,-16.1 L7.8,-30.2 L5,-30.2 L5,-15.5 L1.1,-14.7 C0.5,-14.6 0,-13.9 0,-13.3 L0,-7.5 C0,-6.4 0.8,-6.1 1.7,-6.1 L5,-6.8 L5,9.7 L1.1,10.5 C0.5,10.6 0,11.3 0,11.9 L0,17.7 C0,18.8 0.8,19.1 1.7,19.1 L5,18.4 L5,33.3 L7.8,33.3 L7.8,17.8 L16.7,16 L16.7,30.1 L19.5,30.1 L19.5,15.4 L23.3,14.7 C23.9,14.6 24.4,13.9 24.4,13.3 L24.4,7.4 C24.4,6.4 23.7,6 22.8,6 L19.5,6.7 L19.5,-9.8 L23.3,-10.5 M7.8,-7.4 L16.7,-9.2 L16.7,7.3 L7.8,9.2 L7.8,-7.4 "/>
<path class="Rest" transform="matrix(0.992,0,0,0.992,948.997,1090.8)" d="M23,16.6 C22.9,16.5 22.7,16.3 22.4,15.9 L10.9,1.7 C10.8,1.6 10.7,1.3 10.7,1.1 C10.7,0.8 10.8,0.4 10.9,0.2 L21.1,-15.2 C21.2,-15.4 21.3,-15.7 21.3,-15.9 L21.3,-16.8 C21.3,-17.1 21.2,-17.4 21,-17.6 L4.8,-39.5 C4.8,-39.5 4.4,-40.1 3.8,-40.1 C3.5,-40.1 3.3,-40.1 3,-39.8 C2.6,-39.5 2.5,-39.1 2.5,-38.8 C2.5,-38.2 2.8,-37.7 2.8,-37.7 L10.4,-27.3 C10.6,-27 10.7,-26.6 10.7,-26.1 C10.7,-25.7 10.6,-25.2 10.4,-24.9 L0.3,-9.5 C0.2,-9.3 0.1,-8.9 0.1,-8.7 L0.1,-7.8 C0.1,-7.5 0.2,-7.2 0.4,-7 L11.6,6.9 C11.2,6.8 10.3,6.6 9.1,6.6 C4,6.6 0,10.8 0,15.9 C0,17.3 0.3,18.7 1.1,19.8 C3.2,23 10.7,32.5 10.7,32.5 C10.7,32.5 11.2,33.1 11.9,33.1 C12.1,33.1 12.3,33.1 12.5,32.9 C13,32.5 13.2,32.1 13.2,31.7 C13.2,31.3 13,31 12.9,30.8 C12.6,30.3 9.4,24.5 9.4,24.5 C9.4,24.5 8.7,23.1 8.7,21.3 C8.7,18.1 11.1,15.5 14.3,15.5 C15.6,15.5 16.7,15.9 17.5,16.4 L21.4,18.9 C21.4,18.9 21.8,19.1 22.2,19.1 C22.6,19.1 22.9,19 23.2,18.6 C23.4,18.3 23.5,18 23.5,17.7 C23.5,17.4 23.4,17.2 23.2,16.9 L23,16.6 "/>
<path class="Rest" transform="matrix(0.992,0,0,0.992,832.466,1090.8)" d="M23,16.6 C22.9,16.5 22.7,16.3 22.4,15.9 L10.9,1.7 C10.8,1.6 10.7,1.3 10.7,1.1 C10.7,0.8 10.8,0.4 10.9,0.2 L21.1,-15.2 C21.2,-15.4 21.3,-15.7 21.3,-15.9 L21.3,-16.8 C21.3,-17.1 21.2,-17.4 21,-17.6 L4.8,-39.5 C4.8,-39.5 4.4,-40.1 3.8,-40.1 C3.5,-40.1 3.3,-40.1 3,-39.8 C2.6,-39.5 2.5,-39.1 2.5,-38.8 C2.5,-38.2 2.8,-37.7 2.8,-37.7 L10.4,-27.3 C10.6,-27 10.7,-26.6 10.7,-26.1 C10.7,-25.7 10.6,-25.2 10.4,-24.9 L0.3,-9.5 C0.2,-9.3 0.1,-8.9 0.1,-8.7 L0.1,-7.8 C0.1,-7.5 0.2,-7.2 0.4,-7 L11.6,6.9 C11.2,6.8 10.3,6.6 9.1,6.6 C4,6.6 0,10.8 0,15.9 C0,17.3 0.3,18.7 1.1,19.8 C3.2,23 10.7,32.5 10.7,32.5 C10.7,32.5 11.2,33.1 11.9,33.1 C12.1,33.1 12.3,33.1 12.5,32.9 C13,32.5 13.2,32.1 13.2,31.7 C13.2,31.3 13,31 12.9,30.8 C12.6,30.3 9.4,24.5 9.4,24.5 C9.4,24.5 8.7,23.1 8.7,21.3 C8.7,18.1 11.1,15.5 14.3,15.5 C15.6,15.5 16.7,15.9 17.5,16.4 L21.4,18.9 C21.4,18.9 21.8,19.1 22.2,19.1 C22.6,19.1 22.9,19 23.2,18.6 C23.4,18.3 23.5,18 23.5,17.7 C23.5,17.4 23.4,17.2 23.2,16.9 L23,16.6 "/>
<path class="Rest" transform="matrix(0.992,0,0,0.992,1121.25,709.2)" d="M23,16.6 C22.9,16.5 22.7,16.3 22.4,15.9 L10.9,1.7 C10.8,1.6 10.7,1.3 10.7,1.1 C10.7,0.8 10.8,0.4 10.9,0.2 L21.1,-15.2 C21.2,-15.4 21.3,-15.7 21.3,-15.9 L21.3,-16.8 C21.3,-17.1 21.2,-17.4 21,-17.6 L4.8,-39.5 C4.8,-39.5 4.4,-40.1 3.8,-40.1 C3.5,-40.1 3.3,-40.1 3,-39.8 C2.6,-39.5 2.5,-39.1 2.5,-38.8 C2.5,-38.2 2.8,-37.7 2.8,-37.7 L10.4,-27.3 C10.6,-27 10.7,-26.6 10.7,-26.1 C10.7,-25.7 10.6,-25.2 10.4,-24.9 L0.3,-9.5 C0.2,-9.3 0.1,-8.9 0.1,-8.7 L0.1,-7.8 C0.1,-7.5 0.2,-7.2 0.4,-7 L11.6,6.9 C11.2,6.8 10.3,6.6 9.1,6.6 C4,6.6 0,10.8 0,15.9 C0,17.3 0.3,18.7 1.1,19.8 C3.2,23 10.7,32.5 10.7,32.5 C10.7,32.5 11.2,33.1 11.9,33.1 C12.1,33.1 12.3,33.1 12.5,32.9 C13,32.5 13.2,32.1 13.2,31.7 C13.2,31.3 13,31 12.9,30.8 C12.6,30.3 9.4,24.5 9.4,24.5 C9.4,24.5 8.7,23.1 8.7,21.3 C8.7,18.1 11.1,15.5 14.3,15.5 C15.6,15.5 16.7,15.9 17.5,16.4 L21.4,18.9 C21.4,18.9 21.8,19.1 22.2,19.1 C22.6,19.1 22.9,19 23.2,18.6 C23.4,18.3 23.5,18 23.5,17.7 C23.5,17.4 23.4,17.2 23.2,16.9 L23,16.6 "/>
<path class="Hook" transform="matrix(0.992,0,0,0.992,466.875,259.4)" d="M0,22.7 C0,23 0.1,23.6 0.8,23.8 C5.1,25.2 13.7,30.6 20.2,41.7 C22,44.8 24.9,49.1 24.9,57.4 C24.9,64.6 23.1,72 20.4,79.2 C20.2,79.8 20.1,80.3 20.1,80.7 C20.1,81.4 20.5,81.7 21.2,81.7 C21.8,81.7 22.3,81.3 22.7,80.6 C27.2,72.6 28.9,63.3 28.9,54.2 C28.4,41.3 21,31.8 21,31.8 C21.3,31.8 11.8,19.5 9.1,15.3 C5.4,9.6 3.7,3.9 3.5,3.5 C3.4,3.2 2.5,-0.4 2.5,-0.4 C2.4,-0.8 1.9,-1.2 1.3,-1.2 C0.6,-1.2 0,-0.6 0,0.1 L0,22.7 "/>
<path class="Hook" transform="matrix(0.992,0,0,0.992,1936.47,659.6)" d="M0,22.7 C0,23 0.1,23.6 0.8,23.8 C5.1,25.2 13.7,30.6 20.2,41.7 C22,44.8 24.9,49.1 24.9,57.4 C24.9,64.6 23.1,72 20.4,79.2 C20.2,79.8 20.1,80.3 20.1,80.7 C20.1,81.4 20.5,81.7 21.2,81.7 C21.8,81.7 22.3,81.3 22.7,80.6 C27.2,72.6 28.9,63.3 28.9,54.2 C28.4,41.3 21,31.8 21,31.8 C21.3,31.8 11.8,19.5 9.1,15.3 C5.4,9.6 3.7,3.9 3.5,3.5 C3.4,3.2 2.5,-0.4 2.5,-0.4 C2.4,-0.8 1.9,-1.2 1.3,-1.2 C0.6,-1.2 0,-0.6 0,0.1 L0,22.7 "/>
<path class="Hook" transform="matrix(0.992,0,0,0.992,1734.15,659.6)" d="M0,22.7 C0,23 0.1,23.6 0.8,23.8 C5.1,25.2 13.7,30.6 20.2,41.7 C22,44.8 24.9,49.1 24.9,57.4 C24.9,64.6 23.1,72 20.4,79.2 C20.2,79.8 20.1,80.3 20.1,80.7 C20.1,81.4 20.5,81.7 21.2,81.7 C21.8,81.7 22.3,81.3 22.7,80.6 C27.2,72.6 28.9,63.3 28.9,54.2 C28.4,41.3 21,31.8 21,31.8 C21.3,31.8 11.8,19.5 9.1,15.3 C5.4,9.6 3.7,3.9 3.5,3.5 C3.4,3.2 2.5,-0.4 2.5,-0.4 C2.4,-0.8 1.9,-1.2 1.3,-1.2 C0.6,-1.2 0,-0.6 0,0.1 L0,22.7 "/>
<path class="Hook" transform="matrix(0.992,0,0,0.992,967.607,408.2)" d="M0,-0.1 C0,0.6 0.6,1.2 1.3,1.2 C1.8,1.2 2.4,0.8 2.5,0.4 C2.5,0.3 3.4,-3.2 3.5,-3.5 C3.6,-3.9 4.5,-7.7 8.1,-13.6 C12,-20.1 18,-24.8 23,-31.8 C28,-38.8 30.9,-45.4 30.9,-54.2 C30.9,-63.3 28.9,-70.9 23.5,-80.6 C23.2,-81.3 22.6,-81.7 22,-81.7 C21.8,-81.7 21.6,-81.7 21.5,-81.6 C21,-81.4 20.8,-81 20.8,-80.4 C20.8,-80.1 20.9,-79.7 21.1,-79.2 C25.1,-69.9 26.7,-64.6 26.7,-57.4 C26.7,-49.1 23.8,-44.8 22,-41.7 C15.5,-30.6 5,-25.2 0.8,-23.8 C0.1,-23.6 0,-23 0,-22.7 L0,-0.1 "/>
<path class="Hook" transform="matrix(0.992,0,0,0.992,1555.7,1041.2)" d="M0,22.7 C0,23 0.1,23.6 0.8,23.8 C5.1,25.2 13.7,30.6 20.2,41.7 C22,44.8 24.9,49.1 24.9,57.4 C24.9,64.6 23.1,72 20.4,79.2 C20.2,79.8 20.1,80.3 20.1,80.7 C20.1,81.4 20.5,81.7 21.2,81.7 C21.8,81.7 22.3,81.3 22.7,80.6 C27.2,72.6 28.9,63.3 28.9,54.2 C28.4,41.3 21,31.8 21,31.8 C21.3,31.8 11.8,19.5 9.1,15.3 C5.4,9.6 3.7,3.9 3.5,3.5 C3.4,3.2 2.5,-0.4 2.5,-0.4 C2.4,-0.8 1.9,-1.2 1.3,-1.2 C0.6,-1.2 0,-0.6 0,0.1 L0,22.7 "/>
<path class="Hook" transform="matrix(0.992,0,0,0.992,1936.47,1066)" d="M0,22.7 C0,23 0.1,23.6 0.8,23.8 C5.1,25.2 13.7,30.6 20.2,41.7 C22,44.8 24.9,49.1 24.9,57.4 C24.9,64.6 23.1,72 20.4,79.2 C20.2,79.8 20.1,80.3 20.1,80.7 C20.1,81.4 20.5,81.7 21.2,81.7 C21.8,81.7 22.3,81.3 22.7,80.6 C27.2,72.6 28.9,63.3 28.9,54.2 C28.4,41.3 21,31.8 21,31.8 C21.3,31.8 11.8,19.5 9.1,15.3 C5.4,9.6 3.7,3.9 3.5,3.5 C3.4,3.2 2.5,-0.4 2.5,-0.4 C2.4,-0.8 1.9,-1.2 1.3,-1.2 C0.6,-1.2 0,-0.6 0,0.1 L0,22.7 "/>
<path class="Hook" transform="matrix(0.992,0,0,0.992,693.387,672)" d="M0,22.7 C0,23 0.1,23.6 0.8,23.8 C5.1,25.2 13.7,30.6 20.2,41.7 C22,44.8 24.9,49.1 24.9,57.4 C24.9,64.6 23.1,72 20.4,79.2 C20.2,79.8 20.1,80.3 20.1,80.7 C20.1,81.4 20.5,81.7 21.2,81.7 C21.8,81.7 22.3,81.3 22.7,80.6 C27.2,72.6 28.9,63.3 28.9,54.2 C28.4,41.3 21,31.8 21,31.8 C21.3,31.8 11.8,19.5 9.1,15.3 C5.4,9.6 3.7,3.9 3.5,3.5 C3.4,3.2 2.5,-0.4 2.5,-0.4 C2.4,-0.8 1.9,-1.2 1.3,-1.2 C0.6,-1.2 0,-0.6 0,0.1 L0,22.7 "/>
<path class="Lyrics" d="M594.272,1219.78 L594.272,1230.68 L585.422,1230.68 L585.422,1233.83 L594.272,1233.83 L594.272,1250.58 L598.072,1250.58 L598.072,1206.88 L594.272,1206.88 L594.272,1216.63 L585.422,1216.63 L585.422,1219.78 L594.272,1219.78 M562.472,1225.38 C562.472,1234.68 566.372,1240.83 573.272,1240.83 C580.272,1240.83 584.122,1234.68 584.122,1225.43 C584.122,1216.13 580.272,1209.93 573.272,1209.93 C566.372,1209.93 562.472,1216.13 562.472,1225.38 M580.372,1225.43 C580.372,1232.53 577.572,1237.53 573.272,1237.53 C569.072,1237.53 566.222,1232.53 566.222,1225.43 C566.222,1218.23 569.072,1213.23 573.272,1213.23 C577.572,1213.23 580.372,1218.23 580.372,1225.43"/>
<path class="Lyrics" d="M520.174,1232.63 L520.174,1229.43 L480.724,1229.43 L480.724,1232.63 L520.174,1232.63 M515.974,1249.63 L515.974,1246.48 L489.674,1246.48 L489.674,1236.73 L485.874,1236.73 L485.874,1249.63 L515.974,1249.63 M515.774,1223.98 L515.774,1220.83 L489.824,1220.83 L489.824,1208.73 L486.024,1208.73 L486.024,1223.98 L515.774,1223.98 "/>
<path class="Lyrics" d="M441.081,1228.53 L441.081,1225.33 L433.981,1225.33 L433.981,1206.88 L430.181,1206.88 L430.181,1250.58 L433.981,1250.58 L433.981,1228.53 L441.081,1228.53 M419.531,1213.13 L419.531,1209.88 L406.681,1209.88 L406.681,1213.13 L419.531,1213.13 M425.981,1220.53 L425.981,1217.38 L400.181,1217.38 L400.181,1220.53 L425.981,1220.53 M423.381,1232.38 C423.381,1227.23 419.281,1223.33 413.181,1223.33 C407.081,1223.33 402.981,1227.28 402.981,1232.38 C402.981,1237.48 407.081,1241.38 413.181,1241.38 C419.281,1241.38 423.381,1237.43 423.381,1232.38 M419.581,1232.38 C419.581,1235.78 416.931,1238.23 413.181,1238.23 C409.531,1238.23 406.781,1235.78 406.781,1232.38 C406.781,1228.93 409.531,1226.53 413.181,1226.53 C416.881,1226.53 419.581,1228.93 419.581,1232.38"/>
<path class="Lyrics" d="M357.388,1250.58 L357.388,1206.88 L353.588,1206.88 L353.588,1250.58 L357.388,1250.58 M344.838,1239.33 L344.838,1211.38 L324.188,1211.38 L324.188,1239.33 L344.838,1239.33 M341.038,1236.18 L328.038,1236.18 L328.038,1214.53 L341.038,1214.53 L341.038,1236.18 "/>
<path class="Lyrics" d="M1903.65,818.389 L1913.45,818.389 L1913.45,818.689 C1913.45,824.239 1908.25,829.539 1902.4,831.289 L1904.5,834.189 C1909.5,832.439 1914.05,828.089 1915.5,824.189 C1917.55,828.139 1922.15,831.739 1926,832.939 L1927.95,829.939 C1922.8,828.689 1917.45,824.089 1917.45,818.589 L1917.45,818.389 L1927.1,818.389 L1927.1,815.289 L1903.65,815.289 L1903.65,818.389 M1943.3,822.589 L1943.3,819.389 L1936.65,819.389 L1936.65,805.739 L1932.85,805.739 L1932.85,837.489 L1936.65,837.489 L1936.65,822.589 L1943.3,822.589 M1938.35,848.039 L1938.35,844.839 L1913.1,844.839 L1913.1,835.389 L1909.3,835.389 L1909.3,848.039 L1938.35,848.039 M1909.35,811.039 L1921.55,811.039 L1921.55,807.789 L1909.35,807.789 L1909.35,811.039 "/>
<path class="Lyrics" d="M360.519,472.13 L360.519,468.93 L342.619,468.93 L342.619,461.48 L356.869,461.48 L356.869,458.28 L329.719,458.28 L329.719,450.98 L355.619,450.98 L355.619,437.63 L325.869,437.63 L325.869,440.829 L351.819,440.829 L351.819,447.829 L325.919,447.829 L325.919,461.48 L338.819,461.48 L338.819,468.93 L321.069,468.93 L321.069,472.13 L360.519,472.13 "/>
<path class="Lyrics" d="M714.422,1250.58 L714.422,1206.88 L710.622,1206.88 L710.622,1250.58 L714.422,1250.58 M701.572,1211.53 L680.772,1211.53 L680.772,1214.73 L697.522,1214.73 C696.722,1224.58 690.222,1234.08 679.172,1238.93 L681.372,1241.93 C692.672,1236.58 701.372,1225.73 701.572,1211.53"/>
<path class="Lyrics" d="M1811.07,830.289 L1811.07,827.139 L1771.62,827.139 L1771.62,830.289 L1811.07,830.289 M1806.27,848.789 L1806.27,834.389 L1776.42,834.389 L1776.42,848.789 L1806.27,848.789 M1802.47,845.639 L1780.27,845.639 L1780.27,837.539 L1802.47,837.539 L1802.47,845.639 M1789.57,823.039 L1789.57,807.039 L1785.97,807.039 L1785.97,812.039 L1779.37,812.039 L1779.37,807.089 L1775.72,807.089 L1775.72,823.039 L1789.57,823.039 M1785.97,819.989 L1779.37,819.989 L1779.37,814.989 L1785.97,814.989 L1785.97,819.989 M1806.87,823.039 L1806.87,807.039 L1803.32,807.039 L1803.32,812.039 L1796.57,812.039 L1796.57,807.089 L1792.97,807.089 L1792.97,823.039 L1806.87,823.039 M1803.32,819.989 L1796.57,819.989 L1796.57,814.989 L1803.32,814.989 L1803.32,819.989 "/>
<path class="Lyrics" d="M1942.57,1231.18 L1942.57,1227.98 L1903.12,1227.98 L1903.12,1231.18 L1942.57,1231.18 M1937.77,1249.98 L1937.77,1235.73 L1907.97,1235.73 L1907.97,1249.98 L1937.77,1249.98 M1933.97,1246.83 L1911.77,1246.83 L1911.77,1238.83 L1933.97,1238.83 L1933.97,1246.83 M1938.12,1216.23 C1938.12,1211.28 1932.42,1208.03 1922.82,1208.03 C1913.27,1208.03 1907.62,1211.28 1907.62,1216.23 C1907.62,1221.18 1913.27,1224.43 1922.82,1224.43 C1932.42,1224.43 1938.12,1221.18 1938.12,1216.23 M1934.42,1216.23 C1934.42,1219.43 1929.82,1221.38 1922.82,1221.38 C1915.82,1221.38 1911.32,1219.43 1911.32,1216.23 C1911.32,1212.98 1915.82,1211.08 1922.82,1211.08 C1929.82,1211.08 1934.42,1212.98 1934.42,1216.23"/>
<path class="Lyrics" d="M1738.14,849.439 L1738.14,805.739 L1734.34,805.739 L1734.34,849.439 L1738.14,849.439 M1725.29,810.389 L1704.49,810.389 L1704.49,813.589 L1721.24,813.589 C1720.44,823.439 1713.94,832.939 1702.89,837.789 L1705.09,840.789 C1716.39,835.439 1725.09,824.589 1725.29,810.389"/>
<path class="Lyrics" d="M1603.15,805.739 L1603.15,849.439 L1606.95,849.439 L1606.95,805.739 L1603.15,805.739 M1596.25,819.539 C1596.25,813.139 1591.35,809.139 1584.9,809.139 C1578.55,809.139 1573.5,813.389 1573.5,819.539 C1573.5,825.389 1578.45,829.689 1584.9,829.689 C1591.2,829.689 1596.25,825.739 1596.25,819.539 M1592.55,819.539 C1592.55,823.639 1589.05,826.489 1584.9,826.489 C1580.65,826.489 1577.2,823.589 1577.2,819.539 C1577.2,815.439 1580.7,812.389 1584.9,812.389 C1589.15,812.389 1592.55,815.139 1592.55,819.539 M1600.6,838.339 L1600.25,835.239 C1597.05,835.639 1591.4,835.989 1585.3,836.189 C1580,836.489 1574.85,836.589 1571.1,836.539 L1571.8,839.889 C1575.1,839.839 1579.9,839.689 1585.05,839.439 C1590.6,839.189 1596.85,838.789 1600.6,838.339"/>
<path class="Lyrics" d="M446.33,436.829 C439.58,436.829 434.48,441.03 434.48,447.38 C434.48,453.18 438.68,457.03 444.48,457.68 L444.48,464.98 C440.03,465.18 435.78,465.18 432.53,465.18 L433.23,468.53 C436.88,468.53 441.18,468.38 445.98,468.13 C451.28,467.78 457.28,467.329 460.73,466.829 L460.43,463.78 C457.63,464.18 453.18,464.48 448.28,464.78 L448.28,457.68 C454.03,456.93 458.23,453.079 458.23,447.329 C458.23,440.98 453.08,436.829 446.33,436.829 M446.33,440.079 C451.28,440.079 454.48,442.93 454.48,447.43 C454.48,451.78 451.23,454.579 446.33,454.579 C441.63,454.579 438.18,451.78 438.18,447.38 C438.18,442.93 441.58,440.079 446.33,440.079 M473.98,455.48 L473.98,452.28 L466.98,452.28 L466.98,433.98 L463.13,433.98 L463.13,477.68 L466.98,477.68 L466.98,455.48 L473.98,455.48 "/>
<path class="Lyrics" d="M1465.16,848.789 L1465.16,845.589 L1437.31,845.589 L1437.31,841.589 L1463.51,841.589 L1463.51,832.089 L1450.41,832.089 L1450.41,827.839 L1468.31,827.839 L1468.31,824.789 L1428.86,824.789 L1428.86,827.839 L1446.61,827.839 L1446.61,832.089 L1433.36,832.089 L1433.36,835.139 L1459.71,835.139 L1459.71,838.739 L1433.51,838.739 L1433.51,848.789 L1465.16,848.789 M1463.31,820.839 L1463.31,807.439 L1433.91,807.439 L1433.91,820.839 L1463.31,820.839 M1459.46,817.689 L1437.71,817.689 L1437.71,810.539 L1459.46,810.539 L1459.46,817.689 "/>
<path class="Lyrics" d="M1054.09,1237.33 C1048.09,1234.08 1042.54,1227.03 1042.54,1218.88 L1042.54,1214.43 L1052.74,1214.43 L1052.74,1211.28 L1028.39,1211.28 L1028.39,1214.43 L1038.59,1214.43 L1038.59,1218.93 C1038.59,1227.18 1033.34,1234.63 1026.94,1238.38 L1029.29,1241.18 C1034.34,1237.93 1039.14,1232.33 1040.59,1226.88 C1042.09,1232.03 1047.64,1237.53 1051.74,1240.18 L1054.09,1237.33 M1059.14,1206.88 L1059.14,1250.58 L1062.94,1250.58 L1062.94,1206.88 L1059.14,1206.88 "/>
<path class="Lyrics" d="M1361.28,813.239 L1361.28,810.189 L1328.48,810.189 L1328.48,813.239 L1342.88,813.239 L1342.88,814.139 C1342.88,821.139 1333.63,827.439 1326.73,828.639 L1328.53,831.839 C1335.78,829.989 1343.03,824.639 1344.83,819.689 C1346.93,824.489 1354.13,829.939 1361.13,831.939 L1363.08,828.739 C1356.53,827.439 1346.88,821.039 1346.88,814.139 L1346.88,813.239 L1361.28,813.239 M1364.58,843.889 L1364.58,840.689 L1346.68,840.689 L1346.68,829.789 L1342.88,829.789 L1342.88,840.689 L1325.13,840.689 L1325.13,843.889 L1364.58,843.889 "/>
<path class="Lyrics" d="M1251.71,837.139 L1251.41,834.039 C1249.41,834.339 1246.66,834.589 1243.46,834.789 C1243.96,828.939 1244.51,822.989 1245.06,817.139 L1241.26,816.689 C1240.81,822.789 1240.41,828.939 1240.01,834.989 C1239.46,834.989 1238.96,835.039 1238.41,835.039 C1236.71,835.139 1235.01,835.239 1233.26,835.289 L1232.01,816.739 L1228.16,817.189 L1229.76,835.339 C1227.51,835.389 1225.36,835.389 1223.31,835.389 C1223.46,836.539 1223.66,837.639 1223.86,838.739 C1227.81,838.689 1233.06,838.489 1238.16,838.289 C1243.46,837.989 1248.46,837.589 1251.71,837.139 M1258.91,849.439 L1258.91,805.739 L1255.11,805.739 L1255.11,849.439 L1258.91,849.439 M1249.01,813.539 L1249.01,810.339 L1224.51,810.339 L1224.51,813.539 L1249.01,813.539 "/>
<path class="Lyrics" d="M1144.51,1228.58 L1144.51,1225.43 L1138.06,1225.43 C1139.01,1220.98 1139.51,1215.13 1139.51,1209.43 L1109.86,1209.43 L1109.86,1212.58 L1135.61,1212.58 C1135.61,1216.08 1135.11,1222.03 1134.31,1225.43 L1105.06,1225.43 L1105.06,1228.58 L1144.51,1228.58 M1109.36,1234.93 L1109.36,1238.08 L1135.71,1238.08 L1135.71,1250.88 L1139.56,1250.88 L1139.56,1234.93 L1109.36,1234.93 "/>
<path class="Lyrics" d="M923.15,843.889 L923.15,840.689 L905.25,840.689 L905.25,833.239 L919.5,833.239 L919.5,830.039 L892.35,830.039 L892.35,822.739 L918.25,822.739 L918.25,809.389 L888.5,809.389 L888.5,812.589 L914.45,812.589 L914.45,819.589 L888.55,819.589 L888.55,833.239 L901.45,833.239 L901.45,840.689 L883.7,840.689 L883.7,843.889 L923.15,843.889 "/>
<path class="Lyrics" d="M536.571,433.98 L532.821,433.98 L532.821,477.68 L536.571,477.68 L536.571,454.78 L543.621,454.78 L543.621,451.579 L536.571,451.579 L536.571,433.98 M528.971,462.579 C523.121,463.68 515.371,464.13 508.421,464.079 L508.421,453.53 L524.721,453.53 L524.721,438.03 L504.521,438.03 L504.521,441.18 L520.921,441.18 L520.921,450.38 L504.621,450.38 L504.621,467.28 L508.321,467.28 C515.471,467.28 524.571,466.63 529.471,465.63 L528.971,462.579 "/>
<path class="Lyrics" d="M1222.15,1250.58 L1222.15,1206.88 L1218.35,1206.88 L1218.35,1250.58 L1222.15,1250.58 M1206.25,1212.98 L1206.25,1209.78 L1193.5,1209.78 L1193.5,1212.98 L1206.25,1212.98 M1213,1220.53 L1213,1217.38 L1187.05,1217.38 L1187.05,1220.53 L1213,1220.53 M1210.4,1232.38 C1210.4,1227.23 1206.3,1223.33 1200.2,1223.33 C1194.1,1223.33 1190,1227.28 1190,1232.38 C1190,1237.48 1194.1,1241.38 1200.2,1241.38 C1206.3,1241.38 1210.4,1237.43 1210.4,1232.38 M1206.6,1232.38 C1206.6,1235.83 1204,1238.28 1200.2,1238.28 C1196.45,1238.28 1193.75,1235.83 1193.75,1232.38 C1193.75,1228.88 1196.45,1226.48 1200.2,1226.48 C1203.9,1226.48 1206.6,1228.88 1206.6,1232.38"/>
<path class="Lyrics" d="M819.415,843.439 L819.415,840.239 L779.965,840.239 L779.965,843.439 L819.415,843.439 M815.565,820.589 C815.565,813.939 809.265,809.539 799.615,809.539 C790.115,809.539 783.765,813.939 783.765,820.589 C783.765,827.289 790.115,831.639 799.615,831.639 C809.215,831.639 815.565,827.289 815.565,820.589 M811.765,820.639 C811.765,825.289 806.915,828.389 799.615,828.389 C792.365,828.389 787.565,825.289 787.565,820.639 C787.565,815.889 792.365,812.739 799.615,812.739 C806.965,812.739 811.765,815.889 811.765,820.639"/>
<path class="Lyrics" d="M681.944,826.889 L681.944,807.739 L678.144,807.739 L678.144,814.039 L665.294,814.039 L665.294,807.839 L661.494,807.839 L661.494,826.889 L681.944,826.889 M698.044,847.239 C692.444,846.689 684.844,842.939 683.744,838.789 L696.494,838.789 L696.494,835.689 L666.594,835.689 L666.594,838.789 L679.494,838.789 C678.444,842.939 671.294,846.689 664.994,847.189 L666.644,850.189 C672.844,849.389 679.644,845.839 681.594,842.089 C683.844,845.889 689.694,849.289 696.194,850.239 L698.044,847.239 M695.194,829.439 L695.194,805.739 L691.394,805.739 L691.394,829.439 L695.194,829.439 M678.144,823.689 L665.294,823.689 L665.294,817.189 L678.144,817.189 L678.144,823.689 M688.344,832.939 L688.344,829.689 L674.794,829.689 L674.794,832.939 L688.344,832.939 "/>
<path class="Lyrics" d="M541.339,808.589 C534.589,808.589 529.489,812.789 529.489,819.139 C529.489,824.939 533.689,828.789 539.489,829.439 L539.489,836.739 C535.039,836.939 530.789,836.939 527.539,836.939 L528.239,840.289 C531.889,840.289 536.189,840.139 540.989,839.889 C546.289,839.539 552.289,839.089 555.739,838.589 L555.439,835.539 C552.639,835.939 548.189,836.239 543.289,836.539 L543.289,829.439 C549.039,828.689 553.239,824.839 553.239,819.089 C553.239,812.739 548.089,808.589 541.339,808.589 M541.339,811.839 C546.289,811.839 549.489,814.689 549.489,819.189 C549.489,823.539 546.239,826.339 541.339,826.339 C536.639,826.339 533.189,823.539 533.189,819.139 C533.189,814.689 536.589,811.839 541.339,811.839 M568.989,827.239 L568.989,824.039 L561.989,824.039 L561.989,805.739 L558.139,805.739 L558.139,849.439 L561.989,849.439 L561.989,827.239 L568.989,827.239 "/>
<path class="Lyrics" d="M698.815,461.43 C694.065,462.579 685.515,463.23 678.015,463.28 L678.015,438.329 L674.215,438.329 L674.215,466.63 L676.865,466.63 C683.515,466.63 694.015,465.88 699.365,464.63 L698.815,461.43 M706.315,433.98 L702.515,433.98 L702.515,477.68 L706.315,477.68 L706.315,454.579 L713.465,454.579 L713.465,451.329 L706.315,451.329 L706.315,433.98 "/>
<path class="Lyrics" d="M1301.79,1213.23 L1311.84,1213.23 C1311.84,1214.33 1311.79,1215.18 1311.79,1215.58 C1311.59,1221.38 1306.04,1226.88 1300.54,1228.98 L1302.74,1231.93 C1307.44,1229.93 1312.54,1225.23 1313.74,1221.13 C1315.54,1225.08 1319.99,1229.03 1324.19,1230.73 L1326.29,1227.68 C1321.29,1226.03 1316.09,1221.23 1315.74,1215.63 C1315.69,1215.18 1315.69,1214.33 1315.69,1213.23 L1325.64,1213.23 L1325.64,1210.03 L1301.79,1210.03 L1301.79,1213.23 M1306.94,1235.13 L1306.94,1238.28 L1331.34,1238.28 L1331.34,1250.63 L1335.14,1250.63 L1335.14,1235.13 L1306.94,1235.13 M1341.74,1221.88 L1341.74,1218.68 L1335.09,1218.68 L1335.09,1206.88 L1331.29,1206.88 L1331.29,1232.83 L1335.09,1232.83 L1335.09,1221.88 L1341.74,1221.88 "/>
<path class="Lyrics" d="M462.145,849.439 L462.145,805.739 L458.345,805.739 L458.345,849.439 L462.145,849.439 M449.295,810.389 L428.495,810.389 L428.495,813.589 L445.245,813.589 C444.445,823.439 437.945,832.939 426.895,837.789 L429.095,840.789 C440.395,835.439 449.095,824.589 449.295,810.389"/>
<path class="Lyrics" d="M355.013,841.989 C355.013,837.289 349.963,834.339 340.513,834.339 C331.063,834.339 326.063,837.239 326.063,841.989 C326.063,846.689 331.063,849.539 340.513,849.539 C349.963,849.539 355.013,846.639 355.013,841.989 M343.813,825.089 C343.813,820.589 339.363,817.889 333.513,817.889 C327.563,817.889 323.163,820.589 323.163,825.089 C323.163,829.439 327.613,832.239 333.513,832.239 C339.363,832.239 343.813,829.439 343.813,825.089 M340.513,837.589 C347.113,837.589 351.063,839.189 351.063,841.989 C351.063,844.789 347.113,846.339 340.513,846.339 C333.913,846.339 330.013,844.739 330.013,841.989 C330.013,839.239 333.913,837.589 340.513,837.589 M361.163,823.339 L354.513,823.339 L354.513,817.539 L361.163,817.539 L361.163,814.339 L354.513,814.339 L354.513,805.739 L350.713,805.739 L350.713,833.339 L354.513,833.339 L354.513,826.539 L361.163,826.539 L361.163,823.339 M340.063,825.089 C340.063,827.589 336.963,829.239 333.513,829.239 C330.113,829.239 326.863,827.589 326.863,825.089 C326.863,822.439 330.063,820.889 333.513,820.889 C336.963,820.889 340.063,822.439 340.063,825.089 M346.163,815.989 L346.163,812.839 L320.413,812.839 L320.413,815.989 L346.163,815.989 M339.763,809.889 L339.763,806.689 L326.963,806.689 L326.963,809.889 L339.763,809.889 "/>
<path class="Lyrics" d="M1836.88,1232.28 L1836.88,1206.88 L1833.08,1206.88 L1833.08,1232.28 L1836.88,1232.28 M1838.78,1250.68 L1841.08,1247.98 C1836.93,1246.43 1832.58,1241.63 1832.58,1236.23 L1832.58,1233.73 L1828.78,1233.73 L1828.78,1236.38 C1828.78,1241.68 1824.73,1246.43 1820.03,1248.73 L1822.43,1251.28 C1825.98,1249.53 1829.63,1245.58 1830.73,1242.28 C1831.78,1245.43 1835.73,1249.23 1838.73,1250.68 L1838.78,1250.68 M1822.53,1244.68 C1819.18,1243.38 1816.08,1240.33 1816.08,1235.68 L1816.08,1233.88 L1812.28,1233.88 L1812.28,1236.03 C1812.28,1241.33 1807.88,1246.13 1803.43,1248.08 L1805.73,1250.78 C1809.48,1248.98 1813.33,1244.78 1814.38,1241.48 C1815.38,1243.88 1817.73,1246.13 1819.93,1247.28 L1822.53,1244.68 M1813.58,1209.33 C1807.38,1209.33 1802.23,1213.53 1802.23,1219.88 C1802.23,1226.23 1807.38,1230.23 1813.58,1230.23 C1819.78,1230.23 1824.88,1226.23 1824.88,1219.83 C1824.88,1213.53 1819.78,1209.33 1813.58,1209.33 M1813.58,1212.43 C1818.18,1212.43 1821.23,1215.53 1821.23,1219.88 C1821.23,1224.18 1818.13,1227.13 1813.58,1227.13 C1809.18,1227.13 1805.93,1224.18 1805.93,1219.83 C1805.93,1215.53 1809.18,1212.43 1813.58,1212.43"/>
<path class="Lyrics" d="M1460.61,1232.53 L1460.61,1229.33 L1421.16,1229.33 L1421.16,1232.53 L1460.61,1232.53 M1456.16,1249.33 L1456.16,1246.13 L1430.16,1246.13 L1430.16,1236.58 L1426.36,1236.58 L1426.36,1249.33 L1456.16,1249.33 M1456.11,1216.73 C1456.11,1211.23 1450.41,1208.18 1440.91,1208.18 C1431.41,1208.18 1425.71,1211.23 1425.71,1216.73 C1425.71,1222.33 1431.36,1225.38 1440.86,1225.38 C1450.41,1225.38 1456.11,1222.33 1456.11,1216.73 M1440.91,1211.33 C1447.86,1211.33 1452.36,1213.13 1452.36,1216.78 C1452.36,1220.33 1447.81,1222.18 1440.86,1222.18 C1433.96,1222.18 1429.51,1220.33 1429.51,1216.78 C1429.51,1213.13 1434.01,1211.33 1440.91,1211.33"/>
<path class="Lyrics" d="M1889.57,477.03 L1889.57,473.829 L1861.72,473.829 L1861.72,469.829 L1887.92,469.829 L1887.92,460.329 L1874.82,460.329 L1874.82,456.079 L1892.72,456.079 L1892.72,453.03 L1853.27,453.03 L1853.27,456.079 L1871.02,456.079 L1871.02,460.329 L1857.77,460.329 L1857.77,463.38 L1884.12,463.38 L1884.12,466.98 L1857.92,466.98 L1857.92,477.03 L1889.57,477.03 M1887.72,449.079 L1887.72,435.68 L1858.32,435.68 L1858.32,449.079 L1887.72,449.079 M1883.87,445.93 L1862.12,445.93 L1862.12,438.78 L1883.87,438.78 L1883.87,445.93 "/>
<path class="Lyrics" d="M1741.24,458.079 L1741.24,437.829 L1720.54,437.829 L1720.54,458.079 L1741.24,458.079 M1737.44,454.93 L1724.34,454.93 L1724.34,440.98 L1737.44,440.98 L1737.44,454.93 M1759.29,450.23 L1759.29,447.03 L1752.64,447.03 L1752.64,433.98 L1748.84,433.98 L1748.84,465.73 L1752.64,465.73 L1752.64,450.23 L1759.29,450.23 M1754.34,476.18 L1754.34,473.03 L1729.09,473.03 L1729.09,462.73 L1725.29,462.73 L1725.29,476.18 L1754.34,476.18 "/>
<path class="Lyrics" d="M1619.48,454.13 C1614.53,452.43 1608.78,447.079 1608.78,440.13 L1608.78,436.079 L1604.93,436.079 L1604.93,440.28 C1604.93,447.23 1600.23,452.73 1593.98,455.68 L1596.08,458.63 C1601.18,455.98 1605.63,451.63 1606.98,446.98 C1608.73,451.38 1613.03,455.13 1617.23,457.18 L1619.48,454.13 M1628.98,469.28 C1628.98,464.079 1623.48,460.88 1614.28,460.88 C1605.13,460.88 1599.68,464.079 1599.68,469.28 C1599.68,474.48 1605.13,477.63 1614.28,477.63 C1623.48,477.63 1628.98,474.48 1628.98,469.28 M1614.28,464.03 C1620.93,464.03 1625.08,465.93 1625.08,469.28 C1625.08,472.63 1620.93,474.48 1614.28,474.48 C1607.68,474.48 1603.58,472.63 1603.58,469.28 C1603.58,465.93 1607.68,464.03 1614.28,464.03 M1635.03,449.03 L1635.03,445.829 L1628.38,445.829 L1628.38,433.98 L1624.58,433.98 L1624.58,460.93 L1628.38,460.93 L1628.38,449.03 L1635.03,449.03 "/>
<path class="Lyrics" d="M1559.32,1250.58 L1559.32,1206.88 L1555.52,1206.88 L1555.52,1250.58 L1559.32,1250.58 M1524.82,1225.58 C1524.82,1234.88 1528.92,1241.08 1536.07,1241.08 C1543.32,1241.08 1547.37,1234.88 1547.37,1225.63 C1547.37,1216.38 1543.32,1210.18 1536.07,1210.18 C1528.92,1210.18 1524.82,1216.38 1524.82,1225.58 M1543.77,1225.63 C1543.77,1232.78 1540.72,1237.78 1536.07,1237.78 C1531.47,1237.78 1528.42,1232.78 1528.42,1225.63 C1528.42,1218.43 1531.47,1213.48 1536.07,1213.48 C1540.72,1213.48 1543.77,1218.43 1543.77,1225.63"/>
<path class="Lyrics" d="M1544.77,477.68 L1544.77,433.98 L1541.02,433.98 L1541.02,477.68 L1544.77,477.68 M1536.12,475.48 L1536.12,435.029 L1532.42,435.029 L1532.42,449.73 L1524.67,449.73 L1524.67,452.93 L1532.42,452.93 L1532.42,475.48 L1536.12,475.48 M1529.77,463.88 C1525.02,460.73 1519.92,454.38 1519.92,445.88 L1519.92,438.03 L1516.17,438.03 L1516.17,445.98 C1516.17,454.53 1511.77,461.98 1506.82,465.13 L1509.17,467.98 C1513.52,464.829 1517.12,459.13 1518.07,454.13 C1519.47,459.079 1524.07,464.28 1527.42,466.68 L1529.77,463.88 "/>
<path class="Lyrics" d="M1408.1,443.829 C1408.1,438.329 1402.35,435.279 1392.75,435.279 C1383.15,435.279 1377.4,438.329 1377.4,443.829 C1377.4,449.03 1382.3,452.03 1390.75,452.43 L1390.75,457.23 L1373,457.23 L1373,460.38 L1412.45,460.38 L1412.45,457.23 L1394.55,457.23 L1394.55,452.43 C1403.05,452.03 1408.1,449.03 1408.1,443.829 M1392.75,438.43 C1399.75,438.43 1404.4,440.23 1404.4,443.88 C1404.4,447.43 1399.7,449.28 1392.7,449.28 C1385.7,449.28 1381.15,447.43 1381.15,443.88 C1381.15,440.23 1385.75,438.43 1392.75,438.43 M1408,476.43 L1408,473.23 L1382,473.23 L1382,463.78 L1378.2,463.78 L1378.2,476.43 L1408,476.43 "/>
<path class="Lyrics" d="M1242.67,471.38 L1242.67,468.18 L1222.07,468.18 L1222.07,452.38 L1218.27,452.38 L1218.27,468.18 L1203.22,468.18 L1203.22,471.38 L1242.67,471.38 M1237.37,438.53 L1207.27,438.53 L1207.27,441.73 L1233.42,441.73 L1233.42,445.98 C1233.42,451.73 1232.87,458.329 1231.87,462.43 L1235.62,463.03 C1236.92,457.48 1237.32,450.68 1237.37,444.03 L1237.37,438.53 "/>
<path class="Lyrics" d="M1109.77,447.18 L1109.77,443.98 L1103.12,443.98 L1103.12,433.98 L1099.32,433.98 L1099.32,454.93 L1103.12,454.93 L1103.12,447.18 L1109.77,447.18 M1101.57,459.98 L1101.57,456.88 L1091.52,456.88 L1091.52,459.98 L1101.57,459.98 M1107.32,465.13 L1107.32,462.079 L1085.47,462.079 L1085.47,465.13 L1107.32,465.13 M1104.62,472.329 C1104.62,468.68 1100.92,466.48 1096.32,466.48 C1091.82,466.48 1088.12,468.68 1088.12,472.329 C1088.12,475.88 1091.82,478.23 1096.32,478.23 C1100.92,478.23 1104.62,475.88 1104.62,472.329 M1100.92,472.329 C1100.92,474.079 1098.87,475.23 1096.32,475.23 C1093.87,475.23 1091.82,474.079 1091.82,472.329 C1091.82,470.63 1093.87,469.48 1096.32,469.48 C1098.87,469.48 1100.92,470.579 1100.92,472.329 M1086.72,474.829 L1086.07,471.73 C1083.67,472.48 1079.72,473.23 1077.27,473.18 L1077.27,460.73 L1073.52,460.73 L1073.52,476.48 C1079.07,476.53 1083.62,475.73 1086.72,474.829 M1081.32,436.13 C1075.07,436.13 1069.97,440.28 1069.97,446.48 C1069.97,452.73 1075.07,456.68 1081.32,456.68 C1087.52,456.68 1092.62,452.73 1092.62,446.43 C1092.62,440.28 1087.52,436.13 1081.32,436.13 M1081.32,439.38 C1085.92,439.38 1088.97,442.38 1088.97,446.48 C1088.97,450.63 1085.87,453.43 1081.32,453.43 C1076.92,453.43 1073.67,450.63 1073.67,446.43 C1073.67,442.38 1076.92,439.38 1081.32,439.38"/>
<path class="Lyrics" d="M1681.72,1231.28 L1681.72,1228.08 L1663.82,1228.08 L1663.82,1223.13 L1676.77,1223.13 L1676.77,1208.73 L1647.22,1208.73 L1647.22,1223.13 L1660.02,1223.13 L1660.02,1228.08 L1642.27,1228.08 L1642.27,1231.28 L1681.72,1231.28 M1676.92,1250.13 L1676.92,1235.43 L1647.02,1235.43 L1647.02,1250.13 L1676.92,1250.13 M1673.17,1246.98 L1650.82,1246.98 L1650.82,1238.58 L1673.17,1238.58 L1673.17,1246.98 M1672.97,1219.98 L1651.02,1219.98 L1651.02,1211.83 L1672.97,1211.83 L1672.97,1219.98 "/>
<path class="Lyrics" d="M992.873,464.43 C986.873,461.18 981.323,454.13 981.323,445.98 L981.323,441.53 L991.523,441.53 L991.523,438.38 L967.173,438.38 L967.173,441.53 L977.373,441.53 L977.373,446.03 C977.373,454.28 972.123,461.73 965.723,465.48 L968.073,468.28 C973.123,465.03 977.923,459.43 979.373,453.98 C980.873,459.13 986.423,464.63 990.523,467.28 L992.873,464.43 M997.923,433.98 L997.923,477.68 L1001.72,477.68 L1001.72,433.98 L997.923,433.98 "/>
<path class="Lyrics" d="M886.603,452.38 L886.603,449.43 L860.603,449.43 L860.603,445.28 L885.703,445.28 L885.703,435.68 L856.653,435.68 L856.653,438.68 L881.903,438.68 L881.903,442.43 L856.803,442.43 L856.803,452.38 L869.303,452.38 L869.303,456.53 L851.553,456.53 L851.553,459.68 L891.003,459.68 L891.003,456.53 L873.103,456.53 L873.103,452.38 L886.603,452.38 M885.803,477.079 L885.803,461.73 L882.003,461.73 L882.003,466.43 L860.553,466.43 L860.553,461.829 L856.753,461.829 L856.753,477.079 L885.803,477.079 M882.003,473.93 L860.553,473.93 L860.553,469.48 L882.003,469.48 L882.003,473.93 "/>
<path class="Lyrics" d="M778.82,437.03 C772.12,437.03 767.02,441.28 767.02,447.63 C767.02,453.329 771.17,457.23 776.97,457.93 L776.97,464.98 C772.42,465.079 768.02,465.13 764.67,465.13 L765.32,468.48 C768.17,468.48 774.67,468.329 779.57,468.13 C784.87,467.829 790.72,467.38 794.17,466.98 L793.82,463.88 C790.97,464.28 785.72,464.63 780.77,464.829 L780.77,457.93 C786.57,457.23 790.72,453.329 790.72,447.579 C790.72,441.23 785.62,437.03 778.82,437.03 M778.82,440.23 C783.77,440.23 787.02,443.13 787.02,447.68 C787.02,452.079 783.72,454.93 778.82,454.93 C774.12,454.93 770.72,452.079 770.72,447.63 C770.72,443.13 774.07,440.23 778.82,440.23 M800.47,477.68 L800.47,433.98 L796.72,433.98 L796.72,477.68 L800.47,477.68 "/>
<path class="NoteDot" transform="matrix(0.992,0,0,0.992,899.779,340)" d="M0,0 C0,2.8 2.2,5 5,5 C7.8,5 10,2.8 10,0 C10,-2.8 7.8,-5 5,-5 C2.2,-5 0,-2.8 0,0"/>
<path class="NoteDot" transform="matrix(0.992,0,0,0.992,1850.15,1128)" d="M0,0 C0,2.8 2.2,5 5,5 C7.8,5 10,2.8 10,0 C10,-2.8 7.8,-5 5,-5 C2.2,-5 0,-2.8 0,0"/>
<path class="NoteDot" transform="matrix(0.992,0,0,0.992,1469.38,1103.2)" d="M0,0 C0,2.8 2.2,5 5,5 C7.8,5 10,2.8 10,0 C10,-2.8 7.8,-5 5,-5 C2.2,-5 0,-2.8 0,0"/>
<path class="NoteDot" transform="matrix(0.992,0,0,0.992,576.765,746.4)" d="M0,0 C0,2.8 2.2,5 5,5 C7.8,5 10,2.8 10,0 C10,-2.8 7.8,-5 5,-5 C2.2,-5 0,-2.8 0,0"/>
<path class="NoteDot" transform="matrix(0.992,0,0,0.992,931.925,771.2)" d="M0,0 C0,2.8 2.2,5 5,5 C7.8,5 10,2.8 10,0 C10,-2.8 7.8,-5 5,-5 C2.2,-5 0,-2.8 0,0"/>
<path class="NoteDot" transform="matrix(0.992,0,0,0.992,1617.53,746.4)" d="M0,0 C0,2.8 2.2,5 5,5 C7.8,5 10,2.8 10,0 C10,-2.8 7.8,-5 5,-5 C2.2,-5 0,-2.8 0,0"/>
<path class="NoteDot" transform="matrix(0.992,0,0,0.992,1819.85,721.6)" d="M0,0 C0,2.8 2.2,5 5,5 C7.8,5 10,2.8 10,0 C10,-2.8 7.8,-5 5,-5 C2.2,-5 0,-2.8 0,0"/>
<path class="NoteDot" transform="matrix(0.992,0,0,0.992,725.307,1128)" d="M0,0 C0,2.8 2.2,5 5,5 C7.8,5 10,2.8 10,0 C10,-2.8 7.8,-5 5,-5 C2.2,-5 0,-2.8 0,0"/>
<path class="NoteDot" transform="matrix(0.992,0,0,0.992,369.295,340)" d="M0,0 C0,2.8 2.2,5 5,5 C7.8,5 10,2.8 10,0 C10,-2.8 7.8,-5 5,-5 C2.2,-5 0,-2.8 0,0"/>
</svg>
