<?xml version="1.0" encoding="UTF-8" standalone="no"?>
<svg width="2098.8px" height="1418.4px" viewBox="0 0 2098.8 1418.4"
 xmlns="http://www.w3.org/2000/svg" xmlns:xlink="http://www.w3.org/1999/xlink" version="1.2" baseProfile="tiny">
<title>44 하느님의 어린양.musicxml (2)</title>
<desc>Generated by MuseScore 4.2.1</desc>
<polyline class="StaffLines" fill="none" stroke="#000000" stroke-width="2.73" stroke-linejoin="bevel" points="212.598,314 1886.6,314"/>
<polyline class="StaffLines" fill="none" stroke="#000000" stroke-width="2.73" stroke-linejoin="bevel" points="212.598,338.8 1886.6,338.8"/>
<polyline class="StaffLines" fill="none" stroke="#000000" stroke-width="2.73" stroke-linejoin="bevel" points="212.598,363.6 1886.6,363.6"/>
<polyline class="StaffLines" fill="none" stroke="#000000" stroke-width="2.73" stroke-linejoin="bevel" points="212.598,388.4 1886.6,388.4"/>
<polyline class="StaffLines" fill="none" stroke="#000000" stroke-width="2.73" stroke-linejoin="bevel" points="212.598,413.2 1886.6,413.2"/>
<polyline class="StaffLines" fill="none" stroke="#000000" stroke-width="2.73" stroke-linejoin="bevel" points="212.598,659.6 1886.6,659.6"/>
<polyline class="StaffLines" fill="none" stroke="#000000" stroke-width="2.73" stroke-linejoin="bevel" points="212.598,684.4 1886.6,684.4"/>
<polyline class="StaffLines" fill="none" stroke="#000000" stroke-width="2.73" stroke-linejoin="bevel" points="212.598,709.2 1886.6,709.2"/>
<polyline class="StaffLines" fill="none" stroke="#000000" stroke-width="2.73" stroke-linejoin="bevel" points="212.598,734 1886.6,734"/>
<polyline class="StaffLines" fill="none" stroke="#000000" stroke-width="2.73" stroke-linejoin="bevel" points="212.598,758.8 1886.6,758.8"/>
<polyline class="StaffLines" fill="none" stroke="#000000" stroke-width="2.73" stroke-linejoin="bevel" points="212.598,1005.2 1886.6,1005.2"/>
<polyline class="StaffLines" fill="none" stroke="#000000" stroke-width="2.73" stroke-linejoin="bevel" points="212.598,1030 1886.6,1030"/>
<polyline class="StaffLines" fill="none" stroke="#000000" stroke-width="2.73" stroke-linejoin="bevel" points="212.598,1054.8 1886.6,1054.8"/>
<polyline class="StaffLines" fill="none" stroke="#000000" stroke-width="2.73" stroke-linejoin="bevel" points="212.598,1079.6 1886.6,1079.6"/>
<polyline class="StaffLines" fill="none" stroke="#000000" stroke-width="2.73" stroke-linejoin="bevel" points="212.598,1104.4 1886.6,1104.4"/>
<path class="MeasureNumber" d="M232.288,236.24 C230.168,236.48 227.568,236.64 225.328,236.64 C224.208,236.64 222.928,236.6 221.488,236.52 C220.168,236.44 218.848,236.36 217.488,236.28 L216.488,236.24 L212.608,244.68 L214.088,245.16 L215.048,243.56 C216.928,240.44 217.808,240 221.888,240.04 L228.648,240.04 L224.288,246.28 C219.168,253.48 219.168,253.48 217.208,256.68 C215.448,259.52 214.728,261.28 214.728,262.72 C214.728,264.12 215.608,265 217.008,265 C218.488,265 219.248,264.28 219.768,262.4 C221.768,254.88 222.968,252.28 228.528,243.28 L232.288,237.44 L232.288,236.24 "/>
<path class="MeasureNumber" d="M228.958,927.28 L227.798,927.28 C225.598,928.92 221.358,930.32 218.478,930.32 L217.998,932.08 L220.758,932.08 C223.198,932.08 223.478,932.16 223.478,932.88 C223.478,933.24 223.478,933.24 223.078,934.68 L218.798,950.68 C218.278,952.68 218.238,952.8 217.878,953.16 C217.478,953.56 216.638,953.68 214.518,953.72 L212.798,953.72 L212.598,955.6 L227.398,955.6 L227.638,953.72 L225.478,953.72 C222.878,953.72 222.318,953.52 222.318,952.64 C222.318,952.36 222.478,951.44 222.678,950.68 L228.958,927.28 M246.433,941.04 C248.313,940.44 249.073,940.12 250.033,939.48 C251.913,938.24 253.073,936.04 253.073,933.8 C253.073,930 250.033,927.44 245.553,927.44 C241.193,927.44 237.513,930.16 237.513,933.44 C237.513,935.08 238.513,936.2 240.033,936.2 C241.353,936.2 242.313,935.24 242.313,933.92 C242.313,933.24 242.113,932.76 241.473,932.12 C241.073,931.76 240.913,931.48 240.913,931.2 C240.913,930.24 242.913,929.24 244.793,929.24 C247.473,929.24 249.073,930.72 249.073,933.2 C249.073,936.76 246.553,940.12 243.873,940.12 C243.753,940.12 243.393,940.08 242.953,940.04 C241.793,939.96 241.793,939.96 241.553,939.96 C240.673,939.96 240.193,940.36 240.193,941.08 C240.193,941.72 240.633,942.12 241.353,942.12 C241.553,942.12 241.833,942.08 242.153,942.04 C242.713,941.92 243.313,941.88 243.673,941.88 C245.553,941.88 246.833,943.56 246.833,946.04 C246.833,950.36 244.713,954.52 239.873,954.52 C237.633,954.52 235.713,953.4 235.713,952.12 C235.713,951.68 235.873,951.52 236.513,951.24 C237.673,950.72 238.153,950 238.153,948.92 C238.153,947.52 237.033,946.44 235.593,946.44 C233.873,946.44 232.753,947.8 232.753,949.88 C232.753,953.76 235.713,956.2 240.513,956.2 C246.553,956.2 251.153,952.16 251.153,946.8 C251.153,943.68 249.233,941.92 246.433,941.04"/>
<path class="MeasureNumber" d="M228.958,581.68 L227.798,581.68 C225.598,583.32 221.358,584.72 218.478,584.72 L217.998,586.48 L220.758,586.48 C223.198,586.48 223.478,586.56 223.478,587.28 C223.478,587.64 223.478,587.64 223.078,589.08 L218.798,605.08 C218.278,607.08 218.238,607.2 217.878,607.56 C217.478,607.96 216.638,608.08 214.518,608.12 L212.798,608.12 L212.598,610 L227.398,610 L227.638,608.12 L225.478,608.12 C222.878,608.12 222.318,607.92 222.318,607.04 C222.318,606.76 222.478,605.84 222.678,605.08 L228.958,581.68 M246.873,581.84 C238.273,581.84 233.993,593.68 233.993,600.72 C233.993,606.52 236.873,610.6 240.953,610.6 C247.793,610.6 253.913,601.72 253.913,591.8 C253.913,585.84 251.073,581.84 246.873,581.84 M246.833,583.44 C248.913,583.44 250.033,585.28 250.033,588.72 C250.033,592.64 249.033,597.72 247.393,601.84 C245.473,606.84 243.553,609 241.153,609 C238.993,609 237.793,607.08 237.793,603.68 C237.793,598.48 239.633,591.52 242.193,586.88 C243.433,584.64 245.033,583.44 246.833,583.44"/>
<path class="TieSegment" stroke="#000000" stroke-width="1.24" stroke-linecap="round" stroke-linejoin="round" fill-rule="evenodd" d="M964.662,1024.2 C995.682,985.975 1088.74,985.975 1119.76,1024.2 C1088.74,993.911 995.682,993.911 964.662,1024.2"/>
<path class="TieSegment" stroke="#000000" stroke-width="1.24" stroke-linecap="round" stroke-linejoin="round" fill-rule="evenodd" d="M477.748,1122.6 C508.768,1143.13 601.827,1143.13 632.847,1122.6 C601.827,1151.06 508.768,1151.06 477.748,1122.6"/>
<path class="TieSegment" stroke="#000000" stroke-width="1.24" stroke-linecap="round" stroke-linejoin="round" fill-rule="evenodd" d="M943.018,431.401 C974.327,452.021 1068.25,452.021 1099.56,431.401 C1068.25,459.957 974.327,459.957 943.018,431.401"/>
<polyline class="BarLine" fill="none" stroke="#000000" stroke-width="4.46" stroke-linejoin="bevel" points="909.656,1003.84 909.656,1105.76"/>
<polyline class="BarLine" fill="none" stroke="#000000" stroke-width="4.46" stroke-linejoin="bevel" points="1884.37,658.236 1884.37,760.164"/>
<polyline class="BarLine" fill="none" stroke="#000000" stroke-width="4.46" stroke-linejoin="bevel" points="1413.39,658.236 1413.39,760.164"/>
<polyline class="BarLine" fill="none" stroke="#000000" stroke-width="4.46" stroke-linejoin="bevel" points="975.375,658.236 975.375,760.164"/>
<polyline class="BarLine" fill="none" stroke="#000000" stroke-width="4.46" stroke-linejoin="bevel" points="1403.05,1003.84 1403.05,1105.76"/>
<polyline class="BarLine" fill="none" stroke="#000000" stroke-width="4.46" stroke-linejoin="bevel" points="1884.37,312.636 1884.37,414.564"/>
<polyline class="BarLine" fill="none" stroke="#000000" stroke-width="4.46" stroke-linejoin="bevel" points="1387.6,312.636 1387.6,414.564"/>
<polyline class="BarLine" fill="none" stroke="#000000" stroke-width="4.46" stroke-linejoin="bevel" points="890.839,312.636 890.839,414.564"/>
<polyline class="BarLine" fill="none" stroke="#000000" stroke-width="4.46" stroke-linejoin="bevel" points="1884.37,1003.84 1884.37,1105.76"/>
<polyline class="LedgerLine" fill="none" stroke="#000000" stroke-width="3.97" stroke-linejoin="bevel" points="451.856,438 500.457,438"/>
<polyline class="LedgerLine" fill="none" stroke="#000000" stroke-width="3.97" stroke-linejoin="bevel" points="728.368,438 776.968,438"/>
<polyline class="LedgerLine" fill="none" stroke="#000000" stroke-width="3.97" stroke-linejoin="bevel" points="1222.19,438 1270.79,438"/>
<polyline class="Stem" fill="none" stroke="#000000" stroke-width="2.48" stroke-linejoin="bevel" points="837.372,421.632 837.372,338.899"/>
<polyline class="Stem" fill="none" stroke="#000000" stroke-width="2.48" stroke-linejoin="bevel" points="1189.59,396.832 1189.59,314.198"/>
<polyline class="Stem" fill="none" stroke="#000000" stroke-width="2.48" stroke-linejoin="bevel" points="856.189,1100.43 856.189,1017.7"/>
<polyline class="Stem" fill="none" stroke="#000000" stroke-width="2.48" stroke-linejoin="bevel" points="945.368,1046.57 945.368,1123"/>
<polyline class="Stem" fill="none" stroke="#000000" stroke-width="2.48" stroke-linejoin="bevel" points="786.361,1100.43 786.361,1017.7"/>
<polyline class="Stem" fill="none" stroke="#000000" stroke-width="2.48" stroke-linejoin="bevel" points="1261.36,434.032 1261.36,351.398"/>
<polyline class="Stem" fill="none" stroke="#000000" stroke-width="2.48" stroke-linejoin="bevel" points="651.092,1100.43 651.092,1017.6"/>
<polyline class="Stem" fill="none" stroke="#000000" stroke-width="2.48" stroke-linejoin="bevel" points="491.033,1100.43 491.033,1017.6"/>
<polyline class="Stem" fill="none" stroke="#000000" stroke-width="2.48" stroke-linejoin="bevel" points="1105.43,1046.57 1105.43,1122.9"/>
<polyline class="Stem" fill="none" stroke="#000000" stroke-width="2.48" stroke-linejoin="bevel" points="1829.91,742.432 1829.91,659.798"/>
<polyline class="Stem" fill="none" stroke="#000000" stroke-width="2.48" stroke-linejoin="bevel" points="1333.14,421.632 1333.14,338.998"/>
<polyline class="Stem" fill="none" stroke="#000000" stroke-width="2.48" stroke-linejoin="bevel" points="1763.97,730.032 1763.97,647.398"/>
<polyline class="Stem" fill="none" stroke="#000000" stroke-width="2.48" stroke-linejoin="bevel" points="1741.1,1058.97 1741.1,1135.3"/>
<polyline class="Stem" fill="none" stroke="#000000" stroke-width="2.48" stroke-linejoin="bevel" points="1117.81,409.232 1117.81,326.598"/>
<polyline class="Stem" fill="none" stroke="#000000" stroke-width="2.48" stroke-linejoin="bevel" points="1693.15,717.632 1693.15,641.198"/>
<polyline class="Stem" fill="none" stroke="#000000" stroke-width="2.48" stroke-linejoin="bevel" points="1453.07,409.232 1453.07,326.4"/>
<polyline class="Stem" fill="none" stroke="#000000" stroke-width="2.48" stroke-linejoin="bevel" points="1176.57,1046.57 1176.57,1122.9"/>
<polyline class="Stem" fill="none" stroke="#000000" stroke-width="2.48" stroke-linejoin="bevel" points="1478.85,717.632 1478.85,641"/>
<polyline class="Stem" fill="none" stroke="#000000" stroke-width="2.48" stroke-linejoin="bevel" points="491.033,446.432 491.033,363.6"/>
<polyline class="Stem" fill="none" stroke="#000000" stroke-width="2.48" stroke-linejoin="bevel" points="1358.93,730.032 1358.93,647.398"/>
<polyline class="Stem" fill="none" stroke="#000000" stroke-width="2.48" stroke-linejoin="bevel" points="1686.35,409.232 1686.35,326.598"/>
<polyline class="Stem" fill="none" stroke="#000000" stroke-width="2.48" stroke-linejoin="bevel" points="1288.11,742.432 1288.11,659.798"/>
<polyline class="Stem" fill="none" stroke="#000000" stroke-width="2.48" stroke-linejoin="bevel" points="1247.7,1058.97 1247.7,1135.3"/>
<polyline class="Stem" fill="none" stroke="#000000" stroke-width="2.48" stroke-linejoin="bevel" points="1139.75,742.432 1139.75,659.6"/>
<polyline class="Stem" fill="none" stroke="#000000" stroke-width="2.48" stroke-linejoin="bevel" points="1758.13,396.832 1758.13,314.198"/>
<polyline class="Stem" fill="none" stroke="#000000" stroke-width="2.48" stroke-linejoin="bevel" points="1011.09,713.366 1011.09,783.6"/>
<polyline class="Stem" fill="none" stroke="#000000" stroke-width="2.48" stroke-linejoin="bevel" points="1699.71,1063.23 1699.71,986.798"/>
<polyline class="Stem" fill="none" stroke="#000000" stroke-width="2.48" stroke-linejoin="bevel" points="956.303,409.232 956.303,326.4"/>
<polyline class="Stem" fill="none" stroke="#000000" stroke-width="2.48" stroke-linejoin="bevel" points="1829.91,384.432 1829.91,301.798"/>
<polyline class="Stem" fill="none" stroke="#000000" stroke-width="2.48" stroke-linejoin="bevel" points="920.915,717.632 920.915,641.198"/>
<polyline class="Stem" fill="none" stroke="#000000" stroke-width="2.48" stroke-linejoin="bevel" points="1348.59,1063.23 1348.59,986.798"/>
<polyline class="Stem" fill="none" stroke="#000000" stroke-width="2.48" stroke-linejoin="bevel" points="767.544,434.032 767.544,351.299"/>
<polyline class="Stem" fill="none" stroke="#000000" stroke-width="2.48" stroke-linejoin="bevel" points="825.225,713.366 825.225,789.701"/>
<polyline class="Stem" fill="none" stroke="#000000" stroke-width="2.48" stroke-linejoin="bevel" points="785.15,717.632 785.15,641.099"/>
<polyline class="Stem" fill="none" stroke="#000000" stroke-width="2.48" stroke-linejoin="bevel" points="1812.24,1046.57 1812.24,1122.9"/>
<polyline class="Stem" fill="none" stroke="#000000" stroke-width="2.48" stroke-linejoin="bevel" points="715.322,717.632 715.322,641.099"/>
<polyline class="Stem" fill="none" stroke="#000000" stroke-width="2.48" stroke-linejoin="bevel" points="1438.76,1046.57 1438.76,1123"/>
<polyline class="Stem" fill="none" stroke="#000000" stroke-width="2.48" stroke-linejoin="bevel" points="589.94,717.632 589.94,641"/>
<polyline class="Stem" fill="none" stroke="#000000" stroke-width="2.48" stroke-linejoin="bevel" points="461.28,713.366 461.28,783.6"/>
<path class="Note" transform="matrix(0.992,0,0,0.992,460.04,709.2)" d="M0,4.2 C0,8.5 3.1,13.3 11.2,13.3 C21.6,13.3 32.5,4.8 32.5,-4 C32.5,-9.9 27.5,-13.2 21.3,-13.2 C11.6,-13.2 0,-5 0,4.2"/>
<path class="Note" transform="matrix(0.992,0,0,0.992,1437.52,1042.4)" d="M21.3,-13.2 C11.6,-13.2 0,-5.1 0,4.2 C0,8.5 3.1,13.3 11.2,13.3 C21.6,13.3 32.5,4.8 32.5,-4 C32.5,-9.9 27.5,-13.2 21.3,-13.2 M7.5,8.6 C4.2,8.6 3.5,5.9 3.5,5 C3.5,0.1 20.3,-8.5 25,-8.5 C27.4,-8.5 29,-7.1 29,-4.9 C29,0.1 12.1,8.6 7.5,8.6"/>
<path class="Note" transform="matrix(0.992,0,0,0.992,806.38,425.6)" d="M0,4.2 C0,8.5 3.1,13.3 11.2,13.3 C21.6,13.3 32.5,4.8 32.5,-4 C32.5,-9.9 27.5,-13.2 21.3,-13.2 C11.6,-13.2 0,-5 0,4.2"/>
<path class="Note" transform="matrix(0.992,0,0,0.992,558.948,721.6)" d="M0,4.2 C0,8.5 3.1,13.3 11.2,13.3 C21.6,13.3 32.5,4.8 32.5,-4 C32.5,-9.9 27.5,-13.2 21.3,-13.2 C11.6,-13.2 0,-5 0,4.2"/>
<path class="Note" transform="matrix(0.992,0,0,0.992,825.196,1104.4)" d="M0,4.2 C0,8.5 3.1,13.3 11.2,13.3 C21.6,13.3 32.5,4.8 32.5,-4 C32.5,-9.9 27.5,-13.2 21.3,-13.2 C11.6,-13.2 0,-5 0,4.2"/>
<path class="Note" transform="matrix(0.992,0,0,0.992,1158.59,400.8)" d="M0,4.2 C0,8.5 3.1,13.3 11.2,13.3 C21.6,13.3 32.5,4.8 32.5,-4 C32.5,-9.9 27.5,-13.2 21.3,-13.2 C11.6,-13.2 0,-5 0,4.2"/>
<path class="Note" transform="matrix(0.992,0,0,0.992,755.369,1104.4)" d="M0,4.2 C0,8.5 3.1,13.3 11.2,13.3 C21.6,13.3 32.5,4.8 32.5,-4 C32.5,-9.9 27.5,-13.2 21.3,-13.2 C11.6,-13.2 0,-5 0,4.2"/>
<path class="Note" transform="matrix(0.992,0,0,0.992,944.128,1042.4)" d="M21.3,-13.2 C11.6,-13.2 0,-5.1 0,4.2 C0,8.5 3.1,13.3 11.2,13.3 C21.6,13.3 32.5,4.8 32.5,-4 C32.5,-9.9 27.5,-13.2 21.3,-13.2 M7.5,8.6 C4.2,8.6 3.5,5.9 3.5,5 C3.5,0.1 20.3,-8.5 25,-8.5 C27.4,-8.5 29,-7.1 29,-4.9 C29,0.1 12.1,8.6 7.5,8.6"/>
<path class="Note" transform="matrix(0.992,0,0,0.992,684.33,721.6)" d="M0,4.2 C0,8.5 3.1,13.3 11.2,13.3 C21.6,13.3 32.5,4.8 32.5,-4 C32.5,-9.9 27.5,-13.2 21.3,-13.2 C11.6,-13.2 0,-5 0,4.2"/>
<path class="Note" transform="matrix(0.992,0,0,0.992,460.04,450.4)" d="M21.3,-13.2 C11.6,-13.2 0,-5.1 0,4.2 C0,8.5 3.1,13.3 11.2,13.3 C21.6,13.3 32.5,4.8 32.5,-4 C32.5,-9.9 27.5,-13.2 21.3,-13.2 M7.5,8.6 C4.2,8.6 3.5,5.9 3.5,5 C3.5,0.1 20.3,-8.5 25,-8.5 C27.4,-8.5 29,-7.1 29,-4.9 C29,0.1 12.1,8.6 7.5,8.6"/>
<path class="Note" transform="matrix(0.992,0,0,0.992,620.1,1104.4)" d="M0,4.2 C0,8.5 3.1,13.3 11.2,13.3 C21.6,13.3 32.5,4.8 32.5,-4 C32.5,-9.9 27.5,-13.2 21.3,-13.2 C11.6,-13.2 0,-5 0,4.2"/>
<path class="Note" transform="matrix(0.992,0,0,0.992,1086.81,413.2)" d="M0,4.2 C0,8.5 3.1,13.3 11.2,13.3 C21.6,13.3 32.5,4.8 32.5,-4 C32.5,-9.9 27.5,-13.2 21.3,-13.2 C11.6,-13.2 0,-5 0,4.2"/>
<path class="Note" transform="matrix(0.992,0,0,0.992,754.157,721.6)" d="M0,4.2 C0,8.5 3.1,13.3 11.2,13.3 C21.6,13.3 32.5,4.8 32.5,-4 C32.5,-9.9 27.5,-13.2 21.3,-13.2 C11.6,-13.2 0,-5 0,4.2"/>
<path class="Note" transform="matrix(0.992,0,0,0.992,460.04,1104.4)" d="M21.3,-13.2 C11.6,-13.2 0,-5.1 0,4.2 C0,8.5 3.1,13.3 11.2,13.3 C21.6,13.3 32.5,4.8 32.5,-4 C32.5,-9.9 27.5,-13.2 21.3,-13.2 M7.5,8.6 C4.2,8.6 3.5,5.9 3.5,5 C3.5,0.1 20.3,-8.5 25,-8.5 C27.4,-8.5 29,-7.1 29,-4.9 C29,0.1 12.1,8.6 7.5,8.6"/>
<path class="Note" transform="matrix(0.992,0,0,0.992,1230.37,438)" d="M0,4.2 C0,8.5 3.1,13.3 11.2,13.3 C21.6,13.3 32.5,4.8 32.5,-4 C32.5,-9.9 27.5,-13.2 21.3,-13.2 C11.6,-13.2 0,-5 0,4.2"/>
<path class="Note" transform="matrix(0.992,0,0,0.992,1811,1042.4)" d="M0,4.2 C0,8.5 3.1,13.3 11.2,13.3 C21.6,13.3 32.5,4.8 32.5,-4 C32.5,-9.9 27.5,-13.2 21.3,-13.2 C11.6,-13.2 0,-5 0,4.2"/>
<path class="Note" transform="matrix(0.992,0,0,0.992,823.985,709.2)" d="M0,4.2 C0,8.5 3.1,13.3 11.2,13.3 C21.6,13.3 32.5,4.8 32.5,-4 C32.5,-9.9 27.5,-13.2 21.3,-13.2 C11.6,-13.2 0,-5 0,4.2"/>
<path class="Note" transform="matrix(0.992,0,0,0.992,1739.86,1054.8)" d="M0,4.2 C0,8.5 3.1,13.3 11.2,13.3 C21.6,13.3 32.5,4.8 32.5,-4 C32.5,-9.9 27.5,-13.2 21.3,-13.2 C11.6,-13.2 0,-5 0,4.2"/>
<path class="Note" transform="matrix(0.992,0,0,0.992,1798.91,746.4)" d="M0,4.2 C0,8.5 3.1,13.3 11.2,13.3 C21.6,13.3 32.5,4.8 32.5,-4 C32.5,-9.9 27.5,-13.2 21.3,-13.2 C11.6,-13.2 0,-5 0,4.2"/>
<path class="Note" transform="matrix(0.992,0,0,0.992,1798.91,388.4)" d="M0,4.2 C0,8.5 3.1,13.3 11.2,13.3 C21.6,13.3 32.5,4.8 32.5,-4 C32.5,-9.9 27.5,-13.2 21.3,-13.2 C11.6,-13.2 0,-5 0,4.2"/>
<path class="Note" transform="matrix(0.992,0,0,0.992,889.923,721.6)" d="M0,4.2 C0,8.5 3.1,13.3 11.2,13.3 C21.6,13.3 32.5,4.8 32.5,-4 C32.5,-9.9 27.5,-13.2 21.3,-13.2 C11.6,-13.2 0,-5 0,4.2"/>
<path class="Note" transform="matrix(0.992,0,0,0.992,1104.19,1042.4)" d="M0,4.2 C0,8.5 3.1,13.3 11.2,13.3 C21.6,13.3 32.5,4.8 32.5,-4 C32.5,-9.9 27.5,-13.2 21.3,-13.2 C11.6,-13.2 0,-5 0,4.2"/>
<path class="Note" transform="matrix(0.992,0,0,0.992,925.311,413.2)" d="M21.3,-13.2 C11.6,-13.2 0,-5.1 0,4.2 C0,8.5 3.1,13.3 11.2,13.3 C21.6,13.3 32.5,4.8 32.5,-4 C32.5,-9.9 27.5,-13.2 21.3,-13.2 M7.5,8.6 C4.2,8.6 3.5,5.9 3.5,5 C3.5,0.1 20.3,-8.5 25,-8.5 C27.4,-8.5 29,-7.1 29,-4.9 C29,0.1 12.1,8.6 7.5,8.6"/>
<path class="Note" transform="matrix(0.992,0,0,0.992,1732.98,734)" d="M0,4.2 C0,8.5 3.1,13.3 11.2,13.3 C21.6,13.3 32.5,4.8 32.5,-4 C32.5,-9.9 27.5,-13.2 21.3,-13.2 C11.6,-13.2 0,-5 0,4.2"/>
<path class="Note" transform="matrix(0.992,0,0,0.992,1727.14,400.8)" d="M0,4.2 C0,8.5 3.1,13.3 11.2,13.3 C21.6,13.3 32.5,4.8 32.5,-4 C32.5,-9.9 27.5,-13.2 21.3,-13.2 C11.6,-13.2 0,-5 0,4.2"/>
<path class="Note" transform="matrix(0.992,0,0,0.992,1009.85,709.2)" d="M0,4.2 C0,8.5 3.1,13.3 11.2,13.3 C21.6,13.3 32.5,4.8 32.5,-4 C32.5,-9.9 27.5,-13.2 21.3,-13.2 C11.6,-13.2 0,-5 0,4.2"/>
<path class="Note" transform="matrix(0.992,0,0,0.992,1246.46,1054.8)" d="M0,4.2 C0,8.5 3.1,13.3 11.2,13.3 C21.6,13.3 32.5,4.8 32.5,-4 C32.5,-9.9 27.5,-13.2 21.3,-13.2 C11.6,-13.2 0,-5 0,4.2"/>
<path class="Note" transform="matrix(0.992,0,0,0.992,1302.15,425.6)" d="M0,4.2 C0,8.5 3.1,13.3 11.2,13.3 C21.6,13.3 32.5,4.8 32.5,-4 C32.5,-9.9 27.5,-13.2 21.3,-13.2 C11.6,-13.2 0,-5 0,4.2"/>
<path class="Note" transform="matrix(0.992,0,0,0.992,1108.75,746.4)" d="M21.3,-13.2 C11.6,-13.2 0,-5.1 0,4.2 C0,8.5 3.1,13.3 11.2,13.3 C21.6,13.3 32.5,4.8 32.5,-4 C32.5,-9.9 27.5,-13.2 21.3,-13.2 M7.5,8.6 C4.2,8.6 3.5,5.9 3.5,5 C3.5,0.1 20.3,-8.5 25,-8.5 C27.4,-8.5 29,-7.1 29,-4.9 C29,0.1 12.1,8.6 7.5,8.6"/>
<path class="Note" transform="matrix(0.992,0,0,0.992,1668.72,1067.2)" d="M0,4.2 C0,8.5 3.1,13.3 11.2,13.3 C21.6,13.3 32.5,4.8 32.5,-4 C32.5,-9.9 27.5,-13.2 21.3,-13.2 C11.6,-13.2 0,-5 0,4.2"/>
<path class="Note" transform="matrix(0.992,0,0,0.992,1662.16,721.6)" d="M0,4.2 C0,8.5 3.1,13.3 11.2,13.3 C21.6,13.3 32.5,4.8 32.5,-4 C32.5,-9.9 27.5,-13.2 21.3,-13.2 C11.6,-13.2 0,-5 0,4.2"/>
<path class="Note" transform="matrix(0.992,0,0,0.992,1655.36,413.2)" d="M0,4.2 C0,8.5 3.1,13.3 11.2,13.3 C21.6,13.3 32.5,4.8 32.5,-4 C32.5,-9.9 27.5,-13.2 21.3,-13.2 C11.6,-13.2 0,-5 0,4.2"/>
<path class="Note" transform="matrix(0.992,0,0,0.992,1257.11,746.4)" d="M0,4.2 C0,8.5 3.1,13.3 11.2,13.3 C21.6,13.3 32.5,4.8 32.5,-4 C32.5,-9.9 27.5,-13.2 21.3,-13.2 C11.6,-13.2 0,-5 0,4.2"/>
<path class="Note" transform="matrix(0.992,0,0,0.992,1422.07,413.2)" d="M21.3,-13.2 C11.6,-13.2 0,-5.1 0,4.2 C0,8.5 3.1,13.3 11.2,13.3 C21.6,13.3 32.5,4.8 32.5,-4 C32.5,-9.9 27.5,-13.2 21.3,-13.2 M7.5,8.6 C4.2,8.6 3.5,5.9 3.5,5 C3.5,0.1 20.3,-8.5 25,-8.5 C27.4,-8.5 29,-7.1 29,-4.9 C29,0.1 12.1,8.6 7.5,8.6"/>
<path class="Note" transform="matrix(0.992,0,0,0.992,1447.86,721.6)" d="M21.3,-13.2 C11.6,-13.2 0,-5.1 0,4.2 C0,8.5 3.1,13.3 11.2,13.3 C21.6,13.3 32.5,4.8 32.5,-4 C32.5,-9.9 27.5,-13.2 21.3,-13.2 M7.5,8.6 C4.2,8.6 3.5,5.9 3.5,5 C3.5,0.1 20.3,-8.5 25,-8.5 C27.4,-8.5 29,-7.1 29,-4.9 C29,0.1 12.1,8.6 7.5,8.6"/>
<path class="Note" transform="matrix(0.992,0,0,0.992,736.552,438)" d="M0,4.2 C0,8.5 3.1,13.3 11.2,13.3 C21.6,13.3 32.5,4.8 32.5,-4 C32.5,-9.9 27.5,-13.2 21.3,-13.2 C11.6,-13.2 0,-5 0,4.2"/>
<path class="Note" transform="matrix(0.992,0,0,0.992,1327.93,734)" d="M0,4.2 C0,8.5 3.1,13.3 11.2,13.3 C21.6,13.3 32.5,4.8 32.5,-4 C32.5,-9.9 27.5,-13.2 21.3,-13.2 C11.6,-13.2 0,-5 0,4.2"/>
<path class="Note" transform="matrix(0.992,0,0,0.992,1175.33,1042.4)" d="M0,4.2 C0,8.5 3.1,13.3 11.2,13.3 C21.6,13.3 32.5,4.8 32.5,-4 C32.5,-9.9 27.5,-13.2 21.3,-13.2 C11.6,-13.2 0,-5 0,4.2"/>
<path class="Note" transform="matrix(0.992,0,0,0.992,1317.6,1067.2)" d="M0,4.2 C0,8.5 3.1,13.3 11.2,13.3 C21.6,13.3 32.5,4.8 32.5,-4 C32.5,-9.9 27.5,-13.2 21.3,-13.2 C11.6,-13.2 0,-5 0,4.2"/>
<path class="Clef" transform="matrix(0.992,0,0,0.992,231.198,734)" d="M12.3,51.3 C12.3,57.9 17.3,66.6 30.8,66.6 C35.5,66.6 39.6,65.4 43.2,63.2 C48.6,59.4 50,52.8 50,46.5 C50,42.6 49.4,38.1 48.4,32.4 C48.1,30.4 47.5,27.4 46.9,23.5 C56.7,20.3 64,10.1 64,-0.2 C64,-15.3 53.3,-25.5 38.7,-25.5 C37.7,-31.5 36.7,-37.4 35.9,-43 C46.4,-54.1 53.7,-66.6 53.7,-82.5 C53.7,-91.6 50.9,-99 49.3,-102.6 C46.9,-107.7 44,-111.2 42.2,-111.2 C41.5,-111.2 38.4,-110 35.1,-106.1 C28.7,-98.5 26.9,-85.7 26.9,-77.3 C26.9,-71.9 27.4,-67 29.1,-55.8 C29,-55.7 23.8,-50.4 21.7,-48.7 C12.6,-40.3 0,-28.1 0,-8.1 C0,10.6 16.3,25.3 34.9,25.3 C37.8,25.3 40.5,25 42.8,24.6 C44.7,34.2 45.9,41.2 45.9,46.5 C45.9,56.9 40.5,62.4 30.4,62.4 C28,62.4 25.9,61.9 25.7,61.9 C25.6,61.8 25.4,61.7 25.4,61.6 C25.4,61.4 25.6,61.3 25.9,61.3 C30.6,60.5 35.3,56.5 35.3,50.1 C35.3,44.7 31.2,39 23.7,39 C16.7,39 12.3,44.7 12.3,51.3 M33.2,-82.2 C34.1,-86.2 38.7,-96.7 43.9,-96.7 C45.4,-96.7 47.8,-91.9 47.8,-84.9 C47.8,-74.5 40.1,-66.7 33.2,-59.9 C32.6,-63.9 32.1,-67.8 32.1,-72 C32.1,-75.7 32.4,-79.1 33.2,-82.2 M42,20.6 C40,21 38.1,21.2 36.2,21.2 C21.9,21.2 9.7,11.2 9.7,-3.9 C9.7,-16.1 18.3,-27 27.1,-34.6 C28.8,-36.1 30.4,-37.5 31.9,-39 C32.8,-33.6 33.5,-28.9 34.2,-24.8 C25.1,-22.1 18.9,-12.5 18.9,-3.1 C18.9,3.9 24.4,13.5 32.4,13.5 C33.2,13.5 34.1,13.1 34.1,12.2 C34.1,11.3 33.1,10.8 31.9,10 C28,7.6 25.8,5 25.8,0.1 C25.8,-6 30.4,-10.9 36.2,-12.3 L42,20.6 M56.2,2.1 C56.2,9.2 53.3,16.5 46.2,19.4 C44.1,7.4 41.4,-8.5 40.7,-12.9 C49.7,-12.9 56.2,-6.8 56.2,2.1"/>
<path class="Clef" transform="matrix(0.992,0,0,0.992,231.198,1079.6)" d="M12.3,51.3 C12.3,57.9 17.3,66.6 30.8,66.6 C35.5,66.6 39.6,65.4 43.2,63.2 C48.6,59.4 50,52.8 50,46.5 C50,42.6 49.4,38.1 48.4,32.4 C48.1,30.4 47.5,27.4 46.9,23.5 C56.7,20.3 64,10.1 64,-0.2 C64,-15.3 53.3,-25.5 38.7,-25.5 C37.7,-31.5 36.7,-37.4 35.9,-43 C46.4,-54.1 53.7,-66.6 53.7,-82.5 C53.7,-91.6 50.9,-99 49.3,-102.6 C46.9,-107.7 44,-111.2 42.2,-111.2 C41.5,-111.2 38.4,-110 35.1,-106.1 C28.7,-98.5 26.9,-85.7 26.9,-77.3 C26.9,-71.9 27.4,-67 29.1,-55.8 C29,-55.7 23.8,-50.4 21.7,-48.7 C12.6,-40.3 0,-28.1 0,-8.1 C0,10.6 16.3,25.3 34.9,25.3 C37.8,25.3 40.5,25 42.8,24.6 C44.7,34.2 45.9,41.2 45.9,46.5 C45.9,56.9 40.5,62.4 30.4,62.4 C28,62.4 25.9,61.9 25.7,61.9 C25.6,61.8 25.4,61.7 25.4,61.6 C25.4,61.4 25.6,61.3 25.9,61.3 C30.6,60.5 35.3,56.5 35.3,50.1 C35.3,44.7 31.2,39 23.7,39 C16.7,39 12.3,44.7 12.3,51.3 M33.2,-82.2 C34.1,-86.2 38.7,-96.7 43.9,-96.7 C45.4,-96.7 47.8,-91.9 47.8,-84.9 C47.8,-74.5 40.1,-66.7 33.2,-59.9 C32.6,-63.9 32.1,-67.8 32.1,-72 C32.1,-75.7 32.4,-79.1 33.2,-82.2 M42,20.6 C40,21 38.1,21.2 36.2,21.2 C21.9,21.2 9.7,11.2 9.7,-3.9 C9.7,-16.1 18.3,-27 27.1,-34.6 C28.8,-36.1 30.4,-37.5 31.9,-39 C32.8,-33.6 33.5,-28.9 34.2,-24.8 C25.1,-22.1 18.9,-12.5 18.9,-3.1 C18.9,3.9 24.4,13.5 32.4,13.5 C33.2,13.5 34.1,13.1 34.1,12.2 C34.1,11.3 33.1,10.8 31.9,10 C28,7.6 25.8,5 25.8,0.1 C25.8,-6 30.4,-10.9 36.2,-12.3 L42,20.6 M56.2,2.1 C56.2,9.2 53.3,16.5 46.2,19.4 C44.1,7.4 41.4,-8.5 40.7,-12.9 C49.7,-12.9 56.2,-6.8 56.2,2.1"/>
<path class="Clef" transform="matrix(0.992,0,0,0.992,231.198,388.4)" d="M12.3,51.3 C12.3,57.9 17.3,66.6 30.8,66.6 C35.5,66.6 39.6,65.4 43.2,63.2 C48.6,59.4 50,52.8 50,46.5 C50,42.6 49.4,38.1 48.4,32.4 C48.1,30.4 47.5,27.4 46.9,23.5 C56.7,20.3 64,10.1 64,-0.2 C64,-15.3 53.3,-25.5 38.7,-25.5 C37.7,-31.5 36.7,-37.4 35.9,-43 C46.4,-54.1 53.7,-66.6 53.7,-82.5 C53.7,-91.6 50.9,-99 49.3,-102.6 C46.9,-107.7 44,-111.2 42.2,-111.2 C41.5,-111.2 38.4,-110 35.1,-106.1 C28.7,-98.5 26.9,-85.7 26.9,-77.3 C26.9,-71.9 27.4,-67 29.1,-55.8 C29,-55.7 23.8,-50.4 21.7,-48.7 C12.6,-40.3 0,-28.1 0,-8.1 C0,10.6 16.3,25.3 34.9,25.3 C37.8,25.3 40.5,25 42.8,24.6 C44.7,34.2 45.9,41.2 45.9,46.5 C45.9,56.9 40.5,62.4 30.4,62.4 C28,62.4 25.9,61.9 25.7,61.9 C25.6,61.8 25.4,61.7 25.4,61.6 C25.4,61.4 25.6,61.3 25.9,61.3 C30.6,60.5 35.3,56.5 35.3,50.1 C35.3,44.7 31.2,39 23.7,39 C16.7,39 12.3,44.7 12.3,51.3 M33.2,-82.2 C34.1,-86.2 38.7,-96.7 43.9,-96.7 C45.4,-96.7 47.8,-91.9 47.8,-84.9 C47.8,-74.5 40.1,-66.7 33.2,-59.9 C32.6,-63.9 32.1,-67.8 32.1,-72 C32.1,-75.7 32.4,-79.1 33.2,-82.2 M42,20.6 C40,21 38.1,21.2 36.2,21.2 C21.9,21.2 9.7,11.2 9.7,-3.9 C9.7,-16.1 18.3,-27 27.1,-34.6 C28.8,-36.1 30.4,-37.5 31.9,-39 C32.8,-33.6 33.5,-28.9 34.2,-24.8 C25.1,-22.1 18.9,-12.5 18.9,-3.1 C18.9,3.9 24.4,13.5 32.4,13.5 C33.2,13.5 34.1,13.1 34.1,12.2 C34.1,11.3 33.1,10.8 31.9,10 C28,7.6 25.8,5 25.8,0.1 C25.8,-6 30.4,-10.9 36.2,-12.3 L42,20.6 M56.2,2.1 C56.2,9.2 53.3,16.5 46.2,19.4 C44.1,7.4 41.4,-8.5 40.7,-12.9 C49.7,-12.9 56.2,-6.8 56.2,2.1"/>
<path class="KeySig" transform="matrix(0.992,0,0,0.992,319.479,659.6)" d="M23.3,-10.5 C23.9,-10.6 24.4,-11.3 24.4,-11.9 L24.4,-17.8 C24.4,-18.8 23.7,-19.2 22.8,-19.2 L19.5,-18.5 L19.5,-33.4 L16.7,-33.4 L16.7,-17.9 L7.8,-16.1 L7.8,-30.2 L5,-30.2 L5,-15.5 L1.1,-14.7 C0.5,-14.6 0,-13.9 0,-13.3 L0,-7.5 C0,-6.4 0.8,-6.1 1.7,-6.1 L5,-6.8 L5,9.7 L1.1,10.5 C0.5,10.6 0,11.3 0,11.9 L0,17.7 C0,18.8 0.8,19.1 1.7,19.1 L5,18.4 L5,33.3 L7.8,33.3 L7.8,17.8 L16.7,16 L16.7,30.1 L19.5,30.1 L19.5,15.4 L23.3,14.7 C23.9,14.6 24.4,13.9 24.4,13.3 L24.4,7.4 C24.4,6.4 23.7,6 22.8,6 L19.5,6.7 L19.5,-9.8 L23.3,-10.5 M7.8,-7.4 L16.7,-9.2 L16.7,7.3 L7.8,9.2 L7.8,-7.4 "/>
<path class="KeySig" transform="matrix(0.992,0,0,0.992,346.65,696.8)" d="M23.3,-10.5 C23.9,-10.6 24.4,-11.3 24.4,-11.9 L24.4,-17.8 C24.4,-18.8 23.7,-19.2 22.8,-19.2 L19.5,-18.5 L19.5,-33.4 L16.7,-33.4 L16.7,-17.9 L7.8,-16.1 L7.8,-30.2 L5,-30.2 L5,-15.5 L1.1,-14.7 C0.5,-14.6 0,-13.9 0,-13.3 L0,-7.5 C0,-6.4 0.8,-6.1 1.7,-6.1 L5,-6.8 L5,9.7 L1.1,10.5 C0.5,10.6 0,11.3 0,11.9 L0,17.7 C0,18.8 0.8,19.1 1.7,19.1 L5,18.4 L5,33.3 L7.8,33.3 L7.8,17.8 L16.7,16 L16.7,30.1 L19.5,30.1 L19.5,15.4 L23.3,14.7 C23.9,14.6 24.4,13.9 24.4,13.3 L24.4,7.4 C24.4,6.4 23.7,6 22.8,6 L19.5,6.7 L19.5,-9.8 L23.3,-10.5 M7.8,-7.4 L16.7,-9.2 L16.7,7.3 L7.8,9.2 L7.8,-7.4 "/>
<path class="KeySig" transform="matrix(0.992,0,0,0.992,373.822,647.2)" d="M23.3,-10.5 C23.9,-10.6 24.4,-11.3 24.4,-11.9 L24.4,-17.8 C24.4,-18.8 23.7,-19.2 22.8,-19.2 L19.5,-18.5 L19.5,-33.4 L16.7,-33.4 L16.7,-17.9 L7.8,-16.1 L7.8,-30.2 L5,-30.2 L5,-15.5 L1.1,-14.7 C0.5,-14.6 0,-13.9 0,-13.3 L0,-7.5 C0,-6.4 0.8,-6.1 1.7,-6.1 L5,-6.8 L5,9.7 L1.1,10.5 C0.5,10.6 0,11.3 0,11.9 L0,17.7 C0,18.8 0.8,19.1 1.7,19.1 L5,18.4 L5,33.3 L7.8,33.3 L7.8,17.8 L16.7,16 L16.7,30.1 L19.5,30.1 L19.5,15.4 L23.3,14.7 C23.9,14.6 24.4,13.9 24.4,13.3 L24.4,7.4 C24.4,6.4 23.7,6 22.8,6 L19.5,6.7 L19.5,-9.8 L23.3,-10.5 M7.8,-7.4 L16.7,-9.2 L16.7,7.3 L7.8,9.2 L7.8,-7.4 "/>
<path class="KeySig" transform="matrix(0.992,0,0,0.992,319.479,1005.2)" d="M23.3,-10.5 C23.9,-10.6 24.4,-11.3 24.4,-11.9 L24.4,-17.8 C24.4,-18.8 23.7,-19.2 22.8,-19.2 L19.5,-18.5 L19.5,-33.4 L16.7,-33.4 L16.7,-17.9 L7.8,-16.1 L7.8,-30.2 L5,-30.2 L5,-15.5 L1.1,-14.7 C0.5,-14.6 0,-13.9 0,-13.3 L0,-7.5 C0,-6.4 0.8,-6.1 1.7,-6.1 L5,-6.8 L5,9.7 L1.1,10.5 C0.5,10.6 0,11.3 0,11.9 L0,17.7 C0,18.8 0.8,19.1 1.7,19.1 L5,18.4 L5,33.3 L7.8,33.3 L7.8,17.8 L16.7,16 L16.7,30.1 L19.5,30.1 L19.5,15.4 L23.3,14.7 C23.9,14.6 24.4,13.9 24.4,13.3 L24.4,7.4 C24.4,6.4 23.7,6 22.8,6 L19.5,6.7 L19.5,-9.8 L23.3,-10.5 M7.8,-7.4 L16.7,-9.2 L16.7,7.3 L7.8,9.2 L7.8,-7.4 "/>
<path class="KeySig" transform="matrix(0.992,0,0,0.992,346.65,1042.4)" d="M23.3,-10.5 C23.9,-10.6 24.4,-11.3 24.4,-11.9 L24.4,-17.8 C24.4,-18.8 23.7,-19.2 22.8,-19.2 L19.5,-18.5 L19.5,-33.4 L16.7,-33.4 L16.7,-17.9 L7.8,-16.1 L7.8,-30.2 L5,-30.2 L5,-15.5 L1.1,-14.7 C0.5,-14.6 0,-13.9 0,-13.3 L0,-7.5 C0,-6.4 0.8,-6.1 1.7,-6.1 L5,-6.8 L5,9.7 L1.1,10.5 C0.5,10.6 0,11.3 0,11.9 L0,17.7 C0,18.8 0.8,19.1 1.7,19.1 L5,18.4 L5,33.3 L7.8,33.3 L7.8,17.8 L16.7,16 L16.7,30.1 L19.5,30.1 L19.5,15.4 L23.3,14.7 C23.9,14.6 24.4,13.9 24.4,13.3 L24.4,7.4 C24.4,6.4 23.7,6 22.8,6 L19.5,6.7 L19.5,-9.8 L23.3,-10.5 M7.8,-7.4 L16.7,-9.2 L16.7,7.3 L7.8,9.2 L7.8,-7.4 "/>
<path class="KeySig" transform="matrix(0.992,0,0,0.992,373.822,992.8)" d="M23.3,-10.5 C23.9,-10.6 24.4,-11.3 24.4,-11.9 L24.4,-17.8 C24.4,-18.8 23.7,-19.2 22.8,-19.2 L19.5,-18.5 L19.5,-33.4 L16.7,-33.4 L16.7,-17.9 L7.8,-16.1 L7.8,-30.2 L5,-30.2 L5,-15.5 L1.1,-14.7 C0.5,-14.6 0,-13.9 0,-13.3 L0,-7.5 C0,-6.4 0.8,-6.1 1.7,-6.1 L5,-6.8 L5,9.7 L1.1,10.5 C0.5,10.6 0,11.3 0,11.9 L0,17.7 C0,18.8 0.8,19.1 1.7,19.1 L5,18.4 L5,33.3 L7.8,33.3 L7.8,17.8 L16.7,16 L16.7,30.1 L19.5,30.1 L19.5,15.4 L23.3,14.7 C23.9,14.6 24.4,13.9 24.4,13.3 L24.4,7.4 C24.4,6.4 23.7,6 22.8,6 L19.5,6.7 L19.5,-9.8 L23.3,-10.5 M7.8,-7.4 L16.7,-9.2 L16.7,7.3 L7.8,9.2 L7.8,-7.4 "/>
<path class="KeySig" transform="matrix(0.992,0,0,0.992,319.479,314)" d="M23.3,-10.5 C23.9,-10.6 24.4,-11.3 24.4,-11.9 L24.4,-17.8 C24.4,-18.8 23.7,-19.2 22.8,-19.2 L19.5,-18.5 L19.5,-33.4 L16.7,-33.4 L16.7,-17.9 L7.8,-16.1 L7.8,-30.2 L5,-30.2 L5,-15.5 L1.1,-14.7 C0.5,-14.6 0,-13.9 0,-13.3 L0,-7.5 C0,-6.4 0.8,-6.1 1.7,-6.1 L5,-6.8 L5,9.7 L1.1,10.5 C0.5,10.6 0,11.3 0,11.9 L0,17.7 C0,18.8 0.8,19.1 1.7,19.1 L5,18.4 L5,33.3 L7.8,33.3 L7.8,17.8 L16.7,16 L16.7,30.1 L19.5,30.1 L19.5,15.4 L23.3,14.7 C23.9,14.6 24.4,13.9 24.4,13.3 L24.4,7.4 C24.4,6.4 23.7,6 22.8,6 L19.5,6.7 L19.5,-9.8 L23.3,-10.5 M7.8,-7.4 L16.7,-9.2 L16.7,7.3 L7.8,9.2 L7.8,-7.4 "/>
<path class="KeySig" transform="matrix(0.992,0,0,0.992,346.65,351.2)" d="M23.3,-10.5 C23.9,-10.6 24.4,-11.3 24.4,-11.9 L24.4,-17.8 C24.4,-18.8 23.7,-19.2 22.8,-19.2 L19.5,-18.5 L19.5,-33.4 L16.7,-33.4 L16.7,-17.9 L7.8,-16.1 L7.8,-30.2 L5,-30.2 L5,-15.5 L1.1,-14.7 C0.5,-14.6 0,-13.9 0,-13.3 L0,-7.5 C0,-6.4 0.8,-6.1 1.7,-6.1 L5,-6.8 L5,9.7 L1.1,10.5 C0.5,10.6 0,11.3 0,11.9 L0,17.7 C0,18.8 0.8,19.1 1.7,19.1 L5,18.4 L5,33.3 L7.8,33.3 L7.8,17.8 L16.7,16 L16.7,30.1 L19.5,30.1 L19.5,15.4 L23.3,14.7 C23.9,14.6 24.4,13.9 24.4,13.3 L24.4,7.4 C24.4,6.4 23.7,6 22.8,6 L19.5,6.7 L19.5,-9.8 L23.3,-10.5 M7.8,-7.4 L16.7,-9.2 L16.7,7.3 L7.8,9.2 L7.8,-7.4 "/>
<path class="KeySig" transform="matrix(0.992,0,0,0.992,373.822,301.6)" d="M23.3,-10.5 C23.9,-10.6 24.4,-11.3 24.4,-11.9 L24.4,-17.8 C24.4,-18.8 23.7,-19.2 22.8,-19.2 L19.5,-18.5 L19.5,-33.4 L16.7,-33.4 L16.7,-17.9 L7.8,-16.1 L7.8,-30.2 L5,-30.2 L5,-15.5 L1.1,-14.7 C0.5,-14.6 0,-13.9 0,-13.3 L0,-7.5 C0,-6.4 0.8,-6.1 1.7,-6.1 L5,-6.8 L5,9.7 L1.1,10.5 C0.5,10.6 0,11.3 0,11.9 L0,17.7 C0,18.8 0.8,19.1 1.7,19.1 L5,18.4 L5,33.3 L7.8,33.3 L7.8,17.8 L16.7,16 L16.7,30.1 L19.5,30.1 L19.5,15.4 L23.3,14.7 C23.9,14.6 24.4,13.9 24.4,13.3 L24.4,7.4 C24.4,6.4 23.7,6 22.8,6 L19.5,6.7 L19.5,-9.8 L23.3,-10.5 M7.8,-7.4 L16.7,-9.2 L16.7,7.3 L7.8,9.2 L7.8,-7.4 "/>
<path class="Rest" transform="matrix(0.992,0,0,0.992,1583.58,363.6)" d="M26.7,-20.3 C26.6,-20.3 26.4,-20.4 26.3,-20.4 C25.7,-20.4 25.2,-20.1 25,-19.6 C22.7,-15 17.9,-8.8 12.5,-7.8 C13.6,-9.1 14.3,-10.7 14.3,-12.6 C14.3,-16.5 11.1,-19.7 7.2,-19.7 C3.2,-19.7 0,-16.5 0,-12.6 C0,-7.2 5.3,-4.7 10,-4.7 C15.3,-4.7 18.8,-7.2 22.2,-10.9 L10.8,24.7 L13.5,25.5 L27.5,-18.6 C27.6,-18.7 27.6,-18.9 27.6,-19.1 C27.6,-19.6 27.3,-20 26.7,-20.3"/>
<path class="Rest" transform="matrix(0.992,0,0,0.992,664.773,363.6)" d="M26.7,-20.3 C26.6,-20.3 26.4,-20.4 26.3,-20.4 C25.7,-20.4 25.2,-20.1 25,-19.6 C22.7,-15 17.9,-8.8 12.5,-7.8 C13.6,-9.1 14.3,-10.7 14.3,-12.6 C14.3,-16.5 11.1,-19.7 7.2,-19.7 C3.2,-19.7 0,-16.5 0,-12.6 C0,-7.2 5.3,-4.7 10,-4.7 C15.3,-4.7 18.8,-7.2 22.2,-10.9 L10.8,24.7 L13.5,25.5 L27.5,-18.6 C27.6,-18.7 27.6,-18.9 27.6,-19.1 C27.6,-19.6 27.3,-20 26.7,-20.3"/>
<path class="Rest" transform="matrix(0.992,0,0,0.992,1596.22,709.2)" d="M26.7,-20.3 C26.6,-20.3 26.4,-20.4 26.3,-20.4 C25.7,-20.4 25.2,-20.1 25,-19.6 C22.7,-15 17.9,-8.8 12.5,-7.8 C13.6,-9.1 14.3,-10.7 14.3,-12.6 C14.3,-16.5 11.1,-19.7 7.2,-19.7 C3.2,-19.7 0,-16.5 0,-12.6 C0,-7.2 5.3,-4.7 10,-4.7 C15.3,-4.7 18.8,-7.2 22.2,-10.9 L10.8,24.7 L13.5,25.5 L27.5,-18.6 C27.6,-18.7 27.6,-18.9 27.6,-19.1 C27.6,-19.6 27.3,-20 26.7,-20.3"/>
<path class="Rest" transform="matrix(0.992,0,0,0.992,1597.58,1054.8)" d="M26.7,-20.3 C26.6,-20.3 26.4,-20.4 26.3,-20.4 C25.7,-20.4 25.2,-20.1 25,-19.6 C22.7,-15 17.9,-8.8 12.5,-7.8 C13.6,-9.1 14.3,-10.7 14.3,-12.6 C14.3,-16.5 11.1,-19.7 7.2,-19.7 C3.2,-19.7 0,-16.5 0,-12.6 C0,-7.2 5.3,-4.7 10,-4.7 C15.3,-4.7 18.8,-7.2 22.2,-10.9 L10.8,24.7 L13.5,25.5 L27.5,-18.6 C27.6,-18.7 27.6,-18.9 27.6,-19.1 C27.6,-19.6 27.3,-20 26.7,-20.3"/>
<path class="Hook" transform="matrix(0.992,0,0,0.992,1756.89,314)" d="M0,22.7 C0,23 0.1,23.6 0.8,23.8 C5.1,25.2 13.7,30.6 20.2,41.7 C22,44.8 24.9,49.1 24.9,57.4 C24.9,64.6 23.1,72 20.4,79.2 C20.2,79.8 20.1,80.3 20.1,80.7 C20.1,81.4 20.5,81.7 21.2,81.7 C21.8,81.7 22.3,81.3 22.7,80.6 C27.2,72.6 28.9,63.3 28.9,54.2 C28.4,41.3 21,31.8 21,31.8 C21.3,31.8 11.8,19.5 9.1,15.3 C5.4,9.6 3.7,3.9 3.5,3.5 C3.4,3.2 2.5,-0.4 2.5,-0.4 C2.4,-0.8 1.9,-1.2 1.3,-1.2 C0.6,-1.2 0,-0.6 0,0.1 L0,22.7 "/>
<path class="Hook" transform="matrix(0.992,0,0,0.992,1828.67,301.6)" d="M0,22.7 C0,23 0.1,23.6 0.8,23.8 C5.1,25.2 13.7,30.6 20.2,41.7 C22,44.8 24.9,49.1 24.9,57.4 C24.9,64.6 23.1,72 20.4,79.2 C20.2,79.8 20.1,80.3 20.1,80.7 C20.1,81.4 20.5,81.7 21.2,81.7 C21.8,81.7 22.3,81.3 22.7,80.6 C27.2,72.6 28.9,63.3 28.9,54.2 C28.4,41.3 21,31.8 21,31.8 C21.3,31.8 11.8,19.5 9.1,15.3 C5.4,9.6 3.7,3.9 3.5,3.5 C3.4,3.2 2.5,-0.4 2.5,-0.4 C2.4,-0.8 1.9,-1.2 1.3,-1.2 C0.6,-1.2 0,-0.6 0,0.1 L0,22.7 "/>
<path class="Hook" transform="matrix(0.992,0,0,0.992,1347.35,986.6)" d="M0,22.7 C0,23 0.1,23.6 0.8,23.8 C5.1,25.2 13.7,30.6 20.2,41.7 C22,44.8 24.9,49.1 24.9,57.4 C24.9,64.6 23.1,72 20.4,79.2 C20.2,79.8 20.1,80.3 20.1,80.7 C20.1,81.4 20.5,81.7 21.2,81.7 C21.8,81.7 22.3,81.3 22.7,80.6 C27.2,72.6 28.9,63.3 28.9,54.2 C28.4,41.3 21,31.8 21,31.8 C21.3,31.8 11.8,19.5 9.1,15.3 C5.4,9.6 3.7,3.9 3.5,3.5 C3.4,3.2 2.5,-0.4 2.5,-0.4 C2.4,-0.8 1.9,-1.2 1.3,-1.2 C0.6,-1.2 0,-0.6 0,0.1 L0,22.7 "/>
<path class="Hook" transform="matrix(0.992,0,0,0.992,1828.67,659.6)" d="M0,22.7 C0,23 0.1,23.6 0.8,23.8 C5.1,25.2 13.7,30.6 20.2,41.7 C22,44.8 24.9,49.1 24.9,57.4 C24.9,64.6 23.1,72 20.4,79.2 C20.2,79.8 20.1,80.3 20.1,80.7 C20.1,81.4 20.5,81.7 21.2,81.7 C21.8,81.7 22.3,81.3 22.7,80.6 C27.2,72.6 28.9,63.3 28.9,54.2 C28.4,41.3 21,31.8 21,31.8 C21.3,31.8 11.8,19.5 9.1,15.3 C5.4,9.6 3.7,3.9 3.5,3.5 C3.4,3.2 2.5,-0.4 2.5,-0.4 C2.4,-0.8 1.9,-1.2 1.3,-1.2 C0.6,-1.2 0,-0.6 0,0.1 L0,22.7 "/>
<path class="Hook" transform="matrix(0.992,0,0,0.992,1331.9,338.8)" d="M0,22.7 C0,23 0.1,23.6 0.8,23.8 C5.1,25.2 13.7,30.6 20.2,41.7 C22,44.8 24.9,49.1 24.9,57.4 C24.9,64.6 23.1,72 20.4,79.2 C20.2,79.8 20.1,80.3 20.1,80.7 C20.1,81.4 20.5,81.7 21.2,81.7 C21.8,81.7 22.3,81.3 22.7,80.6 C27.2,72.6 28.9,63.3 28.9,54.2 C28.4,41.3 21,31.8 21,31.8 C21.3,31.8 11.8,19.5 9.1,15.3 C5.4,9.6 3.7,3.9 3.5,3.5 C3.4,3.2 2.5,-0.4 2.5,-0.4 C2.4,-0.8 1.9,-1.2 1.3,-1.2 C0.6,-1.2 0,-0.6 0,0.1 L0,22.7 "/>
<path class="Hook" transform="matrix(0.992,0,0,0.992,919.675,641)" d="M0,22.7 C0,23 0.1,23.6 0.8,23.8 C5.1,25.2 13.7,30.6 20.2,41.7 C22,44.8 24.9,49.1 24.9,57.4 C24.9,64.6 23.1,72 20.4,79.2 C20.2,79.8 20.1,80.3 20.1,80.7 C20.1,81.4 20.5,81.7 21.2,81.7 C21.8,81.7 22.3,81.3 22.7,80.6 C27.2,72.6 28.9,63.3 28.9,54.2 C28.4,41.3 21,31.8 21,31.8 C21.3,31.8 11.8,19.5 9.1,15.3 C5.4,9.6 3.7,3.9 3.5,3.5 C3.4,3.2 2.5,-0.4 2.5,-0.4 C2.4,-0.8 1.9,-1.2 1.3,-1.2 C0.6,-1.2 0,-0.6 0,0.1 L0,22.7 "/>
<path class="Hook" transform="matrix(0.992,0,0,0.992,1698.47,986.6)" d="M0,22.7 C0,23 0.1,23.6 0.8,23.8 C5.1,25.2 13.7,30.6 20.2,41.7 C22,44.8 24.9,49.1 24.9,57.4 C24.9,64.6 23.1,72 20.4,79.2 C20.2,79.8 20.1,80.3 20.1,80.7 C20.1,81.4 20.5,81.7 21.2,81.7 C21.8,81.7 22.3,81.3 22.7,80.6 C27.2,72.6 28.9,63.3 28.9,54.2 C28.4,41.3 21,31.8 21,31.8 C21.3,31.8 11.8,19.5 9.1,15.3 C5.4,9.6 3.7,3.9 3.5,3.5 C3.4,3.2 2.5,-0.4 2.5,-0.4 C2.4,-0.8 1.9,-1.2 1.3,-1.2 C0.6,-1.2 0,-0.6 0,0.1 L0,22.7 "/>
<path class="Hook" transform="matrix(0.992,0,0,0.992,1762.73,647.2)" d="M0,22.7 C0,23 0.1,23.6 0.8,23.8 C5.1,25.2 13.7,30.6 20.2,41.7 C22,44.8 24.9,49.1 24.9,57.4 C24.9,64.6 23.1,72 20.4,79.2 C20.2,79.8 20.1,80.3 20.1,80.7 C20.1,81.4 20.5,81.7 21.2,81.7 C21.8,81.7 22.3,81.3 22.7,80.6 C27.2,72.6 28.9,63.3 28.9,54.2 C28.4,41.3 21,31.8 21,31.8 C21.3,31.8 11.8,19.5 9.1,15.3 C5.4,9.6 3.7,3.9 3.5,3.5 C3.4,3.2 2.5,-0.4 2.5,-0.4 C2.4,-0.8 1.9,-1.2 1.3,-1.2 C0.6,-1.2 0,-0.6 0,0.1 L0,22.7 "/>
<path class="Hook" transform="matrix(0.992,0,0,0.992,1685.11,326.4)" d="M0,22.7 C0,23 0.1,23.6 0.8,23.8 C5.1,25.2 13.7,30.6 20.2,41.7 C22,44.8 24.9,49.1 24.9,57.4 C24.9,64.6 23.1,72 20.4,79.2 C20.2,79.8 20.1,80.3 20.1,80.7 C20.1,81.4 20.5,81.7 21.2,81.7 C21.8,81.7 22.3,81.3 22.7,80.6 C27.2,72.6 28.9,63.3 28.9,54.2 C28.4,41.3 21,31.8 21,31.8 C21.3,31.8 11.8,19.5 9.1,15.3 C5.4,9.6 3.7,3.9 3.5,3.5 C3.4,3.2 2.5,-0.4 2.5,-0.4 C2.4,-0.8 1.9,-1.2 1.3,-1.2 C0.6,-1.2 0,-0.6 0,0.1 L0,22.7 "/>
<path class="Hook" transform="matrix(0.992,0,0,0.992,1175.33,1123)" d="M0,-0.1 C0,0.6 0.6,1.2 1.3,1.2 C1.8,1.2 2.4,0.8 2.5,0.4 C2.5,0.3 3.4,-3.2 3.5,-3.5 C3.6,-3.9 4.5,-7.7 8.1,-13.6 C12,-20.1 18,-24.8 23,-31.8 C28,-38.8 30.9,-45.4 30.9,-54.2 C30.9,-63.3 28.9,-70.9 23.5,-80.6 C23.2,-81.3 22.6,-81.7 22,-81.7 C21.8,-81.7 21.6,-81.7 21.5,-81.6 C21,-81.4 20.8,-81 20.8,-80.4 C20.8,-80.1 20.9,-79.7 21.1,-79.2 C25.1,-69.9 26.7,-64.6 26.7,-57.4 C26.7,-49.1 23.8,-44.8 22,-41.7 C15.5,-30.6 5,-25.2 0.8,-23.8 C0.1,-23.6 0,-23 0,-22.7 L0,-0.1 "/>
<path class="Hook" transform="matrix(0.992,0,0,0.992,1286.87,659.6)" d="M0,22.7 C0,23 0.1,23.6 0.8,23.8 C5.1,25.2 13.7,30.6 20.2,41.7 C22,44.8 24.9,49.1 24.9,57.4 C24.9,64.6 23.1,72 20.4,79.2 C20.2,79.8 20.1,80.3 20.1,80.7 C20.1,81.4 20.5,81.7 21.2,81.7 C21.8,81.7 22.3,81.3 22.7,80.6 C27.2,72.6 28.9,63.3 28.9,54.2 C28.4,41.3 21,31.8 21,31.8 C21.3,31.8 11.8,19.5 9.1,15.3 C5.4,9.6 3.7,3.9 3.5,3.5 C3.4,3.2 2.5,-0.4 2.5,-0.4 C2.4,-0.8 1.9,-1.2 1.3,-1.2 C0.6,-1.2 0,-0.6 0,0.1 L0,22.7 "/>
<path class="Hook" transform="matrix(0.992,0,0,0.992,1116.57,326.4)" d="M0,22.7 C0,23 0.1,23.6 0.8,23.8 C5.1,25.2 13.7,30.6 20.2,41.7 C22,44.8 24.9,49.1 24.9,57.4 C24.9,64.6 23.1,72 20.4,79.2 C20.2,79.8 20.1,80.3 20.1,80.7 C20.1,81.4 20.5,81.7 21.2,81.7 C21.8,81.7 22.3,81.3 22.7,80.6 C27.2,72.6 28.9,63.3 28.9,54.2 C28.4,41.3 21,31.8 21,31.8 C21.3,31.8 11.8,19.5 9.1,15.3 C5.4,9.6 3.7,3.9 3.5,3.5 C3.4,3.2 2.5,-0.4 2.5,-0.4 C2.4,-0.8 1.9,-1.2 1.3,-1.2 C0.6,-1.2 0,-0.6 0,0.1 L0,22.7 "/>
<path class="Hook" transform="matrix(0.992,0,0,0.992,823.985,789.8)" d="M0,-0.1 C0,0.6 0.6,1.2 1.3,1.2 C1.8,1.2 2.4,0.8 2.5,0.4 C2.5,0.3 3.4,-3.2 3.5,-3.5 C3.6,-3.9 4.5,-7.7 8.1,-13.6 C12,-20.1 18,-24.8 23,-31.8 C28,-38.8 30.9,-45.4 30.9,-54.2 C30.9,-63.3 28.9,-70.9 23.5,-80.6 C23.2,-81.3 22.6,-81.7 22,-81.7 C21.8,-81.7 21.6,-81.7 21.5,-81.6 C21,-81.4 20.8,-81 20.8,-80.4 C20.8,-80.1 20.9,-79.7 21.1,-79.2 C25.1,-69.9 26.7,-64.6 26.7,-57.4 C26.7,-49.1 23.8,-44.8 22,-41.7 C15.5,-30.6 5,-25.2 0.8,-23.8 C0.1,-23.6 0,-23 0,-22.7 L0,-0.1 "/>
<path class="Hook" transform="matrix(0.992,0,0,0.992,1188.35,314)" d="M0,22.7 C0,23 0.1,23.6 0.8,23.8 C5.1,25.2 13.7,30.6 20.2,41.7 C22,44.8 24.9,49.1 24.9,57.4 C24.9,64.6 23.1,72 20.4,79.2 C20.2,79.8 20.1,80.3 20.1,80.7 C20.1,81.4 20.5,81.7 21.2,81.7 C21.8,81.7 22.3,81.3 22.7,80.6 C27.2,72.6 28.9,63.3 28.9,54.2 C28.4,41.3 21,31.8 21,31.8 C21.3,31.8 11.8,19.5 9.1,15.3 C5.4,9.6 3.7,3.9 3.5,3.5 C3.4,3.2 2.5,-0.4 2.5,-0.4 C2.4,-0.8 1.9,-1.2 1.3,-1.2 C0.6,-1.2 0,-0.6 0,0.1 L0,22.7 "/>
<path class="Hook" transform="matrix(0.992,0,0,0.992,1104.19,1123)" d="M0,-0.1 C0,0.6 0.6,1.2 1.3,1.2 C1.8,1.2 2.4,0.8 2.5,0.4 C2.5,0.3 3.4,-3.2 3.5,-3.5 C3.6,-3.9 4.5,-7.7 8.1,-13.6 C12,-20.1 18,-24.8 23,-31.8 C28,-38.8 30.9,-45.4 30.9,-54.2 C30.9,-63.3 28.9,-70.9 23.5,-80.6 C23.2,-81.3 22.6,-81.7 22,-81.7 C21.8,-81.7 21.6,-81.7 21.5,-81.6 C21,-81.4 20.8,-81 20.8,-80.4 C20.8,-80.1 20.9,-79.7 21.1,-79.2 C25.1,-69.9 26.7,-64.6 26.7,-57.4 C26.7,-49.1 23.8,-44.8 22,-41.7 C15.5,-30.6 5,-25.2 0.8,-23.8 C0.1,-23.6 0,-23 0,-22.7 L0,-0.1 "/>
<path class="Hook" transform="matrix(0.992,0,0,0.992,1691.91,641)" d="M0,22.7 C0,23 0.1,23.6 0.8,23.8 C5.1,25.2 13.7,30.6 20.2,41.7 C22,44.8 24.9,49.1 24.9,57.4 C24.9,64.6 23.1,72 20.4,79.2 C20.2,79.8 20.1,80.3 20.1,80.7 C20.1,81.4 20.5,81.7 21.2,81.7 C21.8,81.7 22.3,81.3 22.7,80.6 C27.2,72.6 28.9,63.3 28.9,54.2 C28.4,41.3 21,31.8 21,31.8 C21.3,31.8 11.8,19.5 9.1,15.3 C5.4,9.6 3.7,3.9 3.5,3.5 C3.4,3.2 2.5,-0.4 2.5,-0.4 C2.4,-0.8 1.9,-1.2 1.3,-1.2 C0.6,-1.2 0,-0.6 0,0.1 L0,22.7 "/>
<path class="Hook" transform="matrix(0.992,0,0,0.992,783.91,641)" d="M0,38.1 C0,38.4 0.8,38.8 1.5,39.1 C4.1,40 11.9,45 17.9,53.9 C21.3,59 22.1,62.6 22.1,66 C22.1,66.6 22.1,67.1 22,67.7 C22,70.1 21.3,75.2 19.8,79.2 C19.7,79.7 19.4,80.3 19.4,80.8 C19.4,81.2 19.6,81.6 20.1,81.9 C20.3,82 20.5,82 20.6,82 C21.3,82 21.7,81.2 22.1,80.6 C23.9,77.8 26.5,72.4 26.5,66.8 C26.5,63.9 26.3,61.5 26,59.4 C27.1,55.7 27.9,52 27.9,47.1 C27.9,41.9 26.5,37.2 23.1,32.7 C18.4,26.5 13.3,21.4 9.5,15.8 C5.7,10.3 2.9,0 2.9,0 C2.7,-0.7 2.6,-1.2 1.5,-1.2 C0.3,-1.2 0,-0.7 0,0 L0,38.1 M20.9,47.3 C18.2,43.8 15.2,40.6 10.3,35.7 C6.4,31.8 4.6,28.4 4,25.8 C3.8,25.3 3.7,24.6 3.6,23.8 C8.7,23.9 15.2,30.7 18.8,35.4 C22.7,40.5 23.6,44.6 23.6,48.3 C23.6,49.3 23.5,50.3 23.4,51.3 C22.6,49.7 21.7,48.4 20.9,47.3"/>
<path class="Hook" transform="matrix(0.992,0,0,0.992,1246.46,1135.4)" d="M0,-0.1 C0,0.6 0.6,1.2 1.3,1.2 C1.8,1.2 2.4,0.8 2.5,0.4 C2.5,0.3 3.4,-3.2 3.5,-3.5 C3.6,-3.9 4.5,-7.7 8.1,-13.6 C12,-20.1 18,-24.8 23,-31.8 C28,-38.8 30.9,-45.4 30.9,-54.2 C30.9,-63.3 28.9,-70.9 23.5,-80.6 C23.2,-81.3 22.6,-81.7 22,-81.7 C21.8,-81.7 21.6,-81.7 21.5,-81.6 C21,-81.4 20.8,-81 20.8,-80.4 C20.8,-80.1 20.9,-79.7 21.1,-79.2 C25.1,-69.9 26.7,-64.6 26.7,-57.4 C26.7,-49.1 23.8,-44.8 22,-41.7 C15.5,-30.6 5,-25.2 0.8,-23.8 C0.1,-23.6 0,-23 0,-22.7 L0,-0.1 "/>
<path class="Hook" transform="matrix(0.992,0,0,0.992,785.121,1017.6)" d="M0,38.1 C0,38.4 0.8,38.8 1.5,39.1 C4.1,40 11.9,45 17.9,53.9 C21.3,59 22.1,62.6 22.1,66 C22.1,66.6 22.1,67.1 22,67.7 C22,70.1 21.3,75.2 19.8,79.2 C19.7,79.7 19.4,80.3 19.4,80.8 C19.4,81.2 19.6,81.6 20.1,81.9 C20.3,82 20.5,82 20.6,82 C21.3,82 21.7,81.2 22.1,80.6 C23.9,77.8 26.5,72.4 26.5,66.8 C26.5,63.9 26.3,61.5 26,59.4 C27.1,55.7 27.9,52 27.9,47.1 C27.9,41.9 26.5,37.2 23.1,32.7 C18.4,26.5 13.3,21.4 9.5,15.8 C5.7,10.3 2.9,0 2.9,0 C2.7,-0.7 2.6,-1.2 1.5,-1.2 C0.3,-1.2 0,-0.7 0,0 L0,38.1 M20.9,47.3 C18.2,43.8 15.2,40.6 10.3,35.7 C6.4,31.8 4.6,28.4 4,25.8 C3.8,25.3 3.7,24.6 3.6,23.8 C8.7,23.9 15.2,30.7 18.8,35.4 C22.7,40.5 23.6,44.6 23.6,48.3 C23.6,49.3 23.5,50.3 23.4,51.3 C22.6,49.7 21.7,48.4 20.9,47.3"/>
<path class="Hook" transform="matrix(0.992,0,0,0.992,1260.12,351.2)" d="M0,22.7 C0,23 0.1,23.6 0.8,23.8 C5.1,25.2 13.7,30.6 20.2,41.7 C22,44.8 24.9,49.1 24.9,57.4 C24.9,64.6 23.1,72 20.4,79.2 C20.2,79.8 20.1,80.3 20.1,80.7 C20.1,81.4 20.5,81.7 21.2,81.7 C21.8,81.7 22.3,81.3 22.7,80.6 C27.2,72.6 28.9,63.3 28.9,54.2 C28.4,41.3 21,31.8 21,31.8 C21.3,31.8 11.8,19.5 9.1,15.3 C5.4,9.6 3.7,3.9 3.5,3.5 C3.4,3.2 2.5,-0.4 2.5,-0.4 C2.4,-0.8 1.9,-1.2 1.3,-1.2 C0.6,-1.2 0,-0.6 0,0.1 L0,22.7 "/>
<path class="Hook" transform="matrix(0.992,0,0,0.992,714.082,641)" d="M0,38.1 C0,38.4 0.8,38.8 1.5,39.1 C4.1,40 11.9,45 17.9,53.9 C21.3,59 22.1,62.6 22.1,66 C22.1,66.6 22.1,67.1 22,67.7 C22,70.1 21.3,75.2 19.8,79.2 C19.7,79.7 19.4,80.3 19.4,80.8 C19.4,81.2 19.6,81.6 20.1,81.9 C20.3,82 20.5,82 20.6,82 C21.3,82 21.7,81.2 22.1,80.6 C23.9,77.8 26.5,72.4 26.5,66.8 C26.5,63.9 26.3,61.5 26,59.4 C27.1,55.7 27.9,52 27.9,47.1 C27.9,41.9 26.5,37.2 23.1,32.7 C18.4,26.5 13.3,21.4 9.5,15.8 C5.7,10.3 2.9,0 2.9,0 C2.7,-0.7 2.6,-1.2 1.5,-1.2 C0.3,-1.2 0,-0.7 0,0 L0,38.1 M20.9,47.3 C18.2,43.8 15.2,40.6 10.3,35.7 C6.4,31.8 4.6,28.4 4,25.8 C3.8,25.3 3.7,24.6 3.6,23.8 C8.7,23.9 15.2,30.7 18.8,35.4 C22.7,40.5 23.6,44.6 23.6,48.3 C23.6,49.3 23.5,50.3 23.4,51.3 C22.6,49.7 21.7,48.4 20.9,47.3"/>
<path class="Hook" transform="matrix(0.992,0,0,0.992,1811,1123)" d="M0,-0.1 C0,0.6 0.6,1.2 1.3,1.2 C1.8,1.2 2.4,0.8 2.5,0.4 C2.5,0.3 3.4,-3.2 3.5,-3.5 C3.6,-3.9 4.5,-7.7 8.1,-13.6 C12,-20.1 18,-24.8 23,-31.8 C28,-38.8 30.9,-45.4 30.9,-54.2 C30.9,-63.3 28.9,-70.9 23.5,-80.6 C23.2,-81.3 22.6,-81.7 22,-81.7 C21.8,-81.7 21.6,-81.7 21.5,-81.6 C21,-81.4 20.8,-81 20.8,-80.4 C20.8,-80.1 20.9,-79.7 21.1,-79.2 C25.1,-69.9 26.7,-64.6 26.7,-57.4 C26.7,-49.1 23.8,-44.8 22,-41.7 C15.5,-30.6 5,-25.2 0.8,-23.8 C0.1,-23.6 0,-23 0,-22.7 L0,-0.1 "/>
<path class="Hook" transform="matrix(0.992,0,0,0.992,854.949,1017.6)" d="M0,38.1 C0,38.4 0.8,38.8 1.5,39.1 C4.1,40 11.9,45 17.9,53.9 C21.3,59 22.1,62.6 22.1,66 C22.1,66.6 22.1,67.1 22,67.7 C22,70.1 21.3,75.2 19.8,79.2 C19.7,79.7 19.4,80.3 19.4,80.8 C19.4,81.2 19.6,81.6 20.1,81.9 C20.3,82 20.5,82 20.6,82 C21.3,82 21.7,81.2 22.1,80.6 C23.9,77.8 26.5,72.4 26.5,66.8 C26.5,63.9 26.3,61.5 26,59.4 C27.1,55.7 27.9,52 27.9,47.1 C27.9,41.9 26.5,37.2 23.1,32.7 C18.4,26.5 13.3,21.4 9.5,15.8 C5.7,10.3 2.9,0 2.9,0 C2.7,-0.7 2.6,-1.2 1.5,-1.2 C0.3,-1.2 0,-0.7 0,0 L0,38.1 M20.9,47.3 C18.2,43.8 15.2,40.6 10.3,35.7 C6.4,31.8 4.6,28.4 4,25.8 C3.8,25.3 3.7,24.6 3.6,23.8 C8.7,23.9 15.2,30.7 18.8,35.4 C22.7,40.5 23.6,44.6 23.6,48.3 C23.6,49.3 23.5,50.3 23.4,51.3 C22.6,49.7 21.7,48.4 20.9,47.3"/>
<path class="Hook" transform="matrix(0.992,0,0,0.992,836.132,338.8)" d="M0,38.1 C0,38.4 0.8,38.8 1.5,39.1 C4.1,40 11.9,45 17.9,53.9 C21.3,59 22.1,62.6 22.1,66 C22.1,66.6 22.1,67.1 22,67.7 C22,70.1 21.3,75.2 19.8,79.2 C19.7,79.7 19.4,80.3 19.4,80.8 C19.4,81.2 19.6,81.6 20.1,81.9 C20.3,82 20.5,82 20.6,82 C21.3,82 21.7,81.2 22.1,80.6 C23.9,77.8 26.5,72.4 26.5,66.8 C26.5,63.9 26.3,61.5 26,59.4 C27.1,55.7 27.9,52 27.9,47.1 C27.9,41.9 26.5,37.2 23.1,32.7 C18.4,26.5 13.3,21.4 9.5,15.8 C5.7,10.3 2.9,0 2.9,0 C2.7,-0.7 2.6,-1.2 1.5,-1.2 C0.3,-1.2 0,-0.7 0,0 L0,38.1 M20.9,47.3 C18.2,43.8 15.2,40.6 10.3,35.7 C6.4,31.8 4.6,28.4 4,25.8 C3.8,25.3 3.7,24.6 3.6,23.8 C8.7,23.9 15.2,30.7 18.8,35.4 C22.7,40.5 23.6,44.6 23.6,48.3 C23.6,49.3 23.5,50.3 23.4,51.3 C22.6,49.7 21.7,48.4 20.9,47.3"/>
<path class="Hook" transform="matrix(0.992,0,0,0.992,1357.69,647.2)" d="M0,22.7 C0,23 0.1,23.6 0.8,23.8 C5.1,25.2 13.7,30.6 20.2,41.7 C22,44.8 24.9,49.1 24.9,57.4 C24.9,64.6 23.1,72 20.4,79.2 C20.2,79.8 20.1,80.3 20.1,80.7 C20.1,81.4 20.5,81.7 21.2,81.7 C21.8,81.7 22.3,81.3 22.7,80.6 C27.2,72.6 28.9,63.3 28.9,54.2 C28.4,41.3 21,31.8 21,31.8 C21.3,31.8 11.8,19.5 9.1,15.3 C5.4,9.6 3.7,3.9 3.5,3.5 C3.4,3.2 2.5,-0.4 2.5,-0.4 C2.4,-0.8 1.9,-1.2 1.3,-1.2 C0.6,-1.2 0,-0.6 0,0.1 L0,22.7 "/>
<path class="Hook" transform="matrix(0.992,0,0,0.992,1739.86,1135.4)" d="M0,-0.1 C0,0.6 0.6,1.2 1.3,1.2 C1.8,1.2 2.4,0.8 2.5,0.4 C2.5,0.3 3.4,-3.2 3.5,-3.5 C3.6,-3.9 4.5,-7.7 8.1,-13.6 C12,-20.1 18,-24.8 23,-31.8 C28,-38.8 30.9,-45.4 30.9,-54.2 C30.9,-63.3 28.9,-70.9 23.5,-80.6 C23.2,-81.3 22.6,-81.7 22,-81.7 C21.8,-81.7 21.6,-81.7 21.5,-81.6 C21,-81.4 20.8,-81 20.8,-80.4 C20.8,-80.1 20.9,-79.7 21.1,-79.2 C25.1,-69.9 26.7,-64.6 26.7,-57.4 C26.7,-49.1 23.8,-44.8 22,-41.7 C15.5,-30.6 5,-25.2 0.8,-23.8 C0.1,-23.6 0,-23 0,-22.7 L0,-0.1 "/>
<path class="Hook" transform="matrix(0.992,0,0,0.992,766.304,351.2)" d="M0,38.1 C0,38.4 0.8,38.8 1.5,39.1 C4.1,40 11.9,45 17.9,53.9 C21.3,59 22.1,62.6 22.1,66 C22.1,66.6 22.1,67.1 22,67.7 C22,70.1 21.3,75.2 19.8,79.2 C19.7,79.7 19.4,80.3 19.4,80.8 C19.4,81.2 19.6,81.6 20.1,81.9 C20.3,82 20.5,82 20.6,82 C21.3,82 21.7,81.2 22.1,80.6 C23.9,77.8 26.5,72.4 26.5,66.8 C26.5,63.9 26.3,61.5 26,59.4 C27.1,55.7 27.9,52 27.9,47.1 C27.9,41.9 26.5,37.2 23.1,32.7 C18.4,26.5 13.3,21.4 9.5,15.8 C5.7,10.3 2.9,0 2.9,0 C2.7,-0.7 2.6,-1.2 1.5,-1.2 C0.3,-1.2 0,-0.7 0,0 L0,38.1 M20.9,47.3 C18.2,43.8 15.2,40.6 10.3,35.7 C6.4,31.8 4.6,28.4 4,25.8 C3.8,25.3 3.7,24.6 3.6,23.8 C8.7,23.9 15.2,30.7 18.8,35.4 C22.7,40.5 23.6,44.6 23.6,48.3 C23.6,49.3 23.5,50.3 23.4,51.3 C22.6,49.7 21.7,48.4 20.9,47.3"/>
<path class="Lyrics" d="M861.053,1198.98 L861.053,1195.78 L821.603,1195.78 L821.603,1198.98 L861.053,1198.98 M856.303,1183.58 L856.303,1180.43 L830.503,1180.43 L830.503,1165.28 L826.703,1165.28 L826.703,1183.58 L856.303,1183.58 "/>
<path class="Lyrics" d="M791.96,1183.13 L791.96,1179.93 L784.86,1179.93 L784.86,1161.48 L781.06,1161.48 L781.06,1205.18 L784.86,1205.18 L784.86,1183.13 L791.96,1183.13 M770.41,1167.73 L770.41,1164.48 L757.56,1164.48 L757.56,1167.73 L770.41,1167.73 M776.86,1175.13 L776.86,1171.98 L751.06,1171.98 L751.06,1175.13 L776.86,1175.13 M774.26,1186.98 C774.26,1181.83 770.16,1177.93 764.06,1177.93 C757.96,1177.93 753.86,1181.88 753.86,1186.98 C753.86,1192.08 757.96,1195.98 764.06,1195.98 C770.16,1195.98 774.26,1192.03 774.26,1186.98 M770.46,1186.98 C770.46,1190.38 767.81,1192.83 764.06,1192.83 C760.41,1192.83 757.66,1190.38 757.66,1186.98 C757.66,1183.53 760.41,1181.13 764.06,1181.13 C767.76,1181.13 770.46,1183.53 770.46,1186.98"/>
<path class="Lyrics" d="M494.282,532.279 L494.282,488.579 L490.482,488.579 L490.482,504.179 L480.282,504.179 L480.282,507.38 L490.482,507.38 L490.482,532.279 L494.282,532.279 M484.582,518.929 C478.582,515.429 473.382,508.329 473.382,500.329 L473.382,492.38 L469.432,492.38 L469.432,500.479 C469.432,508.229 464.382,515.98 458.032,519.98 L460.532,522.829 C465.582,519.179 469.882,513.779 471.432,508.329 C473.182,513.579 478.232,519.13 482.232,521.829 L484.582,518.929 "/>
<path class="Lyrics" d="M977.587,1204.53 L977.587,1188.53 L948.937,1188.53 L948.937,1204.53 L977.587,1204.53 M973.787,1201.38 L952.737,1201.38 L952.737,1191.63 L973.787,1191.63 L973.787,1201.38 M973.787,1161.48 L973.787,1185.78 L977.587,1185.78 L977.587,1161.48 L973.787,1161.48 M969.687,1177.58 C964.087,1178.73 954.287,1179.73 947.937,1179.48 L947.937,1163.73 L944.137,1163.73 L944.137,1182.83 L946.637,1182.83 C954.237,1182.83 965.287,1181.88 970.137,1180.83 L969.687,1177.58 "/>
<path class="Lyrics" d="M496.29,1205.18 L496.29,1161.48 L492.49,1161.48 L492.49,1177.08 L482.29,1177.08 L482.29,1180.28 L492.49,1180.28 L492.49,1205.18 L496.29,1205.18 M486.59,1191.83 C480.59,1188.33 475.39,1181.23 475.39,1173.23 L475.39,1165.28 L471.44,1165.28 L471.44,1173.38 C471.44,1181.13 466.39,1188.88 460.04,1192.88 L462.54,1195.73 C467.59,1192.08 471.89,1186.68 473.44,1181.23 C475.19,1186.48 480.24,1192.03 484.24,1194.73 L486.59,1191.83 "/>
<path class="Lyrics" d="M1833.22,837.18 C1826.02,835.78 1817.02,829.48 1817.02,821.98 L1817.02,818.83 L1813.07,818.83 L1813.07,821.98 C1813.07,829.48 1804.57,835.73 1796.92,837.18 L1798.92,840.23 C1806.57,838.13 1813.32,832.73 1814.97,827.73 C1816.87,832.63 1823.47,838.08 1831.12,840.23 L1833.22,837.18 M1834.77,853.73 L1834.77,850.53 L1816.87,850.53 L1816.87,839.33 L1813.07,839.33 L1813.07,850.53 L1795.32,850.53 L1795.32,853.73 L1834.77,853.73 "/>
<path class="Lyrics" d="M1750.93,859.33 L1750.93,844.63 L1768.83,844.63 L1768.83,841.43 L1729.38,841.43 L1729.38,844.63 L1747.13,844.63 L1747.13,859.33 L1750.93,859.33 M1765.03,836.53 L1765.03,833.33 L1757.88,833.33 L1759.53,823.38 L1755.63,822.88 L1754.28,833.33 L1743.63,833.33 L1742.73,822.93 L1738.78,823.43 L1740.03,833.33 L1733.03,833.33 L1733.03,836.53 L1765.03,836.53 M1764.93,821.03 L1764.93,817.83 L1733.13,817.83 L1733.13,821.03 L1764.93,821.03 "/>
<path class="Lyrics" d="M1678.04,848.33 L1678.04,835.38 L1683.74,835.38 L1683.74,857.08 L1687.44,857.08 L1687.44,816.63 L1683.74,816.63 L1683.74,832.18 L1678.04,832.18 L1678.04,819.93 L1674.29,819.93 L1674.29,830.63 L1664.34,830.63 L1664.34,819.93 L1660.59,819.93 L1660.59,848.33 L1678.04,848.33 M1695.99,859.28 L1695.99,815.58 L1692.24,815.58 L1692.24,859.28 L1695.99,859.28 M1674.29,845.13 L1664.34,845.13 L1664.34,833.78 L1674.29,833.78 L1674.29,845.13 "/>
<path class="Lyrics" d="M1483.71,838.88 L1483.71,835.93 L1444.26,835.93 L1444.26,838.88 L1483.71,838.88 M1480.41,858.48 L1480.41,855.48 L1452.61,855.48 L1452.61,851.48 L1479.06,851.48 L1479.06,842.33 L1448.86,842.33 L1448.86,845.13 L1475.26,845.13 L1475.26,848.78 L1448.81,848.78 L1448.81,858.48 L1480.41,858.48 M1479.66,832.48 L1479.66,829.63 L1453.06,829.63 L1453.06,826.18 L1478.81,826.18 L1478.81,817.03 L1449.21,817.03 L1449.21,820.03 L1475.01,820.03 L1475.01,823.43 L1449.26,823.43 L1449.26,832.48 L1479.66,832.48 "/>
<path class="Lyrics" d="M1360.83,859.28 L1360.83,815.58 L1357.03,815.58 L1357.03,859.28 L1360.83,859.28 M1347.93,848.43 L1347.93,819.28 L1344.13,819.28 L1344.13,830.48 L1331.03,830.48 L1331.03,819.28 L1327.28,819.28 L1327.28,848.43 L1347.93,848.43 M1344.13,845.23 L1331.03,845.23 L1331.03,833.63 L1344.13,833.63 L1344.13,845.23 "/>
<path class="Lyrics" d="M1205.58,1161.48 L1205.58,1205.18 L1209.38,1205.18 L1209.38,1161.48 L1205.58,1161.48 M1198.68,1175.28 C1198.68,1168.88 1193.78,1164.88 1187.33,1164.88 C1180.98,1164.88 1175.93,1169.13 1175.93,1175.28 C1175.93,1181.13 1180.88,1185.43 1187.33,1185.43 C1193.63,1185.43 1198.68,1181.48 1198.68,1175.28 M1194.98,1175.28 C1194.98,1179.38 1191.48,1182.23 1187.33,1182.23 C1183.08,1182.23 1179.63,1179.33 1179.63,1175.28 C1179.63,1171.18 1183.13,1168.13 1187.33,1168.13 C1191.58,1168.13 1194.98,1170.88 1194.98,1175.28 M1203.03,1194.08 L1202.68,1190.98 C1199.48,1191.38 1193.83,1191.73 1187.73,1191.93 C1182.43,1192.23 1177.28,1192.33 1173.53,1192.28 L1174.23,1195.63 C1177.53,1195.58 1182.33,1195.43 1187.48,1195.18 C1193.03,1194.93 1199.28,1194.53 1203.03,1194.08"/>
<path class="Lyrics" d="M1279.23,846.18 C1273.23,842.78 1267.88,835.93 1267.88,827.78 L1267.88,823.38 L1277.98,823.38 L1277.98,820.18 L1253.83,820.18 L1253.83,823.38 L1263.93,823.38 L1263.93,827.88 C1263.93,835.73 1258.88,843.43 1252.43,847.23 L1254.93,850.08 C1260.18,846.43 1264.43,841.03 1265.93,835.73 C1267.48,840.93 1272.83,846.43 1276.93,849.03 L1279.23,846.18 M1294.03,836.53 L1294.03,833.33 L1286.93,833.33 L1286.93,815.58 L1283.13,815.58 L1283.13,859.28 L1286.93,859.28 L1286.93,836.53 L1294.03,836.53 "/>
<path class="Lyrics" d="M1141.61,858.63 L1141.61,842.63 L1112.96,842.63 L1112.96,858.63 L1141.61,858.63 M1137.81,855.48 L1116.76,855.48 L1116.76,845.73 L1137.81,845.73 L1137.81,855.48 M1137.81,815.58 L1137.81,839.88 L1141.61,839.88 L1141.61,815.58 L1137.81,815.58 M1133.71,831.68 C1128.11,832.83 1118.31,833.83 1111.96,833.58 L1111.96,817.83 L1108.16,817.83 L1108.16,836.93 L1110.66,836.93 C1118.26,836.93 1129.31,835.98 1134.16,834.93 L1133.71,831.68 "/>
<path class="Lyrics" d="M1043.85,833.18 C1037.15,832.43 1028.2,827.98 1028,821.83 L1042.05,821.83 L1042.05,818.68 L1009.85,818.68 L1009.85,821.83 L1024,821.83 C1023.8,827.93 1015.35,832.53 1008.2,833.28 L1009.95,836.48 C1017.4,835.23 1024.2,830.73 1025.95,826.63 C1027.95,830.73 1034.9,835.13 1042.05,836.38 L1043.85,833.18 M1027.8,859.28 L1027.8,843.63 L1045.7,843.63 L1045.7,840.43 L1006.25,840.43 L1006.25,843.63 L1024,843.63 L1024,859.28 L1027.8,859.28 "/>
<path class="Lyrics" d="M1245.03,1179.98 C1245.03,1189.28 1249.03,1195.43 1256.08,1195.43 C1262.73,1195.43 1266.63,1189.93 1267.03,1181.53 L1276.38,1181.53 L1276.38,1205.18 L1280.18,1205.18 L1280.18,1161.48 L1276.38,1161.48 L1276.38,1178.28 L1267.03,1178.28 C1266.53,1169.98 1262.68,1164.53 1256.08,1164.53 C1249.03,1164.53 1245.03,1170.73 1245.03,1179.98 M1263.33,1180.03 C1263.33,1187.13 1260.38,1192.13 1256.08,1192.13 C1251.73,1192.13 1248.83,1187.13 1248.83,1180.03 C1248.83,1172.83 1251.73,1167.83 1256.08,1167.83 C1260.38,1167.83 1263.33,1172.83 1263.33,1180.03"/>
<path class="Lyrics" d="M925.78,841.33 L925.78,838.13 L886.33,838.13 L886.33,841.33 L925.78,841.33 M921.58,858.33 L921.58,855.18 L895.28,855.18 L895.28,845.43 L891.48,845.43 L891.48,858.33 L921.58,858.33 M921.38,832.68 L921.38,829.53 L895.43,829.53 L895.43,817.43 L891.63,817.43 L891.63,832.68 L921.38,832.68 "/>
<path class="Lyrics" d="M858.235,859.28 L858.235,815.58 L854.385,815.58 L854.385,859.28 L858.235,859.28 M848.835,845.88 C842.785,842.28 837.485,835.13 837.485,827.13 L837.485,819.38 L833.635,819.38 L833.635,827.28 C833.635,835.03 828.385,842.98 821.985,846.98 L824.485,849.83 C829.535,846.23 834.035,840.88 835.635,835.43 C837.335,840.68 842.485,846.08 846.435,848.78 L848.835,845.88 "/>
<path class="Lyrics" d="M761.817,819.38 C755.467,819.38 752.217,825.58 752.217,834.33 C752.217,843.13 755.467,849.28 761.817,849.28 C768.217,849.28 771.467,843.13 771.467,834.33 C771.467,825.58 768.217,819.38 761.817,819.38 M788.367,859.28 L788.367,815.58 L784.617,815.58 L784.617,833.28 L779.267,833.28 L779.267,816.48 L775.567,816.48 L775.567,857.23 L779.267,857.23 L779.267,836.43 L784.617,836.43 L784.617,859.28 L788.367,859.28 M767.667,834.33 C767.667,841.43 765.367,845.93 761.817,845.93 C758.317,845.93 756.067,841.43 756.067,834.33 C756.067,827.28 758.317,822.73 761.817,822.73 C765.367,822.73 767.667,827.28 767.667,834.33"/>
<path class="Lyrics" d="M1349.99,1193.23 L1349.99,1161.48 L1346.19,1161.48 L1346.19,1193.23 L1349.99,1193.23 M1351.19,1204.18 L1351.19,1201.03 L1325.04,1201.03 L1325.04,1191.78 L1321.24,1191.78 L1321.24,1204.18 L1351.19,1204.18 M1340.39,1183.38 C1335.89,1184.33 1327.14,1184.58 1320.29,1184.58 L1320.29,1177.13 L1336.69,1177.13 L1336.69,1164.38 L1316.29,1164.38 L1316.29,1167.53 L1332.89,1167.53 L1332.89,1174.08 L1316.49,1174.08 L1316.49,1187.78 L1321.34,1187.78 C1329.09,1187.73 1336.24,1187.23 1340.74,1186.48 L1340.39,1183.38 "/>
<path class="Lyrics" d="M715.983,839.08 L715.983,815.58 L712.183,815.58 L712.183,825.98 L704.833,825.98 L704.833,829.13 L712.183,829.13 L712.183,839.08 L715.983,839.08 M720.283,856.43 C715.583,854.18 712.583,849.68 712.583,844.93 L712.583,841.23 L708.883,841.23 L708.883,844.93 C708.883,849.58 706.333,854.38 701.383,856.63 L703.483,859.43 C706.933,857.58 709.883,853.98 710.683,851.08 C711.633,854.03 714.833,857.38 718.033,859.23 L720.283,856.43 M700.333,858.68 L700.333,841.73 L696.733,841.73 L696.733,847.18 L689.033,847.18 L689.033,841.73 L685.433,841.73 L685.433,858.68 L700.333,858.68 M696.733,855.68 L689.033,855.68 L689.033,850.08 L696.733,850.08 L696.733,855.68 M691.883,817.73 C685.733,817.73 680.633,821.83 680.633,827.98 C680.633,834.18 685.783,838.08 691.883,838.08 C698.033,838.08 703.083,834.18 703.083,827.93 C703.083,821.73 698.033,817.73 691.883,817.73 M691.883,821.03 C696.383,821.03 699.283,823.88 699.283,827.98 C699.283,832.13 696.333,834.93 691.883,834.93 C687.583,834.93 684.433,832.13 684.433,827.93 C684.433,823.83 687.583,821.03 691.883,821.03"/>
<path class="Lyrics" d="M594.805,838.88 L594.805,835.93 L555.355,835.93 L555.355,838.88 L594.805,838.88 M591.505,858.48 L591.505,855.48 L563.705,855.48 L563.705,851.48 L590.155,851.48 L590.155,842.33 L559.955,842.33 L559.955,845.13 L586.355,845.13 L586.355,848.78 L559.905,848.78 L559.905,858.48 L591.505,858.48 M590.755,832.48 L590.755,829.63 L564.155,829.63 L564.155,826.18 L589.905,826.18 L589.905,817.03 L560.305,817.03 L560.305,820.03 L586.105,820.03 L586.105,823.43 L560.355,823.43 L560.355,832.48 L590.755,832.48 "/>
<path class="Lyrics" d="M773.143,510.229 L773.143,507.029 L766.043,507.029 L766.043,488.579 L762.243,488.579 L762.243,532.279 L766.043,532.279 L766.043,510.229 L773.143,510.229 M751.593,494.829 L751.593,491.579 L738.743,491.579 L738.743,494.829 L751.593,494.829 M758.043,502.229 L758.043,499.079 L732.243,499.079 L732.243,502.229 L758.043,502.229 M755.443,514.079 C755.443,508.929 751.343,505.029 745.243,505.029 C739.143,505.029 735.043,508.979 735.043,514.079 C735.043,519.179 739.143,523.079 745.243,523.079 C751.343,523.079 755.443,519.13 755.443,514.079 M751.643,514.079 C751.643,517.48 748.993,519.929 745.243,519.929 C741.593,519.929 738.843,517.48 738.843,514.079 C738.843,510.63 741.593,508.229 745.243,508.229 C748.943,508.229 751.643,510.63 751.643,514.079"/>
<path class="Lyrics" d="M460.8,823.43 L470.75,823.43 C470.7,829.93 465.2,835.38 459.6,837.28 L461.6,840.28 C466.8,837.88 471.35,833.63 472.75,829.38 C474.5,833.28 479.5,837.23 483.75,838.88 L485.75,835.98 C481.15,834.53 474.65,829.88 474.6,823.43 L484.9,823.43 L484.9,820.23 L460.8,820.23 L460.8,823.43 M494,859.28 L494,815.58 L490.25,815.58 L490.25,859.28 L494,859.28 M487.3,849.33 L486.95,846.23 C484.15,846.63 479.35,846.93 474.55,847.23 L474.55,837.83 L470.75,837.83 L470.75,847.48 C466.1,847.63 461.7,847.78 458.35,847.78 L459,851.13 C462.7,851.08 467.6,850.88 472.45,850.63 C477.8,850.23 483.85,849.78 487.3,849.33"/>
<path class="Lyrics" d="M1473.56,1177.68 L1466.91,1177.68 L1466.91,1171.43 L1473.56,1171.43 L1473.56,1168.23 L1466.91,1168.23 L1466.91,1161.48 L1463.11,1161.48 L1463.11,1187.83 L1466.91,1187.83 L1466.91,1180.83 L1473.56,1180.83 L1473.56,1177.68 M1467.26,1196.68 C1467.26,1191.73 1462.31,1188.28 1452.76,1188.28 C1443.26,1188.28 1438.36,1191.63 1438.36,1196.68 C1438.36,1201.68 1443.26,1205.08 1452.76,1205.08 C1462.31,1205.08 1467.26,1201.68 1467.26,1196.68 M1452.76,1191.43 C1459.36,1191.43 1463.36,1193.48 1463.36,1196.68 C1463.36,1199.93 1459.36,1201.93 1452.76,1201.93 C1446.16,1201.93 1442.26,1199.83 1442.26,1196.68 C1442.26,1193.53 1446.16,1191.43 1452.76,1191.43 M1445.11,1163.88 C1438.86,1163.88 1433.76,1168.08 1433.76,1174.43 C1433.76,1180.83 1438.86,1184.78 1445.11,1184.78 C1451.31,1184.78 1456.41,1180.83 1456.41,1174.38 C1456.41,1168.08 1451.31,1163.88 1445.11,1163.88 M1445.11,1166.98 C1449.71,1166.98 1452.76,1170.08 1452.76,1174.43 C1452.76,1178.73 1449.66,1181.68 1445.11,1181.68 C1440.71,1181.68 1437.46,1178.73 1437.46,1174.38 C1437.46,1170.08 1440.71,1166.98 1445.11,1166.98"/>
<path class="Lyrics" d="M1841.25,1161.48 L1841.25,1205.18 L1845.05,1205.18 L1845.05,1161.48 L1841.25,1161.48 M1834.35,1175.28 C1834.35,1168.88 1829.45,1164.88 1823,1164.88 C1816.65,1164.88 1811.6,1169.13 1811.6,1175.28 C1811.6,1181.13 1816.55,1185.43 1823,1185.43 C1829.3,1185.43 1834.35,1181.48 1834.35,1175.28 M1830.65,1175.28 C1830.65,1179.38 1827.15,1182.23 1823,1182.23 C1818.75,1182.23 1815.3,1179.33 1815.3,1175.28 C1815.3,1171.18 1818.8,1168.13 1823,1168.13 C1827.25,1168.13 1830.65,1170.88 1830.65,1175.28 M1838.7,1194.08 L1838.35,1190.98 C1835.15,1191.38 1829.5,1191.73 1823.4,1191.93 C1818.1,1192.23 1812.95,1192.33 1809.2,1192.28 L1809.9,1195.63 C1813.2,1195.58 1818,1195.43 1823.15,1195.18 C1828.7,1194.93 1834.95,1194.53 1838.7,1194.08"/>
<path class="Lyrics" d="M1829.17,488.579 L1829.17,532.279 L1832.97,532.279 L1832.97,488.579 L1829.17,488.579 M1822.27,502.38 C1822.27,495.979 1817.37,491.979 1810.92,491.979 C1804.57,491.979 1799.52,496.229 1799.52,502.38 C1799.52,508.229 1804.47,512.529 1810.92,512.529 C1817.22,512.529 1822.27,508.579 1822.27,502.38 M1818.57,502.38 C1818.57,506.479 1815.07,509.329 1810.92,509.329 C1806.67,509.329 1803.22,506.429 1803.22,502.38 C1803.22,498.279 1806.72,495.229 1810.92,495.229 C1815.17,495.229 1818.57,497.979 1818.57,502.38 M1826.62,521.179 L1826.27,518.079 C1823.07,518.48 1817.42,518.829 1811.32,519.029 C1806.02,519.329 1800.87,519.429 1797.12,519.38 L1797.82,522.73 C1801.12,522.679 1805.92,522.529 1811.07,522.279 C1816.62,522.029 1822.87,521.63 1826.62,521.179"/>
<path class="Lyrics" d="M1748.24,508.729 C1743.29,507.029 1737.54,501.679 1737.54,494.729 L1737.54,490.679 L1733.69,490.679 L1733.69,494.88 C1733.69,501.829 1728.99,507.329 1722.74,510.279 L1724.84,513.23 C1729.94,510.579 1734.39,506.229 1735.74,501.579 C1737.49,505.979 1741.79,509.729 1745.99,511.779 L1748.24,508.729 M1757.74,523.88 C1757.74,518.679 1752.24,515.48 1743.04,515.48 C1733.89,515.48 1728.44,518.679 1728.44,523.88 C1728.44,529.079 1733.89,532.23 1743.04,532.23 C1752.24,532.23 1757.74,529.079 1757.74,523.88 M1743.04,518.63 C1749.69,518.63 1753.84,520.529 1753.84,523.88 C1753.84,527.23 1749.69,529.079 1743.04,529.079 C1736.44,529.079 1732.34,527.23 1732.34,523.88 C1732.34,520.529 1736.44,518.63 1743.04,518.63 M1763.79,503.63 L1763.79,500.429 L1757.14,500.429 L1757.14,488.579 L1753.34,488.579 L1753.34,515.529 L1757.14,515.529 L1757.14,503.63 L1763.79,503.63 "/>
<path class="Lyrics" d="M1690.47,532.279 L1690.47,488.579 L1686.72,488.579 L1686.72,532.279 L1690.47,532.279 M1681.82,530.079 L1681.82,489.63 L1678.12,489.63 L1678.12,504.329 L1670.37,504.329 L1670.37,507.529 L1678.12,507.529 L1678.12,530.079 L1681.82,530.079 M1675.47,518.48 C1670.72,515.329 1665.62,508.979 1665.62,500.479 L1665.62,492.63 L1661.87,492.63 L1661.87,500.579 C1661.87,509.13 1657.47,516.579 1652.52,519.73 L1654.87,522.579 C1659.22,519.429 1662.82,513.73 1663.77,508.729 C1665.17,513.679 1669.77,518.88 1673.12,521.279 L1675.47,518.48 "/>
<path class="Lyrics" d="M1703.83,1205.18 L1703.83,1161.48 L1700.08,1161.48 L1700.08,1205.18 L1703.83,1205.18 M1695.18,1202.98 L1695.18,1162.53 L1691.48,1162.53 L1691.48,1177.23 L1683.73,1177.23 L1683.73,1180.43 L1691.48,1180.43 L1691.48,1202.98 L1695.18,1202.98 M1688.83,1191.38 C1684.08,1188.23 1678.98,1181.88 1678.98,1173.38 L1678.98,1165.53 L1675.23,1165.53 L1675.23,1173.48 C1675.23,1182.03 1670.83,1189.48 1665.88,1192.63 L1668.23,1195.48 C1672.58,1192.33 1676.18,1186.63 1677.13,1181.63 C1678.53,1186.58 1683.13,1191.78 1686.48,1194.18 L1688.83,1191.38 "/>
<path class="Lyrics" d="M1458.11,504.779 L1451.46,504.779 L1451.46,498.529 L1458.11,498.529 L1458.11,495.329 L1451.46,495.329 L1451.46,488.579 L1447.66,488.579 L1447.66,514.929 L1451.46,514.929 L1451.46,507.929 L1458.11,507.929 L1458.11,504.779 M1451.81,523.779 C1451.81,518.829 1446.86,515.38 1437.31,515.38 C1427.81,515.38 1422.91,518.73 1422.91,523.779 C1422.91,528.779 1427.81,532.179 1437.31,532.179 C1446.86,532.179 1451.81,528.779 1451.81,523.779 M1437.31,518.529 C1443.91,518.529 1447.91,520.579 1447.91,523.779 C1447.91,527.029 1443.91,529.029 1437.31,529.029 C1430.71,529.029 1426.81,526.929 1426.81,523.779 C1426.81,520.63 1430.71,518.529 1437.31,518.529 M1429.66,490.979 C1423.41,490.979 1418.31,495.179 1418.31,501.529 C1418.31,507.929 1423.41,511.88 1429.66,511.88 C1435.86,511.88 1440.96,507.929 1440.96,501.479 C1440.96,495.179 1435.86,490.979 1429.66,490.979 M1429.66,494.079 C1434.26,494.079 1437.31,497.179 1437.31,501.529 C1437.31,505.829 1434.21,508.779 1429.66,508.779 C1425.26,508.779 1422.01,505.829 1422.01,501.479 C1422.01,497.179 1425.26,494.079 1429.66,494.079"/>
<path class="Lyrics" d="M1334.54,520.329 L1334.54,488.579 L1330.74,488.579 L1330.74,520.329 L1334.54,520.329 M1335.74,531.279 L1335.74,528.13 L1309.59,528.13 L1309.59,518.88 L1305.79,518.88 L1305.79,531.279 L1335.74,531.279 M1324.94,510.479 C1320.44,511.429 1311.69,511.679 1304.84,511.679 L1304.84,504.229 L1321.24,504.229 L1321.24,491.479 L1300.84,491.479 L1300.84,494.63 L1317.44,494.63 L1317.44,501.179 L1301.04,501.179 L1301.04,514.88 L1305.89,514.88 C1313.64,514.829 1320.79,514.329 1325.29,513.579 L1324.94,510.479 "/>
<path class="Lyrics" d="M1228.94,507.079 C1228.94,516.38 1232.94,522.529 1239.99,522.529 C1246.64,522.529 1250.54,517.029 1250.94,508.63 L1260.29,508.63 L1260.29,532.279 L1264.09,532.279 L1264.09,488.579 L1260.29,488.579 L1260.29,505.38 L1250.94,505.38 C1250.44,497.079 1246.59,491.63 1239.99,491.63 C1232.94,491.63 1228.94,497.829 1228.94,507.079 M1247.24,507.13 C1247.24,514.23 1244.29,519.23 1239.99,519.23 C1235.64,519.23 1232.74,514.23 1232.74,507.13 C1232.74,499.929 1235.64,494.929 1239.99,494.929 C1244.29,494.929 1247.24,499.929 1247.24,507.13"/>
<path class="Lyrics" d="M1760.97,1181.63 C1756.02,1179.93 1750.27,1174.58 1750.27,1167.63 L1750.27,1163.58 L1746.42,1163.58 L1746.42,1167.78 C1746.42,1174.73 1741.72,1180.23 1735.47,1183.18 L1737.57,1186.13 C1742.67,1183.48 1747.12,1179.13 1748.47,1174.48 C1750.22,1178.88 1754.52,1182.63 1758.72,1184.68 L1760.97,1181.63 M1770.47,1196.78 C1770.47,1191.58 1764.97,1188.38 1755.77,1188.38 C1746.62,1188.38 1741.17,1191.58 1741.17,1196.78 C1741.17,1201.98 1746.62,1205.13 1755.77,1205.13 C1764.97,1205.13 1770.47,1201.98 1770.47,1196.78 M1755.77,1191.53 C1762.42,1191.53 1766.57,1193.43 1766.57,1196.78 C1766.57,1200.13 1762.42,1201.98 1755.77,1201.98 C1749.17,1201.98 1745.07,1200.13 1745.07,1196.78 C1745.07,1193.43 1749.17,1191.53 1755.77,1191.53 M1776.52,1176.53 L1776.52,1173.33 L1769.87,1173.33 L1769.87,1161.48 L1766.07,1161.48 L1766.07,1188.43 L1769.87,1188.43 L1769.87,1176.53 L1776.52,1176.53 "/>
<path class="Lyrics" d="M1188.85,488.579 L1188.85,532.279 L1192.65,532.279 L1192.65,488.579 L1188.85,488.579 M1181.95,502.38 C1181.95,495.979 1177.05,491.979 1170.6,491.979 C1164.25,491.979 1159.2,496.229 1159.2,502.38 C1159.2,508.229 1164.15,512.529 1170.6,512.529 C1176.9,512.529 1181.95,508.579 1181.95,502.38 M1178.25,502.38 C1178.25,506.479 1174.75,509.329 1170.6,509.329 C1166.35,509.329 1162.9,506.429 1162.9,502.38 C1162.9,498.279 1166.4,495.229 1170.6,495.229 C1174.85,495.229 1178.25,497.979 1178.25,502.38 M1186.3,521.179 L1185.95,518.079 C1182.75,518.48 1177.1,518.829 1171,519.029 C1165.7,519.329 1160.55,519.429 1156.8,519.38 L1157.5,522.73 C1160.8,522.679 1165.6,522.529 1170.75,522.279 C1176.3,522.029 1182.55,521.63 1186.3,521.179"/>
<path class="Lyrics" d="M958.771,531.63 L958.771,515.63 L930.121,515.63 L930.121,531.63 L958.771,531.63 M954.971,528.48 L933.921,528.48 L933.921,518.73 L954.971,518.73 L954.971,528.48 M954.971,488.579 L954.971,512.88 L958.771,512.88 L958.771,488.579 L954.971,488.579 M950.871,504.679 C945.271,505.829 935.471,506.829 929.121,506.579 L929.121,490.829 L925.321,490.829 L925.321,509.929 L927.821,509.929 C935.421,509.929 946.471,508.979 951.321,507.929 L950.871,504.679 "/>
<path class="Lyrics" d="M842.236,526.079 L842.236,522.88 L802.786,522.88 L802.786,526.079 L842.236,526.079 M837.486,510.679 L837.486,507.529 L811.686,507.529 L811.686,492.38 L807.886,492.38 L807.886,510.679 L837.486,510.679 "/>
<polyline class="LyricsLineSegment" fill="none" stroke="#000000" stroke-width="2.48" stroke-linejoin="bevel" points="1047.85,514.801 1067.69,514.801"/>
<polyline class="LyricsLineSegment" fill="none" stroke="#000000" stroke-width="2.48" stroke-linejoin="bevel" points="613.745,1187.7 633.585,1187.7"/>
<polyline class="LyricsLineSegment" fill="none" stroke="#000000" stroke-width="2.48" stroke-linejoin="bevel" points="1065.62,1187.7 1085.46,1187.7"/>
<path class="NoteDot" transform="matrix(0.992,0,0,0.992,603.58,721.6)" d="M0,0 C0,2.8 2.2,5 5,5 C7.8,5 10,2.8 10,0 C10,-2.8 7.8,-5 5,-5 C2.2,-5 0,-2.8 0,0"/>
<path class="NoteDot" transform="matrix(0.992,0,0,0.992,664.732,1092)" d="M0,0 C0,2.8 2.2,5 5,5 C7.8,5 10,2.8 10,0 C10,-2.8 7.8,-5 5,-5 C2.2,-5 0,-2.8 0,0"/>
<path class="NoteDot" transform="matrix(0.992,0,0,0.992,504.673,450.4)" d="M0,0 C0,2.8 2.2,5 5,5 C7.8,5 10,2.8 10,0 C10,-2.8 7.8,-5 5,-5 C2.2,-5 0,-2.8 0,0"/>
</svg>
