<?xml version="1.0" encoding="UTF-8" standalone="no"?>
<svg width="2098.8px" height="1418.4px" viewBox="0 0 2098.8 1418.4"
 xmlns="http://www.w3.org/2000/svg" xmlns:xlink="http://www.w3.org/1999/xlink" version="1.2" baseProfile="tiny">
<title>44 하느님의 어린양.musicxml (1)</title>
<desc>Generated by MuseScore 4.2.1</desc>
<polyline class="StaffLines" fill="none" stroke="#000000" stroke-width="2.73" stroke-linejoin="bevel" points="336.598,483.951 1886.6,483.951"/>
<polyline class="StaffLines" fill="none" stroke="#000000" stroke-width="2.73" stroke-linejoin="bevel" points="336.598,508.751 1886.6,508.751"/>
<polyline class="StaffLines" fill="none" stroke="#000000" stroke-width="2.73" stroke-linejoin="bevel" points="336.598,533.551 1886.6,533.551"/>
<polyline class="StaffLines" fill="none" stroke="#000000" stroke-width="2.73" stroke-linejoin="bevel" points="336.598,558.351 1886.6,558.351"/>
<polyline class="StaffLines" fill="none" stroke="#000000" stroke-width="2.73" stroke-linejoin="bevel" points="336.598,583.151 1886.6,583.151"/>
<polyline class="StaffLines" fill="none" stroke="#000000" stroke-width="2.73" stroke-linejoin="bevel" points="212.598,933.2 1886.6,933.2"/>
<polyline class="StaffLines" fill="none" stroke="#000000" stroke-width="2.73" stroke-linejoin="bevel" points="212.598,958 1886.6,958"/>
<polyline class="StaffLines" fill="none" stroke="#000000" stroke-width="2.73" stroke-linejoin="bevel" points="212.598,982.8 1886.6,982.8"/>
<polyline class="StaffLines" fill="none" stroke="#000000" stroke-width="2.73" stroke-linejoin="bevel" points="212.598,1007.6 1886.6,1007.6"/>
<polyline class="StaffLines" fill="none" stroke="#000000" stroke-width="2.73" stroke-linejoin="bevel" points="212.598,1032.4 1886.6,1032.4"/>
<path class="MeasureNumber" d="M233.391,855.28 L231.231,855.28 L212.591,874.56 L212.591,876.24 L223.871,876.24 L223.231,878.68 C222.431,881.72 222.431,881.72 218.951,881.72 L218.231,881.72 L217.991,883.6 L230.431,883.6 L230.631,881.72 L229.911,881.72 C227.271,881.72 226.711,881.52 226.711,880.64 C226.711,880.32 226.791,879.92 227.111,878.68 L227.791,876.24 L232.351,876.24 L232.951,874.08 L228.351,874.08 L233.391,855.28 M224.471,874.08 L215.511,874.08 L227.871,861.36 L224.471,874.08 "/>
<path class="TieSegment" stroke="#000000" stroke-width="1.24" stroke-linecap="round" stroke-linejoin="round" fill-rule="evenodd" d="M806.447,601.352 C843.496,623.748 954.643,623.748 991.691,601.352 C954.643,631.684 843.496,631.684 806.447,601.352"/>
<polyline class="BarLine" fill="none" stroke="#000000" stroke-width="4.46" stroke-linejoin="bevel" points="1884.37,482.587 1884.37,584.515"/>
<polyline class="BarLine" fill="none" stroke="#000000" stroke-width="4.46" stroke-linejoin="bevel" points="1884.37,931.836 1884.37,1033.76"/>
<polyline class="BarLine" fill="none" stroke="#000000" stroke-width="4.46" stroke-linejoin="bevel" points="754.268,482.587 754.268,584.515"/>
<polyline class="BarLine" fill="none" stroke="#000000" stroke-width="4.46" stroke-linejoin="bevel" points="1319.32,482.587 1319.32,584.515"/>
<polyline class="BarLine" fill="none" stroke="#000000" stroke-width="4.46" stroke-linejoin="bevel" points="1417.44,931.836 1417.44,1033.76"/>
<polyline class="BarLine" fill="none" stroke="#000000" stroke-width="4.46" stroke-linejoin="bevel" points="982.778,931.836 982.778,1033.76"/>
<polyline class="LedgerLine" fill="none" stroke="#000000" stroke-width="3.97" stroke-linejoin="bevel" points="1790.73,1057.2 1839.33,1057.2"/>
<polyline class="LedgerLine" fill="none" stroke="#000000" stroke-width="3.97" stroke-linejoin="bevel" points="1790.73,1082 1839.33,1082"/>
<polyline class="LedgerLine" fill="none" stroke="#000000" stroke-width="3.97" stroke-linejoin="bevel" points="1717.93,1057.2 1766.53,1057.2"/>
<polyline class="LedgerLine" fill="none" stroke="#000000" stroke-width="3.97" stroke-linejoin="bevel" points="1620.34,607.951 1668.94,607.951"/>
<polyline class="LedgerLine" fill="none" stroke="#000000" stroke-width="3.97" stroke-linejoin="bevel" points="1323.81,1057.2 1372.41,1057.2"/>
<polyline class="LedgerLine" fill="none" stroke="#000000" stroke-width="3.97" stroke-linejoin="bevel" points="889.143,1057.2 937.743,1057.2"/>
<polyline class="LedgerLine" fill="none" stroke="#000000" stroke-width="3.97" stroke-linejoin="bevel" points="1224.37,607.951 1272.97,607.951"/>
<polyline class="LedgerLine" fill="none" stroke="#000000" stroke-width="3.97" stroke-linejoin="bevel" points="1251,1057.2 1299.6,1057.2"/>
<polyline class="LedgerLine" fill="none" stroke="#000000" stroke-width="3.97" stroke-linejoin="bevel" points="1105.84,1057.2 1154.44,1057.2"/>
<polyline class="LedgerLine" fill="none" stroke="#000000" stroke-width="3.97" stroke-linejoin="bevel" points="1105.84,1082 1154.44,1082"/>
<polyline class="Stem" fill="none" stroke="#000000" stroke-width="2.48" stroke-linejoin="bevel" points="1145.02,1078.03 1145.02,982.8"/>
<polyline class="Stem" fill="none" stroke="#000000" stroke-width="2.48" stroke-linejoin="bevel" points="1179.01,591.583 1179.01,508.95"/>
<polyline class="Stem" fill="none" stroke="#000000" stroke-width="2.48" stroke-linejoin="bevel" points="1048.24,1040.83 1048.24,958"/>
<polyline class="Stem" fill="none" stroke="#000000" stroke-width="2.48" stroke-linejoin="bevel" points="1094.47,579.183 1094.47,496.55"/>
<polyline class="Stem" fill="none" stroke="#000000" stroke-width="2.48" stroke-linejoin="bevel" points="1290.18,1065.63 1290.18,982.998"/>
<polyline class="Stem" fill="none" stroke="#000000" stroke-width="2.48" stroke-linejoin="bevel" points="1263.54,603.983 1263.54,521.35"/>
<polyline class="Stem" fill="none" stroke="#000000" stroke-width="2.48" stroke-linejoin="bevel" points="1009.94,579.183 1009.94,496.55"/>
<polyline class="Stem" fill="none" stroke="#000000" stroke-width="2.48" stroke-linejoin="bevel" points="1362.98,1053.23 1362.98,970.598"/>
<polyline class="Stem" fill="none" stroke="#000000" stroke-width="2.48" stroke-linejoin="bevel" points="928.319,1053.23 928.319,970.598"/>
<polyline class="Stem" fill="none" stroke="#000000" stroke-width="2.48" stroke-linejoin="bevel" points="819.732,579.183 819.732,496.351"/>
<polyline class="Stem" fill="none" stroke="#000000" stroke-width="2.48" stroke-linejoin="bevel" points="1482.91,1040.83 1482.91,958"/>
<polyline class="Stem" fill="none" stroke="#000000" stroke-width="2.48" stroke-linejoin="bevel" points="1384.78,579.183 1384.78,496.351"/>
<polyline class="Stem" fill="none" stroke="#000000" stroke-width="2.48" stroke-linejoin="bevel" points="863.802,1040.83 863.802,958.198"/>
<polyline class="Stem" fill="none" stroke="#000000" stroke-width="2.48" stroke-linejoin="bevel" points="818.927,1028.43 818.927,945.699"/>
<polyline class="Stem" fill="none" stroke="#000000" stroke-width="2.48" stroke-linejoin="bevel" points="749.1,1028.43 749.1,945.699"/>
<polyline class="Stem" fill="none" stroke="#000000" stroke-width="2.48" stroke-linejoin="bevel" points="713.596,579.183 713.596,508.751"/>
<polyline class="Stem" fill="none" stroke="#000000" stroke-width="2.48" stroke-linejoin="bevel" points="1659.52,603.983 1659.52,521.35"/>
<polyline class="Stem" fill="none" stroke="#000000" stroke-width="2.48" stroke-linejoin="bevel" points="1692.59,1040.83 1692.59,958.198"/>
<polyline class="Stem" fill="none" stroke="#000000" stroke-width="2.48" stroke-linejoin="bevel" points="491.033,1028.43 491.033,945.6"/>
<polyline class="Stem" fill="none" stroke="#000000" stroke-width="2.48" stroke-linejoin="bevel" points="1757.1,1053.23 1757.1,970.598"/>
<polyline class="Stem" fill="none" stroke="#000000" stroke-width="2.48" stroke-linejoin="bevel" points="657.239,579.183 657.239,508.751"/>
<polyline class="Stem" fill="none" stroke="#000000" stroke-width="2.48" stroke-linejoin="bevel" points="1744.06,591.583 1744.06,508.95"/>
<polyline class="Stem" fill="none" stroke="#000000" stroke-width="2.48" stroke-linejoin="bevel" points="1829.91,1078.03 1829.91,982.998"/>
<polyline class="Stem" fill="none" stroke="#000000" stroke-width="2.48" stroke-linejoin="bevel" points="587.808,1028.43 587.808,945.6"/>
<polyline class="Stem" fill="none" stroke="#000000" stroke-width="2.48" stroke-linejoin="bevel" points="1828.59,579.183 1828.59,496.55"/>
<path class="Note" transform="matrix(0.992,0,0,0.992,556.816,1032.4)" d="M0,4.2 C0,8.5 3.1,13.3 11.2,13.3 C21.6,13.3 32.5,4.8 32.5,-4 C32.5,-9.9 27.5,-13.2 21.3,-13.2 C11.6,-13.2 0,-5 0,4.2"/>
<path class="Note" transform="matrix(0.992,0,0,0.992,1797.6,583.151)" d="M0,4.2 C0,8.5 3.1,13.3 11.2,13.3 C21.6,13.3 32.5,4.8 32.5,-4 C32.5,-9.9 27.5,-13.2 21.3,-13.2 C11.6,-13.2 0,-5 0,4.2"/>
<path class="Note" transform="matrix(0.992,0,0,0.992,1798.91,1082)" d="M0,4.2 C0,8.5 3.1,13.3 11.2,13.3 C21.6,13.3 32.5,4.8 32.5,-4 C32.5,-9.9 27.5,-13.2 21.3,-13.2 C11.6,-13.2 0,-5 0,4.2"/>
<path class="Note" transform="matrix(0.992,0,0,0.992,897.327,1057.2)" d="M0,4.2 C0,8.5 3.1,13.3 11.2,13.3 C21.6,13.3 32.5,4.8 32.5,-4 C32.5,-9.9 27.5,-13.2 21.3,-13.2 C11.6,-13.2 0,-5 0,4.2"/>
<path class="Note" transform="matrix(0.992,0,0,0.992,1713.06,595.551)" d="M0,4.2 C0,8.5 3.1,13.3 11.2,13.3 C21.6,13.3 32.5,4.8 32.5,-4 C32.5,-9.9 27.5,-13.2 21.3,-13.2 C11.6,-13.2 0,-5 0,4.2"/>
<path class="Note" transform="matrix(0.992,0,0,0.992,1232.55,607.951)" d="M0,4.2 C0,8.5 3.1,13.3 11.2,13.3 C21.6,13.3 32.5,4.8 32.5,-4 C32.5,-9.9 27.5,-13.2 21.3,-13.2 C11.6,-13.2 0,-5 0,4.2"/>
<path class="Note" transform="matrix(0.992,0,0,0.992,1259.19,1069.6)" d="M0,4.2 C0,8.5 3.1,13.3 11.2,13.3 C21.6,13.3 32.5,4.8 32.5,-4 C32.5,-9.9 27.5,-13.2 21.3,-13.2 C11.6,-13.2 0,-5 0,4.2"/>
<path class="Note" transform="matrix(0.992,0,0,0.992,1451.92,1044.8)" d="M21.3,-13.2 C11.6,-13.2 0,-5.1 0,4.2 C0,8.5 3.1,13.3 11.2,13.3 C21.6,13.3 32.5,4.8 32.5,-4 C32.5,-9.9 27.5,-13.2 21.3,-13.2 M7.5,8.6 C4.2,8.6 3.5,5.9 3.5,5 C3.5,0.1 20.3,-8.5 25,-8.5 C27.4,-8.5 29,-7.1 29,-4.9 C29,0.1 12.1,8.6 7.5,8.6"/>
<path class="Note" transform="matrix(0.992,0,0,0.992,1148.01,595.551)" d="M0,4.2 C0,8.5 3.1,13.3 11.2,13.3 C21.6,13.3 32.5,4.8 32.5,-4 C32.5,-9.9 27.5,-13.2 21.3,-13.2 C11.6,-13.2 0,-5 0,4.2"/>
<path class="Note" transform="matrix(0.992,0,0,0.992,1661.59,1044.8)" d="M0,4.2 C0,8.5 3.1,13.3 11.2,13.3 C21.6,13.3 32.5,4.8 32.5,-4 C32.5,-9.9 27.5,-13.2 21.3,-13.2 C11.6,-13.2 0,-5 0,4.2"/>
<path class="Note" transform="matrix(0.992,0,0,0.992,1628.53,607.951)" d="M0,4.2 C0,8.5 3.1,13.3 11.2,13.3 C21.6,13.3 32.5,4.8 32.5,-4 C32.5,-9.9 27.5,-13.2 21.3,-13.2 C11.6,-13.2 0,-5 0,4.2"/>
<path class="Note" transform="matrix(0.992,0,0,0.992,460.04,1032.4)" d="M0,4.2 C0,8.5 3.1,13.3 11.2,13.3 C21.6,13.3 32.5,4.8 32.5,-4 C32.5,-9.9 27.5,-13.2 21.3,-13.2 C11.6,-13.2 0,-5 0,4.2"/>
<path class="Note" transform="matrix(0.992,0,0,0.992,978.944,583.151)" d="M0,4.2 C0,8.5 3.1,13.3 11.2,13.3 C21.6,13.3 32.5,4.8 32.5,-4 C32.5,-9.9 27.5,-13.2 21.3,-13.2 C11.6,-13.2 0,-5 0,4.2"/>
<path class="Note" transform="matrix(0.992,0,0,0.992,1331.99,1057.2)" d="M0,4.2 C0,8.5 3.1,13.3 11.2,13.3 C21.6,13.3 32.5,4.8 32.5,-4 C32.5,-9.9 27.5,-13.2 21.3,-13.2 C11.6,-13.2 0,-5 0,4.2"/>
<path class="Note" transform="matrix(0.992,0,0,0.992,1114.03,1082)" d="M21.3,-13.2 C11.6,-13.2 0,-5.1 0,4.2 C0,8.5 3.1,13.3 11.2,13.3 C21.6,13.3 32.5,4.8 32.5,-4 C32.5,-9.9 27.5,-13.2 21.3,-13.2 M7.5,8.6 C4.2,8.6 3.5,5.9 3.5,5 C3.5,0.1 20.3,-8.5 25,-8.5 C27.4,-8.5 29,-7.1 29,-4.9 C29,0.1 12.1,8.6 7.5,8.6"/>
<path class="Note" transform="matrix(0.992,0,0,0.992,1726.11,1057.2)" d="M0,4.2 C0,8.5 3.1,13.3 11.2,13.3 C21.6,13.3 32.5,4.8 32.5,-4 C32.5,-9.9 27.5,-13.2 21.3,-13.2 C11.6,-13.2 0,-5 0,4.2"/>
<path class="Note" transform="matrix(0.992,0,0,0.992,832.81,1044.8)" d="M0,4.2 C0,8.5 3.1,13.3 11.2,13.3 C21.6,13.3 32.5,4.8 32.5,-4 C32.5,-9.9 27.5,-13.2 21.3,-13.2 C11.6,-13.2 0,-5 0,4.2"/>
<path class="Note" transform="matrix(0.992,0,0,0.992,1063.48,583.151)" d="M0,4.2 C0,8.5 3.1,13.3 11.2,13.3 C21.6,13.3 32.5,4.8 32.5,-4 C32.5,-9.9 27.5,-13.2 21.3,-13.2 C11.6,-13.2 0,-5 0,4.2"/>
<path class="Note" transform="matrix(0.992,0,0,0.992,1353.79,583.151)" d="M21.3,-13.2 C11.6,-13.2 0,-5.1 0,4.2 C0,8.5 3.1,13.3 11.2,13.3 C21.6,13.3 32.5,4.8 32.5,-4 C32.5,-9.9 27.5,-13.2 21.3,-13.2 M7.5,8.6 C4.2,8.6 3.5,5.9 3.5,5 C3.5,0.1 20.3,-8.5 25,-8.5 C27.4,-8.5 29,-7.1 29,-4.9 C29,0.1 12.1,8.6 7.5,8.6"/>
<path class="Note" transform="matrix(0.992,0,0,0.992,718.107,1032.4)" d="M0,4.2 C0,8.5 3.1,13.3 11.2,13.3 C21.6,13.3 32.5,4.8 32.5,-4 C32.5,-9.9 27.5,-13.2 21.3,-13.2 C11.6,-13.2 0,-5 0,4.2"/>
<path class="Note" transform="matrix(0.992,0,0,0.992,626.247,583.151)" d="M0,4.2 C0,8.5 3.1,13.3 11.2,13.3 C21.6,13.3 32.5,4.8 32.5,-4 C32.5,-9.9 27.5,-13.2 21.3,-13.2 C11.6,-13.2 0,-5 0,4.2"/>
<path class="Note" transform="matrix(0.992,0,0,0.992,788.74,583.151)" d="M21.3,-13.2 C11.6,-13.2 0,-5.1 0,4.2 C0,8.5 3.1,13.3 11.2,13.3 C21.6,13.3 32.5,4.8 32.5,-4 C32.5,-9.9 27.5,-13.2 21.3,-13.2 M7.5,8.6 C4.2,8.6 3.5,5.9 3.5,5 C3.5,0.1 20.3,-8.5 25,-8.5 C27.4,-8.5 29,-7.1 29,-4.9 C29,0.1 12.1,8.6 7.5,8.6"/>
<path class="Note" transform="matrix(0.992,0,0,0.992,1017.25,1044.8)" d="M0,4.2 C0,8.5 3.1,13.3 11.2,13.3 C21.6,13.3 32.5,4.8 32.5,-4 C32.5,-9.9 27.5,-13.2 21.3,-13.2 C11.6,-13.2 0,-5 0,4.2"/>
<path class="Note" transform="matrix(0.992,0,0,0.992,787.935,1032.4)" d="M0,4.2 C0,8.5 3.1,13.3 11.2,13.3 C21.6,13.3 32.5,4.8 32.5,-4 C32.5,-9.9 27.5,-13.2 21.3,-13.2 C11.6,-13.2 0,-5 0,4.2"/>
<path class="Note" transform="matrix(0.992,0,0,0.992,682.604,583.151)" d="M0,4.2 C0,8.5 3.1,13.3 11.2,13.3 C21.6,13.3 32.5,4.8 32.5,-4 C32.5,-9.9 27.5,-13.2 21.3,-13.2 C11.6,-13.2 0,-5 0,4.2"/>
<path class="Clef" transform="matrix(0.992,0,0,0.992,231.198,1007.6)" d="M12.3,51.3 C12.3,57.9 17.3,66.6 30.8,66.6 C35.5,66.6 39.6,65.4 43.2,63.2 C48.6,59.4 50,52.8 50,46.5 C50,42.6 49.4,38.1 48.4,32.4 C48.1,30.4 47.5,27.4 46.9,23.5 C56.7,20.3 64,10.1 64,-0.2 C64,-15.3 53.3,-25.5 38.7,-25.5 C37.7,-31.5 36.7,-37.4 35.9,-43 C46.4,-54.1 53.7,-66.6 53.7,-82.5 C53.7,-91.6 50.9,-99 49.3,-102.6 C46.9,-107.7 44,-111.2 42.2,-111.2 C41.5,-111.2 38.4,-110 35.1,-106.1 C28.7,-98.5 26.9,-85.7 26.9,-77.3 C26.9,-71.9 27.4,-67 29.1,-55.8 C29,-55.7 23.8,-50.4 21.7,-48.7 C12.6,-40.3 0,-28.1 0,-8.1 C0,10.6 16.3,25.3 34.9,25.3 C37.8,25.3 40.5,25 42.8,24.6 C44.7,34.2 45.9,41.2 45.9,46.5 C45.9,56.9 40.5,62.4 30.4,62.4 C28,62.4 25.9,61.9 25.7,61.9 C25.6,61.8 25.4,61.7 25.4,61.6 C25.4,61.4 25.6,61.3 25.9,61.3 C30.6,60.5 35.3,56.5 35.3,50.1 C35.3,44.7 31.2,39 23.7,39 C16.7,39 12.3,44.7 12.3,51.3 M33.2,-82.2 C34.1,-86.2 38.7,-96.7 43.9,-96.7 C45.4,-96.7 47.8,-91.9 47.8,-84.9 C47.8,-74.5 40.1,-66.7 33.2,-59.9 C32.6,-63.9 32.1,-67.8 32.1,-72 C32.1,-75.7 32.4,-79.1 33.2,-82.2 M42,20.6 C40,21 38.1,21.2 36.2,21.2 C21.9,21.2 9.7,11.2 9.7,-3.9 C9.7,-16.1 18.3,-27 27.1,-34.6 C28.8,-36.1 30.4,-37.5 31.9,-39 C32.8,-33.6 33.5,-28.9 34.2,-24.8 C25.1,-22.1 18.9,-12.5 18.9,-3.1 C18.9,3.9 24.4,13.5 32.4,13.5 C33.2,13.5 34.1,13.1 34.1,12.2 C34.1,11.3 33.1,10.8 31.9,10 C28,7.6 25.8,5 25.8,0.1 C25.8,-6 30.4,-10.9 36.2,-12.3 L42,20.6 M56.2,2.1 C56.2,9.2 53.3,16.5 46.2,19.4 C44.1,7.4 41.4,-8.5 40.7,-12.9 C49.7,-12.9 56.2,-6.8 56.2,2.1"/>
<path class="Clef" transform="matrix(0.992,0,0,0.992,355.198,558.351)" d="M12.3,51.3 C12.3,57.9 17.3,66.6 30.8,66.6 C35.5,66.6 39.6,65.4 43.2,63.2 C48.6,59.4 50,52.8 50,46.5 C50,42.6 49.4,38.1 48.4,32.4 C48.1,30.4 47.5,27.4 46.9,23.5 C56.7,20.3 64,10.1 64,-0.2 C64,-15.3 53.3,-25.5 38.7,-25.5 C37.7,-31.5 36.7,-37.4 35.9,-43 C46.4,-54.1 53.7,-66.6 53.7,-82.5 C53.7,-91.6 50.9,-99 49.3,-102.6 C46.9,-107.7 44,-111.2 42.2,-111.2 C41.5,-111.2 38.4,-110 35.1,-106.1 C28.7,-98.5 26.9,-85.7 26.9,-77.3 C26.9,-71.9 27.4,-67 29.1,-55.8 C29,-55.7 23.8,-50.4 21.7,-48.7 C12.6,-40.3 0,-28.1 0,-8.1 C0,10.6 16.3,25.3 34.9,25.3 C37.8,25.3 40.5,25 42.8,24.6 C44.7,34.2 45.9,41.2 45.9,46.5 C45.9,56.9 40.5,62.4 30.4,62.4 C28,62.4 25.9,61.9 25.7,61.9 C25.6,61.8 25.4,61.7 25.4,61.6 C25.4,61.4 25.6,61.3 25.9,61.3 C30.6,60.5 35.3,56.5 35.3,50.1 C35.3,44.7 31.2,39 23.7,39 C16.7,39 12.3,44.7 12.3,51.3 M33.2,-82.2 C34.1,-86.2 38.7,-96.7 43.9,-96.7 C45.4,-96.7 47.8,-91.9 47.8,-84.9 C47.8,-74.5 40.1,-66.7 33.2,-59.9 C32.6,-63.9 32.1,-67.8 32.1,-72 C32.1,-75.7 32.4,-79.1 33.2,-82.2 M42,20.6 C40,21 38.1,21.2 36.2,21.2 C21.9,21.2 9.7,11.2 9.7,-3.9 C9.7,-16.1 18.3,-27 27.1,-34.6 C28.8,-36.1 30.4,-37.5 31.9,-39 C32.8,-33.6 33.5,-28.9 34.2,-24.8 C25.1,-22.1 18.9,-12.5 18.9,-3.1 C18.9,3.9 24.4,13.5 32.4,13.5 C33.2,13.5 34.1,13.1 34.1,12.2 C34.1,11.3 33.1,10.8 31.9,10 C28,7.6 25.8,5 25.8,0.1 C25.8,-6 30.4,-10.9 36.2,-12.3 L42,20.6 M56.2,2.1 C56.2,9.2 53.3,16.5 46.2,19.4 C44.1,7.4 41.4,-8.5 40.7,-12.9 C49.7,-12.9 56.2,-6.8 56.2,2.1"/>
<path class="KeySig" transform="matrix(0.992,0,0,0.992,319.479,933.2)" d="M23.3,-10.5 C23.9,-10.6 24.4,-11.3 24.4,-11.9 L24.4,-17.8 C24.4,-18.8 23.7,-19.2 22.8,-19.2 L19.5,-18.5 L19.5,-33.4 L16.7,-33.4 L16.7,-17.9 L7.8,-16.1 L7.8,-30.2 L5,-30.2 L5,-15.5 L1.1,-14.7 C0.5,-14.6 0,-13.9 0,-13.3 L0,-7.5 C0,-6.4 0.8,-6.1 1.7,-6.1 L5,-6.8 L5,9.7 L1.1,10.5 C0.5,10.6 0,11.3 0,11.9 L0,17.7 C0,18.8 0.8,19.1 1.7,19.1 L5,18.4 L5,33.3 L7.8,33.3 L7.8,17.8 L16.7,16 L16.7,30.1 L19.5,30.1 L19.5,15.4 L23.3,14.7 C23.9,14.6 24.4,13.9 24.4,13.3 L24.4,7.4 C24.4,6.4 23.7,6 22.8,6 L19.5,6.7 L19.5,-9.8 L23.3,-10.5 M7.8,-7.4 L16.7,-9.2 L16.7,7.3 L7.8,9.2 L7.8,-7.4 "/>
<path class="KeySig" transform="matrix(0.992,0,0,0.992,346.65,970.4)" d="M23.3,-10.5 C23.9,-10.6 24.4,-11.3 24.4,-11.9 L24.4,-17.8 C24.4,-18.8 23.7,-19.2 22.8,-19.2 L19.5,-18.5 L19.5,-33.4 L16.7,-33.4 L16.7,-17.9 L7.8,-16.1 L7.8,-30.2 L5,-30.2 L5,-15.5 L1.1,-14.7 C0.5,-14.6 0,-13.9 0,-13.3 L0,-7.5 C0,-6.4 0.8,-6.1 1.7,-6.1 L5,-6.8 L5,9.7 L1.1,10.5 C0.5,10.6 0,11.3 0,11.9 L0,17.7 C0,18.8 0.8,19.1 1.7,19.1 L5,18.4 L5,33.3 L7.8,33.3 L7.8,17.8 L16.7,16 L16.7,30.1 L19.5,30.1 L19.5,15.4 L23.3,14.7 C23.9,14.6 24.4,13.9 24.4,13.3 L24.4,7.4 C24.4,6.4 23.7,6 22.8,6 L19.5,6.7 L19.5,-9.8 L23.3,-10.5 M7.8,-7.4 L16.7,-9.2 L16.7,7.3 L7.8,9.2 L7.8,-7.4 "/>
<path class="KeySig" transform="matrix(0.992,0,0,0.992,373.822,920.8)" d="M23.3,-10.5 C23.9,-10.6 24.4,-11.3 24.4,-11.9 L24.4,-17.8 C24.4,-18.8 23.7,-19.2 22.8,-19.2 L19.5,-18.5 L19.5,-33.4 L16.7,-33.4 L16.7,-17.9 L7.8,-16.1 L7.8,-30.2 L5,-30.2 L5,-15.5 L1.1,-14.7 C0.5,-14.6 0,-13.9 0,-13.3 L0,-7.5 C0,-6.4 0.8,-6.1 1.7,-6.1 L5,-6.8 L5,9.7 L1.1,10.5 C0.5,10.6 0,11.3 0,11.9 L0,17.7 C0,18.8 0.8,19.1 1.7,19.1 L5,18.4 L5,33.3 L7.8,33.3 L7.8,17.8 L16.7,16 L16.7,30.1 L19.5,30.1 L19.5,15.4 L23.3,14.7 C23.9,14.6 24.4,13.9 24.4,13.3 L24.4,7.4 C24.4,6.4 23.7,6 22.8,6 L19.5,6.7 L19.5,-9.8 L23.3,-10.5 M7.8,-7.4 L16.7,-9.2 L16.7,7.3 L7.8,9.2 L7.8,-7.4 "/>
<path class="KeySig" transform="matrix(0.992,0,0,0.992,443.479,483.951)" d="M23.3,-10.5 C23.9,-10.6 24.4,-11.3 24.4,-11.9 L24.4,-17.8 C24.4,-18.8 23.7,-19.2 22.8,-19.2 L19.5,-18.5 L19.5,-33.4 L16.7,-33.4 L16.7,-17.9 L7.8,-16.1 L7.8,-30.2 L5,-30.2 L5,-15.5 L1.1,-14.7 C0.5,-14.6 0,-13.9 0,-13.3 L0,-7.5 C0,-6.4 0.8,-6.1 1.7,-6.1 L5,-6.8 L5,9.7 L1.1,10.5 C0.5,10.6 0,11.3 0,11.9 L0,17.7 C0,18.8 0.8,19.1 1.7,19.1 L5,18.4 L5,33.3 L7.8,33.3 L7.8,17.8 L16.7,16 L16.7,30.1 L19.5,30.1 L19.5,15.4 L23.3,14.7 C23.9,14.6 24.4,13.9 24.4,13.3 L24.4,7.4 C24.4,6.4 23.7,6 22.8,6 L19.5,6.7 L19.5,-9.8 L23.3,-10.5 M7.8,-7.4 L16.7,-9.2 L16.7,7.3 L7.8,9.2 L7.8,-7.4 "/>
<path class="KeySig" transform="matrix(0.992,0,0,0.992,470.65,521.151)" d="M23.3,-10.5 C23.9,-10.6 24.4,-11.3 24.4,-11.9 L24.4,-17.8 C24.4,-18.8 23.7,-19.2 22.8,-19.2 L19.5,-18.5 L19.5,-33.4 L16.7,-33.4 L16.7,-17.9 L7.8,-16.1 L7.8,-30.2 L5,-30.2 L5,-15.5 L1.1,-14.7 C0.5,-14.6 0,-13.9 0,-13.3 L0,-7.5 C0,-6.4 0.8,-6.1 1.7,-6.1 L5,-6.8 L5,9.7 L1.1,10.5 C0.5,10.6 0,11.3 0,11.9 L0,17.7 C0,18.8 0.8,19.1 1.7,19.1 L5,18.4 L5,33.3 L7.8,33.3 L7.8,17.8 L16.7,16 L16.7,30.1 L19.5,30.1 L19.5,15.4 L23.3,14.7 C23.9,14.6 24.4,13.9 24.4,13.3 L24.4,7.4 C24.4,6.4 23.7,6 22.8,6 L19.5,6.7 L19.5,-9.8 L23.3,-10.5 M7.8,-7.4 L16.7,-9.2 L16.7,7.3 L7.8,9.2 L7.8,-7.4 "/>
<path class="KeySig" transform="matrix(0.992,0,0,0.992,497.822,471.551)" d="M23.3,-10.5 C23.9,-10.6 24.4,-11.3 24.4,-11.9 L24.4,-17.8 C24.4,-18.8 23.7,-19.2 22.8,-19.2 L19.5,-18.5 L19.5,-33.4 L16.7,-33.4 L16.7,-17.9 L7.8,-16.1 L7.8,-30.2 L5,-30.2 L5,-15.5 L1.1,-14.7 C0.5,-14.6 0,-13.9 0,-13.3 L0,-7.5 C0,-6.4 0.8,-6.1 1.7,-6.1 L5,-6.8 L5,9.7 L1.1,10.5 C0.5,10.6 0,11.3 0,11.9 L0,17.7 C0,18.8 0.8,19.1 1.7,19.1 L5,18.4 L5,33.3 L7.8,33.3 L7.8,17.8 L16.7,16 L16.7,30.1 L19.5,30.1 L19.5,15.4 L23.3,14.7 C23.9,14.6 24.4,13.9 24.4,13.3 L24.4,7.4 C24.4,6.4 23.7,6 22.8,6 L19.5,6.7 L19.5,-9.8 L23.3,-10.5 M7.8,-7.4 L16.7,-9.2 L16.7,7.3 L7.8,9.2 L7.8,-7.4 "/>
<path class="TimeSig" transform="matrix(0.992,0,0,0.992,546.84,533.551)" d="M32.5,-17.9 C30,-16.3 28.2,-13.4 28.2,-10.2 C28.2,-9.8 28.2,-9.4 28.3,-9 C28.8,-4.9 32.1,-1.7 36.2,-1.2 C36.5,-1.2 37,-1.2 37.3,-1.2 C42.3,-1.2 46.3,-5.2 46.3,-10.2 C46.3,-10.9 46.3,-11.6 46.1,-12.3 C45.2,-16.6 41.3,-25.8 24.3,-25.8 C2.5,-25.8 0,-7.7 0,-1.2 C0,10.7 1.5,25.6 26.5,25.6 C36.4,25.6 44.1,19.8 44.5,9.1 C44.5,8.6 44.2,8.3 43.7,8.3 L42.4,8.3 C42,8.3 41.6,8.7 41.6,9.1 C41.2,17.4 35.3,22.4 26.5,22.4 C17.8,22.4 13.6,17.7 13.6,8.9 L13.6,-10.2 C13.6,-15.8 15.8,-22.2 24.7,-22.2 C29.4,-22.2 31.5,-20.5 32.6,-18.8 C32.7,-18.6 32.7,-18.5 32.7,-18.3 C32.7,-18.2 32.7,-18 32.5,-17.9"/>
<path class="Rest" transform="matrix(0.992,0,0,0.992,1543.99,533.551)" d="M26.7,-20.3 C26.6,-20.3 26.4,-20.4 26.3,-20.4 C25.7,-20.4 25.2,-20.1 25,-19.6 C22.7,-15 17.9,-8.8 12.5,-7.8 C13.6,-9.1 14.3,-10.7 14.3,-12.6 C14.3,-16.5 11.1,-19.7 7.2,-19.7 C3.2,-19.7 0,-16.5 0,-12.6 C0,-7.2 5.3,-4.7 10,-4.7 C15.3,-4.7 18.8,-7.2 22.2,-10.9 L10.8,24.7 L13.5,25.5 L27.5,-18.6 C27.6,-18.7 27.6,-18.9 27.6,-19.1 C27.6,-19.6 27.3,-20 26.7,-20.3"/>
<path class="Rest" transform="matrix(0.992,0,0,0.992,653.591,982.8)" d="M26.7,-20.3 C26.6,-20.3 26.4,-20.4 26.3,-20.4 C25.7,-20.4 25.2,-20.1 25,-19.6 C22.7,-15 17.9,-8.8 12.5,-7.8 C13.6,-9.1 14.3,-10.7 14.3,-12.6 C14.3,-16.5 11.1,-19.7 7.2,-19.7 C3.2,-19.7 0,-16.5 0,-12.6 C0,-7.2 5.3,-4.7 10,-4.7 C15.3,-4.7 18.8,-7.2 22.2,-10.9 L10.8,24.7 L13.5,25.5 L27.5,-18.6 C27.6,-18.7 27.6,-18.9 27.6,-19.1 C27.6,-19.6 27.3,-20 26.7,-20.3"/>
<path class="Rest" transform="matrix(0.992,0,0,0.992,1597.08,982.8)" d="M26.7,-20.3 C26.6,-20.3 26.4,-20.4 26.3,-20.4 C25.7,-20.4 25.2,-20.1 25,-19.6 C22.7,-15 17.9,-8.8 12.5,-7.8 C13.6,-9.1 14.3,-10.7 14.3,-12.6 C14.3,-16.5 11.1,-19.7 7.2,-19.7 C3.2,-19.7 0,-16.5 0,-12.6 C0,-7.2 5.3,-4.7 10,-4.7 C15.3,-4.7 18.8,-7.2 22.2,-10.9 L10.8,24.7 L13.5,25.5 L27.5,-18.6 C27.6,-18.7 27.6,-18.9 27.6,-19.1 C27.6,-19.6 27.3,-20 26.7,-20.3"/>
<path class="Beam" fill-rule="evenodd" d="M655.999,502.551 L714.836,502.551 L714.836,514.951 L655.999,514.951 L655.999,502.551 "/>
<path class="Beam" fill-rule="evenodd" d="M655.999,521.151 L714.836,521.151 L714.836,533.551 L655.999,533.551 L655.999,521.151 "/>
<path class="Hook" transform="matrix(0.992,0,0,0.992,1262.3,521.151)" d="M0,22.7 C0,23 0.1,23.6 0.8,23.8 C5.1,25.2 13.7,30.6 20.2,41.7 C22,44.8 24.9,49.1 24.9,57.4 C24.9,64.6 23.1,72 20.4,79.2 C20.2,79.8 20.1,80.3 20.1,80.7 C20.1,81.4 20.5,81.7 21.2,81.7 C21.8,81.7 22.3,81.3 22.7,80.6 C27.2,72.6 28.9,63.3 28.9,54.2 C28.4,41.3 21,31.8 21,31.8 C21.3,31.8 11.8,19.5 9.1,15.3 C5.4,9.6 3.7,3.9 3.5,3.5 C3.4,3.2 2.5,-0.4 2.5,-0.4 C2.4,-0.8 1.9,-1.2 1.3,-1.2 C0.6,-1.2 0,-0.6 0,0.1 L0,22.7 "/>
<path class="Hook" transform="matrix(0.992,0,0,0.992,1691.35,958)" d="M0,22.7 C0,23 0.1,23.6 0.8,23.8 C5.1,25.2 13.7,30.6 20.2,41.7 C22,44.8 24.9,49.1 24.9,57.4 C24.9,64.6 23.1,72 20.4,79.2 C20.2,79.8 20.1,80.3 20.1,80.7 C20.1,81.4 20.5,81.7 21.2,81.7 C21.8,81.7 22.3,81.3 22.7,80.6 C27.2,72.6 28.9,63.3 28.9,54.2 C28.4,41.3 21,31.8 21,31.8 C21.3,31.8 11.8,19.5 9.1,15.3 C5.4,9.6 3.7,3.9 3.5,3.5 C3.4,3.2 2.5,-0.4 2.5,-0.4 C2.4,-0.8 1.9,-1.2 1.3,-1.2 C0.6,-1.2 0,-0.6 0,0.1 L0,22.7 "/>
<path class="Hook" transform="matrix(0.992,0,0,0.992,927.079,970.4)" d="M0,22.7 C0,23 0.1,23.6 0.8,23.8 C5.1,25.2 13.7,30.6 20.2,41.7 C22,44.8 24.9,49.1 24.9,57.4 C24.9,64.6 23.1,72 20.4,79.2 C20.2,79.8 20.1,80.3 20.1,80.7 C20.1,81.4 20.5,81.7 21.2,81.7 C21.8,81.7 22.3,81.3 22.7,80.6 C27.2,72.6 28.9,63.3 28.9,54.2 C28.4,41.3 21,31.8 21,31.8 C21.3,31.8 11.8,19.5 9.1,15.3 C5.4,9.6 3.7,3.9 3.5,3.5 C3.4,3.2 2.5,-0.4 2.5,-0.4 C2.4,-0.8 1.9,-1.2 1.3,-1.2 C0.6,-1.2 0,-0.6 0,0.1 L0,22.7 "/>
<path class="Hook" transform="matrix(0.992,0,0,0.992,862.562,958)" d="M0,22.7 C0,23 0.1,23.6 0.8,23.8 C5.1,25.2 13.7,30.6 20.2,41.7 C22,44.8 24.9,49.1 24.9,57.4 C24.9,64.6 23.1,72 20.4,79.2 C20.2,79.8 20.1,80.3 20.1,80.7 C20.1,81.4 20.5,81.7 21.2,81.7 C21.8,81.7 22.3,81.3 22.7,80.6 C27.2,72.6 28.9,63.3 28.9,54.2 C28.4,41.3 21,31.8 21,31.8 C21.3,31.8 11.8,19.5 9.1,15.3 C5.4,9.6 3.7,3.9 3.5,3.5 C3.4,3.2 2.5,-0.4 2.5,-0.4 C2.4,-0.8 1.9,-1.2 1.3,-1.2 C0.6,-1.2 0,-0.6 0,0.1 L0,22.7 "/>
<path class="Hook" transform="matrix(0.992,0,0,0.992,1755.86,970.4)" d="M0,22.7 C0,23 0.1,23.6 0.8,23.8 C5.1,25.2 13.7,30.6 20.2,41.7 C22,44.8 24.9,49.1 24.9,57.4 C24.9,64.6 23.1,72 20.4,79.2 C20.2,79.8 20.1,80.3 20.1,80.7 C20.1,81.4 20.5,81.7 21.2,81.7 C21.8,81.7 22.3,81.3 22.7,80.6 C27.2,72.6 28.9,63.3 28.9,54.2 C28.4,41.3 21,31.8 21,31.8 C21.3,31.8 11.8,19.5 9.1,15.3 C5.4,9.6 3.7,3.9 3.5,3.5 C3.4,3.2 2.5,-0.4 2.5,-0.4 C2.4,-0.8 1.9,-1.2 1.3,-1.2 C0.6,-1.2 0,-0.6 0,0.1 L0,22.7 "/>
<path class="Hook" transform="matrix(0.992,0,0,0.992,1177.77,508.751)" d="M0,22.7 C0,23 0.1,23.6 0.8,23.8 C5.1,25.2 13.7,30.6 20.2,41.7 C22,44.8 24.9,49.1 24.9,57.4 C24.9,64.6 23.1,72 20.4,79.2 C20.2,79.8 20.1,80.3 20.1,80.7 C20.1,81.4 20.5,81.7 21.2,81.7 C21.8,81.7 22.3,81.3 22.7,80.6 C27.2,72.6 28.9,63.3 28.9,54.2 C28.4,41.3 21,31.8 21,31.8 C21.3,31.8 11.8,19.5 9.1,15.3 C5.4,9.6 3.7,3.9 3.5,3.5 C3.4,3.2 2.5,-0.4 2.5,-0.4 C2.4,-0.8 1.9,-1.2 1.3,-1.2 C0.6,-1.2 0,-0.6 0,0.1 L0,22.7 "/>
<path class="Hook" transform="matrix(0.992,0,0,0.992,817.687,945.6)" d="M0,38.1 C0,38.4 0.8,38.8 1.5,39.1 C4.1,40 11.9,45 17.9,53.9 C21.3,59 22.1,62.6 22.1,66 C22.1,66.6 22.1,67.1 22,67.7 C22,70.1 21.3,75.2 19.8,79.2 C19.7,79.7 19.4,80.3 19.4,80.8 C19.4,81.2 19.6,81.6 20.1,81.9 C20.3,82 20.5,82 20.6,82 C21.3,82 21.7,81.2 22.1,80.6 C23.9,77.8 26.5,72.4 26.5,66.8 C26.5,63.9 26.3,61.5 26,59.4 C27.1,55.7 27.9,52 27.9,47.1 C27.9,41.9 26.5,37.2 23.1,32.7 C18.4,26.5 13.3,21.4 9.5,15.8 C5.7,10.3 2.9,0 2.9,0 C2.7,-0.7 2.6,-1.2 1.5,-1.2 C0.3,-1.2 0,-0.7 0,0 L0,38.1 M20.9,47.3 C18.2,43.8 15.2,40.6 10.3,35.7 C6.4,31.8 4.6,28.4 4,25.8 C3.8,25.3 3.7,24.6 3.6,23.8 C8.7,23.9 15.2,30.7 18.8,35.4 C22.7,40.5 23.6,44.6 23.6,48.3 C23.6,49.3 23.5,50.3 23.4,51.3 C22.6,49.7 21.7,48.4 20.9,47.3"/>
<path class="Hook" transform="matrix(0.992,0,0,0.992,747.86,945.6)" d="M0,38.1 C0,38.4 0.8,38.8 1.5,39.1 C4.1,40 11.9,45 17.9,53.9 C21.3,59 22.1,62.6 22.1,66 C22.1,66.6 22.1,67.1 22,67.7 C22,70.1 21.3,75.2 19.8,79.2 C19.7,79.7 19.4,80.3 19.4,80.8 C19.4,81.2 19.6,81.6 20.1,81.9 C20.3,82 20.5,82 20.6,82 C21.3,82 21.7,81.2 22.1,80.6 C23.9,77.8 26.5,72.4 26.5,66.8 C26.5,63.9 26.3,61.5 26,59.4 C27.1,55.7 27.9,52 27.9,47.1 C27.9,41.9 26.5,37.2 23.1,32.7 C18.4,26.5 13.3,21.4 9.5,15.8 C5.7,10.3 2.9,0 2.9,0 C2.7,-0.7 2.6,-1.2 1.5,-1.2 C0.3,-1.2 0,-0.7 0,0 L0,38.1 M20.9,47.3 C18.2,43.8 15.2,40.6 10.3,35.7 C6.4,31.8 4.6,28.4 4,25.8 C3.8,25.3 3.7,24.6 3.6,23.8 C8.7,23.9 15.2,30.7 18.8,35.4 C22.7,40.5 23.6,44.6 23.6,48.3 C23.6,49.3 23.5,50.3 23.4,51.3 C22.6,49.7 21.7,48.4 20.9,47.3"/>
<path class="Hook" transform="matrix(0.992,0,0,0.992,1658.28,521.151)" d="M0,22.7 C0,23 0.1,23.6 0.8,23.8 C5.1,25.2 13.7,30.6 20.2,41.7 C22,44.8 24.9,49.1 24.9,57.4 C24.9,64.6 23.1,72 20.4,79.2 C20.2,79.8 20.1,80.3 20.1,80.7 C20.1,81.4 20.5,81.7 21.2,81.7 C21.8,81.7 22.3,81.3 22.7,80.6 C27.2,72.6 28.9,63.3 28.9,54.2 C28.4,41.3 21,31.8 21,31.8 C21.3,31.8 11.8,19.5 9.1,15.3 C5.4,9.6 3.7,3.9 3.5,3.5 C3.4,3.2 2.5,-0.4 2.5,-0.4 C2.4,-0.8 1.9,-1.2 1.3,-1.2 C0.6,-1.2 0,-0.6 0,0.1 L0,22.7 "/>
<path class="Hook" transform="matrix(0.992,0,0,0.992,1827.35,496.351)" d="M0,22.7 C0,23 0.1,23.6 0.8,23.8 C5.1,25.2 13.7,30.6 20.2,41.7 C22,44.8 24.9,49.1 24.9,57.4 C24.9,64.6 23.1,72 20.4,79.2 C20.2,79.8 20.1,80.3 20.1,80.7 C20.1,81.4 20.5,81.7 21.2,81.7 C21.8,81.7 22.3,81.3 22.7,80.6 C27.2,72.6 28.9,63.3 28.9,54.2 C28.4,41.3 21,31.8 21,31.8 C21.3,31.8 11.8,19.5 9.1,15.3 C5.4,9.6 3.7,3.9 3.5,3.5 C3.4,3.2 2.5,-0.4 2.5,-0.4 C2.4,-0.8 1.9,-1.2 1.3,-1.2 C0.6,-1.2 0,-0.6 0,0.1 L0,22.7 "/>
<path class="Hook" transform="matrix(0.992,0,0,0.992,1288.94,982.8)" d="M0,22.7 C0,23 0.1,23.6 0.8,23.8 C5.1,25.2 13.7,30.6 20.2,41.7 C22,44.8 24.9,49.1 24.9,57.4 C24.9,64.6 23.1,72 20.4,79.2 C20.2,79.8 20.1,80.3 20.1,80.7 C20.1,81.4 20.5,81.7 21.2,81.7 C21.8,81.7 22.3,81.3 22.7,80.6 C27.2,72.6 28.9,63.3 28.9,54.2 C28.4,41.3 21,31.8 21,31.8 C21.3,31.8 11.8,19.5 9.1,15.3 C5.4,9.6 3.7,3.9 3.5,3.5 C3.4,3.2 2.5,-0.4 2.5,-0.4 C2.4,-0.8 1.9,-1.2 1.3,-1.2 C0.6,-1.2 0,-0.6 0,0.1 L0,22.7 "/>
<path class="Hook" transform="matrix(0.992,0,0,0.992,1093.23,496.351)" d="M0,22.7 C0,23 0.1,23.6 0.8,23.8 C5.1,25.2 13.7,30.6 20.2,41.7 C22,44.8 24.9,49.1 24.9,57.4 C24.9,64.6 23.1,72 20.4,79.2 C20.2,79.8 20.1,80.3 20.1,80.7 C20.1,81.4 20.5,81.7 21.2,81.7 C21.8,81.7 22.3,81.3 22.7,80.6 C27.2,72.6 28.9,63.3 28.9,54.2 C28.4,41.3 21,31.8 21,31.8 C21.3,31.8 11.8,19.5 9.1,15.3 C5.4,9.6 3.7,3.9 3.5,3.5 C3.4,3.2 2.5,-0.4 2.5,-0.4 C2.4,-0.8 1.9,-1.2 1.3,-1.2 C0.6,-1.2 0,-0.6 0,0.1 L0,22.7 "/>
<path class="Hook" transform="matrix(0.992,0,0,0.992,1828.67,982.8)" d="M0,22.7 C0,23 0.1,23.6 0.8,23.8 C5.1,25.2 13.7,30.6 20.2,41.7 C22,44.8 24.9,49.1 24.9,57.4 C24.9,64.6 23.1,72 20.4,79.2 C20.2,79.8 20.1,80.3 20.1,80.7 C20.1,81.4 20.5,81.7 21.2,81.7 C21.8,81.7 22.3,81.3 22.7,80.6 C27.2,72.6 28.9,63.3 28.9,54.2 C28.4,41.3 21,31.8 21,31.8 C21.3,31.8 11.8,19.5 9.1,15.3 C5.4,9.6 3.7,3.9 3.5,3.5 C3.4,3.2 2.5,-0.4 2.5,-0.4 C2.4,-0.8 1.9,-1.2 1.3,-1.2 C0.6,-1.2 0,-0.6 0,0.1 L0,22.7 "/>
<path class="Hook" transform="matrix(0.992,0,0,0.992,1742.82,508.751)" d="M0,22.7 C0,23 0.1,23.6 0.8,23.8 C5.1,25.2 13.7,30.6 20.2,41.7 C22,44.8 24.9,49.1 24.9,57.4 C24.9,64.6 23.1,72 20.4,79.2 C20.2,79.8 20.1,80.3 20.1,80.7 C20.1,81.4 20.5,81.7 21.2,81.7 C21.8,81.7 22.3,81.3 22.7,80.6 C27.2,72.6 28.9,63.3 28.9,54.2 C28.4,41.3 21,31.8 21,31.8 C21.3,31.8 11.8,19.5 9.1,15.3 C5.4,9.6 3.7,3.9 3.5,3.5 C3.4,3.2 2.5,-0.4 2.5,-0.4 C2.4,-0.8 1.9,-1.2 1.3,-1.2 C0.6,-1.2 0,-0.6 0,0.1 L0,22.7 "/>
<path class="Hook" transform="matrix(0.992,0,0,0.992,1008.7,496.351)" d="M0,22.7 C0,23 0.1,23.6 0.8,23.8 C5.1,25.2 13.7,30.6 20.2,41.7 C22,44.8 24.9,49.1 24.9,57.4 C24.9,64.6 23.1,72 20.4,79.2 C20.2,79.8 20.1,80.3 20.1,80.7 C20.1,81.4 20.5,81.7 21.2,81.7 C21.8,81.7 22.3,81.3 22.7,80.6 C27.2,72.6 28.9,63.3 28.9,54.2 C28.4,41.3 21,31.8 21,31.8 C21.3,31.8 11.8,19.5 9.1,15.3 C5.4,9.6 3.7,3.9 3.5,3.5 C3.4,3.2 2.5,-0.4 2.5,-0.4 C2.4,-0.8 1.9,-1.2 1.3,-1.2 C0.6,-1.2 0,-0.6 0,0.1 L0,22.7 "/>
<path class="Hook" transform="matrix(0.992,0,0,0.992,1361.74,970.4)" d="M0,22.7 C0,23 0.1,23.6 0.8,23.8 C5.1,25.2 13.7,30.6 20.2,41.7 C22,44.8 24.9,49.1 24.9,57.4 C24.9,64.6 23.1,72 20.4,79.2 C20.2,79.8 20.1,80.3 20.1,80.7 C20.1,81.4 20.5,81.7 21.2,81.7 C21.8,81.7 22.3,81.3 22.7,80.6 C27.2,72.6 28.9,63.3 28.9,54.2 C28.4,41.3 21,31.8 21,31.8 C21.3,31.8 11.8,19.5 9.1,15.3 C5.4,9.6 3.7,3.9 3.5,3.5 C3.4,3.2 2.5,-0.4 2.5,-0.4 C2.4,-0.8 1.9,-1.2 1.3,-1.2 C0.6,-1.2 0,-0.6 0,0.1 L0,22.7 "/>
<path class="Lyrics" d="M1281.31,1150.8 C1275.31,1147.4 1269.96,1140.55 1269.96,1132.4 L1269.96,1128 L1280.06,1128 L1280.06,1124.8 L1255.91,1124.8 L1255.91,1128 L1266.01,1128 L1266.01,1132.5 C1266.01,1140.35 1260.96,1148.05 1254.51,1151.85 L1257.01,1154.7 C1262.26,1151.05 1266.51,1145.65 1268.01,1140.35 C1269.56,1145.55 1274.91,1151.05 1279.01,1153.65 L1281.31,1150.8 M1296.11,1141.15 L1296.11,1137.95 L1289.01,1137.95 L1289.01,1120.2 L1285.21,1120.2 L1285.21,1163.9 L1289.01,1163.9 L1289.01,1141.15 L1296.11,1141.15 "/>
<path class="Lyrics" d="M822.199,689.181 L822.199,673.181 L793.549,673.181 L793.549,689.181 L822.199,689.181 M818.399,686.031 L797.349,686.031 L797.349,676.281 L818.399,676.281 L818.399,686.031 M818.399,646.131 L818.399,670.431 L822.199,670.431 L822.199,646.131 L818.399,646.131 M814.299,662.231 C808.699,663.381 798.899,664.381 792.549,664.131 L792.549,648.381 L788.749,648.381 L788.749,667.481 L791.249,667.481 C798.849,667.481 809.899,666.531 814.749,665.481 L814.299,662.231 "/>
<path class="Lyrics" d="M1146.88,1163.25 L1146.88,1147.25 L1118.23,1147.25 L1118.23,1163.25 L1146.88,1163.25 M1143.08,1160.1 L1122.03,1160.1 L1122.03,1150.35 L1143.08,1150.35 L1143.08,1160.1 M1143.08,1120.2 L1143.08,1144.5 L1146.88,1144.5 L1146.88,1120.2 L1143.08,1120.2 M1138.98,1136.3 C1133.38,1137.45 1123.58,1138.45 1117.23,1138.2 L1117.23,1122.45 L1113.43,1122.45 L1113.43,1141.55 L1115.93,1141.55 C1123.53,1141.55 1134.58,1140.6 1139.43,1139.55 L1138.98,1136.3 "/>
<path class="Lyrics" d="M1364.89,1163.9 L1364.89,1120.2 L1361.09,1120.2 L1361.09,1163.9 L1364.89,1163.9 M1351.99,1153.05 L1351.99,1123.9 L1348.19,1123.9 L1348.19,1135.1 L1335.09,1135.1 L1335.09,1123.9 L1331.34,1123.9 L1331.34,1153.05 L1351.99,1153.05 M1348.19,1149.85 L1335.09,1149.85 L1335.09,1138.25 L1348.19,1138.25 L1348.19,1149.85 "/>
<path class="Lyrics" d="M1093.74,646.131 L1093.74,689.831 L1097.54,689.831 L1097.54,646.131 L1093.74,646.131 M1086.84,659.931 C1086.84,653.531 1081.94,649.531 1075.49,649.531 C1069.14,649.531 1064.09,653.781 1064.09,659.931 C1064.09,665.781 1069.04,670.081 1075.49,670.081 C1081.79,670.081 1086.84,666.131 1086.84,659.931 M1083.14,659.931 C1083.14,664.031 1079.64,666.881 1075.49,666.881 C1071.24,666.881 1067.79,663.981 1067.79,659.931 C1067.79,655.831 1071.29,652.781 1075.49,652.781 C1079.74,652.781 1083.14,655.531 1083.14,659.931 M1091.19,678.731 L1090.84,675.631 C1087.64,676.031 1081.99,676.381 1075.89,676.581 C1070.59,676.881 1065.44,676.981 1061.69,676.931 L1062.39,680.281 C1065.69,680.231 1070.49,680.081 1075.64,679.831 C1081.19,679.581 1087.44,679.181 1091.19,678.731"/>
<path class="Lyrics" d="M718.46,683.631 L718.46,680.431 L679.01,680.431 L679.01,683.631 L718.46,683.631 M713.71,668.231 L713.71,665.081 L687.91,665.081 L687.91,649.931 L684.11,649.931 L684.11,668.231 L713.71,668.231 "/>
<path class="Lyrics" d="M1051.26,1137.8 C1044.56,1137.05 1035.61,1132.6 1035.41,1126.45 L1049.46,1126.45 L1049.46,1123.3 L1017.26,1123.3 L1017.26,1126.45 L1031.41,1126.45 C1031.21,1132.55 1022.76,1137.15 1015.61,1137.9 L1017.36,1141.1 C1024.81,1139.85 1031.61,1135.35 1033.36,1131.25 C1035.36,1135.35 1042.31,1139.75 1049.46,1141 L1051.26,1137.8 M1035.21,1163.9 L1035.21,1148.25 L1053.11,1148.25 L1053.11,1145.05 L1013.66,1145.05 L1013.66,1148.25 L1031.41,1148.25 L1031.41,1163.9 L1035.21,1163.9 "/>
<path class="Lyrics" d="M1146.58,664.631 C1146.58,673.931 1150.58,680.081 1157.63,680.081 C1164.28,680.081 1168.18,674.581 1168.58,666.181 L1177.93,666.181 L1177.93,689.831 L1181.73,689.831 L1181.73,646.131 L1177.93,646.131 L1177.93,662.931 L1168.58,662.931 C1168.08,654.631 1164.23,649.181 1157.63,649.181 C1150.58,649.181 1146.58,655.381 1146.58,664.631 M1164.88,664.681 C1164.88,671.781 1161.93,676.781 1157.63,676.781 C1153.28,676.781 1150.38,671.781 1150.38,664.681 C1150.38,657.481 1153.28,652.481 1157.63,652.481 C1161.93,652.481 1164.88,657.481 1164.88,664.681"/>
<path class="Lyrics" d="M1487.77,1143.5 L1487.77,1140.55 L1448.32,1140.55 L1448.32,1143.5 L1487.77,1143.5 M1484.47,1163.1 L1484.47,1160.1 L1456.67,1160.1 L1456.67,1156.1 L1483.12,1156.1 L1483.12,1146.95 L1452.92,1146.95 L1452.92,1149.75 L1479.32,1149.75 L1479.32,1153.4 L1452.87,1153.4 L1452.87,1163.1 L1484.47,1163.1 M1483.72,1137.1 L1483.72,1134.25 L1457.12,1134.25 L1457.12,1130.8 L1482.87,1130.8 L1482.87,1121.65 L1453.27,1121.65 L1453.27,1124.65 L1479.07,1124.65 L1479.07,1128.05 L1453.32,1128.05 L1453.32,1137.1 L1483.72,1137.1 "/>
<path class="Lyrics" d="M933.184,1145.95 L933.184,1142.75 L893.734,1142.75 L893.734,1145.95 L933.184,1145.95 M928.984,1162.95 L928.984,1159.8 L902.684,1159.8 L902.684,1150.05 L898.884,1150.05 L898.884,1162.95 L928.984,1162.95 M928.784,1137.3 L928.784,1134.15 L902.834,1134.15 L902.834,1122.05 L899.034,1122.05 L899.034,1137.3 L928.784,1137.3 "/>
<path class="Lyrics" d="M1264.94,677.881 L1264.94,646.131 L1261.14,646.131 L1261.14,677.881 L1264.94,677.881 M1266.14,688.831 L1266.14,685.681 L1239.99,685.681 L1239.99,676.431 L1236.19,676.431 L1236.19,688.831 L1266.14,688.831 M1255.34,668.031 C1250.84,668.981 1242.09,669.231 1235.24,669.231 L1235.24,661.781 L1251.64,661.781 L1251.64,649.031 L1231.24,649.031 L1231.24,652.181 L1247.84,652.181 L1247.84,658.731 L1231.44,658.731 L1231.44,672.431 L1236.29,672.431 C1244.04,672.381 1251.19,671.881 1255.69,671.131 L1255.34,668.031 "/>
<path class="Lyrics" d="M662.838,667.781 L662.838,664.581 L655.738,664.581 L655.738,646.131 L651.938,646.131 L651.938,689.831 L655.738,689.831 L655.738,667.781 L662.838,667.781 M641.288,652.381 L641.288,649.131 L628.438,649.131 L628.438,652.381 L641.288,652.381 M647.738,659.781 L647.738,656.631 L621.938,656.631 L621.938,659.781 L647.738,659.781 M645.138,671.631 C645.138,666.481 641.038,662.581 634.938,662.581 C628.838,662.581 624.738,666.531 624.738,671.631 C624.738,676.731 628.838,680.631 634.938,680.631 C641.038,680.631 645.138,676.681 645.138,671.631 M641.338,671.631 C641.338,675.031 638.688,677.481 634.938,677.481 C631.288,677.481 628.538,675.031 628.538,671.631 C628.538,668.181 631.288,665.781 634.938,665.781 C638.638,665.781 641.338,668.181 641.338,671.631"/>
<path class="Lyrics" d="M867.061,1163.9 L867.061,1120.2 L863.211,1120.2 L863.211,1163.9 L867.061,1163.9 M857.661,1150.5 C851.611,1146.9 846.311,1139.75 846.311,1131.75 L846.311,1124 L842.461,1124 L842.461,1131.9 C842.461,1139.65 837.211,1147.6 830.811,1151.6 L833.311,1154.45 C838.361,1150.85 842.861,1145.5 844.461,1140.05 C846.161,1145.3 851.311,1150.7 855.261,1153.4 L857.661,1150.5 "/>
<path class="Lyrics" d="M1677.48,1152.95 L1677.48,1140 L1683.18,1140 L1683.18,1161.7 L1686.88,1161.7 L1686.88,1121.25 L1683.18,1121.25 L1683.18,1136.8 L1677.48,1136.8 L1677.48,1124.55 L1673.73,1124.55 L1673.73,1135.25 L1663.78,1135.25 L1663.78,1124.55 L1660.03,1124.55 L1660.03,1152.95 L1677.48,1152.95 M1695.43,1163.9 L1695.43,1120.2 L1691.68,1120.2 L1691.68,1163.9 L1695.43,1163.9 M1673.73,1149.75 L1663.78,1149.75 L1663.78,1138.4 L1673.73,1138.4 L1673.73,1149.75 "/>
<path class="Lyrics" d="M795.595,1124 C789.245,1124 785.995,1130.2 785.995,1138.95 C785.995,1147.75 789.245,1153.9 795.595,1153.9 C801.995,1153.9 805.245,1147.75 805.245,1138.95 C805.245,1130.2 801.995,1124 795.595,1124 M822.145,1163.9 L822.145,1120.2 L818.395,1120.2 L818.395,1137.9 L813.045,1137.9 L813.045,1121.1 L809.345,1121.1 L809.345,1161.85 L813.045,1161.85 L813.045,1141.05 L818.395,1141.05 L818.395,1163.9 L822.145,1163.9 M801.445,1138.95 C801.445,1146.05 799.145,1150.55 795.595,1150.55 C792.095,1150.55 789.845,1146.05 789.845,1138.95 C789.845,1131.9 792.095,1127.35 795.595,1127.35 C799.145,1127.35 801.445,1131.9 801.445,1138.95"/>
<path class="Lyrics" d="M1389.82,662.331 L1383.17,662.331 L1383.17,656.081 L1389.82,656.081 L1389.82,652.881 L1383.17,652.881 L1383.17,646.131 L1379.37,646.131 L1379.37,672.481 L1383.17,672.481 L1383.17,665.481 L1389.82,665.481 L1389.82,662.331 M1383.52,681.331 C1383.52,676.381 1378.57,672.931 1369.02,672.931 C1359.52,672.931 1354.62,676.281 1354.62,681.331 C1354.62,686.331 1359.52,689.731 1369.02,689.731 C1378.57,689.731 1383.52,686.331 1383.52,681.331 M1369.02,676.081 C1375.62,676.081 1379.62,678.131 1379.62,681.331 C1379.62,684.581 1375.62,686.581 1369.02,686.581 C1362.42,686.581 1358.52,684.481 1358.52,681.331 C1358.52,678.181 1362.42,676.081 1369.02,676.081 M1361.37,648.531 C1355.12,648.531 1350.02,652.731 1350.02,659.081 C1350.02,665.481 1355.12,669.431 1361.37,669.431 C1367.57,669.431 1372.67,665.481 1372.67,659.031 C1372.67,652.731 1367.57,648.531 1361.37,648.531 M1361.37,651.631 C1365.97,651.631 1369.02,654.731 1369.02,659.081 C1369.02,663.381 1365.92,666.331 1361.37,666.331 C1356.97,666.331 1353.72,663.381 1353.72,659.031 C1353.72,654.731 1356.97,651.631 1361.37,651.631"/>
<path class="Lyrics" d="M749.761,1143.7 L749.761,1120.2 L745.961,1120.2 L745.961,1130.6 L738.611,1130.6 L738.611,1133.75 L745.961,1133.75 L745.961,1143.7 L749.761,1143.7 M754.061,1161.05 C749.361,1158.8 746.361,1154.3 746.361,1149.55 L746.361,1145.85 L742.661,1145.85 L742.661,1149.55 C742.661,1154.2 740.111,1159 735.161,1161.25 L737.261,1164.05 C740.711,1162.2 743.661,1158.6 744.461,1155.7 C745.411,1158.65 748.611,1162 751.811,1163.85 L754.061,1161.05 M734.111,1163.3 L734.111,1146.35 L730.511,1146.35 L730.511,1151.8 L722.811,1151.8 L722.811,1146.35 L719.211,1146.35 L719.211,1163.3 L734.111,1163.3 M730.511,1160.3 L722.811,1160.3 L722.811,1154.7 L730.511,1154.7 L730.511,1160.3 M725.661,1122.35 C719.511,1122.35 714.411,1126.45 714.411,1132.6 C714.411,1138.8 719.561,1142.7 725.661,1142.7 C731.811,1142.7 736.861,1138.8 736.861,1132.55 C736.861,1126.35 731.811,1122.35 725.661,1122.35 M725.661,1125.65 C730.161,1125.65 733.061,1128.5 733.061,1132.6 C733.061,1136.75 730.111,1139.55 725.661,1139.55 C721.361,1139.55 718.211,1136.75 718.211,1132.55 C718.211,1128.45 721.361,1125.65 725.661,1125.65"/>
<path class="Lyrics" d="M592.672,1143.5 L592.672,1140.55 L553.222,1140.55 L553.222,1143.5 L592.672,1143.5 M589.372,1163.1 L589.372,1160.1 L561.572,1160.1 L561.572,1156.1 L588.022,1156.1 L588.022,1146.95 L557.822,1146.95 L557.822,1149.75 L584.222,1149.75 L584.222,1153.4 L557.772,1153.4 L557.772,1163.1 L589.372,1163.1 M588.622,1137.1 L588.622,1134.25 L562.022,1134.25 L562.022,1130.8 L587.772,1130.8 L587.772,1121.65 L558.172,1121.65 L558.172,1124.65 L583.972,1124.65 L583.972,1128.05 L558.222,1128.05 L558.222,1137.1 L588.622,1137.1 "/>
<path class="Lyrics" d="M1744.07,1163.95 L1744.07,1149.25 L1761.97,1149.25 L1761.97,1146.05 L1722.52,1146.05 L1722.52,1149.25 L1740.27,1149.25 L1740.27,1163.95 L1744.07,1163.95 M1758.17,1141.15 L1758.17,1137.95 L1751.02,1137.95 L1752.67,1128 L1748.77,1127.5 L1747.42,1137.95 L1736.77,1137.95 L1735.87,1127.55 L1731.92,1128.05 L1733.17,1137.95 L1726.17,1137.95 L1726.17,1141.15 L1758.17,1141.15 M1758.07,1125.65 L1758.07,1122.45 L1726.27,1122.45 L1726.27,1125.65 L1758.07,1125.65 "/>
<path class="Lyrics" d="M460.8,1128.05 L470.75,1128.05 C470.7,1134.55 465.2,1140 459.6,1141.9 L461.6,1144.9 C466.8,1142.5 471.35,1138.25 472.75,1134 C474.5,1137.9 479.5,1141.85 483.75,1143.5 L485.75,1140.6 C481.15,1139.15 474.65,1134.5 474.6,1128.05 L484.9,1128.05 L484.9,1124.85 L460.8,1124.85 L460.8,1128.05 M494,1163.9 L494,1120.2 L490.25,1120.2 L490.25,1163.9 L494,1163.9 M487.3,1153.95 L486.95,1150.85 C484.15,1151.25 479.35,1151.55 474.55,1151.85 L474.55,1142.45 L470.75,1142.45 L470.75,1152.1 C466.1,1152.25 461.7,1152.4 458.35,1152.4 L459,1155.75 C462.7,1155.7 467.6,1155.5 472.45,1155.25 C477.8,1154.85 483.85,1154.4 487.3,1153.95"/>
<path class="Lyrics" d="M1663.64,689.831 L1663.64,646.131 L1659.89,646.131 L1659.89,689.831 L1663.64,689.831 M1654.99,687.631 L1654.99,647.181 L1651.29,647.181 L1651.29,661.881 L1643.54,661.881 L1643.54,665.081 L1651.29,665.081 L1651.29,687.631 L1654.99,687.631 M1648.64,676.031 C1643.89,672.881 1638.79,666.531 1638.79,658.031 L1638.79,650.181 L1635.04,650.181 L1635.04,658.131 C1635.04,666.681 1630.64,674.131 1625.69,677.281 L1628.04,680.131 C1632.39,676.981 1635.99,671.281 1636.94,666.281 C1638.34,671.231 1642.94,676.431 1646.29,678.831 L1648.64,676.031 "/>
<path class="Lyrics" d="M1734.17,666.281 C1729.22,664.581 1723.47,659.231 1723.47,652.281 L1723.47,648.231 L1719.62,648.231 L1719.62,652.431 C1719.62,659.381 1714.92,664.881 1708.67,667.831 L1710.77,670.781 C1715.87,668.131 1720.32,663.781 1721.67,659.131 C1723.42,663.531 1727.72,667.281 1731.92,669.331 L1734.17,666.281 M1743.67,681.431 C1743.67,676.231 1738.17,673.031 1728.97,673.031 C1719.82,673.031 1714.37,676.231 1714.37,681.431 C1714.37,686.631 1719.82,689.781 1728.97,689.781 C1738.17,689.781 1743.67,686.631 1743.67,681.431 M1728.97,676.181 C1735.62,676.181 1739.77,678.081 1739.77,681.431 C1739.77,684.781 1735.62,686.631 1728.97,686.631 C1722.37,686.631 1718.27,684.781 1718.27,681.431 C1718.27,678.081 1722.37,676.181 1728.97,676.181 M1749.72,661.181 L1749.72,657.981 L1743.07,657.981 L1743.07,646.131 L1739.27,646.131 L1739.27,673.081 L1743.07,673.081 L1743.07,661.181 L1749.72,661.181 "/>
<path class="Lyrics" d="M1827.86,646.131 L1827.86,689.831 L1831.66,689.831 L1831.66,646.131 L1827.86,646.131 M1820.96,659.931 C1820.96,653.531 1816.06,649.531 1809.61,649.531 C1803.26,649.531 1798.21,653.781 1798.21,659.931 C1798.21,665.781 1803.16,670.081 1809.61,670.081 C1815.91,670.081 1820.96,666.131 1820.96,659.931 M1817.26,659.931 C1817.26,664.031 1813.76,666.881 1809.61,666.881 C1805.36,666.881 1801.91,663.981 1801.91,659.931 C1801.91,655.831 1805.41,652.781 1809.61,652.781 C1813.86,652.781 1817.26,655.531 1817.26,659.931 M1825.31,678.731 L1824.96,675.631 C1821.76,676.031 1816.11,676.381 1810.01,676.581 C1804.71,676.881 1799.56,676.981 1795.81,676.931 L1796.51,680.281 C1799.81,680.231 1804.61,680.081 1809.76,679.831 C1815.31,679.581 1821.56,679.181 1825.31,678.731"/>
<path class="Lyrics" d="M1833.22,1141.8 C1826.02,1140.4 1817.02,1134.1 1817.02,1126.6 L1817.02,1123.45 L1813.07,1123.45 L1813.07,1126.6 C1813.07,1134.1 1804.57,1140.35 1796.92,1141.8 L1798.92,1144.85 C1806.57,1142.75 1813.32,1137.35 1814.97,1132.35 C1816.87,1137.25 1823.47,1142.7 1831.12,1144.85 L1833.22,1141.8 M1834.77,1158.35 L1834.77,1155.15 L1816.87,1155.15 L1816.87,1143.95 L1813.07,1143.95 L1813.07,1155.15 L1795.32,1155.15 L1795.32,1158.35 L1834.77,1158.35 "/>
<polyline class="LyricsLineSegment" fill="none" stroke="#000000" stroke-width="2.48" stroke-linejoin="bevel" points="932.006,672.353 951.846,672.353"/>
</svg>
