<?xml version="1.0" encoding="UTF-8" standalone="no"?>
<svg
   width="2098.8px"
   height="1418.4px"
   viewBox="0 0 2098.8 1418.4"
   version="1.2"
   id="svg112"
   sodipodi:docname="하느님의어린양-3.svg"
   inkscape:version="1.3.2 (091e20e, 2023-11-25)"
   xmlns:inkscape="http://www.inkscape.org/namespaces/inkscape"
   xmlns:sodipodi="http://sodipodi.sourceforge.net/DTD/sodipodi-0.dtd"
   xmlns="http://www.w3.org/2000/svg"
   xmlns:svg="http://www.w3.org/2000/svg">
  <defs
     id="defs112" />
  <sodipodi:namedview
     id="namedview112"
     pagecolor="#ffffff"
     bordercolor="#000000"
     borderopacity="0.25"
     inkscape:showpageshadow="2"
     inkscape:pageopacity="0.0"
     inkscape:pagecheckerboard="0"
     inkscape:deskcolor="#d1d1d1"
     inkscape:zoom="0.16638466"
     inkscape:cx="766.29662"
     inkscape:cy="558.94577"
     inkscape:window-width="1312"
     inkscape:window-height="449"
     inkscape:window-x="0"
     inkscape:window-y="25"
     inkscape:window-maximized="0"
     inkscape:current-layer="svg112" />
  <title
     id="title1">44 하느님의 어린양.musicxml (3)</title>
  <desc
     id="desc1">Generated by MuseScore 4.2.1</desc>
  <polyline
     class="StaffLines"
     fill="none"
     stroke="#000000"
     stroke-width="2.73"
     stroke-linejoin="bevel"
     points="212.598,314 1886.6,314"
     id="polyline1" />
  <polyline
     class="StaffLines"
     fill="none"
     stroke="#000000"
     stroke-width="2.73"
     stroke-linejoin="bevel"
     points="212.598,338.8 1886.6,338.8"
     id="polyline2" />
  <polyline
     class="StaffLines"
     fill="none"
     stroke="#000000"
     stroke-width="2.73"
     stroke-linejoin="bevel"
     points="212.598,363.6 1886.6,363.6"
     id="polyline3" />
  <polyline
     class="StaffLines"
     fill="none"
     stroke="#000000"
     stroke-width="2.73"
     stroke-linejoin="bevel"
     points="212.598,388.4 1886.6,388.4"
     id="polyline4" />
  <polyline
     class="StaffLines"
     fill="none"
     stroke="#000000"
     stroke-width="2.73"
     stroke-linejoin="bevel"
     points="212.598,413.2 1886.6,413.2"
     id="polyline5" />
  <polyline
     class="StaffLines"
     fill="none"
     stroke="#000000"
     stroke-width="2.73"
     stroke-linejoin="bevel"
     points="212.598,921.6 1886.6,921.6"
     id="polyline6"
     transform="translate(0,-162)" />
  <polyline
     class="StaffLines"
     fill="none"
     stroke="#000000"
     stroke-width="2.73"
     stroke-linejoin="bevel"
     points="212.598,946.4 1886.6,946.4"
     id="polyline7"
     transform="translate(0,-162)" />
  <polyline
     class="StaffLines"
     fill="none"
     stroke="#000000"
     stroke-width="2.73"
     stroke-linejoin="bevel"
     points="212.598,971.2 1886.6,971.2"
     id="polyline8"
     transform="translate(0,-162)" />
  <polyline
     class="StaffLines"
     fill="none"
     stroke="#000000"
     stroke-width="2.73"
     stroke-linejoin="bevel"
     points="212.598,996 1886.6,996"
     id="polyline9"
     transform="translate(0,-162)" />
  <polyline
     class="StaffLines"
     fill="none"
     stroke="#000000"
     stroke-width="2.73"
     stroke-linejoin="bevel"
     points="212.598,1020.8 1886.6,1020.8"
     id="polyline10"
     transform="translate(0,-162)" />
  <path
     class="MeasureNumber"
     d="M228.958,236.08 L227.798,236.08 C225.598,237.72 221.358,239.12 218.478,239.12 L217.998,240.88 L220.758,240.88 C223.198,240.88 223.478,240.96 223.478,241.68 C223.478,242.04 223.478,242.04 223.078,243.48 L218.798,259.48 C218.278,261.48 218.238,261.6 217.878,261.96 C217.478,262.36 216.638,262.48 214.518,262.52 L212.798,262.52 L212.598,264.4 L227.398,264.4 L227.638,262.52 L225.478,262.52 C222.878,262.52 222.318,262.32 222.318,261.44 C222.318,261.16 222.478,260.24 222.678,259.48 L228.958,236.08 M239.153,251 C239.833,247.48 240.633,245.28 242.153,242.6 C243.953,239.44 246.113,237.84 248.513,237.84 C249.753,237.84 250.513,238.32 250.513,239.08 C250.513,239.36 250.433,239.52 250.153,240.04 C249.793,240.72 249.633,241.2 249.633,241.8 C249.633,243.08 250.593,243.96 251.953,243.96 C253.593,243.96 254.713,242.76 254.713,240.96 C254.713,238.24 252.153,236.24 248.593,236.24 C239.673,236.24 234.273,247.88 234.273,255.56 C234.273,261.44 237.193,265 242.073,265 C248.073,265 252.513,260.04 252.513,254.16 C252.513,250.08 249.753,247.24 245.753,247.24 C242.953,247.24 240.793,248.44 239.153,251 M244.473,249.56 C246.953,249.56 248.313,251.28 248.313,254.4 C248.313,259.48 245.633,263.36 242.073,263.36 C239.513,263.36 237.993,261.48 237.993,258.28 C237.993,253.28 240.753,249.56 244.473,249.56"
     id="path10" />
  <path
     class="MeasureNumber"
     d="m 228.958,681.68 h -1.16 c -2.2,1.64 -6.44,3.04 -9.32,3.04 l -0.48,1.76 h 2.76 c 2.44,0 2.72,0.08 2.72,0.8 0,0.36 0,0.36 -0.4,1.8 l -4.28,16 c -0.52,2 -0.56,2.12 -0.92,2.48 -0.4,0.4 -1.24,0.52 -3.36,0.56 h -1.72 l -0.2,1.88 h 14.8 l 0.24,-1.88 h -2.16 c -2.6,0 -3.16,-0.2 -3.16,-1.08 0,-0.28 0.16,-1.2 0.36,-1.96 l 6.28,-23.4 m 19.595,14.64 c -1,4.64 -3.68,12.6 -9.4,12.6 -1.16,0 -1.92,-0.48 -1.92,-1.2 0,-0.28 0.08,-0.4 0.4,-0.88 0.4,-0.52 0.6,-1 0.6,-1.56 0,-1.32 -1.04,-2.32 -2.4,-2.32 -1.6,0 -2.72,1.2 -2.72,2.96 0,2.72 2.56,4.68 6.12,4.68 8.76,0 14.36,-11.2 14.36,-18.8 0,-6.24 -3,-9.96 -7.96,-9.96 -5.96,0 -10.4,5.48 -10.4,11.2 0,3.8 2.92,6.68 6.8,6.68 2.64,0 4.68,-1.08 6.52,-3.4 m -2.96,-12.8 c 2.56,0 4.2,2.04 4.2,5.24 0,4.96 -2.72,8.6 -6.4,8.6 -2.52,0 -3.92,-1.72 -3.92,-4.72 0,-3.6 1.72,-9.12 6.12,-9.12"
     id="path11" />
  <path
     class="SlurSegment"
     stroke="#000000"
     stroke-width="1.24"
     stroke-linecap="round"
     stroke-linejoin="round"
     fill-rule="evenodd"
     d="M1672.99,308.296 C1697.81,289.066 1733.32,299.358 1744.01,328.88 C1731.11,306.98 1695.6,296.688 1672.99,308.296"
     id="path12" />
  <path
     class="TieSegment"
     stroke="#000000"
     stroke-width="1.24"
     stroke-linecap="round"
     stroke-linejoin="round"
     fill-rule="evenodd"
     d="m 1434.16,840.05 c 42.89,30.93 171.56,30.93 214.45,0 -42.89,38.87 -171.56,38.87 -214.45,0"
     id="path13" />
  <path
     class="TieSegment"
     stroke="#000000"
     stroke-width="1.24"
     stroke-linecap="round"
     stroke-linejoin="round"
     fill-rule="evenodd"
     d="m 889.173,840.05 c 42.89,30.93 171.567,30.93 214.457,0 -42.89,38.87 -171.567,38.87 -214.457,0"
     id="path14" />
  <polyline
     class="BarLine"
     fill="none"
     stroke="#000000"
     stroke-width="4.46"
     stroke-linejoin="bevel"
     points="833.722,920.236 833.722,1022.16"
     id="polyline14"
     transform="translate(0,-162)" />
  <polyline
     class="BarLine"
     fill="none"
     stroke="#000000"
     stroke-width="4.46"
     stroke-linejoin="bevel"
     points="1884.37,312.636 1884.37,414.564"
     id="polyline15" />
  <polyline
     class="BarLine"
     fill="none"
     stroke="#000000"
     stroke-width="4.46"
     stroke-linejoin="bevel"
     points="1861.55,920.236 1861.55,1022.16"
     id="polyline16"
     transform="translate(0,-162)" />
  <polyline
     class="BarLine"
     fill="none"
     stroke="#000000"
     stroke-width="13.64"
     stroke-linejoin="bevel"
     points="1879.78,920.236 1879.78,1022.16"
     id="polyline17"
     transform="translate(0,-162)" />
  <polyline
     class="BarLine"
     fill="none"
     stroke="#000000"
     stroke-width="4.46"
     stroke-linejoin="bevel"
     points="1056.41,920.236 1056.41,1022.16"
     id="polyline18"
     transform="translate(0,-162)" />
  <polyline
     class="BarLine"
     fill="none"
     stroke="#000000"
     stroke-width="4.46"
     stroke-linejoin="bevel"
     points="1391.6,312.636 1391.6,414.564"
     id="polyline19" />
  <polyline
     class="BarLine"
     fill="none"
     stroke="#000000"
     stroke-width="4.46"
     stroke-linejoin="bevel"
     points="1378.71,920.236 1378.71,1022.16"
     id="polyline20"
     transform="translate(0,-162)" />
  <polyline
     class="BarLine"
     fill="none"
     stroke="#000000"
     stroke-width="4.46"
     stroke-linejoin="bevel"
     points="1601.39,920.236 1601.39,1022.16"
     id="polyline21"
     transform="translate(0,-162)" />
  <polyline
     class="BarLine"
     fill="none"
     stroke="#000000"
     stroke-width="4.46"
     stroke-linejoin="bevel"
     points="946.537,312.636 946.537,414.564"
     id="polyline22" />
  <polyline
     class="Stem"
     fill="none"
     stroke="#000000"
     stroke-width="2.48"
     stroke-linejoin="bevel"
     points="1666.86,979.632 1666.86,903"
     id="polyline23"
     transform="translate(0,-162)" />
  <polyline
     class="Stem"
     fill="none"
     stroke="#000000"
     stroke-width="2.48"
     stroke-linejoin="bevel"
     points="874.526,355.366 874.526,425.705"
     id="polyline24" />
  <polyline
     class="Stem"
     fill="none"
     stroke="#000000"
     stroke-width="2.48"
     stroke-linejoin="bevel"
     points="738.65,967.232 738.65,903.135"
     id="polyline25"
     transform="translate(0,-162)" />
  <polyline
     class="Stem"
     fill="none"
     stroke="#000000"
     stroke-width="2.48"
     stroke-linejoin="bevel"
     points="667.831,979.632 667.831,903.198"
     id="polyline26"
     transform="translate(0,-162)" />
  <polyline
     class="Stem"
     fill="none"
     stroke="#000000"
     stroke-width="2.48"
     stroke-linejoin="bevel"
     points="461.28,975.366 461.28,1045.6"
     id="polyline27"
     transform="translate(0,-162)" />
  <polyline
     class="Stem"
     fill="none"
     stroke="#000000"
     stroke-width="2.48"
     stroke-linejoin="bevel"
     points="803.508,367.766 803.508,431.695"
     id="polyline28" />
  <polyline
     class="Stem"
     fill="none"
     stroke="#000000"
     stroke-width="2.48"
     stroke-linejoin="bevel"
     points="982.249,330.566 982.249,413.2"
     id="polyline29" />
  <polyline
     class="Stem"
     fill="none"
     stroke="#000000"
     stroke-width="2.48"
     stroke-linejoin="bevel"
     points="461.28,330.566 461.28,413.2"
     id="polyline30" />
  <polyline
     class="Stem"
     fill="none"
     stroke="#000000"
     stroke-width="2.48"
     stroke-linejoin="bevel"
     points="597.56,372.032 597.56,295.4"
     id="polyline31" />
  <polyline
     class="Stem"
     fill="none"
     stroke="#000000"
     stroke-width="2.48"
     stroke-linejoin="bevel"
     points="1088.78,342.966 1088.78,425.6"
     id="polyline32" />
  <polyline
     class="Stem"
     fill="none"
     stroke="#000000"
     stroke-width="2.48"
     stroke-linejoin="bevel"
     points="732.602,372.032 732.602,295.4"
     id="polyline33" />
  <polyline
     class="Stem"
     fill="none"
     stroke="#000000"
     stroke-width="2.48"
     stroke-linejoin="bevel"
     points="1829.91,372.032 1829.91,295.598"
     id="polyline34" />
  <polyline
     class="Stem"
     fill="none"
     stroke="#000000"
     stroke-width="2.48"
     stroke-linejoin="bevel"
     points="1729.14,355.366 1729.14,431.701"
     id="polyline35" />
  <polyline
     class="Stem"
     fill="none"
     stroke="#000000"
     stroke-width="2.48"
     stroke-linejoin="bevel"
     points="1248.57,367.766 1248.57,444.101"
     id="polyline36" />
  <polyline
     class="Stem"
     fill="none"
     stroke="#000000"
     stroke-width="2.48"
     stroke-linejoin="bevel"
     points="1121.87,979.632 1121.87,903"
     id="polyline37"
     transform="translate(0,-162)" />
  <polyline
     class="Stem"
     fill="none"
     stroke="#000000"
     stroke-width="2.48"
     stroke-linejoin="bevel"
     points="779.948,372.032 779.948,295.4"
     id="polyline38" />
  <polyline
     class="Stem"
     fill="none"
     stroke="#000000"
     stroke-width="2.48"
     stroke-linejoin="bevel"
     points="793.05,992.032 793.05,909.065"
     id="polyline39"
     transform="translate(0,-162)" />
  <polyline
     class="Stem"
     fill="none"
     stroke="#000000"
     stroke-width="2.48"
     stroke-linejoin="bevel"
     points="1319.59,355.366 1319.59,431.701"
     id="polyline40" />
  <polyline
     class="Stem"
     fill="none"
     stroke="#000000"
     stroke-width="2.48"
     stroke-linejoin="bevel"
     points="1658.12,342.966 1658.12,425.501"
     id="polyline41" />
  <polyline
     class="Stem"
     fill="none"
     stroke="#000000"
     stroke-width="2.48"
     stroke-linejoin="bevel"
     points="1325.87,979.632 1325.87,903"
     id="polyline42"
     transform="translate(0,-162)" />
  <polyline
     class="Stem"
     fill="none"
     stroke="#000000"
     stroke-width="2.48"
     stroke-linejoin="bevel"
     points="1244.27,979.632 1244.27,903"
     id="polyline43"
     transform="translate(0,-162)" />
  <polyline
     class="Stem"
     fill="none"
     stroke="#000000"
     stroke-width="2.48"
     stroke-linejoin="bevel"
     points="1427.31,342.966 1427.31,425.6"
     id="polyline44" />
  <path
     class="Note"
     d="m 886.7444,808.1088 c -13.6896,0 -18.5504,6.944 -18.5504,13.392 0,6.448 4.8608,13.392 18.5504,13.392 13.6896,0 18.4512,-6.944 18.4512,-13.392 0,-6.448 -4.7616,-13.392 -18.4512,-13.392 m 0.7936,23.6096 c -2.7776,0 -4.6624,-0.7936 -5.952,-3.2736 -1.2896,-2.48 -3.0752,-8.928 -3.1744,-11.5072 -0.1984,-2.6784 0.7936,-4.2656 3.1744,-5.0592 1.1904,-0.3968 2.7776,-0.5952 4.3648,-0.5952 2.6784,0 4.464,0.5952 5.8528,3.2736 1.3888,2.5792 3.2736,9.0272 3.2736,11.5072 0,4.8608 -3.5712,5.6544 -7.5392,5.6544"
     id="path44"
     style="stroke-width:0.992" />
  <path
     class="Note"
     transform="matrix(0.992,0,0,0.992,1426.07,338.8)"
     d="M21.3,-13.2 C11.6,-13.2 0,-5.1 0,4.2 C0,8.5 3.1,13.3 11.2,13.3 C21.6,13.3 32.5,4.8 32.5,-4 C32.5,-9.9 27.5,-13.2 21.3,-13.2 M7.5,8.6 C4.2,8.6 3.5,5.9 3.5,5 C3.5,0.1 20.3,-8.5 25,-8.5 C27.4,-8.5 29,-7.1 29,-4.9 C29,0.1 12.1,8.6 7.5,8.6"
     id="path45" />
  <path
     class="Note"
     d="m 1213.28,825.7664 c 0,4.2656 3.0752,9.0272 11.1104,9.0272 10.3168,0 21.1296,-8.432 21.1296,-17.1616 0,-5.8528 -4.96,-9.1264 -11.1104,-9.1264 -9.6224,0 -21.1296,8.1344 -21.1296,17.2608"
     id="path46"
     style="stroke-width:0.992" />
  <path
     class="Note"
     d="m 707.658,813.3664 c 0,4.2656 3.0752,9.0272 11.1104,9.0272 10.3168,0 21.1296,-8.432 21.1296,-17.1616 0,-5.8528 -4.96,-9.1264 -11.1104,-9.1264 -9.6224,0 -21.1296,8.1344 -21.1296,17.2608"
     id="path47"
     style="stroke-width:0.992" />
  <path
     class="Note"
     transform="matrix(0.992,0,0,0.992,873.286,351.2)"
     d="M0,4.2 C0,8.5 3.1,13.3 11.2,13.3 C21.6,13.3 32.5,4.8 32.5,-4 C32.5,-9.9 27.5,-13.2 21.3,-13.2 C11.6,-13.2 0,-5 0,4.2"
     id="path48" />
  <path
     class="Note"
     transform="matrix(0.992,0,0,0.992,1318.35,351.2)"
     d="M0,4.2 C0,8.5 3.1,13.3 11.2,13.3 C21.6,13.3 32.5,4.8 32.5,-4 C32.5,-9.9 27.5,-13.2 21.3,-13.2 C11.6,-13.2 0,-5 0,4.2"
     id="path49" />
  <path
     class="Note"
     d="m 1294.88,825.7664 c 0,4.2656 3.0752,9.0272 11.1104,9.0272 10.3168,0 21.1296,-8.432 21.1296,-17.1616 0,-5.8528 -4.96,-9.1264 -11.1104,-9.1264 -9.6224,0 -21.1296,8.1344 -21.1296,17.2608"
     id="path50"
     style="stroke-width:0.992" />
  <path
     class="Note"
     d="m 1112.0096,808.5056 c -9.6224,0 -21.1296,8.0352 -21.1296,17.2608 0,4.2656 3.0752,9.0272 11.1104,9.0272 10.3168,0 21.1296,-8.432 21.1296,-17.1616 0,-5.8528 -4.96,-9.1264 -11.1104,-9.1264 m -13.6896,21.6256 c -3.2736,0 -3.968,-2.6784 -3.968,-3.5712 0,-4.8608 16.6656,-13.392 21.328,-13.392 2.3808,0 3.968,1.3888 3.968,3.5712 0,4.96 -16.7648,13.392 -21.328,13.392"
     id="path51"
     style="stroke-width:0.992" />
  <path
     class="Note"
     transform="matrix(0.992,0,0,0.992,1247.33,363.6)"
     d="M0,4.2 C0,8.5 3.1,13.3 11.2,13.3 C21.6,13.3 32.5,4.8 32.5,-4 C32.5,-9.9 27.5,-13.2 21.3,-13.2 C11.6,-13.2 0,-5 0,4.2"
     id="path52" />
  <path
     class="Note"
     transform="matrix(0.992,0,0,0.992,748.956,376)"
     d="M0,4.2 C0,8.5 3.1,13.3 11.2,13.3 C21.6,13.3 32.5,4.8 32.5,-4 C32.5,-9.9 27.5,-13.2 21.3,-13.2 C11.6,-13.2 0,-5 0,4.2"
     id="path53" />
  <path
     class="Note"
     transform="matrix(0.992,0,0,0.992,1727.9,351.2)"
     d="M0,4.2 C0,8.5 3.1,13.3 11.2,13.3 C21.6,13.3 32.5,4.8 32.5,-4 C32.5,-9.9 27.5,-13.2 21.3,-13.2 C11.6,-13.2 0,-5 0,4.2"
     id="path54" />
  <path
     class="Note"
     transform="matrix(0.992,0,0,0.992,701.61,376)"
     d="M0,4.2 C0,8.5 3.1,13.3 11.2,13.3 C21.6,13.3 32.5,4.8 32.5,-4 C32.5,-9.9 27.5,-13.2 21.3,-13.2 C11.6,-13.2 0,-5 0,4.2"
     id="path55" />
  <path
     class="Note"
     d="m 1431.7304,808.1088 c -13.6896,0 -18.5504,6.944 -18.5504,13.392 0,6.448 4.8608,13.392 18.5504,13.392 13.6896,0 18.4512,-6.944 18.4512,-13.392 0,-6.448 -4.7616,-13.392 -18.4512,-13.392 m 0.7936,23.6096 c -2.7776,0 -4.6624,-0.7936 -5.952,-3.2736 -1.2896,-2.48 -3.0752,-8.928 -3.1744,-11.5072 -0.1984,-2.6784 0.7936,-4.2656 3.1744,-5.0592 1.1904,-0.3968 2.7776,-0.5952 4.3648,-0.5952 2.6784,0 4.464,0.5952 5.8528,3.2736 1.3888,2.5792 3.2736,9.0272 3.2736,11.5072 0,4.8608 -3.5712,5.6544 -7.5392,5.6544"
     id="path56"
     style="stroke-width:0.992" />
  <path
     class="Note"
     transform="matrix(0.992,0,0,0.992,1798.91,376)"
     d="M0,4.2 C0,8.5 3.1,13.3 11.2,13.3 C21.6,13.3 32.5,4.8 32.5,-4 C32.5,-9.9 27.5,-13.2 21.3,-13.2 C11.6,-13.2 0,-5 0,4.2"
     id="path57" />
  <path
     class="Note"
     transform="matrix(0.992,0,0,0.992,1087.54,338.8)"
     d="M21.3,-13.2 C11.6,-13.2 0,-5.1 0,4.2 C0,8.5 3.1,13.3 11.2,13.3 C21.6,13.3 32.5,4.8 32.5,-4 C32.5,-9.9 27.5,-13.2 21.3,-13.2 M7.5,8.6 C4.2,8.6 3.5,5.9 3.5,5 C3.5,0.1 20.3,-8.5 25,-8.5 C27.4,-8.5 29,-7.1 29,-4.9 C29,0.1 12.1,8.6 7.5,8.6"
     id="path58" />
  <path
     class="Note"
     transform="matrix(0.992,0,0,0.992,566.568,376)"
     d="M0,4.2 C0,8.5 3.1,13.3 11.2,13.3 C21.6,13.3 32.5,4.8 32.5,-4 C32.5,-9.9 27.5,-13.2 21.3,-13.2 C11.6,-13.2 0,-5 0,4.2"
     id="path59" />
  <path
     class="Note"
     d="m 1656.9896,808.5056 c -9.6224,0 -21.1296,8.0352 -21.1296,17.2608 0,4.2656 3.0752,9.0272 11.1104,9.0272 10.3168,0 21.1296,-8.432 21.1296,-17.1616 0,-5.8528 -4.96,-9.1264 -11.1104,-9.1264 M 1643.3,830.1312 c -3.2736,0 -3.968,-2.6784 -3.968,-3.5712 0,-4.8608 16.6656,-13.392 21.328,-13.392 2.3808,0 3.968,1.3888 3.968,3.5712 0,4.96 -16.7648,13.392 -21.328,13.392"
     id="path60"
     style="stroke-width:0.992" />
  <path
     class="Note"
     transform="matrix(0.992,0,0,0.992,1656.88,338.8)"
     d="M0,4.2 C0,8.5 3.1,13.3 11.2,13.3 C21.6,13.3 32.5,4.8 32.5,-4 C32.5,-9.9 27.5,-13.2 21.3,-13.2 C11.6,-13.2 0,-5 0,4.2"
     id="path61" />
  <path
     class="Note"
     transform="matrix(0.992,0,0,0.992,460.04,326.4)"
     d="M0,4.2 C0,8.5 3.1,13.3 11.2,13.3 C21.6,13.3 32.5,4.8 32.5,-4 C32.5,-9.9 27.5,-13.2 21.3,-13.2 C11.6,-13.2 0,-5 0,4.2"
     id="path62" />
  <path
     class="Note"
     transform="matrix(0.992,0,0,0.992,981.009,326.4)"
     d="M0,4.2 C0,8.5 3.1,13.3 11.2,13.3 C21.6,13.3 32.5,4.8 32.5,-4 C32.5,-9.9 27.5,-13.2 21.3,-13.2 C11.6,-13.2 0,-5 0,4.2"
     id="path63" />
  <path
     class="Note"
     d="m 762.057,838.1664 c 0,4.2656 3.0752,9.0272 11.1104,9.0272 10.3168,0 21.1296,-8.432 21.1296,-17.1616 0,-5.8528 -4.96,-9.1264 -11.1104,-9.1264 -9.6224,0 -21.1296,8.1344 -21.1296,17.2608"
     id="path64"
     style="stroke-width:0.992" />
  <path
     class="Note"
     d="m 636.838,825.7664 c 0,4.2656 3.0752,9.0272 11.1104,9.0272 10.3168,0 21.1296,-8.432 21.1296,-17.1616 0,-5.8528 -4.96,-9.1264 -11.1104,-9.1264 -9.6224,0 -21.1296,8.1344 -21.1296,17.2608"
     id="path65"
     style="stroke-width:0.992" />
  <path
     class="Note"
     transform="matrix(0.992,0,0,0.992,802.268,363.6)"
     d="M0,4.2 C0,8.5 3.1,13.3 11.2,13.3 C21.6,13.3 32.5,4.8 32.5,-4 C32.5,-9.9 27.5,-13.2 21.3,-13.2 C11.6,-13.2 0,-5 0,4.2"
     id="path66" />
  <path
     class="Note"
     d="m 481.1696,796.1056 c -9.6224,0 -21.1296,8.0352 -21.1296,17.2608 0,4.2656 3.0752,9.0272 11.1104,9.0272 10.3168,0 21.1296,-8.432 21.1296,-17.1616 0,-5.8528 -4.96,-9.1264 -11.1104,-9.1264 M 467.48,817.7312 c -3.2736,0 -3.968,-2.6784 -3.968,-3.5712 0,-4.8608 16.6656,-13.392 21.328,-13.392 2.3808,0 3.968,1.3888 3.968,3.5712 0,4.96 -16.7648,13.392 -21.328,13.392"
     id="path67"
     style="stroke-width:0.992" />
  <path
     class="Clef"
     transform="matrix(0.992,0,0,0.992,231.198,388.4)"
     d="M12.3,51.3 C12.3,57.9 17.3,66.6 30.8,66.6 C35.5,66.6 39.6,65.4 43.2,63.2 C48.6,59.4 50,52.8 50,46.5 C50,42.6 49.4,38.1 48.4,32.4 C48.1,30.4 47.5,27.4 46.9,23.5 C56.7,20.3 64,10.1 64,-0.2 C64,-15.3 53.3,-25.5 38.7,-25.5 C37.7,-31.5 36.7,-37.4 35.9,-43 C46.4,-54.1 53.7,-66.6 53.7,-82.5 C53.7,-91.6 50.9,-99 49.3,-102.6 C46.9,-107.7 44,-111.2 42.2,-111.2 C41.5,-111.2 38.4,-110 35.1,-106.1 C28.7,-98.5 26.9,-85.7 26.9,-77.3 C26.9,-71.9 27.4,-67 29.1,-55.8 C29,-55.7 23.8,-50.4 21.7,-48.7 C12.6,-40.3 0,-28.1 0,-8.1 C0,10.6 16.3,25.3 34.9,25.3 C37.8,25.3 40.5,25 42.8,24.6 C44.7,34.2 45.9,41.2 45.9,46.5 C45.9,56.9 40.5,62.4 30.4,62.4 C28,62.4 25.9,61.9 25.7,61.9 C25.6,61.8 25.4,61.7 25.4,61.6 C25.4,61.4 25.6,61.3 25.9,61.3 C30.6,60.5 35.3,56.5 35.3,50.1 C35.3,44.7 31.2,39 23.7,39 C16.7,39 12.3,44.7 12.3,51.3 M33.2,-82.2 C34.1,-86.2 38.7,-96.7 43.9,-96.7 C45.4,-96.7 47.8,-91.9 47.8,-84.9 C47.8,-74.5 40.1,-66.7 33.2,-59.9 C32.6,-63.9 32.1,-67.8 32.1,-72 C32.1,-75.7 32.4,-79.1 33.2,-82.2 M42,20.6 C40,21 38.1,21.2 36.2,21.2 C21.9,21.2 9.7,11.2 9.7,-3.9 C9.7,-16.1 18.3,-27 27.1,-34.6 C28.8,-36.1 30.4,-37.5 31.9,-39 C32.8,-33.6 33.5,-28.9 34.2,-24.8 C25.1,-22.1 18.9,-12.5 18.9,-3.1 C18.9,3.9 24.4,13.5 32.4,13.5 C33.2,13.5 34.1,13.1 34.1,12.2 C34.1,11.3 33.1,10.8 31.9,10 C28,7.6 25.8,5 25.8,0.1 C25.8,-6 30.4,-10.9 36.2,-12.3 L42,20.6 M56.2,2.1 C56.2,9.2 53.3,16.5 46.2,19.4 C44.1,7.4 41.4,-8.5 40.7,-12.9 C49.7,-12.9 56.2,-6.8 56.2,2.1"
     id="path68" />
  <path
     class="Clef"
     d="m 243.3996,884.8896 c 0,6.5472 4.96,15.1776 18.352,15.1776 4.6624,0 8.7296,-1.1904 12.3008,-3.3728 5.3568,-3.7696 6.7456,-10.3168 6.7456,-16.5664 0,-3.8688 -0.5952,-8.3328 -1.5872,-13.9872 -0.2976,-1.984 -0.8928,-4.96 -1.488,-8.8288 9.7216,-3.1744 16.9632,-13.2928 16.9632,-23.5104 0,-14.9792 -10.6144,-25.0976 -25.0976,-25.0976 -0.992,-5.952 -1.984,-11.8048 -2.7776,-17.36 10.416,-11.0112 17.6576,-23.4112 17.6576,-39.184 0,-9.0272 -2.7776,-16.368 -4.3648,-19.9392 -2.3808,-5.0592 -5.2576,-8.5312 -7.0432,-8.5312 -0.6944,0 -3.7696,1.1904 -7.0432,5.0592 -6.3488,7.5392 -8.1344,20.2368 -8.1344,28.5696 0,5.3568 0.496,10.2176 2.1824,21.328 -0.0992,0.0992 -5.2576,5.3568 -7.3408,7.0432 -9.0272,8.3328 -21.5264,20.4352 -21.5264,40.2752 0,18.5504 16.1696,33.1328 34.6208,33.1328 2.8768,0 5.5552,-0.2976 7.8368,-0.6944 1.8848,9.5232 3.0752,16.4672 3.0752,21.7248 0,10.3168 -5.3568,15.7728 -15.376,15.7728 -2.3808,0 -4.464,-0.496 -4.6624,-0.496 -0.0992,-0.099 -0.2976,-0.1984 -0.2976,-0.2976 0,-0.1984 0.1984,-0.2976 0.496,-0.2976 4.6624,-0.7936 9.3248,-4.7616 9.3248,-11.1104 0,-5.3568 -4.0672,-11.0112 -11.5072,-11.0112 -6.944,0 -11.3088,5.6544 -11.3088,12.2016 m 20.7328,-132.432 c 0.8928,-3.968 5.456,-14.384 10.6144,-14.384 1.488,0 3.8688,4.7616 3.8688,11.7056 0,10.3168 -7.6384,18.0544 -14.4832,24.8 -0.5952,-3.968 -1.0912,-7.8368 -1.0912,-12.0032 0,-3.6704 0.2976,-7.0432 1.0912,-10.1184 m 8.7296,101.9776 c -1.984,0.3968 -3.8688,0.5952 -5.7536,0.5952 -14.1856,0 -26.288,-9.92 -26.288,-24.8992 0,-12.1024 8.5312,-22.9152 17.2608,-30.4544 1.6864,-1.488 3.2736,-2.8768 4.7616,-4.3648 0.8928,5.3568 1.5872,10.0192 2.2816,14.0864 -9.0272,2.6784 -15.1776,12.2016 -15.1776,21.5264 0,6.944 5.456,16.4672 13.392,16.4672 0.7936,0 1.6864,-0.3968 1.6864,-1.2896 0,-0.8928 -0.992,-1.3888 -2.1824,-2.1824 -3.8688,-2.3808 -6.0512,-4.96 -6.0512,-9.8208 0,-6.0512 4.5632,-10.912 10.3168,-12.3008 l 5.7536,32.6368 m 14.0864,-18.352 c 0,7.0432 -2.8768,14.2848 -9.92,17.1616 -2.0832,-11.904 -4.7616,-27.6768 -5.456,-32.0416 8.928,0 15.376,6.0512 15.376,14.88"
     id="path69"
     style="stroke-width:0.992" />
  <path
     class="KeySig"
     transform="matrix(0.992,0,0,0.992,319.479,314)"
     d="M23.3,-10.5 C23.9,-10.6 24.4,-11.3 24.4,-11.9 L24.4,-17.8 C24.4,-18.8 23.7,-19.2 22.8,-19.2 L19.5,-18.5 L19.5,-33.4 L16.7,-33.4 L16.7,-17.9 L7.8,-16.1 L7.8,-30.2 L5,-30.2 L5,-15.5 L1.1,-14.7 C0.5,-14.6 0,-13.9 0,-13.3 L0,-7.5 C0,-6.4 0.8,-6.1 1.7,-6.1 L5,-6.8 L5,9.7 L1.1,10.5 C0.5,10.6 0,11.3 0,11.9 L0,17.7 C0,18.8 0.8,19.1 1.7,19.1 L5,18.4 L5,33.3 L7.8,33.3 L7.8,17.8 L16.7,16 L16.7,30.1 L19.5,30.1 L19.5,15.4 L23.3,14.7 C23.9,14.6 24.4,13.9 24.4,13.3 L24.4,7.4 C24.4,6.4 23.7,6 22.8,6 L19.5,6.7 L19.5,-9.8 L23.3,-10.5 M7.8,-7.4 L16.7,-9.2 L16.7,7.3 L7.8,9.2 L7.8,-7.4 "
     id="path70" />
  <path
     class="KeySig"
     transform="matrix(0.992,0,0,0.992,346.65,351.2)"
     d="M23.3,-10.5 C23.9,-10.6 24.4,-11.3 24.4,-11.9 L24.4,-17.8 C24.4,-18.8 23.7,-19.2 22.8,-19.2 L19.5,-18.5 L19.5,-33.4 L16.7,-33.4 L16.7,-17.9 L7.8,-16.1 L7.8,-30.2 L5,-30.2 L5,-15.5 L1.1,-14.7 C0.5,-14.6 0,-13.9 0,-13.3 L0,-7.5 C0,-6.4 0.8,-6.1 1.7,-6.1 L5,-6.8 L5,9.7 L1.1,10.5 C0.5,10.6 0,11.3 0,11.9 L0,17.7 C0,18.8 0.8,19.1 1.7,19.1 L5,18.4 L5,33.3 L7.8,33.3 L7.8,17.8 L16.7,16 L16.7,30.1 L19.5,30.1 L19.5,15.4 L23.3,14.7 C23.9,14.6 24.4,13.9 24.4,13.3 L24.4,7.4 C24.4,6.4 23.7,6 22.8,6 L19.5,6.7 L19.5,-9.8 L23.3,-10.5 M7.8,-7.4 L16.7,-9.2 L16.7,7.3 L7.8,9.2 L7.8,-7.4 "
     id="path71" />
  <path
     class="KeySig"
     transform="matrix(0.992,0,0,0.992,373.822,301.6)"
     d="M23.3,-10.5 C23.9,-10.6 24.4,-11.3 24.4,-11.9 L24.4,-17.8 C24.4,-18.8 23.7,-19.2 22.8,-19.2 L19.5,-18.5 L19.5,-33.4 L16.7,-33.4 L16.7,-17.9 L7.8,-16.1 L7.8,-30.2 L5,-30.2 L5,-15.5 L1.1,-14.7 C0.5,-14.6 0,-13.9 0,-13.3 L0,-7.5 C0,-6.4 0.8,-6.1 1.7,-6.1 L5,-6.8 L5,9.7 L1.1,10.5 C0.5,10.6 0,11.3 0,11.9 L0,17.7 C0,18.8 0.8,19.1 1.7,19.1 L5,18.4 L5,33.3 L7.8,33.3 L7.8,17.8 L16.7,16 L16.7,30.1 L19.5,30.1 L19.5,15.4 L23.3,14.7 C23.9,14.6 24.4,13.9 24.4,13.3 L24.4,7.4 C24.4,6.4 23.7,6 22.8,6 L19.5,6.7 L19.5,-9.8 L23.3,-10.5 M7.8,-7.4 L16.7,-9.2 L16.7,7.3 L7.8,9.2 L7.8,-7.4 "
     id="path72" />
  <path
     class="KeySig"
     d="m 342.5926,749.184 c 0.5952,-0.0992 1.0912,-0.7936 1.0912,-1.3888 v -5.8528 c 0,-0.992 -0.6944,-1.3888 -1.5872,-1.3888 l -3.2736,0.6944 v -14.7808 h -2.7776 v 15.376 l -8.8288,1.7856 v -13.9872 h -2.7776 v 14.5824 l -3.8688,0.7936 c -0.5952,0.0992 -1.0912,0.7936 -1.0912,1.3888 v 5.7536 c 0,1.0912 0.7936,1.3888 1.6864,1.3888 l 3.2736,-0.6944 v 16.368 l -3.8688,0.7936 c -0.5952,0.0992 -1.0912,0.7936 -1.0912,1.3888 v 5.7536 c 0,1.0912 0.7936,1.3888 1.6864,1.3888 l 3.2736,-0.6944 v 14.7808 h 2.7776 v -15.376 l 8.8288,-1.7856 v 13.9872 h 2.7776 v -14.5824 l 3.7696,-0.6944 c 0.5952,-0.0992 1.0912,-0.7936 1.0912,-1.3888 v -5.8528 c 0,-0.992 -0.6944,-1.3888 -1.5872,-1.3888 l -3.2736,0.6944 v -16.368 l 3.7696,-0.6944 m -15.376,3.0752 8.8288,-1.7856 v 16.368 l -8.8288,1.8848 v -16.4672"
     id="path73"
     style="stroke-width:0.992" />
  <path
     class="KeySig"
     d="m 369.7636,786.384 c 0.5952,-0.0992 1.0912,-0.7936 1.0912,-1.3888 v -5.8528 c 0,-0.992 -0.6944,-1.3888 -1.5872,-1.3888 l -3.2736,0.6944 v -14.7808 h -2.7776 v 15.376 l -8.8288,1.7856 V 766.8416 H 351.61 v 14.5824 l -3.8688,0.7936 c -0.5952,0.0992 -1.0912,0.7936 -1.0912,1.3888 v 5.7536 c 0,1.0912 0.7936,1.3888 1.6864,1.3888 l 3.2736,-0.6944 v 16.368 l -3.8688,0.7936 c -0.5952,0.0992 -1.0912,0.7936 -1.0912,1.3888 v 5.7536 c 0,1.0912 0.7936,1.3888 1.6864,1.3888 l 3.2736,-0.6944 v 14.7808 h 2.7776 v -15.376 l 8.8288,-1.7856 v 13.9872 h 2.7776 v -14.5824 l 3.7696,-0.6944 c 0.5952,-0.0992 1.0912,-0.7936 1.0912,-1.3888 v -5.8528 c 0,-0.992 -0.6944,-1.3888 -1.5872,-1.3888 l -3.2736,0.6944 v -16.368 l 3.7696,-0.6944 m -15.376,3.0752 8.8288,-1.7856 v 16.368 l -8.8288,1.8848 v -16.4672"
     id="path74"
     style="stroke-width:0.992" />
  <path
     class="KeySig"
     d="m 396.9356,736.784 c 0.5952,-0.0992 1.0912,-0.7936 1.0912,-1.3888 v -5.8528 c 0,-0.992 -0.6944,-1.3888 -1.5872,-1.3888 l -3.2736,0.6944 v -14.7808 h -2.7776 v 15.376 l -8.8288,1.7856 v -13.9872 h -2.7776 v 14.5824 l -3.8688,0.7936 c -0.5952,0.0992 -1.0912,0.7936 -1.0912,1.3888 v 5.7536 c 0,1.0912 0.7936,1.3888 1.6864,1.3888 l 3.2736,-0.6944 v 16.368 l -3.8688,0.7936 c -0.5952,0.0992 -1.0912,0.7936 -1.0912,1.3888 v 5.7536 c 0,1.0912 0.7936,1.3888 1.6864,1.3888 l 3.2736,-0.6944 v 14.7808 h 2.7776 v -15.376 l 8.8288,-1.7856 v 13.9872 h 2.7776 v -14.5824 l 3.7696,-0.6944 c 0.5952,-0.0992 1.0912,-0.7936 1.0912,-1.3888 v -5.8528 c 0,-0.992 -0.6944,-1.3888 -1.5872,-1.3888 l -3.2736,0.6944 v -16.368 l 3.7696,-0.6944 m -15.376,3.0752 8.8288,-1.7856 v 16.368 l -8.8288,1.8848 v -16.4672"
     id="path75"
     style="stroke-width:0.992" />
  <path
     class="Rest"
     d="m 608.9254,789.0624 c -0.0992,0 -0.2976,-0.0992 -0.3968,-0.0992 -0.5952,0 -1.0912,0.2976 -1.2896,0.7936 -2.2816,4.5632 -7.0432,10.7136 -12.4,11.7056 1.0912,-1.2896 1.7856,-2.8768 1.7856,-4.7616 0,-3.8688 -3.1744,-7.0432 -7.0432,-7.0432 -3.968,0 -7.1424,3.1744 -7.1424,7.0432 0,5.3568 5.2576,7.8368 9.92,7.8368 5.2576,0 8.7296,-2.48 12.1024,-6.1504 l -11.3088,35.3152 2.6784,0.7936 13.888,-43.7472 c 0.0992,-0.0992 0.0992,-0.2976 0.0992,-0.496 0,-0.496 -0.2976,-0.8928 -0.8928,-1.1904"
     id="path76"
     style="stroke-width:0.992" />
  <path
     class="Rest"
     d="m 1817.5164,789.0624 c -0.099,0 -0.2976,-0.0992 -0.3968,-0.0992 -0.5952,0 -1.0912,0.2976 -1.2896,0.7936 -2.2816,4.5632 -7.0432,10.7136 -12.4,11.7056 1.0912,-1.2896 1.7856,-2.8768 1.7856,-4.7616 0,-3.8688 -3.1744,-7.0432 -7.0432,-7.0432 -3.968,0 -7.1424,3.1744 -7.1424,7.0432 0,5.3568 5.2576,7.8368 9.92,7.8368 5.2576,0 8.7296,-2.48 12.1024,-6.1504 l -11.3088,35.3152 2.6784,0.7936 13.888,-43.7472 c 0.099,-0.0992 0.099,-0.2976 0.099,-0.496 0,-0.496 -0.2976,-0.8928 -0.8928,-1.1904"
     id="path77"
     style="stroke-width:0.992" />
  <path
     class="Rest"
     transform="matrix(0.992,0,0,0.992,1585.86,363.6)"
     d="M26.7,-20.3 C26.6,-20.3 26.4,-20.4 26.3,-20.4 C25.7,-20.4 25.2,-20.1 25,-19.6 C22.7,-15 17.9,-8.8 12.5,-7.8 C13.6,-9.1 14.3,-10.7 14.3,-12.6 C14.3,-16.5 11.1,-19.7 7.2,-19.7 C3.2,-19.7 0,-16.5 0,-12.6 C0,-7.2 5.3,-4.7 10,-4.7 C15.3,-4.7 18.8,-7.2 22.2,-10.9 L10.8,24.7 L13.5,25.5 L27.5,-18.6 C27.6,-18.7 27.6,-18.9 27.6,-19.1 C27.6,-19.6 27.3,-20 26.7,-20.3"
     id="path78" />
  <path
     class="Beam"
     fill-rule="evenodd"
     d="M802.268,425.578 L875.766,419.378 L875.766,431.822 L802.268,438.022 L802.268,425.578 "
     id="path79" />
  <path
     class="Beam"
     fill-rule="evenodd"
     d="m 737.41,734.763 56.88,6.2 v 12.474 l -56.88,-6.2 v -12.474"
     id="path80" />
  <path
     class="Beam"
     fill-rule="evenodd"
     d="M731.362,289.2 L781.188,289.2 L781.188,301.6 L731.362,301.6 L731.362,289.2 "
     id="path81" />
  <path
     class="Beam"
     fill-rule="evenodd"
     d="M731.362,307.8 L781.188,307.8 L781.188,320.2 L731.362,320.2 L731.362,307.8 "
     id="path82" />
  <path
     class="Hook"
     transform="matrix(0.992,0,0,0.992,1828.67,295.4)"
     d="M0,22.7 C0,23 0.1,23.6 0.8,23.8 C5.1,25.2 13.7,30.6 20.2,41.7 C22,44.8 24.9,49.1 24.9,57.4 C24.9,64.6 23.1,72 20.4,79.2 C20.2,79.8 20.1,80.3 20.1,80.7 C20.1,81.4 20.5,81.7 21.2,81.7 C21.8,81.7 22.3,81.3 22.7,80.6 C27.2,72.6 28.9,63.3 28.9,54.2 C28.4,41.3 21,31.8 21,31.8 C21.3,31.8 11.8,19.5 9.1,15.3 C5.4,9.6 3.7,3.9 3.5,3.5 C3.4,3.2 2.5,-0.4 2.5,-0.4 C2.4,-0.8 1.9,-1.2 1.3,-1.2 C0.6,-1.2 0,-0.6 0,0.1 L0,22.7 "
     id="path83" />
  <path
     class="Hook"
     d="m 666.591,763.5184 c 0,0.2976 0.0992,0.8928 0.7936,1.0912 4.2656,1.3888 12.7968,6.7456 19.2448,17.7568 1.7856,3.0752 4.6624,7.3408 4.6624,15.5744 0,7.1424 -1.7856,14.4832 -4.464,21.6256 -0.1984,0.5952 -0.2976,1.0912 -0.2976,1.488 0,0.6944 0.3968,0.992 1.0912,0.992 0.5952,0 1.0912,-0.3968 1.488,-1.0912 4.464,-7.936 6.1504,-17.1616 6.1504,-26.1888 -0.496,-12.7968 -7.8368,-22.2208 -7.8368,-22.2208 0.2976,0 -9.1264,-12.2016 -11.8048,-16.368 -3.6704,-5.6544 -5.3568,-11.3088 -5.5552,-11.7056 -0.0992,-0.2976 -0.992,-3.8688 -0.992,-3.8688 -0.0992,-0.3968 -0.5952,-0.7936 -1.1904,-0.7936 -0.6944,0 -1.2896,0.5952 -1.2896,1.2896 v 22.4192"
     id="path84"
     style="stroke-width:0.992" />
  <path
     class="Hook"
     transform="matrix(0.992,0,0,0.992,1727.9,431.8)"
     d="M0,-0.1 C0,0.6 0.6,1.2 1.3,1.2 C1.8,1.2 2.4,0.8 2.5,0.4 C2.5,0.3 3.4,-3.2 3.5,-3.5 C3.6,-3.9 4.5,-7.7 8.1,-13.6 C12,-20.1 18,-24.8 23,-31.8 C28,-38.8 30.9,-45.4 30.9,-54.2 C30.9,-63.3 28.9,-70.9 23.5,-80.6 C23.2,-81.3 22.6,-81.7 22,-81.7 C21.8,-81.7 21.6,-81.7 21.5,-81.6 C21,-81.4 20.8,-81 20.8,-80.4 C20.8,-80.1 20.9,-79.7 21.1,-79.2 C25.1,-69.9 26.7,-64.6 26.7,-57.4 C26.7,-49.1 23.8,-44.8 22,-41.7 C15.5,-30.6 5,-25.2 0.8,-23.8 C0.1,-23.6 0,-23 0,-22.7 L0,-0.1 "
     id="path85" />
  <path
     class="Hook"
     transform="matrix(0.992,0,0,0.992,1656.88,425.6)"
     d="M0,-0.1 C0,0.6 0.6,1.2 1.3,1.2 C1.8,1.2 2.4,0.8 2.5,0.4 C2.5,0.3 3.4,-3.2 3.5,-3.5 C3.6,-3.9 4.5,-7.7 8.1,-13.6 C12,-20.1 18,-24.8 23,-31.8 C28,-38.8 30.9,-45.4 30.9,-54.2 C30.9,-63.3 28.9,-70.9 23.5,-80.6 C23.2,-81.3 22.6,-81.7 22,-81.7 C21.8,-81.7 21.6,-81.7 21.5,-81.6 C21,-81.4 20.8,-81 20.8,-80.4 C20.8,-80.1 20.9,-79.7 21.1,-79.2 C25.1,-69.9 26.7,-64.6 26.7,-57.4 C26.7,-49.1 23.8,-44.8 22,-41.7 C15.5,-30.6 5,-25.2 0.8,-23.8 C0.1,-23.6 0,-23 0,-22.7 L0,-0.1 "
     id="path86" />
  <path
     class="Hook"
     transform="matrix(0.992,0,0,0.992,1318.35,431.8)"
     d="M0,-0.1 C0,0.6 0.6,1.2 1.3,1.2 C1.8,1.2 2.4,0.8 2.5,0.4 C2.5,0.3 3.4,-3.2 3.5,-3.5 C3.6,-3.9 4.5,-7.7 8.1,-13.6 C12,-20.1 18,-24.8 23,-31.8 C28,-38.8 30.9,-45.4 30.9,-54.2 C30.9,-63.3 28.9,-70.9 23.5,-80.6 C23.2,-81.3 22.6,-81.7 22,-81.7 C21.8,-81.7 21.6,-81.7 21.5,-81.6 C21,-81.4 20.8,-81 20.8,-80.4 C20.8,-80.1 20.9,-79.7 21.1,-79.2 C25.1,-69.9 26.7,-64.6 26.7,-57.4 C26.7,-49.1 23.8,-44.8 22,-41.7 C15.5,-30.6 5,-25.2 0.8,-23.8 C0.1,-23.6 0,-23 0,-22.7 L0,-0.1 "
     id="path87" />
  <path
     class="Hook"
     transform="matrix(0.992,0,0,0.992,1247.33,444.2)"
     d="M0,-0.1 C0,0.6 0.6,1.2 1.3,1.2 C1.8,1.2 2.4,0.8 2.5,0.4 C2.5,0.3 3.4,-3.2 3.5,-3.5 C3.6,-3.9 4.5,-7.7 8.1,-13.6 C12,-20.1 18,-24.8 23,-31.8 C28,-38.8 30.9,-45.4 30.9,-54.2 C30.9,-63.3 28.9,-70.9 23.5,-80.6 C23.2,-81.3 22.6,-81.7 22,-81.7 C21.8,-81.7 21.6,-81.7 21.5,-81.6 C21,-81.4 20.8,-81 20.8,-80.4 C20.8,-80.1 20.9,-79.7 21.1,-79.2 C25.1,-69.9 26.7,-64.6 26.7,-57.4 C26.7,-49.1 23.8,-44.8 22,-41.7 C15.5,-30.6 5,-25.2 0.8,-23.8 C0.1,-23.6 0,-23 0,-22.7 L0,-0.1 "
     id="path88" />
  <path
     class="Lyrics"
     d="m 670.998,943.99 c 0,-5.05 -5.35,-8.2 -14.9,-8.2 -9.5,0 -14.85,3.15 -14.85,8.2 0,4.95 5.35,8.1 14.85,8.1 9.55,0 14.9,-3.15 14.9,-8.1 m -10.8,-15.35 c -1.7,0.3 -4.55,0.65 -6.15,0.7 l 1.35,-11.85 -3.75,-0.45 -1,12.4 c -2,0.15 -4.25,0.25 -6.15,0.3 l -1,-12.65 -3.75,0.5 1.3,12.15 c -2,0.05 -4.2,0.05 -6.1,0.05 l 0.5,3.4 c 4.2,-0.05 10.2,-0.2 13.9,-0.5 4.4,-0.3 8.25,-0.6 11.2,-1 l -0.35,-3.05 m 10.7,7.05 v -27.3 h -3.8 v 7.75 h -7.4 v 3.05 h 7.4 v 4.9 h -7.4 v 3.05 h 7.4 v 8.55 h 3.8 m -3.8,8.3 c 0,3.1 -4.05,4.9 -11,4.9 -6.8,0 -10.9,-1.8 -10.9,-4.9 0,-3.1 4.1,-4.95 10.9,-4.95 6.95,0 11,1.85 11,4.95 m -7.8,-29 v -3.1 h -23.2 v 3.1 h 23.2"
     id="path89" />
  <path
     class="Lyrics"
     d="m 785.464,940.29 c -2.9,0.45 -7.55,0.85 -12.4,1.15 v -4.15 c 5.15,-0.5 8.5,-3.2 8.5,-7.2 0,-4.6 -4.15,-7.4 -10.35,-7.4 -6.15,0 -10.35,2.85 -10.35,7.4 0,3.95 3.3,6.65 8.35,7.2 v 4.35 c -4.2,0.15 -8.65,0.15 -11.75,0.05 l 0.7,3.3 c 3.65,0 8.25,0 13.1,-0.3 5.25,-0.35 11.05,-0.9 14.45,-1.3 l -0.25,-3.1 m 13.45,-9.25 v -3.25 h -7 v -19.4 h -3.85 v 43.7 h 3.85 v -21.05 h 7 m -21.05,-0.95 c 0,2.45 -2.65,4.2 -6.65,4.2 -3.95,0 -6.7,-1.75 -6.7,-4.2 0,-2.55 2.75,-4.25 6.7,-4.25 4,0 6.65,1.7 6.65,4.25 m 6.5,-9.65 v -3.15 h -26 v 3.15 h 26 m -6.95,-6.7 v -3.2 h -12.55 v 3.2 h 12.55"
     id="path90" />
  <path
     class="Lyrics"
     d="m 494.282,952.09 v -43.7 h -3.8 v 15.6 h -10.2 v 3.2 h 10.2 v 24.9 h 3.8 m -9.7,-13.35 c -6,-3.5 -11.2,-10.6 -11.2,-18.6 v -7.95 h -3.95 v 8.1 c 0,7.75 -5.05,15.5 -11.4,19.5 l 2.5,2.85 c 5.05,-3.65 9.35,-9.05 10.9,-14.5 1.75,5.25 6.8,10.8 10.8,13.5 l 2.35,-2.9"
     id="path91" />
  <path
     class="Lyrics"
     d="m 906.433,931.69 v -2.95 h -39.45 v 2.95 h 39.45 m -3.3,19.6 v -3 h -27.8 v -4 h 26.45 v -9.15 h -30.2 v 2.8 h 26.4 v 3.65 h -26.45 v 9.7 h 31.6 m -0.75,-26 v -2.85 h -26.6 v -3.45 h 25.75 v -9.15 h -29.6 v 3 h 25.8 v 3.4 h -25.75 v 9.05 h 30.4"
     id="path92" />
  <path
     class="Lyrics"
     d="M1833.22,491.579 C1826.02,490.18 1817.02,483.88 1817.02,476.38 L1817.02,473.23 L1813.07,473.23 L1813.07,476.38 C1813.07,483.88 1804.57,490.13 1796.92,491.579 L1798.92,494.63 C1806.57,492.53 1813.32,487.13 1814.97,482.13 C1816.87,487.03 1823.47,492.48 1831.12,494.63 L1833.22,491.579 M1834.77,508.13 L1834.77,504.93 L1816.87,504.93 L1816.87,493.73 L1813.07,493.73 L1813.07,504.93 L1795.32,504.93 L1795.32,508.13 L1834.77,508.13 "
     id="path93" />
  <path
     class="Lyrics"
     d="m 717.562,934.69 v 4.15 h 12.45 v -4.15 h -12.45"
     id="path94" />
  <path
     class="Lyrics"
     d="M1694.49,487.579 C1687.79,486.829 1678.84,482.38 1678.64,476.23 L1692.69,476.23 L1692.69,473.079 L1660.49,473.079 L1660.49,476.23 L1674.64,476.23 C1674.44,482.329 1665.99,486.93 1658.84,487.68 L1660.59,490.88 C1668.04,489.63 1674.84,485.13 1676.59,481.03 C1678.59,485.13 1685.54,489.53 1692.69,490.78 L1694.49,487.579 M1678.44,513.679 L1678.44,498.03 L1696.34,498.03 L1696.34,494.829 L1656.89,494.829 L1656.89,498.03 L1674.64,498.03 L1674.64,513.679 L1678.44,513.679 "
     id="path95" />
  <path
     class="Lyrics"
     d="M1461.93,493.28 L1461.93,490.329 L1422.48,490.329 L1422.48,493.28 L1461.93,493.28 M1458.63,512.88 L1458.63,509.88 L1430.83,509.88 L1430.83,505.88 L1457.28,505.88 L1457.28,496.73 L1427.08,496.73 L1427.08,499.53 L1453.48,499.53 L1453.48,503.18 L1427.03,503.18 L1427.03,512.88 L1458.63,512.88 M1457.88,486.88 L1457.88,484.03 L1431.28,484.03 L1431.28,480.579 L1457.03,480.579 L1457.03,471.43 L1427.43,471.43 L1427.43,474.43 L1453.23,474.43 L1453.23,477.829 L1427.48,477.829 L1427.48,486.88 L1457.88,486.88 "
     id="path96" />
  <path
     class="Lyrics"
     d="m 1247.28,925.99 c -6.7,-0.75 -15.65,-5.2 -15.85,-11.35 h 14.05 v -3.15 h -32.2 v 3.15 h 14.15 c -0.2,6.1 -8.65,10.7 -15.8,11.45 l 1.75,3.2 c 7.45,-1.25 14.25,-5.75 16,-9.85 2,4.1 8.95,8.5 16.1,9.75 l 1.8,-3.2 m -16.05,26.1 v -15.65 h 17.9 v -3.2 h -39.45 v 3.2 h 17.75 v 15.65 h 3.8"
     id="path97" />
  <path
     class="Lyrics"
     d="M1341.75,501.88 C1338.85,502.329 1334.2,502.73 1329.35,503.03 L1329.35,498.88 C1334.5,498.38 1337.85,495.68 1337.85,491.68 C1337.85,487.079 1333.7,484.28 1327.5,484.28 C1321.35,484.28 1317.15,487.13 1317.15,491.68 C1317.15,495.63 1320.45,498.329 1325.5,498.88 L1325.5,503.23 C1321.3,503.38 1316.85,503.38 1313.75,503.28 L1314.45,506.579 C1318.1,506.579 1322.7,506.579 1327.55,506.28 C1332.8,505.93 1338.6,505.38 1342,504.98 L1341.75,501.88 M1355.2,492.63 L1355.2,489.38 L1348.2,489.38 L1348.2,469.98 L1344.35,469.98 L1344.35,513.679 L1348.2,513.679 L1348.2,492.63 L1355.2,492.63 M1334.15,491.68 C1334.15,494.13 1331.5,495.88 1327.5,495.88 C1323.55,495.88 1320.8,494.13 1320.8,491.68 C1320.8,489.13 1323.55,487.43 1327.5,487.43 C1331.5,487.43 1334.15,489.13 1334.15,491.68 M1340.65,482.03 L1340.65,478.88 L1314.65,478.88 L1314.65,482.03 L1340.65,482.03 M1333.7,475.329 L1333.7,472.13 L1321.15,472.13 L1321.15,475.329 L1333.7,475.329 "
     id="path98" />
  <path
     class="Lyrics"
     d="m 1329.18,929.99 c -7.2,-1.4 -16.2,-7.7 -16.2,-15.2 v -3.15 h -3.95 v 3.15 c 0,7.5 -8.5,13.75 -16.15,15.2 l 2,3.05 c 7.65,-2.1 14.4,-7.5 16.05,-12.5 1.9,4.9 8.5,10.35 16.15,12.5 l 2.1,-3.05 m 1.55,16.55 v -3.2 h -17.9 v -11.2 h -3.8 v 11.2 h -17.75 v 3.2 h 39.45"
     id="path99" />
  <path
     class="Lyrics"
     d="M1281.49,505.579 C1281.49,500.53 1276.14,497.38 1266.59,497.38 C1257.09,497.38 1251.74,500.53 1251.74,505.579 C1251.74,510.53 1257.09,513.679 1266.59,513.679 C1276.14,513.679 1281.49,510.53 1281.49,505.579 M1270.69,490.23 C1268.99,490.53 1266.14,490.88 1264.54,490.93 L1265.89,479.079 L1262.14,478.63 L1261.14,491.03 C1259.14,491.18 1256.89,491.28 1254.99,491.329 L1253.99,478.68 L1250.24,479.18 L1251.54,491.329 C1249.54,491.38 1247.34,491.38 1245.44,491.38 L1245.94,494.78 C1250.14,494.73 1256.14,494.579 1259.84,494.28 C1264.24,493.98 1268.09,493.68 1271.04,493.28 L1270.69,490.23 M1281.39,497.28 L1281.39,469.98 L1277.59,469.98 L1277.59,477.73 L1270.19,477.73 L1270.19,480.78 L1277.59,480.78 L1277.59,485.68 L1270.19,485.68 L1270.19,488.73 L1277.59,488.73 L1277.59,497.28 L1281.39,497.28 M1277.59,505.579 C1277.59,508.68 1273.54,510.48 1266.59,510.48 C1259.79,510.48 1255.69,508.68 1255.69,505.579 C1255.69,502.48 1259.79,500.63 1266.59,500.63 C1273.54,500.63 1277.59,502.48 1277.59,505.579 M1269.79,476.579 L1269.79,473.48 L1246.59,473.48 L1246.59,476.579 L1269.79,476.579 "
     id="path100" />
  <path
     class="Lyrics"
     d="M1120.39,513.029 L1120.39,497.03 L1091.74,497.03 L1091.74,513.029 L1120.39,513.029 M1116.59,509.88 L1095.54,509.88 L1095.54,500.13 L1116.59,500.13 L1116.59,509.88 M1116.59,469.98 L1116.59,494.28 L1120.39,494.28 L1120.39,469.98 L1116.59,469.98 M1112.49,486.079 C1106.89,487.23 1097.09,488.23 1090.74,487.98 L1090.74,472.23 L1086.94,472.23 L1086.94,491.329 L1089.44,491.329 C1097.04,491.329 1108.09,490.38 1112.94,489.329 L1112.49,486.079 "
     id="path101" />
  <path
     class="Lyrics"
     d="m 1447.8,952.09 v -43.7 h -3.8 v 15.6 h -10.2 v 3.2 h 10.2 v 24.9 h 3.8 m -9.7,-13.35 c -6,-3.5 -11.2,-10.6 -11.2,-18.6 v -7.95 h -3.95 v 8.1 c 0,7.75 -5.05,15.5 -11.4,19.5 l 2.5,2.85 c 5.05,-3.65 9.35,-9.05 10.9,-14.5 1.75,5.25 6.8,10.8 10.8,13.5 l 2.35,-2.9"
     id="path102" />
  <path
     class="Lyrics"
     d="m 1455.4,934.69 v 4.15 h 12.45 v -4.15 h -12.45"
     id="path103" />
  <path
     class="Lyrics"
     d="M1015.02,487.579 C1008.32,486.829 999.365,482.38 999.165,476.23 L1013.22,476.23 L1013.22,473.079 L981.015,473.079 L981.015,476.23 L995.165,476.23 C994.965,482.329 986.515,486.93 979.365,487.68 L981.115,490.88 C988.565,489.63 995.365,485.13 997.115,481.03 C999.115,485.13 1006.07,489.53 1013.22,490.78 L1015.02,487.579 M998.965,513.679 L998.965,498.03 L1016.87,498.03 L1016.87,494.829 L977.415,494.829 L977.415,498.03 L995.165,498.03 L995.165,513.679 L998.965,513.679 "
     id="path104" />
  <path
     class="Lyrics"
     d="M909.143,495.73 L909.143,492.53 L869.693,492.53 L869.693,495.73 L909.143,495.73 M904.943,512.73 L904.943,509.579 L878.643,509.579 L878.643,499.829 L874.843,499.829 L874.843,512.73 L904.943,512.73 M904.743,487.079 L904.743,483.93 L878.793,483.93 L878.793,471.829 L874.993,471.829 L874.993,487.079 L904.743,487.079 "
     id="path105" />
  <path
     class="Lyrics"
     d="M836.518,513.679 L836.518,469.98 L832.668,469.98 L832.668,513.679 L836.518,513.679 M827.118,500.28 C821.068,496.68 815.768,489.53 815.768,481.53 L815.768,473.78 L811.918,473.78 L811.918,481.68 C811.918,489.43 806.668,497.38 800.268,501.38 L802.768,504.23 C807.818,500.63 812.318,495.28 813.918,489.829 C815.618,495.079 820.768,500.48 824.718,503.18 L827.118,500.28 "
     id="path106" />
  <path
     class="Lyrics"
     d="M756.615,473.78 C750.265,473.78 747.015,479.98 747.015,488.73 C747.015,497.53 750.265,503.68 756.615,503.68 C763.015,503.68 766.265,497.53 766.265,488.73 C766.265,479.98 763.015,473.78 756.615,473.78 M783.165,513.679 L783.165,469.98 L779.415,469.98 L779.415,487.68 L774.065,487.68 L774.065,470.88 L770.365,470.88 L770.365,511.63 L774.065,511.63 L774.065,490.829 L779.415,490.829 L779.415,513.679 L783.165,513.679 M762.465,488.73 C762.465,495.829 760.165,500.329 756.615,500.329 C753.115,500.329 750.865,495.829 750.865,488.73 C750.865,481.68 753.115,477.13 756.615,477.13 C760.165,477.13 762.465,481.68 762.465,488.73"
     id="path107" />
  <path
     class="Lyrics"
     d="M733.264,493.48 L733.264,469.98 L729.464,469.98 L729.464,480.38 L722.114,480.38 L722.114,483.53 L729.464,483.53 L729.464,493.48 L733.264,493.48 M737.564,510.829 C732.864,508.579 729.864,504.079 729.864,499.329 L729.864,495.63 L726.164,495.63 L726.164,499.329 C726.164,503.98 723.614,508.78 718.664,511.03 L720.764,513.83 C724.214,511.98 727.164,508.38 727.964,505.48 C728.914,508.43 732.114,511.78 735.314,513.63 L737.564,510.829 M717.614,513.08 L717.614,496.13 L714.014,496.13 L714.014,501.579 L706.314,501.579 L706.314,496.13 L702.714,496.13 L702.714,513.08 L717.614,513.08 M714.014,510.079 L706.314,510.079 L706.314,504.48 L714.014,504.48 L714.014,510.079 M709.164,472.13 C703.014,472.13 697.914,476.23 697.914,482.38 C697.914,488.579 703.064,492.48 709.164,492.48 C715.314,492.48 720.364,488.579 720.364,482.329 C720.364,476.13 715.314,472.13 709.164,472.13 M709.164,475.43 C713.664,475.43 716.564,478.28 716.564,482.38 C716.564,486.53 713.614,489.329 709.164,489.329 C704.864,489.329 701.714,486.53 701.714,482.329 C701.714,478.23 704.864,475.43 709.164,475.43"
     id="path108" />
  <path
     class="Lyrics"
     d="M602.425,493.28 L602.425,490.329 L562.975,490.329 L562.975,493.28 L602.425,493.28 M599.125,512.88 L599.125,509.88 L571.325,509.88 L571.325,505.88 L597.775,505.88 L597.775,496.73 L567.575,496.73 L567.575,499.53 L593.975,499.53 L593.975,503.18 L567.525,503.18 L567.525,512.88 L599.125,512.88 M598.375,486.88 L598.375,484.03 L571.775,484.03 L571.775,480.579 L597.525,480.579 L597.525,471.43 L567.925,471.43 L567.925,474.43 L593.725,474.43 L593.725,477.829 L567.975,477.829 L567.975,486.88 L598.375,486.88 "
     id="path109" />
  <path
     class="Lyrics"
     d="M460.8,477.829 L470.75,477.829 C470.7,484.329 465.2,489.78 459.6,491.68 L461.6,494.68 C466.8,492.28 471.35,488.03 472.75,483.78 C474.5,487.68 479.5,491.63 483.75,493.28 L485.75,490.38 C481.15,488.93 474.65,484.28 474.6,477.829 L484.9,477.829 L484.9,474.63 L460.8,474.63 L460.8,477.829 M494,513.679 L494,469.98 L490.25,469.98 L490.25,513.679 L494,513.679 M487.3,503.73 L486.95,500.63 C484.15,501.03 479.35,501.329 474.55,501.63 L474.55,492.23 L470.75,492.23 L470.75,501.88 C466.1,502.03 461.7,502.18 458.35,502.18 L459,505.53 C462.7,505.48 467.6,505.28 472.45,505.03 C477.8,504.63 483.85,504.18 487.3,503.73"
     id="path110" />
  <polyline
     class="LyricsLineSegment"
     fill="none"
     stroke="#000000"
     stroke-width="2.48"
     stroke-linejoin="bevel"
     points="1735.89,496.201 1755.73,496.201"
     id="polyline110" />
  <path
     class="NoteDot"
     d="m 1680.5,821.6 c 0,2.7776 2.1824,4.96 4.96,4.96 2.7776,0 4.96,-2.1824 4.96,-4.96 0,-2.7776 -2.1824,-4.96 -4.96,-4.96 -2.7776,0 -4.96,2.1824 -4.96,4.96"
     id="path111"
     style="stroke-width:0.992" />
  <path
     class="NoteDot"
     transform="matrix(0.992,0,0,0.992,611.2,376)"
     d="M0,0 C0,2.8 2.2,5 5,5 C7.8,5 10,2.8 10,0 C10,-2.8 7.8,-5 5,-5 C2.2,-5 0,-2.8 0,0"
     id="path112" />
</svg>
